<svg width="353" height="240" viewBox="0 0 353 240" fill="none" xmlns="http://www.w3.org/2000/svg">
<path d="M86.3853 2.15055L83.1624 10.3899C83.0768 10.6092 82.9254 10.7966 82.729 10.9264C82.5326 11.0562 82.3009 11.1221 82.0656 11.115C81.8303 11.1078 81.603 11.0281 81.4148 10.8866C81.2266 10.7452 81.0868 10.549 81.0146 10.3249L80.25 7.9971C80.1393 7.65946 79.9518 7.35206 79.7023 7.09905C79.4528 6.84603 79.1481 6.65426 78.8121 6.5388L76.4956 5.74564C76.273 5.66955 76.0792 5.52684 75.9404 5.33686C75.8017 5.14688 75.7247 4.91881 75.72 4.68361C75.7153 4.4484 75.783 4.21742 75.914 4.02201C76.0449 3.82659 76.2329 3.67619 76.4522 3.59119L84.6912 0.432718C84.9303 0.340726 85.191 0.320503 85.4414 0.374529C85.6917 0.428556 85.9209 0.554482 86.1008 0.736865C86.2806 0.919248 86.4034 1.15016 86.4539 1.40127C86.5044 1.65239 86.4806 1.91279 86.3853 2.15055Z" fill="#00B6CC"/>
<rect x="35.2188" y="8.45117" width="46" height="20" rx="8" fill="#00B6CC"/>
<path d="M46.1988 15.3112H47.0388V19.2312C47.0388 19.3978 47.0354 19.5812 47.0288 19.7812C47.0288 19.9745 47.0254 20.1678 47.0188 20.3612C47.0121 20.5545 47.0021 20.7278 46.9888 20.8812C46.9821 21.0278 46.9754 21.1412 46.9688 21.2212H47.0088L50.9388 15.3112H51.9388V22.4512H51.0987V18.5712C51.0987 18.3912 51.1021 18.1978 51.1088 17.9912C51.1154 17.7778 51.1221 17.5745 51.1288 17.3812C51.1421 17.1812 51.1521 17.0045 51.1588 16.8512C51.1654 16.6978 51.1721 16.5845 51.1788 16.5112H51.1388L47.1988 22.4512H46.1988V15.3112ZM58.0545 18.4412C58.0545 18.7745 57.9545 19.0345 57.7545 19.2212C57.5545 19.4078 57.2979 19.5345 56.9845 19.6012V19.6412C57.3179 19.6878 57.6079 19.8078 57.8545 20.0012C58.1012 20.1878 58.2245 20.4812 58.2245 20.8812C58.2245 21.1078 58.1812 21.3178 58.0945 21.5112C58.0145 21.7045 57.8879 21.8712 57.7145 22.0112C57.5412 22.1512 57.3179 22.2612 57.0445 22.3412C56.7712 22.4145 56.4412 22.4512 56.0545 22.4512H53.7445V17.0912H56.0445C56.4245 17.0912 56.7645 17.1345 57.0645 17.2212C57.3712 17.3012 57.6112 17.4412 57.7845 17.6412C57.9645 17.8345 58.0545 18.1012 58.0545 18.4412ZM57.3145 20.8812C57.3145 20.5745 57.1979 20.3545 56.9645 20.2212C56.7312 20.0878 56.3879 20.0212 55.9345 20.0212H54.6245V21.7412H55.9545C56.3945 21.7412 56.7312 21.6778 56.9645 21.5512C57.1979 21.4178 57.3145 21.1945 57.3145 20.8812ZM57.1645 18.5512C57.1645 18.2978 57.0712 18.1145 56.8845 18.0012C56.7045 17.8812 56.4079 17.8212 55.9945 17.8212H54.6245V19.2912H55.8345C56.2679 19.2912 56.5979 19.2312 56.8245 19.1112C57.0512 18.9912 57.1645 18.8045 57.1645 18.5512ZM61.5363 17.0012C62.1896 17.0012 62.6729 17.1445 62.9863 17.4312C63.2996 17.7178 63.4563 18.1745 63.4563 18.8012V22.4512H62.8163L62.6463 21.6912H62.6063C62.4529 21.8845 62.2929 22.0478 62.1263 22.1812C61.9663 22.3078 61.7796 22.4012 61.5663 22.4612C61.3596 22.5212 61.1063 22.5512 60.8063 22.5512C60.4863 22.5512 60.1963 22.4945 59.9363 22.3812C59.6829 22.2678 59.4829 22.0945 59.3363 21.8612C59.1896 21.6212 59.1163 21.3212 59.1163 20.9612C59.1163 20.4278 59.3263 20.0178 59.7463 19.7312C60.1663 19.4378 60.8129 19.2778 61.6863 19.2512L62.5963 19.2212V18.9012C62.5963 18.4545 62.4996 18.1445 62.3063 17.9712C62.1129 17.7978 61.8396 17.7112 61.4863 17.7112C61.2063 17.7112 60.9396 17.7545 60.6863 17.8412C60.4329 17.9212 60.1963 18.0145 59.9762 18.1212L59.7063 17.4612C59.9396 17.3345 60.2163 17.2278 60.5363 17.1412C60.8563 17.0478 61.1896 17.0012 61.5363 17.0012ZM61.7963 19.8612C61.1296 19.8878 60.6663 19.9945 60.4063 20.1812C60.1529 20.3678 60.0263 20.6312 60.0263 20.9712C60.0263 21.2712 60.1163 21.4912 60.2963 21.6312C60.4829 21.7712 60.7196 21.8412 61.0063 21.8412C61.4596 21.8412 61.8363 21.7178 62.1363 21.4712C62.4363 21.2178 62.5863 20.8312 62.5863 20.3112V19.8312L61.7963 19.8612ZM65.9917 17.0912V19.3212H68.9017V17.0912H69.7817V22.4512H68.9017V20.0612H65.9917V22.4512H65.1117V17.0912H65.9917Z" fill="#EDEDED"/>
<path d="M70.6663 165.61L67.4434 173.849C67.3578 174.068 67.2064 174.256 67.01 174.385C66.8136 174.515 66.5819 174.581 66.3466 174.574C66.1113 174.567 65.884 174.487 65.6958 174.346C65.5076 174.204 65.3678 174.008 65.2956 173.784L64.5311 171.456C64.4203 171.118 64.2328 170.811 63.9833 170.558C63.7339 170.305 63.4291 170.113 63.0931 169.998L60.7766 169.205C60.554 169.129 60.3602 168.986 60.2215 168.796C60.0827 168.606 60.0057 168.378 60.001 168.143C59.9963 167.907 60.064 167.676 60.195 167.481C60.326 167.286 60.5139 167.135 60.7332 167.05L68.9722 163.892C69.2113 163.8 69.472 163.779 69.7224 163.834C69.9728 163.888 70.2019 164.013 70.3818 164.196C70.5616 164.378 70.6844 164.609 70.7349 164.86C70.7854 165.111 70.7616 165.372 70.6663 165.61Z" fill="#FF00E6"/>
<rect x="14.5" y="171.91" width="52" height="20" rx="8" fill="#FF00E6"/>
<path d="M27.36 178.77C28.2933 178.77 28.9733 178.953 29.4 179.32C29.8267 179.687 30.04 180.203 30.04 180.87C30.04 181.163 29.99 181.447 29.89 181.72C29.7967 181.987 29.64 182.227 29.42 182.44C29.2 182.653 28.9067 182.823 28.54 182.95C28.1733 183.07 27.7233 183.13 27.19 183.13H26.37V185.91H25.47V178.77H27.36ZM27.28 179.54H26.37V182.36H27.09C27.5433 182.36 27.92 182.313 28.22 182.22C28.52 182.12 28.7433 181.963 28.89 181.75C29.0367 181.537 29.11 181.257 29.11 180.91C29.11 180.45 28.9633 180.107 28.67 179.88C28.3767 179.653 27.9133 179.54 27.28 179.54ZM36.0647 183.22C36.0647 183.667 36.0047 184.063 35.8847 184.41C35.7714 184.75 35.6047 185.04 35.3847 185.28C35.1714 185.52 34.908 185.703 34.5947 185.83C34.288 185.95 33.9447 186.01 33.5647 186.01C33.2114 186.01 32.8847 185.95 32.5847 185.83C32.2847 185.703 32.0247 185.52 31.8047 185.28C31.5847 185.04 31.4114 184.75 31.2847 184.41C31.1647 184.063 31.1047 183.667 31.1047 183.22C31.1047 182.627 31.2047 182.127 31.4047 181.72C31.6047 181.307 31.8914 180.993 32.2647 180.78C32.638 180.56 33.0814 180.45 33.5947 180.45C34.0814 180.45 34.508 180.56 34.8747 180.78C35.248 180.993 35.538 181.307 35.7447 181.72C35.958 182.127 36.0647 182.627 36.0647 183.22ZM32.0147 183.22C32.0147 183.64 32.068 184.007 32.1747 184.32C32.288 184.627 32.4614 184.863 32.6947 185.03C32.928 185.197 33.2247 185.28 33.5847 185.28C33.9447 185.28 34.2414 185.197 34.4747 185.03C34.708 184.863 34.878 184.627 34.9847 184.32C35.098 184.007 35.1547 183.64 35.1547 183.22C35.1547 182.793 35.098 182.43 34.9847 182.13C34.8714 181.83 34.698 181.6 34.4647 181.44C34.238 181.273 33.9414 181.19 33.5747 181.19C33.028 181.19 32.6314 181.37 32.3847 181.73C32.138 182.09 32.0147 182.587 32.0147 183.22ZM43.2094 180.55V185.91H42.4194V182.49C42.4194 182.35 42.4227 182.203 42.4294 182.05C42.4427 181.897 42.456 181.747 42.4694 181.6H42.4394L40.6894 185.91H39.9494L38.2494 181.6H38.2194C38.2327 181.747 38.2394 181.897 38.2394 182.05C38.246 182.203 38.2494 182.36 38.2494 182.52V185.91H37.4594V180.55H38.6294L40.3194 184.86L42.0394 180.55H43.2094ZM46.9503 180.46C47.6036 180.46 48.087 180.603 48.4003 180.89C48.7136 181.177 48.8703 181.633 48.8703 182.26V185.91H48.2303L48.0603 185.15H48.0203C47.867 185.343 47.707 185.507 47.5403 185.64C47.3803 185.767 47.1936 185.86 46.9803 185.92C46.7736 185.98 46.5203 186.01 46.2203 186.01C45.9003 186.01 45.6103 185.953 45.3503 185.84C45.097 185.727 44.897 185.553 44.7503 185.32C44.6036 185.08 44.5303 184.78 44.5303 184.42C44.5303 183.887 44.7403 183.477 45.1603 183.19C45.5803 182.897 46.227 182.737 47.1003 182.71L48.0103 182.68V182.36C48.0103 181.913 47.9136 181.603 47.7203 181.43C47.527 181.257 47.2536 181.17 46.9003 181.17C46.6203 181.17 46.3536 181.213 46.1003 181.3C45.847 181.38 45.6103 181.473 45.3903 181.58L45.1203 180.92C45.3536 180.793 45.6303 180.687 45.9503 180.6C46.2703 180.507 46.6036 180.46 46.9503 180.46ZM47.2103 183.32C46.5436 183.347 46.0803 183.453 45.8203 183.64C45.567 183.827 45.4403 184.09 45.4403 184.43C45.4403 184.73 45.5303 184.95 45.7103 185.09C45.897 185.23 46.1336 185.3 46.4203 185.3C46.8736 185.3 47.2503 185.177 47.5503 184.93C47.8503 184.677 48.0003 184.29 48.0003 183.77V183.29L47.2103 183.32ZM51.4058 180.55V182.78H54.3158V180.55H55.1958V185.91H54.3158V183.52H51.4058V185.91H50.5258V180.55H51.4058Z" fill="#EDEDED"/>
<path d="M242.938 62.2052L246.161 70.4446C246.246 70.6639 246.398 70.8513 246.594 70.9811C246.79 71.1109 247.022 71.1768 247.257 71.1697C247.493 71.1625 247.72 71.0828 247.908 70.9413C248.096 70.7999 248.236 70.6037 248.308 70.3796L249.073 68.0518C249.184 67.7141 249.371 67.4068 249.621 67.1537C249.87 66.9007 250.175 66.709 250.511 66.5935L252.827 65.8003C253.05 65.7242 253.244 65.5815 253.383 65.3915C253.521 65.2016 253.598 64.9735 253.603 64.7383C253.608 64.5031 253.54 64.2721 253.409 64.0767C253.278 63.8813 253.09 63.7309 252.871 63.6459L244.632 60.4874C244.393 60.3954 244.132 60.3752 243.882 60.4292C243.631 60.4832 243.402 60.6092 243.222 60.7916C243.042 60.9739 242.92 61.2048 242.869 61.456C242.819 61.7071 242.842 61.9675 242.938 62.2052Z" fill="#C300FF"/>
<rect x="251.313" y="68.5059" width="55" height="20" rx="8" fill="#C300FF"/>
<path d="M265.343 76.0559C264.963 76.0559 264.62 76.1225 264.313 76.2559C264.007 76.3825 263.747 76.5725 263.533 76.8259C263.32 77.0725 263.157 77.3759 263.043 77.7359C262.93 78.0892 262.873 78.4892 262.873 78.9359C262.873 79.5225 262.963 80.0325 263.143 80.4659C263.33 80.8992 263.603 81.2325 263.963 81.4659C264.33 81.6992 264.787 81.8159 265.333 81.8159C265.647 81.8159 265.943 81.7892 266.223 81.7359C266.503 81.6825 266.777 81.6159 267.043 81.5359V82.3159C266.777 82.4159 266.5 82.4892 266.213 82.5359C265.933 82.5825 265.597 82.6059 265.203 82.6059C264.477 82.6059 263.87 82.4559 263.383 82.1559C262.897 81.8559 262.53 81.4292 262.283 80.8759C262.043 80.3225 261.923 79.6725 261.923 78.9259C261.923 78.3859 261.997 77.8925 262.143 77.4459C262.297 76.9992 262.517 76.6125 262.803 76.2859C263.097 75.9592 263.457 75.7092 263.883 75.5359C264.31 75.3559 264.8 75.2659 265.353 75.2659C265.72 75.2659 266.073 75.3025 266.413 75.3759C266.753 75.4492 267.057 75.5525 267.323 75.6859L266.963 76.4459C266.743 76.3459 266.497 76.2559 266.223 76.1759C265.957 76.0959 265.663 76.0559 265.343 76.0559ZM270.552 77.0459C271.012 77.0459 271.405 77.1459 271.732 77.3459C272.065 77.5459 272.318 77.8292 272.492 78.1959C272.672 78.5559 272.762 78.9792 272.762 79.4659V79.9959H269.092C269.105 80.6025 269.258 81.0659 269.552 81.3859C269.852 81.6992 270.268 81.8559 270.802 81.8559C271.142 81.8559 271.442 81.8259 271.702 81.7659C271.968 81.6992 272.242 81.6059 272.522 81.4859V82.2559C272.248 82.3759 271.978 82.4625 271.712 82.5159C271.445 82.5759 271.128 82.6059 270.762 82.6059C270.255 82.6059 269.805 82.5025 269.412 82.2959C269.025 82.0892 268.722 81.7825 268.502 81.3759C268.288 80.9625 268.182 80.4592 268.182 79.8659C268.182 79.2792 268.278 78.7759 268.472 78.3559C268.672 77.9359 268.948 77.6125 269.302 77.3859C269.662 77.1592 270.078 77.0459 270.552 77.0459ZM270.542 77.7659C270.122 77.7659 269.788 77.9025 269.542 78.1759C269.302 78.4425 269.158 78.8159 269.112 79.2959H271.842C271.842 78.9892 271.795 78.7225 271.702 78.4959C271.608 78.2692 271.465 78.0925 271.272 77.9659C271.085 77.8325 270.842 77.7659 270.542 77.7659ZM276.676 77.0459C277.336 77.0459 277.866 77.2759 278.266 77.7359C278.673 78.1959 278.876 78.8892 278.876 79.8159C278.876 80.4225 278.783 80.9359 278.596 81.3559C278.416 81.7692 278.159 82.0825 277.826 82.2959C277.499 82.5025 277.113 82.6059 276.666 82.6059C276.393 82.6059 276.149 82.5692 275.936 82.4959C275.723 82.4225 275.539 82.3292 275.386 82.2159C275.239 82.0959 275.113 81.9659 275.006 81.8259H274.946C274.959 81.9392 274.973 82.0825 274.986 82.2559C274.999 82.4292 275.006 82.5792 275.006 82.7059V84.9059H274.126V77.1459H274.846L274.966 77.8759H275.006C275.113 77.7225 275.239 77.5825 275.386 77.4559C275.539 77.3292 275.719 77.2292 275.926 77.1559C276.139 77.0825 276.389 77.0459 276.676 77.0459ZM276.516 77.7859C276.156 77.7859 275.866 77.8559 275.646 77.9959C275.426 78.1292 275.266 78.3325 275.166 78.6059C275.066 78.8792 275.013 79.2259 275.006 79.6459V79.8159C275.006 80.2559 275.053 80.6292 275.146 80.9359C275.239 81.2425 275.396 81.4759 275.616 81.6359C275.843 81.7959 276.149 81.8759 276.536 81.8759C276.863 81.8759 277.129 81.7859 277.336 81.6059C277.549 81.4259 277.706 81.1825 277.806 80.8759C277.913 80.5625 277.966 80.2059 277.966 79.8059C277.966 79.1925 277.846 78.7025 277.606 78.3359C277.373 77.9692 277.009 77.7859 276.516 77.7859ZM283.548 77.1459V77.8859H281.158V82.5059H280.278V77.1459H283.548ZM286.577 77.0459C287.037 77.0459 287.43 77.1459 287.757 77.3459C288.09 77.5459 288.344 77.8292 288.517 78.1959C288.697 78.5559 288.787 78.9792 288.787 79.4659V79.9959H285.117C285.13 80.6025 285.284 81.0659 285.577 81.3859C285.877 81.6992 286.294 81.8559 286.827 81.8559C287.167 81.8559 287.467 81.8259 287.727 81.7659C287.994 81.6992 288.267 81.6059 288.547 81.4859V82.2559C288.274 82.3759 288.004 82.4625 287.737 82.5159C287.47 82.5759 287.154 82.6059 286.787 82.6059C286.28 82.6059 285.83 82.5025 285.437 82.2959C285.05 82.0892 284.747 81.7825 284.527 81.3759C284.314 80.9625 284.207 80.4592 284.207 79.8659C284.207 79.2792 284.304 78.7759 284.497 78.3559C284.697 77.9359 284.974 77.6125 285.327 77.3859C285.687 77.1592 286.104 77.0459 286.577 77.0459ZM286.567 77.7659C286.147 77.7659 285.814 77.9025 285.567 78.1759C285.327 78.4425 285.184 78.8159 285.137 79.2959H287.867C287.867 78.9892 287.82 78.7225 287.727 78.4959C287.634 78.2692 287.49 78.0925 287.297 77.9659C287.11 77.8325 286.867 77.7659 286.567 77.7659ZM294.492 74.9259C294.465 75.2592 294.382 75.5392 294.242 75.7659C294.108 75.9925 293.908 76.1625 293.642 76.2759C293.375 76.3892 293.028 76.4459 292.602 76.4459C292.168 76.4459 291.818 76.3892 291.552 76.2759C291.292 76.1625 291.102 75.9959 290.982 75.7759C290.862 75.5492 290.788 75.2659 290.762 74.9259H291.582C291.615 75.2859 291.708 75.5292 291.862 75.6559C292.022 75.7759 292.275 75.8359 292.622 75.8359C292.928 75.8359 293.168 75.7725 293.342 75.6459C293.522 75.5125 293.628 75.2725 293.662 74.9259H294.492ZM290.982 80.4159C290.982 80.4759 290.978 80.5625 290.972 80.6759C290.972 80.7825 290.968 80.8992 290.962 81.0259C290.955 81.1459 290.948 81.2625 290.942 81.3759C290.935 81.4825 290.928 81.5692 290.922 81.6359L293.792 77.1459H294.872V82.5059H294.052V79.3459C294.052 79.2392 294.052 79.0992 294.052 78.9259C294.058 78.7525 294.065 78.5825 294.072 78.4159C294.078 78.2425 294.085 78.1125 294.092 78.0259L291.242 82.5059H290.152V77.1459H290.982V80.4159Z" fill="#EDEDED"/>
<path d="M205.198 213.633L208.42 221.872C208.506 222.092 208.657 222.279 208.854 222.409C209.05 222.539 209.282 222.605 209.517 222.597C209.752 222.59 209.98 222.511 210.168 222.369C210.356 222.228 210.496 222.031 210.568 221.807L211.333 219.48C211.443 219.142 211.631 218.834 211.88 218.581C212.13 218.328 212.435 218.137 212.771 218.021L215.087 217.228C215.31 217.152 215.504 217.009 215.642 216.819C215.781 216.629 215.858 216.401 215.863 216.166C215.868 215.931 215.8 215.7 215.669 215.504C215.538 215.309 215.35 215.159 215.131 215.074L206.892 211.915C206.653 211.823 206.392 211.803 206.141 211.857C205.891 211.911 205.662 212.037 205.482 212.219C205.302 212.402 205.179 212.633 205.129 212.884C205.078 213.135 205.102 213.395 205.198 213.633Z" fill="#0029CC"/>
<rect x="213.573" y="219.934" width="44" height="20" rx="8" fill="#0029CC"/>
<path d="M226.583 226.794C227.176 226.794 227.673 226.85 228.073 226.964C228.48 227.077 228.783 227.264 228.983 227.524C229.19 227.784 229.293 228.13 229.293 228.564C229.293 228.844 229.24 229.094 229.133 229.314C229.033 229.527 228.88 229.707 228.673 229.854C228.473 229.994 228.226 230.09 227.933 230.144V230.194C228.233 230.24 228.503 230.327 228.743 230.454C228.99 230.58 229.183 230.76 229.323 230.994C229.463 231.227 229.533 231.53 229.533 231.904C229.533 232.337 229.433 232.707 229.233 233.014C229.033 233.314 228.746 233.544 228.373 233.704C228.006 233.857 227.566 233.934 227.053 233.934H224.543V226.794H226.583ZM226.763 229.834C227.376 229.834 227.796 229.737 228.023 229.544C228.25 229.344 228.363 229.05 228.363 228.664C228.363 228.27 228.223 227.99 227.943 227.824C227.67 227.65 227.23 227.564 226.623 227.564H225.443V229.834H226.763ZM225.443 230.584V233.174H226.883C227.516 233.174 227.956 233.05 228.203 232.804C228.45 232.557 228.573 232.234 228.573 231.834C228.573 231.58 228.516 231.36 228.403 231.174C228.296 230.987 228.113 230.844 227.853 230.744C227.6 230.637 227.253 230.584 226.813 230.584H225.443ZM235.007 233.934H234.117V229.304H232.537C232.47 230.15 232.387 230.874 232.287 231.474C232.187 232.067 232.06 232.55 231.907 232.924C231.754 233.297 231.57 233.57 231.357 233.744C231.144 233.917 230.894 234.004 230.607 234.004C230.52 234.004 230.434 233.997 230.347 233.984C230.267 233.977 230.2 233.96 230.147 233.934V233.274C230.187 233.287 230.23 233.297 230.277 233.304C230.324 233.31 230.37 233.314 230.417 233.314C230.564 233.314 230.697 233.254 230.817 233.134C230.937 233.014 231.044 232.83 231.137 232.584C231.237 232.337 231.327 232.027 231.407 231.654C231.487 231.274 231.557 230.827 231.617 230.314C231.677 229.8 231.73 229.22 231.777 228.574H235.007V233.934ZM238.738 228.484C239.391 228.484 239.875 228.627 240.188 228.914C240.501 229.2 240.658 229.657 240.658 230.284V233.934H240.018L239.848 233.174H239.808C239.655 233.367 239.495 233.53 239.328 233.664C239.168 233.79 238.981 233.884 238.768 233.944C238.561 234.004 238.308 234.034 238.008 234.034C237.688 234.034 237.398 233.977 237.138 233.864C236.885 233.75 236.685 233.577 236.538 233.344C236.391 233.104 236.318 232.804 236.318 232.444C236.318 231.91 236.528 231.5 236.948 231.214C237.368 230.92 238.015 230.76 238.888 230.734L239.798 230.704V230.384C239.798 229.937 239.701 229.627 239.508 229.454C239.315 229.28 239.041 229.194 238.688 229.194C238.408 229.194 238.141 229.237 237.888 229.324C237.635 229.404 237.398 229.497 237.178 229.604L236.908 228.944C237.141 228.817 237.418 228.71 237.738 228.624C238.058 228.53 238.391 228.484 238.738 228.484ZM238.998 231.344C238.331 231.37 237.868 231.477 237.608 231.664C237.355 231.85 237.228 232.114 237.228 232.454C237.228 232.754 237.318 232.974 237.498 233.114C237.685 233.254 237.921 233.324 238.208 233.324C238.661 233.324 239.038 233.2 239.338 232.954C239.638 232.7 239.788 232.314 239.788 231.794V231.314L238.998 231.344ZM246.294 228.574V233.194H247.074V235.794H246.224V233.934H242.494V235.794H241.654V233.194H242.084C242.39 232.767 242.644 232.304 242.844 231.804C243.05 231.297 243.204 230.77 243.304 230.224C243.41 229.67 243.467 229.12 243.474 228.574H246.294ZM244.254 229.264C244.227 229.717 244.157 230.187 244.044 230.674C243.93 231.154 243.784 231.614 243.604 232.054C243.43 232.494 243.227 232.874 242.994 233.194H245.444V229.264H244.254Z" fill="#EDEDED"/>
<rect x="0.5" y="67.2793" width="189" height="33" rx="7.5" stroke="#888888"/>
<path d="M27.416 87.7793H26.12L22.244 83.4353V87.7793H21.164V79.2113H22.244V83.3633L26.024 79.2113H27.248L23.528 83.3753L27.416 87.7793ZM30.874 81.2393C31.658 81.2393 32.238 81.4113 32.614 81.7553C32.99 82.0993 33.178 82.6473 33.178 83.3993V87.7793H32.41L32.206 86.8673H32.158C31.974 87.0993 31.782 87.2953 31.582 87.4553C31.39 87.6073 31.166 87.7193 30.91 87.7913C30.662 87.8633 30.358 87.8993 29.998 87.8993C29.614 87.8993 29.266 87.8313 28.954 87.6953C28.65 87.5593 28.41 87.3513 28.234 87.0713C28.058 86.7833 27.97 86.4233 27.97 85.9913C27.97 85.3513 28.222 84.8593 28.726 84.5153C29.23 84.1633 30.006 83.9713 31.054 83.9393L32.146 83.9033V83.5193C32.146 82.9833 32.03 82.6113 31.798 82.4033C31.566 82.1953 31.238 82.0913 30.814 82.0913C30.478 82.0913 30.158 82.1433 29.854 82.2473C29.55 82.3433 29.266 82.4553 29.002 82.5833L28.678 81.7913C28.958 81.6393 29.29 81.5113 29.674 81.4073C30.058 81.2953 30.458 81.2393 30.874 81.2393ZM31.186 84.6713C30.386 84.7033 29.83 84.8313 29.518 85.0553C29.214 85.2793 29.062 85.5953 29.062 86.0033C29.062 86.3633 29.17 86.6273 29.386 86.7953C29.61 86.9633 29.894 87.0473 30.238 87.0473C30.782 87.0473 31.234 86.8993 31.594 86.6033C31.954 86.2993 32.134 85.8353 32.134 85.2113V84.6353L31.186 84.6713ZM38.9685 81.3473H40.1205L37.3725 84.4433L40.3485 87.7793H39.1245L36.2205 84.5153V87.7793H35.1645V81.3473H36.2205V84.4673L38.9685 81.3473ZM49.9052 81.3473V87.7793H48.8492V82.2473H45.5252V87.7793H44.4692V81.3473H49.9052ZM57.5495 84.5513C57.5495 85.0873 57.4775 85.5633 57.3335 85.9793C57.1975 86.3873 56.9975 86.7353 56.7335 87.0233C56.4775 87.3113 56.1615 87.5313 55.7855 87.6833C55.4175 87.8273 55.0055 87.8993 54.5495 87.8993C54.1255 87.8993 53.7335 87.8273 53.3735 87.6833C53.0135 87.5313 52.7015 87.3113 52.4375 87.0233C52.1735 86.7353 51.9655 86.3873 51.8135 85.9793C51.6695 85.5633 51.5975 85.0873 51.5975 84.5513C51.5975 83.8393 51.7175 83.2393 51.9575 82.7513C52.1975 82.2553 52.5415 81.8793 52.9895 81.6233C53.4375 81.3593 53.9695 81.2273 54.5855 81.2273C55.1695 81.2273 55.6815 81.3593 56.1215 81.6233C56.5695 81.8793 56.9175 82.2553 57.1655 82.7513C57.4215 83.2393 57.5495 83.8393 57.5495 84.5513ZM52.6895 84.5513C52.6895 85.0553 52.7535 85.4953 52.8815 85.8713C53.0175 86.2393 53.2255 86.5233 53.5055 86.7233C53.7855 86.9233 54.1415 87.0233 54.5735 87.0233C55.0055 87.0233 55.3615 86.9233 55.6415 86.7233C55.9215 86.5233 56.1255 86.2393 56.2535 85.8713C56.3895 85.4953 56.4575 85.0553 56.4575 84.5513C56.4575 84.0393 56.3895 83.6033 56.2535 83.2433C56.1175 82.8833 55.9095 82.6073 55.6295 82.4153C55.3575 82.2153 55.0015 82.1153 54.5615 82.1153C53.9055 82.1153 53.4295 82.3313 53.1335 82.7633C52.8375 83.1953 52.6895 83.7913 52.6895 84.5513ZM63.9991 81.3473V86.8913H64.9351V90.0113H63.9151V87.7793H59.4391V90.0113H58.4311V86.8913H58.9471C59.3151 86.3793 59.6191 85.8233 59.8591 85.2233C60.1071 84.6153 60.2911 83.9833 60.4111 83.3273C60.5391 82.6633 60.6071 82.0033 60.6151 81.3473H63.9991ZM61.5511 82.1753C61.5191 82.7193 61.4351 83.2833 61.2991 83.8673C61.1631 84.4433 60.9871 84.9953 60.7711 85.5233C60.5631 86.0513 60.3191 86.5073 60.0391 86.8913H62.9791V82.1753H61.5511ZM71.7878 84.5513C71.7878 85.0873 71.7158 85.5633 71.5718 85.9793C71.4358 86.3873 71.2358 86.7353 70.9718 87.0233C70.7158 87.3113 70.3998 87.5313 70.0238 87.6833C69.6558 87.8273 69.2438 87.8993 68.7878 87.8993C68.3638 87.8993 67.9718 87.8273 67.6118 87.6833C67.2518 87.5313 66.9398 87.3113 66.6758 87.0233C66.4118 86.7353 66.2038 86.3873 66.0518 85.9793C65.9078 85.5633 65.8358 85.0873 65.8358 84.5513C65.8358 83.8393 65.9558 83.2393 66.1958 82.7513C66.4358 82.2553 66.7798 81.8793 67.2278 81.6233C67.6758 81.3593 68.2078 81.2273 68.8238 81.2273C69.4078 81.2273 69.9198 81.3593 70.3598 81.6233C70.8078 81.8793 71.1558 82.2553 71.4038 82.7513C71.6598 83.2393 71.7878 83.8393 71.7878 84.5513ZM66.9278 84.5513C66.9278 85.0553 66.9918 85.4953 67.1198 85.8713C67.2558 86.2393 67.4638 86.5233 67.7438 86.7233C68.0238 86.9233 68.3798 87.0233 68.8118 87.0233C69.2438 87.0233 69.5998 86.9233 69.8798 86.7233C70.1598 86.5233 70.3638 86.2393 70.4918 85.8713C70.6278 85.4953 70.6958 85.0553 70.6958 84.5513C70.6958 84.0393 70.6278 83.6033 70.4918 83.2433C70.3558 82.8833 70.1478 82.6073 69.8678 82.4153C69.5958 82.2153 69.2398 82.1153 68.7998 82.1153C68.1438 82.1153 67.6678 82.3313 67.3718 82.7633C67.0758 83.1953 66.9278 83.7913 66.9278 84.5513ZM73.1254 83.9153C73.1254 82.9793 73.2174 82.1833 73.4014 81.5273C73.5934 80.8633 73.8854 80.3353 74.2774 79.9433C74.6774 79.5433 75.1894 79.2753 75.8134 79.1393C76.3334 79.0273 76.8414 78.9273 77.3374 78.8393C77.8334 78.7513 78.2974 78.6713 78.7294 78.5993L78.9094 79.5233C78.7014 79.5553 78.4694 79.5953 78.2134 79.6433C77.9574 79.6833 77.6974 79.7273 77.4334 79.7753C77.1694 79.8153 76.9134 79.8593 76.6654 79.9073C76.4254 79.9473 76.2134 79.9873 76.0294 80.0273C75.7654 80.0833 75.5294 80.1793 75.3214 80.3153C75.1134 80.4433 74.9334 80.6193 74.7814 80.8433C74.6374 81.0673 74.5214 81.3433 74.4334 81.6713C74.3454 81.9993 74.2934 82.3873 74.2774 82.8353H74.3494C74.4614 82.6833 74.6134 82.5273 74.8054 82.3673C75.0054 82.2073 75.2414 82.0713 75.5134 81.9593C75.7934 81.8473 76.1094 81.7913 76.4614 81.7913C77.0214 81.7913 77.4854 81.9153 77.8534 82.1633C78.2294 82.4033 78.5094 82.7393 78.6934 83.1713C78.8854 83.6033 78.9814 84.1073 78.9814 84.6833C78.9814 85.3953 78.8574 85.9913 78.6094 86.4713C78.3614 86.9513 78.0174 87.3113 77.5774 87.5513C77.1374 87.7833 76.6254 87.8993 76.0414 87.8993C75.6014 87.8993 75.2014 87.8153 74.8414 87.6473C74.4814 87.4713 74.1734 87.2153 73.9174 86.8793C73.6614 86.5433 73.4654 86.1273 73.3294 85.6313C73.1934 85.1353 73.1254 84.5633 73.1254 83.9153ZM76.1254 87.0233C76.4774 87.0233 76.7814 86.9513 77.0374 86.8073C77.3014 86.6633 77.5054 86.4273 77.6494 86.0993C77.7934 85.7713 77.8654 85.3353 77.8654 84.7913C77.8654 84.1353 77.7414 83.6193 77.4934 83.2433C77.2534 82.8593 76.8534 82.6673 76.2934 82.6673C75.9414 82.6673 75.6214 82.7473 75.3334 82.9073C75.0454 83.0593 74.8054 83.2353 74.6134 83.4353C74.4214 83.6353 74.2854 83.8033 74.2054 83.9393C74.2054 84.3313 74.2334 84.7113 74.2894 85.0793C74.3454 85.4473 74.4414 85.7793 74.5774 86.0753C74.7214 86.3633 74.9174 86.5953 75.1654 86.7713C75.4214 86.9393 75.7414 87.0233 76.1254 87.0233ZM83.705 81.2273C84.497 81.2273 85.133 81.5033 85.613 82.0553C86.101 82.6073 86.345 83.4393 86.345 84.5513C86.345 85.2793 86.233 85.8953 86.009 86.3993C85.793 86.8953 85.485 87.2713 85.085 87.5273C84.693 87.7753 84.229 87.8993 83.693 87.8993C83.365 87.8993 83.073 87.8553 82.817 87.7673C82.561 87.6793 82.341 87.5673 82.157 87.4313C81.981 87.2873 81.829 87.1313 81.701 86.9633H81.629C81.645 87.0993 81.661 87.2713 81.677 87.4793C81.693 87.6873 81.701 87.8673 81.701 88.0193V90.6593H80.645V81.3473H81.509L81.653 82.2233H81.701C81.829 82.0393 81.981 81.8713 82.157 81.7193C82.341 81.5673 82.557 81.4473 82.805 81.3593C83.061 81.2713 83.361 81.2273 83.705 81.2273ZM83.513 82.1153C83.081 82.1153 82.733 82.1993 82.469 82.3673C82.205 82.5273 82.013 82.7713 81.893 83.0993C81.773 83.4273 81.709 83.8433 81.701 84.3473V84.5513C81.701 85.0793 81.757 85.5273 81.869 85.8953C81.981 86.2633 82.169 86.5433 82.433 86.7353C82.705 86.9273 83.073 87.0233 83.537 87.0233C83.929 87.0233 84.249 86.9153 84.497 86.6993C84.753 86.4833 84.941 86.1913 85.061 85.8233C85.189 85.4473 85.253 85.0193 85.253 84.5393C85.253 83.8033 85.109 83.2153 84.821 82.7753C84.541 82.3353 84.105 82.1153 83.513 82.1153ZM90.4638 81.2393C91.2478 81.2393 91.8278 81.4113 92.2038 81.7553C92.5798 82.0993 92.7678 82.6473 92.7678 83.3993V87.7793H91.9998L91.7958 86.8673H91.7478C91.5638 87.0993 91.3718 87.2953 91.1718 87.4553C90.9798 87.6073 90.7558 87.7193 90.4998 87.7913C90.2518 87.8633 89.9478 87.8993 89.5878 87.8993C89.2038 87.8993 88.8558 87.8313 88.5438 87.6953C88.2398 87.5593 87.9998 87.3513 87.8238 87.0713C87.6478 86.7833 87.5598 86.4233 87.5598 85.9913C87.5598 85.3513 87.8118 84.8593 88.3158 84.5153C88.8198 84.1633 89.5958 83.9713 90.6438 83.9393L91.7358 83.9033V83.5193C91.7358 82.9833 91.6198 82.6113 91.3878 82.4033C91.1558 82.1953 90.8278 82.0913 90.4038 82.0913C90.0678 82.0913 89.7478 82.1433 89.4438 82.2473C89.1398 82.3433 88.8558 82.4553 88.5918 82.5833L88.2678 81.7913C88.5478 81.6393 88.8798 81.5113 89.2638 81.4073C89.6478 81.2953 90.0478 81.2393 90.4638 81.2393ZM90.7758 84.6713C89.9758 84.7033 89.4198 84.8313 89.1078 85.0553C88.8038 85.2793 88.6518 85.5953 88.6518 86.0033C88.6518 86.3633 88.7598 86.6273 88.9758 86.7953C89.1998 86.9633 89.4838 87.0473 89.8278 87.0473C90.3718 87.0473 90.8238 86.8993 91.1838 86.6033C91.5438 86.2993 91.7238 85.8353 91.7238 85.2113V84.6353L90.7758 84.6713ZM99.1944 82.2353H97.0944V87.7793H96.0504V82.2353H93.9744V81.3473H99.1944V82.2353ZM103.425 83.9873C103.985 83.9873 104.449 84.0553 104.817 84.1913C105.185 84.3273 105.461 84.5313 105.645 84.8033C105.837 85.0673 105.933 85.4033 105.933 85.8113C105.933 86.2113 105.841 86.5593 105.657 86.8553C105.481 87.1513 105.205 87.3793 104.829 87.5393C104.453 87.6993 103.969 87.7793 103.377 87.7793H100.461V81.3473H101.517V83.9873H103.425ZM104.877 85.8713C104.877 85.4793 104.737 85.2153 104.457 85.0793C104.185 84.9353 103.801 84.8633 103.305 84.8633H101.517V86.9273H103.329C103.777 86.9273 104.145 86.8473 104.433 86.6873C104.729 86.5273 104.877 86.2553 104.877 85.8713ZM113.6 81.2273C114.392 81.2273 115.028 81.5033 115.508 82.0553C115.996 82.6073 116.24 83.4393 116.24 84.5513C116.24 85.2793 116.128 85.8953 115.904 86.3993C115.688 86.8953 115.38 87.2713 114.98 87.5273C114.588 87.7753 114.124 87.8993 113.588 87.8993C113.26 87.8993 112.968 87.8553 112.712 87.7673C112.456 87.6793 112.236 87.5673 112.052 87.4313C111.876 87.2873 111.724 87.1313 111.596 86.9633H111.524C111.54 87.0993 111.556 87.2713 111.572 87.4793C111.588 87.6873 111.596 87.8673 111.596 88.0193V90.6593H110.54V81.3473H111.404L111.548 82.2233H111.596C111.724 82.0393 111.876 81.8713 112.052 81.7193C112.236 81.5673 112.452 81.4473 112.7 81.3593C112.956 81.2713 113.256 81.2273 113.6 81.2273ZM113.408 82.1153C112.976 82.1153 112.628 82.1993 112.364 82.3673C112.1 82.5273 111.908 82.7713 111.788 83.0993C111.668 83.4273 111.604 83.8433 111.596 84.3473V84.5513C111.596 85.0793 111.652 85.5273 111.764 85.8953C111.876 86.2633 112.064 86.5433 112.328 86.7353C112.6 86.9273 112.968 87.0233 113.432 87.0233C113.824 87.0233 114.144 86.9153 114.392 86.6993C114.648 86.4833 114.836 86.1913 114.956 85.8233C115.084 85.4473 115.148 85.0193 115.148 84.5393C115.148 83.8033 115.004 83.2153 114.716 82.7753C114.436 82.3353 114 82.1153 113.408 82.1153ZM120.406 81.2273C120.958 81.2273 121.43 81.3473 121.822 81.5873C122.222 81.8273 122.526 82.1673 122.734 82.6073C122.95 83.0393 123.058 83.5473 123.058 84.1313V84.7673H118.654C118.67 85.4953 118.854 86.0513 119.206 86.4353C119.566 86.8113 120.066 86.9993 120.706 86.9993C121.114 86.9993 121.474 86.9633 121.786 86.8913C122.106 86.8113 122.434 86.6993 122.77 86.5553V87.4793C122.442 87.6233 122.118 87.7273 121.798 87.7913C121.478 87.8633 121.098 87.8993 120.658 87.8993C120.05 87.8993 119.51 87.7753 119.038 87.5273C118.574 87.2793 118.21 86.9113 117.946 86.4233C117.69 85.9273 117.562 85.3233 117.562 84.6113C117.562 83.9073 117.678 83.3033 117.91 82.7993C118.15 82.2953 118.482 81.9073 118.906 81.6353C119.338 81.3633 119.838 81.2273 120.406 81.2273ZM120.394 82.0913C119.89 82.0913 119.49 82.2553 119.194 82.5833C118.906 82.9033 118.734 83.3513 118.678 83.9273H121.954C121.954 83.5593 121.898 83.2393 121.786 82.9673C121.674 82.6953 121.502 82.4833 121.27 82.3313C121.046 82.1713 120.754 82.0913 120.394 82.0913ZM133.42 81.3473V87.7793H124.696V81.3473H125.752V86.8913H128.524V81.3473H129.58V86.8913H132.364V81.3473H133.42ZM137.961 81.2273C138.513 81.2273 138.985 81.3473 139.377 81.5873C139.777 81.8273 140.081 82.1673 140.289 82.6073C140.505 83.0393 140.613 83.5473 140.613 84.1313V84.7673H136.209C136.225 85.4953 136.409 86.0513 136.761 86.4353C137.121 86.8113 137.621 86.9993 138.261 86.9993C138.669 86.9993 139.029 86.9633 139.341 86.8913C139.661 86.8113 139.989 86.6993 140.325 86.5553V87.4793C139.997 87.6233 139.673 87.7273 139.353 87.7913C139.033 87.8633 138.653 87.8993 138.213 87.8993C137.605 87.8993 137.065 87.7753 136.593 87.5273C136.129 87.2793 135.765 86.9113 135.501 86.4233C135.245 85.9273 135.117 85.3233 135.117 84.6113C135.117 83.9073 135.233 83.3033 135.465 82.7993C135.705 82.2953 136.037 81.9073 136.461 81.6353C136.893 81.3633 137.393 81.2273 137.961 81.2273ZM137.949 82.0913C137.445 82.0913 137.045 82.2553 136.749 82.5833C136.461 82.9033 136.289 83.3513 136.233 83.9273H139.509C139.509 83.5593 139.453 83.2393 139.341 82.9673C139.229 82.6953 139.057 82.4833 138.825 82.3313C138.601 82.1713 138.309 82.0913 137.949 82.0913ZM143.306 81.3473V84.0233H146.798V81.3473H147.854V87.7793H146.798V84.9113H143.306V87.7793H142.25V81.3473H143.306ZM150.887 85.2713C150.887 85.3433 150.883 85.4473 150.875 85.5833C150.875 85.7113 150.871 85.8513 150.863 86.0033C150.855 86.1473 150.847 86.2873 150.839 86.4233C150.831 86.5513 150.823 86.6553 150.815 86.7353L154.259 81.3473H155.555V87.7793H154.571V83.9873C154.571 83.8593 154.571 83.6913 154.571 83.4833C154.579 83.2753 154.587 83.0713 154.595 82.8713C154.603 82.6633 154.611 82.5073 154.619 82.4033L151.199 87.7793H149.891V81.3473H150.887V85.2713ZM160.086 81.2273C160.638 81.2273 161.11 81.3473 161.502 81.5873C161.902 81.8273 162.206 82.1673 162.414 82.6073C162.63 83.0393 162.738 83.5473 162.738 84.1313V84.7673H158.334C158.35 85.4953 158.534 86.0513 158.886 86.4353C159.246 86.8113 159.746 86.9993 160.386 86.9993C160.794 86.9993 161.154 86.9633 161.466 86.8913C161.786 86.8113 162.114 86.6993 162.45 86.5553V87.4793C162.122 87.6233 161.798 87.7273 161.478 87.7913C161.158 87.8633 160.778 87.8993 160.338 87.8993C159.73 87.8993 159.19 87.7753 158.718 87.5273C158.254 87.2793 157.89 86.9113 157.626 86.4233C157.37 85.9273 157.242 85.3233 157.242 84.6113C157.242 83.9073 157.358 83.3033 157.59 82.7993C157.83 82.2953 158.162 81.9073 158.586 81.6353C159.018 81.3633 159.518 81.2273 160.086 81.2273ZM160.074 82.0913C159.57 82.0913 159.17 82.2553 158.874 82.5833C158.586 82.9033 158.414 83.3513 158.358 83.9273H161.634C161.634 83.5593 161.578 83.2393 161.466 82.9673C161.354 82.6953 161.182 82.4833 160.95 82.3313C160.726 82.1713 160.434 82.0913 160.074 82.0913ZM168.935 81.3593C168.935 81.6473 168.891 81.9073 168.803 82.1393C168.715 82.3713 168.575 82.5953 168.383 82.8113C168.199 83.0193 167.963 83.2393 167.675 83.4713C167.347 83.7353 167.107 83.9713 166.955 84.1793C166.811 84.3873 166.739 84.6433 166.739 84.9473V85.5233H165.719V84.9473C165.719 84.6113 165.763 84.3353 165.851 84.1193C165.939 83.8953 166.063 83.6993 166.223 83.5313C166.391 83.3553 166.583 83.1713 166.799 82.9793C167.007 82.8033 167.195 82.6313 167.363 82.4633C167.531 82.2953 167.663 82.1233 167.759 81.9473C167.863 81.7633 167.915 81.5673 167.915 81.3593C167.915 80.9193 167.779 80.5913 167.507 80.3753C167.235 80.1593 166.863 80.0513 166.391 80.0513C166.071 80.0513 165.795 80.1153 165.563 80.2433C165.331 80.3713 165.151 80.5593 165.023 80.8073C164.903 81.0553 164.839 81.3593 164.831 81.7193H163.823C163.815 81.1993 163.923 80.7513 164.147 80.3753C164.371 79.9913 164.679 79.6953 165.071 79.4873C165.471 79.2793 165.923 79.1753 166.427 79.1753C166.947 79.1753 167.391 79.2713 167.759 79.4633C168.135 79.6473 168.423 79.9033 168.623 80.2313C168.831 80.5513 168.935 80.9273 168.935 81.3593ZM165.575 86.4593H166.883V87.7793H165.575V86.4593Z" fill="white"/>
<rect x="106.648" y="134.279" width="245" height="33" rx="7.5" stroke="#888888"/>
<path d="M133.564 154.779H132.268L128.392 150.435V154.779H127.312V146.211H128.392V150.363L132.172 146.211H133.396L129.676 150.375L133.564 154.779ZM137.022 148.239C137.806 148.239 138.386 148.411 138.762 148.755C139.138 149.099 139.326 149.647 139.326 150.399V154.779H138.558L138.354 153.867H138.306C138.122 154.099 137.93 154.295 137.73 154.455C137.538 154.607 137.314 154.719 137.058 154.791C136.81 154.863 136.506 154.899 136.146 154.899C135.762 154.899 135.414 154.831 135.102 154.695C134.798 154.559 134.558 154.351 134.382 154.071C134.206 153.783 134.118 153.423 134.118 152.991C134.118 152.351 134.37 151.859 134.874 151.515C135.378 151.163 136.154 150.971 137.202 150.939L138.294 150.903V150.519C138.294 149.983 138.178 149.611 137.946 149.403C137.714 149.195 137.386 149.091 136.962 149.091C136.626 149.091 136.306 149.143 136.002 149.247C135.698 149.343 135.414 149.455 135.15 149.583L134.826 148.791C135.106 148.639 135.438 148.511 135.822 148.407C136.206 148.295 136.606 148.239 137.022 148.239ZM137.334 151.671C136.534 151.703 135.978 151.831 135.666 152.055C135.362 152.279 135.21 152.595 135.21 153.003C135.21 153.363 135.318 153.627 135.534 153.795C135.758 153.963 136.042 154.047 136.386 154.047C136.93 154.047 137.382 153.899 137.742 153.603C138.102 153.299 138.282 152.835 138.282 152.211V151.635L137.334 151.671ZM145.117 148.347H146.269L143.521 151.443L146.497 154.779H145.273L142.369 151.515V154.779H141.313V148.347H142.369V151.467L145.117 148.347ZM155.79 149.967C155.79 150.367 155.67 150.679 155.43 150.903C155.19 151.127 154.882 151.279 154.506 151.359V151.407C154.906 151.463 155.254 151.607 155.55 151.839C155.846 152.063 155.994 152.415 155.994 152.895C155.994 153.167 155.942 153.419 155.838 153.651C155.742 153.883 155.59 154.083 155.382 154.251C155.174 154.419 154.906 154.551 154.578 154.647C154.25 154.735 153.854 154.779 153.39 154.779H150.618V148.347H153.378C153.834 148.347 154.242 148.399 154.602 148.503C154.97 148.599 155.258 148.767 155.466 149.007C155.682 149.239 155.79 149.559 155.79 149.967ZM154.902 152.895C154.902 152.527 154.762 152.263 154.482 152.103C154.202 151.943 153.79 151.863 153.246 151.863H151.674V153.927H153.27C153.798 153.927 154.202 153.851 154.482 153.699C154.762 153.539 154.902 153.271 154.902 152.895ZM154.722 150.099C154.722 149.795 154.61 149.575 154.386 149.439C154.17 149.295 153.814 149.223 153.318 149.223H151.674V150.987H153.126C153.646 150.987 154.042 150.915 154.314 150.771C154.586 150.627 154.722 150.403 154.722 150.099ZM157.532 154.779V148.347H158.588V150.987H160.256C160.816 150.987 161.276 151.055 161.636 151.191C161.996 151.327 162.264 151.531 162.44 151.803C162.616 152.067 162.704 152.403 162.704 152.811C162.704 153.211 162.616 153.559 162.44 153.855C162.272 154.151 162.004 154.379 161.636 154.539C161.276 154.699 160.8 154.779 160.208 154.779H157.532ZM160.112 153.927C160.568 153.927 160.94 153.851 161.228 153.699C161.516 153.539 161.66 153.263 161.66 152.871C161.66 152.479 161.528 152.215 161.264 152.079C161 151.935 160.62 151.863 160.124 151.863H158.588V153.927H160.112ZM163.772 154.779V148.347H164.828V154.779H163.772ZM166.536 150.915C166.536 149.979 166.628 149.183 166.812 148.527C167.004 147.863 167.296 147.335 167.688 146.943C168.088 146.543 168.6 146.275 169.224 146.139C169.744 146.027 170.252 145.927 170.748 145.839C171.244 145.751 171.708 145.671 172.14 145.599L172.32 146.523C172.112 146.555 171.88 146.595 171.624 146.643C171.368 146.683 171.108 146.727 170.844 146.775C170.58 146.815 170.324 146.859 170.076 146.907C169.836 146.947 169.624 146.987 169.44 147.027C169.176 147.083 168.94 147.179 168.732 147.315C168.524 147.443 168.344 147.619 168.192 147.843C168.048 148.067 167.932 148.343 167.844 148.671C167.756 148.999 167.704 149.387 167.688 149.835H167.76C167.872 149.683 168.024 149.527 168.216 149.367C168.416 149.207 168.652 149.071 168.924 148.959C169.204 148.847 169.52 148.791 169.872 148.791C170.432 148.791 170.896 148.915 171.264 149.163C171.64 149.403 171.92 149.739 172.104 150.171C172.296 150.603 172.392 151.107 172.392 151.683C172.392 152.395 172.268 152.991 172.02 153.471C171.772 153.951 171.428 154.311 170.988 154.551C170.548 154.783 170.036 154.899 169.452 154.899C169.012 154.899 168.612 154.815 168.252 154.647C167.892 154.471 167.584 154.215 167.328 153.879C167.072 153.543 166.876 153.127 166.74 152.631C166.604 152.135 166.536 151.563 166.536 150.915ZM169.536 154.023C169.888 154.023 170.192 153.951 170.448 153.807C170.712 153.663 170.916 153.427 171.06 153.099C171.204 152.771 171.276 152.335 171.276 151.791C171.276 151.135 171.152 150.619 170.904 150.243C170.664 149.859 170.264 149.667 169.704 149.667C169.352 149.667 169.032 149.747 168.744 149.907C168.456 150.059 168.216 150.235 168.024 150.435C167.832 150.635 167.696 150.803 167.616 150.939C167.616 151.331 167.644 151.711 167.7 152.079C167.756 152.447 167.852 152.779 167.988 153.075C168.132 153.363 168.328 153.595 168.576 153.771C168.832 153.939 169.152 154.023 169.536 154.023ZM177.115 148.227C177.907 148.227 178.543 148.503 179.023 149.055C179.511 149.607 179.755 150.439 179.755 151.551C179.755 152.279 179.643 152.895 179.419 153.399C179.203 153.895 178.895 154.271 178.495 154.527C178.103 154.775 177.639 154.899 177.103 154.899C176.775 154.899 176.483 154.855 176.227 154.767C175.971 154.679 175.751 154.567 175.567 154.431C175.391 154.287 175.239 154.131 175.111 153.963H175.039C175.055 154.099 175.071 154.271 175.087 154.479C175.103 154.687 175.111 154.867 175.111 155.019V157.659H174.055V148.347H174.919L175.063 149.223H175.111C175.239 149.039 175.391 148.871 175.567 148.719C175.751 148.567 175.967 148.447 176.215 148.359C176.471 148.271 176.771 148.227 177.115 148.227ZM176.923 149.115C176.491 149.115 176.143 149.199 175.879 149.367C175.615 149.527 175.423 149.771 175.303 150.099C175.183 150.427 175.119 150.843 175.111 151.347V151.551C175.111 152.079 175.167 152.527 175.279 152.895C175.391 153.263 175.579 153.543 175.843 153.735C176.115 153.927 176.483 154.023 176.947 154.023C177.339 154.023 177.659 153.915 177.907 153.699C178.163 153.483 178.351 153.191 178.471 152.823C178.599 152.447 178.663 152.019 178.663 151.539C178.663 150.803 178.519 150.215 178.231 149.775C177.951 149.335 177.515 149.115 176.923 149.115ZM183.874 148.239C184.658 148.239 185.238 148.411 185.614 148.755C185.99 149.099 186.178 149.647 186.178 150.399V154.779H185.41L185.206 153.867H185.158C184.974 154.099 184.782 154.295 184.582 154.455C184.39 154.607 184.166 154.719 183.91 154.791C183.662 154.863 183.358 154.899 182.998 154.899C182.614 154.899 182.266 154.831 181.954 154.695C181.65 154.559 181.41 154.351 181.234 154.071C181.058 153.783 180.97 153.423 180.97 152.991C180.97 152.351 181.222 151.859 181.726 151.515C182.23 151.163 183.006 150.971 184.054 150.939L185.146 150.903V150.519C185.146 149.983 185.03 149.611 184.798 149.403C184.566 149.195 184.238 149.091 183.814 149.091C183.478 149.091 183.158 149.143 182.854 149.247C182.55 149.343 182.266 149.455 182.002 149.583L181.678 148.791C181.958 148.639 182.29 148.511 182.674 148.407C183.058 148.295 183.458 148.239 183.874 148.239ZM184.186 151.671C183.386 151.703 182.83 151.831 182.518 152.055C182.214 152.279 182.062 152.595 182.062 153.003C182.062 153.363 182.17 153.627 182.386 153.795C182.61 153.963 182.894 154.047 183.238 154.047C183.782 154.047 184.234 153.899 184.594 153.603C184.954 153.299 185.134 152.835 185.134 152.211V151.635L184.186 151.671ZM192.605 149.235H190.505V154.779H189.461V149.235H187.385V148.347H192.605V149.235ZM196.836 150.987C197.396 150.987 197.86 151.055 198.228 151.191C198.596 151.327 198.872 151.531 199.056 151.803C199.248 152.067 199.344 152.403 199.344 152.811C199.344 153.211 199.252 153.559 199.068 153.855C198.892 154.151 198.616 154.379 198.24 154.539C197.864 154.699 197.38 154.779 196.788 154.779H193.872V148.347H194.928V150.987H196.836ZM198.288 152.871C198.288 152.479 198.148 152.215 197.868 152.079C197.596 151.935 197.212 151.863 196.716 151.863H194.928V153.927H196.74C197.188 153.927 197.556 153.847 197.844 153.687C198.14 153.527 198.288 153.255 198.288 152.871ZM209.542 151.551C209.542 152.087 209.47 152.563 209.326 152.979C209.19 153.387 208.99 153.735 208.726 154.023C208.47 154.311 208.154 154.531 207.778 154.683C207.41 154.827 206.998 154.899 206.542 154.899C206.118 154.899 205.726 154.827 205.366 154.683C205.006 154.531 204.694 154.311 204.43 154.023C204.166 153.735 203.958 153.387 203.806 152.979C203.662 152.563 203.59 152.087 203.59 151.551C203.59 150.839 203.71 150.239 203.95 149.751C204.19 149.255 204.534 148.879 204.982 148.623C205.43 148.359 205.962 148.227 206.578 148.227C207.162 148.227 207.674 148.359 208.114 148.623C208.562 148.879 208.91 149.255 209.158 149.751C209.414 150.239 209.542 150.839 209.542 151.551ZM204.682 151.551C204.682 152.055 204.746 152.495 204.874 152.871C205.01 153.239 205.218 153.523 205.498 153.723C205.778 153.923 206.134 154.023 206.566 154.023C206.998 154.023 207.354 153.923 207.634 153.723C207.914 153.523 208.118 153.239 208.246 152.871C208.382 152.495 208.45 152.055 208.45 151.551C208.45 151.039 208.382 150.603 208.246 150.243C208.11 149.883 207.902 149.607 207.622 149.415C207.35 149.215 206.994 149.115 206.554 149.115C205.898 149.115 205.422 149.331 205.126 149.763C204.83 150.195 204.682 150.791 204.682 151.551ZM216.651 148.347V154.779H215.595V149.247H212.271V154.779H211.215V148.347H216.651ZM223.144 149.235H221.044V154.779H220V149.235H217.924V148.347H223.144V149.235ZM225.407 152.271C225.407 152.343 225.403 152.447 225.395 152.583C225.395 152.711 225.391 152.851 225.383 153.003C225.375 153.147 225.367 153.287 225.359 153.423C225.351 153.551 225.343 153.655 225.335 153.735L228.779 148.347H230.075V154.779H229.091V150.987C229.091 150.859 229.091 150.691 229.091 150.483C229.099 150.275 229.107 150.071 229.115 149.871C229.123 149.663 229.131 149.507 229.139 149.403L225.719 154.779H224.411V148.347H225.407V152.271ZM239.022 148.347V154.779H238.074V150.675C238.074 150.507 238.078 150.331 238.086 150.147C238.102 149.963 238.118 149.783 238.134 149.607H238.098L235.998 154.779H235.11L233.07 149.607H233.034C233.05 149.783 233.058 149.963 233.058 150.147C233.066 150.331 233.07 150.519 233.07 150.711V154.779H232.122V148.347H233.526L235.554 153.519L237.618 148.347H239.022ZM243.511 148.239C244.295 148.239 244.875 148.411 245.251 148.755C245.627 149.099 245.815 149.647 245.815 150.399V154.779H245.047L244.843 153.867H244.795C244.611 154.099 244.419 154.295 244.219 154.455C244.027 154.607 243.803 154.719 243.547 154.791C243.299 154.863 242.995 154.899 242.635 154.899C242.251 154.899 241.903 154.831 241.591 154.695C241.287 154.559 241.047 154.351 240.871 154.071C240.695 153.783 240.607 153.423 240.607 152.991C240.607 152.351 240.859 151.859 241.363 151.515C241.867 151.163 242.643 150.971 243.691 150.939L244.783 150.903V150.519C244.783 149.983 244.667 149.611 244.435 149.403C244.203 149.195 243.875 149.091 243.451 149.091C243.115 149.091 242.795 149.143 242.491 149.247C242.187 149.343 241.903 149.455 241.639 149.583L241.315 148.791C241.595 148.639 241.927 148.511 242.311 148.407C242.695 148.295 243.095 148.239 243.511 148.239ZM243.823 151.671C243.023 151.703 242.467 151.831 242.155 152.055C241.851 152.279 241.699 152.595 241.699 153.003C241.699 153.363 241.807 153.627 242.023 153.795C242.247 153.963 242.531 154.047 242.875 154.047C243.419 154.047 243.871 153.899 244.231 153.603C244.591 153.299 244.771 152.835 244.771 152.211V151.635L243.823 151.671ZM252.697 154.779H251.629V149.223H249.733C249.653 150.239 249.553 151.107 249.433 151.827C249.313 152.539 249.161 153.119 248.977 153.567C248.793 154.015 248.573 154.343 248.317 154.551C248.061 154.759 247.761 154.863 247.417 154.863C247.313 154.863 247.209 154.855 247.105 154.839C247.009 154.831 246.929 154.811 246.865 154.779V153.987C246.913 154.003 246.965 154.015 247.021 154.023C247.077 154.031 247.133 154.035 247.189 154.035C247.365 154.035 247.525 153.963 247.669 153.819C247.813 153.675 247.941 153.455 248.053 153.159C248.173 152.863 248.281 152.491 248.377 152.043C248.473 151.587 248.557 151.051 248.629 150.435C248.701 149.819 248.765 149.123 248.821 148.347H252.697V154.779ZM257.703 150.987C258.263 150.987 258.727 151.055 259.095 151.191C259.463 151.327 259.739 151.531 259.923 151.803C260.115 152.067 260.211 152.403 260.211 152.811C260.211 153.211 260.119 153.559 259.935 153.855C259.759 154.151 259.483 154.379 259.107 154.539C258.731 154.699 258.247 154.779 257.655 154.779H254.739V148.347H255.795V150.987H257.703ZM259.155 152.871C259.155 152.479 259.015 152.215 258.735 152.079C258.463 151.935 258.079 151.863 257.583 151.863H255.795V153.927H257.607C258.055 153.927 258.423 153.847 258.711 153.687C259.007 153.527 259.155 153.255 259.155 152.871ZM262.92 148.347V151.023H266.412V148.347H267.468V154.779H266.412V151.911H262.92V154.779H261.864V148.347H262.92ZM269.504 154.779V148.347H270.56V150.987H272.228C272.788 150.987 273.248 151.055 273.608 151.191C273.968 151.327 274.236 151.531 274.412 151.803C274.588 152.067 274.676 152.403 274.676 152.811C274.676 153.211 274.588 153.559 274.412 153.855C274.244 154.151 273.976 154.379 273.608 154.539C273.248 154.699 272.772 154.779 272.18 154.779H269.504ZM272.084 153.927C272.54 153.927 272.912 153.851 273.2 153.699C273.488 153.539 273.632 153.263 273.632 152.871C273.632 152.479 273.5 152.215 273.236 152.079C272.972 151.935 272.592 151.863 272.096 151.863H270.56V153.927H272.084ZM275.744 154.779V148.347H276.8V154.779H275.744ZM281.328 148.227C281.88 148.227 282.352 148.347 282.744 148.587C283.144 148.827 283.448 149.167 283.656 149.607C283.872 150.039 283.98 150.547 283.98 151.131V151.767H279.576C279.592 152.495 279.776 153.051 280.128 153.435C280.488 153.811 280.988 153.999 281.628 153.999C282.036 153.999 282.396 153.963 282.708 153.891C283.028 153.811 283.356 153.699 283.692 153.555V154.479C283.364 154.623 283.04 154.727 282.72 154.791C282.4 154.863 282.02 154.899 281.58 154.899C280.972 154.899 280.432 154.775 279.96 154.527C279.496 154.279 279.132 153.911 278.868 153.423C278.612 152.927 278.484 152.323 278.484 151.611C278.484 150.907 278.6 150.303 278.832 149.799C279.072 149.295 279.404 148.907 279.828 148.635C280.26 148.363 280.76 148.227 281.328 148.227ZM281.316 149.091C280.812 149.091 280.412 149.255 280.116 149.583C279.828 149.903 279.656 150.351 279.6 150.927H282.876C282.876 150.559 282.82 150.239 282.708 149.967C282.596 149.695 282.424 149.483 282.192 149.331C281.968 149.171 281.676 149.091 281.316 149.091ZM294.163 151.551C294.163 152.087 294.091 152.563 293.947 152.979C293.811 153.387 293.611 153.735 293.347 154.023C293.091 154.311 292.775 154.531 292.399 154.683C292.031 154.827 291.619 154.899 291.163 154.899C290.739 154.899 290.347 154.827 289.987 154.683C289.627 154.531 289.315 154.311 289.051 154.023C288.787 153.735 288.579 153.387 288.427 152.979C288.283 152.563 288.211 152.087 288.211 151.551C288.211 150.839 288.331 150.239 288.571 149.751C288.811 149.255 289.155 148.879 289.603 148.623C290.051 148.359 290.583 148.227 291.199 148.227C291.783 148.227 292.295 148.359 292.735 148.623C293.183 148.879 293.531 149.255 293.779 149.751C294.035 150.239 294.163 150.839 294.163 151.551ZM289.303 151.551C289.303 152.055 289.367 152.495 289.495 152.871C289.631 153.239 289.839 153.523 290.119 153.723C290.399 153.923 290.755 154.023 291.187 154.023C291.619 154.023 291.975 153.923 292.255 153.723C292.535 153.523 292.739 153.239 292.867 152.871C293.003 152.495 293.071 152.055 293.071 151.551C293.071 151.039 293.003 150.603 292.867 150.243C292.731 149.883 292.523 149.607 292.243 149.415C291.971 149.215 291.615 149.115 291.175 149.115C290.519 149.115 290.043 149.331 289.747 149.763C289.451 150.195 289.303 150.791 289.303 151.551ZM301.272 148.347V154.779H300.216V149.247H296.892V154.779H295.836V148.347H301.272ZM309.673 157.011H308.641V154.779H303.325V148.347H304.381V153.891H307.705V148.347H308.761V153.903H309.673V157.011ZM311.903 152.271C311.903 152.343 311.899 152.447 311.891 152.583C311.891 152.711 311.887 152.851 311.879 153.003C311.871 153.147 311.863 153.287 311.855 153.423C311.847 153.551 311.839 153.655 311.831 153.735L315.275 148.347H316.571V154.779H315.587V150.987C315.587 150.859 315.587 150.691 315.587 150.483C315.595 150.275 315.603 150.071 315.611 149.871C315.619 149.663 315.627 149.507 315.635 149.403L312.215 154.779H310.907V148.347H311.903V152.271ZM319.614 152.271C319.614 152.343 319.61 152.447 319.602 152.583C319.602 152.711 319.598 152.851 319.59 153.003C319.582 153.147 319.574 153.287 319.566 153.423C319.558 153.551 319.55 153.655 319.542 153.735L322.986 148.347H324.282V154.779H323.298V150.987C323.298 150.859 323.298 150.691 323.298 150.483C323.306 150.275 323.314 150.071 323.322 149.871C323.33 149.663 323.338 149.507 323.346 149.403L319.926 154.779H318.618V148.347H319.614V152.271ZM330.889 148.359C330.889 148.647 330.845 148.907 330.757 149.139C330.669 149.371 330.529 149.595 330.337 149.811C330.153 150.019 329.917 150.239 329.629 150.471C329.301 150.735 329.061 150.971 328.909 151.179C328.765 151.387 328.693 151.643 328.693 151.947V152.523H327.673V151.947C327.673 151.611 327.717 151.335 327.805 151.119C327.893 150.895 328.017 150.699 328.177 150.531C328.345 150.355 328.537 150.171 328.753 149.979C328.961 149.803 329.149 149.631 329.317 149.463C329.485 149.295 329.617 149.123 329.713 148.947C329.817 148.763 329.869 148.567 329.869 148.359C329.869 147.919 329.733 147.591 329.461 147.375C329.189 147.159 328.817 147.051 328.345 147.051C328.025 147.051 327.749 147.115 327.517 147.243C327.285 147.371 327.105 147.559 326.977 147.807C326.857 148.055 326.793 148.359 326.785 148.719H325.777C325.769 148.199 325.877 147.751 326.101 147.375C326.325 146.991 326.633 146.695 327.025 146.487C327.425 146.279 327.877 146.175 328.381 146.175C328.901 146.175 329.345 146.271 329.713 146.463C330.089 146.647 330.377 146.903 330.577 147.231C330.785 147.551 330.889 147.927 330.889 148.359ZM327.529 153.459H328.837V154.779H327.529V153.459Z" fill="white"/>
</svg>
