<svg width="353" height="240" viewBox="0 0 353 240" fill="none" xmlns="http://www.w3.org/2000/svg">
<path d="M86.385 2.15055L83.1622 10.3899C83.0765 10.6092 82.9251 10.7966 82.7288 10.9264C82.5324 11.0562 82.3007 11.1221 82.0654 11.115C81.8301 11.1078 81.6027 11.0281 81.4146 10.8866C81.2264 10.7452 81.0866 10.549 81.0144 10.3249L80.2498 7.9971C80.1391 7.65946 79.9516 7.35206 79.7021 7.09905C79.4526 6.84603 79.1479 6.65426 78.8118 6.5388L76.4954 5.74564C76.2728 5.66955 76.079 5.52684 75.9402 5.33686C75.8015 5.14688 75.7245 4.91881 75.7197 4.68361C75.715 4.4484 75.7827 4.21742 75.9137 4.02201C76.0447 3.82659 76.2326 3.67619 76.452 3.59119L84.691 0.432718C84.93 0.340726 85.1907 0.320503 85.4411 0.374529C85.6915 0.428556 85.9207 0.554482 86.1005 0.736865C86.2804 0.919248 86.4031 1.15016 86.4537 1.40127C86.5042 1.65239 86.4803 1.91279 86.385 2.15055Z" fill="#00B6CC"/>
<rect x="35.2188" y="8.44922" width="46" height="20" rx="8" fill="#00B6CC"/>
<path d="M46.1988 15.3092H47.0388V19.2292C47.0388 19.3959 47.0354 19.5792 47.0288 19.7792C47.0288 19.9726 47.0254 20.1659 47.0188 20.3592C47.0121 20.5526 47.0021 20.7259 46.9888 20.8792C46.9821 21.0259 46.9754 21.1392 46.9688 21.2192H47.0088L50.9388 15.3092H51.9388V22.4492H51.0987V18.5692C51.0987 18.3892 51.1021 18.1959 51.1088 17.9892C51.1154 17.7759 51.1221 17.5726 51.1288 17.3792C51.1421 17.1792 51.1521 17.0026 51.1588 16.8492C51.1654 16.6959 51.1721 16.5826 51.1788 16.5092H51.1388L47.1988 22.4492H46.1988V15.3092ZM58.0545 18.4392C58.0545 18.7726 57.9545 19.0326 57.7545 19.2192C57.5545 19.4059 57.2979 19.5326 56.9845 19.5992V19.6392C57.3179 19.6859 57.6079 19.8059 57.8545 19.9992C58.1012 20.1859 58.2245 20.4792 58.2245 20.8792C58.2245 21.1059 58.1812 21.3159 58.0945 21.5092C58.0145 21.7026 57.8879 21.8692 57.7145 22.0092C57.5412 22.1492 57.3179 22.2592 57.0445 22.3392C56.7712 22.4126 56.4412 22.4492 56.0545 22.4492H53.7445V17.0892H56.0445C56.4245 17.0892 56.7645 17.1326 57.0645 17.2192C57.3712 17.2992 57.6112 17.4392 57.7845 17.6392C57.9645 17.8326 58.0545 18.0992 58.0545 18.4392ZM57.3145 20.8792C57.3145 20.5726 57.1979 20.3526 56.9645 20.2192C56.7312 20.0859 56.3879 20.0192 55.9345 20.0192H54.6245V21.7392H55.9545C56.3945 21.7392 56.7312 21.6759 56.9645 21.5492C57.1979 21.4159 57.3145 21.1926 57.3145 20.8792ZM57.1645 18.5492C57.1645 18.2959 57.0712 18.1126 56.8845 17.9992C56.7045 17.8792 56.4079 17.8192 55.9945 17.8192H54.6245V19.2892H55.8345C56.2679 19.2892 56.5979 19.2292 56.8245 19.1092C57.0512 18.9892 57.1645 18.8026 57.1645 18.5492ZM61.5363 16.9992C62.1896 16.9992 62.6729 17.1426 62.9863 17.4292C63.2996 17.7159 63.4563 18.1726 63.4563 18.7992V22.4492H62.8163L62.6463 21.6892H62.6063C62.4529 21.8826 62.2929 22.0459 62.1263 22.1792C61.9663 22.3059 61.7796 22.3992 61.5663 22.4592C61.3596 22.5192 61.1063 22.5492 60.8063 22.5492C60.4863 22.5492 60.1963 22.4926 59.9363 22.3792C59.6829 22.2659 59.4829 22.0926 59.3363 21.8592C59.1896 21.6192 59.1163 21.3192 59.1163 20.9592C59.1163 20.4259 59.3263 20.0159 59.7463 19.7292C60.1663 19.4359 60.8129 19.2759 61.6863 19.2492L62.5963 19.2192V18.8992C62.5963 18.4526 62.4996 18.1426 62.3063 17.9692C62.1129 17.7959 61.8396 17.7092 61.4863 17.7092C61.2063 17.7092 60.9396 17.7526 60.6863 17.8392C60.4329 17.9192 60.1963 18.0126 59.9762 18.1192L59.7063 17.4592C59.9396 17.3326 60.2163 17.2259 60.5363 17.1392C60.8563 17.0459 61.1896 16.9992 61.5363 16.9992ZM61.7963 19.8592C61.1296 19.8859 60.6663 19.9926 60.4063 20.1792C60.1529 20.3659 60.0263 20.6292 60.0263 20.9692C60.0263 21.2692 60.1163 21.4892 60.2963 21.6292C60.4829 21.7692 60.7196 21.8392 61.0063 21.8392C61.4596 21.8392 61.8363 21.7159 62.1363 21.4692C62.4363 21.2159 62.5863 20.8292 62.5863 20.3092V19.8292L61.7963 19.8592ZM65.9917 17.0892V19.3192H68.9017V17.0892H69.7817V22.4492H68.9017V20.0592H65.9917V22.4492H65.1117V17.0892H65.9917Z" fill="#EDEDED"/>
<path d="M70.1658 165.151L66.9429 173.39C66.8573 173.609 66.7059 173.797 66.5095 173.926C66.3132 174.056 66.0814 174.122 65.8461 174.115C65.6108 174.108 65.3835 174.028 65.1953 173.887C65.0072 173.745 64.8674 173.549 64.7951 173.325L64.0306 170.997C63.9198 170.659 63.7324 170.352 63.4829 170.099C63.2334 169.846 62.9286 169.654 62.5926 169.539L60.2762 168.746C60.0535 168.67 59.8597 168.527 59.721 168.337C59.5822 168.147 59.5052 167.919 59.5005 167.684C59.4958 167.448 59.5635 167.217 59.6945 167.022C59.8255 166.827 60.0134 166.676 60.2327 166.591L68.4717 163.433C68.7108 163.341 68.9715 163.321 69.2219 163.375C69.4723 163.429 69.7014 163.554 69.8813 163.737C70.0612 163.919 70.1839 164.15 70.2344 164.401C70.2849 164.652 70.2611 164.913 70.1658 165.151Z" fill="#FF00E6"/>
<rect x="14" y="171" width="52" height="20" rx="8" fill="#FF00E6"/>
<path d="M26.86 177.86C27.7933 177.86 28.4733 178.043 28.9 178.41C29.3267 178.777 29.54 179.293 29.54 179.96C29.54 180.253 29.49 180.537 29.39 180.81C29.2967 181.077 29.14 181.317 28.92 181.53C28.7 181.743 28.4067 181.913 28.04 182.04C27.6733 182.16 27.2233 182.22 26.69 182.22H25.87V185H24.97V177.86H26.86ZM26.78 178.63H25.87V181.45H26.59C27.0433 181.45 27.42 181.403 27.72 181.31C28.02 181.21 28.2433 181.053 28.39 180.84C28.5367 180.627 28.61 180.347 28.61 180C28.61 179.54 28.4633 179.197 28.17 178.97C27.8767 178.743 27.4133 178.63 26.78 178.63ZM35.5647 182.31C35.5647 182.757 35.5047 183.153 35.3847 183.5C35.2714 183.84 35.1047 184.13 34.8847 184.37C34.6714 184.61 34.408 184.793 34.0947 184.92C33.788 185.04 33.4447 185.1 33.0647 185.1C32.7114 185.1 32.3847 185.04 32.0847 184.92C31.7847 184.793 31.5247 184.61 31.3047 184.37C31.0847 184.13 30.9114 183.84 30.7847 183.5C30.6647 183.153 30.6047 182.757 30.6047 182.31C30.6047 181.717 30.7047 181.217 30.9047 180.81C31.1047 180.397 31.3914 180.083 31.7647 179.87C32.138 179.65 32.5814 179.54 33.0947 179.54C33.5814 179.54 34.008 179.65 34.3747 179.87C34.748 180.083 35.038 180.397 35.2447 180.81C35.458 181.217 35.5647 181.717 35.5647 182.31ZM31.5147 182.31C31.5147 182.73 31.568 183.097 31.6747 183.41C31.788 183.717 31.9614 183.953 32.1947 184.12C32.428 184.287 32.7247 184.37 33.0847 184.37C33.4447 184.37 33.7414 184.287 33.9747 184.12C34.208 183.953 34.378 183.717 34.4847 183.41C34.598 183.097 34.6547 182.73 34.6547 182.31C34.6547 181.883 34.598 181.52 34.4847 181.22C34.3714 180.92 34.198 180.69 33.9647 180.53C33.738 180.363 33.4414 180.28 33.0747 180.28C32.528 180.28 32.1314 180.46 31.8847 180.82C31.638 181.18 31.5147 181.677 31.5147 182.31ZM42.7094 179.64V185H41.9194V181.58C41.9194 181.44 41.9227 181.293 41.9294 181.14C41.9427 180.987 41.956 180.837 41.9694 180.69H41.9394L40.1894 185H39.4494L37.7494 180.69H37.7194C37.7327 180.837 37.7394 180.987 37.7394 181.14C37.746 181.293 37.7494 181.45 37.7494 181.61V185H36.9594V179.64H38.1294L39.8194 183.95L41.5394 179.64H42.7094ZM46.4503 179.55C47.1036 179.55 47.587 179.693 47.9003 179.98C48.2136 180.267 48.3703 180.723 48.3703 181.35V185H47.7303L47.5603 184.24H47.5203C47.367 184.433 47.207 184.597 47.0403 184.73C46.8803 184.857 46.6936 184.95 46.4803 185.01C46.2736 185.07 46.0203 185.1 45.7203 185.1C45.4003 185.1 45.1103 185.043 44.8503 184.93C44.597 184.817 44.397 184.643 44.2503 184.41C44.1036 184.17 44.0303 183.87 44.0303 183.51C44.0303 182.977 44.2403 182.567 44.6603 182.28C45.0803 181.987 45.727 181.827 46.6003 181.8L47.5103 181.77V181.45C47.5103 181.003 47.4136 180.693 47.2203 180.52C47.027 180.347 46.7536 180.26 46.4003 180.26C46.1203 180.26 45.8536 180.303 45.6003 180.39C45.347 180.47 45.1103 180.563 44.8903 180.67L44.6203 180.01C44.8536 179.883 45.1303 179.777 45.4503 179.69C45.7703 179.597 46.1036 179.55 46.4503 179.55ZM46.7103 182.41C46.0436 182.437 45.5803 182.543 45.3203 182.73C45.067 182.917 44.9403 183.18 44.9403 183.52C44.9403 183.82 45.0303 184.04 45.2103 184.18C45.397 184.32 45.6336 184.39 45.9203 184.39C46.3736 184.39 46.7503 184.267 47.0503 184.02C47.3503 183.767 47.5003 183.38 47.5003 182.86V182.38L46.7103 182.41ZM50.9058 179.64V181.87H53.8158V179.64H54.6958V185H53.8158V182.61H50.9058V185H50.0258V179.64H50.9058Z" fill="#EDEDED"/>
<path d="M242.938 62.2052L246.161 70.4446C246.247 70.6639 246.398 70.8513 246.594 70.9811C246.791 71.1109 247.022 71.1768 247.258 71.1697C247.493 71.1625 247.72 71.0828 247.909 70.9413C248.097 70.7999 248.237 70.6037 248.309 70.3796L249.073 68.0518C249.184 67.7141 249.372 67.4068 249.621 67.1537C249.871 66.9007 250.175 66.709 250.511 66.5935L252.828 65.8003C253.05 65.7242 253.244 65.5815 253.383 65.3915C253.522 65.2016 253.599 64.9735 253.603 64.7383C253.608 64.5031 253.54 64.2721 253.409 64.0767C253.278 63.8813 253.091 63.7309 252.871 63.6459L244.632 60.4874C244.393 60.3954 244.132 60.3752 243.882 60.4292C243.632 60.4832 243.402 60.6092 243.223 60.7916C243.043 60.9739 242.92 61.2048 242.869 61.456C242.819 61.7071 242.843 61.9675 242.938 62.2052Z" fill="#C300FF"/>
<rect x="251.313" y="68.5039" width="55" height="20" rx="8" fill="#C300FF"/>
<path d="M265.343 76.0539C264.963 76.0539 264.62 76.1206 264.313 76.2539C264.007 76.3806 263.747 76.5706 263.533 76.8239C263.32 77.0706 263.157 77.3739 263.043 77.7339C262.93 78.0872 262.873 78.4872 262.873 78.9339C262.873 79.5206 262.963 80.0306 263.143 80.4639C263.33 80.8972 263.603 81.2306 263.963 81.4639C264.33 81.6972 264.787 81.8139 265.333 81.8139C265.647 81.8139 265.943 81.7872 266.223 81.7339C266.503 81.6806 266.777 81.6139 267.043 81.5339V82.3139C266.777 82.4139 266.5 82.4872 266.213 82.5339C265.933 82.5806 265.597 82.6039 265.203 82.6039C264.477 82.6039 263.87 82.4539 263.383 82.1539C262.897 81.8539 262.53 81.4272 262.283 80.8739C262.043 80.3206 261.923 79.6706 261.923 78.9239C261.923 78.3839 261.997 77.8906 262.143 77.4439C262.297 76.9972 262.517 76.6106 262.803 76.2839C263.097 75.9572 263.457 75.7072 263.883 75.5339C264.31 75.3539 264.8 75.2639 265.353 75.2639C265.72 75.2639 266.073 75.3006 266.413 75.3739C266.753 75.4472 267.057 75.5506 267.323 75.6839L266.963 76.4439C266.743 76.3439 266.497 76.2539 266.223 76.1739C265.957 76.0939 265.663 76.0539 265.343 76.0539ZM270.552 77.0439C271.012 77.0439 271.405 77.1439 271.732 77.3439C272.065 77.5439 272.318 77.8272 272.492 78.1939C272.672 78.5539 272.762 78.9772 272.762 79.4639V79.9939H269.092C269.105 80.6006 269.258 81.0639 269.552 81.3839C269.852 81.6972 270.268 81.8539 270.802 81.8539C271.142 81.8539 271.442 81.8239 271.702 81.7639C271.968 81.6972 272.242 81.6039 272.522 81.4839V82.2539C272.248 82.3739 271.978 82.4606 271.712 82.5139C271.445 82.5739 271.128 82.6039 270.762 82.6039C270.255 82.6039 269.805 82.5006 269.412 82.2939C269.025 82.0872 268.722 81.7806 268.502 81.3739C268.288 80.9606 268.182 80.4572 268.182 79.8639C268.182 79.2772 268.278 78.7739 268.472 78.3539C268.672 77.9339 268.948 77.6106 269.302 77.3839C269.662 77.1572 270.078 77.0439 270.552 77.0439ZM270.542 77.7639C270.122 77.7639 269.788 77.9006 269.542 78.1739C269.302 78.4406 269.158 78.8139 269.112 79.2939H271.842C271.842 78.9872 271.795 78.7206 271.702 78.4939C271.608 78.2672 271.465 78.0906 271.272 77.9639C271.085 77.8306 270.842 77.7639 270.542 77.7639ZM276.676 77.0439C277.336 77.0439 277.866 77.2739 278.266 77.7339C278.673 78.1939 278.876 78.8872 278.876 79.8139C278.876 80.4206 278.783 80.9339 278.596 81.3539C278.416 81.7672 278.16 82.0806 277.826 82.2939C277.5 82.5006 277.113 82.6039 276.666 82.6039C276.393 82.6039 276.15 82.5672 275.936 82.4939C275.723 82.4206 275.54 82.3272 275.386 82.2139C275.24 82.0939 275.113 81.9639 275.006 81.8239H274.946C274.96 81.9372 274.973 82.0806 274.986 82.2539C275 82.4272 275.006 82.5772 275.006 82.7039V84.9039H274.126V77.1439H274.846L274.966 77.8739H275.006C275.113 77.7206 275.24 77.5806 275.386 77.4539C275.54 77.3272 275.72 77.2272 275.926 77.1539C276.14 77.0806 276.39 77.0439 276.676 77.0439ZM276.516 77.7839C276.156 77.7839 275.866 77.8539 275.646 77.9939C275.426 78.1272 275.266 78.3306 275.166 78.6039C275.066 78.8772 275.013 79.2239 275.006 79.6439V79.8139C275.006 80.2539 275.053 80.6272 275.146 80.9339C275.24 81.2406 275.396 81.4739 275.616 81.6339C275.843 81.7939 276.15 81.8739 276.536 81.8739C276.863 81.8739 277.13 81.7839 277.336 81.6039C277.55 81.4239 277.706 81.1806 277.806 80.8739C277.913 80.5606 277.966 80.2039 277.966 79.8039C277.966 79.1906 277.846 78.7006 277.606 78.3339C277.373 77.9672 277.01 77.7839 276.516 77.7839ZM283.549 77.1439V77.8839H281.159V82.5039H280.279V77.1439H283.549ZM286.577 77.0439C287.037 77.0439 287.43 77.1439 287.757 77.3439C288.09 77.5439 288.344 77.8272 288.517 78.1939C288.697 78.5539 288.787 78.9772 288.787 79.4639V79.9939H285.117C285.13 80.6006 285.284 81.0639 285.577 81.3839C285.877 81.6972 286.294 81.8539 286.827 81.8539C287.167 81.8539 287.467 81.8239 287.727 81.7639C287.994 81.6972 288.267 81.6039 288.547 81.4839V82.2539C288.274 82.3739 288.004 82.4606 287.737 82.5139C287.47 82.5739 287.154 82.6039 286.787 82.6039C286.28 82.6039 285.83 82.5006 285.437 82.2939C285.05 82.0872 284.747 81.7806 284.527 81.3739C284.314 80.9606 284.207 80.4572 284.207 79.8639C284.207 79.2772 284.304 78.7739 284.497 78.3539C284.697 77.9339 284.974 77.6106 285.327 77.3839C285.687 77.1572 286.104 77.0439 286.577 77.0439ZM286.567 77.7639C286.147 77.7639 285.814 77.9006 285.567 78.1739C285.327 78.4406 285.184 78.8139 285.137 79.2939H287.867C287.867 78.9872 287.82 78.7206 287.727 78.4939C287.634 78.2672 287.49 78.0906 287.297 77.9639C287.11 77.8306 286.867 77.7639 286.567 77.7639ZM294.492 74.9239C294.465 75.2572 294.382 75.5372 294.242 75.7639C294.108 75.9906 293.908 76.1606 293.642 76.2739C293.375 76.3872 293.028 76.4439 292.602 76.4439C292.168 76.4439 291.818 76.3872 291.552 76.2739C291.292 76.1606 291.102 75.9939 290.982 75.7739C290.862 75.5472 290.788 75.2639 290.762 74.9239H291.582C291.615 75.2839 291.708 75.5272 291.862 75.6539C292.022 75.7739 292.275 75.8339 292.622 75.8339C292.928 75.8339 293.168 75.7706 293.342 75.6439C293.522 75.5106 293.628 75.2706 293.662 74.9239H294.492ZM290.982 80.4139C290.982 80.4739 290.978 80.5606 290.972 80.6739C290.972 80.7806 290.968 80.8972 290.962 81.0239C290.955 81.1439 290.948 81.2606 290.942 81.3739C290.935 81.4806 290.928 81.5672 290.922 81.6339L293.792 77.1439H294.872V82.5039H294.052V79.3439C294.052 79.2372 294.052 79.0972 294.052 78.9239C294.058 78.7506 294.065 78.5806 294.072 78.4139C294.078 78.2406 294.085 78.1106 294.092 78.0239L291.242 82.5039H290.152V77.1439H290.982V80.4139Z" fill="#EDEDED"/>
<path d="M205.198 213.631L208.421 221.87C208.506 222.09 208.658 222.277 208.854 222.407C209.05 222.537 209.282 222.603 209.518 222.595C209.753 222.588 209.98 222.509 210.168 222.367C210.356 222.226 210.496 222.029 210.569 221.805L211.333 219.478C211.444 219.14 211.631 218.833 211.881 218.58C212.13 218.326 212.435 218.135 212.771 218.019L215.087 217.226C215.31 217.15 215.504 217.007 215.643 216.817C215.781 216.627 215.858 216.399 215.863 216.164C215.868 215.929 215.8 215.698 215.669 215.502C215.538 215.307 215.35 215.157 215.131 215.072L206.892 211.913C206.653 211.821 206.392 211.801 206.142 211.855C205.891 211.909 205.662 212.035 205.482 212.217C205.302 212.4 205.18 212.631 205.129 212.882C205.079 213.133 205.103 213.393 205.198 213.631Z" fill="#0029CC"/>
<rect x="213.573" y="219.93" width="44" height="20" rx="8" fill="#0029CC"/>
<path d="M226.583 226.79C227.176 226.79 227.673 226.846 228.073 226.96C228.48 227.073 228.783 227.26 228.983 227.52C229.19 227.78 229.293 228.126 229.293 228.56C229.293 228.84 229.24 229.09 229.133 229.31C229.033 229.523 228.88 229.703 228.673 229.85C228.473 229.99 228.226 230.086 227.933 230.14V230.19C228.233 230.236 228.503 230.323 228.743 230.45C228.99 230.576 229.183 230.756 229.323 230.99C229.463 231.223 229.533 231.526 229.533 231.9C229.533 232.333 229.433 232.703 229.233 233.01C229.033 233.31 228.746 233.54 228.373 233.7C228.006 233.853 227.566 233.93 227.053 233.93H224.543V226.79H226.583ZM226.763 229.83C227.376 229.83 227.796 229.733 228.023 229.54C228.25 229.34 228.363 229.046 228.363 228.66C228.363 228.266 228.223 227.986 227.943 227.82C227.67 227.646 227.23 227.56 226.623 227.56H225.443V229.83H226.763ZM225.443 230.58V233.17H226.883C227.516 233.17 227.956 233.046 228.203 232.8C228.45 232.553 228.573 232.23 228.573 231.83C228.573 231.576 228.516 231.356 228.403 231.17C228.296 230.983 228.113 230.84 227.853 230.74C227.6 230.633 227.253 230.58 226.813 230.58H225.443ZM235.007 233.93H234.117V229.3H232.537C232.47 230.146 232.387 230.87 232.287 231.47C232.187 232.063 232.06 232.546 231.907 232.92C231.754 233.293 231.57 233.566 231.357 233.74C231.144 233.913 230.894 234 230.607 234C230.52 234 230.434 233.993 230.347 233.98C230.267 233.973 230.2 233.956 230.147 233.93V233.27C230.187 233.283 230.23 233.293 230.277 233.3C230.324 233.306 230.37 233.31 230.417 233.31C230.564 233.31 230.697 233.25 230.817 233.13C230.937 233.01 231.044 232.826 231.137 232.58C231.237 232.333 231.327 232.023 231.407 231.65C231.487 231.27 231.557 230.823 231.617 230.31C231.677 229.796 231.73 229.216 231.777 228.57H235.007V233.93ZM238.738 228.48C239.392 228.48 239.875 228.623 240.188 228.91C240.502 229.196 240.658 229.653 240.658 230.28V233.93H240.018L239.848 233.17H239.808C239.655 233.363 239.495 233.526 239.328 233.66C239.168 233.786 238.982 233.88 238.768 233.94C238.562 234 238.308 234.03 238.008 234.03C237.688 234.03 237.398 233.973 237.138 233.86C236.885 233.746 236.685 233.573 236.538 233.34C236.392 233.1 236.318 232.8 236.318 232.44C236.318 231.906 236.528 231.496 236.948 231.21C237.368 230.916 238.015 230.756 238.888 230.73L239.798 230.7V230.38C239.798 229.933 239.702 229.623 239.508 229.45C239.315 229.276 239.042 229.19 238.688 229.19C238.408 229.19 238.142 229.233 237.888 229.32C237.635 229.4 237.398 229.493 237.178 229.6L236.908 228.94C237.142 228.813 237.418 228.706 237.738 228.62C238.058 228.526 238.392 228.48 238.738 228.48ZM238.998 231.34C238.332 231.366 237.868 231.473 237.608 231.66C237.355 231.846 237.228 232.11 237.228 232.45C237.228 232.75 237.318 232.97 237.498 233.11C237.685 233.25 237.922 233.32 238.208 233.32C238.662 233.32 239.038 233.196 239.338 232.95C239.638 232.696 239.788 232.31 239.788 231.79V231.31L238.998 231.34ZM246.294 228.57V233.19H247.074V235.79H246.224V233.93H242.494V235.79H241.654V233.19H242.084C242.39 232.763 242.644 232.3 242.844 231.8C243.05 231.293 243.204 230.766 243.304 230.22C243.41 229.666 243.467 229.116 243.474 228.57H246.294ZM244.254 229.26C244.227 229.713 244.157 230.183 244.044 230.67C243.93 231.15 243.784 231.61 243.604 232.05C243.43 232.49 243.227 232.87 242.994 233.19H245.444V229.26H244.254Z" fill="#EDEDED"/>
<rect x="0.5" y="67.2773" width="189" height="33" rx="7.5" stroke="#888888"/>
<path d="M27.416 87.7773H26.12L22.244 83.4333V87.7773H21.164V79.2093H22.244V83.3613L26.024 79.2093H27.248L23.528 83.3733L27.416 87.7773ZM30.874 81.2373C31.658 81.2373 32.238 81.4093 32.614 81.7533C32.99 82.0973 33.178 82.6453 33.178 83.3973V87.7773H32.41L32.206 86.8653H32.158C31.974 87.0973 31.782 87.2933 31.582 87.4533C31.39 87.6053 31.166 87.7173 30.91 87.7893C30.662 87.8613 30.358 87.8973 29.998 87.8973C29.614 87.8973 29.266 87.8293 28.954 87.6933C28.65 87.5573 28.41 87.3493 28.234 87.0693C28.058 86.7813 27.97 86.4213 27.97 85.9893C27.97 85.3493 28.222 84.8573 28.726 84.5133C29.23 84.1613 30.006 83.9693 31.054 83.9373L32.146 83.9013V83.5173C32.146 82.9813 32.03 82.6093 31.798 82.4013C31.566 82.1933 31.238 82.0893 30.814 82.0893C30.478 82.0893 30.158 82.1413 29.854 82.2453C29.55 82.3413 29.266 82.4533 29.002 82.5813L28.678 81.7893C28.958 81.6373 29.29 81.5093 29.674 81.4053C30.058 81.2933 30.458 81.2373 30.874 81.2373ZM31.186 84.6693C30.386 84.7013 29.83 84.8293 29.518 85.0533C29.214 85.2773 29.062 85.5933 29.062 86.0013C29.062 86.3613 29.17 86.6253 29.386 86.7933C29.61 86.9613 29.894 87.0453 30.238 87.0453C30.782 87.0453 31.234 86.8973 31.594 86.6013C31.954 86.2973 32.134 85.8333 32.134 85.2093V84.6333L31.186 84.6693ZM38.9685 81.3453H40.1205L37.3725 84.4413L40.3485 87.7773H39.1245L36.2205 84.5133V87.7773H35.1645V81.3453H36.2205V84.4653L38.9685 81.3453ZM49.9052 81.3453V87.7773H48.8492V82.2453H45.5252V87.7773H44.4692V81.3453H49.9052ZM57.5495 84.5493C57.5495 85.0853 57.4775 85.5613 57.3335 85.9773C57.1975 86.3853 56.9975 86.7333 56.7335 87.0213C56.4775 87.3093 56.1615 87.5293 55.7855 87.6813C55.4175 87.8253 55.0055 87.8973 54.5495 87.8973C54.1255 87.8973 53.7335 87.8253 53.3735 87.6813C53.0135 87.5293 52.7015 87.3093 52.4375 87.0213C52.1735 86.7333 51.9655 86.3853 51.8135 85.9773C51.6695 85.5613 51.5975 85.0853 51.5975 84.5493C51.5975 83.8373 51.7175 83.2373 51.9575 82.7493C52.1975 82.2533 52.5415 81.8773 52.9895 81.6213C53.4375 81.3573 53.9695 81.2253 54.5855 81.2253C55.1695 81.2253 55.6815 81.3573 56.1215 81.6213C56.5695 81.8773 56.9175 82.2533 57.1655 82.7493C57.4215 83.2373 57.5495 83.8373 57.5495 84.5493ZM52.6895 84.5493C52.6895 85.0533 52.7535 85.4933 52.8815 85.8693C53.0175 86.2373 53.2255 86.5213 53.5055 86.7213C53.7855 86.9213 54.1415 87.0213 54.5735 87.0213C55.0055 87.0213 55.3615 86.9213 55.6415 86.7213C55.9215 86.5213 56.1255 86.2373 56.2535 85.8693C56.3895 85.4933 56.4575 85.0533 56.4575 84.5493C56.4575 84.0373 56.3895 83.6013 56.2535 83.2413C56.1175 82.8813 55.9095 82.6053 55.6295 82.4133C55.3575 82.2133 55.0015 82.1133 54.5615 82.1133C53.9055 82.1133 53.4295 82.3293 53.1335 82.7613C52.8375 83.1933 52.6895 83.7893 52.6895 84.5493ZM63.9991 81.3453V86.8893H64.9351V90.0093H63.9151V87.7773H59.4391V90.0093H58.4311V86.8893H58.9471C59.3151 86.3773 59.6191 85.8213 59.8591 85.2213C60.1071 84.6133 60.2911 83.9813 60.4111 83.3253C60.5391 82.6613 60.6071 82.0013 60.6151 81.3453H63.9991ZM61.5511 82.1733C61.5191 82.7173 61.4351 83.2813 61.2991 83.8653C61.1631 84.4413 60.9871 84.9933 60.7711 85.5213C60.5631 86.0493 60.3191 86.5053 60.0391 86.8893H62.9791V82.1733H61.5511ZM71.7878 84.5493C71.7878 85.0853 71.7158 85.5613 71.5718 85.9773C71.4358 86.3853 71.2358 86.7333 70.9718 87.0213C70.7158 87.3093 70.3998 87.5293 70.0238 87.6813C69.6558 87.8253 69.2438 87.8973 68.7878 87.8973C68.3638 87.8973 67.9718 87.8253 67.6118 87.6813C67.2518 87.5293 66.9398 87.3093 66.6758 87.0213C66.4118 86.7333 66.2038 86.3853 66.0518 85.9773C65.9078 85.5613 65.8358 85.0853 65.8358 84.5493C65.8358 83.8373 65.9558 83.2373 66.1958 82.7493C66.4358 82.2533 66.7798 81.8773 67.2278 81.6213C67.6758 81.3573 68.2078 81.2253 68.8238 81.2253C69.4078 81.2253 69.9198 81.3573 70.3598 81.6213C70.8078 81.8773 71.1558 82.2533 71.4038 82.7493C71.6598 83.2373 71.7878 83.8373 71.7878 84.5493ZM66.9278 84.5493C66.9278 85.0533 66.9918 85.4933 67.1198 85.8693C67.2558 86.2373 67.4638 86.5213 67.7438 86.7213C68.0238 86.9213 68.3798 87.0213 68.8118 87.0213C69.2438 87.0213 69.5998 86.9213 69.8798 86.7213C70.1598 86.5213 70.3638 86.2373 70.4918 85.8693C70.6278 85.4933 70.6958 85.0533 70.6958 84.5493C70.6958 84.0373 70.6278 83.6013 70.4918 83.2413C70.3558 82.8813 70.1478 82.6053 69.8678 82.4133C69.5958 82.2133 69.2398 82.1133 68.7998 82.1133C68.1438 82.1133 67.6678 82.3293 67.3718 82.7613C67.0758 83.1933 66.9278 83.7893 66.9278 84.5493ZM73.1254 83.9133C73.1254 82.9773 73.2174 82.1813 73.4014 81.5253C73.5934 80.8613 73.8854 80.3333 74.2774 79.9413C74.6774 79.5413 75.1894 79.2733 75.8134 79.1373C76.3334 79.0253 76.8414 78.9253 77.3374 78.8373C77.8334 78.7493 78.2974 78.6693 78.7294 78.5973L78.9094 79.5213C78.7014 79.5533 78.4694 79.5933 78.2134 79.6413C77.9574 79.6813 77.6974 79.7253 77.4334 79.7733C77.1694 79.8133 76.9134 79.8573 76.6654 79.9053C76.4254 79.9453 76.2134 79.9853 76.0294 80.0253C75.7654 80.0813 75.5294 80.1773 75.3214 80.3133C75.1134 80.4413 74.9334 80.6173 74.7814 80.8413C74.6374 81.0653 74.5214 81.3413 74.4334 81.6693C74.3454 81.9973 74.2934 82.3853 74.2774 82.8333H74.3494C74.4614 82.6813 74.6134 82.5253 74.8054 82.3653C75.0054 82.2053 75.2414 82.0693 75.5134 81.9573C75.7934 81.8453 76.1094 81.7893 76.4614 81.7893C77.0214 81.7893 77.4854 81.9133 77.8534 82.1613C78.2294 82.4013 78.5094 82.7373 78.6934 83.1693C78.8854 83.6013 78.9814 84.1053 78.9814 84.6813C78.9814 85.3933 78.8574 85.9893 78.6094 86.4693C78.3614 86.9493 78.0174 87.3093 77.5774 87.5493C77.1374 87.7813 76.6254 87.8973 76.0414 87.8973C75.6014 87.8973 75.2014 87.8133 74.8414 87.6453C74.4814 87.4693 74.1734 87.2133 73.9174 86.8773C73.6614 86.5413 73.4654 86.1253 73.3294 85.6293C73.1934 85.1333 73.1254 84.5613 73.1254 83.9133ZM76.1254 87.0213C76.4774 87.0213 76.7814 86.9493 77.0374 86.8053C77.3014 86.6613 77.5054 86.4253 77.6494 86.0973C77.7934 85.7693 77.8654 85.3333 77.8654 84.7893C77.8654 84.1333 77.7414 83.6173 77.4934 83.2413C77.2534 82.8573 76.8534 82.6653 76.2934 82.6653C75.9414 82.6653 75.6214 82.7453 75.3334 82.9053C75.0454 83.0573 74.8054 83.2333 74.6134 83.4333C74.4214 83.6333 74.2854 83.8013 74.2054 83.9373C74.2054 84.3293 74.2334 84.7093 74.2894 85.0773C74.3454 85.4453 74.4414 85.7773 74.5774 86.0733C74.7214 86.3613 74.9174 86.5933 75.1654 86.7693C75.4214 86.9373 75.7414 87.0213 76.1254 87.0213ZM83.705 81.2253C84.497 81.2253 85.133 81.5013 85.613 82.0533C86.101 82.6053 86.345 83.4373 86.345 84.5493C86.345 85.2773 86.233 85.8933 86.009 86.3973C85.793 86.8933 85.485 87.2693 85.085 87.5253C84.693 87.7733 84.229 87.8973 83.693 87.8973C83.365 87.8973 83.073 87.8533 82.817 87.7653C82.561 87.6773 82.341 87.5653 82.157 87.4293C81.981 87.2853 81.829 87.1293 81.701 86.9613H81.629C81.645 87.0973 81.661 87.2693 81.677 87.4773C81.693 87.6853 81.701 87.8653 81.701 88.0173V90.6573H80.645V81.3453H81.509L81.653 82.2213H81.701C81.829 82.0373 81.981 81.8693 82.157 81.7173C82.341 81.5653 82.557 81.4453 82.805 81.3573C83.061 81.2693 83.361 81.2253 83.705 81.2253ZM83.513 82.1133C83.081 82.1133 82.733 82.1973 82.469 82.3653C82.205 82.5253 82.013 82.7693 81.893 83.0973C81.773 83.4253 81.709 83.8413 81.701 84.3453V84.5493C81.701 85.0773 81.757 85.5253 81.869 85.8933C81.981 86.2613 82.169 86.5413 82.433 86.7333C82.705 86.9253 83.073 87.0213 83.537 87.0213C83.929 87.0213 84.249 86.9133 84.497 86.6973C84.753 86.4813 84.941 86.1893 85.061 85.8213C85.189 85.4453 85.253 85.0173 85.253 84.5373C85.253 83.8013 85.109 83.2133 84.821 82.7733C84.541 82.3333 84.105 82.1133 83.513 82.1133ZM90.4638 81.2373C91.2478 81.2373 91.8278 81.4093 92.2038 81.7533C92.5798 82.0973 92.7678 82.6453 92.7678 83.3973V87.7773H91.9998L91.7958 86.8653H91.7478C91.5638 87.0973 91.3718 87.2933 91.1718 87.4533C90.9798 87.6053 90.7558 87.7173 90.4998 87.7893C90.2518 87.8613 89.9478 87.8973 89.5878 87.8973C89.2038 87.8973 88.8558 87.8293 88.5438 87.6933C88.2398 87.5573 87.9998 87.3493 87.8238 87.0693C87.6478 86.7813 87.5598 86.4213 87.5598 85.9893C87.5598 85.3493 87.8118 84.8573 88.3158 84.5133C88.8198 84.1613 89.5958 83.9693 90.6438 83.9373L91.7358 83.9013V83.5173C91.7358 82.9813 91.6198 82.6093 91.3878 82.4013C91.1558 82.1933 90.8278 82.0893 90.4038 82.0893C90.0678 82.0893 89.7478 82.1413 89.4438 82.2453C89.1398 82.3413 88.8558 82.4533 88.5918 82.5813L88.2678 81.7893C88.5478 81.6373 88.8798 81.5093 89.2638 81.4053C89.6478 81.2933 90.0478 81.2373 90.4638 81.2373ZM90.7758 84.6693C89.9758 84.7013 89.4198 84.8293 89.1078 85.0533C88.8038 85.2773 88.6518 85.5933 88.6518 86.0013C88.6518 86.3613 88.7598 86.6253 88.9758 86.7933C89.1998 86.9613 89.4838 87.0453 89.8278 87.0453C90.3718 87.0453 90.8238 86.8973 91.1838 86.6013C91.5438 86.2973 91.7238 85.8333 91.7238 85.2093V84.6333L90.7758 84.6693ZM99.1944 82.2333H97.0944V87.7773H96.0504V82.2333H93.9744V81.3453H99.1944V82.2333ZM103.425 83.9853C103.985 83.9853 104.449 84.0533 104.817 84.1893C105.185 84.3253 105.461 84.5293 105.645 84.8013C105.837 85.0653 105.933 85.4013 105.933 85.8093C105.933 86.2093 105.841 86.5573 105.657 86.8533C105.481 87.1493 105.205 87.3773 104.829 87.5373C104.453 87.6973 103.969 87.7773 103.377 87.7773H100.461V81.3453H101.517V83.9853H103.425ZM104.877 85.8693C104.877 85.4773 104.737 85.2133 104.457 85.0773C104.185 84.9333 103.801 84.8613 103.305 84.8613H101.517V86.9253H103.329C103.777 86.9253 104.145 86.8453 104.433 86.6853C104.729 86.5253 104.877 86.2533 104.877 85.8693ZM113.6 81.2253C114.392 81.2253 115.028 81.5013 115.508 82.0533C115.996 82.6053 116.24 83.4373 116.24 84.5493C116.24 85.2773 116.128 85.8933 115.904 86.3973C115.688 86.8933 115.38 87.2693 114.98 87.5253C114.588 87.7733 114.124 87.8973 113.588 87.8973C113.26 87.8973 112.968 87.8533 112.712 87.7653C112.456 87.6773 112.236 87.5653 112.052 87.4293C111.876 87.2853 111.724 87.1293 111.596 86.9613H111.524C111.54 87.0973 111.556 87.2693 111.572 87.4773C111.588 87.6853 111.596 87.8653 111.596 88.0173V90.6573H110.54V81.3453H111.404L111.548 82.2213H111.596C111.724 82.0373 111.876 81.8693 112.052 81.7173C112.236 81.5653 112.452 81.4453 112.7 81.3573C112.956 81.2693 113.256 81.2253 113.6 81.2253ZM113.408 82.1133C112.976 82.1133 112.628 82.1973 112.364 82.3653C112.1 82.5253 111.908 82.7693 111.788 83.0973C111.668 83.4253 111.604 83.8413 111.596 84.3453V84.5493C111.596 85.0773 111.652 85.5253 111.764 85.8933C111.876 86.2613 112.064 86.5413 112.328 86.7333C112.6 86.9253 112.968 87.0213 113.432 87.0213C113.824 87.0213 114.144 86.9133 114.392 86.6973C114.648 86.4813 114.836 86.1893 114.956 85.8213C115.084 85.4453 115.148 85.0173 115.148 84.5373C115.148 83.8013 115.004 83.2133 114.716 82.7733C114.436 82.3333 114 82.1133 113.408 82.1133ZM120.406 81.2253C120.958 81.2253 121.43 81.3453 121.822 81.5853C122.222 81.8253 122.526 82.1653 122.734 82.6053C122.95 83.0373 123.058 83.5453 123.058 84.1293V84.7653H118.654C118.67 85.4933 118.854 86.0493 119.206 86.4333C119.566 86.8093 120.066 86.9973 120.706 86.9973C121.114 86.9973 121.474 86.9613 121.786 86.8893C122.106 86.8093 122.434 86.6973 122.77 86.5533V87.4773C122.442 87.6213 122.118 87.7253 121.798 87.7893C121.478 87.8613 121.098 87.8973 120.658 87.8973C120.05 87.8973 119.51 87.7733 119.038 87.5253C118.574 87.2773 118.21 86.9093 117.946 86.4213C117.69 85.9253 117.562 85.3213 117.562 84.6093C117.562 83.9053 117.678 83.3013 117.91 82.7973C118.15 82.2933 118.482 81.9053 118.906 81.6333C119.338 81.3613 119.838 81.2253 120.406 81.2253ZM120.394 82.0893C119.89 82.0893 119.49 82.2533 119.194 82.5813C118.906 82.9013 118.734 83.3493 118.678 83.9253H121.954C121.954 83.5573 121.898 83.2373 121.786 82.9653C121.674 82.6933 121.502 82.4813 121.27 82.3293C121.046 82.1693 120.754 82.0893 120.394 82.0893ZM133.42 81.3453V87.7773H124.696V81.3453H125.752V86.8893H128.524V81.3453H129.58V86.8893H132.364V81.3453H133.42ZM137.961 81.2253C138.513 81.2253 138.985 81.3453 139.377 81.5853C139.777 81.8253 140.081 82.1653 140.289 82.6053C140.505 83.0373 140.613 83.5453 140.613 84.1293V84.7653H136.209C136.225 85.4933 136.409 86.0493 136.761 86.4333C137.121 86.8093 137.621 86.9973 138.261 86.9973C138.669 86.9973 139.029 86.9613 139.341 86.8893C139.661 86.8093 139.989 86.6973 140.325 86.5533V87.4773C139.997 87.6213 139.673 87.7253 139.353 87.7893C139.033 87.8613 138.653 87.8973 138.213 87.8973C137.605 87.8973 137.065 87.7733 136.593 87.5253C136.129 87.2773 135.765 86.9093 135.501 86.4213C135.245 85.9253 135.117 85.3213 135.117 84.6093C135.117 83.9053 135.233 83.3013 135.465 82.7973C135.705 82.2933 136.037 81.9053 136.461 81.6333C136.893 81.3613 137.393 81.2253 137.961 81.2253ZM137.949 82.0893C137.445 82.0893 137.045 82.2533 136.749 82.5813C136.461 82.9013 136.289 83.3493 136.233 83.9253H139.509C139.509 83.5573 139.453 83.2373 139.341 82.9653C139.229 82.6933 139.057 82.4813 138.825 82.3293C138.601 82.1693 138.309 82.0893 137.949 82.0893ZM143.306 81.3453V84.0213H146.798V81.3453H147.854V87.7773H146.798V84.9093H143.306V87.7773H142.25V81.3453H143.306ZM150.887 85.2693C150.887 85.3413 150.883 85.4453 150.875 85.5813C150.875 85.7093 150.871 85.8493 150.863 86.0013C150.855 86.1453 150.847 86.2853 150.839 86.4213C150.831 86.5493 150.823 86.6533 150.815 86.7333L154.259 81.3453H155.555V87.7773H154.571V83.9853C154.571 83.8573 154.571 83.6893 154.571 83.4813C154.579 83.2733 154.587 83.0693 154.595 82.8693C154.603 82.6613 154.611 82.5053 154.619 82.4013L151.199 87.7773H149.891V81.3453H150.887V85.2693ZM160.086 81.2253C160.638 81.2253 161.11 81.3453 161.502 81.5853C161.902 81.8253 162.206 82.1653 162.414 82.6053C162.63 83.0373 162.738 83.5453 162.738 84.1293V84.7653H158.334C158.35 85.4933 158.534 86.0493 158.886 86.4333C159.246 86.8093 159.746 86.9973 160.386 86.9973C160.794 86.9973 161.154 86.9613 161.466 86.8893C161.786 86.8093 162.114 86.6973 162.45 86.5533V87.4773C162.122 87.6213 161.798 87.7253 161.478 87.7893C161.158 87.8613 160.778 87.8973 160.338 87.8973C159.73 87.8973 159.19 87.7733 158.718 87.5253C158.254 87.2773 157.89 86.9093 157.626 86.4213C157.37 85.9253 157.242 85.3213 157.242 84.6093C157.242 83.9053 157.358 83.3013 157.59 82.7973C157.83 82.2933 158.162 81.9053 158.586 81.6333C159.018 81.3613 159.518 81.2253 160.086 81.2253ZM160.074 82.0893C159.57 82.0893 159.17 82.2533 158.874 82.5813C158.586 82.9013 158.414 83.3493 158.358 83.9253H161.634C161.634 83.5573 161.578 83.2373 161.466 82.9653C161.354 82.6933 161.182 82.4813 160.95 82.3293C160.726 82.1693 160.434 82.0893 160.074 82.0893ZM168.935 81.3573C168.935 81.6453 168.891 81.9053 168.803 82.1373C168.715 82.3693 168.575 82.5933 168.383 82.8093C168.199 83.0173 167.963 83.2373 167.675 83.4693C167.347 83.7333 167.107 83.9693 166.955 84.1773C166.811 84.3853 166.739 84.6413 166.739 84.9453V85.5213H165.719V84.9453C165.719 84.6093 165.763 84.3333 165.851 84.1173C165.939 83.8933 166.063 83.6973 166.223 83.5293C166.391 83.3533 166.583 83.1693 166.799 82.9773C167.007 82.8013 167.195 82.6293 167.363 82.4613C167.531 82.2933 167.663 82.1213 167.759 81.9453C167.863 81.7613 167.915 81.5653 167.915 81.3573C167.915 80.9173 167.779 80.5893 167.507 80.3733C167.235 80.1573 166.863 80.0493 166.391 80.0493C166.071 80.0493 165.795 80.1133 165.563 80.2413C165.331 80.3693 165.151 80.5573 165.023 80.8053C164.903 81.0533 164.839 81.3573 164.831 81.7173H163.823C163.815 81.1973 163.923 80.7493 164.147 80.3733C164.371 79.9893 164.679 79.6933 165.071 79.4853C165.471 79.2773 165.923 79.1733 166.427 79.1733C166.947 79.1733 167.391 79.2693 167.759 79.4613C168.135 79.6453 168.423 79.9013 168.623 80.2293C168.831 80.5493 168.935 80.9253 168.935 81.3573ZM165.575 86.4573H166.883V87.7773H165.575V86.4573Z" fill="#A1A1A1"/>
<rect x="106.648" y="134.277" width="245" height="33" rx="7.5" stroke="#888888"/>
<path d="M133.564 154.777H132.268L128.392 150.433V154.777H127.312V146.209H128.392V150.361L132.172 146.209H133.396L129.676 150.373L133.564 154.777ZM137.022 148.237C137.806 148.237 138.386 148.409 138.762 148.753C139.138 149.097 139.326 149.645 139.326 150.397V154.777H138.558L138.354 153.865H138.306C138.122 154.097 137.93 154.293 137.73 154.453C137.538 154.605 137.314 154.717 137.058 154.789C136.81 154.861 136.506 154.897 136.146 154.897C135.762 154.897 135.414 154.829 135.102 154.693C134.798 154.557 134.558 154.349 134.382 154.069C134.206 153.781 134.118 153.421 134.118 152.989C134.118 152.349 134.37 151.857 134.874 151.513C135.378 151.161 136.154 150.969 137.202 150.937L138.294 150.901V150.517C138.294 149.981 138.178 149.609 137.946 149.401C137.714 149.193 137.386 149.089 136.962 149.089C136.626 149.089 136.306 149.141 136.002 149.245C135.698 149.341 135.414 149.453 135.15 149.581L134.826 148.789C135.106 148.637 135.438 148.509 135.822 148.405C136.206 148.293 136.606 148.237 137.022 148.237ZM137.334 151.669C136.534 151.701 135.978 151.829 135.666 152.053C135.362 152.277 135.21 152.593 135.21 153.001C135.21 153.361 135.318 153.625 135.534 153.793C135.758 153.961 136.042 154.045 136.386 154.045C136.93 154.045 137.382 153.897 137.742 153.601C138.102 153.297 138.282 152.833 138.282 152.209V151.633L137.334 151.669ZM145.117 148.345H146.269L143.521 151.441L146.497 154.777H145.273L142.369 151.513V154.777H141.313V148.345H142.369V151.465L145.117 148.345ZM155.79 149.965C155.79 150.365 155.67 150.677 155.43 150.901C155.19 151.125 154.882 151.277 154.506 151.357V151.405C154.906 151.461 155.254 151.605 155.55 151.837C155.846 152.061 155.994 152.413 155.994 152.893C155.994 153.165 155.942 153.417 155.838 153.649C155.742 153.881 155.59 154.081 155.382 154.249C155.174 154.417 154.906 154.549 154.578 154.645C154.25 154.733 153.854 154.777 153.39 154.777H150.618V148.345H153.378C153.834 148.345 154.242 148.397 154.602 148.501C154.97 148.597 155.258 148.765 155.466 149.005C155.682 149.237 155.79 149.557 155.79 149.965ZM154.902 152.893C154.902 152.525 154.762 152.261 154.482 152.101C154.202 151.941 153.79 151.861 153.246 151.861H151.674V153.925H153.27C153.798 153.925 154.202 153.849 154.482 153.697C154.762 153.537 154.902 153.269 154.902 152.893ZM154.722 150.097C154.722 149.793 154.61 149.573 154.386 149.437C154.17 149.293 153.814 149.221 153.318 149.221H151.674V150.985H153.126C153.646 150.985 154.042 150.913 154.314 150.769C154.586 150.625 154.722 150.401 154.722 150.097ZM157.532 154.777V148.345H158.588V150.985H160.256C160.816 150.985 161.276 151.053 161.636 151.189C161.996 151.325 162.264 151.529 162.44 151.801C162.616 152.065 162.704 152.401 162.704 152.809C162.704 153.209 162.616 153.557 162.44 153.853C162.272 154.149 162.004 154.377 161.636 154.537C161.276 154.697 160.8 154.777 160.208 154.777H157.532ZM160.112 153.925C160.568 153.925 160.94 153.849 161.228 153.697C161.516 153.537 161.66 153.261 161.66 152.869C161.66 152.477 161.528 152.213 161.264 152.077C161 151.933 160.62 151.861 160.124 151.861H158.588V153.925H160.112ZM163.772 154.777V148.345H164.828V154.777H163.772ZM166.536 150.913C166.536 149.977 166.628 149.181 166.812 148.525C167.004 147.861 167.296 147.333 167.688 146.941C168.088 146.541 168.6 146.273 169.224 146.137C169.744 146.025 170.252 145.925 170.748 145.837C171.244 145.749 171.708 145.669 172.14 145.597L172.32 146.521C172.112 146.553 171.88 146.593 171.624 146.641C171.368 146.681 171.108 146.725 170.844 146.773C170.58 146.813 170.324 146.857 170.076 146.905C169.836 146.945 169.624 146.985 169.44 147.025C169.176 147.081 168.94 147.177 168.732 147.313C168.524 147.441 168.344 147.617 168.192 147.841C168.048 148.065 167.932 148.341 167.844 148.669C167.756 148.997 167.704 149.385 167.688 149.833H167.76C167.872 149.681 168.024 149.525 168.216 149.365C168.416 149.205 168.652 149.069 168.924 148.957C169.204 148.845 169.52 148.789 169.872 148.789C170.432 148.789 170.896 148.913 171.264 149.161C171.64 149.401 171.92 149.737 172.104 150.169C172.296 150.601 172.392 151.105 172.392 151.681C172.392 152.393 172.268 152.989 172.02 153.469C171.772 153.949 171.428 154.309 170.988 154.549C170.548 154.781 170.036 154.897 169.452 154.897C169.012 154.897 168.612 154.813 168.252 154.645C167.892 154.469 167.584 154.213 167.328 153.877C167.072 153.541 166.876 153.125 166.74 152.629C166.604 152.133 166.536 151.561 166.536 150.913ZM169.536 154.021C169.888 154.021 170.192 153.949 170.448 153.805C170.712 153.661 170.916 153.425 171.06 153.097C171.204 152.769 171.276 152.333 171.276 151.789C171.276 151.133 171.152 150.617 170.904 150.241C170.664 149.857 170.264 149.665 169.704 149.665C169.352 149.665 169.032 149.745 168.744 149.905C168.456 150.057 168.216 150.233 168.024 150.433C167.832 150.633 167.696 150.801 167.616 150.937C167.616 151.329 167.644 151.709 167.7 152.077C167.756 152.445 167.852 152.777 167.988 153.073C168.132 153.361 168.328 153.593 168.576 153.769C168.832 153.937 169.152 154.021 169.536 154.021ZM177.115 148.225C177.907 148.225 178.543 148.501 179.023 149.053C179.511 149.605 179.755 150.437 179.755 151.549C179.755 152.277 179.643 152.893 179.419 153.397C179.203 153.893 178.895 154.269 178.495 154.525C178.103 154.773 177.639 154.897 177.103 154.897C176.775 154.897 176.483 154.853 176.227 154.765C175.971 154.677 175.751 154.565 175.567 154.429C175.391 154.285 175.239 154.129 175.111 153.961H175.039C175.055 154.097 175.071 154.269 175.087 154.477C175.103 154.685 175.111 154.865 175.111 155.017V157.657H174.055V148.345H174.919L175.063 149.221H175.111C175.239 149.037 175.391 148.869 175.567 148.717C175.751 148.565 175.967 148.445 176.215 148.357C176.471 148.269 176.771 148.225 177.115 148.225ZM176.923 149.113C176.491 149.113 176.143 149.197 175.879 149.365C175.615 149.525 175.423 149.769 175.303 150.097C175.183 150.425 175.119 150.841 175.111 151.345V151.549C175.111 152.077 175.167 152.525 175.279 152.893C175.391 153.261 175.579 153.541 175.843 153.733C176.115 153.925 176.483 154.021 176.947 154.021C177.339 154.021 177.659 153.913 177.907 153.697C178.163 153.481 178.351 153.189 178.471 152.821C178.599 152.445 178.663 152.017 178.663 151.537C178.663 150.801 178.519 150.213 178.231 149.773C177.951 149.333 177.515 149.113 176.923 149.113ZM183.874 148.237C184.658 148.237 185.238 148.409 185.614 148.753C185.99 149.097 186.178 149.645 186.178 150.397V154.777H185.41L185.206 153.865H185.158C184.974 154.097 184.782 154.293 184.582 154.453C184.39 154.605 184.166 154.717 183.91 154.789C183.662 154.861 183.358 154.897 182.998 154.897C182.614 154.897 182.266 154.829 181.954 154.693C181.65 154.557 181.41 154.349 181.234 154.069C181.058 153.781 180.97 153.421 180.97 152.989C180.97 152.349 181.222 151.857 181.726 151.513C182.23 151.161 183.006 150.969 184.054 150.937L185.146 150.901V150.517C185.146 149.981 185.03 149.609 184.798 149.401C184.566 149.193 184.238 149.089 183.814 149.089C183.478 149.089 183.158 149.141 182.854 149.245C182.55 149.341 182.266 149.453 182.002 149.581L181.678 148.789C181.958 148.637 182.29 148.509 182.674 148.405C183.058 148.293 183.458 148.237 183.874 148.237ZM184.186 151.669C183.386 151.701 182.83 151.829 182.518 152.053C182.214 152.277 182.062 152.593 182.062 153.001C182.062 153.361 182.17 153.625 182.386 153.793C182.61 153.961 182.894 154.045 183.238 154.045C183.782 154.045 184.234 153.897 184.594 153.601C184.954 153.297 185.134 152.833 185.134 152.209V151.633L184.186 151.669ZM192.605 149.233H190.505V154.777H189.461V149.233H187.385V148.345H192.605V149.233ZM196.836 150.985C197.396 150.985 197.86 151.053 198.228 151.189C198.596 151.325 198.872 151.529 199.056 151.801C199.248 152.065 199.344 152.401 199.344 152.809C199.344 153.209 199.252 153.557 199.068 153.853C198.892 154.149 198.616 154.377 198.24 154.537C197.864 154.697 197.38 154.777 196.788 154.777H193.872V148.345H194.928V150.985H196.836ZM198.288 152.869C198.288 152.477 198.148 152.213 197.868 152.077C197.596 151.933 197.212 151.861 196.716 151.861H194.928V153.925H196.74C197.188 153.925 197.556 153.845 197.844 153.685C198.14 153.525 198.288 153.253 198.288 152.869ZM209.542 151.549C209.542 152.085 209.47 152.561 209.326 152.977C209.19 153.385 208.99 153.733 208.726 154.021C208.47 154.309 208.154 154.529 207.778 154.681C207.41 154.825 206.998 154.897 206.542 154.897C206.118 154.897 205.726 154.825 205.366 154.681C205.006 154.529 204.694 154.309 204.43 154.021C204.166 153.733 203.958 153.385 203.806 152.977C203.662 152.561 203.59 152.085 203.59 151.549C203.59 150.837 203.71 150.237 203.95 149.749C204.19 149.253 204.534 148.877 204.982 148.621C205.43 148.357 205.962 148.225 206.578 148.225C207.162 148.225 207.674 148.357 208.114 148.621C208.562 148.877 208.91 149.253 209.158 149.749C209.414 150.237 209.542 150.837 209.542 151.549ZM204.682 151.549C204.682 152.053 204.746 152.493 204.874 152.869C205.01 153.237 205.218 153.521 205.498 153.721C205.778 153.921 206.134 154.021 206.566 154.021C206.998 154.021 207.354 153.921 207.634 153.721C207.914 153.521 208.118 153.237 208.246 152.869C208.382 152.493 208.45 152.053 208.45 151.549C208.45 151.037 208.382 150.601 208.246 150.241C208.11 149.881 207.902 149.605 207.622 149.413C207.35 149.213 206.994 149.113 206.554 149.113C205.898 149.113 205.422 149.329 205.126 149.761C204.83 150.193 204.682 150.789 204.682 151.549ZM216.651 148.345V154.777H215.595V149.245H212.271V154.777H211.215V148.345H216.651ZM223.144 149.233H221.044V154.777H220V149.233H217.924V148.345H223.144V149.233ZM225.407 152.269C225.407 152.341 225.403 152.445 225.395 152.581C225.395 152.709 225.391 152.849 225.383 153.001C225.375 153.145 225.367 153.285 225.359 153.421C225.351 153.549 225.343 153.653 225.335 153.733L228.779 148.345H230.075V154.777H229.091V150.985C229.091 150.857 229.091 150.689 229.091 150.481C229.099 150.273 229.107 150.069 229.115 149.869C229.123 149.661 229.131 149.505 229.139 149.401L225.719 154.777H224.411V148.345H225.407V152.269ZM239.022 148.345V154.777H238.074V150.673C238.074 150.505 238.078 150.329 238.086 150.145C238.102 149.961 238.118 149.781 238.134 149.605H238.098L235.998 154.777H235.11L233.07 149.605H233.034C233.05 149.781 233.058 149.961 233.058 150.145C233.066 150.329 233.07 150.517 233.07 150.709V154.777H232.122V148.345H233.526L235.554 153.517L237.618 148.345H239.022ZM243.511 148.237C244.295 148.237 244.875 148.409 245.251 148.753C245.627 149.097 245.815 149.645 245.815 150.397V154.777H245.047L244.843 153.865H244.795C244.611 154.097 244.419 154.293 244.219 154.453C244.027 154.605 243.803 154.717 243.547 154.789C243.299 154.861 242.995 154.897 242.635 154.897C242.251 154.897 241.903 154.829 241.591 154.693C241.287 154.557 241.047 154.349 240.871 154.069C240.695 153.781 240.607 153.421 240.607 152.989C240.607 152.349 240.859 151.857 241.363 151.513C241.867 151.161 242.643 150.969 243.691 150.937L244.783 150.901V150.517C244.783 149.981 244.667 149.609 244.435 149.401C244.203 149.193 243.875 149.089 243.451 149.089C243.115 149.089 242.795 149.141 242.491 149.245C242.187 149.341 241.903 149.453 241.639 149.581L241.315 148.789C241.595 148.637 241.927 148.509 242.311 148.405C242.695 148.293 243.095 148.237 243.511 148.237ZM243.823 151.669C243.023 151.701 242.467 151.829 242.155 152.053C241.851 152.277 241.699 152.593 241.699 153.001C241.699 153.361 241.807 153.625 242.023 153.793C242.247 153.961 242.531 154.045 242.875 154.045C243.419 154.045 243.871 153.897 244.231 153.601C244.591 153.297 244.771 152.833 244.771 152.209V151.633L243.823 151.669ZM252.697 154.777H251.629V149.221H249.733C249.653 150.237 249.553 151.105 249.433 151.825C249.313 152.537 249.161 153.117 248.977 153.565C248.793 154.013 248.573 154.341 248.317 154.549C248.061 154.757 247.761 154.861 247.417 154.861C247.313 154.861 247.209 154.853 247.105 154.837C247.009 154.829 246.929 154.809 246.865 154.777V153.985C246.913 154.001 246.965 154.013 247.021 154.021C247.077 154.029 247.133 154.033 247.189 154.033C247.365 154.033 247.525 153.961 247.669 153.817C247.813 153.673 247.941 153.453 248.053 153.157C248.173 152.861 248.281 152.489 248.377 152.041C248.473 151.585 248.557 151.049 248.629 150.433C248.701 149.817 248.765 149.121 248.821 148.345H252.697V154.777ZM257.703 150.985C258.263 150.985 258.727 151.053 259.095 151.189C259.463 151.325 259.739 151.529 259.923 151.801C260.115 152.065 260.211 152.401 260.211 152.809C260.211 153.209 260.119 153.557 259.935 153.853C259.759 154.149 259.483 154.377 259.107 154.537C258.731 154.697 258.247 154.777 257.655 154.777H254.739V148.345H255.795V150.985H257.703ZM259.155 152.869C259.155 152.477 259.015 152.213 258.735 152.077C258.463 151.933 258.079 151.861 257.583 151.861H255.795V153.925H257.607C258.055 153.925 258.423 153.845 258.711 153.685C259.007 153.525 259.155 153.253 259.155 152.869ZM262.92 148.345V151.021H266.412V148.345H267.468V154.777H266.412V151.909H262.92V154.777H261.864V148.345H262.92ZM269.504 154.777V148.345H270.56V150.985H272.228C272.788 150.985 273.248 151.053 273.608 151.189C273.968 151.325 274.236 151.529 274.412 151.801C274.588 152.065 274.676 152.401 274.676 152.809C274.676 153.209 274.588 153.557 274.412 153.853C274.244 154.149 273.976 154.377 273.608 154.537C273.248 154.697 272.772 154.777 272.18 154.777H269.504ZM272.084 153.925C272.54 153.925 272.912 153.849 273.2 153.697C273.488 153.537 273.632 153.261 273.632 152.869C273.632 152.477 273.5 152.213 273.236 152.077C272.972 151.933 272.592 151.861 272.096 151.861H270.56V153.925H272.084ZM275.744 154.777V148.345H276.8V154.777H275.744ZM281.328 148.225C281.88 148.225 282.352 148.345 282.744 148.585C283.144 148.825 283.448 149.165 283.656 149.605C283.872 150.037 283.98 150.545 283.98 151.129V151.765H279.576C279.592 152.493 279.776 153.049 280.128 153.433C280.488 153.809 280.988 153.997 281.628 153.997C282.036 153.997 282.396 153.961 282.708 153.889C283.028 153.809 283.356 153.697 283.692 153.553V154.477C283.364 154.621 283.04 154.725 282.72 154.789C282.4 154.861 282.02 154.897 281.58 154.897C280.972 154.897 280.432 154.773 279.96 154.525C279.496 154.277 279.132 153.909 278.868 153.421C278.612 152.925 278.484 152.321 278.484 151.609C278.484 150.905 278.6 150.301 278.832 149.797C279.072 149.293 279.404 148.905 279.828 148.633C280.26 148.361 280.76 148.225 281.328 148.225ZM281.316 149.089C280.812 149.089 280.412 149.253 280.116 149.581C279.828 149.901 279.656 150.349 279.6 150.925H282.876C282.876 150.557 282.82 150.237 282.708 149.965C282.596 149.693 282.424 149.481 282.192 149.329C281.968 149.169 281.676 149.089 281.316 149.089ZM294.163 151.549C294.163 152.085 294.091 152.561 293.947 152.977C293.811 153.385 293.611 153.733 293.347 154.021C293.091 154.309 292.775 154.529 292.399 154.681C292.031 154.825 291.619 154.897 291.163 154.897C290.739 154.897 290.347 154.825 289.987 154.681C289.627 154.529 289.315 154.309 289.051 154.021C288.787 153.733 288.579 153.385 288.427 152.977C288.283 152.561 288.211 152.085 288.211 151.549C288.211 150.837 288.331 150.237 288.571 149.749C288.811 149.253 289.155 148.877 289.603 148.621C290.051 148.357 290.583 148.225 291.199 148.225C291.783 148.225 292.295 148.357 292.735 148.621C293.183 148.877 293.531 149.253 293.779 149.749C294.035 150.237 294.163 150.837 294.163 151.549ZM289.303 151.549C289.303 152.053 289.367 152.493 289.495 152.869C289.631 153.237 289.839 153.521 290.119 153.721C290.399 153.921 290.755 154.021 291.187 154.021C291.619 154.021 291.975 153.921 292.255 153.721C292.535 153.521 292.739 153.237 292.867 152.869C293.003 152.493 293.071 152.053 293.071 151.549C293.071 151.037 293.003 150.601 292.867 150.241C292.731 149.881 292.523 149.605 292.243 149.413C291.971 149.213 291.615 149.113 291.175 149.113C290.519 149.113 290.043 149.329 289.747 149.761C289.451 150.193 289.303 150.789 289.303 151.549ZM301.272 148.345V154.777H300.216V149.245H296.892V154.777H295.836V148.345H301.272ZM309.673 157.009H308.641V154.777H303.325V148.345H304.381V153.889H307.705V148.345H308.761V153.901H309.673V157.009ZM311.903 152.269C311.903 152.341 311.899 152.445 311.891 152.581C311.891 152.709 311.887 152.849 311.879 153.001C311.871 153.145 311.863 153.285 311.855 153.421C311.847 153.549 311.839 153.653 311.831 153.733L315.275 148.345H316.571V154.777H315.587V150.985C315.587 150.857 315.587 150.689 315.587 150.481C315.595 150.273 315.603 150.069 315.611 149.869C315.619 149.661 315.627 149.505 315.635 149.401L312.215 154.777H310.907V148.345H311.903V152.269ZM319.614 152.269C319.614 152.341 319.61 152.445 319.602 152.581C319.602 152.709 319.598 152.849 319.59 153.001C319.582 153.145 319.574 153.285 319.566 153.421C319.558 153.549 319.55 153.653 319.542 153.733L322.986 148.345H324.282V154.777H323.298V150.985C323.298 150.857 323.298 150.689 323.298 150.481C323.306 150.273 323.314 150.069 323.322 149.869C323.33 149.661 323.338 149.505 323.346 149.401L319.926 154.777H318.618V148.345H319.614V152.269ZM330.889 148.357C330.889 148.645 330.845 148.905 330.757 149.137C330.669 149.369 330.529 149.593 330.337 149.809C330.153 150.017 329.917 150.237 329.629 150.469C329.301 150.733 329.061 150.969 328.909 151.177C328.765 151.385 328.693 151.641 328.693 151.945V152.521H327.673V151.945C327.673 151.609 327.717 151.333 327.805 151.117C327.893 150.893 328.017 150.697 328.177 150.529C328.345 150.353 328.537 150.169 328.753 149.977C328.961 149.801 329.149 149.629 329.317 149.461C329.485 149.293 329.617 149.121 329.713 148.945C329.817 148.761 329.869 148.565 329.869 148.357C329.869 147.917 329.733 147.589 329.461 147.373C329.189 147.157 328.817 147.049 328.345 147.049C328.025 147.049 327.749 147.113 327.517 147.241C327.285 147.369 327.105 147.557 326.977 147.805C326.857 148.053 326.793 148.357 326.785 148.717H325.777C325.769 148.197 325.877 147.749 326.101 147.373C326.325 146.989 326.633 146.693 327.025 146.485C327.425 146.277 327.877 146.173 328.381 146.173C328.901 146.173 329.345 146.269 329.713 146.461C330.089 146.645 330.377 146.901 330.577 147.229C330.785 147.549 330.889 147.925 330.889 148.357ZM327.529 153.457H328.837V154.777H327.529V153.457Z" fill="#A1A1A1"/>
</svg>
