<svg width="138" height="28" viewBox="0 0 138 28" fill="none" xmlns="http://www.w3.org/2000/svg">
<path fill-rule="evenodd" clip-rule="evenodd" d="M17.7834 0V1.72363L27.7863 18.3164L37.7883 1.72363V0H40.4475V1.82422L55.01 26.2891C55.3673 26.7201 55.5808 27.1973 55.5725 27.7236H50.7834C50.7873 27.716 51.3924 26.4958 48.3108 25.2949C48.3072 25.2918 47.6024 23.1413 47.59 23.1035C47.6254 23.1098 50.5927 23.641 52.8977 24.7725L41.5705 5.63184L47.9426 25.1465L46.6828 24.6924L40.4475 5.41602V21.9502C41.9893 22.1362 43.7415 22.3858 45.6955 22.7207L46.2707 24.5801C46.2707 24.5801 37.1026 22.7051 32.4856 22.8613L32.8899 21.4111C32.9206 21.4107 34.6522 21.3865 37.7883 21.668V5.13867L32.0656 22.8525L30.9455 22.8203L36.509 5.70898L28.3234 19.2041L29.5881 21.3018C30.4758 21.3135 31.0253 21.3325 31.0402 21.333C31.0321 21.3595 30.5862 22.8144 30.5676 22.8135C27.9057 22.5968 24.9231 22.7832 24.9231 22.7832L24.4699 21.3789C24.9818 21.3568 25.4846 21.3406 25.9699 21.3271L27.2502 19.2041L19.0559 5.69922L24.6008 22.7842L23.507 22.8311L17.7834 5.1377V21.668C20.9407 21.3846 22.673 21.41 22.6809 21.4102L23.0881 22.8604C18.4697 22.7043 9.31661 24.5801 9.31661 24.5801L9.87618 22.7207C11.6193 22.4208 13.3695 22.163 15.1252 21.9492V5.41602L8.88888 24.6924L7.62228 25.1719L14.0061 5.63086L2.67501 24.7734C4.99314 23.6334 7.98067 23.1025 7.98067 23.1025C7.98067 23.1025 7.2704 25.2729 7.26095 25.2939C4.17028 26.4986 4.78927 27.7236 4.78927 27.7236H0.000205035C-0.00755391 27.1973 0.205346 26.7201 0.562705 26.2891L15.1252 1.8252V0H17.7834ZM62.2102 23.5088H60.2258V27.082H59.2258V23.5088H57.2492V22.7334H62.2102V23.5088ZM68.2141 23.4746H64.8117V24.4443H66.7961V25.1855H64.8117V26.2656H68.2551V27.082H63.8117V22.7334H68.2141V23.4746ZM74.0246 22.7334C74.8329 22.7334 75.0919 22.944 75.092 23.7617V24.1748L74.091 24.335V23.5088H71.3899V26.2656H74.091V25.3291L75.092 25.54V26.0547C75.092 26.8714 74.833 27.082 74.0246 27.082H71.4572C70.6481 27.082 70.3899 26.8715 70.3899 26.0547V23.7617C70.3899 22.9442 70.6477 22.7335 71.4563 22.7334H74.0246ZM78.5354 24.4189H81.6633V22.7334H82.6721V27.082H81.6633V25.2119H78.5354V27.082H77.5354V22.7334H78.5354V24.4189ZM88.9494 25.2959C89.124 25.4394 89.2917 25.5905 89.4416 25.7676C89.4163 25.4056 89.3996 25.1525 89.3996 25.0176V22.7334H90.301V27.082H89.6164L86.4563 24.3936C86.3316 24.284 86.2144 24.1746 86.0979 24.04C86.131 24.3775 86.1399 24.6048 86.1399 24.7314V27.082H85.2395V22.7334H85.9231L88.9494 25.2959ZM96.7238 22.7334C97.5327 22.7334 97.7902 22.9441 97.7902 23.7617V26.0547C97.7902 26.8713 97.5327 27.082 96.7238 27.082H93.5549C92.7459 27.082 92.4875 26.8715 92.4875 26.0547V23.7617C92.4876 22.944 92.746 22.7334 93.5549 22.7334H96.7238ZM101.276 26.2656H104.503V27.082H100.276V22.7334H101.276V26.2656ZM110.334 22.7334C111.143 22.7334 111.401 22.944 111.402 23.7617V26.0547C111.402 26.8714 111.143 27.082 110.334 27.082H107.166C106.357 27.082 106.099 26.8715 106.099 26.0547V23.7617C106.099 22.944 106.357 22.7334 107.166 22.7334H110.334ZM117.83 22.7334C118.614 22.7334 118.898 22.9359 118.898 23.7197V23.8203L117.922 23.998V23.5088H114.795V26.2656H117.922V25.2959H116.287V24.5547H118.898V26.0547C118.898 26.8714 118.639 27.082 117.83 27.082H114.863C114.054 27.082 113.795 26.8715 113.795 26.0547V23.7617C113.795 22.944 114.054 22.7334 114.863 22.7334H117.83ZM122.391 22.7334V27.082H121.391V22.7334H122.391ZM129.154 23.4746H125.751V24.4443H127.736V25.1855H125.751V26.2656H129.195V27.082H124.751V22.7334H129.154V23.4746ZM134.965 22.7334C135.732 22.7334 136.032 22.9365 136.032 23.6865V23.7783L135.149 23.9893V23.4922H132.33V24.4277H135.015C135.824 24.4278 136.09 24.638 136.09 25.4551V26.0547C136.09 26.8713 135.824 27.082 135.015 27.082H132.355C131.546 27.082 131.28 26.8715 131.279 26.0547V25.9365L132.164 25.751V26.2656H135.207V25.2705H132.522C131.714 25.2705 131.454 25.0595 131.454 24.2422V23.7627C131.454 22.9448 131.714 22.7334 132.522 22.7334H134.965ZM93.4875 26.2656H96.7902V23.5088H93.4875V26.2656ZM107.099 26.2656H110.402V23.5088H107.099V26.2656ZM27.0481 21.3037C27.5765 21.2962 28.0708 21.2949 28.5188 21.2949L27.7863 20.0869L27.0481 21.3037ZM79.969 7.74707C81.8691 7.74725 83.342 9.36026 83.342 11.0361C83.3419 11.4546 83.2136 11.6853 82.7658 11.7686C82.4016 11.8109 79.7762 12.0199 77.5139 12.1035C77.578 14.5746 78.9869 15.7274 80.5022 15.7275C81.3348 15.7275 82.1463 15.4344 82.8938 14.7637L83.257 15.2666C81.9548 17.047 80.3533 17.4658 79.5422 17.4658C76.7879 17.4657 75.2297 15.3919 75.2297 12.9834C75.2297 11.4336 75.8489 10.1347 76.7453 9.25488C77.6638 8.31262 78.8374 7.74717 79.9475 7.74707H79.969ZM99.1184 7.74707C99.9084 7.74707 100.549 7.93565 101.083 8.35449C101.959 9.00358 102.15 9.88384 102.15 11.0361V14.6377C102.15 15.6016 102.492 15.873 102.855 15.873C103.11 15.873 103.389 15.7905 103.602 15.6855L103.816 16.3135L101.681 17.4658C101.169 17.4658 100.741 17.2766 100.486 17.0469C100.187 16.7747 100.037 16.502 99.9514 16.209C99.1188 16.754 98.0943 17.4657 97.6027 17.4658C95.8952 17.4658 94.8276 16.1258 94.8274 14.8271C94.8274 13.7586 95.3621 13.2138 96.4934 12.7949C97.753 12.3546 99.3754 11.831 99.8664 11.4336V10.8887C99.8664 9.50675 99.2896 8.73148 98.3928 8.73145C98.0518 8.73145 97.7951 8.85704 97.5813 9.1084C97.3465 9.40151 97.1548 9.88396 96.9631 10.5332C96.8341 11.0144 96.5566 11.1611 96.1731 11.1611C95.682 11.1611 94.9983 10.7004 94.9983 10.1768C94.9983 9.82078 95.2548 9.5693 95.7033 9.23438C96.4509 8.7312 97.9021 7.97764 99.1184 7.74707ZM120.119 7.74707C122.958 7.74707 124.88 9.92596 124.88 12.4395C124.88 15.8106 122.404 17.4656 120.034 17.4658C116.832 17.4658 115.146 15.1194 115.146 12.8154C115.146 9.42252 117.856 7.74718 120.098 7.74707H120.119ZM66.2629 13.2344L70.7248 3.59961H74.7815V4.27051C73.0096 4.43819 72.903 4.56339 72.9455 6.44824L73.1594 14.1982C73.2019 16.2297 73.2868 16.3558 75.0158 16.5234V17.2139H68.9533V16.5234C70.6187 16.3768 70.7045 16.2299 70.6828 14.1982L70.6399 5.9668H70.5549L65.6447 17.0684H65.1106L60.6057 6.19727H60.5422L60.2649 11.8311C60.1791 13.5699 60.1792 14.5336 60.2434 15.2666C60.3076 16.2088 60.7556 16.3973 62.1858 16.5234V17.2139H57.1047V16.5234C58.321 16.4189 58.7276 16.0834 58.8772 15.2871C59.005 14.6174 59.154 13.5903 59.3039 11.3916L59.6242 7.16113C59.7948 4.66882 59.6451 4.43819 57.7883 4.27051V3.59961H61.8654L66.2629 13.2344ZM87.4836 14.9521C87.4836 16.3555 87.6334 16.4599 88.9572 16.5859V17.2139H83.6838V16.5859C84.9861 16.4187 85.1359 16.3136 85.1359 14.9521V5.76074C85.1359 4.44166 85.029 4.39907 83.7697 4.25293V3.6875C84.9655 3.56206 86.4588 3.24731 87.4836 2.9541V14.9521ZM92.9914 14.9521C92.9914 16.3554 93.1409 16.4599 94.4641 16.5859V17.2139H89.1916V16.5859C90.4938 16.4187 90.6438 16.3136 90.6438 14.9521V5.76074C90.6438 4.44148 90.5361 3.87176 89.2766 3.72559V3.16016C90.4725 3.03473 91.9666 2.72002 92.9914 2.42676V14.9521ZM108.021 9.29688C108.448 9.00364 108.896 8.66817 109.387 8.35449C110.006 7.95634 110.476 7.74716 111.095 7.74707C112.802 7.74707 113.871 8.96208 113.871 11.0361V15.0361C113.871 16.3765 113.999 16.4392 115.152 16.5859V17.2139H110.369V16.5859C111.394 16.4598 111.523 16.3556 111.523 14.8896V11.3496C111.523 9.86242 110.881 9.23438 109.878 9.23438C109.216 9.23445 108.619 9.56938 108.021 10.0303V15.0361C108.021 16.3765 108.149 16.4599 109.153 16.5859V17.2139H104.199V16.5859C105.565 16.4187 105.672 16.3765 105.672 14.9736V10.6377C105.672 9.35982 105.565 9.2759 104.477 9.06641V8.52246C105.608 8.35492 106.869 8.08166 108.021 7.70508V9.29688ZM129.854 8.62695C129.064 8.77329 128.957 8.96194 129.298 9.46484L130.408 11.2031C130.856 10.5748 131.22 9.9676 131.519 9.46484C131.86 8.92025 131.732 8.77342 130.857 8.62695V7.99902H134.764V8.62695C133.547 8.79389 133.312 8.89899 132.543 9.69531C132.074 10.1974 131.582 10.8886 130.857 11.873L132.928 15.0566C133.654 16.166 134.08 16.4392 135.148 16.5859V17.2139H130.11V16.5859C130.942 16.4598 131.07 16.2717 130.707 15.665L129.426 13.6123C129 14.2404 128.572 14.9527 128.231 15.5391C127.847 16.1884 127.954 16.4187 128.893 16.5859V17.2139H124.879V16.5859C126.096 16.397 126.438 16.1663 127.228 15.2451C127.782 14.617 128.337 13.8203 128.978 12.9619L127.121 9.98828C126.481 8.98261 126.245 8.79389 125.092 8.62695V7.99902H129.854V8.62695ZM119.799 8.52246C118.774 8.52248 117.814 9.71602 117.814 12.083C117.814 14.68 118.774 16.6904 120.269 16.6904C121.272 16.6904 122.211 16.0203 122.211 13.0039C122.211 10.2819 121.357 8.52278 119.821 8.52246H119.799ZM98.4143 12.9414C97.6885 13.2768 97.3039 13.6748 97.3039 14.4072C97.3039 15.5383 98.1149 15.9988 98.6701 15.999C99.0755 15.999 99.5037 15.8108 99.8664 15.5176V12.209C99.4612 12.4177 98.8628 12.7109 98.4143 12.9414ZM79.5002 8.56445C78.6248 8.56445 77.813 9.50649 77.6203 11.1611C78.6024 11.1611 79.543 11.1404 80.5461 11.0986C80.8873 11.0986 81.0148 11.014 81.0149 10.6797C81.0149 9.61116 80.4597 8.56445 79.5207 8.56445H79.5002ZM136.115 7.96094C136.82 7.96096 137.376 8.46895 137.376 9.12012C137.376 9.77942 136.82 10.2939 136.108 10.2939C135.403 10.2939 134.838 9.77947 134.838 9.12012C134.838 8.46894 135.403 7.96094 136.108 7.96094H136.115ZM136.099 8.16504C135.534 8.16511 135.101 8.59754 135.101 9.12012C135.101 9.65807 135.535 10.082 136.115 10.082C136.681 10.0894 137.107 9.65742 137.107 9.12695C137.106 8.59698 136.681 8.16519 136.108 8.16504H136.099ZM136.082 8.50684C136.303 8.50684 136.41 8.54384 136.5 8.60449C136.574 8.6497 136.632 8.7482 136.632 8.8623C136.632 9.01342 136.509 9.10515 136.369 9.15039V9.16504C136.492 9.20327 136.55 9.30206 136.591 9.46094C136.632 9.64241 136.656 9.71844 136.689 9.76367H136.451C136.411 9.71844 136.377 9.61275 136.345 9.44629C136.312 9.30966 136.222 9.24805 136.033 9.24805H135.878V9.76367H135.649V8.54395C135.792 8.51813 135.937 8.50595 136.082 8.50684ZM136.067 8.68066C136.004 8.67964 135.94 8.68411 135.878 8.69531V9.07422H136.042C136.222 9.07421 136.386 9.02884 136.386 8.88477C136.386 8.76362 136.304 8.68074 136.067 8.68066Z" fill="#A1A1A1"/>
</svg>
