<svg width="74" height="22" viewBox="0 0 74 22" fill="none" xmlns="http://www.w3.org/2000/svg">
<path d="M73.072 8.25113L70.4737 10.804V19.9768C70.4737 20.7517 69.8455 21.3799 69.0705 21.3799H58.2921C57.5172 21.3799 56.889 20.7517 56.889 19.9768V18.5992L61.8122 13.6759V18.5992H65.8238V9.66431L73.072 2.87195V8.25113ZM13.429 6.14195H8.88373V18.6205H4.5865V6.14195H0V2.87773H13.429V6.14195ZM20.8988 2.87773C21.556 2.87773 22.1251 3.33392 22.2682 3.97537L24.3425 13.2738C24.3608 13.3554 24.4772 13.3549 24.4948 13.2732L26.4953 3.98542C26.6345 3.33917 27.2059 2.87773 27.867 2.87773H32.0479C32.7971 2.87775 33.4141 3.4663 33.4495 4.21463L34.1301 18.6205H30.0807L29.4478 6.67497C29.4431 6.58525 29.3153 6.57342 29.2942 6.66074L27.2825 14.9852C27.1303 15.615 26.5666 16.0587 25.9186 16.0587H23.1014C22.4657 16.0587 21.9094 15.6314 21.7456 15.0171L19.5117 6.6398C19.4887 6.55343 19.362 6.56746 19.3585 6.65678L18.8831 18.6205H14.9164L15.5211 4.22202C15.5526 3.47066 16.1709 2.87775 16.9229 2.87773H20.8988ZM40.8202 13.198L46.1646 2.87773H50.4086V18.6205H46.4266V8.11563L40.8202 18.6205H36.7857V2.87773H40.8202V13.198ZM69.0705 0C69.8455 1.86427e-05 70.4737 0.628213 70.4737 1.40313V2.87195L65.8238 6.92908V2.87195H61.8122V11.1231L54.0627 18.5992V13.3568L56.889 10.804V1.40313C56.889 0.628201 57.5172 0 58.2921 0H69.0705Z" fill="#A1A1A1"/>
</svg>
