<svg width="112" height="19" viewBox="0 0 112 19" fill="none" xmlns="http://www.w3.org/2000/svg">
<path fill-rule="evenodd" clip-rule="evenodd" d="M75.9305 6.8457H71.3637L71.3398 17.2864H75.9066C76.9401 17.3072 77.9641 17.0842 78.8951 16.6357C79.7304 16.2325 80.4299 15.5956 80.9092 14.8019C81.3973 13.9742 81.6464 13.0273 81.6269 12.0667C81.6534 11.1079 81.4137 10.1611 80.9331 9.33146C80.4538 8.53773 79.7537 7.90086 78.919 7.49833C77.988 7.04918 76.964 6.8268 75.9305 6.84759V6.84633V6.8457ZM77.8673 15.2019C77.2363 15.5055 76.5419 15.6574 75.8412 15.6441L73.3364 15.68V8.51253H75.8714C76.5727 8.49616 77.2672 8.64797 77.8974 8.95476C78.4573 9.22878 78.9234 9.66344 79.236 10.2033C79.56 10.7791 79.7229 11.4304 79.7078 12.0906C79.7229 12.7508 79.56 13.4028 79.236 13.9779C78.9121 14.5134 78.4346 14.9392 77.8666 15.2025L77.8673 15.2019ZM84.6526 14.868H89.8527L90.9227 17.287H92.9488L88.2323 6.84633H86.3258L81.6213 17.287H83.6241L84.6519 14.868H84.6526ZM87.2888 8.81743L89.2551 13.3807H85.3099L87.2882 8.81743H87.2888ZM95.485 8.4886H92.0235V6.8457H100.888V8.4886H97.4262V17.2864H95.4838V8.4886H95.4844H95.485ZM102.915 14.868H108.139L109.185 17.287H111.211L106.495 6.84633H104.588L99.8901 17.287H101.887L102.914 14.868H102.915ZM105.454 8.81743L107.427 13.3807H103.47L105.454 8.81743Z" fill="#A1A1A1"/>
<path d="M23.3128 14.8674H18.0881L17.0603 17.2864H15.0581L19.7626 6.8457H21.6692L26.3856 17.2864H24.3595L23.3134 14.8674H23.3128ZM22.6731 13.3801L20.7005 8.8168L18.7461 13.3801H22.6731Z" fill="#A1A1A1"/>
<path d="M34.2927 17.2877L32.1589 14.23C32.0256 14.2376 31.8922 14.2376 31.7589 14.23H29.4038V17.2764H27.4614V6.84768H31.7596C32.5792 6.82626 33.3944 6.97934 34.1511 7.29557C34.7757 7.57211 35.3035 8.02756 35.669 8.60396C36.0382 9.19863 36.2257 9.88779 36.2074 10.587C36.22 11.3071 36.0112 12.0132 35.6092 12.6117C35.2047 13.1969 34.6279 13.641 33.9592 13.8842L36.3508 17.3129L34.2945 17.289H34.2939L34.2927 17.2877ZM33.5938 9.02728C33.0327 8.63294 32.3533 8.4427 31.6689 8.48931H29.4038V12.6709H31.6689C32.3546 12.7206 33.0352 12.5279 33.5938 12.1272C33.814 11.9383 33.9875 11.7001 34.102 11.433C34.2158 11.1659 34.2668 10.8762 34.2517 10.5864C34.2725 10.2935 34.224 9.99866 34.1095 9.72841C33.9951 9.45754 33.819 9.21753 33.5944 9.02791L33.5938 9.02728Z" fill="#A1A1A1"/>
<path d="M46.0415 15.6618V17.2864H38.2051V6.8457H45.8622V8.47033H40.1475V11.1879H45.1866V12.7829H40.1475V15.6618H46.0415Z" fill="#A1A1A1"/>
<path d="M57.3267 6.8457V17.2864H55.7308L49.9746 10.2146V17.2864H48.0498V6.8457H49.6456L55.4019 13.9175V6.8457H57.3267Z" fill="#A1A1A1"/>
<path d="M66.9559 14.8674H61.7319L60.7041 17.2864H58.7075L63.3699 6.8457H65.2827L69.9929 17.2864H67.9668L66.9566 14.8674H66.9559ZM66.298 13.3801L64.3254 8.8168L62.371 13.3801H66.298Z" fill="#A1A1A1"/>
<path d="M16.5767 2.47757C17.2938 2.76609 18.2323 3.25051 18.6613 3.92392H20.3452C19.9124 2.80262 18.7135 1.76509 17.1189 1.13577C15.2614 0.403781 12.7925 0 10.1682 0C7.5439 0 5.03599 0.403151 3.2181 1.13577C1.08256 1.99628 0 3.11506 0 4.46125V14.2159C0 15.6075 1.08256 16.7496 3.2181 17.6101C5.03599 18.3427 7.50427 18.7459 10.1682 18.7459C10.4425 18.7459 10.7236 18.7415 11.0048 18.732L11.6709 17.2447C11.1633 17.2812 10.6582 17.2995 10.1682 17.2995C7.92698 17.2995 5.65181 16.9335 3.76158 16.2696C2.5853 15.8563 1.3826 15.3032 1.3826 14.3426V13.4361L1.48262 13.5085C2.01037 13.8896 2.66518 14.2474 3.27974 14.4906C5.09071 15.2075 7.53698 15.6018 10.1682 15.6018C10.9413 15.6018 11.7099 15.5672 12.4522 15.4985L13.1485 13.9432C12.1672 14.0843 11.1652 14.1548 10.1682 14.1548C7.92698 14.1548 5.65181 13.7888 3.76158 13.1249C2.5853 12.7116 1.3826 12.1585 1.3826 11.1979V10.2914L1.48262 10.3638C2.01037 10.7449 2.66518 11.1028 3.27974 11.3459C5.09071 12.0628 7.53698 12.4571 10.1682 12.4571C11.486 12.4571 12.7566 12.3589 13.9442 12.1661L14.6821 10.5175C13.2448 10.8401 11.6867 11.0108 10.1682 11.0108C7.92698 11.0108 5.65181 10.6448 3.76158 9.9802C2.5853 9.56695 1.3826 9.01386 1.3826 8.0532V7.14671L1.48262 7.21915C2.01037 7.60027 2.66518 7.95807 3.27974 8.20123C5.09071 8.91811 7.53698 9.31245 10.1682 9.31245C12.0892 9.31245 13.9304 9.10079 15.496 8.70078L16.2798 6.94953C14.6601 7.54168 12.4981 7.86673 10.1688 7.86673C7.68543 7.86673 5.40962 7.50073 3.75969 6.83614C2.89541 6.48778 1.44613 5.74194 1.44613 4.6578C1.44613 3.57367 2.89604 2.82844 3.75969 2.47945C3.83958 2.44732 3.92324 2.41457 4.01067 2.38244L4.06792 2.36103L4.09056 2.41833C4.13774 2.53676 5.25048 5.32303 5.34546 5.57879C5.44862 5.85722 5.59896 5.88618 5.82352 5.84209C6.02796 5.80177 7.88923 5.44775 10.1682 5.44775C10.3607 5.44775 10.5607 5.45088 10.7651 5.45655L10.8224 5.45781C12.3264 5.50128 13.7499 5.69218 14.5129 5.84273C14.7368 5.88683 14.8872 5.85784 14.9909 5.57941C15.062 5.38727 16.198 2.54056 16.2458 2.41898L16.2685 2.36164L16.3264 2.38308C16.4138 2.41584 16.4981 2.44794 16.5773 2.48007V2.47881L16.5767 2.47757ZM9.44356 4.01085L9.38254 4.01273C8.31634 4.04926 7.30109 4.16139 6.44625 4.33714L6.39467 4.34788L5.44925 1.9503L5.52033 1.93391C6.66704 1.66745 8.00183 1.50302 9.37877 1.45893L9.44356 1.45705V4.01085ZM14.8557 2.02588L13.9398 4.34788L13.8883 4.33714C13.0334 4.16076 12.0182 4.04926 10.9526 4.01273L10.8916 4.01085V1.45705L10.9564 1.45893C12.3346 1.50302 13.6681 1.66682 14.8148 1.93391L14.8966 1.95283L14.8557 2.02588Z" fill="#A1A1A1"/>
</svg>
