<svg width="530" height="206" viewBox="0 0 530 206" fill="none" xmlns="http://www.w3.org/2000/svg">
<path d="M245.875 97.6787C287.959 93.0172 326.747 73.7948 374.093 40.8534C387.536 31.5001 453.003 24.3825 497.958 29.9767" stroke="#00B6CC" stroke-width="2"/>
<path d="M245.199 108.735C287.283 113.397 326.071 132.619 373.417 165.561C386.86 174.914 452.328 182.032 497.283 176.437" stroke="#FF00E6" stroke-width="2"/>
<line x1="268.004" y1="102.777" x2="497.957" y2="102.777" stroke="#00FF66" stroke-width="2"/>
<rect x="144.5" y="3.5" width="251" height="199" rx="7.5" stroke="#888888" stroke-opacity="0.5"/>
<path d="M336 3H388C392.418 3 396 6.58172 396 11V195C396 199.418 392.418 203 388 203H336V3Z" fill="black" fill-opacity="0.58"/>
<path d="M388 3.5C392.142 3.5 395.5 6.85786 395.5 11V195C395.5 199.142 392.142 202.5 388 202.5H336.5V3.5H388Z" stroke="#888888" stroke-opacity="0.5"/>
<path d="M361.917 177.689H371.083C372.691 177.689 374 176.381 374 174.772V166.051C374 165.767 373.767 165.534 373.483 165.534H370.379V164.758C370.379 162.619 368.639 160.879 366.5 160.879C364.361 160.879 362.621 162.619 362.621 164.758V165.534H359.517C359.233 165.534 359 165.767 359 166.051V174.772C359 176.381 360.309 177.689 361.917 177.689ZM363.655 164.758C363.655 163.188 364.93 161.913 366.5 161.913C368.07 161.913 369.345 163.188 369.345 164.758V165.534H363.655V164.758ZM360.034 166.569H362.621V166.859C362.621 167.144 362.853 167.377 363.138 167.377C363.422 167.377 363.655 167.144 363.655 166.859V166.569H369.345V166.859C369.345 167.144 369.578 167.377 369.862 167.377C370.147 167.377 370.379 167.144 370.379 166.859V166.569H372.966V174.772C372.966 175.809 372.12 176.655 371.083 176.655H361.917C360.88 176.655 360.034 175.809 360.034 174.772V166.569Z" fill="#FF00E5"/>
<g filter="url(#filter0_f_927_2325)">
<path d="M361.917 111.748H371.083C372.691 111.748 374 110.439 374 108.831V100.11C374 99.8254 373.767 99.5927 373.483 99.5927H370.379V98.8168C370.379 96.678 368.639 94.9375 366.5 94.9375C364.361 94.9375 362.621 96.678 362.621 98.8168V99.5927H359.517C359.233 99.5927 359 99.8254 359 100.11V108.831C359 110.439 360.309 111.748 361.917 111.748ZM363.655 98.8168C363.655 97.247 364.93 95.972 366.5 95.972C368.07 95.972 369.345 97.247 369.345 98.8168V99.5927H363.655V98.8168ZM360.034 100.627H362.621V100.918C362.621 101.202 362.853 101.435 363.138 101.435C363.422 101.435 363.655 101.202 363.655 100.918V100.627H369.345V100.918C369.345 101.202 369.578 101.435 369.862 101.435C370.147 101.435 370.379 101.202 370.379 100.918V100.627H372.966V108.831C372.966 109.868 372.12 110.713 371.083 110.713H361.917C360.88 110.713 360.034 109.868 360.034 108.831V100.627Z" fill="#00FF66"/>
<path d="M366.5 89.9375C369.899 89.9375 372.853 91.8529 374.345 94.6611C375.212 94.7974 376.012 95.136 376.695 95.627H377.966V96.8965C378.616 97.8017 379 98.9114 379 100.11V108.831C379 113.201 375.453 116.748 371.083 116.748H361.917C357.547 116.748 354 113.201 354 108.831V100.11C354 98.9114 354.384 97.8017 355.034 96.8965V95.627H356.305C356.988 95.136 357.788 94.7974 358.655 94.6611C360.147 91.8529 363.101 89.9375 366.5 89.9375ZM366.012 105.627C365.963 105.657 365.914 105.685 365.864 105.713H367.136C367.086 105.685 367.037 105.657 366.988 105.627H366.012Z" stroke="#00FF66" stroke-width="10"/>
</g>
<g filter="url(#filter1_f_927_2325)">
<path d="M361.917 111.748H371.083C372.691 111.748 374 110.439 374 108.831V100.11C374 99.8254 373.767 99.5927 373.483 99.5927H370.379V98.8168C370.379 96.678 368.639 94.9375 366.5 94.9375C364.361 94.9375 362.621 96.678 362.621 98.8168V99.5927H359.517C359.233 99.5927 359 99.8254 359 100.11V108.831C359 110.439 360.309 111.748 361.917 111.748ZM363.655 98.8168C363.655 97.247 364.93 95.972 366.5 95.972C368.07 95.972 369.345 97.247 369.345 98.8168V99.5927H363.655V98.8168ZM360.034 100.627H362.621V100.918C362.621 101.202 362.853 101.435 363.138 101.435C363.422 101.435 363.655 101.202 363.655 100.918V100.627H369.345V100.918C369.345 101.202 369.578 101.435 369.862 101.435C370.147 101.435 370.379 101.202 370.379 100.918V100.627H372.966V108.831C372.966 109.868 372.12 110.713 371.083 110.713H361.917C360.88 110.713 360.034 109.868 360.034 108.831V100.627Z" fill="#00FF66"/>
<path d="M366.5 94.4375C368.915 94.4375 370.879 96.4017 370.879 98.8164V99.0928H373.482C374.043 99.0928 374.5 99.5497 374.5 100.11V108.831C374.5 110.716 372.968 112.248 371.083 112.248H361.917C360.032 112.248 358.5 110.716 358.5 108.831V100.11C358.5 99.5497 358.957 99.0928 359.518 99.0928H362.121V98.8164C362.121 96.4017 364.085 94.4375 366.5 94.4375ZM360.534 108.831C360.534 109.592 361.156 110.213 361.917 110.213H371.083C371.844 110.213 372.466 109.592 372.466 108.831V101.127H370.857C370.761 101.588 370.351 101.935 369.862 101.936C369.373 101.936 368.963 101.588 368.866 101.127H364.134C364.037 101.588 363.627 101.936 363.138 101.936C362.649 101.935 362.239 101.588 362.143 101.127H360.534V108.831ZM366.5 96.4717C365.206 96.4717 364.155 97.5229 364.155 98.8164V99.0928H368.845V98.8164C368.845 97.5229 367.794 96.4717 366.5 96.4717Z" stroke="#00FF66"/>
</g>
<path d="M361.917 111.748H371.083C372.691 111.748 374 110.439 374 108.831V100.11C374 99.8254 373.767 99.5927 373.483 99.5927H370.379V98.8168C370.379 96.678 368.639 94.9375 366.5 94.9375C364.361 94.9375 362.621 96.678 362.621 98.8168V99.5927H359.517C359.233 99.5927 359 99.8254 359 100.11V108.831C359 110.439 360.309 111.748 361.917 111.748ZM363.655 98.8168C363.655 97.247 364.93 95.972 366.5 95.972C368.07 95.972 369.345 97.247 369.345 98.8168V99.5927H363.655V98.8168ZM360.034 100.627H362.621V100.918C362.621 101.202 362.853 101.435 363.138 101.435C363.422 101.435 363.655 101.202 363.655 100.918V100.627H369.345V100.918C369.345 101.202 369.578 101.435 369.862 101.435C370.147 101.435 370.379 101.202 370.379 100.918V100.627H372.966V108.831C372.966 109.868 372.12 110.713 371.083 110.713H361.917C360.88 110.713 360.034 109.868 360.034 108.831V100.627Z" fill="white"/>
<path d="M361.917 43.8103H371.083C372.691 43.8103 374 42.5017 374 40.8931V32.1724C374 31.8879 373.767 31.6552 373.483 31.6552H370.379V30.8793C370.379 28.7405 368.639 27 366.5 27C364.361 27 362.621 28.7405 362.621 30.8793V31.6552H359.517C359.233 31.6552 359 31.8879 359 32.1724V40.8931C359 42.5017 360.309 43.8103 361.917 43.8103ZM363.655 30.8793C363.655 29.3095 364.93 28.0345 366.5 28.0345C368.07 28.0345 369.345 29.3095 369.345 30.8793V31.6552H363.655V30.8793ZM360.034 32.6897H362.621V32.9804C362.621 33.2649 362.853 33.4977 363.138 33.4977C363.422 33.4977 363.655 33.2649 363.655 32.9804V32.6897H369.345V32.9804C369.345 33.2649 369.578 33.4977 369.862 33.4977C370.147 33.4977 370.379 33.2649 370.379 32.9804V32.6897H372.966V40.8931C372.966 41.9302 372.12 42.7759 371.083 42.7759H361.917C360.88 42.7759 360.034 41.9302 360.034 40.8931V32.6897Z" fill="#00B6CC"/>
<circle cx="501.703" cy="28" r="28" fill="#00B6CC"/>
<path d="M511.896 19H491.51C490.829 19 490.275 19.5539 490.275 20.2348V32.5742C490.275 33.255 490.829 33.809 491.51 33.809H498.456C498.354 34.5977 498.136 35.3241 497.83 35.8896H495.569C495.263 35.8896 495.014 36.1382 495.014 36.4448C495.014 36.7514 495.263 37 495.569 37H507.837C508.143 37 508.392 36.7514 508.392 36.4448C508.392 36.1382 508.143 35.8896 507.837 35.8896H505.503C505.197 35.3241 504.979 34.5977 504.877 33.809H511.896C512.577 33.809 513.131 33.255 513.131 32.5742V20.2348C513.131 19.5539 512.577 19 511.896 19ZM504.276 35.8896H499.057C499.313 35.2732 499.49 34.5655 499.575 33.809H503.758C503.843 34.5655 504.02 35.2732 504.276 35.8896ZM512.021 32.5742C512.021 32.6416 511.964 32.6985 511.896 32.6985H491.51C491.442 32.6985 491.385 32.6416 491.385 32.5742V20.2348C491.385 20.1674 491.442 20.1104 491.51 20.1104H511.896C511.964 20.1104 512.021 20.1673 512.021 20.2348V32.5742Z" fill="#EDEDED"/>
<circle cx="502" cy="103" r="28" fill="#00FF66"/>
<path d="M508.774 93H495.226C494.335 93.001 493.614 93.7226 493.613 94.6129V111.387C493.614 112.277 494.335 112.999 495.226 113H508.774C509.665 112.999 510.386 112.277 510.387 111.387V94.6129C510.386 93.7226 509.665 93.001 508.774 93ZM509.742 111.387C509.742 111.922 509.309 112.355 508.774 112.355H495.226C494.691 112.355 494.258 111.922 494.258 111.387V94.6129C494.258 94.0784 494.691 93.6452 495.226 93.6452H508.774C509.309 93.6452 509.742 94.0784 509.742 94.6129V111.387Z" fill="#EDEDED" stroke="#EDEDED" stroke-width="0.5"/>
<path d="M497.969 96.3873H496.033C495.948 96.3873 495.866 96.3534 495.805 96.2929C495.745 96.2324 495.711 96.1503 495.711 96.0648C495.711 95.9792 495.745 95.8972 495.805 95.8367C495.866 95.7762 495.948 95.7422 496.033 95.7422H497.969C498.054 95.7422 498.136 95.7762 498.197 95.8367C498.257 95.8972 498.291 95.9792 498.291 96.0648C498.291 96.1503 498.257 96.2324 498.197 96.2929C498.136 96.3534 498.054 96.3873 497.969 96.3873Z" fill="#EDEDED" stroke="#EDEDED" stroke-width="0.5"/>
<circle cx="501.703" cy="178" r="28" fill="#FF00E6"/>
<path d="M505.832 169.055H497.575C497.032 169.056 496.592 169.701 496.592 170.498V185.503C496.592 186.299 497.032 186.945 497.575 186.946H505.832C506.374 186.945 506.814 186.299 506.814 185.503V170.498C506.814 169.701 506.374 169.056 505.832 169.055ZM506.421 185.503C506.421 185.981 506.157 186.369 505.832 186.369H497.575C497.249 186.369 496.985 185.981 496.985 185.503V170.498C496.985 170.019 497.249 169.632 497.575 169.632H505.832C506.157 169.632 506.421 170.019 506.421 170.498V185.503Z" fill="#EDEDED" stroke="#EDEDED" stroke-width="0.5"/>
<path d="M499.981 172.442H498.874C498.825 172.442 498.778 172.408 498.744 172.348C498.709 172.287 498.689 172.205 498.689 172.119C498.689 172.034 498.709 171.952 498.744 171.891C498.778 171.831 498.825 171.797 498.874 171.797H499.981C500.03 171.797 500.077 171.831 500.112 171.891C500.147 171.952 500.166 172.034 500.166 172.119C500.166 172.205 500.147 172.287 500.112 172.348C500.077 172.408 500.03 172.442 499.981 172.442Z" fill="#EDEDED" stroke="#EDEDED" stroke-width="0.5"/>
<line x1="336.93" y1="69.1953" x2="396.254" y2="69.1953" stroke="#888888" stroke-opacity="0.5"/>
<line x1="336.594" y1="136.195" x2="395.918" y2="136.195" stroke="#888888" stroke-opacity="0.5"/>
<line x1="89.9981" y1="103" x2="205.057" y2="102.777" stroke="#A1A1A1" stroke-width="2" stroke-dasharray="6 6"/>
<circle cx="240.844" cy="102.621" r="28" fill="#EDEDED"/>
<path d="M243.184 101.692L250.23 92.6328L243.184 101.692Z" fill="#1F1F1F"/>
<path d="M243.184 101.692L250.23 92.6328" stroke="#00B6CC" stroke-width="1.92827" stroke-linejoin="round"/>
<path d="M246.2 106.723L256.769 108.736L246.2 106.723Z" fill="#1F1F1F"/>
<path d="M246.2 106.723L256.769 108.736" stroke="#FF00E6" stroke-width="1.92827" stroke-linejoin="round"/>
<path d="M245.202 103.706L256.778 99.6797L245.202 103.706Z" fill="#00FF66"/>
<path d="M245.202 103.706L256.778 99.6797" stroke="#00FF66" stroke-width="1.92827" stroke-linejoin="round"/>
<path fill-rule="evenodd" clip-rule="evenodd" d="M237.435 94.7781L239.155 91.625L240.874 94.7781L249.586 110.75L251.234 113.77H247.794H230.515H227.075L228.723 110.75L231.742 105.214H225.062V102.194H233.39L237.435 94.7781ZM232.162 110.75L239.155 97.9313L246.147 110.75H232.162Z" fill="#1F1F1F"/>
<rect x="0.5" y="79.6953" width="84.9922" height="46" rx="7.5" fill="black" fill-opacity="0.08" stroke="#888888"/>
<circle cx="7.71351" cy="86.9088" r="1.83851" fill="#FF69F0"/>
<circle cx="13.7409" cy="86.9088" r="1.83851" fill="#00B6CC"/>
<circle cx="19.7682" cy="86.9088" r="1.83851" fill="#00FF66"/>
<path d="M11.319 100.984L14.4403 106.554H8.19771L11.319 100.984Z" fill="#00E4FF"/>
<path d="M23.9778 105.971C23.9654 105.909 23.9529 105.841 23.9405 105.766C23.9281 105.692 23.9219 105.611 23.9219 105.524C23.9219 105.325 23.9529 105.114 24.0151 104.89C24.0896 104.667 24.2077 104.443 24.3692 104.219C24.6178 103.896 24.9098 103.654 25.2453 103.492C25.5808 103.331 25.9412 103.25 26.3264 103.25C26.575 103.25 26.8235 103.287 27.072 103.362C27.3205 103.424 27.5753 103.523 27.8362 103.66C28.0972 103.784 28.3582 103.946 28.6191 104.145C28.9049 104.356 29.1597 104.511 29.3834 104.611C29.6195 104.698 29.8183 104.741 29.9798 104.741C30.2532 104.741 30.452 104.667 30.5763 104.518C30.7006 104.356 30.7627 104.126 30.7627 103.828C30.7627 103.753 30.7565 103.673 30.7441 103.586C30.7316 103.499 30.7068 103.412 30.6695 103.325L32.1421 103.418C32.1669 103.492 32.1856 103.573 32.198 103.66C32.2104 103.747 32.2166 103.84 32.2166 103.94C32.2166 104.126 32.1856 104.344 32.1234 104.592C32.0737 104.828 31.9681 105.052 31.8065 105.263C31.5704 105.574 31.3033 105.797 31.005 105.934C30.7068 106.071 30.3899 106.139 30.0544 106.139C29.7437 106.139 29.4082 106.065 29.0478 105.916C28.6875 105.766 28.3085 105.543 27.9108 105.244C27.7244 105.095 27.538 104.977 27.3516 104.89C27.1652 104.803 26.985 104.741 26.8111 104.704C26.6371 104.654 26.4693 104.629 26.3078 104.629C25.9723 104.629 25.7175 104.723 25.5435 104.909C25.3696 105.083 25.2826 105.331 25.2826 105.655C25.2826 105.717 25.2888 105.785 25.3012 105.86C25.3137 105.922 25.3323 105.99 25.3571 106.065L23.9778 105.971Z" fill="#7D7D7D"/>
<g filter="url(#filter2_f_927_2325)">
<mask id="path-39-outside-1_927_2325" maskUnits="userSpaceOnUse" x="27.2188" y="88.1953" width="45" height="30" fill="black">
<rect fill="white" x="27.2188" y="88.1953" width="45" height="30"/>
<path d="M44.4708 105.195H43.8228C43.5268 105.195 43.2988 105.095 43.1388 104.895C42.9788 104.695 42.8948 104.367 42.8868 103.911L43.0188 103.947C42.8668 104.363 42.6148 104.695 42.2628 104.943C41.9188 105.191 41.4548 105.315 40.8708 105.315C40.4228 105.315 40.0388 105.247 39.7188 105.111C39.4068 104.975 39.1668 104.771 38.9988 104.499C38.8388 104.227 38.7588 103.883 38.7588 103.467C38.7588 103.139 38.8188 102.863 38.9388 102.639C39.0588 102.407 39.2228 102.223 39.4308 102.087C39.6468 101.943 39.8948 101.839 40.1748 101.775C40.4548 101.703 40.7508 101.667 41.0628 101.667H42.8988V101.091C42.8988 100.667 42.7828 100.351 42.5508 100.143C42.3268 99.9353 41.9588 99.8313 41.4468 99.8313C40.9908 99.8313 40.6468 99.9153 40.4148 100.083C40.1828 100.251 40.0428 100.499 39.9948 100.827H38.9988C39.0388 100.435 39.1628 100.107 39.3708 99.8433C39.5788 99.5713 39.8628 99.3633 40.2228 99.2193C40.5828 99.0753 41.0028 99.0033 41.4828 99.0033C41.7948 99.0033 42.0948 99.0393 42.3828 99.1113C42.6708 99.1833 42.9268 99.3033 43.1508 99.4713C43.3748 99.6393 43.5508 99.8633 43.6788 100.143C43.8148 100.423 43.8828 100.771 43.8828 101.187V104.343H44.4708V105.195ZM39.7308 103.467C39.7308 103.811 39.8348 104.067 40.0428 104.235C40.2508 104.403 40.5668 104.487 40.9908 104.487C41.5828 104.487 42.0468 104.347 42.3828 104.067C42.7268 103.787 42.8988 103.415 42.8988 102.951V102.435H41.0748C40.6428 102.435 40.3108 102.523 40.0788 102.699C39.8548 102.875 39.7388 103.131 39.7308 103.467ZM46.6778 105.195H45.6938V99.1353H46.6778V100.203C46.8218 99.8593 47.0218 99.5953 47.2778 99.4113C47.5418 99.2273 47.8698 99.1353 48.2618 99.1353H48.8018V99.9753H48.1298C47.6578 99.9753 47.2978 100.111 47.0498 100.383C46.8018 100.655 46.6778 101.063 46.6778 101.607V105.195ZM51.8396 105.111C51.0156 105.111 50.3756 104.847 49.9196 104.319C49.4636 103.791 49.2356 103.043 49.2356 102.075C49.2356 101.403 49.3396 100.843 49.5476 100.395C49.7556 99.9393 50.0556 99.5953 50.4476 99.3633C50.8396 99.1233 51.3036 99.0033 51.8396 99.0033C52.3836 99.0033 52.8316 99.1353 53.1836 99.3993C53.5356 99.6633 53.7956 100.027 53.9636 100.491C54.1316 100.947 54.2156 101.475 54.2156 102.075C54.2156 102.659 54.1316 103.183 53.9636 103.647C53.7956 104.103 53.5356 104.463 53.1836 104.727C52.8316 104.983 52.3836 105.111 51.8396 105.111ZM52.0916 104.271C52.6996 104.271 53.1476 104.075 53.4356 103.683C53.7236 103.291 53.8676 102.755 53.8676 102.075C53.8676 101.379 53.7236 100.835 53.4356 100.443C53.1476 100.051 52.6996 99.8553 52.0916 99.8553C51.4516 99.8553 50.9796 100.051 50.6756 100.443C50.3716 100.835 50.2196 101.379 50.2196 102.075C50.2196 102.755 50.3716 103.291 50.6756 103.683C50.9796 104.075 51.4516 104.271 52.0916 104.271ZM53.8796 99.1353H54.8516V105.195H53.8676V100.611L53.8796 100.527V99.1353ZM54.8516 105.051C54.8596 105.979 54.6516 106.659 54.2276 107.091C53.8036 107.523 53.1516 107.739 52.2716 107.739C51.6796 107.739 51.1956 107.663 50.8196 107.511C50.4516 107.367 50.1716 107.155 49.9796 106.875C49.7956 106.603 49.6836 106.279 49.6436 105.903H50.6756C50.6996 106.119 50.7556 106.303 50.8436 106.455C50.9396 106.607 51.0956 106.719 51.3116 106.791C51.5356 106.863 51.8556 106.899 52.2716 106.899C52.7116 106.899 53.0436 106.831 53.2676 106.695C53.4996 106.567 53.6556 106.367 53.7356 106.095C53.8236 105.823 53.8676 105.475 53.8676 105.051H54.8516ZM59.1932 105.315C58.2812 105.315 57.5772 105.043 57.0812 104.499C56.5852 103.955 56.3372 103.179 56.3372 102.171C56.3372 101.155 56.5852 100.375 57.0812 99.8313C57.5772 99.2793 58.2812 99.0033 59.1932 99.0033C59.8012 99.0033 60.3172 99.1273 60.7412 99.3753C61.1652 99.6153 61.4892 99.9713 61.7132 100.443C61.9452 100.907 62.0612 101.479 62.0612 102.159C62.0612 103.183 61.8092 103.967 61.3052 104.511C60.8092 105.047 60.1052 105.315 59.1932 105.315ZM59.1932 104.463C59.8332 104.463 60.3052 104.267 60.6092 103.875C60.9212 103.475 61.0772 102.907 61.0772 102.171C61.0772 101.435 60.9212 100.867 60.6092 100.467C60.3052 100.059 59.8332 99.8553 59.1932 99.8553C58.5612 99.8553 58.0892 100.059 57.7772 100.467C57.4732 100.867 57.3212 101.435 57.3212 102.171C57.3212 102.907 57.4732 103.475 57.7772 103.875C58.0892 104.267 58.5612 104.463 59.1932 104.463Z"/>
</mask>
<path d="M44.4708 105.195H43.8228C43.5268 105.195 43.2988 105.095 43.1388 104.895C42.9788 104.695 42.8948 104.367 42.8868 103.911L43.0188 103.947C42.8668 104.363 42.6148 104.695 42.2628 104.943C41.9188 105.191 41.4548 105.315 40.8708 105.315C40.4228 105.315 40.0388 105.247 39.7188 105.111C39.4068 104.975 39.1668 104.771 38.9988 104.499C38.8388 104.227 38.7588 103.883 38.7588 103.467C38.7588 103.139 38.8188 102.863 38.9388 102.639C39.0588 102.407 39.2228 102.223 39.4308 102.087C39.6468 101.943 39.8948 101.839 40.1748 101.775C40.4548 101.703 40.7508 101.667 41.0628 101.667H42.8988V101.091C42.8988 100.667 42.7828 100.351 42.5508 100.143C42.3268 99.9353 41.9588 99.8313 41.4468 99.8313C40.9908 99.8313 40.6468 99.9153 40.4148 100.083C40.1828 100.251 40.0428 100.499 39.9948 100.827H38.9988C39.0388 100.435 39.1628 100.107 39.3708 99.8433C39.5788 99.5713 39.8628 99.3633 40.2228 99.2193C40.5828 99.0753 41.0028 99.0033 41.4828 99.0033C41.7948 99.0033 42.0948 99.0393 42.3828 99.1113C42.6708 99.1833 42.9268 99.3033 43.1508 99.4713C43.3748 99.6393 43.5508 99.8633 43.6788 100.143C43.8148 100.423 43.8828 100.771 43.8828 101.187V104.343H44.4708V105.195ZM39.7308 103.467C39.7308 103.811 39.8348 104.067 40.0428 104.235C40.2508 104.403 40.5668 104.487 40.9908 104.487C41.5828 104.487 42.0468 104.347 42.3828 104.067C42.7268 103.787 42.8988 103.415 42.8988 102.951V102.435H41.0748C40.6428 102.435 40.3108 102.523 40.0788 102.699C39.8548 102.875 39.7388 103.131 39.7308 103.467ZM46.6778 105.195H45.6938V99.1353H46.6778V100.203C46.8218 99.8593 47.0218 99.5953 47.2778 99.4113C47.5418 99.2273 47.8698 99.1353 48.2618 99.1353H48.8018V99.9753H48.1298C47.6578 99.9753 47.2978 100.111 47.0498 100.383C46.8018 100.655 46.6778 101.063 46.6778 101.607V105.195ZM51.8396 105.111C51.0156 105.111 50.3756 104.847 49.9196 104.319C49.4636 103.791 49.2356 103.043 49.2356 102.075C49.2356 101.403 49.3396 100.843 49.5476 100.395C49.7556 99.9393 50.0556 99.5953 50.4476 99.3633C50.8396 99.1233 51.3036 99.0033 51.8396 99.0033C52.3836 99.0033 52.8316 99.1353 53.1836 99.3993C53.5356 99.6633 53.7956 100.027 53.9636 100.491C54.1316 100.947 54.2156 101.475 54.2156 102.075C54.2156 102.659 54.1316 103.183 53.9636 103.647C53.7956 104.103 53.5356 104.463 53.1836 104.727C52.8316 104.983 52.3836 105.111 51.8396 105.111ZM52.0916 104.271C52.6996 104.271 53.1476 104.075 53.4356 103.683C53.7236 103.291 53.8676 102.755 53.8676 102.075C53.8676 101.379 53.7236 100.835 53.4356 100.443C53.1476 100.051 52.6996 99.8553 52.0916 99.8553C51.4516 99.8553 50.9796 100.051 50.6756 100.443C50.3716 100.835 50.2196 101.379 50.2196 102.075C50.2196 102.755 50.3716 103.291 50.6756 103.683C50.9796 104.075 51.4516 104.271 52.0916 104.271ZM53.8796 99.1353H54.8516V105.195H53.8676V100.611L53.8796 100.527V99.1353ZM54.8516 105.051C54.8596 105.979 54.6516 106.659 54.2276 107.091C53.8036 107.523 53.1516 107.739 52.2716 107.739C51.6796 107.739 51.1956 107.663 50.8196 107.511C50.4516 107.367 50.1716 107.155 49.9796 106.875C49.7956 106.603 49.6836 106.279 49.6436 105.903H50.6756C50.6996 106.119 50.7556 106.303 50.8436 106.455C50.9396 106.607 51.0956 106.719 51.3116 106.791C51.5356 106.863 51.8556 106.899 52.2716 106.899C52.7116 106.899 53.0436 106.831 53.2676 106.695C53.4996 106.567 53.6556 106.367 53.7356 106.095C53.8236 105.823 53.8676 105.475 53.8676 105.051H54.8516ZM59.1932 105.315C58.2812 105.315 57.5772 105.043 57.0812 104.499C56.5852 103.955 56.3372 103.179 56.3372 102.171C56.3372 101.155 56.5852 100.375 57.0812 99.8313C57.5772 99.2793 58.2812 99.0033 59.1932 99.0033C59.8012 99.0033 60.3172 99.1273 60.7412 99.3753C61.1652 99.6153 61.4892 99.9713 61.7132 100.443C61.9452 100.907 62.0612 101.479 62.0612 102.159C62.0612 103.183 61.8092 103.967 61.3052 104.511C60.8092 105.047 60.1052 105.315 59.1932 105.315ZM59.1932 104.463C59.8332 104.463 60.3052 104.267 60.6092 103.875C60.9212 103.475 61.0772 102.907 61.0772 102.171C61.0772 101.435 60.9212 100.867 60.6092 100.467C60.3052 100.059 59.8332 99.8553 59.1932 99.8553C58.5612 99.8553 58.0892 100.059 57.7772 100.467C57.4732 100.867 57.3212 101.435 57.3212 102.171C57.3212 102.907 57.4732 103.475 57.7772 103.875C58.0892 104.267 58.5612 104.463 59.1932 104.463Z" fill="white"/>
<path d="M44.4708 105.195V115.195H54.4708V105.195H44.4708ZM43.1388 104.895L50.9474 98.6484L50.9474 98.6484L43.1388 104.895ZM42.8868 103.911L45.5179 94.2637L32.6544 90.7554L32.8883 104.087L42.8868 103.911ZM43.0188 103.947L52.4114 107.379L56.1447 97.1619L45.6499 94.2997L43.0188 103.947ZM42.2628 104.943L36.5032 96.7685L36.4588 96.7998L36.4147 96.8315L42.2628 104.943ZM39.7188 105.111L35.7229 114.278L35.765 114.297L35.8073 114.315L39.7188 105.111ZM38.9988 104.499L30.3794 109.57L30.4341 109.662L30.4908 109.754L38.9988 104.499ZM38.9388 102.639L47.7536 107.362L47.7877 107.298L47.8209 107.234L38.9388 102.639ZM39.4308 102.087L44.9032 110.457L44.9406 110.433L44.9778 110.408L39.4308 102.087ZM40.1748 101.775L42.403 111.524L42.5345 111.494L42.6652 111.46L40.1748 101.775ZM42.8988 101.667V111.667H52.8988V101.667H42.8988ZM42.5508 100.143L35.7462 107.471L35.8103 107.531L35.8753 107.589L42.5508 100.143ZM39.9948 100.827V110.827H48.6378L49.8894 102.275L39.9948 100.827ZM38.9988 100.827L29.0504 99.8122L27.9264 110.827H38.9988V100.827ZM39.3707 99.8433L47.2257 106.032L47.2704 105.975L47.3143 105.918L39.3707 99.8433ZM42.3828 99.1113L39.9574 108.813L39.9574 108.813L42.3828 99.1113ZM43.6788 100.143L34.584 104.301L34.6326 104.407L34.6837 104.512L43.6788 100.143ZM43.8828 104.343H33.8828V114.343H43.8828V104.343ZM44.4708 104.343H54.4708V94.3433H44.4708V104.343ZM39.7308 103.467L29.7336 103.229L29.7308 103.348V103.467H39.7308ZM40.0428 104.235L46.3261 96.4559L46.3261 96.4559L40.0428 104.235ZM42.3828 104.067L36.07 96.3117L36.0253 96.3481L35.9809 96.3851L42.3828 104.067ZM42.8988 102.435H52.8988V92.4353H42.8988V102.435ZM40.0788 102.699L34.0349 94.7324L33.9673 94.7837L33.9005 94.8361L40.0788 102.699ZM44.4708 105.195V95.1953H43.8228V105.195V115.195H44.4708V105.195ZM43.8228 105.195V95.1953C44.8003 95.1953 46.0781 95.3623 47.4464 95.9624C48.8567 96.581 50.0475 97.5234 50.9474 98.6484L43.1388 104.895L35.3301 111.142C37.6968 114.101 41.0206 115.195 43.8228 115.195V105.195ZM43.1388 104.895L50.9474 98.6484C51.9903 99.9519 52.4411 101.229 52.6431 102.018C52.8476 102.817 52.8799 103.435 52.8852 103.736L42.8868 103.911L32.8883 104.087C32.9082 105.223 33.068 108.315 35.3301 111.142L43.1388 104.895ZM42.8868 103.911L40.2556 113.559L40.3876 113.595L43.0188 103.947L45.6499 94.2997L45.5179 94.2637L42.8868 103.911ZM43.0188 103.947L33.6261 100.515C34.1522 99.0754 35.1391 97.7295 36.5032 96.7685L42.2628 104.943L48.0223 113.118C50.0904 111.661 51.5813 109.651 52.4114 107.379L43.0188 103.947ZM42.2628 104.943L36.4147 96.8315C38.3089 95.466 40.1291 95.3153 40.8708 95.3153V105.315V115.315C42.7804 115.315 45.5286 114.917 48.1108 113.055L42.2628 104.943ZM40.8708 105.315V95.3153C41.3956 95.3153 42.412 95.3903 43.6302 95.908L39.7188 105.111L35.8073 114.315C37.6655 115.104 39.4499 115.315 40.8708 115.315V105.315ZM39.7188 105.111L43.7146 95.9444C45.1427 96.5668 46.5335 97.6687 47.5067 99.2444L38.9988 104.499L30.4908 109.754C31.8 111.874 33.6708 113.384 35.7229 114.278L39.7188 105.111ZM38.9988 104.499L47.6181 99.4291C48.6059 101.108 48.7587 102.652 48.7587 103.467H38.7588H28.7587C28.7587 105.115 29.0717 107.346 30.3794 109.57L38.9988 104.499ZM38.7588 103.467H48.7587C48.7587 104.322 48.6052 105.772 47.7536 107.362L38.9388 102.639L30.124 97.9171C29.0323 99.9548 28.7587 101.957 28.7587 103.467H38.7588ZM38.9388 102.639L47.8209 107.234C47.1908 108.452 46.2128 109.601 44.9032 110.457L39.4308 102.087L33.9583 93.7176C32.2327 94.8459 30.9267 96.3628 30.0566 98.0451L38.9388 102.639ZM39.4308 102.087L44.9778 110.408C44.0814 111.005 43.1811 111.346 42.403 111.524L40.1748 101.775L37.9465 92.0267C36.6084 92.3326 35.2121 92.8812 33.8837 93.7668L39.4308 102.087ZM40.1748 101.775L42.6652 111.46C42.07 111.613 41.5248 111.667 41.0628 111.667V101.667V91.6673C39.9767 91.6673 38.8395 91.7934 37.6843 92.0904L40.1748 101.775ZM41.0628 101.667V111.667H42.8988V101.667V91.6673H41.0628V101.667ZM42.8988 101.667H52.8988V101.091H42.8988H32.8988V101.667H42.8988ZM42.8988 101.091H52.8988C52.8988 98.8957 52.2576 95.4154 49.2262 92.6976L42.5508 100.143L35.8753 107.589C33.3079 105.287 32.8988 102.439 32.8988 101.091H42.8988ZM42.5508 100.143L49.3553 92.8154C46.3768 90.0497 42.8927 89.8313 41.4468 89.8313V99.8313V109.831C41.073 109.831 40.3293 109.799 39.3872 109.532C38.4213 109.259 37.0499 108.682 35.7462 107.471L42.5508 100.143ZM41.4468 99.8313V89.8313C40.0367 89.8313 37.23 90.0429 34.5497 91.9839L40.4148 100.083L46.2798 108.183C45.1312 109.014 44.017 109.414 43.2189 109.609C42.4294 109.802 41.802 109.831 41.4468 109.831V99.8313ZM40.4148 100.083L34.5497 91.9839C31.7847 93.9861 30.4721 96.8378 30.1001 99.3793L39.9948 100.827L49.8894 102.275C49.7637 103.134 49.4704 104.202 48.844 105.311C48.2022 106.448 47.3226 107.428 46.2798 108.183L40.4148 100.083ZM39.9948 100.827V90.8273H38.9988V100.827V110.827H39.9948V100.827ZM38.9988 100.827L48.9471 101.842C48.8282 103.008 48.3826 104.564 47.2257 106.032L39.3707 99.8433L31.5158 93.6546C29.9429 95.651 29.2493 97.863 29.0504 99.8122L38.9988 100.827ZM39.3707 99.8433L47.3143 105.918C46.2884 107.259 45.0238 108.069 43.9367 108.504L40.2228 99.2193L36.5088 89.9345C34.7017 90.6574 32.8691 91.8832 31.4272 93.7688L39.3707 99.8433ZM40.2228 99.2193L43.9367 108.504C42.8711 108.93 41.9822 109.003 41.4828 109.003V99.0033V89.0033C40.0233 89.0033 38.2944 89.2203 36.5088 89.9345L40.2228 99.2193ZM41.4828 99.0033V109.003C41.0188 109.003 40.502 108.949 39.9574 108.813L42.3828 99.1113L44.8081 89.4099C43.6875 89.1297 42.5707 89.0033 41.4828 89.0033V99.0033ZM42.3828 99.1113L39.9574 108.813C39.0314 108.581 38.0563 108.15 37.1508 107.471L43.1508 99.4713L49.1508 91.4713C47.7972 90.4561 46.3101 89.7854 44.8081 89.4099L42.3828 99.1113ZM43.1508 99.4713L37.1508 107.471C35.9088 106.54 35.0798 105.386 34.584 104.301L43.6788 100.143L52.7735 95.9857C52.0217 94.3411 50.8407 92.7388 49.1508 91.4713L43.1508 99.4713ZM43.6788 100.143L34.6837 104.512C33.9747 103.053 33.8828 101.799 33.8828 101.187H43.8828H53.8828C53.8828 99.7431 53.6548 97.7938 52.6738 95.7743L43.6788 100.143ZM43.8828 101.187H33.8828V104.343H43.8828H53.8828V101.187H43.8828ZM43.8828 104.343V114.343H44.4708V104.343V94.3433H43.8828V104.343ZM44.4708 104.343H34.4708V105.195H44.4708H54.4708V104.343H44.4708ZM39.7308 103.467H29.7308C29.7308 105.894 30.5568 109.428 33.7594 112.015L40.0428 104.235L46.3261 96.4559C47.5851 97.4728 48.51 98.7667 49.0734 100.154C49.6101 101.475 49.7308 102.654 49.7308 103.467H39.7308ZM40.0428 104.235L33.7594 112.015C36.525 114.249 39.5362 114.487 40.9908 114.487V104.487V94.4873C41.5973 94.4873 43.9765 94.5581 46.3261 96.4559L40.0428 104.235ZM40.9908 104.487V114.487C43.0943 114.487 46.1043 113.983 48.7846 111.75L42.3828 104.067L35.9809 96.3851C37.9892 94.7115 40.0712 94.4873 40.9908 94.4873V104.487ZM42.3828 104.067L48.6955 111.823C51.4938 109.545 52.8988 106.264 52.8988 102.951H42.8988H32.8988C32.8988 101.926 33.0951 100.675 33.693 99.3815C34.297 98.0752 35.1608 97.0518 36.07 96.3117L42.3828 104.067ZM42.8988 102.951H52.8988V102.435H42.8988H32.8988V102.951H42.8988ZM42.8988 102.435V92.4353H41.0747V102.435V112.435H42.8988V102.435ZM41.0747 102.435V92.4353C39.4689 92.4353 36.6668 92.7357 34.0349 94.7324L40.0788 102.699L46.1226 110.666C43.9547 112.311 41.8166 112.435 41.0747 112.435V102.435ZM40.0788 102.699L33.9005 94.8361C30.8974 97.1957 29.7984 100.505 29.7336 103.229L39.7308 103.467L49.7279 103.705C49.7061 104.622 49.5261 105.84 48.9323 107.151C48.3183 108.506 47.3896 109.673 46.257 110.562L40.0788 102.699ZM46.6778 105.195V115.195H56.6778V105.195H46.6778ZM45.6938 105.195H35.6938V115.195H45.6938V105.195ZM45.6938 99.1353V89.1353H35.6938V99.1353H45.6938ZM46.6778 99.1353H56.6778V89.1353H46.6778V99.1353ZM46.6778 100.203H36.6778L55.9022 104.065L46.6778 100.203ZM47.2778 99.4113L41.5599 91.2073L41.5004 91.2488L41.4415 91.2912L47.2778 99.4113ZM48.8018 99.1353H58.8018V89.1353H48.8018V99.1353ZM48.8018 99.9753V109.975H58.8018V99.9753H48.8018ZM46.6778 105.195V95.1953H45.6938V105.195V115.195H46.6778V105.195ZM45.6938 105.195H55.6938V99.1353H45.6938H35.6938V105.195H45.6938ZM45.6938 99.1353V109.135H46.6778V99.1353V89.1353H45.6938V99.1353ZM46.6778 99.1353H36.6778V100.203H46.6778H56.6778V99.1353H46.6778ZM46.6778 100.203L55.9022 104.065C55.4643 105.111 54.6148 106.453 53.1142 107.531L47.2778 99.4113L41.4415 91.2912C39.4288 92.7378 38.1793 94.6078 37.4534 96.3419L46.6778 100.203ZM47.2778 99.4113L52.9957 107.615C51.2456 108.835 49.4618 109.135 48.2618 109.135V99.1353V89.1353C46.2778 89.1353 43.8381 89.6195 41.5599 91.2073L47.2778 99.4113ZM48.2618 99.1353V109.135H48.8018V99.1353V89.1353H48.2618V99.1353ZM48.8018 99.1353H38.8018V99.9753H48.8018H58.8018V99.1353H48.8018ZM48.8018 99.9753V89.9753H48.1298V99.9753V109.975H48.8018V99.9753ZM48.1298 99.9753V89.9753C45.6893 89.9753 42.3055 90.7446 39.6603 93.6458L47.0498 100.383L54.4394 107.121C52.2902 109.478 49.6263 109.975 48.1298 109.975V99.9753ZM47.0498 100.383L39.6603 93.6458C37.084 96.4713 36.6778 99.7388 36.6778 101.607H46.6778H56.6778C56.6778 102.388 56.5196 104.839 54.4394 107.121L47.0498 100.383ZM46.6778 101.607H36.6778V105.195H46.6778H56.6778V101.607H46.6778ZM49.9196 104.319L42.3514 110.856L49.9196 104.319ZM49.5476 100.395L58.6177 104.606L58.6318 104.576L58.6458 104.545L49.5476 100.395ZM50.4476 99.3633L55.5408 107.969L55.6053 107.931L55.6691 107.892L50.4476 99.3633ZM53.1836 99.3993L47.1836 107.399L47.1836 107.399L53.1836 99.3993ZM53.9636 100.491L44.5609 103.896L44.5705 103.922L44.5802 103.948L53.9636 100.491ZM53.9636 103.647L63.347 107.104L63.3567 107.078L63.3663 107.052L53.9636 103.647ZM53.1836 104.727L59.0653 112.815L59.1248 112.771L59.1836 112.727L53.1836 104.727ZM53.4356 103.683L61.4944 109.604L61.4944 109.604L53.4356 103.683ZM53.4356 100.443L61.4944 94.5226L61.4944 94.5225L53.4356 100.443ZM50.6756 100.443L42.7734 94.3151L42.7734 94.3151L50.6756 100.443ZM50.6756 103.683L42.7734 109.812L42.7734 109.812L50.6756 103.683ZM53.8796 99.1353V89.1353H43.8796V99.1353H53.8796ZM54.8516 99.1353H64.8516V89.1353H54.8516V99.1353ZM54.8516 105.195V115.195H64.8516V105.195H54.8516ZM53.8676 105.195H43.8676V115.195H53.8676V105.195ZM53.8676 100.611L43.9681 99.1971L43.8676 99.9006V100.611H53.8676ZM53.8796 100.527L63.7791 101.942L63.8796 101.238V100.527H53.8796ZM54.8516 105.051L64.8512 104.965L64.7658 95.0513H54.8516V105.051ZM54.2276 107.091L47.0908 100.087L47.0908 100.087L54.2276 107.091ZM50.8196 107.511L54.5675 98.2402L54.5157 98.2193L54.4636 98.1989L50.8196 107.511ZM49.9796 106.875L41.6968 112.478L41.7144 112.505L41.7323 112.531L49.9796 106.875ZM49.6436 105.903V95.9033H38.5233L39.6997 106.961L49.6436 105.903ZM50.6756 105.903L60.6144 104.799L59.626 95.9033H50.6756V105.903ZM50.8436 106.455L42.1893 111.466L42.2858 111.632L42.3887 111.795L50.8436 106.455ZM51.3116 106.791L48.1493 116.278L48.2003 116.295L48.2515 116.312L51.3116 106.791ZM53.2676 106.695L48.4368 97.9395L48.2552 98.0398L48.0778 98.1474L53.2676 106.695ZM53.7356 106.095L44.2211 103.017L44.1798 103.145L44.1419 103.274L53.7356 106.095ZM53.8676 105.051V95.0513H43.8676V105.051H53.8676ZM51.8396 105.111V95.1113C52.4919 95.1113 53.4586 95.2167 54.5549 95.6689C55.6927 96.1383 56.7015 96.8726 57.4878 97.7831L49.9196 104.319L42.3514 110.856C45.0558 113.987 48.6893 115.111 51.8396 115.111V105.111ZM49.9196 104.319L57.4878 97.7831C59.1155 99.6678 59.2356 101.57 59.2356 102.075H49.2356H39.2356C39.2356 104.516 39.8117 107.915 42.3514 110.856L49.9196 104.319ZM49.2356 102.075H59.2356C59.2356 102.363 59.2013 103.349 58.6177 104.606L49.5476 100.395L40.4775 96.1842C39.4779 98.3371 39.2356 100.444 39.2356 102.075H49.2356ZM49.5476 100.395L58.6458 104.545C58.0946 105.754 57.0838 107.056 55.5408 107.969L50.4476 99.3633L45.3544 90.7575C43.0274 92.1347 41.4166 94.1248 40.4494 96.2453L49.5476 100.395ZM50.4476 99.3633L55.6691 107.892C54.2439 108.764 52.8356 109.003 51.8396 109.003V99.0033V89.0033C49.7716 89.0033 47.4352 89.4822 45.2261 90.8348L50.4476 99.3633ZM51.8396 99.0033V109.003C50.7409 109.003 48.9375 108.715 47.1836 107.399L53.1836 99.3993L59.1836 91.3993C56.7257 89.5559 54.0263 89.0033 51.8396 89.0033V99.0033ZM53.1836 99.3993L47.1836 107.399C45.7935 106.357 44.9724 105.032 44.5609 103.896L53.9636 100.491L63.3663 97.0869C62.6188 95.0225 61.2777 92.9699 59.1836 91.3993L53.1836 99.3993ZM53.9636 100.491L44.5802 103.948C44.2573 103.072 44.2156 102.388 44.2156 102.075H54.2156H64.2156C64.2156 100.563 64.0059 98.8227 63.347 97.0343L53.9636 100.491ZM54.2156 102.075H44.2156C44.2156 101.706 44.2687 101.05 44.5609 100.243L53.9636 103.647L63.3663 107.052C63.9945 105.316 64.2156 103.612 64.2156 102.075H54.2156ZM53.9636 103.647L44.5802 100.19C45.0064 99.0335 45.8345 97.7391 47.1836 96.7273L53.1836 104.727L59.1836 112.727C61.2367 111.188 62.5848 109.173 63.347 107.104L53.9636 103.647ZM53.1836 104.727L47.3019 96.64C49.0456 95.3718 50.8043 95.1113 51.8396 95.1113V105.111V115.111C53.9629 115.111 56.6176 114.595 59.0653 112.815L53.1836 104.727ZM52.0916 104.271V114.271C54.9964 114.271 58.8531 113.199 61.4944 109.604L53.4356 103.683L45.3768 97.7625C46.2802 96.5329 47.4966 95.566 48.8754 94.9627C50.1831 94.3906 51.3418 94.2713 52.0916 94.2713V104.271ZM53.4356 103.683L61.4944 109.604C63.4575 106.932 63.8676 104.06 63.8676 102.075H53.8676H43.8676C43.8676 101.451 43.9897 99.6505 45.3768 97.7626L53.4356 103.683ZM53.8676 102.075H63.8676C63.8676 100.135 63.4828 97.229 61.4944 94.5226L53.4356 100.443L45.3768 106.364C43.9644 104.442 43.8676 102.623 43.8676 102.075H53.8676ZM53.4356 100.443L61.4944 94.5225C58.8531 90.9274 54.9964 89.8553 52.0916 89.8553V99.8553V109.855C51.3418 109.855 50.1831 109.736 48.8754 109.164C47.4966 108.561 46.2802 107.594 45.3768 106.364L53.4356 100.443ZM52.0916 99.8553V89.8553C49.3389 89.8553 45.4996 90.7997 42.7734 94.3151L50.6756 100.443L58.5778 106.572C57.6335 107.789 56.4083 108.691 55.0926 109.238C53.8484 109.754 52.7673 109.855 52.0916 109.855V99.8553ZM50.6756 100.443L42.7734 94.3151C40.656 97.0454 40.2196 100.036 40.2196 102.075H50.2196H60.2196C60.2196 102.723 60.0872 104.625 58.5778 106.572L50.6756 100.443ZM50.2196 102.075H40.2196C40.2196 104.162 40.684 107.117 42.7734 109.812L50.6756 103.683L58.5778 97.5551C60.0592 99.4654 60.2196 101.349 60.2196 102.075H50.2196ZM50.6756 103.683L42.7734 109.812C45.4996 113.327 49.3389 114.271 52.0916 114.271V104.271V94.2713C52.7673 94.2713 53.8484 94.3723 55.0926 94.8889C56.4083 95.4353 57.6335 96.3374 58.5778 97.5551L50.6756 103.683ZM53.8796 99.1353V109.135H54.8516V99.1353V89.1353H53.8796V99.1353ZM54.8516 99.1353H44.8516V105.195H54.8516H64.8516V99.1353H54.8516ZM54.8516 105.195V95.1953H53.8676V105.195V115.195H54.8516V105.195ZM53.8676 105.195H63.8676V100.611H53.8676H43.8676V105.195H53.8676ZM53.8676 100.611L63.7671 102.026L63.7791 101.942L53.8796 100.527L43.9801 99.1131L43.9681 99.1971L53.8676 100.611ZM53.8796 100.527H63.8796V99.1353H53.8796H43.8796V100.527H53.8796ZM54.8516 105.051L44.852 105.138C44.8491 104.799 44.8739 102.345 47.0908 100.087L54.2276 107.091L61.3644 114.096C64.4293 110.973 64.8701 107.159 64.8512 104.965L54.8516 105.051ZM54.2276 107.091L47.0908 100.087C49.2587 97.8778 51.6893 97.7393 52.2716 97.7393V107.739V117.739C54.6138 117.739 58.3485 117.169 61.3644 114.096L54.2276 107.091ZM52.2716 107.739V97.7393C52.3919 97.7393 52.652 97.7462 53.0158 97.8034C53.3768 97.86 53.9207 97.9787 54.5675 98.2402L50.8196 107.511L47.0717 116.782C49.0533 117.583 50.9346 117.739 52.2716 117.739V107.739ZM50.8196 107.511L54.4636 98.1989C55.6477 98.6622 57.1087 99.5894 58.2269 101.22L49.9796 106.875L41.7323 112.531C43.2344 114.721 45.2555 116.072 47.1756 116.824L50.8196 107.511ZM49.9796 106.875L58.2624 101.272C59.1263 102.549 59.4807 103.841 59.5875 104.845L49.6436 105.903L39.6997 106.961C39.8865 108.717 40.4649 110.657 41.6968 112.478L49.9796 106.875ZM49.6436 105.903V115.903H50.6756V105.903V95.9033H49.6436V105.903ZM50.6756 105.903L40.7368 107.008C40.8784 108.283 41.2631 109.866 42.1893 111.466L50.8436 106.455L59.4979 101.445C60.248 102.741 60.5207 103.956 60.6144 104.799L50.6756 105.903ZM50.8436 106.455L42.3887 111.795C44.0158 114.371 46.3396 115.675 48.1493 116.278L51.3116 106.791L54.4739 97.3045C55.8516 97.7637 57.8634 98.8432 59.2985 101.115L50.8436 106.455ZM51.3116 106.791L48.2515 116.312C49.9454 116.856 51.4847 116.899 52.2716 116.899V106.899V96.8993C52.3357 96.8993 52.5376 96.9013 52.8375 96.935C53.1143 96.9661 53.669 97.0452 54.3717 97.271L51.3116 106.791ZM52.2716 106.899V116.899C53.4384 116.899 55.9377 116.773 58.4574 115.243L53.2676 106.695L48.0778 98.1474C49.1875 97.4737 50.198 97.184 50.8441 97.0517C51.4999 96.9174 52.0054 96.8993 52.2716 96.8993V106.899ZM53.2676 106.695L58.0984 115.451C60.8106 113.955 62.5632 111.522 63.3292 108.917L53.7356 106.095L44.1419 103.274C44.4153 102.344 44.8917 101.301 45.6736 100.299C46.4641 99.2855 47.423 98.4989 48.4368 97.9395L53.2676 106.695ZM53.7356 106.095L63.25 109.174C63.7748 107.551 63.8676 106.066 63.8676 105.051H53.8676H43.8676C43.8676 104.927 43.8735 104.693 43.9136 104.376C43.953 104.064 44.0356 103.591 44.2211 103.017L53.7356 106.095ZM53.8676 105.051V115.051H54.8516V105.051V95.0513H53.8676V105.051ZM57.0812 104.499L64.4707 97.7618L57.0812 104.499ZM57.0812 99.8313L64.4707 106.569L64.4952 106.542L64.5195 106.515L57.0812 99.8313ZM60.7412 99.3753L55.6923 108.007L55.7535 108.043L55.8152 108.078L60.7412 99.3753ZM61.7132 100.443L52.6789 104.731L52.7229 104.824L52.7689 104.915L61.7132 100.443ZM61.3052 104.511L53.9695 97.7151L53.9655 97.7194L61.3052 104.511ZM60.6092 103.875L52.7241 97.725L52.7155 97.736L52.707 97.7471L60.6092 103.875ZM60.6092 100.467L52.5903 106.442L52.6563 106.531L52.7241 106.618L60.6092 100.467ZM57.7772 100.467L49.8336 94.3928L49.8245 94.4046L49.8155 94.4165L57.7772 100.467ZM57.7772 103.875L49.8155 109.926L49.8832 110.015L49.9529 110.103L57.7772 103.875ZM59.1932 105.315V95.3153C59.7198 95.3153 60.5754 95.3932 61.5851 95.7833C62.641 96.1913 63.6477 96.8592 64.4707 97.7618L57.0812 104.499L49.6916 111.237C52.5198 114.339 56.1911 115.315 59.1932 115.315V105.315ZM57.0812 104.499L64.4707 97.7618C66.1897 99.6471 66.3372 101.616 66.3372 102.171H56.3372H46.3372C46.3372 104.743 46.9807 108.264 49.6916 111.237L57.0812 104.499ZM56.3372 102.171H66.3372C66.3372 102.694 66.2017 104.67 64.4707 106.569L57.0812 99.8313L49.6916 93.0938C46.9686 96.0803 46.3372 99.6161 46.3372 102.171H56.3372ZM57.0812 99.8313L64.5195 106.515C63.7062 107.42 62.7007 108.101 61.6311 108.52C60.6076 108.922 59.7355 109.003 59.1932 109.003V99.0033V89.0033C56.1456 89.0033 52.4589 90.0136 49.6429 93.1476L57.0812 99.8313ZM59.1932 99.0033V109.003C58.4453 109.003 57.125 108.845 55.6923 108.007L60.7412 99.3753L65.79 90.7434C63.5093 89.4094 61.157 89.0033 59.1932 89.0033V99.0033ZM60.7412 99.3753L55.8152 108.078C54.316 107.229 53.27 105.976 52.6789 104.731L61.7132 100.443L70.7474 96.1559C69.7083 93.9663 68.0143 92.0013 65.6671 90.6727L60.7412 99.3753ZM61.7132 100.443L52.7689 104.915C52.1252 103.628 52.0612 102.568 52.0612 102.159H62.0612H72.0612C72.0612 100.391 71.7651 98.1864 70.6574 95.9712L61.7132 100.443ZM62.0612 102.159H52.0612C52.0612 101.631 52.2003 99.6248 53.9695 97.7151L61.3052 104.511L68.6408 111.308C71.418 108.31 72.0612 104.736 72.0612 102.159H62.0612ZM61.3052 104.511L53.9655 97.7194C54.798 96.8198 55.8057 96.1652 56.8474 95.7686C57.8431 95.3895 58.6822 95.3153 59.1932 95.3153V105.315V115.315C62.15 115.315 65.8051 114.372 68.6448 111.303L61.3052 104.511ZM59.1932 104.463V114.463C61.9459 114.463 65.7851 113.519 68.5114 110.004L60.6092 103.875L52.707 97.7471C53.6513 96.5294 54.8765 95.6273 56.1921 95.0809C57.4363 94.5643 58.5175 94.4633 59.1932 94.4633V104.463ZM60.6092 103.875L68.4942 110.026C70.6739 107.231 71.0772 104.164 71.0772 102.171H61.0772H51.0772C51.0772 101.651 51.1684 99.7196 52.7241 97.725L60.6092 103.875ZM61.0772 102.171H71.0772C71.0772 100.179 70.6739 97.1116 68.4942 94.317L60.6092 100.467L52.7241 106.618C51.1684 104.623 51.0772 102.692 51.0772 102.171H61.0772ZM60.6092 100.467L68.628 94.4925C65.9557 90.906 62.0892 89.8553 59.1932 89.8553V99.8553V109.855C58.4722 109.855 57.3428 109.742 56.0598 109.188C54.7059 108.602 53.4965 107.658 52.5903 106.442L60.6092 100.467ZM59.1932 99.8553V89.8553C56.2441 89.8553 52.4745 90.9392 49.8336 94.3928L57.7772 100.467L65.7207 106.542C64.8372 107.697 63.6636 108.612 62.3325 109.188C61.0639 109.736 59.9375 109.855 59.1932 109.855V99.8553ZM57.7772 100.467L49.8155 94.4165C47.7001 97.1999 47.3212 100.226 47.3212 102.171H57.3212H67.3212C67.3212 102.645 67.2462 104.535 65.7388 106.518L57.7772 100.467ZM57.3212 102.171H47.3212C47.3212 104.117 47.7001 107.143 49.8155 109.926L57.7772 103.875L65.7388 97.8245C67.2462 99.8079 67.3212 101.698 67.3212 102.171H57.3212ZM57.7772 103.875L49.9529 110.103C52.6456 113.486 56.386 114.463 59.1932 114.463V104.463V94.4633C59.8915 94.4633 60.9699 94.57 62.2002 95.0809C63.4942 95.6183 64.6817 96.4923 65.6014 97.6479L57.7772 103.875Z" fill="#00E4FF" mask="url(#path-39-outside-1_927_2325)"/>
</g>
<path d="M44.4708 105.195H43.8228C43.5268 105.195 43.2988 105.095 43.1388 104.895C42.9788 104.695 42.8948 104.367 42.8868 103.911L43.0188 103.947C42.8668 104.363 42.6148 104.695 42.2628 104.943C41.9188 105.191 41.4548 105.315 40.8708 105.315C40.4228 105.315 40.0388 105.247 39.7188 105.111C39.4068 104.975 39.1668 104.771 38.9988 104.499C38.8388 104.227 38.7588 103.883 38.7588 103.467C38.7588 103.139 38.8188 102.863 38.9388 102.639C39.0588 102.407 39.2228 102.223 39.4308 102.087C39.6468 101.943 39.8948 101.839 40.1748 101.775C40.4548 101.703 40.7508 101.667 41.0628 101.667H42.8988V101.091C42.8988 100.667 42.7828 100.351 42.5508 100.143C42.3268 99.9353 41.9588 99.8313 41.4468 99.8313C40.9908 99.8313 40.6468 99.9153 40.4148 100.083C40.1828 100.251 40.0428 100.499 39.9948 100.827H38.9988C39.0388 100.435 39.1628 100.107 39.3708 99.8433C39.5788 99.5713 39.8628 99.3633 40.2228 99.2193C40.5828 99.0753 41.0028 99.0033 41.4828 99.0033C41.7948 99.0033 42.0948 99.0393 42.3828 99.1113C42.6708 99.1833 42.9268 99.3033 43.1508 99.4713C43.3748 99.6393 43.5508 99.8633 43.6788 100.143C43.8148 100.423 43.8828 100.771 43.8828 101.187V104.343H44.4708V105.195ZM39.7308 103.467C39.7308 103.811 39.8348 104.067 40.0428 104.235C40.2508 104.403 40.5668 104.487 40.9908 104.487C41.5828 104.487 42.0468 104.347 42.3828 104.067C42.7268 103.787 42.8988 103.415 42.8988 102.951V102.435H41.0748C40.6428 102.435 40.3108 102.523 40.0788 102.699C39.8548 102.875 39.7388 103.131 39.7308 103.467ZM46.6778 105.195H45.6938V99.1353H46.6778V100.203C46.8218 99.8593 47.0218 99.5953 47.2778 99.4113C47.5418 99.2273 47.8698 99.1353 48.2618 99.1353H48.8018V99.9753H48.1298C47.6578 99.9753 47.2978 100.111 47.0498 100.383C46.8018 100.655 46.6778 101.063 46.6778 101.607V105.195ZM51.8396 105.111C51.0156 105.111 50.3756 104.847 49.9196 104.319C49.4636 103.791 49.2356 103.043 49.2356 102.075C49.2356 101.403 49.3396 100.843 49.5476 100.395C49.7556 99.9393 50.0556 99.5953 50.4476 99.3633C50.8396 99.1233 51.3036 99.0033 51.8396 99.0033C52.3836 99.0033 52.8316 99.1353 53.1836 99.3993C53.5356 99.6633 53.7956 100.027 53.9636 100.491C54.1316 100.947 54.2156 101.475 54.2156 102.075C54.2156 102.659 54.1316 103.183 53.9636 103.647C53.7956 104.103 53.5356 104.463 53.1836 104.727C52.8316 104.983 52.3836 105.111 51.8396 105.111ZM52.0916 104.271C52.6996 104.271 53.1476 104.075 53.4356 103.683C53.7236 103.291 53.8676 102.755 53.8676 102.075C53.8676 101.379 53.7236 100.835 53.4356 100.443C53.1476 100.051 52.6996 99.8553 52.0916 99.8553C51.4516 99.8553 50.9796 100.051 50.6756 100.443C50.3716 100.835 50.2196 101.379 50.2196 102.075C50.2196 102.755 50.3716 103.291 50.6756 103.683C50.9796 104.075 51.4516 104.271 52.0916 104.271ZM53.8796 99.1353H54.8516V105.195H53.8676V100.611L53.8796 100.527V99.1353ZM54.8516 105.051C54.8596 105.979 54.6516 106.659 54.2276 107.091C53.8036 107.523 53.1516 107.739 52.2716 107.739C51.6796 107.739 51.1956 107.663 50.8196 107.511C50.4516 107.367 50.1716 107.155 49.9796 106.875C49.7956 106.603 49.6836 106.279 49.6436 105.903H50.6756C50.6996 106.119 50.7556 106.303 50.8436 106.455C50.9396 106.607 51.0956 106.719 51.3116 106.791C51.5356 106.863 51.8556 106.899 52.2716 106.899C52.7116 106.899 53.0436 106.831 53.2676 106.695C53.4996 106.567 53.6556 106.367 53.7356 106.095C53.8236 105.823 53.8676 105.475 53.8676 105.051H54.8516ZM59.1932 105.315C58.2812 105.315 57.5772 105.043 57.0812 104.499C56.5852 103.955 56.3372 103.179 56.3372 102.171C56.3372 101.155 56.5852 100.375 57.0812 99.8313C57.5772 99.2793 58.2812 99.0033 59.1932 99.0033C59.8012 99.0033 60.3172 99.1273 60.7412 99.3753C61.1652 99.6153 61.4892 99.9713 61.7132 100.443C61.9452 100.907 62.0612 101.479 62.0612 102.159C62.0612 103.183 61.8092 103.967 61.3052 104.511C60.8092 105.047 60.1052 105.315 59.1932 105.315ZM59.1932 104.463C59.8332 104.463 60.3052 104.267 60.6092 103.875C60.9212 103.475 61.0772 102.907 61.0772 102.171C61.0772 101.435 60.9212 100.867 60.6092 100.467C60.3052 100.059 59.8332 99.8553 59.1932 99.8553C58.5612 99.8553 58.0892 100.059 57.7772 100.467C57.4732 100.867 57.3212 101.435 57.3212 102.171C57.3212 102.907 57.4732 103.475 57.7772 103.875C58.0892 104.267 58.5612 104.463 59.1932 104.463Z" fill="white"/>
<defs>
<filter id="filter0_f_927_2325" x="329" y="64.9375" width="75" height="76.8086" filterUnits="userSpaceOnUse" color-interpolation-filters="sRGB">
<feFlood flood-opacity="0" result="BackgroundImageFix"/>
<feBlend mode="normal" in="SourceGraphic" in2="BackgroundImageFix" result="shape"/>
<feGaussianBlur stdDeviation="10" result="effect1_foregroundBlur_927_2325"/>
</filter>
<filter id="filter1_f_927_2325" x="353" y="88.9375" width="27" height="28.8086" filterUnits="userSpaceOnUse" color-interpolation-filters="sRGB">
<feFlood flood-opacity="0" result="BackgroundImageFix"/>
<feBlend mode="normal" in="SourceGraphic" in2="BackgroundImageFix" result="shape"/>
<feGaussianBlur stdDeviation="2.5" result="effect1_foregroundBlur_927_2325"/>
</filter>
<filter id="filter2_f_927_2325" x="7.92639" y="69.0039" width="84.1348" height="68.7344" filterUnits="userSpaceOnUse" color-interpolation-filters="sRGB">
<feFlood flood-opacity="0" result="BackgroundImageFix"/>
<feBlend mode="normal" in="SourceGraphic" in2="BackgroundImageFix" result="shape"/>
<feGaussianBlur stdDeviation="10" result="effect1_foregroundBlur_927_2325"/>
</filter>
</defs>
</svg>
