<svg width="543" height="253" viewBox="0 0 543 253" fill="none" xmlns="http://www.w3.org/2000/svg">
<path d="M8 0.5H535C539.142 0.5 542.5 3.85786 542.5 8V84.5H0.5V8C0.5 3.85786 3.85786 0.5 8 0.5Z" stroke="#A1A1A1" stroke-opacity="0.5"/>
<path d="M30.42 38H29.34C28.8467 38 28.4667 37.8333 28.2 37.5C27.9333 37.1667 27.7933 36.62 27.78 35.86L28 35.92C27.7467 36.6133 27.3267 37.1667 26.74 37.58C26.1667 37.9933 25.3933 38.2 24.42 38.2C23.6733 38.2 23.0333 38.0867 22.5 37.86C21.98 37.6333 21.58 37.2933 21.3 36.84C21.0333 36.3867 20.9 35.8133 20.9 35.12C20.9 34.5733 21 34.1133 21.2 33.74C21.4 33.3533 21.6733 33.0467 22.02 32.82C22.38 32.58 22.7933 32.4067 23.26 32.3C23.7267 32.18 24.22 32.12 24.74 32.12H27.8V31.16C27.8 30.4533 27.6067 29.9267 27.22 29.58C26.8467 29.2333 26.2333 29.06 25.38 29.06C24.62 29.06 24.0467 29.2 23.66 29.48C23.2733 29.76 23.04 30.1733 22.96 30.72H21.3C21.3667 30.0667 21.5733 29.52 21.92 29.08C22.2667 28.6267 22.74 28.28 23.34 28.04C23.94 27.8 24.64 27.68 25.44 27.68C25.96 27.68 26.46 27.74 26.94 27.86C27.42 27.98 27.8467 28.18 28.22 28.46C28.5933 28.74 28.8867 29.1133 29.1 29.58C29.3267 30.0467 29.44 30.6267 29.44 31.32V36.58H30.42V38ZM22.52 35.12C22.52 35.6933 22.6933 36.12 23.04 36.4C23.3867 36.68 23.9133 36.82 24.62 36.82C25.6067 36.82 26.38 36.5867 26.94 36.12C27.5133 35.6533 27.8 35.0333 27.8 34.26V33.4H24.76C24.04 33.4 23.4867 33.5467 23.1 33.84C22.7267 34.1333 22.5333 34.56 22.52 35.12ZM34.0984 38H32.4584V27.9H34.0984V29.68C34.3384 29.1067 34.6718 28.6667 35.0984 28.36C35.5384 28.0533 36.0851 27.9 36.7384 27.9H37.6384V29.3H36.5184C35.7318 29.3 35.1318 29.5267 34.7184 29.98C34.3051 30.4333 34.0984 31.1133 34.0984 32.02V38ZM42.7014 37.86C41.3281 37.86 40.2614 37.42 39.5014 36.54C38.7414 35.66 38.3614 34.4133 38.3614 32.8C38.3614 31.68 38.5347 30.7467 38.8814 30C39.2281 29.24 39.7281 28.6667 40.3814 28.28C41.0347 27.88 41.8081 27.68 42.7014 27.68C43.6081 27.68 44.3547 27.9 44.9414 28.34C45.5281 28.78 45.9614 29.3867 46.2414 30.16C46.5214 30.92 46.6614 31.8 46.6614 32.8C46.6614 33.7733 46.5214 34.6467 46.2414 35.42C45.9614 36.18 45.5281 36.78 44.9414 37.22C44.3547 37.6467 43.6081 37.86 42.7014 37.86ZM43.1214 36.46C44.1347 36.46 44.8814 36.1333 45.3614 35.48C45.8414 34.8267 46.0814 33.9333 46.0814 32.8C46.0814 31.64 45.8414 30.7333 45.3614 30.08C44.8814 29.4267 44.1347 29.1 43.1214 29.1C42.0547 29.1 41.2681 29.4267 40.7614 30.08C40.2547 30.7333 40.0014 31.64 40.0014 32.8C40.0014 33.9333 40.2547 34.8267 40.7614 35.48C41.2681 36.1333 42.0547 36.46 43.1214 36.46ZM46.1014 27.9H47.7214V38H46.0814V30.36L46.1014 30.22V27.9ZM47.7214 37.76C47.7347 39.3067 47.3881 40.44 46.6814 41.16C45.9747 41.88 44.8881 42.24 43.4214 42.24C42.4347 42.24 41.6281 42.1133 41.0014 41.86C40.3881 41.62 39.9214 41.2667 39.6014 40.8C39.2947 40.3467 39.1081 39.8067 39.0414 39.18H40.7614C40.8014 39.54 40.8947 39.8467 41.0414 40.1C41.2014 40.3533 41.4614 40.54 41.8214 40.66C42.1947 40.78 42.7281 40.84 43.4214 40.84C44.1547 40.84 44.7081 40.7267 45.0814 40.5C45.4681 40.2867 45.7281 39.9533 45.8614 39.5C46.0081 39.0467 46.0814 38.4667 46.0814 37.76H47.7214ZM54.9573 38.2C53.4373 38.2 52.264 37.7467 51.4373 36.84C50.6107 35.9333 50.1973 34.64 50.1973 32.96C50.1973 31.2667 50.6107 29.9667 51.4373 29.06C52.264 28.14 53.4373 27.68 54.9573 27.68C55.9707 27.68 56.8307 27.8867 57.5373 28.3C58.244 28.7 58.784 29.2933 59.1573 30.08C59.544 30.8533 59.7373 31.8067 59.7373 32.94C59.7373 34.6467 59.3173 35.9533 58.4773 36.86C57.6507 37.7533 56.4773 38.2 54.9573 38.2ZM54.9573 36.78C56.024 36.78 56.8107 36.4533 57.3173 35.8C57.8373 35.1333 58.0973 34.1867 58.0973 32.96C58.0973 31.7333 57.8373 30.7867 57.3173 30.12C56.8107 29.44 56.024 29.1 54.9573 29.1C53.904 29.1 53.1173 29.44 52.5973 30.12C52.0907 30.7867 51.8373 31.7333 51.8373 32.96C51.8373 34.1867 52.0907 35.1333 52.5973 35.8C53.1173 36.4533 53.904 36.78 54.9573 36.78ZM67.8041 32.38H62.0041V30.94H67.8041V32.38ZM79.5411 38H78.4611C77.9678 38 77.5878 37.8333 77.3211 37.5C77.0544 37.1667 76.9144 36.62 76.9011 35.86L77.1211 35.92C76.8678 36.6133 76.4478 37.1667 75.8611 37.58C75.2878 37.9933 74.5144 38.2 73.5411 38.2C72.7944 38.2 72.1544 38.0867 71.6211 37.86C71.1011 37.6333 70.7011 37.2933 70.4211 36.84C70.1544 36.3867 70.0211 35.8133 70.0211 35.12C70.0211 34.5733 70.1211 34.1133 70.3211 33.74C70.5211 33.3533 70.7944 33.0467 71.1411 32.82C71.5011 32.58 71.9144 32.4067 72.3811 32.3C72.8478 32.18 73.3411 32.12 73.8611 32.12H76.9211V31.16C76.9211 30.4533 76.7278 29.9267 76.3411 29.58C75.9678 29.2333 75.3544 29.06 74.5011 29.06C73.7411 29.06 73.1678 29.2 72.7811 29.48C72.3944 29.76 72.1611 30.1733 72.0811 30.72H70.4211C70.4878 30.0667 70.6944 29.52 71.0411 29.08C71.3878 28.6267 71.8611 28.28 72.4611 28.04C73.0611 27.8 73.7611 27.68 74.5611 27.68C75.0811 27.68 75.5811 27.74 76.0611 27.86C76.5411 27.98 76.9678 28.18 77.3411 28.46C77.7144 28.74 78.0078 29.1133 78.2211 29.58C78.4478 30.0467 78.5611 30.6267 78.5611 31.32V36.58H79.5411V38ZM71.6411 35.12C71.6411 35.6933 71.8144 36.12 72.1611 36.4C72.5078 36.68 73.0344 36.82 73.7411 36.82C74.7278 36.82 75.5011 36.5867 76.0611 36.12C76.6344 35.6533 76.9211 35.0333 76.9211 34.26V33.4H73.8811C73.1611 33.4 72.6078 33.5467 72.2211 33.84C71.8478 34.1333 71.6544 34.56 71.6411 35.12ZM83.2395 27.9V38H81.5995V27.9H83.2395ZM81.4795 23.66H83.3395V25.62H81.4795V23.66ZM86.3847 35.78H88.5647V38H86.3847V35.78ZM96.1563 38H94.4363L90.5763 27.9H92.2763L95.2363 36.26H95.3563L98.3363 27.9H100.036L96.1563 38ZM103.396 27.9V38H101.756V27.9H103.396ZM101.636 23.66H103.496V25.62H101.636V23.66ZM112.221 30.56C112.141 30.04 111.928 29.6667 111.581 29.44C111.248 29.2 110.741 29.08 110.061 29.08C109.328 29.08 108.768 29.2133 108.381 29.48C108.008 29.7333 107.821 30.0667 107.821 30.48C107.821 30.9067 107.968 31.2267 108.261 31.44C108.568 31.6533 109.028 31.8333 109.641 31.98L111.241 32.38C112.188 32.6067 112.888 32.9467 113.341 33.4C113.794 33.8533 114.021 34.4533 114.021 35.2C114.021 36.0667 113.681 36.7867 113.001 37.36C112.321 37.92 111.288 38.2 109.901 38.2C108.661 38.2 107.708 37.9533 107.041 37.46C106.374 36.9667 105.981 36.2067 105.861 35.18H107.581C107.661 35.7267 107.861 36.1333 108.181 36.4C108.501 36.6533 109.061 36.78 109.861 36.78C110.768 36.78 111.408 36.6467 111.781 36.38C112.168 36.1 112.361 35.74 112.361 35.3C112.361 34.8867 112.221 34.56 111.941 34.32C111.661 34.0667 111.208 33.86 110.581 33.7L108.981 33.3C108.061 33.0733 107.368 32.74 106.901 32.3C106.434 31.8467 106.201 31.2733 106.201 30.58C106.201 29.6867 106.528 28.98 107.181 28.46C107.848 27.94 108.808 27.68 110.061 27.68C111.221 27.68 112.114 27.9267 112.741 28.42C113.381 28.9 113.741 29.6133 113.821 30.56H112.221ZM118.142 27.9V38H116.502V27.9H118.142ZM116.382 23.66H118.242V25.62H116.382V23.66ZM125.368 38.2C123.848 38.2 122.674 37.7467 121.848 36.84C121.021 35.9333 120.608 34.64 120.608 32.96C120.608 31.2667 121.021 29.9667 121.848 29.06C122.674 28.14 123.848 27.68 125.368 27.68C126.381 27.68 127.241 27.8867 127.948 28.3C128.654 28.7 129.194 29.2933 129.568 30.08C129.954 30.8533 130.148 31.8067 130.148 32.94C130.148 34.6467 129.728 35.9533 128.888 36.86C128.061 37.7533 126.888 38.2 125.368 38.2ZM125.368 36.78C126.434 36.78 127.221 36.4533 127.728 35.8C128.248 35.1333 128.508 34.1867 128.508 32.96C128.508 31.7333 128.248 30.7867 127.728 30.12C127.221 29.44 126.434 29.1 125.368 29.1C124.314 29.1 123.528 29.44 123.008 30.12C122.501 30.7867 122.248 31.7333 122.248 32.96C122.248 34.1867 122.501 35.1333 123.008 35.8C123.528 36.4533 124.314 36.78 125.368 36.78ZM134.274 38H132.634V27.9H134.274V29.44C134.594 28.92 134.988 28.5 135.454 28.18C135.934 27.8467 136.581 27.68 137.394 27.68C138.501 27.68 139.374 27.9933 140.014 28.62C140.654 29.2333 140.974 30.2533 140.974 31.68V38H139.314V31.74C139.314 30.78 139.114 30.1 138.714 29.7C138.314 29.3 137.734 29.1 136.974 29.1C136.428 29.1 135.948 29.2 135.534 29.4C135.134 29.6 134.821 29.9133 134.594 30.34C134.381 30.7667 134.274 31.34 134.274 32.06V38ZM144.041 35.78H146.221V38H144.041V35.78ZM155.073 30.56C154.993 30.04 154.779 29.6667 154.433 29.44C154.099 29.2 153.593 29.08 152.913 29.08C152.179 29.08 151.619 29.2133 151.233 29.48C150.859 29.7333 150.673 30.0667 150.673 30.48C150.673 30.9067 150.819 31.2267 151.113 31.44C151.419 31.6533 151.879 31.8333 152.493 31.98L154.093 32.38C155.039 32.6067 155.739 32.9467 156.193 33.4C156.646 33.8533 156.873 34.4533 156.873 35.2C156.873 36.0667 156.533 36.7867 155.853 37.36C155.173 37.92 154.139 38.2 152.753 38.2C151.513 38.2 150.559 37.9533 149.893 37.46C149.226 36.9667 148.833 36.2067 148.713 35.18H150.433C150.513 35.7267 150.713 36.1333 151.033 36.4C151.353 36.6533 151.913 36.78 152.713 36.78C153.619 36.78 154.259 36.6467 154.633 36.38C155.019 36.1 155.213 35.74 155.213 35.3C155.213 34.8867 155.073 34.56 154.793 34.32C154.513 34.0667 154.059 33.86 153.433 33.7L151.833 33.3C150.913 33.0733 150.219 32.74 149.753 32.3C149.286 31.8467 149.053 31.2733 149.053 30.58C149.053 29.6867 149.379 28.98 150.033 28.46C150.699 27.94 151.659 27.68 152.913 27.68C154.073 27.68 154.966 27.9267 155.593 28.42C156.233 28.9 156.593 29.6133 156.673 30.56H155.073ZM160.973 38H159.333V23.66H160.973V29.44C161.293 28.92 161.687 28.5 162.153 28.18C162.62 27.8467 163.26 27.68 164.073 27.68C165.207 27.68 166.087 27.9933 166.713 28.62C167.353 29.2333 167.673 30.24 167.673 31.64V38H166.013V31.68C166.013 30.7467 165.813 30.0867 165.413 29.7C165.013 29.3 164.427 29.1 163.653 29.1C163.107 29.1 162.633 29.2 162.233 29.4C161.833 29.5867 161.52 29.8933 161.293 30.32C161.08 30.7467 160.973 31.3 160.973 31.98V38Z" fill="#00FF66"/>
<path d="M21.328 49.688H25.168C26.128 49.688 26.8907 49.8427 27.456 50.152C28.032 50.4507 28.448 50.8667 28.704 51.4C28.96 51.9227 29.088 52.536 29.088 53.24C29.088 53.9227 28.96 54.536 28.704 55.08C28.448 55.624 28.0373 56.0507 27.472 56.36C26.9067 56.6693 26.1493 56.824 25.2 56.824H22.704V61H21.328V49.688ZM25.136 55.64C25.84 55.64 26.3787 55.544 26.752 55.352C27.1253 55.1493 27.3813 54.872 27.52 54.52C27.6587 54.1573 27.728 53.7307 27.728 53.24C27.728 52.7387 27.6587 52.312 27.52 51.96C27.3813 51.608 27.1253 51.3413 26.752 51.16C26.3787 50.968 25.8293 50.872 25.104 50.872H22.704V55.64H25.136ZM31.9975 61H30.6855V52.92H31.9975V54.344C32.1895 53.8853 32.4562 53.5333 32.7975 53.288C33.1495 53.0427 33.5868 52.92 34.1095 52.92H34.8295V54.04H33.9335C33.3042 54.04 32.8242 54.2213 32.4935 54.584C32.1628 54.9467 31.9975 55.4907 31.9975 56.216V61ZM39.3409 61.16C38.1249 61.16 37.1862 60.7973 36.5249 60.072C35.8635 59.3467 35.5329 58.312 35.5329 56.968C35.5329 55.6133 35.8635 54.5733 36.5249 53.848C37.1862 53.112 38.1249 52.744 39.3409 52.744C40.1515 52.744 40.8395 52.9093 41.4049 53.24C41.9702 53.56 42.4022 54.0347 42.7009 54.664C43.0102 55.2827 43.1649 56.0453 43.1649 56.952C43.1649 58.3173 42.8289 59.3627 42.1569 60.088C41.4955 60.8027 40.5569 61.16 39.3409 61.16ZM39.3409 60.024C40.1942 60.024 40.8235 59.7627 41.2289 59.24C41.6449 58.7067 41.8529 57.9493 41.8529 56.968C41.8529 55.9867 41.6449 55.2293 41.2289 54.696C40.8235 54.152 40.1942 53.88 39.3409 53.88C38.4982 53.88 37.8689 54.152 37.4529 54.696C37.0475 55.2293 36.8449 55.9867 36.8449 56.968C36.8449 57.9493 37.0475 58.7067 37.4529 59.24C37.8689 59.7627 38.4982 60.024 39.3409 60.024ZM50.8183 49.528H52.1302V61H50.8183V49.528ZM48.1143 61.16C47.0156 61.16 46.1623 60.8027 45.5543 60.088C44.9463 59.3733 44.6423 58.3333 44.6423 56.968C44.6423 56.0293 44.7809 55.2507 45.0583 54.632C45.3356 54.0027 45.7356 53.5333 46.2582 53.224C46.7809 52.904 47.3996 52.744 48.1143 52.744C48.8396 52.744 49.4369 52.9253 49.9063 53.288C50.3863 53.64 50.7383 54.1307 50.9623 54.76C51.1863 55.3893 51.2983 56.1253 51.2983 56.968C51.2983 57.8 51.1863 58.5307 50.9623 59.16C50.7383 59.7893 50.3863 60.28 49.9063 60.632C49.4369 60.984 48.8396 61.16 48.1143 61.16ZM48.4503 60.04C49.2609 60.04 49.8583 59.7733 50.2423 59.24C50.6263 58.7067 50.8183 57.9493 50.8183 56.968C50.8183 55.976 50.6263 55.2133 50.2423 54.68C49.8583 54.1467 49.2609 53.88 48.4503 53.88C47.5969 53.88 46.9676 54.1467 46.5623 54.68C46.1569 55.2133 45.9543 55.976 45.9543 56.968C45.9543 57.9493 46.1569 58.7067 46.5623 59.24C46.9676 59.7733 47.5969 60.04 48.4503 60.04ZM59.935 52.92H61.247V61H59.935V59.768C59.679 60.1733 59.359 60.5093 58.975 60.776C58.6017 61.032 58.0897 61.16 57.439 61.16C56.5537 61.16 55.855 60.9147 55.343 60.424C54.831 59.9227 54.575 59.1013 54.575 57.96V52.92H55.887L55.871 57.912C55.871 58.68 56.0363 59.224 56.367 59.544C56.6977 59.864 57.167 60.024 57.775 60.024C58.2123 60.024 58.591 59.944 58.911 59.784C59.231 59.624 59.4817 59.3733 59.663 59.032C59.8443 58.68 59.935 58.2267 59.935 57.672V52.92ZM67.1236 61.16C65.8223 61.16 64.8516 60.7973 64.2116 60.072C63.5716 59.336 63.2516 58.296 63.2516 56.952C63.2516 55.608 63.5823 54.5733 64.2436 53.848C64.905 53.112 65.8543 52.744 67.0916 52.744C67.721 52.744 68.2756 52.856 68.7556 53.08C69.2356 53.2933 69.625 53.592 69.9236 53.976C70.2223 54.36 70.4036 54.808 70.4676 55.32H69.1396C69.0756 54.904 68.889 54.5627 68.5796 54.296C68.281 54.0187 67.7903 53.88 67.1076 53.88C66.201 53.88 65.5503 54.152 65.1556 54.696C64.761 55.2293 64.5636 55.9813 64.5636 56.952C64.5636 57.9227 64.761 58.68 65.1556 59.224C65.5503 59.7573 66.201 60.024 67.1076 60.024C67.7583 60.024 68.2436 59.912 68.5636 59.688C68.8836 59.4533 69.0756 59.1067 69.1396 58.648H70.4996C70.4356 59.1173 70.265 59.544 69.9876 59.928C69.721 60.3013 69.3423 60.6 68.8516 60.824C68.3716 61.048 67.7956 61.16 67.1236 61.16ZM76.0199 54.04H74.1639V59.88H75.9879V61H74.8999C74.2492 61 73.7425 60.872 73.3799 60.616C73.0279 60.3493 72.8519 59.8587 72.8519 59.144V54.04H71.4599V52.92H72.8519V50.504H74.1639V52.92H76.0199V54.04ZM79.0916 52.92V61H77.7796V52.92H79.0916ZM77.6836 49.528H79.1716V51.096H77.6836V49.528ZM84.8721 61.16C83.6561 61.16 82.7175 60.7973 82.0561 60.072C81.3948 59.3467 81.0641 58.312 81.0641 56.968C81.0641 55.6133 81.3948 54.5733 82.0561 53.848C82.7175 53.112 83.6561 52.744 84.8721 52.744C85.6828 52.744 86.3708 52.9093 86.9361 53.24C87.5015 53.56 87.9335 54.0347 88.2321 54.664C88.5415 55.2827 88.6961 56.0453 88.6961 56.952C88.6961 58.3173 88.3601 59.3627 87.6881 60.088C87.0268 60.8027 86.0881 61.16 84.8721 61.16ZM84.8721 60.024C85.7255 60.024 86.3548 59.7627 86.7601 59.24C87.1761 58.7067 87.3841 57.9493 87.3841 56.968C87.3841 55.9867 87.1761 55.2293 86.7601 54.696C86.3548 54.152 85.7255 53.88 84.8721 53.88C84.0295 53.88 83.4001 54.152 82.9841 54.696C82.5788 55.2293 82.3761 55.9867 82.3761 56.968C82.3761 57.9493 82.5788 58.7067 82.9841 59.24C83.4001 59.7627 84.0295 60.024 84.8721 60.024ZM91.9975 61H90.6855V52.92H91.9975V54.152C92.2535 53.736 92.5682 53.4 92.9415 53.144C93.3255 52.8773 93.8428 52.744 94.4935 52.744C95.3788 52.744 96.0775 52.9947 96.5895 53.496C97.1015 53.9867 97.3575 54.8027 97.3575 55.944V61H96.0295V55.992C96.0295 55.224 95.8695 54.68 95.5495 54.36C95.2295 54.04 94.7655 53.88 94.1575 53.88C93.7202 53.88 93.3362 53.96 93.0055 54.12C92.6855 54.28 92.4348 54.5307 92.2535 54.872C92.0828 55.2133 91.9975 55.672 91.9975 56.248V61Z" fill="#A1A1A1"/>
<circle cx="444.336" cy="31.5625" r="5" fill="#00FF66"/>
<path d="M466.216 31.7185L469.192 37.0625H467.144L464.408 32.0225L466.216 31.7185ZM464.52 31.2705C465.171 31.2705 465.661 31.2012 465.992 31.0625C466.323 30.9132 466.547 30.6945 466.664 30.4065C466.781 30.1078 466.84 29.7345 466.84 29.2865C466.84 28.8385 466.781 28.4652 466.664 28.1665C466.547 27.8678 466.317 27.6438 465.976 27.4945C465.645 27.3452 465.155 27.2705 464.504 27.2705H462.376V31.2705H464.52ZM464.584 32.7905H462.376V37.0625H460.584V25.7505H464.568C465.581 25.7505 466.381 25.9052 466.968 26.2145C467.565 26.5132 467.987 26.9292 468.232 27.4625C468.488 27.9958 468.616 28.6038 468.616 29.2865C468.616 29.7772 468.557 30.2358 468.44 30.6625C468.323 31.0785 468.115 31.4465 467.816 31.7665C467.517 32.0865 467.107 32.3372 466.584 32.5185C466.061 32.6998 465.395 32.7905 464.584 32.7905ZM471.311 32.2785H476.351C476.33 31.5532 476.143 31.0092 475.791 30.6465C475.45 30.2732 474.948 30.0865 474.287 30.0865C473.519 30.0865 472.959 30.3212 472.607 30.7905C472.266 31.2492 472.095 31.9692 472.095 32.9505C472.095 33.9425 472.266 34.6732 472.607 35.1425C472.948 35.6118 473.546 35.8465 474.399 35.8465C474.986 35.8465 475.402 35.7612 475.647 35.5905C475.903 35.4092 476.074 35.1638 476.159 34.8545H477.951C477.876 35.3132 477.69 35.7238 477.391 36.0865C477.103 36.4385 476.708 36.7158 476.207 36.9185C475.716 37.1212 475.114 37.2225 474.399 37.2225C473.087 37.2225 472.084 36.8545 471.391 36.1185C470.708 35.3825 470.367 34.3372 470.367 32.9825C470.367 31.6065 470.708 30.5505 471.391 29.8145C472.084 29.0785 473.05 28.7105 474.287 28.7105C475.023 28.7105 475.674 28.8598 476.239 29.1585C476.804 29.4572 477.247 29.9212 477.567 30.5505C477.898 31.1692 478.063 31.9745 478.063 32.9665V33.5105H471.295L471.311 32.2785ZM487.207 37.0625H486.183C485.735 37.0625 485.389 36.9078 485.143 36.5985C484.909 36.2892 484.786 35.8518 484.775 35.2865L485.047 35.3345C484.866 35.8892 484.557 36.3425 484.119 36.6945C483.693 37.0465 483.085 37.2225 482.295 37.2225C481.687 37.2225 481.159 37.1318 480.711 36.9505C480.274 36.7692 479.933 36.4972 479.687 36.1345C479.453 35.7612 479.335 35.2812 479.335 34.6945C479.335 34.2038 479.426 33.7985 479.607 33.4785C479.799 33.1478 480.05 32.8918 480.359 32.7105C480.679 32.5292 481.031 32.4012 481.415 32.3265C481.799 32.2412 482.189 32.1985 482.583 32.1985H484.775V31.5585C484.775 31.0572 484.642 30.6892 484.375 30.4545C484.119 30.2092 483.687 30.0865 483.079 30.0865C482.525 30.0865 482.114 30.1825 481.847 30.3745C481.581 30.5665 481.421 30.8705 481.367 31.2865H479.639C479.682 30.7318 479.858 30.2625 480.167 29.8785C480.487 29.4945 480.903 29.2065 481.415 29.0145C481.927 28.8118 482.498 28.7105 483.127 28.7105C483.501 28.7105 483.885 28.7532 484.279 28.8385C484.674 28.9238 485.037 29.0732 485.367 29.2865C485.698 29.4998 485.965 29.8038 486.167 30.1985C486.381 30.5825 486.487 31.0785 486.487 31.6865V35.6385H487.207V37.0625ZM481.015 34.6785C481.015 35.0838 481.133 35.3825 481.367 35.5745C481.602 35.7665 481.975 35.8625 482.487 35.8625C483.202 35.8625 483.762 35.6918 484.167 35.3505C484.573 35.0092 484.775 34.5612 484.775 34.0065V33.4305H482.599C482.066 33.4305 481.666 33.5372 481.399 33.7505C481.143 33.9532 481.015 34.2625 481.015 34.6785ZM494.37 25.5745H496.098V37.0625H494.37V25.5745ZM491.746 37.2225C490.669 37.2225 489.81 36.8652 489.17 36.1505C488.541 35.4358 488.226 34.3798 488.226 32.9825C488.226 32.0012 488.376 31.2012 488.674 30.5825C488.973 29.9532 489.389 29.4838 489.922 29.1745C490.456 28.8652 491.064 28.7105 491.746 28.7105C492.514 28.7105 493.133 28.8972 493.602 29.2705C494.082 29.6438 494.429 30.1505 494.642 30.7905C494.866 31.4305 494.978 32.1612 494.978 32.9825C494.978 33.7932 494.866 34.5185 494.642 35.1585C494.429 35.7878 494.082 36.2892 493.602 36.6625C493.133 37.0358 492.514 37.2225 491.746 37.2225ZM492.194 35.8145C492.952 35.8145 493.501 35.5745 493.842 35.0945C494.194 34.6038 494.37 33.8945 494.37 32.9665C494.37 32.0492 494.194 31.3452 493.842 30.8545C493.501 30.3638 492.952 30.1185 492.194 30.1185C491.416 30.1185 490.845 30.3638 490.482 30.8545C490.13 31.3452 489.954 32.0492 489.954 32.9665C489.954 33.8945 490.13 34.6038 490.482 35.0945C490.845 35.5745 491.416 35.8145 492.194 35.8145ZM504.057 28.8865H505.753L502.953 38.2785C502.719 39.0358 502.377 39.5585 501.929 39.8465C501.492 40.1452 500.937 40.2945 500.265 40.2945H498.921V38.8705H500.121C500.516 38.8705 500.815 38.7958 501.017 38.6465C501.231 38.5078 501.396 38.2305 501.513 37.8145L504.057 28.8865ZM499.337 28.8865L501.161 34.4385C501.257 34.7052 501.337 34.9185 501.401 35.0785C501.465 35.2385 501.535 35.3558 501.609 35.4305C501.695 35.5052 501.801 35.5425 501.929 35.5425H503.049V36.9985H501.689C501.316 36.9985 501.012 36.9398 500.777 36.8225C500.543 36.7052 500.34 36.5025 500.169 36.2145C499.999 35.9158 499.823 35.4998 499.641 34.9665L497.593 28.8865H499.337Z" fill="#888888"/>
<path d="M462.996 60.0536C462.404 60.0536 461.892 59.9616 461.46 59.7776C461.036 59.5936 460.704 59.3256 460.464 58.9736C460.232 58.6136 460.104 58.1816 460.08 57.6776H461.16C461.184 58.0056 461.264 58.2816 461.4 58.5056C461.544 58.7296 461.748 58.8976 462.012 59.0096C462.276 59.1216 462.608 59.1776 463.008 59.1776C463.592 59.1776 464.048 59.0256 464.376 58.7216C464.712 58.4176 464.88 57.9736 464.88 57.3896C464.88 56.8216 464.712 56.3896 464.376 56.0936C464.048 55.7976 463.584 55.6496 462.984 55.6496H461.928V54.9176L464.844 51.8096L464.928 52.3256H460.452V51.4496H465.696V52.2056L462.876 55.2056L462.84 54.7736C463.432 54.7656 463.924 54.8416 464.316 55.0016C464.716 55.1536 465.032 55.3576 465.264 55.6136C465.496 55.8696 465.66 56.1536 465.756 56.4656C465.86 56.7696 465.912 57.0776 465.912 57.3896C465.912 57.9496 465.792 58.4296 465.552 58.8296C465.312 59.2216 464.972 59.5256 464.532 59.7416C464.1 59.9496 463.588 60.0536 462.996 60.0536ZM467.549 53.8736H468.521V54.7736C468.721 54.4376 468.969 54.1856 469.265 54.0176C469.561 53.8416 469.909 53.7536 470.309 53.7536C470.757 53.7536 471.133 53.8536 471.437 54.0536C471.741 54.2456 471.953 54.5496 472.073 54.9656H472.133C472.341 54.5496 472.597 54.2456 472.901 54.0536C473.213 53.8536 473.593 53.7536 474.041 53.7536C474.337 53.7536 474.609 53.7976 474.857 53.8856C475.105 53.9736 475.317 54.1136 475.493 54.3056C475.669 54.4896 475.805 54.7376 475.901 55.0496C476.005 55.3536 476.057 55.7216 476.057 56.1536V59.9336H475.061L475.073 56.1896C475.073 55.5976 474.961 55.1856 474.737 54.9536C474.521 54.7216 474.185 54.6056 473.729 54.6056C473.281 54.6056 472.929 54.7456 472.673 55.0256C472.417 55.2976 472.289 55.7456 472.289 56.3696V59.9336H471.305L471.317 56.1896C471.317 55.7896 471.265 55.4736 471.161 55.2416C471.065 55.0096 470.921 54.8456 470.729 54.7496C470.537 54.6536 470.293 54.6056 469.997 54.6056C469.533 54.6056 469.169 54.7416 468.905 55.0136C468.649 55.2856 468.521 55.7336 468.521 56.3576L468.533 59.9336H467.549V53.8736ZM483.67 59.9336H482.65V52.0496L483.19 52.1336L480.538 53.8976V52.8656L482.638 51.4496H483.67V59.9336ZM486.542 57.2456C486.55 56.9576 486.59 56.6696 486.662 56.3816C486.742 56.0856 486.874 55.7656 487.058 55.4216C487.242 55.0776 487.494 54.6856 487.814 54.2456L489.878 51.4496H491.054L488.114 55.4096L488.042 55.0136C488.162 54.9416 488.29 54.8736 488.426 54.8096C488.562 54.7456 488.718 54.6936 488.894 54.6536C489.07 54.6136 489.266 54.5936 489.482 54.5936C490.042 54.5936 490.526 54.7056 490.934 54.9296C491.35 55.1536 491.666 55.4696 491.882 55.8776C492.106 56.2776 492.218 56.7536 492.218 57.3056C492.218 57.8576 492.106 58.3416 491.882 58.7576C491.666 59.1656 491.346 59.4856 490.922 59.7176C490.498 59.9416 489.986 60.0536 489.386 60.0536C488.474 60.0536 487.77 59.7976 487.274 59.2856C486.778 58.7736 486.534 58.0936 486.542 57.2456ZM487.55 57.3056C487.55 57.8736 487.694 58.3296 487.982 58.6736C488.27 59.0096 488.738 59.1776 489.386 59.1776C490.018 59.1776 490.478 59.0096 490.766 58.6736C491.054 58.3296 491.198 57.8736 491.198 57.3056C491.198 56.7296 491.054 56.2816 490.766 55.9616C490.478 55.6336 490.018 55.4696 489.386 55.4696C488.81 55.4696 488.358 55.6336 488.03 55.9616C487.71 56.2816 487.55 56.7296 487.55 57.3056ZM497.336 55.4696C497.288 55.1576 497.16 54.9336 496.952 54.7976C496.752 54.6536 496.448 54.5816 496.04 54.5816C495.6 54.5816 495.264 54.6616 495.032 54.8216C494.808 54.9736 494.696 55.1736 494.696 55.4216C494.696 55.6776 494.784 55.8696 494.96 55.9976C495.144 56.1256 495.42 56.2336 495.788 56.3216L496.748 56.5616C497.316 56.6976 497.736 56.9016 498.008 57.1736C498.28 57.4456 498.416 57.8056 498.416 58.2536C498.416 58.7736 498.212 59.2056 497.804 59.5496C497.396 59.8856 496.776 60.0536 495.944 60.0536C495.2 60.0536 494.628 59.9056 494.228 59.6096C493.828 59.3136 493.592 58.8576 493.52 58.2416H494.552C494.6 58.5696 494.72 58.8136 494.912 58.9736C495.104 59.1256 495.44 59.2016 495.92 59.2016C496.464 59.2016 496.848 59.1216 497.072 58.9616C497.304 58.7936 497.42 58.5776 497.42 58.3136C497.42 58.0656 497.336 57.8696 497.168 57.7256C497 57.5736 496.728 57.4496 496.352 57.3536L495.392 57.1136C494.84 56.9776 494.424 56.7776 494.144 56.5136C493.864 56.2416 493.724 55.8976 493.724 55.4816C493.724 54.9456 493.92 54.5216 494.312 54.2096C494.712 53.8976 495.288 53.7416 496.04 53.7416C496.736 53.7416 497.272 53.8896 497.648 54.1856C498.032 54.4736 498.248 54.9016 498.296 55.4696H497.336Z" fill="#A1A1A1"/>
<path d="M542.5 84.5V168.5H0.5V84.5H542.5Z" stroke="#A1A1A1" stroke-opacity="0.5"/>
<path d="M27.26 114.56C27.18 114.04 26.9667 113.667 26.62 113.44C26.2867 113.2 25.78 113.08 25.1 113.08C24.3667 113.08 23.8067 113.213 23.42 113.48C23.0467 113.733 22.86 114.067 22.86 114.48C22.86 114.907 23.0067 115.227 23.3 115.44C23.6067 115.653 24.0667 115.833 24.68 115.98L26.28 116.38C27.2267 116.607 27.9267 116.947 28.38 117.4C28.8333 117.853 29.06 118.453 29.06 119.2C29.06 120.067 28.72 120.787 28.04 121.36C27.36 121.92 26.3267 122.2 24.94 122.2C23.7 122.2 22.7467 121.953 22.08 121.46C21.4133 120.967 21.02 120.207 20.9 119.18H22.62C22.7 119.727 22.9 120.133 23.22 120.4C23.54 120.653 24.1 120.78 24.9 120.78C25.8067 120.78 26.4467 120.647 26.82 120.38C27.2067 120.1 27.4 119.74 27.4 119.3C27.4 118.887 27.26 118.56 26.98 118.32C26.7 118.067 26.2467 117.86 25.62 117.7L24.02 117.3C23.1 117.073 22.4067 116.74 21.94 116.3C21.4733 115.847 21.24 115.273 21.24 114.58C21.24 113.687 21.5667 112.98 22.22 112.46C22.8867 111.94 23.8467 111.68 25.1 111.68C26.26 111.68 27.1533 111.927 27.78 112.42C28.42 112.9 28.78 113.613 28.86 114.56H27.26ZM33.1809 111.9V122H31.5409V111.9H33.1809ZM31.4209 107.66H33.2809V109.62H31.4209V107.66ZM40.6694 113.3H38.3494V120.6H40.6294V122H39.2694C38.456 122 37.8227 121.84 37.3694 121.52C36.9294 121.187 36.7094 120.573 36.7094 119.68V113.3H34.9694V111.9H36.7094V108.88H38.3494V111.9H40.6694V113.3ZM42.7552 116.22H49.5552C49.5418 115.18 49.2952 114.393 48.8152 113.86C48.3485 113.327 47.6352 113.06 46.6752 113.06C45.6085 113.06 44.8285 113.387 44.3352 114.04C43.8418 114.68 43.5952 115.633 43.5952 116.9C43.5952 118.193 43.8352 119.173 44.3152 119.84C44.8085 120.493 45.6418 120.82 46.8152 120.82C47.6018 120.82 48.1752 120.693 48.5352 120.44C48.8952 120.187 49.1418 119.847 49.2752 119.42H51.0152C50.8818 119.953 50.6418 120.433 50.2952 120.86C49.9485 121.273 49.4885 121.6 48.9152 121.84C48.3552 122.08 47.6552 122.2 46.8152 122.2C45.2152 122.2 44.0018 121.74 43.1752 120.82C42.3618 119.9 41.9552 118.607 41.9552 116.94C41.9552 115.247 42.3618 113.947 43.1752 113.04C44.0018 112.133 45.1685 111.68 46.6752 111.68C47.5018 111.68 48.2552 111.853 48.9352 112.2C49.6152 112.547 50.1618 113.1 50.5752 113.86C50.9885 114.62 51.1952 115.64 51.1952 116.92V117.48H42.7352L42.7552 116.22ZM59.2103 116.38H53.4103V114.94H59.2103V116.38ZM66.2073 122.2C64.6873 122.2 63.514 121.747 62.6873 120.84C61.8607 119.933 61.4473 118.64 61.4473 116.96C61.4473 115.267 61.8607 113.967 62.6873 113.06C63.514 112.14 64.6873 111.68 66.2073 111.68C67.2207 111.68 68.0807 111.887 68.7873 112.3C69.494 112.7 70.034 113.293 70.4073 114.08C70.794 114.853 70.9873 115.807 70.9873 116.94C70.9873 118.647 70.5673 119.953 69.7273 120.86C68.9007 121.753 67.7273 122.2 66.2073 122.2ZM66.2073 120.78C67.274 120.78 68.0607 120.453 68.5673 119.8C69.0873 119.133 69.3473 118.187 69.3473 116.96C69.3473 115.733 69.0873 114.787 68.5673 114.12C68.0607 113.44 67.274 113.1 66.2073 113.1C65.154 113.1 64.3673 113.44 63.8473 114.12C63.3407 114.787 63.0873 115.733 63.0873 116.96C63.0873 118.187 63.3407 119.133 63.8473 119.8C64.3673 120.453 65.154 120.78 66.2073 120.78ZM75.1141 122H73.4741V111.9H75.1141V113.44C75.4341 112.92 75.8274 112.5 76.2941 112.18C76.7741 111.847 77.4207 111.68 78.2341 111.68C79.3407 111.68 80.2141 111.993 80.8541 112.62C81.4941 113.233 81.8141 114.253 81.8141 115.68V122H80.1541V115.74C80.1541 114.78 79.9541 114.1 79.5541 113.7C79.1541 113.3 78.5741 113.1 77.8141 113.1C77.2674 113.1 76.7874 113.2 76.3741 113.4C75.9741 113.6 75.6607 113.913 75.4341 114.34C75.2207 114.767 75.1141 115.34 75.1141 116.06V122ZM86.5008 122H84.8608V107.66H86.5008V122ZM91.2864 111.9V122H89.6464V111.9H91.2864ZM89.5264 107.66H91.3864V109.62H89.5264V107.66ZM95.993 122H94.353V111.9H95.993V113.44C96.313 112.92 96.7063 112.5 97.173 112.18C97.653 111.847 98.2996 111.68 99.113 111.68C100.22 111.68 101.093 111.993 101.733 112.62C102.373 113.233 102.693 114.253 102.693 115.68V122H101.033V115.74C101.033 114.78 100.833 114.1 100.433 113.7C100.033 113.3 99.453 113.1 98.693 113.1C98.1463 113.1 97.6663 113.2 97.253 113.4C96.853 113.6 96.5396 113.913 96.313 114.34C96.0996 114.767 95.993 115.34 95.993 116.06V122ZM105.9 116.22H112.7C112.686 115.18 112.44 114.393 111.96 113.86C111.493 113.327 110.78 113.06 109.82 113.06C108.753 113.06 107.973 113.387 107.48 114.04C106.986 114.68 106.74 115.633 106.74 116.9C106.74 118.193 106.98 119.173 107.46 119.84C107.953 120.493 108.786 120.82 109.96 120.82C110.746 120.82 111.32 120.693 111.68 120.44C112.04 120.187 112.286 119.847 112.42 119.42H114.16C114.026 119.953 113.786 120.433 113.44 120.86C113.093 121.273 112.633 121.6 112.06 121.84C111.5 122.08 110.8 122.2 109.96 122.2C108.36 122.2 107.146 121.74 106.32 120.82C105.506 119.9 105.1 118.607 105.1 116.94C105.1 115.247 105.506 113.947 106.32 113.04C107.146 112.133 108.313 111.68 109.82 111.68C110.646 111.68 111.4 111.853 112.08 112.2C112.76 112.547 113.306 113.1 113.72 113.86C114.133 114.62 114.34 115.64 114.34 116.92V117.48H105.88L105.9 116.22ZM122.355 116.38H116.555V114.94H122.355V116.38ZM124.092 111.9H125.752L128.252 120.28H128.312L130.592 111.9H132.512L134.792 120.24H134.872L137.372 111.9H139.012L135.752 122H133.892L131.592 113.6H131.472L129.152 122H127.312L124.092 111.9ZM144.703 122.2C143.183 122.2 142.01 121.747 141.183 120.84C140.357 119.933 139.943 118.64 139.943 116.96C139.943 115.267 140.357 113.967 141.183 113.06C142.01 112.14 143.183 111.68 144.703 111.68C145.717 111.68 146.577 111.887 147.283 112.3C147.99 112.7 148.53 113.293 148.903 114.08C149.29 114.853 149.483 115.807 149.483 116.94C149.483 118.647 149.063 119.953 148.223 120.86C147.397 121.753 146.223 122.2 144.703 122.2ZM144.703 120.78C145.77 120.78 146.557 120.453 147.063 119.8C147.583 119.133 147.843 118.187 147.843 116.96C147.843 115.733 147.583 114.787 147.063 114.12C146.557 113.44 145.77 113.1 144.703 113.1C143.65 113.1 142.863 113.44 142.343 114.12C141.837 114.787 141.583 115.733 141.583 116.96C141.583 118.187 141.837 119.133 142.343 119.8C142.863 120.453 143.65 120.78 144.703 120.78ZM153.61 122H151.97V111.9H153.61V113.68C153.85 113.107 154.183 112.667 154.61 112.36C155.05 112.053 155.597 111.9 156.25 111.9H157.15V113.3H156.03C155.243 113.3 154.643 113.527 154.23 113.98C153.817 114.433 153.61 115.113 153.61 116.02V122ZM162.448 115.44L167.708 122H165.668L161.288 116.44L162.448 115.44ZM160.388 122H158.748V107.66H160.388V122ZM159.848 116.78L164.888 111.9H166.968L159.848 118.66V116.78ZM169.588 119.78H171.768V122H169.588V119.78ZM179.119 122.2C177.493 122.2 176.279 121.747 175.479 120.84C174.679 119.92 174.279 118.62 174.279 116.94C174.279 115.26 174.693 113.967 175.519 113.06C176.346 112.14 177.533 111.68 179.079 111.68C179.866 111.68 180.559 111.82 181.159 112.1C181.759 112.367 182.246 112.74 182.619 113.22C182.993 113.7 183.219 114.26 183.299 114.9H181.639C181.559 114.38 181.326 113.953 180.939 113.62C180.566 113.273 179.953 113.1 179.099 113.1C177.966 113.1 177.153 113.44 176.659 114.12C176.166 114.787 175.919 115.727 175.919 116.94C175.919 118.153 176.166 119.1 176.659 119.78C177.153 120.447 177.966 120.78 179.099 120.78C179.913 120.78 180.519 120.64 180.919 120.36C181.319 120.067 181.559 119.633 181.639 119.06H183.339C183.259 119.647 183.046 120.18 182.699 120.66C182.366 121.127 181.893 121.5 181.279 121.78C180.679 122.06 179.959 122.2 179.119 122.2ZM190.24 113.3H187.92V120.6H190.2V122H188.84C188.026 122 187.393 121.84 186.94 121.52C186.5 121.187 186.28 120.573 186.28 119.68V113.3H184.54V111.9H186.28V108.88H187.92V111.9H190.24V113.3ZM196.705 113.3H194.385V120.6H196.665V122H195.305C194.491 122 193.858 121.84 193.405 121.52C192.965 121.187 192.745 120.573 192.745 119.68V113.3H191.005V111.9H192.745V108.88H194.385V111.9H196.705V113.3ZM198.689 119.78H200.869V122H198.689V119.78ZM204.021 111.9H205.641V113.4C205.974 112.84 206.388 112.42 206.881 112.14C207.374 111.847 207.954 111.7 208.621 111.7C209.368 111.7 209.994 111.867 210.501 112.2C211.008 112.52 211.361 113.027 211.561 113.72H211.661C212.008 113.027 212.434 112.52 212.941 112.2C213.461 111.867 214.094 111.7 214.841 111.7C215.334 111.7 215.788 111.773 216.201 111.92C216.614 112.067 216.968 112.3 217.261 112.62C217.554 112.927 217.781 113.34 217.941 113.86C218.114 114.367 218.201 114.98 218.201 115.7V122H216.541L216.561 115.76C216.561 114.773 216.374 114.087 216.001 113.7C215.641 113.313 215.081 113.12 214.321 113.12C213.574 113.12 212.988 113.353 212.561 113.82C212.134 114.273 211.921 115.02 211.921 116.06V122H210.281L210.301 115.76C210.301 115.093 210.214 114.567 210.041 114.18C209.881 113.793 209.641 113.52 209.321 113.36C209.001 113.2 208.594 113.12 208.101 113.12C207.328 113.12 206.721 113.347 206.281 113.8C205.854 114.253 205.641 115 205.641 116.04L205.661 122H204.021V111.9Z" fill="#00FF66"/>
<path d="M21.328 133.688H25.168C26.128 133.688 26.8907 133.843 27.456 134.152C28.032 134.451 28.448 134.867 28.704 135.4C28.96 135.923 29.088 136.536 29.088 137.24C29.088 137.923 28.96 138.536 28.704 139.08C28.448 139.624 28.0373 140.051 27.472 140.36C26.9067 140.669 26.1493 140.824 25.2 140.824H22.704V145H21.328V133.688ZM25.136 139.64C25.84 139.64 26.3787 139.544 26.752 139.352C27.1253 139.149 27.3813 138.872 27.52 138.52C27.6587 138.157 27.728 137.731 27.728 137.24C27.728 136.739 27.6587 136.312 27.52 135.96C27.3813 135.608 27.1253 135.341 26.752 135.16C26.3787 134.968 25.8293 134.872 25.104 134.872H22.704V139.64H25.136ZM31.9975 145H30.6855V136.92H31.9975V138.344C32.1895 137.885 32.4562 137.533 32.7975 137.288C33.1495 137.043 33.5868 136.92 34.1095 136.92H34.8295V138.04H33.9335C33.3042 138.04 32.8242 138.221 32.4935 138.584C32.1628 138.947 31.9975 139.491 31.9975 140.216V145ZM36.1729 140.376H41.6129C41.6022 139.544 41.4049 138.915 41.0209 138.488C40.6475 138.061 40.0769 137.848 39.3089 137.848C38.4555 137.848 37.8315 138.109 37.4369 138.632C37.0422 139.144 36.8449 139.907 36.8449 140.92C36.8449 141.955 37.0369 142.739 37.4209 143.272C37.8155 143.795 38.4822 144.056 39.4209 144.056C40.0502 144.056 40.5089 143.955 40.7969 143.752C41.0849 143.549 41.2822 143.277 41.3889 142.936H42.7809C42.6742 143.363 42.4822 143.747 42.2049 144.088C41.9275 144.419 41.5595 144.68 41.1009 144.872C40.6529 145.064 40.0929 145.16 39.4209 145.16C38.1409 145.16 37.1702 144.792 36.5089 144.056C35.8582 143.32 35.5329 142.285 35.5329 140.952C35.5329 139.597 35.8582 138.557 36.5089 137.832C37.1702 137.107 38.1035 136.744 39.3089 136.744C39.9702 136.744 40.5729 136.883 41.1169 137.16C41.6609 137.437 42.0982 137.88 42.4289 138.488C42.7595 139.096 42.9249 139.912 42.9249 140.936V141.384H36.1569L36.1729 140.376ZM47.9563 145H46.5803L43.4923 136.92H44.8523L47.2203 143.608H47.3163L49.7003 136.92H51.0603L47.9563 145ZM53.7479 136.92V145H52.4359V136.92H53.7479ZM52.3399 133.528H53.8279V135.096H52.3399V133.528ZM56.3604 140.376H61.8004C61.7897 139.544 61.5924 138.915 61.2084 138.488C60.835 138.061 60.2644 137.848 59.4964 137.848C58.643 137.848 58.019 138.109 57.6244 138.632C57.2297 139.144 57.0324 139.907 57.0324 140.92C57.0324 141.955 57.2244 142.739 57.6084 143.272C58.003 143.795 58.6697 144.056 59.6084 144.056C60.2377 144.056 60.6964 143.955 60.9844 143.752C61.2724 143.549 61.4697 143.277 61.5764 142.936H62.9684C62.8617 143.363 62.6697 143.747 62.3924 144.088C62.115 144.419 61.747 144.68 61.2884 144.872C60.8404 145.064 60.2804 145.16 59.6084 145.16C58.3284 145.16 57.3577 144.792 56.6964 144.056C56.0457 143.32 55.7204 142.285 55.7204 140.952C55.7204 139.597 56.0457 138.557 56.6964 137.832C57.3577 137.107 58.291 136.744 59.4964 136.744C60.1577 136.744 60.7604 136.883 61.3044 137.16C61.8484 137.437 62.2857 137.88 62.6164 138.488C62.947 139.096 63.1124 139.912 63.1124 140.936V141.384H56.3444L56.3604 140.376ZM63.8048 136.92H65.1328L67.1328 143.624H67.1808L69.0048 136.92H70.5408L72.3648 143.592H72.4288L74.4288 136.92H75.7408L73.1328 145H71.6448L69.8048 138.28H69.7088L67.8528 145H66.3808L63.8048 136.92Z" fill="#A1A1A1"/>
<circle cx="444.336" cy="115.562" r="5" fill="#00B6CC"/>
<path d="M460.648 109.75H464.856C465.763 109.75 466.488 109.884 467.032 110.15C467.576 110.417 467.971 110.78 468.216 111.238C468.461 111.697 468.584 112.22 468.584 112.806C468.584 113.308 468.472 113.724 468.248 114.054C468.024 114.385 467.747 114.636 467.416 114.806C467.096 114.977 466.765 115.089 466.424 115.142V115.222C466.691 115.233 466.973 115.297 467.272 115.414C467.581 115.521 467.864 115.686 468.12 115.91C468.387 116.134 468.605 116.422 468.776 116.774C468.947 117.116 469.032 117.521 469.032 117.99C469.032 118.577 468.904 119.105 468.648 119.574C468.403 120.033 467.981 120.396 467.384 120.662C466.797 120.929 465.997 121.062 464.984 121.062H460.648V109.75ZM464.968 119.558C465.608 119.558 466.093 119.494 466.424 119.366C466.755 119.238 466.979 119.052 467.096 118.806C467.213 118.55 467.272 118.252 467.272 117.91C467.272 117.537 467.192 117.212 467.032 116.934C466.883 116.657 466.643 116.444 466.312 116.294C465.992 116.134 465.571 116.054 465.048 116.054H462.44V119.558H464.968ZM464.792 114.566C465.475 114.566 465.981 114.428 466.312 114.15C466.653 113.862 466.824 113.425 466.824 112.839C466.824 112.518 466.771 112.241 466.664 112.006C466.568 111.761 466.376 111.574 466.088 111.446C465.8 111.318 465.384 111.254 464.84 111.254H462.44V114.566H464.792ZM475.97 112.886H477.698V121.062H475.97V119.942C475.725 120.337 475.421 120.652 475.058 120.886C474.706 121.111 474.237 121.223 473.65 121.223C472.754 121.223 472.039 120.972 471.506 120.47C470.973 119.969 470.706 119.132 470.706 117.958V112.886H472.418V117.926C472.418 118.588 472.557 119.068 472.834 119.366C473.122 119.654 473.538 119.798 474.082 119.798C474.487 119.798 474.829 119.724 475.106 119.574C475.383 119.425 475.597 119.196 475.746 118.886C475.895 118.577 475.97 118.177 475.97 117.686V112.886ZM481.716 112.886V121.062H479.988V112.886H481.716ZM479.924 109.574H481.796V111.446H479.924V109.574ZM485.732 121.062H484.004V109.574H485.732V121.062ZM493.714 109.574H495.442V121.062H493.714V109.574ZM491.09 121.223C490.013 121.223 489.154 120.865 488.514 120.15C487.885 119.436 487.57 118.38 487.57 116.982C487.57 116.001 487.719 115.201 488.018 114.582C488.317 113.953 488.733 113.484 489.266 113.174C489.799 112.865 490.407 112.71 491.09 112.71C491.858 112.71 492.477 112.897 492.946 113.27C493.426 113.644 493.773 114.15 493.986 114.79C494.21 115.43 494.322 116.161 494.322 116.982C494.322 117.793 494.21 118.518 493.986 119.158C493.773 119.788 493.426 120.289 492.946 120.662C492.477 121.036 491.858 121.223 491.09 121.223ZM491.538 119.814C492.295 119.814 492.845 119.574 493.186 119.094C493.538 118.604 493.714 117.894 493.714 116.966C493.714 116.049 493.538 115.345 493.186 114.854C492.845 114.364 492.295 114.118 491.538 114.118C490.759 114.118 490.189 114.364 489.826 114.854C489.474 115.345 489.298 116.049 489.298 116.966C489.298 117.894 489.474 118.604 489.826 119.094C490.189 119.574 490.759 119.814 491.538 119.814ZM499.466 112.886V121.062H497.738V112.886H499.466ZM497.674 109.574H499.546V111.446H497.674V109.574ZM503.482 121.062H501.754V112.886H503.482V113.99C503.738 113.596 504.042 113.286 504.394 113.062C504.746 112.828 505.215 112.71 505.802 112.71C506.698 112.71 507.413 112.961 507.946 113.462C508.479 113.964 508.746 114.806 508.746 115.99V121.062H507.018V116.006C507.018 115.345 506.879 114.87 506.602 114.582C506.335 114.284 505.93 114.134 505.386 114.134C504.981 114.134 504.634 114.209 504.346 114.358C504.069 114.508 503.855 114.737 503.706 115.046C503.557 115.345 503.482 115.745 503.482 116.246V121.062ZM514.043 120.934C512.966 120.934 512.107 120.582 511.467 119.878C510.838 119.174 510.523 118.161 510.523 116.839C510.523 115.91 510.673 115.142 510.971 114.534C511.27 113.926 511.686 113.473 512.219 113.174C512.753 112.865 513.361 112.71 514.043 112.71C514.811 112.71 515.43 112.897 515.899 113.27C516.379 113.633 516.726 114.129 516.939 114.758C517.153 115.377 517.259 116.07 517.259 116.839C517.259 117.596 517.153 118.284 516.939 118.902C516.726 119.521 516.379 120.017 515.899 120.39C515.43 120.753 514.811 120.934 514.043 120.934ZM514.491 119.526C515.249 119.526 515.798 119.292 516.139 118.822C516.491 118.342 516.667 117.681 516.667 116.839C516.667 115.985 516.491 115.318 516.139 114.838C515.798 114.358 515.249 114.118 514.491 114.118C513.713 114.118 513.142 114.358 512.779 114.838C512.427 115.318 512.251 115.985 512.251 116.839C512.251 117.681 512.427 118.342 512.779 118.822C513.142 119.292 513.713 119.526 514.491 119.526ZM516.699 112.886H518.395V120.918H516.667V114.678L516.699 114.55V112.886ZM518.395 120.71C518.427 121.98 518.145 122.935 517.547 123.575C516.95 124.215 516.011 124.535 514.731 124.535C513.878 124.535 513.185 124.428 512.651 124.215C512.118 124.001 511.729 123.697 511.483 123.303C511.238 122.908 511.094 122.449 511.051 121.927H512.811C512.843 122.193 512.907 122.417 513.003 122.599C513.11 122.78 513.297 122.913 513.563 122.999C513.83 123.084 514.219 123.127 514.731 123.127C515.275 123.127 515.686 123.041 515.963 122.871C516.241 122.711 516.427 122.449 516.523 122.087C516.63 121.735 516.678 121.276 516.667 120.71H518.395Z" fill="#888888"/>
<path d="M459.972 143.19L462.852 140.142C463.196 139.782 463.476 139.466 463.692 139.194C463.908 138.922 464.072 138.67 464.184 138.438C464.296 138.198 464.352 137.946 464.352 137.682C464.352 137.186 464.204 136.818 463.908 136.578C463.612 136.33 463.212 136.206 462.708 136.206C462.196 136.206 461.788 136.35 461.484 136.638C461.18 136.918 461.028 137.33 461.028 137.874H460.02C460.012 137.354 460.124 136.906 460.356 136.53C460.588 136.146 460.908 135.85 461.316 135.642C461.732 135.434 462.208 135.33 462.744 135.33C463.288 135.33 463.756 135.426 464.148 135.618C464.54 135.81 464.84 136.082 465.048 136.434C465.264 136.778 465.372 137.194 465.372 137.682C465.372 137.994 465.308 138.294 465.18 138.582C465.06 138.87 464.856 139.19 464.568 139.542C464.288 139.894 463.9 140.33 463.404 140.85L460.92 143.49L460.812 143.058H465.468V143.934H459.972V143.19ZM467.045 137.874H468.017V138.774C468.217 138.438 468.465 138.186 468.761 138.018C469.057 137.842 469.405 137.754 469.805 137.754C470.253 137.754 470.629 137.854 470.933 138.054C471.237 138.246 471.449 138.55 471.569 138.966H471.629C471.837 138.55 472.093 138.246 472.397 138.054C472.709 137.854 473.089 137.754 473.537 137.754C473.833 137.754 474.105 137.798 474.353 137.886C474.601 137.974 474.813 138.114 474.989 138.306C475.165 138.49 475.301 138.738 475.397 139.05C475.501 139.354 475.553 139.722 475.553 140.154V143.934H474.557L474.569 140.19C474.569 139.598 474.457 139.186 474.233 138.954C474.017 138.722 473.681 138.606 473.225 138.606C472.777 138.606 472.425 138.746 472.169 139.026C471.913 139.298 471.785 139.746 471.785 140.37V143.934H470.801L470.813 140.19C470.813 139.79 470.761 139.474 470.657 139.242C470.561 139.01 470.417 138.846 470.225 138.75C470.033 138.654 469.789 138.606 469.493 138.606C469.029 138.606 468.665 138.742 468.401 139.014C468.145 139.286 468.017 139.734 468.017 140.358L468.029 143.934H467.045V137.874ZM484.462 136.338L480.742 141.702L480.55 141.282H486.346V142.158H479.854V141.402L484.006 135.45H485.158V143.934H484.138V136.242L484.462 136.338ZM491.137 139.47C491.089 139.158 490.961 138.934 490.753 138.798C490.553 138.654 490.249 138.582 489.841 138.582C489.401 138.582 489.065 138.662 488.833 138.822C488.609 138.974 488.497 139.174 488.497 139.422C488.497 139.678 488.585 139.87 488.761 139.998C488.945 140.126 489.221 140.234 489.589 140.322L490.549 140.562C491.117 140.698 491.537 140.902 491.809 141.174C492.081 141.446 492.217 141.806 492.217 142.254C492.217 142.774 492.013 143.206 491.605 143.55C491.197 143.886 490.577 144.054 489.745 144.054C489.001 144.054 488.429 143.906 488.029 143.61C487.629 143.314 487.393 142.858 487.321 142.242H488.353C488.401 142.57 488.521 142.814 488.713 142.974C488.905 143.126 489.241 143.202 489.721 143.202C490.265 143.202 490.649 143.122 490.873 142.962C491.105 142.794 491.221 142.578 491.221 142.314C491.221 142.066 491.137 141.87 490.969 141.726C490.801 141.574 490.529 141.45 490.153 141.354L489.193 141.114C488.641 140.978 488.225 140.778 487.945 140.514C487.665 140.242 487.525 139.898 487.525 139.482C487.525 138.946 487.721 138.522 488.113 138.21C488.513 137.898 489.089 137.742 489.841 137.742C490.537 137.742 491.073 137.89 491.449 138.186C491.833 138.474 492.049 138.902 492.097 139.47H491.137Z" fill="#A1A1A1"/>
<path d="M542.5 168.5V245C542.5 249.142 539.142 252.5 535 252.5H8C3.85786 252.5 0.5 249.142 0.5 245V168.5H542.5Z" stroke="#A1A1A1" stroke-opacity="0.5"/>
<path d="M27.26 198.56C27.18 198.04 26.9667 197.667 26.62 197.44C26.2867 197.2 25.78 197.08 25.1 197.08C24.3667 197.08 23.8067 197.213 23.42 197.48C23.0467 197.733 22.86 198.067 22.86 198.48C22.86 198.907 23.0067 199.227 23.3 199.44C23.6067 199.653 24.0667 199.833 24.68 199.98L26.28 200.38C27.2267 200.607 27.9267 200.947 28.38 201.4C28.8333 201.853 29.06 202.453 29.06 203.2C29.06 204.067 28.72 204.787 28.04 205.36C27.36 205.92 26.3267 206.2 24.94 206.2C23.7 206.2 22.7467 205.953 22.08 205.46C21.4133 204.967 21.02 204.207 20.9 203.18H22.62C22.7 203.727 22.9 204.133 23.22 204.4C23.54 204.653 24.1 204.78 24.9 204.78C25.8067 204.78 26.4467 204.647 26.82 204.38C27.2067 204.1 27.4 203.74 27.4 203.3C27.4 202.887 27.26 202.56 26.98 202.32C26.7 202.067 26.2467 201.86 25.62 201.7L24.02 201.3C23.1 201.073 22.4067 200.74 21.94 200.3C21.4733 199.847 21.24 199.273 21.24 198.58C21.24 197.687 21.5667 196.98 22.22 196.46C22.8867 195.94 23.8467 195.68 25.1 195.68C26.26 195.68 27.1533 195.927 27.78 196.42C28.42 196.9 28.78 197.613 28.86 198.56H27.26ZM33.1809 195.9V206H31.5409V195.9H33.1809ZM31.4209 191.66H33.2809V193.62H31.4209V191.66ZM40.6694 197.3H38.3494V204.6H40.6294V206H39.2694C38.456 206 37.8227 205.84 37.3694 205.52C36.9294 205.187 36.7094 204.573 36.7094 203.68V197.3H34.9694V195.9H36.7094V192.88H38.3494V195.9H40.6694V197.3ZM42.7552 200.22H49.5552C49.5418 199.18 49.2952 198.393 48.8152 197.86C48.3485 197.327 47.6352 197.06 46.6752 197.06C45.6085 197.06 44.8285 197.387 44.3352 198.04C43.8418 198.68 43.5952 199.633 43.5952 200.9C43.5952 202.193 43.8352 203.173 44.3152 203.84C44.8085 204.493 45.6418 204.82 46.8152 204.82C47.6018 204.82 48.1752 204.693 48.5352 204.44C48.8952 204.187 49.1418 203.847 49.2752 203.42H51.0152C50.8818 203.953 50.6418 204.433 50.2952 204.86C49.9485 205.273 49.4885 205.6 48.9152 205.84C48.3552 206.08 47.6552 206.2 46.8152 206.2C45.2152 206.2 44.0018 205.74 43.1752 204.82C42.3618 203.9 41.9552 202.607 41.9552 200.94C41.9552 199.247 42.3618 197.947 43.1752 197.04C44.0018 196.133 45.1685 195.68 46.6752 195.68C47.5018 195.68 48.2552 195.853 48.9352 196.2C49.6152 196.547 50.1618 197.1 50.5752 197.86C50.9885 198.62 51.1952 199.64 51.1952 200.92V201.48H42.7352L42.7552 200.22ZM59.2103 200.38H53.4103V198.94H59.2103V200.38ZM63.7273 191.66V206H62.0873V191.66H63.7273ZM67.1073 206.2C66.2007 206.2 65.454 205.98 64.8673 205.54C64.2807 205.1 63.8407 204.487 63.5473 203.7C63.2673 202.913 63.1273 202 63.1273 200.96C63.1273 199.907 63.2673 198.987 63.5473 198.2C63.8407 197.413 64.2807 196.8 64.8673 196.36C65.454 195.907 66.2007 195.68 67.1073 195.68C68.014 195.68 68.7873 195.88 69.4273 196.28C70.0807 196.667 70.5807 197.253 70.9273 198.04C71.274 198.813 71.4473 199.787 71.4473 200.96C71.4473 202.667 71.0673 203.967 70.3073 204.86C69.5473 205.753 68.4807 206.2 67.1073 206.2ZM66.6873 204.8C67.754 204.8 68.5407 204.467 69.0473 203.8C69.554 203.133 69.8073 202.187 69.8073 200.96C69.8073 199.72 69.554 198.767 69.0473 198.1C68.5407 197.433 67.754 197.1 66.6873 197.1C65.674 197.1 64.9273 197.433 64.4473 198.1C63.9673 198.767 63.7273 199.72 63.7273 200.96C63.7273 202.187 63.9673 203.133 64.4473 203.8C64.9273 204.467 65.674 204.8 66.6873 204.8ZM78.0433 206.2C76.5233 206.2 75.3499 205.747 74.5233 204.84C73.6966 203.933 73.2833 202.64 73.2833 200.96C73.2833 199.267 73.6966 197.967 74.5233 197.06C75.3499 196.14 76.5233 195.68 78.0433 195.68C79.0566 195.68 79.9166 195.887 80.6233 196.3C81.3299 196.7 81.8699 197.293 82.2433 198.08C82.6299 198.853 82.8233 199.807 82.8233 200.94C82.8233 202.647 82.4033 203.953 81.5633 204.86C80.7366 205.753 79.5633 206.2 78.0433 206.2ZM78.0433 204.78C79.1099 204.78 79.8966 204.453 80.4033 203.8C80.9233 203.133 81.1833 202.187 81.1833 200.96C81.1833 199.733 80.9233 198.787 80.4033 198.12C79.8966 197.44 79.1099 197.1 78.0433 197.1C76.9899 197.1 76.2033 197.44 75.6833 198.12C75.1766 198.787 74.9233 199.733 74.9233 200.96C74.9233 202.187 75.1766 203.133 75.6833 203.8C76.2033 204.453 76.9899 204.78 78.0433 204.78ZM89.7123 197.3H87.3923V204.6H89.6723V206H88.3123C87.499 206 86.8657 205.84 86.4123 205.52C85.9723 205.187 85.7523 204.573 85.7523 203.68V197.3H84.0123V195.9H85.7523V192.88H87.3923V195.9H89.7123V197.3ZM98.5572 193.34L92.3572 202.28L92.0372 201.58H101.697V203.04H90.8772V201.78L97.7972 191.86H99.7172V206H98.0172V193.18L98.5572 193.34ZM104.002 203.78H106.182V206H104.002V203.78ZM118.193 206H117.113C116.62 206 116.24 205.833 115.973 205.5C115.707 205.167 115.567 204.62 115.553 203.86L115.773 203.92C115.52 204.613 115.1 205.167 114.513 205.58C113.94 205.993 113.167 206.2 112.193 206.2C111.447 206.2 110.807 206.087 110.273 205.86C109.753 205.633 109.353 205.293 109.073 204.84C108.807 204.387 108.673 203.813 108.673 203.12C108.673 202.573 108.773 202.113 108.973 201.74C109.173 201.353 109.447 201.047 109.793 200.82C110.153 200.58 110.567 200.407 111.033 200.3C111.5 200.18 111.993 200.12 112.513 200.12H115.573V199.16C115.573 198.453 115.38 197.927 114.993 197.58C114.62 197.233 114.007 197.06 113.153 197.06C112.393 197.06 111.82 197.2 111.433 197.48C111.047 197.76 110.813 198.173 110.733 198.72H109.073C109.14 198.067 109.347 197.52 109.693 197.08C110.04 196.627 110.513 196.28 111.113 196.04C111.713 195.8 112.413 195.68 113.213 195.68C113.733 195.68 114.233 195.74 114.713 195.86C115.193 195.98 115.62 196.18 115.993 196.46C116.367 196.74 116.66 197.113 116.873 197.58C117.1 198.047 117.213 198.627 117.213 199.32V204.58H118.193V206ZM110.293 203.12C110.293 203.693 110.467 204.12 110.813 204.4C111.16 204.68 111.687 204.82 112.393 204.82C113.38 204.82 114.153 204.587 114.713 204.12C115.287 203.653 115.573 203.033 115.573 202.26V201.4H112.533C111.813 201.4 111.26 201.547 110.873 201.84C110.5 202.133 110.307 202.56 110.293 203.12ZM121.892 195.9V206H120.252V195.9H121.892ZM120.132 191.66H121.992V193.62H120.132V191.66ZM130.597 200.38H124.797V198.94H130.597V200.38ZM132.974 204.76L137.774 199.68C138.347 199.08 138.814 198.553 139.174 198.1C139.534 197.647 139.807 197.227 139.994 196.84C140.181 196.44 140.274 196.02 140.274 195.58C140.274 194.753 140.027 194.14 139.534 193.74C139.041 193.327 138.374 193.12 137.534 193.12C136.681 193.12 136.001 193.36 135.494 193.84C134.987 194.307 134.734 194.993 134.734 195.9H133.054C133.041 195.033 133.227 194.287 133.614 193.66C134.001 193.02 134.534 192.527 135.214 192.18C135.907 191.833 136.701 191.66 137.594 191.66C138.501 191.66 139.281 191.82 139.934 192.14C140.587 192.46 141.087 192.913 141.434 193.5C141.794 194.073 141.974 194.767 141.974 195.58C141.974 196.1 141.867 196.6 141.654 197.08C141.454 197.56 141.114 198.093 140.634 198.68C140.167 199.267 139.521 199.993 138.694 200.86L134.554 205.26L134.374 204.54H142.134V206H132.974V204.76ZM149.483 206H147.783V192.86L148.683 193L144.263 195.94V194.22L147.763 191.86H149.483V206ZM154.549 203.78H156.729V206H154.549V203.78ZM165.58 198.56C165.5 198.04 165.287 197.667 164.94 197.44C164.607 197.2 164.1 197.08 163.42 197.08C162.687 197.08 162.127 197.213 161.74 197.48C161.367 197.733 161.18 198.067 161.18 198.48C161.18 198.907 161.327 199.227 161.62 199.44C161.927 199.653 162.387 199.833 163 199.98L164.6 200.38C165.547 200.607 166.247 200.947 166.7 201.4C167.154 201.853 167.38 202.453 167.38 203.2C167.38 204.067 167.04 204.787 166.36 205.36C165.68 205.92 164.647 206.2 163.26 206.2C162.02 206.2 161.067 205.953 160.4 205.46C159.734 204.967 159.34 204.207 159.22 203.18H160.94C161.02 203.727 161.22 204.133 161.54 204.4C161.86 204.653 162.42 204.78 163.22 204.78C164.127 204.78 164.767 204.647 165.14 204.38C165.527 204.1 165.72 203.74 165.72 203.3C165.72 202.887 165.58 202.56 165.3 202.32C165.02 202.067 164.567 201.86 163.94 201.7L162.34 201.3C161.42 201.073 160.727 200.74 160.26 200.3C159.794 199.847 159.56 199.273 159.56 198.58C159.56 197.687 159.887 196.98 160.54 196.46C161.207 195.94 162.167 195.68 163.42 195.68C164.58 195.68 165.474 195.927 166.1 196.42C166.74 196.9 167.1 197.613 167.18 198.56H165.58ZM172.181 206H170.541V193.98C170.541 193.5 170.635 193.087 170.821 192.74C171.021 192.393 171.315 192.127 171.701 191.94C172.088 191.753 172.575 191.66 173.161 191.66H174.721V193.08H172.181V206ZM168.821 197.3V195.9H174.541V197.3H168.821Z" fill="#00FF66"/>
<path d="M21.328 217.688H25.168C26.128 217.688 26.8907 217.843 27.456 218.152C28.032 218.451 28.448 218.867 28.704 219.4C28.96 219.923 29.088 220.536 29.088 221.24C29.088 221.923 28.96 222.536 28.704 223.08C28.448 223.624 28.0373 224.051 27.472 224.36C26.9067 224.669 26.1493 224.824 25.2 224.824H22.704V229H21.328V217.688ZM25.136 223.64C25.84 223.64 26.3787 223.544 26.752 223.352C27.1253 223.149 27.3813 222.872 27.52 222.52C27.6587 222.157 27.728 221.731 27.728 221.24C27.728 220.739 27.6587 220.312 27.52 219.96C27.3813 219.608 27.1253 219.341 26.752 219.16C26.3787 218.968 25.8293 218.872 25.104 218.872H22.704V223.64H25.136ZM31.9975 229H30.6855V220.92H31.9975V222.344C32.1895 221.885 32.4562 221.533 32.7975 221.288C33.1495 221.043 33.5868 220.92 34.1095 220.92H34.8295V222.04H33.9335C33.3042 222.04 32.8242 222.221 32.4935 222.584C32.1628 222.947 31.9975 223.491 31.9975 224.216V229ZM39.3409 229.16C38.1249 229.16 37.1862 228.797 36.5249 228.072C35.8635 227.347 35.5329 226.312 35.5329 224.968C35.5329 223.613 35.8635 222.573 36.5249 221.848C37.1862 221.112 38.1249 220.744 39.3409 220.744C40.1515 220.744 40.8395 220.909 41.4049 221.24C41.9702 221.56 42.4022 222.035 42.7009 222.664C43.0102 223.283 43.1649 224.045 43.1649 224.952C43.1649 226.317 42.8289 227.363 42.1569 228.088C41.4955 228.803 40.5569 229.16 39.3409 229.16ZM39.3409 228.024C40.1942 228.024 40.8235 227.763 41.2289 227.24C41.6449 226.707 41.8529 225.949 41.8529 224.968C41.8529 223.987 41.6449 223.229 41.2289 222.696C40.8235 222.152 40.1942 221.88 39.3409 221.88C38.4982 221.88 37.8689 222.152 37.4529 222.696C37.0475 223.229 36.8449 223.987 36.8449 224.968C36.8449 225.949 37.0475 226.707 37.4529 227.24C37.8689 227.763 38.4982 228.024 39.3409 228.024ZM50.8183 217.528H52.1302V229H50.8183V217.528ZM48.1143 229.16C47.0156 229.16 46.1623 228.803 45.5543 228.088C44.9463 227.373 44.6423 226.333 44.6423 224.968C44.6423 224.029 44.7809 223.251 45.0583 222.632C45.3356 222.003 45.7356 221.533 46.2582 221.224C46.7809 220.904 47.3996 220.744 48.1143 220.744C48.8396 220.744 49.4369 220.925 49.9063 221.288C50.3863 221.64 50.7383 222.131 50.9623 222.76C51.1863 223.389 51.2983 224.125 51.2983 224.968C51.2983 225.8 51.1863 226.531 50.9623 227.16C50.7383 227.789 50.3863 228.28 49.9063 228.632C49.4369 228.984 48.8396 229.16 48.1143 229.16ZM48.4503 228.04C49.2609 228.04 49.8583 227.773 50.2423 227.24C50.6263 226.707 50.8183 225.949 50.8183 224.968C50.8183 223.976 50.6263 223.213 50.2423 222.68C49.8583 222.147 49.2609 221.88 48.4503 221.88C47.5969 221.88 46.9676 222.147 46.5623 222.68C46.1569 223.213 45.9543 223.976 45.9543 224.968C45.9543 225.949 46.1569 226.707 46.5623 227.24C46.9676 227.773 47.5969 228.04 48.4503 228.04ZM59.935 220.92H61.247V229H59.935V227.768C59.679 228.173 59.359 228.509 58.975 228.776C58.6017 229.032 58.0897 229.16 57.439 229.16C56.5537 229.16 55.855 228.915 55.343 228.424C54.831 227.923 54.575 227.101 54.575 225.96V220.92H55.887L55.871 225.912C55.871 226.68 56.0363 227.224 56.367 227.544C56.6977 227.864 57.167 228.024 57.775 228.024C58.2123 228.024 58.591 227.944 58.911 227.784C59.231 227.624 59.4817 227.373 59.663 227.032C59.8443 226.68 59.935 226.227 59.935 225.672V220.92ZM67.1236 229.16C65.8223 229.16 64.8516 228.797 64.2116 228.072C63.5716 227.336 63.2516 226.296 63.2516 224.952C63.2516 223.608 63.5823 222.573 64.2436 221.848C64.905 221.112 65.8543 220.744 67.0916 220.744C67.721 220.744 68.2756 220.856 68.7556 221.08C69.2356 221.293 69.625 221.592 69.9236 221.976C70.2223 222.36 70.4036 222.808 70.4676 223.32H69.1396C69.0756 222.904 68.889 222.563 68.5796 222.296C68.281 222.019 67.7903 221.88 67.1076 221.88C66.201 221.88 65.5503 222.152 65.1556 222.696C64.761 223.229 64.5636 223.981 64.5636 224.952C64.5636 225.923 64.761 226.68 65.1556 227.224C65.5503 227.757 66.201 228.024 67.1076 228.024C67.7583 228.024 68.2436 227.912 68.5636 227.688C68.8836 227.453 69.0756 227.107 69.1396 226.648H70.4996C70.4356 227.117 70.265 227.544 69.9876 227.928C69.721 228.301 69.3423 228.6 68.8516 228.824C68.3716 229.048 67.7956 229.16 67.1236 229.16ZM76.0199 222.04H74.1639V227.88H75.9879V229H74.8999C74.2492 229 73.7425 228.872 73.3799 228.616C73.0279 228.349 72.8519 227.859 72.8519 227.144V222.04H71.4599V220.92H72.8519V218.504H74.1639V220.92H76.0199V222.04ZM79.0916 220.92V229H77.7796V220.92H79.0916ZM77.6836 217.528H79.1716V219.096H77.6836V217.528ZM84.8721 229.16C83.6561 229.16 82.7175 228.797 82.0561 228.072C81.3948 227.347 81.0641 226.312 81.0641 224.968C81.0641 223.613 81.3948 222.573 82.0561 221.848C82.7175 221.112 83.6561 220.744 84.8721 220.744C85.6828 220.744 86.3708 220.909 86.9361 221.24C87.5015 221.56 87.9335 222.035 88.2321 222.664C88.5415 223.283 88.6961 224.045 88.6961 224.952C88.6961 226.317 88.3601 227.363 87.6881 228.088C87.0268 228.803 86.0881 229.16 84.8721 229.16ZM84.8721 228.024C85.7255 228.024 86.3548 227.763 86.7601 227.24C87.1761 226.707 87.3841 225.949 87.3841 224.968C87.3841 223.987 87.1761 223.229 86.7601 222.696C86.3548 222.152 85.7255 221.88 84.8721 221.88C84.0295 221.88 83.4001 222.152 82.9841 222.696C82.5788 223.229 82.3761 223.987 82.3761 224.968C82.3761 225.949 82.5788 226.707 82.9841 227.24C83.4001 227.763 84.0295 228.024 84.8721 228.024ZM91.9975 229H90.6855V220.92H91.9975V222.152C92.2535 221.736 92.5682 221.4 92.9415 221.144C93.3255 220.877 93.8428 220.744 94.4935 220.744C95.3788 220.744 96.0775 220.995 96.5895 221.496C97.1015 221.987 97.3575 222.803 97.3575 223.944V229H96.0295V223.992C96.0295 223.224 95.8695 222.68 95.5495 222.36C95.2295 222.04 94.7655 221.88 94.1575 221.88C93.7202 221.88 93.3362 221.96 93.0055 222.12C92.6855 222.28 92.4348 222.531 92.2535 222.872C92.0828 223.213 91.9975 223.672 91.9975 224.248V229Z" fill="#A1A1A1"/>
<circle cx="444.336" cy="199.562" r="5" fill="#FF00E6"/>
<path d="M464.36 201.494H466.36L469.896 206.215H467.896L464.36 201.494ZM470.184 199.398C470.184 201.286 469.752 202.732 468.888 203.734C468.024 204.726 466.781 205.223 465.16 205.223C463.528 205.223 462.275 204.726 461.4 203.734C460.536 202.732 460.104 201.286 460.104 199.398C460.104 197.521 460.536 196.086 461.4 195.094C462.275 194.092 463.528 193.59 465.16 193.59C466.781 193.59 468.024 194.092 468.888 195.094C469.752 196.086 470.184 197.521 470.184 199.398ZM468.392 199.398C468.392 197.926 468.125 196.844 467.592 196.15C467.059 195.446 466.248 195.094 465.16 195.094C464.061 195.094 463.24 195.446 462.696 196.15C462.163 196.844 461.896 197.926 461.896 199.398C461.896 200.87 462.163 201.958 462.696 202.662C463.24 203.366 464.061 203.718 465.16 203.718C466.248 203.718 467.059 203.366 467.592 202.662C468.125 201.958 468.392 200.87 468.392 199.398ZM477.345 196.886H479.073V205.062H477.345V203.942C477.1 204.337 476.796 204.652 476.433 204.886C476.081 205.111 475.612 205.223 475.025 205.223C474.129 205.223 473.414 204.972 472.881 204.47C472.348 203.969 472.081 203.132 472.081 201.958V196.886H473.793V201.926C473.793 202.588 473.932 203.068 474.209 203.366C474.497 203.654 474.913 203.798 475.457 203.798C475.862 203.798 476.204 203.724 476.481 203.574C476.758 203.425 476.972 203.196 477.121 202.886C477.27 202.577 477.345 202.177 477.345 201.686V196.886ZM481.842 200.278H486.882C486.861 199.553 486.674 199.009 486.322 198.646C485.981 198.273 485.48 198.086 484.818 198.086C484.05 198.086 483.49 198.321 483.138 198.79C482.797 199.249 482.626 199.969 482.626 200.951C482.626 201.942 482.797 202.673 483.138 203.142C483.48 203.612 484.077 203.846 484.93 203.846C485.517 203.846 485.933 203.761 486.178 203.59C486.434 203.409 486.605 203.164 486.69 202.854H488.482C488.408 203.313 488.221 203.724 487.922 204.086C487.634 204.438 487.24 204.716 486.738 204.918C486.248 205.121 485.645 205.223 484.93 205.223C483.618 205.223 482.616 204.854 481.922 204.118C481.24 203.382 480.898 202.337 480.898 200.982C480.898 199.606 481.24 198.55 481.922 197.814C482.616 197.078 483.581 196.71 484.818 196.71C485.554 196.71 486.205 196.86 486.77 197.158C487.336 197.457 487.778 197.921 488.098 198.55C488.429 199.169 488.594 199.974 488.594 200.966V201.51H481.826L481.842 200.278ZM495.611 196.886H497.339V205.062H495.611V203.942C495.365 204.337 495.061 204.652 494.699 204.886C494.347 205.111 493.877 205.223 493.291 205.223C492.395 205.223 491.68 204.972 491.147 204.47C490.613 203.969 490.347 203.132 490.347 201.958V196.886H492.059V201.926C492.059 202.588 492.197 203.068 492.475 203.366C492.763 203.654 493.179 203.798 493.723 203.798C494.128 203.798 494.469 203.724 494.747 203.574C495.024 203.425 495.237 203.196 495.387 202.886C495.536 202.577 495.611 202.177 495.611 201.686V196.886ZM500.108 200.278H505.148C505.126 199.553 504.94 199.009 504.588 198.646C504.246 198.273 503.745 198.086 503.084 198.086C502.316 198.086 501.756 198.321 501.404 198.79C501.062 199.249 500.892 199.969 500.892 200.951C500.892 201.942 501.062 202.673 501.404 203.142C501.745 203.612 502.342 203.846 503.196 203.846C503.782 203.846 504.198 203.761 504.444 203.59C504.7 203.409 504.87 203.164 504.956 202.854H506.748C506.673 203.313 506.486 203.724 506.188 204.086C505.9 204.438 505.505 204.716 505.004 204.918C504.513 205.121 503.91 205.223 503.196 205.223C501.884 205.223 500.881 204.854 500.188 204.118C499.505 203.382 499.164 202.337 499.164 200.982C499.164 199.606 499.505 198.55 500.188 197.814C500.881 197.078 501.846 196.71 503.084 196.71C503.82 196.71 504.47 196.86 505.036 197.158C505.601 197.457 506.044 197.921 506.364 198.55C506.694 199.169 506.86 199.974 506.86 200.966V201.51H500.092L500.108 200.278ZM514.292 193.574H516.02V205.062H514.292V193.574ZM511.668 205.223C510.591 205.223 509.732 204.865 509.092 204.15C508.463 203.436 508.148 202.38 508.148 200.982C508.148 200.001 508.298 199.201 508.596 198.582C508.895 197.953 509.311 197.484 509.844 197.174C510.378 196.865 510.986 196.71 511.668 196.71C512.436 196.71 513.055 196.897 513.524 197.27C514.004 197.644 514.351 198.15 514.564 198.79C514.788 199.43 514.9 200.161 514.9 200.982C514.9 201.793 514.788 202.518 514.564 203.158C514.351 203.788 514.004 204.289 513.524 204.662C513.055 205.036 512.436 205.223 511.668 205.223ZM512.116 203.814C512.874 203.814 513.423 203.574 513.764 203.094C514.116 202.604 514.292 201.894 514.292 200.966C514.292 200.049 514.116 199.345 513.764 198.854C513.423 198.364 512.874 198.118 512.116 198.118C511.338 198.118 510.767 198.364 510.404 198.854C510.052 199.345 509.876 200.049 509.876 200.966C509.876 201.894 510.052 202.604 510.404 203.094C510.767 203.574 511.338 203.814 512.116 203.814Z" fill="#888888"/>
<path d="M459.588 219.45H460.668L462.504 226.518H462.552L464.412 219.45H465.576L467.46 226.518H467.496L469.332 219.45H470.4L468.072 227.934H466.956L465.036 220.89H464.964L463.044 227.934H461.916L459.588 219.45ZM476.346 227.934H475.698C475.402 227.934 475.174 227.834 475.014 227.634C474.854 227.434 474.77 227.106 474.762 226.65L474.894 226.686C474.742 227.102 474.49 227.434 474.138 227.682C473.794 227.93 473.33 228.054 472.746 228.054C472.298 228.054 471.914 227.986 471.594 227.85C471.282 227.714 471.042 227.51 470.874 227.238C470.714 226.966 470.634 226.622 470.634 226.206C470.634 225.878 470.694 225.602 470.814 225.378C470.934 225.146 471.098 224.962 471.306 224.826C471.522 224.682 471.77 224.578 472.05 224.514C472.33 224.442 472.626 224.406 472.938 224.406H474.774V223.83C474.774 223.406 474.658 223.09 474.426 222.882C474.202 222.674 473.834 222.57 473.322 222.57C472.866 222.57 472.522 222.654 472.29 222.822C472.058 222.99 471.918 223.238 471.87 223.566H470.874C470.914 223.174 471.038 222.846 471.246 222.582C471.454 222.31 471.738 222.102 472.098 221.958C472.458 221.814 472.878 221.742 473.358 221.742C473.67 221.742 473.97 221.778 474.258 221.85C474.546 221.922 474.802 222.042 475.026 222.21C475.25 222.378 475.426 222.602 475.554 222.882C475.69 223.162 475.758 223.51 475.758 223.926V227.082H476.346V227.934ZM471.606 226.206C471.606 226.55 471.71 226.806 471.918 226.974C472.126 227.142 472.442 227.226 472.866 227.226C473.458 227.226 473.922 227.086 474.258 226.806C474.602 226.526 474.774 226.154 474.774 225.69V225.174H472.95C472.518 225.174 472.186 225.262 471.954 225.438C471.73 225.614 471.614 225.87 471.606 226.206ZM478.565 221.874V227.934H477.581V221.874H478.565ZM477.509 219.33H478.625V220.506H477.509V219.33ZM483.058 222.714H481.666V227.094H483.034V227.934H482.218C481.73 227.934 481.35 227.838 481.078 227.646C480.814 227.446 480.682 227.078 480.682 226.542V222.714H479.638V221.874H480.682V220.062H481.666V221.874H483.058V222.714ZM485.362 221.874V227.934H484.378V221.874H485.362ZM484.306 219.33H485.422V220.506H484.306V219.33ZM488.186 227.934H487.202V221.874H488.186V222.798C488.378 222.486 488.614 222.234 488.894 222.042C489.182 221.842 489.57 221.742 490.058 221.742C490.722 221.742 491.246 221.93 491.63 222.306C492.014 222.674 492.206 223.286 492.206 224.142V227.934H491.21V224.178C491.21 223.602 491.09 223.194 490.85 222.954C490.61 222.714 490.262 222.594 489.806 222.594C489.478 222.594 489.19 222.654 488.942 222.774C488.702 222.894 488.514 223.082 488.378 223.338C488.25 223.594 488.186 223.938 488.186 224.37V227.934ZM496.254 227.85C495.43 227.85 494.79 227.586 494.334 227.058C493.878 226.53 493.65 225.782 493.65 224.814C493.65 224.142 493.754 223.582 493.962 223.134C494.17 222.678 494.47 222.334 494.862 222.102C495.254 221.862 495.718 221.742 496.254 221.742C496.798 221.742 497.246 221.874 497.598 222.138C497.95 222.402 498.21 222.766 498.378 223.23C498.546 223.686 498.63 224.214 498.63 224.814C498.63 225.398 498.546 225.922 498.378 226.386C498.21 226.842 497.95 227.202 497.598 227.466C497.246 227.722 496.798 227.85 496.254 227.85ZM496.506 227.01C497.114 227.01 497.562 226.814 497.85 226.422C498.138 226.03 498.282 225.494 498.282 224.814C498.282 224.118 498.138 223.574 497.85 223.182C497.562 222.79 497.114 222.594 496.506 222.594C495.866 222.594 495.394 222.79 495.09 223.182C494.786 223.574 494.634 224.118 494.634 224.814C494.634 225.494 494.786 226.03 495.09 226.422C495.394 226.814 495.866 227.01 496.506 227.01ZM498.294 221.874H499.266V227.934H498.282V223.35L498.294 223.266V221.874ZM499.266 227.79C499.274 228.718 499.066 229.398 498.642 229.83C498.218 230.262 497.566 230.478 496.686 230.478C496.094 230.478 495.61 230.402 495.234 230.25C494.866 230.106 494.586 229.894 494.394 229.614C494.21 229.342 494.098 229.018 494.058 228.642H495.09C495.114 228.858 495.17 229.042 495.258 229.194C495.354 229.346 495.51 229.458 495.726 229.53C495.95 229.602 496.27 229.638 496.686 229.638C497.126 229.638 497.458 229.57 497.682 229.434C497.914 229.306 498.07 229.106 498.15 228.834C498.238 228.562 498.282 228.214 498.282 227.79H499.266Z" fill="#A1A1A1"/>
</svg>
