<svg width="113" height="16" viewBox="0 0 113 16" fill="none" xmlns="http://www.w3.org/2000/svg">
<path d="M7.33207 0.306641V2.40847H2.21057V15.6324H0V0.306641H7.33207Z" fill="#A1A1A1"/>
<path d="M16.9154 14.5591C16.0837 15.464 14.9383 15.9165 13.4792 15.9165C12.0201 15.9165 10.8747 15.464 10.043 14.5591C9.21127 13.6395 8.79541 12.377 8.79541 10.7714V5.16657C8.79541 3.561 9.21127 2.30575 10.043 1.4008C10.8747 0.481256 12.0201 0.0214844 13.4792 0.0214844C14.9383 0.0214844 16.0837 0.481256 16.9154 1.4008C17.7471 2.30575 18.163 3.561 18.163 5.16657V10.7714C18.163 12.377 17.7471 13.6395 16.9154 14.5591ZM13.4792 13.749C14.2671 13.749 14.8654 13.4936 15.2739 12.9827C15.6825 12.4718 15.8867 11.7347 15.8867 10.7714V5.16657C15.8867 4.20323 15.6825 3.46615 15.2739 2.95528C14.8654 2.44442 14.2671 2.18899 13.4792 2.18899C11.8742 2.18899 11.0716 3.18152 11.0716 5.16657V10.7714C11.0716 12.7565 11.8742 13.749 13.4792 13.749Z" fill="#A1A1A1"/>
<path d="M24.824 0.306641C26.3268 0.306641 27.4869 0.744519 28.304 1.62028C29.1211 2.48144 29.5297 3.6929 29.5297 5.25467C29.5297 6.86023 29.1211 8.09359 28.304 8.95474C27.4869 9.81591 26.3268 10.2465 24.824 10.2465H22.9853V15.6324H20.7749V0.306641H24.824ZM24.802 8.14467C26.4509 8.14467 27.2752 7.18135 27.2752 5.25467C27.2752 3.3572 26.4509 2.40847 24.802 2.40847H22.9853V8.14469L24.802 8.14467Z" fill="#A1A1A1"/>
<path d="M31.4199 15.6324V0.306646H33.5867V7.00618C33.5867 8.55336 33.5064 10.0276 33.3459 11.4288L33.4115 11.4726C33.9223 10.1297 34.287 9.22476 34.506 8.7577L38.2267 0.306641H40.4811V15.6324H38.3141V8.95474C38.3141 7.48056 38.3799 5.98448 38.5112 4.46649L38.4456 4.42269C38.0077 5.63417 37.6431 6.57561 37.3511 7.24703L33.6523 15.6324H31.4199Z" fill="#A1A1A1"/>
<path d="M49.3598 7.68478C51.1253 8.18103 52.008 9.41439 52.008 11.3849C52.008 12.7715 51.5631 13.8735 50.673 14.6908C49.7974 15.5082 48.6666 15.9169 47.2806 15.9169C45.8651 15.9169 44.727 15.479 43.8662 14.6033C43.0198 13.7129 42.5602 12.5963 42.4873 11.2535H44.7197C44.7636 11.9833 45.0043 12.589 45.4419 13.0707C45.8797 13.5524 46.4852 13.7932 47.2586 13.7932C48.0028 13.7932 48.6083 13.5742 49.0751 13.1364C49.5422 12.6839 49.7756 12.0636 49.7756 11.2754C49.7756 10.458 49.5276 9.83038 49.0314 9.39249C48.5353 8.95462 47.8714 8.73568 47.0398 8.73568H45.8797V6.76522H46.8428C48.5353 6.76522 49.3817 5.96245 49.3817 4.35689C49.3817 3.65628 49.1919 3.10892 48.8126 2.71484C48.4478 2.32075 47.9299 2.1237 47.2586 2.1237C45.8141 2.1237 45.0407 2.98487 44.9387 4.7072H42.75C42.8229 3.26219 43.2461 2.11641 44.0194 1.26985C44.7928 0.423282 45.8724 0 47.2586 0C48.5865 0 49.6444 0.39409 50.4323 1.18227C51.2201 1.95585 51.6141 3.02136 51.6141 4.37879C51.6141 6.02814 50.8626 7.13013 49.3598 7.68478Z" fill="#A1A1A1"/>
<path d="M61.8862 14.5591C61.0544 15.464 59.9092 15.9165 58.4501 15.9165C56.9909 15.9165 55.8455 15.464 55.0137 14.5591C54.182 13.6395 53.7661 12.377 53.7661 10.7714V5.16657C53.7661 3.561 54.182 2.30575 55.0137 1.4008C55.8455 0.481256 56.9909 0.0214844 58.4501 0.0214844C59.9092 0.0214844 61.0544 0.481256 61.8862 1.4008C62.7179 2.30575 63.1338 3.561 63.1338 5.16657V10.7714C63.1338 12.377 62.7179 13.6395 61.8862 14.5591ZM58.4501 13.749C59.2379 13.749 59.8361 13.4936 60.2446 12.9827C60.6532 12.4718 60.8576 11.7347 60.8576 10.7714V5.16657C60.8576 4.20323 60.6532 3.46615 60.2446 2.95528C59.8361 2.44442 59.2379 2.18899 58.4501 2.18899C56.8449 2.18899 56.0424 3.18152 56.0424 5.16657V10.7714C56.0424 12.7565 56.8449 13.749 58.4501 13.749Z" fill="#A1A1A1"/>
<path d="M72.2897 0.306641H74.5004V15.6324H72.2897V8.91096H67.9562V15.6324H65.7456V0.306641H67.9562V6.83104H72.2897V0.306641Z" fill="#A1A1A1"/>
<path d="M85.0076 0.306641V2.40847H81.8122V15.6324H79.5579V2.40847H76.3843V0.306641H85.0076Z" fill="#A1A1A1"/>
<path d="M85.0942 10.9473V9.06445H90.4566V10.9473H85.0942Z" fill="#A1A1A1"/>
<path d="M99.4808 7.75058C100.137 8.02791 100.655 8.47307 101.035 9.08611C101.414 9.69914 101.604 10.4216 101.604 11.2536C101.604 12.611 101.203 13.6838 100.4 14.472C99.5974 15.2456 98.5251 15.6324 97.1826 15.6324H92.8052V0.306641H96.9637C98.2041 0.306641 99.1888 0.686136 99.9184 1.44513C100.663 2.18952 101.035 3.19663 101.035 4.46649C101.035 5.99906 100.517 7.09375 99.4808 7.75058ZM96.7011 2.38657H95.0158V6.78726H96.7667C98.1092 6.78726 98.7804 6.03555 98.7804 4.53217C98.7804 3.10177 98.0872 2.38657 96.7011 2.38657ZM96.8981 13.5525C98.5324 13.5525 99.3495 12.7862 99.3495 11.2536C99.3495 10.48 99.1232 9.88889 98.6709 9.48019C98.2185 9.07152 97.5984 8.86716 96.8106 8.86716H95.0158V13.5525H96.8981Z" fill="#A1A1A1"/>
<path d="M107.882 15.8946C106.51 15.8946 105.423 15.4786 104.621 14.6466C103.833 13.8147 103.439 12.6397 103.439 11.1217V4.81626C103.439 3.28367 103.833 2.10141 104.621 1.26943C105.409 0.437467 106.488 0.0214844 107.86 0.0214844C109.261 0.0214844 110.355 0.430172 111.143 1.24755C111.931 2.05033 112.354 3.2107 112.413 4.72868H110.224C110.093 2.99177 109.297 2.12331 107.838 2.12331C107.167 2.12331 106.642 2.34955 106.262 2.80202C105.883 3.2545 105.693 3.9259 105.693 4.81626V11.1217C105.693 12.0121 105.883 12.6835 106.262 13.136C106.656 13.5738 107.196 13.7928 107.882 13.7928C109.356 13.7928 110.166 12.9316 110.311 11.2093H112.5C112.427 12.7127 111.989 13.8731 111.187 14.6904C110.399 15.4932 109.297 15.8946 107.882 15.8946Z" fill="#A1A1A1"/>
</svg>
