<svg width="533" height="132" viewBox="0 0 533 132" fill="none" xmlns="http://www.w3.org/2000/svg">
<line x1="532.525" y1="42.9883" x2="2.01329e-08" y2="42.9883" stroke="#1F1F1F"/>
<line x1="532.525" y1="89.8145" x2="2.01329e-08" y2="89.8145" stroke="#1F1F1F"/>
<line y1="-0.5" x2="131.287" y2="-0.5" transform="matrix(0.000426416 1 -1 7.07724e-05 48.9277 0)" stroke="#1F1F1F"/>
<line y1="-0.5" x2="131.287" y2="-0.5" transform="matrix(0.000426416 1 -1 7.07724e-05 109.983 0)" stroke="#1F1F1F"/>
<line y1="-0.5" x2="131.287" y2="-0.5" transform="matrix(0.000426416 1 -1 7.07724e-05 171.04 0)" stroke="#1F1F1F"/>
<line y1="-0.5" x2="131.287" y2="-0.5" transform="matrix(0.000426416 1 -1 7.07724e-05 232.096 0)" stroke="#1F1F1F"/>
<line y1="-0.5" x2="131.287" y2="-0.5" transform="matrix(0.000426416 1 -1 7.07724e-05 293.151 0)" stroke="#1F1F1F"/>
<line y1="-0.5" x2="131.287" y2="-0.5" transform="matrix(0.000426416 1 -1 7.07724e-05 354.208 0)" stroke="#1F1F1F"/>
<line y1="-0.5" x2="131.287" y2="-0.5" transform="matrix(0.000426416 1 -1 7.07724e-05 415.264 0)" stroke="#1F1F1F"/>
<line y1="-0.5" x2="131.287" y2="-0.5" transform="matrix(0.000426416 1 -1 7.07724e-05 476.319 0)" stroke="#1F1F1F"/>
</svg>
