<svg width="13" height="17" viewBox="0 0 13 17" fill="none" xmlns="http://www.w3.org/2000/svg">
<path d="M4.74219 1.60352H9.48438C9.54859 1.60356 9.61186 1.62014 9.66797 1.65137C9.72419 1.68274 9.77182 1.72843 9.80566 1.7832C9.83948 1.83796 9.85843 1.90055 9.86133 1.96484C9.86421 2.02903 9.85094 2.09289 9.82227 2.15039L8.02344 5.74902L7.72461 6.3457H11.8555C11.9273 6.34568 11.998 6.36672 12.0586 6.40527C12.1191 6.44378 12.1678 6.49851 12.1982 6.56348C12.2287 6.62849 12.2396 6.70126 12.2305 6.77246C12.2236 6.82595 12.2059 6.87731 12.1777 6.92285L12.1465 6.96582L4.24316 16.4502C4.20768 16.4928 4.16252 16.5273 4.1123 16.5508C4.06216 16.5742 4.0075 16.586 3.95215 16.5859H3.94922C3.8922 16.5864 3.83446 16.5738 3.7832 16.5488C3.70789 16.5114 3.64674 16.4499 3.61035 16.374C3.57374 16.2976 3.56452 16.2106 3.58301 16.1279V16.126L4.9502 9.97461L5.06152 9.47266H0.790039C0.724343 9.4726 0.659568 9.45547 0.602539 9.42285C0.545666 9.39025 0.498141 9.34357 0.464844 9.28711C0.431477 9.23038 0.412904 9.16542 0.412109 9.09961C0.411333 9.03383 0.427991 8.96862 0.459961 8.91113L4.41211 1.79785C4.44484 1.7391 4.49281 1.69035 4.55078 1.65625C4.60883 1.62211 4.67485 1.60353 4.74219 1.60352Z" stroke="#00FF66" stroke-width="0.825"/>
</svg>
