<svg width="78" height="53" viewBox="0 0 78 53" fill="none" xmlns="http://www.w3.org/2000/svg">
<g clip-path="url(#clip0_487_569)">
<mask id="mask0_487_569" style="mask-type:luminance" maskUnits="userSpaceOnUse" x="0" y="0" width="78" height="53">
<path d="M77.1094 0H0V52.5H77.1094V0Z" fill="white"/>
</mask>
<g mask="url(#mask0_487_569)">
<path d="M14.8367 5.2493L10.3697 0.441406H4.78587L1.7015 3.81246L0.318848 5.19404V13.2071L4.73269 18.3466H10.4228L14.7835 13.3178V5.2493H14.8367ZM3.61594 15.0309V3.70194H11.646V15.0309H3.61594Z" fill="#A1A1A1"/>
<path d="M31.1627 5.35984L27.0679 0.441406H21.8033L18.9316 3.86772L17.7617 5.2493V18.2361H20.8992V13.0414H27.972V18.2361H31.1096V14.8098L28.7165 12.3782L31.1627 10.1677V5.35984ZM20.8992 3.97825H27.972V10.1125H20.8992V3.97825Z" fill="#A1A1A1"/>
<path d="M72.323 0.498047H66.3138V3.81384H63.123V18.2927H66.3138V3.81384H73.7057V18.2927H76.8964V5.47174L72.323 0.498047Z" fill="#A1A1A1"/>
<path d="M60.6239 5.19461L56.1569 0.386719H50.6263L47.5419 3.75777L46.1592 5.13934V13.1525L50.5731 18.2919H56.2633L60.6239 13.263V5.19461ZM49.4031 15.0314V3.70251H57.4331V15.0314H49.4031Z" fill="#A1A1A1"/>
<path d="M41.3728 14.9217V3.81384L38.2353 0.498047H35.1509V3.70331H38.2353V14.9217H35.1509V18.2375H44.4572V14.9217H41.3728Z" fill="#A1A1A1"/>
<path d="M0.425293 49.5703V52.0571H76.9497V49.5703H0.425293Z" fill="#A1A1A1"/>
<path d="M40.1502 28.073L35.63 23.3203H30.0993L27.0151 26.6913L25.6323 28.073V36.0861L30.0462 41.2256H35.7364L40.097 36.1966V28.073H40.1502ZM28.8763 37.9098V26.5808H36.9062V37.9098H28.8763Z" fill="#A1A1A1"/>
<path d="M55.9971 23.2656V26.5814H60.5704V41.1156H63.8144V29.2893L61.5276 26.6367H68.3346V23.2656H55.9971Z" fill="#A1A1A1"/>
<path d="M52.9126 26.4709V23.2656H46.9034L42.915 27.9077V41.0604H45.9994V33.3236H52.9126V30.0631H45.9994V26.4709H52.9126Z" fill="#A1A1A1"/>
<path d="M18.5063 30.4499H12.1249V26.5261H21.9097V23.2656H13.4012L8.9873 27.2999V29.6761L12.0717 32.4946L13.2948 33.7104H19.7827V37.8551H9.99771V41.1156H18.5063L22.8671 37.0261V34.6499" fill="#A1A1A1"/>
<path d="M55.9971 23.3203V26.6361H60.5704V41.1703H63.8144V29.344L61.5276 26.6913H68.3346V23.3203H55.9971Z" fill="#A1A1A1"/>
</g>
</g>
<defs>
<clipPath id="clip0_487_569">
<rect width="77.1094" height="52.5" fill="white"/>
</clipPath>
</defs>
</svg>
