<svg width="111" height="24" viewBox="0 0 111 24" fill="none" xmlns="http://www.w3.org/2000/svg">
<path d="M35.0684 20.8178V2.85156H42.5149C43.2917 2.85156 44.0007 3.01164 44.6428 3.33265C45.3009 3.65281 45.8667 4.09217 46.3394 4.64819C46.8121 5.18803 47.184 5.79513 47.4541 6.47036C47.7244 7.12855 47.8591 7.80293 47.8591 8.49432C47.8591 9.47265 47.6397 10.4008 47.2009 11.2778C46.7791 12.1378 46.1793 12.8386 45.4026 13.3784C44.6258 13.9183 43.7144 14.1882 42.6674 14.1882H36.8421V20.8178H35.0692H35.0684ZM36.8413 12.6189H42.5912C43.3002 12.6189 43.9168 12.4248 44.4403 12.0373C44.9638 11.6491 45.3687 11.1433 45.6558 10.5192C45.943 9.89503 46.0862 9.21977 46.0862 8.49519C46.0862 7.77057 45.9176 7.0698 45.5796 6.44566C45.2417 5.82153 44.7944 5.33192 44.237 4.97771C43.6966 4.60647 43.0968 4.42084 42.4387 4.42084H36.8413V12.6197V12.6189Z" fill="#A1A1A1"/>
<path d="M60.9889 21.0733C59.7301 21.0733 58.5883 20.8204 57.5642 20.3137C56.5401 19.8071 55.6583 19.1243 54.9196 18.2642C54.181 17.3872 53.6101 16.408 53.2069 15.3284C52.8037 14.2316 52.6021 13.1093 52.6021 11.9624C52.6021 10.8154 52.8122 9.62597 53.2314 8.54624C53.6516 7.44956 54.2386 6.47972 54.9942 5.63591C55.7667 4.77506 56.6646 4.10068 57.6887 3.61108C58.7128 3.10445 59.8208 2.85156 61.0126 2.85156C62.2713 2.85156 63.4132 3.11296 64.4373 3.63577C65.4613 4.15858 66.3347 4.85935 67.0564 5.73639C67.7951 6.61341 68.3659 7.59261 68.7692 8.67225C69.1723 9.75197 69.3739 10.8572 69.3739 11.988C69.3739 13.186 69.1639 14.333 68.7446 15.4297C68.3245 16.5093 67.7374 17.4792 66.9819 18.34C66.2263 19.1838 65.3369 19.8497 64.3128 20.3393C63.2886 20.8289 62.1807 21.0733 60.9889 21.0733ZM54.3657 11.9624C54.3657 12.9408 54.5249 13.8859 54.8443 14.797C55.1636 15.6911 55.6168 16.4923 56.2038 17.2016C56.7916 17.893 57.4879 18.4499 58.2944 18.8722C59.1168 19.2775 60.0156 19.4793 60.9889 19.4793C62.0129 19.4793 62.9278 19.2681 63.7342 18.8467C64.5567 18.4081 65.2539 17.8343 65.8247 17.1258C66.4126 16.4003 66.8573 15.5906 67.1598 14.6965C67.4621 13.8024 67.6129 12.8914 67.6129 11.9633C67.6129 10.9849 67.4537 10.0483 67.1343 9.1542C66.8149 8.26014 66.3533 7.45893 65.7494 6.74965C65.1615 6.04122 64.4652 5.48434 63.6588 5.07904C62.8533 4.67373 61.963 4.47193 60.9897 4.47193C60.0165 4.47193 59.0677 4.6831 58.2444 5.10459C57.4388 5.52607 56.7417 6.09997 56.1538 6.82543C55.5829 7.53386 55.1382 8.3351 54.8188 9.23002C54.5165 10.1241 54.3657 11.0352 54.3657 11.9633V11.9624Z" fill="#A1A1A1"/>
<path d="M74.1182 11.81C74.1182 10.7133 74.3037 9.64216 74.6747 8.59565C75.0627 7.53301 75.6192 6.57083 76.3434 5.71084C77.0685 4.83381 77.9621 4.14156 79.0243 3.63577C80.0855 3.11296 81.2911 2.85156 82.6404 2.85156C84.2412 2.85156 85.6069 3.22281 86.7368 3.9653C87.8831 4.69076 88.7256 5.62739 89.2652 6.77434L87.8745 7.63433C87.4864 6.8416 86.9976 6.21746 86.4081 5.76193C85.8177 5.28935 85.186 4.95217 84.5114 4.74951C83.8539 4.54686 83.1964 4.44553 82.5389 4.44553C81.4598 4.44553 80.5079 4.66522 79.6818 5.10373C78.8549 5.52522 78.156 6.09911 77.5826 6.82457C77.0261 7.533 76.6052 8.33424 76.318 9.22917C76.0317 10.1062 75.8877 11.0011 75.8877 11.9121C75.8877 12.9076 76.0562 13.8612 76.3934 14.7723C76.7305 15.6834 77.2024 16.4931 77.8097 17.2015C78.416 17.893 79.1243 18.4499 79.9332 18.8722C80.7594 19.2775 81.6527 19.4793 82.6139 19.4793C83.2886 19.4793 83.9796 19.3609 84.6878 19.1251C85.3961 18.8892 86.0536 18.5265 86.6595 18.0369C87.2842 17.5473 87.7816 16.9147 88.1525 16.1389L89.6189 16.8985C89.2472 17.7925 88.6741 18.552 87.8987 19.1762C87.1233 19.8003 86.2558 20.2729 85.2946 20.5939C84.3505 20.9141 83.4229 21.0749 82.5124 21.0749C81.2818 21.0749 80.1527 20.8135 79.1243 20.2907C78.0959 19.7509 77.2024 19.0425 76.4442 18.1646C75.7022 17.2705 75.1296 16.2751 74.7247 15.1785C74.3198 14.0647 74.1182 12.9433 74.1182 11.8126V11.81Z" fill="#A1A1A1"/>
<path d="M101.898 2.85156H103.396L110.881 20.8178H109.003L106.669 15.2006H98.5744L96.2662 20.8178H94.3633L101.898 2.85156ZM106.263 13.8085L102.635 4.92662L98.9555 13.8085H106.263Z" fill="#A1A1A1"/>
<path fill-rule="evenodd" clip-rule="evenodd" d="M4.71815 2.35938C1.85338 4.51873 0 7.95956 0 11.8355C0 18.3724 5.27128 23.6711 11.7742 23.6711C15.6309 23.6711 19.0539 21.8072 21.2021 18.9275L19.9289 17.6477C18.1178 20.2107 15.1405 21.883 11.7742 21.883C6.25388 21.883 1.77883 17.3846 1.77883 11.8355C1.77883 8.45255 3.44247 5.45962 5.99129 3.63916L4.71815 2.35938Z" fill="#A1A1A1"/>
<path fill-rule="evenodd" clip-rule="evenodd" d="M11.7738 1.78811H21.7692V11.8356C21.7692 13.2873 21.4633 14.6667 20.9119 15.9125L22.2452 17.2527C23.0779 15.6298 23.548 13.7881 23.548 11.8356V1.36237C23.548 0.609661 22.9415 0 22.1927 0H11.7738C9.83147 0 7.99928 0.472572 6.38477 1.30958L7.71804 2.64981C8.95731 2.09634 10.3304 1.78811 11.7738 1.78811Z" fill="#A1A1A1"/>
</svg>
