<svg width="13" height="13" viewBox="0 0 13 13" fill="none" xmlns="http://www.w3.org/2000/svg">
<path d="M12.6463 2.7099C12.6463 1.21855 11.4278 -5.32725e-08 9.93641 -1.18461e-07L0.45177 -5.33048e-07C0.331985 -5.38284e-07 0.217106 0.0475838 0.132405 0.132284C0.0477047 0.216985 0.000120163 0.331864 0.000120163 0.451649C0.000120163 0.571434 0.0477047 0.686312 0.132405 0.771013C0.217106 0.855714 0.331985 0.903298 0.45177 0.903298L9.93641 0.903299C10.9395 0.903299 11.743 1.70678 11.743 2.7099V3.16155C11.743 4.16466 10.9395 4.96814 9.93641 4.96814L2.71002 4.96814C1.21867 4.96814 0.000120163 6.18669 0.000120163 7.67804V8.12969C0.000120163 9.62103 1.21867 10.8396 2.71002 10.8396L11.1044 10.8396L10.0687 11.8752C9.98407 11.9599 9.9365 12.0748 9.9365 12.1945C9.9365 12.3143 9.98407 12.4292 10.0687 12.5138C10.1534 12.5985 10.2683 12.6461 10.3881 12.6461C10.5078 12.6461 10.6227 12.5985 10.7074 12.5138L12.514 10.7073C12.5954 10.6259 12.6428 10.5165 12.6463 10.4015C12.648 10.34 12.6372 10.2788 12.6145 10.2216C12.5917 10.1645 12.5575 10.1125 12.514 10.0691L10.7074 8.26247C10.6227 8.1778 10.5078 8.13024 10.3881 8.13024C10.2683 8.13024 10.1534 8.1778 10.0687 8.26247C9.98407 8.34717 9.9365 8.46203 9.9365 8.58179C9.9365 8.70155 9.98407 8.81641 10.0687 8.9011L11.1044 9.93628L2.71002 9.93628C1.7069 9.93628 0.903419 9.1328 0.903419 8.12969V7.67804C0.903419 6.67538 1.7069 5.87144 2.71002 5.87144L9.93641 5.87144C11.4278 5.87144 12.6463 4.65289 12.6463 3.16155V2.7099Z" fill="#A1A1A1"/>
</svg>
