<svg width="20" height="19" viewBox="0 0 20 19" fill="none" xmlns="http://www.w3.org/2000/svg">
<path d="M19.427 9.03606C19.1087 9.03606 18.854 9.29073 18.854 9.60907V14.8213C18.854 16.2389 17.6995 17.3892 16.2861 17.3892H3.71392C2.29626 17.3892 1.14601 16.2347 1.14601 14.8213V9.52418C1.14601 9.20584 0.891341 8.95117 0.573005 8.95117C0.254669 8.95117 0 9.20584 0 9.52418V14.8213C0 16.8714 1.66808 18.5352 3.71392 18.5352H16.2861C18.3362 18.5352 20 16.8671 20 14.8213V9.60907C20 9.29497 19.7453 9.03606 19.427 9.03606Z" fill="black"/>
<path d="M9.59659 13.9856C9.70695 14.0959 9.8555 14.1553 9.99981 14.1553C10.1441 14.1553 10.2927 14.1002 10.403 13.9856L14.0448 10.3438C14.2698 10.1188 14.2698 9.75807 14.0448 9.53311C13.8198 9.30815 13.4591 9.30815 13.2341 9.53311L10.5728 12.1986V0.573005C10.5728 0.254669 10.3182 0 9.99981 0C9.68148 0 9.42681 0.254669 9.42681 0.573005V12.1986L6.76127 9.53311C6.53632 9.30815 6.17554 9.30815 5.95058 9.53311C5.72562 9.75807 5.72562 10.1188 5.95058 10.3438L9.59659 13.9856Z" fill="black"/>
</svg>
