<svg width="13" height="16" viewBox="0 0 13 16" fill="none" xmlns="http://www.w3.org/2000/svg">
<path d="M4.74219 0.412109H9.48438C9.54859 0.412157 9.61186 0.428736 9.66797 0.459961C9.72419 0.491334 9.77182 0.537021 9.80566 0.591797C9.83948 0.646553 9.85843 0.709141 9.86133 0.773438C9.86421 0.837628 9.85094 0.901481 9.82227 0.958984L8.02344 4.55762L7.72461 5.1543H11.8555C11.9273 5.15427 11.998 5.17532 12.0586 5.21387C12.1191 5.25237 12.1678 5.3071 12.1982 5.37207C12.2287 5.43709 12.2396 5.50985 12.2305 5.58105C12.2236 5.63454 12.2059 5.6859 12.1777 5.73145L12.1465 5.77441L4.24316 15.2588C4.20768 15.3014 4.16252 15.3359 4.1123 15.3594C4.06216 15.3828 4.0075 15.3946 3.95215 15.3945H3.94922C3.8922 15.395 3.83446 15.3824 3.7832 15.3574C3.70789 15.3199 3.64674 15.2585 3.61035 15.1826C3.57374 15.1062 3.56452 15.0192 3.58301 14.9365V14.9346L4.9502 8.7832L5.06152 8.28125H0.790039C0.724343 8.28119 0.659568 8.26406 0.602539 8.23145C0.545666 8.19885 0.498141 8.15217 0.464844 8.0957C0.431477 8.03897 0.412904 7.97402 0.412109 7.9082C0.411333 7.84243 0.427991 7.77722 0.459961 7.71973L4.41211 0.606445C4.44484 0.547692 4.49281 0.498942 4.55078 0.464844C4.60883 0.430706 4.67485 0.412119 4.74219 0.412109Z" stroke="#00FF66" stroke-width="0.825"/>
</svg>
