<svg width="244" height="33" viewBox="0 0 244 33" fill="none" xmlns="http://www.w3.org/2000/svg">
<path d="M183.992 10.388C183.245 12.2792 182.873 14.2171 182.873 16.1997C182.873 18.1822 183.278 20.3196 184.087 22.3318C184.897 24.3143 186.031 26.1143 187.494 27.7317C188.988 29.3194 190.745 30.5993 192.769 31.5757C194.823 32.5224 197.079 32.9936 199.538 32.9936C201.436 32.9936 203.349 32.7028 205.278 32.1234C207.207 31.5121 208.934 30.6439 210.458 29.5147C211.981 28.3855 213.072 27.027 213.724 25.4414L206.302 21.0922C205.929 22.0686 205.384 22.8455 204.668 23.4271C203.951 24.0066 203.159 24.4332 202.287 24.7091C201.414 24.9532 200.559 25.0742 199.72 25.0742C198.538 25.0742 197.464 24.845 196.499 24.3886C195.577 23.9386 194.765 23.2997 194.118 22.5123C193.464 21.6887 192.966 20.7569 192.624 19.721C192.282 18.6831 192.111 17.6006 192.111 16.4713C192.111 15.4652 192.252 14.457 192.531 13.4509C192.843 12.4448 193.293 11.5278 193.884 10.7043C194.507 9.88068 195.284 9.2248 196.217 8.73661C197.183 8.21869 198.317 7.95761 199.624 7.95761C200.464 7.95761 201.321 8.08072 202.191 8.3227C203.094 8.53708 203.919 8.93401 204.665 9.51348C205.442 10.0929 206.036 10.9165 206.438 11.9842L213.393 7.13192C212.241 4.99659 210.484 3.2879 208.118 2.00585C205.754 0.694089 202.984 0.0382067 199.81 0.0382067C197.165 0.0382067 194.784 0.511546 192.67 1.4561C190.585 2.37094 188.81 3.60629 187.349 5.16428C185.886 6.72014 184.767 8.46067 183.988 10.3816L183.992 10.388ZM243.94 32.7241V0.227118H234.839V12.2177H223.73V0.227118H214.629V32.7241H223.73V19.9991H234.839V32.7219H243.94V32.7241ZM183.295 24.9426V32.7241H159.678V0.227118H182.875V8.00856H168.78V12.5849H180.821V19.8166H168.78V24.9426H183.295ZM149.176 8.00856H158.698V0.227118H130.507V8.00856H140.076V32.7241H149.178V8.00856H149.176ZM68.6583 31.8538C70.6194 32.5861 72.6713 32.9533 74.8185 32.9533C77.8835 32.9533 80.6064 31.9727 82.9852 30.0135V32.7241H90.5004V15.4228H76.8726V21.8309H82.6281C81.7601 22.7118 80.8229 23.4292 79.8142 23.9811C78.4765 24.6837 77.0761 25.0339 75.6129 25.0339C74.4614 25.0339 73.4181 24.8365 72.4852 24.4396C71.5523 24.0129 70.7427 23.4335 70.0588 22.7012C69.4051 21.9392 68.8921 21.0392 68.5176 20.0012C68.1432 18.9633 67.957 17.8043 67.957 16.5223C67.957 15.2402 68.128 14.128 68.47 13.0901C68.8445 12.0224 69.3575 11.1075 70.0111 10.3434C70.6951 9.5814 71.4895 8.98495 72.3921 8.55831C73.2947 8.13167 74.2904 7.91728 75.3791 7.91728C76.8423 7.91728 78.2255 8.31421 79.5328 9.10806C80.8402 9.87007 81.8207 10.8932 82.4722 12.1752L89.2407 7.09584C88.0588 4.89895 86.2536 3.1754 83.8272 1.92307C81.4008 0.641024 78.693 0 75.706 0C73.3099 0 71.0847 0.411784 69.0328 1.23535C66.9787 2.05892 65.1735 3.21786 63.6193 4.71429C62.0955 6.17888 60.8964 7.88757 60.0262 9.84036C59.1561 11.7931 58.7189 13.9136 58.7189 16.2018C58.7189 18.8571 59.1388 21.2217 59.9786 23.2955C60.8488 25.3396 62.0327 27.0949 63.5263 28.5595C65.0198 29.9944 66.7319 31.0918 68.6605 31.8559L68.6583 31.8538ZM107.594 32.9979C105.074 32.9979 102.786 32.5394 100.732 31.6246C98.6779 30.6779 96.9052 29.4277 95.4117 27.8718C93.9485 26.2862 92.8143 24.516 92.0047 22.5632C91.2277 20.5807 90.8381 18.5345 90.8381 16.4289C90.8381 14.3233 91.258 12.2028 92.0978 10.25C92.9376 8.29723 94.1043 6.55882 95.5978 5.03268C97.1216 3.47681 98.9117 2.25632 100.966 1.3712C103.05 0.486074 105.321 0.0445745 107.78 0.0445745C110.239 0.0445745 112.587 0.517913 114.641 1.46247C116.695 2.37731 118.453 3.62964 119.916 5.21522C121.379 6.80292 122.498 8.58802 123.278 10.5705C124.087 12.5233 124.492 14.5377 124.492 16.6114C124.492 18.6852 124.072 20.7908 123.232 22.7436C122.423 24.6964 121.256 26.4518 119.732 28.0077C118.239 29.5338 116.466 30.7543 114.412 31.6691C112.358 32.5543 110.087 32.9958 107.598 32.9958L107.594 32.9979ZM100.081 16.5202C100.081 17.6048 100.236 18.6831 100.548 19.7232C100.86 20.7293 101.325 21.6462 101.949 22.4698C102.572 23.2637 103.349 23.9047 104.282 24.3929C105.247 24.8514 106.381 25.0785 107.689 25.0785C108.996 25.0785 110.133 24.8344 111.096 24.3462C112.061 23.858 112.838 23.2021 113.429 22.3785C114.046 21.5337 114.505 20.5892 114.782 19.5873C115.091 18.5621 115.249 17.4987 115.249 16.4289C115.249 15.3294 115.094 14.2787 114.782 13.2705C114.47 12.2644 114.005 11.3623 113.381 10.5705C112.758 9.74696 111.966 9.10594 111 8.64746C110.035 8.18898 108.916 7.96186 107.641 7.96186C106.366 7.96186 105.197 8.20596 104.234 8.69415C103.301 9.18235 102.522 9.83823 101.901 10.6618C101.278 11.4557 100.812 12.3705 100.5 13.4084C100.221 14.4145 100.081 15.4525 100.081 16.5202ZM125.501 32.7241V24.3016H132.689V32.7241H125.501ZM31.7382 32.7241V0.227118H46.9526C48.5716 0.227118 50.0652 0.54763 51.4331 1.18865C52.8011 1.82968 53.9851 2.69994 54.9808 3.79732C55.9764 4.86499 56.7383 6.07063 57.2687 7.41211C57.8293 8.75571 58.1085 10.112 58.1085 11.4854C58.1085 12.7356 57.9223 13.9412 57.5479 15.1023C57.1821 16.2485 56.6301 17.331 55.9137 18.3053C55.1972 19.2519 54.3422 20.0755 53.3466 20.776L60.3466 32.7219H50.3574L44.524 22.7436H40.8357V32.7219H31.7339L31.7382 32.7241ZM40.8378 14.9643H46.5781C46.9526 14.9643 47.3097 14.8263 47.6517 14.5525C47.9937 14.2787 48.2751 13.8818 48.4916 13.3617C48.7405 12.8438 48.866 12.2177 48.866 11.4854C48.866 10.7531 48.7253 10.0972 48.4461 9.60899C48.1972 9.09108 47.8703 8.69415 47.4656 8.41822C47.0911 8.1444 46.7188 8.00643 46.3444 8.00643H40.8378V14.9622V14.9643ZM20.7707 0.227118H10.5953L0 32.7241H9.28792L11.249 26.3626H20.0694L22.0759 32.7241H31.3183L20.7707 0.227118ZM15.6819 8.96797L18.6213 20.4109H12.5996L15.6797 8.96797H15.6819Z" fill="currentColor "/>
</svg>
