<svg width="561" height="210" viewBox="0 0 561 210" fill="none" xmlns="http://www.w3.org/2000/svg">
  <path
    d="M264.95 86.4118C269.156 54.2308 280.516 26.4572 293.049 9.62695H437.326V203.225H298.81C267.274 167.458 261.92 109.596 264.95 86.4118Z"
    fill="url(#paint0_radial_0_1)" />
  <path d="M299.066 1.5C255.949 52.3588 248.532 139.022 301.386 207.783"
    stroke="url(#paint1_linear_0_1)" stroke-width="3" stroke-linecap="round" />
  <rect x="350.837" y="26.0977" width="209.165" height="157.088" rx="7.5" fill="#0A0A0A"
    stroke="#1F1F1F" />
  <rect x="369.066" y="60.2227" width="173.05" height="119.214" fill="#0A0A0A" stroke="#1F1F1F" />
  <line x1="387.131" y1="60.4316" x2="524.122" y2="60.4316" stroke="#1F1F1F" />
  <line x1="368.637" y1="77.3105" x2="542.616" y2="77.3105" stroke="#1F1F1F" />
  <line x1="368.637" y1="94.1895" x2="542.616" y2="94.1895" stroke="#1F1F1F" />
  <line x1="404.693" y1="60.0176" x2="404.693" y2="179.377" stroke="#1F1F1F" />
  <line x1="387.63" y1="59.7793" x2="387.63" y2="179.139" stroke="#1F1F1F" />
  <line x1="421.706" y1="60.0176" x2="421.706" y2="179.377" stroke="#1F1F1F" />
  <line x1="438.72" y1="60.0176" x2="438.72" y2="179.377" stroke="#1F1F1F" />
  <line x1="455.733" y1="60.0176" x2="455.733" y2="179.377" stroke="#1F1F1F" />
  <line x1="472.747" y1="60.0176" x2="472.747" y2="179.377" stroke="#1F1F1F" />
  <line x1="489.76" y1="60.0176" x2="489.76" y2="179.377" stroke="#1F1F1F" />
  <line x1="506.773" y1="60.0176" x2="506.773" y2="179.377" stroke="#1F1F1F" />
  <line x1="524.622" y1="59.9668" x2="524.622" y2="179.327" stroke="#1F1F1F" />
  <line x1="368.637" y1="111.068" x2="542.616" y2="111.068" stroke="#1F1F1F" />
  <line x1="368.637" y1="127.947" x2="542.616" y2="127.947" stroke="#1F1F1F" />
  <line x1="368.637" y1="144.826" x2="542.616" y2="144.826" stroke="#1F1F1F" />
  <line x1="368.637" y1="161.707" x2="542.616" y2="161.707" stroke="#1F1F1F" />
  <rect x="368.638" y="60.0176" width="173.843" height="122.438" fill="url(#paint2_linear_0_1)" />
  <path d="M501.708 164.295H409.543L455.625 82.8252L501.708 164.295Z" fill="#0A0A0A"
    stroke="#00B6CC" />
  <circle cx="372.398" cy="46.2286" r="3.75011" fill="#EDEDED" />
  <circle cx="385.959" cy="46.2286" r="3.75011" fill="#00B6CC" />
  <circle cx="399.519" cy="46.2286" r="3.75011" fill="#00FF66" />
  <rect x="0.469376" y="0.522282" width="164" height="42" rx="7.5"
    transform="matrix(0.998924 0.0463759 -0.0601728 0.998188 31.6159 13.8268)" fill="#0A0A0A" />
  <rect x="0.469376" y="0.522282" width="164" height="42" rx="7.5"
    transform="matrix(0.998924 0.0463759 -0.0601728 0.998188 31.6159 13.8268)" stroke="#1F1F1F" />
  <path
    d="M61.2057 42.2493L61.8796 31.0696L64.7565 31.2031C65.2573 31.2264 65.7066 31.306 66.1045 31.4419C66.5029 31.5671 66.839 31.7536 67.1125 32.0012C67.3974 32.2386 67.6091 32.5367 67.7478 32.8955C67.8864 33.2543 67.9413 33.6733 67.9124 34.1524C67.881 34.6741 67.7155 35.1149 67.416 35.4747C67.1165 35.8345 66.7159 36.0988 66.2142 36.2677C66.1164 36.2952 66.0186 36.3227 65.9208 36.3502C65.9841 36.3638 66.047 36.3827 66.1097 36.407C66.5608 36.5454 66.9494 36.7449 67.2756 37.0056C67.6131 37.2562 67.8666 37.5723 68.0359 37.9538C68.2052 38.3354 68.2745 38.7817 68.2437 39.2928C68.1994 40.0275 67.992 40.6318 67.6215 41.1057C67.2623 41.5695 66.7876 41.9105 66.1975 42.1287C65.6186 42.3367 64.9669 42.4239 64.2424 42.3902L61.2057 42.2493ZM62.9657 35.6524L64.484 35.7229C64.857 35.7402 65.1965 35.6919 65.5025 35.578C65.8086 35.4641 66.0542 35.2886 66.2394 35.0517C66.4247 34.8147 66.5279 34.5205 66.5491 34.1692C66.5812 33.6368 66.4194 33.2182 66.0638 32.9134C65.7089 32.598 65.249 32.4272 64.6843 32.4009L63.1659 32.3305L62.9657 35.6524ZM62.6364 41.1145L64.3146 41.1924C64.7941 41.2147 65.2201 41.149 65.5926 40.9955C65.9758 40.8425 66.2783 40.6109 66.5 40.3009C66.7324 39.9914 66.8623 39.6077 66.8899 39.1499C66.9105 38.8091 66.8702 38.503 66.769 38.2314C66.6678 37.9597 66.5108 37.7282 66.298 37.5368C66.0958 37.3459 65.8481 37.201 65.5549 37.1019C65.2623 36.9923 64.9349 36.929 64.5726 36.9122L62.8944 36.8343L62.6364 41.1145ZM70.0842 43.222L70.5608 35.3164L71.8394 35.3757L71.5525 40.1351L76.7479 35.043L76.2713 42.9487L74.9927 42.8893L75.2796 38.13L70.0842 43.222ZM78.4557 46.5736L79.1104 35.7133L80.389 35.7726L80.3129 37.0343C80.4065 36.8999 80.5104 36.7712 80.6247 36.6484C80.911 36.3307 81.2457 36.0954 81.6289 35.9423C82.0234 35.7791 82.4497 35.7082 82.9079 35.7294C83.5792 35.7606 84.1772 35.9432 84.702 36.2772C85.2375 36.6117 85.653 37.0741 85.9487 37.6644C86.245 38.244 86.3691 38.9331 86.3209 39.7316C86.2734 40.5195 86.0672 41.1933 85.7022 41.7529C85.3372 42.3126 84.8684 42.7339 84.2957 43.0169C83.7337 43.3005 83.1171 43.4267 82.4458 43.3955C81.9876 43.3742 81.5719 43.2695 81.1985 43.0814C80.8365 42.883 80.5323 42.6127 80.2858 42.2702C80.1869 42.1375 80.0991 42 80.0222 41.8576L79.7343 46.6329L78.4557 46.5736ZM85.0263 39.6715C85.0603 39.1072 84.972 38.6227 84.7613 38.2178C84.5613 37.8135 84.2756 37.5013 83.9042 37.2812C83.5435 37.0615 83.134 36.9411 82.6759 36.9198C82.3988 36.907 82.1183 36.9527 81.8342 37.0569C81.5501 37.1612 81.2841 37.3197 81.0362 37.5324C80.799 37.7456 80.6011 38.014 80.4427 38.3376C80.2849 38.6506 80.1932 39.0201 80.1675 39.446C80.1419 39.8719 80.1883 40.2531 80.307 40.5896C80.4262 40.9154 80.591 41.1953 80.8013 41.4293C81.0222 41.6638 81.2677 41.846 81.5376 41.976C81.8076 42.106 82.0811 42.1774 82.3582 42.1903C82.8163 42.2115 83.238 42.1297 83.6231 41.9447C84.0189 41.7602 84.3405 41.4762 84.588 41.0926C84.8462 40.7095 84.9923 40.2359 85.0263 39.6715ZM91.502 36.2886L91.4298 37.4864L89.9114 37.4159L89.5408 43.5647L88.2622 43.5054L88.6328 37.3565L87.1145 37.2861L87.1867 36.0882L91.502 36.2886ZM93.6531 47.2791L92.2146 47.2123L94.5028 42.7541L92.0701 36.3149L93.5885 36.3854L95.3451 41.544L97.6641 36.5747L99.1026 36.6414L93.6531 47.2791ZM100.215 37.4458C100.504 37.2564 100.889 37.0714 101.37 36.8909C101.851 36.7103 102.422 36.6354 103.083 36.6661C103.498 36.6854 103.873 36.7562 104.208 36.8785C104.554 36.9906 104.843 37.1482 105.077 37.3512C105.321 37.5547 105.504 37.7981 105.626 38.0814C105.748 38.3647 105.798 38.682 105.777 39.0333L105.459 44.3038L104.181 44.2444L104.244 43.1903C104.208 43.2527 104.168 43.3096 104.122 43.3608C103.845 43.6897 103.494 43.9349 103.068 44.0966C102.642 44.2477 102.173 44.3114 101.662 44.2876C101.204 44.2664 100.788 44.1616 100.414 43.9735C100.041 43.7853 99.7472 43.5207 99.5327 43.1798C99.3295 42.8287 99.243 42.4029 99.2731 41.9025C99.3046 41.3808 99.4591 40.9449 99.7366 40.5947C100.014 40.2446 100.393 39.9846 100.874 39.8147C101.355 39.6341 101.915 39.5587 102.554 39.5884C103.023 39.6102 103.424 39.6875 103.758 39.8205C104.029 39.9398 104.251 40.0676 104.424 40.2037L104.498 38.974C104.513 38.7291 104.451 38.5233 104.311 38.3567C104.172 38.1794 103.988 38.0427 103.759 37.9467C103.53 37.8506 103.282 37.7964 103.015 37.784C102.664 37.7677 102.341 37.8008 102.048 37.8832C101.755 37.9551 101.498 38.0499 101.277 38.1678C101.068 38.2755 100.902 38.3692 100.78 38.449L100.215 37.4458ZM100.571 41.9147C100.555 42.1702 100.611 42.3917 100.739 42.5792C100.867 42.7559 101.046 42.8977 101.274 43.0044C101.504 43.1005 101.762 43.1552 102.05 43.1685C102.476 43.1883 102.858 43.142 103.196 43.0296C103.534 42.9171 103.802 42.7267 104 42.4583C104.208 42.1903 104.326 41.8275 104.354 41.3696L104.371 41.0822C104.186 40.9668 103.999 40.8727 103.811 40.7999C103.445 40.6655 103.028 40.5874 102.559 40.5656C102.133 40.5458 101.773 40.5878 101.478 40.6916C101.194 40.7958 100.976 40.9512 100.825 41.1577C100.673 41.3642 100.589 41.6166 100.571 41.9147ZM114.064 44.7032L112.785 44.6439L113.156 38.495L109.4 38.3207L109.183 41.9141C109.148 42.4891 109.029 42.964 108.825 43.3389C108.632 43.7037 108.348 43.9734 107.975 44.1483C107.601 44.3125 107.138 44.3817 106.584 44.356L106.654 43.1901C106.974 43.2049 107.251 43.1164 107.487 42.9245C107.734 42.7331 107.873 42.3765 107.904 41.8548L108.193 37.0635L114.506 37.3566L114.064 44.7032ZM116.581 45.3807L117.058 37.475L118.336 37.5344L118.049 42.2937L123.245 37.2017L122.768 45.1074L121.489 45.048L121.776 40.2886L116.581 45.3807ZM128.119 40.8714C128.609 40.8941 128.966 40.8199 129.19 40.6488C129.415 40.4671 129.535 40.2431 129.551 39.9769C129.563 39.7853 129.525 39.618 129.437 39.4751C129.35 39.3323 129.218 39.2194 129.041 39.1364C128.864 39.0535 128.648 39.0061 128.392 38.9942C128.073 38.9794 127.803 39.0309 127.582 39.1488C127.372 39.2565 127.214 39.3986 127.107 39.5752C127.001 39.7411 126.943 39.9092 126.933 40.0796L125.638 40.0195C125.663 39.6042 125.803 39.2264 126.059 38.8859C126.315 38.5454 126.651 38.2834 127.068 38.0999C127.486 37.9058 127.95 37.8206 128.462 37.8443C128.941 37.8666 129.367 37.9771 129.74 38.1759C130.113 38.3747 130.397 38.6281 130.592 38.9362C130.797 39.2447 130.889 39.5799 130.868 39.9419C130.846 40.2933 130.721 40.6025 130.491 40.8694C130.283 41.1267 129.993 41.3268 129.622 41.4696C129.643 41.4706 129.664 41.4716 129.685 41.4726C130.124 41.6425 130.457 41.8821 130.684 42.1916C130.912 42.4905 131.012 42.8688 130.984 43.3267C130.955 43.8058 130.797 44.2149 130.509 44.5539C130.233 44.8827 129.871 45.1328 129.422 45.3042C128.975 45.4649 128.49 45.5331 127.968 45.5089C127.105 45.4688 126.426 45.2024 125.932 44.7097C125.449 44.2175 125.186 43.6127 125.144 42.8954L126.439 42.9555C126.492 43.3103 126.633 43.6318 126.861 43.92C127.09 44.2082 127.481 44.3652 128.035 44.3909C128.376 44.4068 128.667 44.3722 128.907 44.2873C129.158 44.2028 129.352 44.0731 129.491 43.898C129.63 43.7229 129.706 43.5183 129.721 43.284C129.736 43.0285 129.68 42.807 129.552 42.6196C129.435 42.4326 129.246 42.2851 128.986 42.1769C128.736 42.0692 128.425 42.0067 128.052 41.9893L128.119 40.8714ZM133.117 38.9733C133.406 38.7839 133.791 38.5989 134.272 38.4184C134.753 38.2378 135.324 38.1629 135.985 38.1936C136.4 38.2129 136.775 38.2837 137.11 38.406C137.456 38.5181 137.746 38.6757 137.979 38.8787C138.223 39.0823 138.406 39.3256 138.528 39.6089C138.65 39.8922 138.7 40.2095 138.679 40.5608L138.361 45.8313L137.083 45.7719L137.146 44.7178C137.11 44.7802 137.07 44.8371 137.024 44.8883C136.748 45.2172 136.396 45.4624 135.97 45.6242C135.544 45.7752 135.075 45.8389 134.564 45.8151C134.106 45.7939 133.69 45.6891 133.317 45.501C132.943 45.3128 132.649 45.0483 132.435 44.7073C132.232 44.3562 132.145 43.9304 132.175 43.43C132.207 42.9083 132.361 42.4724 132.639 42.1222C132.916 41.7721 133.295 41.5121 133.776 41.3422C134.257 41.1617 134.817 41.0862 135.456 41.1159C135.925 41.1377 136.326 41.215 136.66 41.348C136.931 41.4673 137.153 41.5951 137.326 41.7313L137.4 40.5015C137.415 40.2566 137.353 40.0508 137.213 39.8842C137.074 39.7069 136.89 39.5702 136.661 39.4742C136.432 39.3781 136.184 39.3239 135.917 39.3115C135.566 39.2952 135.243 39.3283 134.95 39.4108C134.657 39.4826 134.4 39.5774 134.179 39.6953C133.97 39.803 133.804 39.8968 133.682 39.9765L133.117 38.9733ZM133.473 43.4422C133.457 43.6977 133.513 43.9192 133.641 44.1067C133.769 44.2834 133.948 44.4252 134.176 44.5319C134.406 44.628 134.664 44.6827 134.952 44.696C135.378 44.7158 135.76 44.6695 136.098 44.5571C136.436 44.4446 136.704 44.2542 136.902 43.9858C137.11 43.7179 137.228 43.355 137.256 42.8971L137.273 42.6097C137.088 42.4943 136.901 42.4002 136.713 42.3274C136.347 42.193 135.93 42.1149 135.461 42.0931C135.035 42.0733 134.675 42.1153 134.38 42.2191C134.096 42.3233 133.878 42.4787 133.727 42.6852C133.575 42.8918 133.491 43.1441 133.473 43.4422ZM147.869 45.0715L147.71 47.7067L146.591 47.6548L146.678 46.2174L140.525 45.9317L140.967 38.585L142.246 38.6444L141.875 44.7932L145.312 44.9528L145.682 38.8039L146.961 38.8633L146.59 45.0121L147.869 45.0715ZM149.608 46.914L150.085 39.0083L151.363 39.0677L151.076 43.827L156.272 38.735L155.795 46.6407L154.516 46.5813L154.803 41.8219L149.608 46.914ZM157.92 46.7393L160.244 43.8042C160.086 43.7649 159.934 43.7151 159.788 43.6549C159.382 43.4866 159.071 43.2373 158.856 42.9069C158.641 42.566 158.55 42.1347 158.581 41.6129C158.613 41.0806 158.756 40.6601 159.01 40.3516C159.263 40.0431 159.597 39.8236 160.011 39.6934C160.436 39.5636 160.898 39.5104 161.399 39.5336L164.436 39.6746L163.993 47.0213L162.714 46.9619L162.891 44.0232L161.581 43.9624L159.326 46.8046L157.92 46.7393ZM162.959 42.9053L163.09 40.7332L161.332 40.6516C161.023 40.6372 160.759 40.6677 160.541 40.743C160.334 40.8081 160.172 40.9181 160.056 41.0728C159.94 41.2276 159.875 41.4274 159.86 41.6723C159.845 41.9172 159.886 42.122 159.983 42.2866C160.08 42.4513 160.227 42.5809 160.424 42.6755C160.633 42.7599 160.892 42.8093 161.201 42.8236L162.959 42.9053Z"
    fill="#EDEDED" />
  <rect x="0.554577" y="0.453186" width="228" height="42" rx="7.5"
    transform="matrix(0.996189 -0.0872264 0.112965 0.993599 -0.0490806 71.6958)" fill="#0C321B" />
  <rect x="0.554577" y="0.453186" width="228" height="42" rx="7.5"
    transform="matrix(0.996189 -0.0872264 0.112965 0.993599 -0.0490806 71.6958)" stroke="#00FF66" />
  <path
    d="M34.4451 85.7673L35.5657 95.6238L34.2109 95.7424L32.9456 84.6141L41.7918 83.8395L43.057 94.9679L41.7022 95.0865L40.5816 85.23L34.4451 85.7673ZM45.843 98.2562L44.6139 87.4458L45.8891 87.3342L46.0319 88.5901C46.1012 88.4449 46.1818 88.304 46.2736 88.1675C46.5019 87.8157 46.7923 87.5388 47.145 87.3366C47.507 87.1229 47.9165 86.9961 48.3734 86.9561C49.0429 86.8975 49.666 86.9981 50.2429 87.258C50.8304 87.517 51.3214 87.9182 51.7158 88.4617C52.1091 88.9946 52.3509 89.6584 52.4413 90.4533C52.5305 91.2376 52.4429 91.9303 52.1785 92.5315C51.9142 93.1326 51.5232 93.6111 51.0056 93.9668C50.4986 94.3216 49.9104 94.5283 49.241 94.5869C48.7841 94.6269 48.3547 94.5789 47.9529 94.4428C47.5605 94.2952 47.2128 94.0688 46.9098 93.7635C46.7891 93.6456 46.6784 93.5215 46.5777 93.3912L47.1181 98.1445L45.843 98.2562ZM51.1502 90.5664C51.0864 90.0046 50.9153 89.538 50.6369 89.1663C50.3692 88.7937 50.0326 88.5234 49.6272 88.3556C49.2324 88.1868 48.8065 88.1224 48.3496 88.1624C48.0733 88.1866 47.8037 88.269 47.5406 88.4098C47.2776 88.5506 47.0419 88.7425 46.8334 88.9855C46.6356 89.2276 46.4862 89.519 46.3855 89.8597C46.2835 90.1897 46.2566 90.5667 46.3048 90.9906C46.353 91.4146 46.4648 91.7848 46.6403 92.1012C46.8146 92.4071 47.026 92.6615 47.2744 92.8645C47.5335 93.0666 47.8078 93.2139 48.0973 93.3063C48.3869 93.3987 48.6698 93.4328 48.946 93.4086C49.403 93.3686 49.8059 93.2316 50.1549 92.9977C50.5146 92.7628 50.7837 92.4395 50.9623 92.0279C51.1514 91.6152 51.2141 91.1281 51.1502 90.5664ZM53.562 90.3552C53.4777 89.6133 53.5677 88.9418 53.832 88.3406C54.107 87.7385 54.5127 87.2481 55.0491 86.8693C55.5856 86.4905 56.2098 86.2699 56.9217 86.2076C57.6443 86.1443 58.3058 86.2523 58.9064 86.5316C59.5175 86.8099 60.0203 87.2208 60.4148 87.7642C60.8199 88.3068 61.0646 88.949 61.149 89.6909C61.2321 90.4222 61.1368 91.0941 60.8631 91.7068C60.5987 92.308 60.1983 92.798 59.6619 93.1768C59.136 93.5546 58.5119 93.7752 57.7893 93.8385C57.0773 93.9008 56.4158 93.7928 55.8046 93.5145C55.1935 93.2362 54.6853 92.8258 54.2802 92.2832C53.8846 91.7292 53.6452 91.0865 53.562 90.3552ZM54.8531 90.2421C54.9109 90.7509 55.0684 91.192 55.3255 91.5655C55.5932 91.9381 55.9263 92.2247 56.3247 92.4253C56.7325 92.6144 57.1756 92.688 57.6537 92.6461C58.1319 92.6043 58.5443 92.4558 58.8909 92.2006C59.2469 91.934 59.5089 91.5953 59.6768 91.1845C59.8554 90.7728 59.9158 90.3126 59.8579 89.8039C59.8001 89.2952 59.6373 88.8545 59.3696 88.4819C59.1113 88.0978 58.7782 87.8112 58.3703 87.6221C57.9731 87.4321 57.5354 87.3581 57.0573 87.3999C56.5791 87.4418 56.1614 87.5908 55.8042 87.8468C55.4576 88.102 55.1956 88.4407 55.0182 88.8629C54.8503 89.2737 54.7952 89.7334 54.8531 90.2421ZM66.4697 85.5321L66.6053 86.7245L63.9753 86.9547L64.6712 93.0753L63.3961 93.187L62.5646 85.8741L66.4697 85.5321ZM68.8954 96.2377L67.6664 85.4274L68.9415 85.3157L69.0843 86.5716C69.1536 86.4264 69.2342 86.2855 69.326 86.1491C69.5543 85.7973 69.8448 85.5203 70.1974 85.3181C70.5594 85.1045 70.9689 84.9776 71.4258 84.9376C72.0953 84.879 72.7184 84.9797 73.2953 85.2396C73.8828 85.4985 74.3738 85.8997 74.7683 86.4432C75.1615 86.9761 75.4034 87.64 75.4937 88.4348C75.5829 89.2191 75.4953 89.9118 75.231 90.513C74.9666 91.1142 74.5757 91.5926 74.058 91.9483C73.5511 92.3031 72.9629 92.5099 72.2934 92.5685C71.8365 92.6085 71.4071 92.5604 71.0053 92.4244C70.6129 92.2768 70.2652 92.0503 69.9622 91.745C69.8415 91.6271 69.7308 91.503 69.6301 91.3727L70.1706 96.1261L68.8954 96.2377ZM74.2027 88.5479C74.1388 87.9862 73.9677 87.5195 73.6893 87.1478C73.4216 86.7752 73.085 86.505 72.6796 86.3371C72.2848 86.1683 71.8589 86.1039 71.402 86.1439C71.1257 86.1681 70.8561 86.2506 70.5931 86.3913C70.33 86.5321 70.0943 86.724 69.8858 86.9671C69.688 87.2092 69.5387 87.5005 69.4379 87.8412C69.3359 88.1712 69.309 88.5482 69.3572 88.9722C69.4054 89.3961 69.5172 89.7663 69.6927 90.0827C69.867 90.3886 70.0784 90.643 70.3268 90.8461C70.5859 91.0482 70.8602 91.1954 71.1498 91.2878C71.4393 91.3802 71.7222 91.4143 71.9985 91.3901C72.4554 91.3501 72.8584 91.2131 73.2074 90.9792C73.567 90.7443 73.8361 90.4211 74.0147 90.0094C74.2039 89.5968 74.2665 89.1096 74.2027 88.5479ZM76.8734 85.3758C77.1268 85.1503 77.4758 84.9163 77.9205 84.674C78.3651 84.4317 78.9168 84.2817 79.5757 84.224C79.9901 84.1877 80.3733 84.2077 80.7254 84.2839C81.0869 84.3486 81.4007 84.4656 81.6668 84.635C81.9435 84.8034 82.1666 85.0194 82.3361 85.2829C82.5055 85.5463 82.6101 85.8529 82.6499 86.2027L83.2464 91.4489L81.9712 91.5605L81.852 90.5113C81.8273 90.5777 81.7967 90.6392 81.7603 90.6959C81.5438 91.0574 81.2386 91.3464 80.8447 91.5628C80.4495 91.7687 79.9969 91.8939 79.4869 91.9386C79.03 91.9786 78.6006 91.9306 78.1988 91.7945C77.797 91.6584 77.4605 91.4363 77.1894 91.1283C76.9277 90.8086 76.7685 90.3998 76.7119 89.9017C76.6528 89.3823 76.7303 88.9313 76.9444 88.5487C77.1584 88.166 77.4884 87.8588 77.9343 87.6271C78.3789 87.3848 78.92 87.2357 79.5576 87.1799C80.0251 87.139 80.4355 87.1619 80.7888 87.2487C81.0771 87.3305 81.3189 87.4271 81.514 87.5384L81.3748 86.3143C81.3471 86.0706 81.2498 85.8757 81.083 85.7297C80.9149 85.5732 80.7092 85.4628 80.4658 85.3984C80.2224 85.3341 79.9678 85.3136 79.7022 85.3369C79.3515 85.3676 79.0382 85.4432 78.7621 85.5637C78.4848 85.6736 78.2472 85.8014 78.0491 85.9472C77.8605 86.0815 77.7125 86.1961 77.6053 86.2911L76.8734 85.3758ZM77.9975 89.7409C78.0264 89.9953 78.1202 90.2065 78.2788 90.3746C78.4362 90.5321 78.6373 90.6483 78.8819 90.7232C79.1253 90.7875 79.3904 90.8071 79.6773 90.782C80.1024 90.7447 80.4724 90.6481 80.7873 90.4921C81.1023 90.3361 81.3344 90.1124 81.4837 89.821C81.6437 89.5287 81.6977 89.1547 81.6459 88.699L81.6134 88.4128C81.4101 88.3236 81.2091 88.2555 81.0106 88.2087C80.6255 88.1247 80.1991 88.1031 79.7316 88.1441C79.3065 88.1813 78.9572 88.2707 78.6835 88.4124C78.4205 88.5532 78.232 88.7356 78.118 88.9597C78.0039 89.1838 77.9638 89.4442 77.9975 89.7409ZM90.9962 82.8226L93.8036 90.5245L92.3691 90.6501L91.008 86.4663L89.0779 91.436L86.1166 86.9106L85.7225 91.2321L84.288 91.3577L85.306 83.3209L88.7869 88.8765L90.9962 82.8226ZM100.678 81.9749L103.485 89.6767L102.051 89.8024L100.69 85.6186L98.7596 90.5883L95.7983 86.0629L95.4042 90.3843L93.9697 90.5099L94.9877 82.4732L98.4686 88.0287L100.678 81.9749ZM110.55 81.6724L111.382 88.9853L110.107 89.097L109.736 85.838L105.672 86.1939L106.042 89.4529L104.767 89.5645L103.936 82.2516L105.211 82.14L105.536 85.0015L109.601 84.6457L109.275 81.7841L110.55 81.6724ZM120.838 80.7717L121.669 88.0845L120.394 88.1962L119.563 80.8833L120.838 80.7717ZM114.223 81.3508L114.538 84.117L116.291 83.9635C116.801 83.9188 117.267 83.9583 117.689 84.0819C118.111 84.2056 118.458 84.4267 118.73 84.7454C119.001 85.0535 119.167 85.4725 119.227 86.0024C119.286 86.5217 119.218 86.9612 119.023 87.3208C118.828 87.6804 118.537 87.9574 118.152 88.1517C117.766 88.3461 117.318 88.4656 116.808 88.5102L113.78 88.7754L112.948 81.4625L114.223 81.3508ZM114.928 87.5509L116.681 87.3974C116.99 87.3704 117.24 87.3057 117.432 87.2032C117.634 87.0892 117.778 86.9428 117.865 86.7639C117.951 86.5744 117.98 86.3578 117.952 86.114C117.924 85.8703 117.848 85.6683 117.722 85.508C117.596 85.3371 117.421 85.2186 117.199 85.1524C116.986 85.0747 116.726 85.0494 116.418 85.0763L114.664 85.2299L114.928 87.5509ZM124.343 84.4788C124.423 84.8999 124.555 85.2629 124.74 85.5679C124.976 85.9432 125.281 86.2163 125.654 86.3869C126.028 86.5576 126.454 86.622 126.932 86.5801C127.293 86.5485 127.606 86.4676 127.87 86.3374C128.144 86.1957 128.381 86.0197 128.583 85.8094C128.783 85.5885 128.948 85.3386 129.077 85.0597L130.187 85.6208C129.985 86.0131 129.751 86.3654 129.486 86.6776C129.22 86.9792 128.884 87.2281 128.477 87.4243C128.068 87.6099 127.546 87.7306 126.908 87.7864C126.249 87.8441 125.635 87.7319 125.067 87.4499C124.509 87.1669 124.043 86.7528 123.67 86.2075C123.306 85.6506 123.083 85.0065 122.999 84.2752C122.984 84.1375 122.974 84.0045 122.97 83.8764C122.966 83.7483 122.968 83.6197 122.975 83.4907C123.012 82.8773 123.165 82.3287 123.431 81.8451C123.698 81.3614 124.067 80.9706 124.538 80.6725C125.019 80.3735 125.573 80.1965 126.2 80.1416C126.89 80.0811 127.514 80.1818 128.069 80.4435C128.625 80.7053 129.078 81.1045 129.429 81.6411C129.778 82.1671 129.997 82.8169 130.085 83.5906L130.107 83.7814C130.114 83.845 130.116 83.909 130.113 83.9735L124.343 84.4788ZM128.619 83.0125C128.533 82.6347 128.389 82.3102 128.186 82.0389C127.993 81.7561 127.739 81.5482 127.423 81.4153C127.117 81.2709 126.751 81.2172 126.326 81.2544C125.901 81.2917 125.524 81.4157 125.193 81.6266C124.863 81.8375 124.616 82.116 124.451 82.4622C124.312 82.7421 124.245 83.053 124.252 83.3949L128.619 83.0125ZM143.011 86.2158L141.736 86.3275L141.04 80.2069L137.614 80.507L138.309 86.6275L137.034 86.7392L136.203 79.4263L142.18 78.9029L143.011 86.2158ZM145.726 89.5104L144.497 78.7L145.773 78.5884L145.915 79.8443C145.985 79.6991 146.065 79.5582 146.157 79.4217C146.385 79.0699 146.676 78.7929 147.028 78.5908C147.39 78.3771 147.8 78.2503 148.257 78.2103C148.926 78.1517 149.549 78.2523 150.126 78.5122C150.714 78.7712 151.205 79.1724 151.599 79.7159C151.993 80.2488 152.234 80.9126 152.325 81.7075C152.414 82.4918 152.326 83.1845 152.062 83.7857C151.798 84.3868 151.407 84.8653 150.889 85.221C150.382 85.5758 149.794 85.7825 149.124 85.8411C148.668 85.8811 148.238 85.8331 147.836 85.697C147.444 85.5494 147.096 85.323 146.793 85.0177C146.673 84.8998 146.562 84.7757 146.461 84.6454L147.002 89.3987L145.726 89.5104ZM151.034 81.8206C150.97 81.2588 150.799 80.7922 150.52 80.4205C150.253 80.0479 149.916 79.7776 149.511 79.6098C149.116 79.441 148.69 79.3766 148.233 79.4166C147.957 79.4408 147.687 79.5232 147.424 79.664C147.161 79.8048 146.925 79.9967 146.717 80.2397C146.519 80.4818 146.37 80.7732 146.269 81.1139C146.167 81.4439 146.14 81.8209 146.188 82.2448C146.236 82.6688 146.348 83.039 146.524 83.3554C146.698 83.6613 146.909 83.9157 147.158 84.1187C147.417 84.3208 147.691 84.4681 147.981 84.5605C148.27 84.6529 148.553 84.687 148.83 84.6628C149.286 84.6228 149.689 84.4858 150.038 84.2519C150.398 84.017 150.667 83.6937 150.846 83.282C151.035 82.8694 151.098 82.3823 151.034 81.8206ZM153.445 81.6094C153.361 80.8675 153.451 80.196 153.715 79.5948C153.99 78.9927 154.396 78.5023 154.933 78.1235C155.469 77.7447 156.093 77.5241 156.805 77.4618C157.528 77.3985 158.189 77.5065 158.79 77.7858C159.401 78.0641 159.904 78.475 160.298 79.0184C160.703 79.561 160.948 80.2032 161.032 80.9451C161.116 81.6764 161.02 82.3483 160.747 82.961C160.482 83.5622 160.082 84.0522 159.545 84.431C159.02 84.8088 158.395 85.0294 157.673 85.0926C156.961 85.155 156.299 85.047 155.688 84.7687C155.077 84.4904 154.569 84.08 154.164 83.5374C153.768 82.9834 153.529 82.3407 153.445 81.6094ZM154.737 81.4963C154.794 82.0051 154.952 82.4462 155.209 82.8197C155.477 83.1923 155.81 83.4789 156.208 83.6795C156.616 83.8686 157.059 83.9422 157.537 83.9003C158.015 83.8585 158.428 83.71 158.774 83.4548C159.13 83.1882 159.392 82.8495 159.56 82.4387C159.739 82.027 159.799 81.5668 159.741 81.0581C159.684 80.5494 159.521 80.1087 159.253 79.7361C158.995 79.352 158.662 79.0654 158.254 78.8763C157.857 78.6863 157.419 78.6123 156.941 78.6541C156.463 78.696 156.045 78.845 155.688 79.101C155.341 79.3561 155.079 79.6949 154.902 80.1171C154.734 80.5279 154.679 80.9876 154.737 81.4963ZM163.203 84.4479L163.366 85.8786L162.011 85.9973L161.713 83.3742L163.02 83.2597L165.496 76.2994L169.491 82.6931L170.798 82.5787L171.096 85.2018L169.821 85.3134L169.658 83.8826L163.203 84.4479ZM164.438 83.1355L168.072 82.8173L165.809 79.0497L164.438 83.1355ZM174.206 87.0167L172.772 87.1423L174.265 82.4356L170.746 76.4017L172.26 76.2691L174.889 81.1286L176.324 75.9133L177.759 75.7877L174.206 87.0167ZM180.157 75.5777L180.448 78.1372L182.866 75.3405L184.46 75.2009L181.616 78.5006L185.61 82.4859L184.016 82.6254L180.567 79.1865L180.988 82.8906L179.713 83.0022L178.881 75.6894L180.157 75.5777ZM189.169 74.7886L189.305 75.9809L187.79 76.1135L188.486 82.2341L187.211 82.3457L186.515 76.2251L185.001 76.3577L184.865 75.1654L189.169 74.7886ZM198.338 73.9857L199.17 81.2986L197.895 81.4103L197.063 74.0974L198.338 73.9857ZM191.724 74.5649L192.038 77.3311L193.791 77.1776C194.301 77.1329 194.767 77.1724 195.189 77.296C195.611 77.4196 195.958 77.6408 196.231 77.9595C196.502 78.2675 196.667 78.6865 196.728 79.2165C196.787 79.7358 196.719 80.1752 196.523 80.5349C196.328 80.8945 196.038 81.1715 195.652 81.3658C195.266 81.5601 194.818 81.6796 194.308 81.7243L191.28 81.9894L190.448 74.6766L191.724 74.5649ZM192.428 80.765L194.182 80.6114C194.49 80.5845 194.74 80.5197 194.932 80.4173C195.134 80.3033 195.278 80.1568 195.365 79.978C195.451 79.7885 195.48 79.5719 195.452 79.3281C195.425 79.0843 195.348 78.8823 195.223 78.7221C195.096 78.5512 194.921 78.4327 194.699 78.3665C194.487 78.2888 194.226 78.2634 193.918 78.2904L192.165 78.4439L192.428 80.765Z"
    fill="#00FF66" />
  <rect x="0.526854" y="0.478219" width="195" height="42" rx="7.5"
    transform="matrix(0.999115 -0.0420708 0.054594 0.998509 13.5613 157.734)" fill="#0A0A0A" />
  <rect x="0.526854" y="0.478219" width="195" height="42" rx="7.5"
    transform="matrix(0.999115 -0.0420708 0.054594 0.998509 13.5613 157.734)" stroke="#1F1F1F" />
  <path
    d="M46.3133 183.354L45.7019 172.171L48.5793 172.05C49.0802 172.029 49.5363 172.068 49.9477 172.168C50.3585 172.258 50.7142 172.414 51.0148 172.636C51.3254 172.847 51.5702 173.125 51.7493 173.47C51.9284 173.814 52.031 174.226 52.0572 174.706C52.0858 175.228 51.9717 175.681 51.715 176.065C51.4583 176.45 51.09 176.748 50.6103 176.96C50.5161 176.996 50.422 177.032 50.3278 177.068C50.3923 177.076 50.4571 177.09 50.5222 177.108C50.9869 177.206 51.3964 177.37 51.7509 177.601C52.1154 177.82 52.4037 178.113 52.6159 178.477C52.8282 178.842 52.9482 179.28 52.9762 179.791C53.0164 180.526 52.8793 181.146 52.5651 181.65C52.2609 182.143 51.8278 182.524 51.2657 182.794C50.7137 183.052 50.0753 183.196 49.3506 183.226L46.3133 183.354ZM47.3079 176.635L48.8265 176.571C49.1995 176.555 49.5317 176.477 49.8231 176.337C50.1146 176.197 50.3388 176 50.4959 175.748C50.6531 175.496 50.722 175.194 50.7028 174.843C50.6737 174.31 50.4648 173.908 50.076 173.636C49.6867 173.354 49.2097 173.224 48.6448 173.248L47.1262 173.312L47.3079 176.635ZM47.6066 182.099L49.2851 182.028C49.7647 182.008 50.181 181.905 50.534 181.719C50.8977 181.533 51.1721 181.276 51.3571 180.948C51.5527 180.62 51.6381 180.226 51.613 179.769C51.5944 179.428 51.5192 179.127 51.3874 178.865C51.2556 178.604 51.0729 178.387 50.8392 178.216C50.6161 178.044 50.3531 177.921 50.05 177.849C49.7464 177.765 49.4134 177.731 49.051 177.747L47.3725 177.817L47.6066 182.099ZM55.2579 183.538L54.8255 175.63L56.1043 175.576L56.3647 180.337L60.9495 174.812L61.3818 182.72L60.103 182.774L59.8427 178.013L55.2579 183.538ZM64.6577 182.582L64.7363 184.02L63.3775 184.077L63.2334 181.441L64.5442 181.386L67.4225 174.539L71.0345 181.112L72.3453 181.057L72.4894 183.693L71.2106 183.747L71.1319 182.309L64.6577 182.582ZM65.967 181.326L69.6117 181.172L67.5736 177.303L65.967 181.326ZM74.8215 178.791C74.8767 179.216 74.9877 179.585 75.1544 179.898C75.3677 180.284 75.6558 180.571 76.0186 180.758C76.3813 180.946 76.8025 181.03 77.282 181.01C77.6444 180.994 77.9612 180.928 78.2325 180.809C78.5138 180.68 78.7611 180.515 78.9744 180.314C79.1872 180.102 79.3662 179.86 79.5115 179.587L80.5864 180.198C80.3617 180.581 80.108 180.923 79.8253 181.223C79.542 181.512 79.1916 181.746 78.7741 181.923C78.3559 182.091 77.8271 182.188 77.1877 182.214C76.527 182.242 75.9211 182.102 75.3702 181.795C74.83 181.486 74.3896 181.051 74.0491 180.489C73.7186 179.916 73.5333 179.262 73.4931 178.527C73.4856 178.388 73.4836 178.255 73.4873 178.127C73.491 177.999 73.5 177.87 73.5143 177.741C73.5877 177.13 73.7717 176.588 74.0664 176.117C74.361 175.645 74.7518 175.271 75.2388 174.995C75.7363 174.717 76.2995 174.566 76.9283 174.539C77.621 174.51 78.2369 174.639 78.776 174.926C79.3151 175.213 79.7439 175.632 80.0625 176.185C80.3806 176.726 80.5608 177.386 80.6033 178.163L80.6138 178.355C80.6173 178.419 80.6155 178.483 80.6083 178.548L74.8215 178.791ZM79.1741 177.519C79.1106 177.137 78.9856 176.806 78.7994 176.526C78.6232 176.235 78.3816 176.015 78.0744 175.868C77.7774 175.71 77.4157 175.64 76.9894 175.658C76.5631 175.675 76.1791 175.782 75.8373 175.978C75.4955 176.174 75.2324 176.441 75.048 176.78C74.892 177.054 74.8074 177.361 74.794 177.704L79.1741 177.519ZM81.7202 178.181C81.6795 177.435 81.8086 176.768 82.1075 176.179C82.4171 175.589 82.8506 175.117 83.408 174.763C83.9654 174.408 84.6012 174.216 85.3152 174.186C86.0399 174.156 86.6937 174.293 87.2766 174.6C87.8701 174.906 88.3478 175.339 88.7096 175.901C89.0821 176.461 89.2887 177.115 89.3295 177.86C89.3697 178.595 89.2353 179.263 88.9263 179.863C88.6273 180.452 88.1991 180.923 87.6417 181.278C87.0949 181.632 86.4592 181.824 85.7345 181.855C85.0205 181.885 84.3667 181.747 83.7731 181.441C83.1796 181.135 82.6966 180.701 82.3241 180.141C81.9617 179.569 81.7604 178.915 81.7202 178.181ZM83.0151 178.126C83.043 178.637 83.1744 179.085 83.409 179.47C83.6544 179.855 83.97 180.157 84.3558 180.375C84.7517 180.583 85.1894 180.677 85.669 180.656C86.1486 180.636 86.5687 180.506 86.9295 180.267C87.3004 180.017 87.5816 179.69 87.7732 179.287C87.9754 178.883 88.0626 178.426 88.0346 177.915C88.0067 177.403 87.87 176.955 87.6247 176.571C87.3894 176.175 87.0738 175.873 86.6779 175.666C86.2927 175.458 85.8603 175.364 85.3807 175.384C84.9012 175.404 84.4757 175.534 84.1042 175.774C83.7434 176.014 83.4622 176.34 83.2606 176.755C83.069 177.158 82.9871 177.615 83.0151 178.126ZM97.5195 173.832L97.9213 181.181L96.6425 181.235L96.4634 177.96L92.387 178.132L92.5661 181.407L91.2872 181.461L90.8854 174.112L92.1643 174.058L92.3215 176.933L96.3979 176.762L96.2407 173.886L97.5195 173.832ZM99.9174 174.484C100.183 174.27 100.545 174.052 101.003 173.83C101.461 173.608 102.02 173.483 102.681 173.455C103.097 173.437 103.478 173.475 103.825 173.567C104.182 173.648 104.488 173.779 104.744 173.96C105.01 174.141 105.22 174.367 105.374 174.638C105.527 174.91 105.614 175.221 105.633 175.572L105.921 180.844L104.642 180.898L104.585 179.844C104.556 179.909 104.522 179.969 104.482 180.024C104.245 180.376 103.924 180.651 103.518 180.85C103.112 181.037 102.653 181.142 102.141 181.164C101.683 181.183 101.257 181.116 100.864 180.961C100.471 180.807 100.149 180.57 99.8961 180.249C99.6537 179.918 99.5188 179.502 99.4914 179.001C99.4629 178.48 99.5666 178.032 99.8026 177.659C100.039 177.286 100.386 176.994 100.844 176.783C101.302 176.561 101.851 176.436 102.49 176.409C102.959 176.389 103.367 176.431 103.715 176.534C103.998 176.629 104.233 176.736 104.421 176.856L104.354 175.626C104.341 175.381 104.255 175.182 104.097 175.028C103.938 174.864 103.74 174.745 103.501 174.669C103.261 174.594 103.009 174.562 102.742 174.573C102.391 174.588 102.073 174.649 101.791 174.757C101.508 174.855 101.263 174.972 101.057 175.108C100.861 175.234 100.707 175.342 100.594 175.432L99.9174 174.484ZM100.784 178.899C100.798 179.155 100.879 179.37 101.027 179.545C101.175 179.71 101.369 179.835 101.609 179.921C101.848 179.996 102.111 180.028 102.399 180.016C102.825 179.998 103.2 179.918 103.523 179.776C103.847 179.635 104.092 179.422 104.258 179.137C104.434 178.852 104.51 178.481 104.485 178.023L104.469 177.735C104.272 177.637 104.075 177.559 103.88 177.504C103.5 177.402 103.076 177.361 102.607 177.381C102.181 177.399 101.827 177.473 101.546 177.602C101.275 177.731 101.076 177.905 100.95 178.123C100.823 178.342 100.767 178.601 100.784 178.899ZM110.839 173.111C111.564 173.081 112.218 173.219 112.801 173.525C113.394 173.831 113.872 174.265 114.234 174.826C114.606 175.387 114.813 176.04 114.854 176.785C114.894 177.52 114.76 178.188 114.451 178.788C114.152 179.377 113.723 179.849 113.166 180.203C112.619 180.557 111.983 180.749 111.259 180.78C110.545 180.81 109.89 180.661 109.296 180.334C108.7 179.996 108.213 179.478 107.833 178.778C107.463 178.079 107.25 177.202 107.192 176.147C107.151 175.402 107.167 174.718 107.24 174.095C107.313 173.473 107.458 172.912 107.677 172.412C107.906 171.911 108.224 171.476 108.631 171.107C109.037 170.726 109.554 170.411 110.181 170.161C110.893 169.885 111.415 169.57 111.748 169.214C112.091 168.847 112.289 168.47 112.343 168.084L113.606 168.031C113.578 168.502 113.431 168.94 113.165 169.346C112.898 169.742 112.538 170.093 112.085 170.401C111.643 170.708 111.134 170.969 110.558 171.186C110.066 171.366 109.662 171.608 109.348 171.909C109.044 172.21 108.806 172.546 108.634 172.916C108.472 173.286 108.365 173.674 108.313 174.082C108.275 174.372 108.259 174.656 108.263 174.933C108.367 174.673 108.498 174.438 108.657 174.228C108.916 173.886 109.228 173.622 109.591 173.436C109.965 173.239 110.381 173.131 110.839 173.111ZM111.193 179.582C111.673 179.561 112.093 179.432 112.454 179.192C112.825 178.942 113.106 178.615 113.297 178.212C113.5 177.808 113.587 177.351 113.559 176.84C113.531 176.329 113.394 175.881 113.149 175.496C112.914 175.1 112.598 174.799 112.202 174.591C111.817 174.383 111.385 174.289 110.905 174.309C110.628 174.321 110.343 174.392 110.051 174.522C109.759 174.651 109.492 174.833 109.248 175.068C109.015 175.302 108.828 175.587 108.686 175.924C108.554 176.25 108.5 176.626 108.523 177.052C108.551 177.563 108.688 178.011 108.933 178.396C109.179 178.78 109.494 179.082 109.88 179.301C110.276 179.508 110.714 179.602 111.193 179.582ZM123.254 180.115L121.975 180.168L121.639 174.018L117.882 174.176L118.078 177.77C118.11 178.346 118.046 178.829 117.885 179.22C117.735 179.6 117.484 179.893 117.132 180.1C116.78 180.296 116.327 180.406 115.772 180.43L115.709 179.263C116.028 179.25 116.295 179.137 116.507 178.925C116.731 178.713 116.828 178.346 116.8 177.824L116.538 173.031L122.852 172.766L123.254 180.115ZM126.602 172.608L126.76 175.483L128.103 175.427C128.165 174.997 128.292 174.597 128.486 174.226C128.784 173.637 129.213 173.165 129.77 172.811C130.327 172.456 130.963 172.264 131.677 172.234C132.402 172.203 133.056 172.341 133.639 172.648C134.232 172.954 134.71 173.387 135.072 173.948C135.444 174.509 135.651 175.162 135.692 175.908C135.732 176.643 135.597 177.31 135.288 177.91C134.989 178.5 134.561 178.971 134.004 179.326C133.457 179.68 132.821 179.872 132.097 179.902C131.383 179.932 130.729 179.794 130.135 179.489C129.542 179.183 129.064 178.744 128.701 178.172C128.399 177.715 128.205 177.2 128.12 176.627L126.825 176.682L127.004 179.957L125.725 180.01L125.324 172.661L126.602 172.608ZM129.377 176.174C129.405 176.685 129.536 177.133 129.771 177.518C130.016 177.903 130.332 178.205 130.718 178.423C131.114 178.631 131.551 178.724 132.031 178.704C132.511 178.684 132.931 178.554 133.292 178.315C133.662 178.064 133.944 177.738 134.135 177.335C134.337 176.931 134.425 176.474 134.397 175.962C134.369 175.451 134.232 175.003 133.987 174.619C133.751 174.223 133.436 173.921 133.04 173.714C132.655 173.506 132.222 173.412 131.743 173.432C131.263 173.452 130.838 173.582 130.466 173.822C130.105 174.061 129.824 174.388 129.623 174.802C129.431 175.205 129.349 175.663 129.377 176.174ZM137.655 179.508L137.734 180.946L136.375 181.003L136.231 178.367L137.542 178.312L140.42 171.465L144.032 178.039L145.343 177.983L145.487 180.62L144.208 180.673L144.13 179.236L137.655 179.508ZM138.965 178.252L142.61 178.099L140.571 174.229L138.965 178.252ZM147.819 175.717C147.875 176.142 147.985 176.511 148.152 176.824C148.366 177.21 148.654 177.497 149.016 177.685C149.379 177.872 149.8 177.956 150.28 177.936C150.642 177.92 150.959 177.854 151.23 177.736C151.512 177.606 151.759 177.441 151.972 177.24C152.185 177.028 152.364 176.786 152.509 176.513L153.584 177.124C153.359 177.507 153.106 177.849 152.823 178.149C152.54 178.438 152.189 178.672 151.772 178.85C151.354 179.017 150.825 179.114 150.186 179.141C149.525 179.168 148.919 179.029 148.368 178.721C147.828 178.413 147.387 177.977 147.047 177.415C146.716 176.842 146.531 176.188 146.491 175.453C146.483 175.315 146.481 175.181 146.485 175.053C146.489 174.925 146.498 174.796 146.512 174.668C146.585 174.056 146.77 173.515 147.064 173.043C147.359 172.572 147.75 172.198 148.237 171.921C148.734 171.644 149.297 171.492 149.926 171.465C150.619 171.436 151.235 171.565 151.774 171.852C152.313 172.139 152.742 172.558 153.06 173.111C153.378 173.653 153.559 174.312 153.601 175.09L153.612 175.281C153.615 175.345 153.613 175.409 153.606 175.474L147.819 175.717ZM152.172 174.445C152.108 174.064 151.983 173.733 151.797 173.452C151.621 173.161 151.379 172.941 151.072 172.794C150.775 172.636 150.414 172.566 149.987 172.584C149.561 172.602 149.177 172.709 148.835 172.904C148.493 173.1 148.23 173.368 148.046 173.706C147.89 173.98 147.805 174.288 147.792 174.63L152.172 174.445ZM161.791 171.126L162.193 178.475L160.914 178.529L160.735 175.254L156.658 175.425L156.837 178.7L155.558 178.754L155.157 171.405L156.435 171.351L156.593 174.227L160.669 174.055L160.512 171.18L161.791 171.126ZM164.708 178.929L164.275 171.021L165.554 170.967L165.815 175.728L170.399 170.203L170.832 178.111L169.553 178.165L169.293 173.404L164.708 178.929ZM173.796 174.624C173.852 175.048 173.962 175.417 174.129 175.731C174.343 176.117 174.631 176.403 174.993 176.591C175.356 176.778 175.777 176.862 176.257 176.842C176.619 176.827 176.936 176.76 177.207 176.642C177.489 176.512 177.736 176.347 177.949 176.146C178.162 175.934 178.341 175.692 178.486 175.419L179.561 176.03C179.336 176.413 179.083 176.755 178.8 177.055C178.517 177.345 178.166 177.578 177.749 177.756C177.331 177.923 176.802 178.02 176.162 178.047C175.502 178.075 174.896 177.935 174.345 177.627C173.805 177.319 173.364 176.884 173.024 176.321C172.693 175.748 172.508 175.094 172.468 174.359C172.46 174.221 172.458 174.087 172.462 173.959C172.466 173.831 172.475 173.702 172.489 173.574C172.562 172.962 172.746 172.421 173.041 171.949C173.336 171.478 173.727 171.104 174.214 170.827C174.711 170.55 175.274 170.398 175.903 170.372C176.596 170.342 177.212 170.471 177.751 170.758C178.29 171.045 178.719 171.465 179.037 172.017C179.355 172.559 179.536 173.218 179.578 173.996L179.589 174.188C179.592 174.251 179.59 174.316 179.583 174.38L173.796 174.624ZM178.149 173.351C178.085 172.97 177.96 172.639 177.774 172.358C177.598 172.067 177.356 171.848 177.049 171.7C176.752 171.542 176.39 171.472 175.964 171.49C175.538 171.508 175.154 171.615 174.812 171.811C174.47 172.006 174.207 172.274 174.023 172.612C173.867 172.886 173.782 173.194 173.769 173.536L178.149 173.351Z"
    fill="#EDEDED" />
  <rect x="0.471933" y="0.520517" width="88" height="42" rx="7.5"
    transform="matrix(0.999094 0.0425593 -0.0552271 0.998474 54.0474 103.533)" fill="#0A0A0A" />
  <rect x="0.471933" y="0.520517" width="88" height="42" rx="7.5"
    transform="matrix(0.999094 0.0425593 -0.0552271 0.998474 54.0474 103.533)" stroke="#1F1F1F" />
  <path
    d="M84.8873 126.286C84.8514 126.935 84.9303 127.536 85.124 128.089C85.3184 128.631 85.5965 129.107 85.9583 129.518C86.3314 129.918 86.7572 130.235 87.2356 130.469C87.7247 130.703 88.2464 130.832 88.8005 130.856C89.3334 130.879 89.8221 130.83 90.2667 130.71C90.722 130.591 91.1375 130.416 91.5134 130.187C91.8899 129.947 92.2151 129.667 92.4892 129.348L92.3902 131.137C91.8983 131.532 91.3697 131.819 90.8043 131.998C90.239 132.177 89.546 132.249 88.7254 132.214C87.9475 132.181 87.2251 132.011 86.5584 131.705C85.9029 131.389 85.3335 130.964 84.8503 130.431C84.3676 129.888 84.0018 129.258 83.753 128.543C83.5041 127.828 83.4027 127.055 83.4486 126.224C83.4946 125.394 83.6808 124.633 84.0075 123.942C84.3341 123.252 84.7673 122.661 85.3071 122.172C85.8475 121.672 86.4611 121.298 87.1478 121.049C87.8457 120.791 88.5837 120.678 89.3616 120.711C90.1822 120.746 90.864 120.877 91.407 121.103C91.95 121.329 92.4444 121.659 92.8903 122.095L92.7914 123.884C92.5539 123.543 92.2607 123.242 91.9119 122.982C91.5637 122.711 91.1697 122.497 90.7297 122.339C90.3005 122.182 89.8194 122.092 89.2865 122.069C88.7324 122.046 88.199 122.13 87.6863 122.321C87.1843 122.514 86.7252 122.798 86.3091 123.176C85.9043 123.543 85.5749 123.993 85.3211 124.527C85.0678 125.05 84.9232 125.636 84.8873 126.286ZM94.722 132.309L95.3405 121.126L98.3778 121.256C99.1024 121.286 99.7395 121.452 100.289 121.753C100.85 122.044 101.281 122.447 101.584 122.961C101.898 123.477 102.035 124.08 101.997 124.773C101.959 125.454 101.756 126.043 101.386 126.54C101.028 127.027 100.554 127.396 99.963 127.648C99.3834 127.891 98.7313 127.996 98.0066 127.965L96.3281 127.894L96.0807 132.367L94.722 132.309ZM96.3988 126.616L98.0773 126.687C98.5569 126.708 98.982 126.651 99.3525 126.517C99.7344 126.374 100.035 126.152 100.255 125.851C100.485 125.552 100.613 125.173 100.638 124.715C100.663 124.257 100.578 123.869 100.382 123.551C100.196 123.233 99.9214 122.992 99.5567 122.827C99.2032 122.652 98.7866 122.554 98.3071 122.534L96.6286 122.462L96.3988 126.616ZM105.457 121.557L105.191 126.366L109.853 121.744L111.531 121.816L106.398 126.85L111.153 133.009L109.474 132.938L105.139 127.308L104.838 132.74L103.48 132.682L104.098 121.499L105.457 121.557Z"
    fill="#EDEDED" />
  <defs>
    <radialGradient id="paint0_radial_0_1" cx="0" cy="0" r="1"
      gradientTransform="matrix(129.12 -1.93295 1.47327 98.2597 241.562 106.426)"
      gradientUnits="userSpaceOnUse">
      <stop stop-color="#00E3FF" />
      <stop offset="0.356722" stop-color="#00606C" />
      <stop offset="1" />
    </radialGradient>
    <linearGradient id="paint1_linear_0_1" x1="301.386" y1="1.5" x2="301.386" y2="207.783"
      gradientUnits="userSpaceOnUse">
      <stop />
      <stop offset="0.518306" stop-color="#00E3FF" />
      <stop offset="1" />
    </linearGradient>
    <linearGradient id="paint2_linear_0_1" x1="455.56" y1="60.0176" x2="455.56" y2="223.74"
      gradientUnits="userSpaceOnUse">
      <stop stop-color="#0A0A0A" stop-opacity="0" />
      <stop offset="1" stop-color="#0A0A0A" />
    </linearGradient>
  </defs>
</svg>