<svg width="561" height="210" viewBox="0 0 561 210" fill="none" xmlns="http://www.w3.org/2000/svg">
  <rect x="350.837" y="19.0977" width="209.165" height="157.088" rx="7.5" stroke="#1F1F1F" />
  <rect x="369.066" y="53.2227" width="173.05" height="119.214" stroke="#A1A1A1" />
  <line x1="387.131" y1="53.4316" x2="524.122" y2="53.4316" stroke="#878787" stroke-opacity="0.23" />
  <line x1="368.637" y1="70.3105" x2="542.616" y2="70.3105" stroke="#878787" stroke-opacity="0.23" />
  <line x1="368.637" y1="87.1895" x2="542.616" y2="87.1895" stroke="#878787" stroke-opacity="0.23" />
  <line x1="404.693" y1="53.0176" x2="404.693" y2="172.377" stroke="#878787" stroke-opacity="0.23" />
  <line x1="387.63" y1="52.7793" x2="387.63" y2="172.139" stroke="#878787" stroke-opacity="0.23" />
  <line x1="421.706" y1="53.0176" x2="421.706" y2="172.377" stroke="#878787" stroke-opacity="0.23" />
  <line x1="438.72" y1="53.0176" x2="438.72" y2="172.377" stroke="#878787" stroke-opacity="0.23" />
  <line x1="455.733" y1="53.0176" x2="455.733" y2="172.377" stroke="#878787" stroke-opacity="0.23" />
  <line x1="472.747" y1="53.0176" x2="472.747" y2="172.377" stroke="#878787" stroke-opacity="0.23" />
  <line x1="489.76" y1="53.0176" x2="489.76" y2="172.377" stroke="#878787" stroke-opacity="0.23" />
  <line x1="506.773" y1="53.0176" x2="506.773" y2="172.377" stroke="#878787" stroke-opacity="0.23" />
  <line x1="524.622" y1="52.9668" x2="524.622" y2="172.327" stroke="#878787" stroke-opacity="0.23" />
  <line x1="368.637" y1="104.068" x2="542.616" y2="104.068" stroke="#878787" stroke-opacity="0.23" />
  <line x1="368.637" y1="120.947" x2="542.616" y2="120.947" stroke="#878787" stroke-opacity="0.23" />
  <line x1="368.637" y1="137.826" x2="542.616" y2="137.826" stroke="#878787" stroke-opacity="0.23" />
  <line x1="368.637" y1="154.707" x2="542.616" y2="154.707" stroke="#878787" stroke-opacity="0.23" />
  <rect x="368.638" y="53.0176" width="173.843" height="122.438" fill="url(#paint0_linear_694_141)" />
  <path d="M501.708 157.295H409.543L455.625 75.8252L501.708 157.295Z" stroke="#00B6CC" />
  <circle cx="372.398" cy="39.2286" r="3.75011" fill="#EDEDED" />
  <circle cx="372.398" cy="39.2286" r="3.25011" stroke="black" stroke-opacity="0.22" />
  <circle cx="385.959" cy="39.2286" r="3.75011" fill="#00B6CC" />
  <circle cx="399.519" cy="39.2286" r="3.75011" fill="#00FF66" />
  <rect x="0.469376" y="0.522282" width="164" height="42" rx="7.5"
    transform="matrix(0.998924 0.0463759 -0.0601728 0.998188 31.6159 6.82683)" stroke="#1F1F1F" />
  <path
    d="M61.2056 35.2493L61.8796 24.0696L64.7565 24.2031C65.2573 24.2264 65.7066 24.306 66.1044 24.4419C66.5029 24.5671 66.8389 24.7536 67.1125 25.0012C67.3974 25.2386 67.6091 25.5367 67.7478 25.8955C67.8864 26.2543 67.9413 26.6733 67.9124 27.1524C67.881 27.6741 67.7155 28.1149 67.416 28.4747C67.1165 28.8345 66.7159 29.0988 66.2142 29.2677C66.1164 29.2952 66.0186 29.3227 65.9207 29.3502C65.984 29.3638 66.047 29.3827 66.1096 29.407C66.5607 29.5454 66.9494 29.7449 67.2756 30.0056C67.6131 30.2562 67.8665 30.5723 68.0359 30.9538C68.2052 31.3354 68.2744 31.7817 68.2436 32.2928C68.1993 33.0275 67.992 33.6318 67.6215 34.1057C67.2623 34.5695 66.7876 34.9105 66.1975 35.1287C65.6186 35.3367 64.9669 35.4239 64.2424 35.3902L61.2056 35.2493ZM62.9656 28.6524L64.484 28.7229C64.8569 28.7402 65.1964 28.6919 65.5025 28.578C65.8085 28.4641 66.0542 28.2886 66.2394 28.0517C66.4247 27.8147 66.5279 27.5205 66.5491 27.1692C66.5812 26.6368 66.4194 26.2182 66.0638 25.9134C65.7088 25.598 65.249 25.4272 64.6843 25.4009L63.1659 25.3305L62.9656 28.6524ZM62.6364 34.1145L64.3146 34.1924C64.7941 34.2147 65.2201 34.149 65.5926 33.9955C65.9758 33.8425 66.2783 33.6109 66.5 33.3009C66.7323 32.9914 66.8623 32.6077 66.8899 32.1499C66.9105 31.8091 66.8701 31.503 66.769 31.2314C66.6678 30.9597 66.5108 30.7282 66.298 30.5368C66.0958 30.3459 65.8481 30.201 65.5549 30.1019C65.2623 29.9923 64.9349 29.929 64.5726 29.9122L62.8944 29.8343L62.6364 34.1145ZM70.0842 36.222L70.5608 28.3164L71.8394 28.3757L71.5525 33.1351L76.7479 28.043L76.2713 35.9487L74.9927 35.8893L75.2796 31.13L70.0842 36.222ZM78.4556 39.5736L79.1103 28.7133L80.3889 28.7726L80.3129 30.0343C80.4065 29.8999 80.5104 29.7712 80.6246 29.6484C80.9109 29.3307 81.2457 29.0954 81.6289 28.9423C82.0234 28.7791 82.4497 28.7082 82.9079 28.7294C83.5792 28.7606 84.1772 28.9432 84.702 29.2772C85.2374 29.6117 85.653 30.0741 85.9487 30.6644C86.2449 31.244 86.369 31.9331 86.3209 32.7316C86.2734 33.5195 86.0672 34.1933 85.7022 34.7529C85.3372 35.3126 84.8684 35.7339 84.2957 36.0169C83.7337 36.3005 83.117 36.4267 82.4457 36.3955C81.9876 36.3742 81.5718 36.2695 81.1985 36.0814C80.8365 35.883 80.5322 35.6127 80.2858 35.2702C80.1869 35.1375 80.099 35 80.0221 34.8576L79.7343 39.6329L78.4556 39.5736ZM85.0263 32.6715C85.0603 32.1072 84.972 31.6227 84.7613 31.2178C84.5613 30.8135 84.2756 30.5013 83.9042 30.2812C83.5435 30.0615 83.134 29.9411 82.6758 29.9198C82.3988 29.907 82.1182 29.9527 81.8341 30.0569C81.55 30.1612 81.2841 30.3197 81.0362 30.5324C80.7989 30.7456 80.6011 31.014 80.4427 31.3376C80.2849 31.6506 80.1932 32.0201 80.1675 32.446C80.1418 32.8719 80.1883 33.2531 80.3069 33.5896C80.4262 33.9154 80.591 34.1953 80.8012 34.4293C81.0222 34.6638 81.2676 34.846 81.5376 34.976C81.8076 35.106 82.0811 35.1774 82.3581 35.1903C82.8163 35.2115 83.2379 35.1297 83.6231 34.9447C84.0189 34.7602 84.3405 34.4762 84.588 34.0926C84.8462 33.7095 84.9923 33.2359 85.0263 32.6715ZM91.502 29.2886L91.4298 30.4864L89.9114 30.4159L89.5407 36.5647L88.2621 36.5054L88.6328 30.3565L87.1144 30.2861L87.1866 29.0882L91.502 29.2886ZM93.653 40.2791L92.2146 40.2123L94.5028 35.7541L92.0701 29.3149L93.5885 29.3854L95.3451 34.544L97.6641 29.5747L99.1025 29.6414L93.653 40.2791ZM100.215 30.4458C100.504 30.2564 100.889 30.0714 101.37 29.8909C101.851 29.7103 102.422 29.6354 103.083 29.6661C103.498 29.6854 103.873 29.7562 104.208 29.8785C104.554 29.9906 104.843 30.1482 105.077 30.3512C105.321 30.5547 105.504 30.7981 105.626 31.0814C105.748 31.3647 105.798 31.682 105.777 32.0333L105.459 37.3038L104.181 37.2444L104.244 36.1903C104.208 36.2527 104.168 36.3096 104.122 36.3608C103.845 36.6897 103.494 36.9349 103.068 37.0966C102.642 37.2477 102.173 37.3114 101.662 37.2876C101.204 37.2664 100.788 37.1616 100.414 36.9735C100.041 36.7853 99.7472 36.5207 99.5327 36.1798C99.3295 35.8287 99.2429 35.4029 99.2731 34.9025C99.3046 34.3808 99.4591 33.9449 99.7366 33.5947C100.014 33.2446 100.393 32.9846 100.873 32.8147C101.355 32.6341 101.915 32.5587 102.554 32.5884C103.023 32.6102 103.424 32.6875 103.758 32.8205C104.029 32.9398 104.251 33.0676 104.424 33.2037L104.498 31.974C104.513 31.7291 104.451 31.5233 104.311 31.3567C104.172 31.1794 103.988 31.0427 103.759 30.9467C103.53 30.8506 103.282 30.7964 103.015 30.784C102.664 30.7677 102.341 30.8008 102.048 30.8832C101.755 30.9551 101.498 31.0499 101.277 31.1678C101.068 31.2755 100.902 31.3692 100.78 31.449L100.215 30.4458ZM100.571 34.9147C100.555 35.1702 100.611 35.3917 100.739 35.5792C100.867 35.7559 101.046 35.8977 101.274 36.0044C101.504 36.1005 101.762 36.1552 102.05 36.1685C102.476 36.1883 102.858 36.142 103.196 36.0296C103.534 35.9171 103.802 35.7267 104 35.4583C104.208 35.1903 104.326 34.8275 104.354 34.3696L104.371 34.0822C104.186 33.9668 103.999 33.8727 103.811 33.7999C103.445 33.6655 103.028 33.5874 102.559 33.5656C102.133 33.5458 101.773 33.5878 101.478 33.6916C101.194 33.7958 100.976 33.9512 100.825 34.1577C100.673 34.3642 100.589 34.6166 100.571 34.9147ZM114.064 37.7032L112.785 37.6439L113.156 31.495L109.4 31.3207L109.183 34.9141C109.148 35.4891 109.029 35.964 108.825 36.3389C108.632 36.7037 108.348 36.9734 107.975 37.1483C107.601 37.3125 107.138 37.3817 106.584 37.356L106.654 36.1901C106.974 36.2049 107.251 36.1164 107.487 35.9245C107.734 35.7331 107.873 35.3765 107.904 34.8548L108.193 30.0635L114.506 30.3566L114.064 37.7032ZM116.581 38.3807L117.058 30.475L118.336 30.5344L118.049 35.2937L123.245 30.2017L122.768 38.1074L121.489 38.048L121.776 33.2886L116.581 38.3807ZM128.119 33.8714C128.609 33.8941 128.966 33.8199 129.19 33.6488C129.415 33.4671 129.535 33.2431 129.551 32.9769C129.563 32.7853 129.525 32.618 129.437 32.4751C129.35 32.3323 129.218 32.2194 129.041 32.1364C128.864 32.0535 128.648 32.0061 128.392 31.9942C128.073 31.9794 127.802 32.0309 127.582 32.1488C127.372 32.2565 127.214 32.3986 127.107 32.5752C127.001 32.7411 126.943 32.9092 126.933 33.0796L125.638 33.0195C125.663 32.6042 125.803 32.2264 126.059 31.8859C126.314 31.5454 126.651 31.2834 127.068 31.0999C127.486 30.9058 127.95 30.8206 128.462 30.8443C128.941 30.8666 129.367 30.9771 129.74 31.1759C130.113 31.3747 130.397 31.6281 130.592 31.9362C130.797 32.2447 130.889 32.5799 130.868 32.9419C130.846 33.2933 130.721 33.6025 130.491 33.8694C130.283 34.1267 129.993 34.3268 129.622 34.4696C129.643 34.4706 129.664 34.4716 129.685 34.4726C130.124 34.6425 130.457 34.8821 130.684 35.1916C130.912 35.4905 131.012 35.8688 130.984 36.3267C130.955 36.8058 130.797 37.2149 130.509 37.5539C130.233 37.8827 129.871 38.1328 129.422 38.3042C128.975 38.4649 128.49 38.5331 127.968 38.5089C127.105 38.4688 126.426 38.2024 125.932 37.7097C125.449 37.2175 125.186 36.6127 125.144 35.8954L126.439 35.9555C126.492 36.3103 126.633 36.6318 126.861 36.92C127.09 37.2082 127.481 37.3652 128.035 37.3909C128.376 37.4068 128.667 37.3722 128.907 37.2873C129.158 37.2028 129.352 37.0731 129.491 36.898C129.63 36.7229 129.706 36.5183 129.72 36.284C129.736 36.0285 129.68 35.807 129.552 35.6196C129.435 35.4326 129.246 35.2851 128.986 35.1769C128.736 35.0692 128.424 35.0067 128.052 34.9893L128.119 33.8714ZM133.117 31.9733C133.406 31.7839 133.791 31.5989 134.272 31.4184C134.753 31.2378 135.324 31.1629 135.985 31.1936C136.4 31.2129 136.775 31.2837 137.11 31.406C137.456 31.5181 137.746 31.6757 137.979 31.8787C138.223 32.0823 138.406 32.3256 138.528 32.6089C138.65 32.8922 138.7 33.2095 138.679 33.5608L138.361 38.8313L137.083 38.7719L137.146 37.7178C137.11 37.7802 137.07 37.8371 137.024 37.8883C136.747 38.2172 136.396 38.4624 135.97 38.6242C135.544 38.7752 135.075 38.8389 134.564 38.8151C134.106 38.7939 133.69 38.6891 133.317 38.501C132.943 38.3128 132.649 38.0483 132.435 37.7073C132.232 37.3562 132.145 36.9304 132.175 36.43C132.207 35.9083 132.361 35.4724 132.639 35.1222C132.916 34.7721 133.295 34.5121 133.776 34.3422C134.257 34.1617 134.817 34.0862 135.456 34.1159C135.925 34.1377 136.326 34.215 136.66 34.348C136.931 34.4673 137.153 34.5951 137.326 34.7313L137.4 33.5015C137.415 33.2566 137.353 33.0508 137.213 32.8842C137.074 32.7069 136.89 32.5702 136.661 32.4742C136.432 32.3781 136.184 32.3239 135.917 32.3115C135.566 32.2952 135.243 32.3283 134.95 32.4108C134.657 32.4826 134.4 32.5774 134.179 32.6953C133.97 32.803 133.804 32.8968 133.682 32.9765L133.117 31.9733ZM133.473 36.4422C133.457 36.6977 133.513 36.9192 133.641 37.1067C133.769 37.2834 133.948 37.4252 134.176 37.5319C134.406 37.628 134.664 37.6827 134.952 37.696C135.378 37.7158 135.76 37.6695 136.098 37.5571C136.436 37.4446 136.704 37.2542 136.902 36.9858C137.11 36.7179 137.228 36.355 137.256 35.8971L137.273 35.6097C137.088 35.4943 136.901 35.4002 136.713 35.3274C136.347 35.193 135.93 35.1149 135.461 35.0931C135.035 35.0733 134.675 35.1153 134.38 35.2191C134.096 35.3233 133.878 35.4787 133.727 35.6852C133.575 35.8918 133.491 36.1441 133.473 36.4422ZM147.869 38.0715L147.71 40.7067L146.591 40.6548L146.678 39.2174L140.525 38.9317L140.967 31.585L142.246 31.6444L141.875 37.7932L145.312 37.9528L145.682 31.8039L146.961 31.8633L146.59 38.0121L147.869 38.0715ZM149.608 39.914L150.085 32.0083L151.363 32.0677L151.076 36.827L156.272 31.735L155.795 39.6407L154.516 39.5813L154.803 34.8219L149.608 39.914ZM157.919 39.7393L160.244 36.8042C160.086 36.7649 159.934 36.7151 159.788 36.6549C159.382 36.4866 159.071 36.2373 158.856 35.9069C158.641 35.566 158.55 35.1347 158.581 34.6129C158.613 34.0806 158.756 33.6601 159.01 33.3516C159.263 33.0431 159.597 32.8236 160.011 32.6934C160.436 32.5636 160.898 32.5104 161.399 32.5336L164.436 32.6746L163.993 40.0213L162.714 39.9619L162.891 37.0232L161.581 36.9624L159.326 39.8046L157.919 39.7393ZM162.959 35.9053L163.09 33.7332L161.332 33.6516C161.023 33.6372 160.759 33.6677 160.541 33.743C160.334 33.8081 160.172 33.9181 160.056 34.0728C159.94 34.2276 159.874 34.4274 159.86 34.6723C159.845 34.9172 159.886 35.122 159.983 35.2866C160.08 35.4513 160.227 35.5809 160.424 35.6755C160.633 35.7599 160.892 35.8093 161.201 35.8236L162.959 35.9053Z"
    fill="#A1A1A1" />
  <rect x="0.554577" y="0.453186" width="228" height="42" rx="7.5"
    transform="matrix(0.996189 -0.0872264 0.112965 0.993599 -0.0490806 64.6958)" stroke="#00FF66" />
  <path
    d="M34.445 78.7673L35.5656 88.6238L34.2108 88.7424L32.9456 77.6141L41.7917 76.8395L43.0569 87.9679L41.7021 88.0865L40.5815 78.23L34.445 78.7673ZM45.8429 91.2562L44.6139 80.4458L45.889 80.3342L46.0318 81.5901C46.1011 81.4449 46.1817 81.304 46.2735 81.1675C46.5018 80.8157 46.7923 80.5388 47.1449 80.3366C47.507 80.1229 47.9164 79.9961 48.3734 79.9561C49.0428 79.8975 49.6659 79.9981 50.2428 80.258C50.8303 80.517 51.3213 80.9182 51.7158 81.4617C52.109 81.9946 52.3509 82.6584 52.4412 83.4533C52.5304 84.2376 52.4428 84.9303 52.1785 85.5315C51.9141 86.1326 51.5232 86.6111 51.0056 86.9668C50.4986 87.3216 49.9104 87.5283 49.2409 87.5869C48.784 87.6269 48.3546 87.5789 47.9528 87.4428C47.5604 87.2952 47.2127 87.0688 46.9097 86.7635C46.789 86.6456 46.6783 86.5215 46.5776 86.3912L47.1181 91.1445L45.8429 91.2562ZM51.1502 83.5664C51.0863 83.0046 50.9152 82.538 50.6368 82.1663C50.3691 81.7937 50.0325 81.5234 49.6271 81.3556C49.2323 81.1868 48.8064 81.1224 48.3495 81.1624C48.0732 81.1866 47.8036 81.269 47.5406 81.4098C47.2776 81.5506 47.0418 81.7425 46.8333 81.9855C46.6355 82.2276 46.4862 82.519 46.3854 82.8597C46.2834 83.1897 46.2565 83.5667 46.3047 83.9906C46.3529 84.4146 46.4648 84.7848 46.6403 85.1012C46.8145 85.4071 47.0259 85.6615 47.2744 85.8645C47.5334 86.0666 47.8077 86.2139 48.0973 86.3063C48.3868 86.3987 48.6697 86.4328 48.946 86.4086C49.4029 86.3686 49.8059 86.2316 50.1549 85.9977C50.5145 85.7628 50.7836 85.4395 50.9622 85.0279C51.1514 84.6152 51.214 84.1281 51.1502 83.5664ZM53.562 83.3552C53.4776 82.6133 53.5676 81.9418 53.8319 81.3406C54.1069 80.7385 54.5126 80.2481 55.0491 79.8693C55.5855 79.4905 56.2097 79.2699 56.9216 79.2076C57.6442 79.1443 58.3058 79.2523 58.9063 79.5316C59.5175 79.8099 60.0203 80.2208 60.4148 80.7642C60.8199 81.3068 61.0646 81.949 61.1489 82.6909C61.2321 83.4222 61.1368 84.0941 60.863 84.7068C60.5987 85.308 60.1983 85.798 59.6618 86.1768C59.136 86.5546 58.5118 86.7752 57.7892 86.8385C57.0773 86.9008 56.4157 86.7928 55.8046 86.5145C55.1934 86.2362 54.6853 85.8258 54.2802 85.2832C53.8845 84.7292 53.6451 84.0865 53.562 83.3552ZM54.853 83.2421C54.9108 83.7509 55.0683 84.192 55.3254 84.5655C55.5932 84.9381 55.9262 85.2247 56.3246 85.4253C56.7325 85.6144 57.1755 85.688 57.6537 85.6461C58.1318 85.6043 58.5442 85.4558 58.8908 85.2006C59.2469 84.934 59.5088 84.5953 59.6768 84.1845C59.8553 83.7728 59.9157 83.3126 59.8579 82.8039C59.8 82.2952 59.6372 81.8545 59.3695 81.4819C59.1112 81.0978 58.7781 80.8112 58.3703 80.6221C57.9731 80.4321 57.5354 80.3581 57.0572 80.3999C56.579 80.4418 56.1613 80.5908 55.8041 80.8468C55.4575 81.102 55.1955 81.4407 55.0182 81.8629C54.8502 82.2737 54.7952 82.7334 54.853 83.2421ZM66.4696 78.5321L66.6052 79.7245L63.9753 79.9547L64.6711 86.0753L63.396 86.187L62.5646 78.8741L66.4696 78.5321ZM68.8954 89.2377L67.6663 78.4274L68.9414 78.3157L69.0842 79.5716C69.1536 79.4264 69.2341 79.2855 69.3259 79.1491C69.5542 78.7973 69.8447 78.5203 70.1973 78.3181C70.5594 78.1045 70.9689 77.9776 71.4258 77.9376C72.0952 77.879 72.7184 77.9797 73.2952 78.2396C73.8827 78.4985 74.3737 78.8997 74.7682 79.4432C75.1615 79.9761 75.4033 80.64 75.4937 81.4348C75.5828 82.2191 75.4952 82.9118 75.2309 83.513C74.9666 84.1142 74.5756 84.5926 74.058 84.9483C73.551 85.3031 72.9628 85.5099 72.2934 85.5685C71.8364 85.6085 71.4071 85.5604 71.0053 85.4244C70.6129 85.2768 70.2652 85.0503 69.9622 84.745C69.8414 84.6271 69.7307 84.503 69.6301 84.3727L70.1705 89.1261L68.8954 89.2377ZM74.2026 81.5479C74.1387 80.9862 73.9676 80.5195 73.6893 80.1478C73.4215 79.7752 73.085 79.505 72.6795 79.3371C72.2847 79.1683 71.8589 79.1039 71.4019 79.1439C71.1257 79.1681 70.856 79.2506 70.593 79.3913C70.33 79.5321 70.0942 79.724 69.8858 79.9671C69.6879 80.2092 69.5386 80.5005 69.4378 80.8412C69.3358 81.1712 69.3089 81.5482 69.3571 81.9722C69.4053 82.3961 69.5172 82.7663 69.6927 83.0827C69.867 83.3886 70.0783 83.643 70.3268 83.8461C70.5859 84.0482 70.8602 84.1954 71.1497 84.2878C71.4392 84.3802 71.7221 84.4143 71.9984 84.3901C72.4553 84.3501 72.8583 84.2131 73.2073 83.9792C73.5669 83.7443 73.8361 83.4211 74.0146 83.0094C74.2038 82.5968 74.2665 82.1096 74.2026 81.5479ZM76.8734 78.3758C77.1267 78.1503 77.4758 77.9163 77.9204 77.674C78.3651 77.4317 78.9168 77.2817 79.5756 77.224C79.99 77.1877 80.3733 77.2077 80.7253 77.2839C81.0868 77.3486 81.4006 77.4656 81.6667 77.635C81.9434 77.8034 82.1665 78.0194 82.336 78.2829C82.5055 78.5463 82.6101 78.8529 82.6498 79.2027L83.2463 84.4489L81.9712 84.5605L81.8519 83.5113C81.8272 83.5777 81.7967 83.6392 81.7602 83.6959C81.5437 84.0574 81.2385 84.3464 80.8446 84.5628C80.4495 84.7687 79.9969 84.8939 79.4868 84.9386C79.0299 84.9786 78.6005 84.9306 78.1987 84.7945C77.7969 84.6584 77.4604 84.4363 77.1893 84.1283C76.9276 83.8086 76.7684 83.3998 76.7118 82.9017C76.6528 82.3823 76.7303 81.9313 76.9443 81.5487C77.1584 81.166 77.4883 80.8588 77.9342 80.6271C78.3788 80.3848 78.9199 80.2357 79.5575 80.1799C80.0251 80.139 80.4355 80.1619 80.7888 80.2487C81.0771 80.3305 81.3188 80.4271 81.5139 80.5384L81.3747 79.3143C81.347 79.0706 81.2497 78.8757 81.0829 78.7297C80.9149 78.5732 80.7091 78.4628 80.4657 78.3984C80.2223 78.3341 79.9678 78.3136 79.7021 78.3369C79.3515 78.3676 79.0381 78.4432 78.762 78.5637C78.4848 78.6736 78.2471 78.8014 78.0491 78.9472C77.8604 79.0815 77.7125 79.1961 77.6052 79.2911L76.8734 78.3758ZM77.9974 82.7409C78.0264 82.9953 78.1201 83.2065 78.2788 83.3746C78.4362 83.5321 78.6372 83.6483 78.8818 83.7232C79.1252 83.7875 79.3904 83.8071 79.6773 83.782C80.1023 83.7447 80.4723 83.6481 80.7873 83.4921C81.1022 83.3361 81.3343 83.1124 81.4837 82.821C81.6436 82.5287 81.6977 82.1547 81.6458 81.699L81.6133 81.4128C81.41 81.3236 81.2091 81.2555 81.0106 81.2087C80.6254 81.1247 80.1991 81.1031 79.7315 81.1441C79.3065 81.1813 78.9571 81.2707 78.6835 81.4124C78.4205 81.5532 78.2319 81.7356 78.1179 81.9597C78.0039 82.1838 77.9637 82.4442 77.9974 82.7409ZM90.9962 75.8226L93.8035 83.5245L92.369 83.6501L91.008 79.4663L89.0779 84.436L86.1165 79.9106L85.7225 84.2321L84.2879 84.3577L85.3059 76.3209L88.7869 81.8765L90.9962 75.8226ZM100.678 74.9749L103.485 82.6767L102.051 82.8024L100.69 78.6186L98.7596 83.5883L95.7982 79.0629L95.4042 83.3843L93.9697 83.5099L94.9876 75.4732L98.4686 81.0287L100.678 74.9749ZM110.55 74.6724L111.382 81.9853L110.107 82.097L109.736 78.838L105.672 79.1939L106.042 82.4529L104.767 82.5645L103.936 75.2516L105.211 75.14L105.536 78.0015L109.601 77.6457L109.275 74.7841L110.55 74.6724ZM120.838 73.7717L121.669 81.0845L120.394 81.1962L119.563 73.8833L120.838 73.7717ZM114.223 74.3508L114.538 77.117L116.291 76.9635C116.801 76.9188 117.267 76.9583 117.689 77.0819C118.111 77.2056 118.458 77.4267 118.73 77.7454C119.001 78.0535 119.167 78.4725 119.227 79.0024C119.286 79.5217 119.218 79.9612 119.023 80.3208C118.828 80.6804 118.537 80.9574 118.152 81.1517C117.766 81.3461 117.318 81.4656 116.808 81.5102L113.779 81.7754L112.948 74.4625L114.223 74.3508ZM114.928 80.5509L116.681 80.3974C116.99 80.3704 117.24 80.3057 117.432 80.2032C117.634 80.0892 117.778 79.9428 117.865 79.7639C117.951 79.5744 117.98 79.3578 117.952 79.114C117.924 78.8703 117.848 78.6683 117.722 78.508C117.595 78.3371 117.421 78.2186 117.199 78.1524C116.986 78.0747 116.726 78.0494 116.417 78.0763L114.664 78.2299L114.928 80.5509ZM124.343 77.4788C124.423 77.8999 124.555 78.2629 124.74 78.5679C124.976 78.9432 125.281 79.2163 125.654 79.3869C126.028 79.5576 126.454 79.622 126.932 79.5801C127.293 79.5485 127.606 79.4676 127.87 79.3374C128.144 79.1957 128.381 79.0197 128.583 78.8094C128.783 78.5885 128.948 78.3386 129.077 78.0597L130.187 78.6208C129.985 79.0131 129.751 79.3654 129.486 79.6776C129.22 79.9792 128.883 80.2281 128.476 80.4243C128.068 80.6099 127.545 80.7306 126.908 80.7864C126.249 80.8441 125.635 80.7319 125.067 80.4499C124.509 80.1669 124.043 79.7528 123.67 79.2075C123.306 78.6506 123.083 78.0065 122.999 77.2752C122.984 77.1375 122.974 77.0045 122.97 76.8764C122.966 76.7483 122.968 76.6197 122.975 76.4907C123.012 75.8773 123.164 75.3287 123.431 74.8451C123.698 74.3614 124.067 73.9706 124.538 73.6725C125.019 73.3735 125.573 73.1965 126.2 73.1416C126.89 73.0811 127.514 73.1818 128.069 73.4435C128.625 73.7053 129.078 74.1045 129.429 74.6411C129.778 75.1671 129.997 75.8169 130.085 76.5906L130.107 76.7814C130.114 76.845 130.116 76.909 130.112 76.9735L124.343 77.4788ZM128.619 76.0125C128.533 75.6347 128.389 75.3102 128.186 75.0389C127.993 74.7561 127.739 74.5482 127.423 74.4153C127.117 74.2709 126.751 74.2172 126.326 74.2544C125.901 74.2917 125.524 74.4157 125.193 74.6266C124.863 74.8375 124.616 75.116 124.451 75.4622C124.311 75.7421 124.245 76.053 124.252 76.3949L128.619 76.0125ZM143.011 79.2158L141.736 79.3275L141.04 73.2069L137.614 73.507L138.309 79.6275L137.034 79.7392L136.203 72.4263L142.18 71.9029L143.011 79.2158ZM145.726 82.5104L144.497 71.7L145.772 71.5884L145.915 72.8443C145.985 72.6991 146.065 72.5582 146.157 72.4217C146.385 72.0699 146.676 71.7929 147.028 71.5908C147.39 71.3771 147.8 71.2503 148.257 71.2103C148.926 71.1517 149.549 71.2523 150.126 71.5122C150.714 71.7712 151.205 72.1724 151.599 72.7159C151.993 73.2488 152.234 73.9126 152.325 74.7075C152.414 75.4918 152.326 76.1845 152.062 76.7857C151.798 77.3868 151.407 77.8653 150.889 78.221C150.382 78.5758 149.794 78.7825 149.124 78.8411C148.667 78.8811 148.238 78.8331 147.836 78.697C147.444 78.5494 147.096 78.323 146.793 78.0177C146.672 77.8998 146.562 77.7757 146.461 77.6454L147.002 82.3987L145.726 82.5104ZM151.034 74.8206C150.97 74.2588 150.799 73.7922 150.52 73.4205C150.253 73.0479 149.916 72.7776 149.511 72.6098C149.116 72.441 148.69 72.3766 148.233 72.4166C147.957 72.4408 147.687 72.5232 147.424 72.664C147.161 72.8048 146.925 72.9967 146.717 73.2397C146.519 73.4818 146.37 73.7732 146.269 74.1139C146.167 74.4439 146.14 74.8209 146.188 75.2448C146.236 75.6688 146.348 76.039 146.524 76.3554C146.698 76.6613 146.909 76.9157 147.158 77.1187C147.417 77.3208 147.691 77.4681 147.981 77.5605C148.27 77.6529 148.553 77.687 148.829 77.6628C149.286 77.6228 149.689 77.4858 150.038 77.2519C150.398 77.017 150.667 76.6937 150.846 76.282C151.035 75.8694 151.098 75.3823 151.034 74.8206ZM153.445 74.6094C153.361 73.8675 153.451 73.196 153.715 72.5948C153.99 71.9927 154.396 71.5023 154.933 71.1235C155.469 70.7447 156.093 70.5241 156.805 70.4618C157.528 70.3985 158.189 70.5065 158.79 70.7858C159.401 71.0641 159.904 71.475 160.298 72.0184C160.703 72.561 160.948 73.2032 161.032 73.9451C161.116 74.6764 161.02 75.3483 160.746 75.961C160.482 76.5622 160.082 77.0522 159.545 77.431C159.019 77.8088 158.395 78.0294 157.673 78.0926C156.961 78.155 156.299 78.047 155.688 77.7687C155.077 77.4904 154.569 77.08 154.164 76.5374C153.768 75.9834 153.529 75.3407 153.445 74.6094ZM154.736 74.4963C154.794 75.0051 154.952 75.4462 155.209 75.8197C155.477 76.1923 155.81 76.4789 156.208 76.6795C156.616 76.8686 157.059 76.9422 157.537 76.9003C158.015 76.8585 158.428 76.71 158.774 76.4548C159.13 76.1882 159.392 75.8495 159.56 75.4387C159.739 75.027 159.799 74.5668 159.741 74.0581C159.683 73.5494 159.521 73.1087 159.253 72.7361C158.995 72.352 158.662 72.0654 158.254 71.8763C157.857 71.6863 157.419 71.6123 156.941 71.6541C156.463 71.696 156.045 71.845 155.688 72.101C155.341 72.3561 155.079 72.6949 154.902 73.1171C154.734 73.5279 154.679 73.9876 154.736 74.4963ZM163.203 77.4479L163.366 78.8786L162.011 78.9973L161.713 76.3742L163.02 76.2597L165.496 69.2994L169.491 75.6931L170.798 75.5787L171.096 78.2018L169.821 78.3134L169.658 76.8826L163.203 77.4479ZM164.438 76.1355L168.072 75.8173L165.809 72.0497L164.438 76.1355ZM174.206 80.0167L172.772 80.1423L174.265 75.4356L170.746 69.4017L172.26 69.2691L174.889 74.1286L176.324 68.9133L177.759 68.7877L174.206 80.0167ZM180.157 68.5777L180.448 71.1372L182.866 68.3405L184.46 68.2009L181.616 71.5006L185.61 75.4859L184.016 75.6254L180.567 72.1865L180.988 75.8906L179.713 76.0022L178.881 68.6894L180.157 68.5777ZM189.169 67.7886L189.304 68.9809L187.79 69.1135L188.486 75.2341L187.211 75.3457L186.515 69.2251L185.001 69.3577L184.865 68.1654L189.169 67.7886ZM198.338 66.9857L199.17 74.2986L197.895 74.4103L197.063 67.0974L198.338 66.9857ZM191.724 67.5649L192.038 70.3311L193.791 70.1776C194.301 70.1329 194.767 70.1724 195.189 70.296C195.611 70.4196 195.958 70.6408 196.23 70.9595C196.502 71.2675 196.667 71.6865 196.728 72.2165C196.787 72.7358 196.718 73.1752 196.523 73.5349C196.328 73.8945 196.038 74.1715 195.652 74.3658C195.266 74.5601 194.818 74.6796 194.308 74.7243L191.28 74.9894L190.448 67.6766L191.724 67.5649ZM192.428 73.765L194.182 73.6114C194.49 73.5845 194.74 73.5197 194.932 73.4173C195.134 73.3033 195.278 73.1568 195.365 72.978C195.451 72.7885 195.48 72.5719 195.452 72.3281C195.425 72.0843 195.348 71.8823 195.223 71.7221C195.096 71.5512 194.921 71.4327 194.699 71.3665C194.486 71.2888 194.226 71.2634 193.918 71.2904L192.165 71.4439L192.428 73.765Z"
    fill="#00FF66" />
  <rect x="0.526854" y="0.478219" width="195" height="42" rx="7.5"
    transform="matrix(0.999115 -0.0420708 0.054594 0.998509 13.5613 150.734)" stroke="#1F1F1F" />
  <path
    d="M46.3133 176.354L45.7018 165.171L48.5793 165.05C49.0802 165.029 49.5363 165.068 49.9477 165.168C50.3585 165.258 50.7142 165.414 51.0147 165.636C51.3254 165.847 51.5702 166.125 51.7493 166.47C51.9284 166.814 52.031 167.226 52.0572 167.706C52.0857 168.228 51.9717 168.681 51.7149 169.065C51.4582 169.45 51.09 169.748 50.6103 169.96C50.5161 169.996 50.4219 170.032 50.3278 170.068C50.3923 170.076 50.4571 170.09 50.5222 170.108C50.9869 170.206 51.3964 170.37 51.7508 170.601C52.1153 170.82 52.4037 171.113 52.6159 171.477C52.8281 171.842 52.9482 172.28 52.9762 172.791C53.0163 173.526 52.8793 174.146 52.5651 174.65C52.2609 175.143 51.8278 175.524 51.2657 175.794C50.7136 176.052 50.0753 176.196 49.3506 176.226L46.3133 176.354ZM47.3078 169.635L48.8265 169.571C49.1995 169.555 49.5317 169.477 49.8231 169.337C50.1145 169.197 50.3388 169 50.4959 168.748C50.653 168.496 50.722 168.194 50.7028 167.843C50.6737 167.31 50.4647 166.908 50.076 166.636C49.6867 166.354 49.2096 166.224 48.6448 166.248L47.1261 166.312L47.3078 169.635ZM47.6066 175.099L49.2851 175.028C49.7647 175.008 50.181 174.905 50.534 174.719C50.8977 174.533 51.172 174.276 51.357 173.948C51.5527 173.62 51.638 173.226 51.613 172.769C51.5944 172.428 51.5191 172.127 51.3874 171.865C51.2556 171.604 51.0728 171.387 50.8391 171.216C50.6161 171.044 50.353 170.921 50.05 170.849C49.7463 170.765 49.4133 170.731 49.051 170.747L47.3725 170.817L47.6066 175.099ZM55.2578 176.538L54.8255 168.63L56.1043 168.576L56.3646 173.337L60.9494 167.812L61.3818 175.72L60.1029 175.774L59.8426 171.013L55.2578 176.538ZM64.6577 175.582L64.7363 177.02L63.3775 177.077L63.2333 174.441L64.5442 174.386L67.4224 167.539L71.0344 174.112L72.3453 174.057L72.4894 176.693L71.2105 176.747L71.1319 175.309L64.6577 175.582ZM65.9669 174.326L69.6117 174.172L67.5736 170.303L65.9669 174.326ZM74.8214 171.791C74.8767 172.216 74.9877 172.585 75.1543 172.898C75.3677 173.284 75.6558 173.571 76.0185 173.758C76.3813 173.946 76.8024 174.03 77.282 174.01C77.6444 173.994 77.9612 173.928 78.2324 173.809C78.5138 173.68 78.7611 173.515 78.9744 173.314C79.1872 173.102 79.3662 172.86 79.5115 172.587L80.5864 173.198C80.3616 173.581 80.1079 173.923 79.8252 174.223C79.542 174.512 79.1916 174.746 78.774 174.923C78.3559 175.091 77.8271 175.188 77.1877 175.214C76.5269 175.242 75.9211 175.102 75.3702 174.795C74.8299 174.486 74.3895 174.051 74.049 173.489C73.7186 172.916 73.5333 172.262 73.4931 171.527C73.4855 171.388 73.4836 171.255 73.4873 171.127C73.4909 170.999 73.4999 170.87 73.5143 170.741C73.5876 170.13 73.7717 169.588 74.0663 169.117C74.361 168.645 74.7518 168.271 75.2387 167.995C75.7363 167.717 76.2995 167.566 76.9282 167.539C77.621 167.51 78.2369 167.639 78.776 167.926C79.3151 168.213 79.7439 168.632 80.0625 169.185C80.3805 169.726 80.5608 170.386 80.6033 171.163L80.6138 171.355C80.6173 171.419 80.6155 171.483 80.6083 171.548L74.8214 171.791ZM79.1741 170.519C79.1105 170.137 78.9856 169.806 78.7994 169.526C78.6232 169.235 78.3816 169.015 78.0744 168.868C77.7774 168.71 77.4157 168.64 76.9894 168.658C76.5631 168.675 76.1791 168.782 75.8373 168.978C75.4955 169.174 75.2324 169.441 75.0479 169.78C74.892 170.054 74.8073 170.361 74.794 170.704L79.1741 170.519ZM81.7202 171.181C81.6794 170.435 81.8085 169.768 82.1074 169.179C82.417 168.589 82.8505 168.117 83.408 167.763C83.9654 167.408 84.6012 167.216 85.3152 167.186C86.0399 167.156 86.6937 167.293 87.2766 167.6C87.8701 167.906 88.3478 168.339 88.7096 168.901C89.0821 169.461 89.2887 170.115 89.3295 170.86C89.3696 171.595 89.2352 172.263 88.9262 172.863C88.6273 173.452 88.1991 173.923 87.6417 174.278C87.0949 174.632 86.4592 174.824 85.7345 174.855C85.0204 174.885 84.3666 174.747 83.7731 174.441C83.1796 174.135 82.6966 173.701 82.3241 173.141C81.9617 172.569 81.7604 171.915 81.7202 171.181ZM83.0151 171.126C83.043 171.637 83.1743 172.085 83.409 172.47C83.6544 172.855 83.9699 173.157 84.3558 173.375C84.7517 173.583 85.1894 173.677 85.669 173.656C86.1485 173.636 86.5687 173.506 86.9295 173.267C87.3003 173.017 87.5816 172.69 87.7732 172.287C87.9754 171.883 88.0626 171.426 88.0346 170.915C88.0067 170.403 87.87 169.955 87.6247 169.571C87.3894 169.175 87.0738 168.873 86.6779 168.666C86.2927 168.458 85.8603 168.364 85.3807 168.384C84.9011 168.404 84.4756 168.534 84.1042 168.774C83.7434 169.014 83.4622 169.34 83.2605 169.755C83.0689 170.158 82.9871 170.615 83.0151 171.126ZM97.5195 166.832L97.9213 174.181L96.6424 174.235L96.4634 170.96L92.387 171.132L92.566 174.407L91.2872 174.461L90.8854 167.112L92.1642 167.058L92.3215 169.933L96.3979 169.762L96.2406 166.886L97.5195 166.832ZM99.9173 167.484C100.183 167.27 100.545 167.052 101.003 166.83C101.461 166.608 102.02 166.483 102.681 166.455C103.097 166.437 103.478 166.475 103.825 166.567C104.182 166.648 104.488 166.779 104.744 166.96C105.01 167.141 105.22 167.367 105.373 167.638C105.527 167.91 105.614 168.221 105.633 168.572L105.921 173.844L104.642 173.898L104.585 172.844C104.556 172.909 104.522 172.969 104.482 173.024C104.245 173.376 103.924 173.651 103.518 173.85C103.112 174.037 102.653 174.142 102.141 174.164C101.683 174.183 101.257 174.116 100.864 173.961C100.471 173.807 100.149 173.57 99.8961 173.249C99.6537 172.918 99.5188 172.502 99.4914 172.001C99.4628 171.48 99.5666 171.032 99.8025 170.659C100.039 170.286 100.386 169.994 100.844 169.783C101.302 169.561 101.851 169.436 102.49 169.409C102.959 169.389 103.367 169.431 103.715 169.534C103.998 169.629 104.233 169.736 104.421 169.856L104.354 168.626C104.341 168.381 104.255 168.182 104.097 168.028C103.938 167.864 103.74 167.745 103.501 167.669C103.261 167.594 103.009 167.562 102.742 167.573C102.391 167.588 102.073 167.649 101.791 167.757C101.508 167.855 101.263 167.972 101.057 168.108C100.861 168.234 100.707 168.342 100.594 168.432L99.9173 167.484ZM100.784 171.899C100.798 172.155 100.879 172.37 101.027 172.545C101.175 172.71 101.369 172.835 101.609 172.921C101.848 172.996 102.111 173.028 102.399 173.016C102.825 172.998 103.2 172.918 103.523 172.776C103.847 172.635 104.091 172.422 104.258 172.137C104.434 171.852 104.51 171.481 104.485 171.023L104.469 170.735C104.272 170.637 104.075 170.559 103.88 170.504C103.5 170.402 103.076 170.361 102.607 170.381C102.181 170.399 101.827 170.473 101.546 170.602C101.275 170.731 101.076 170.905 100.95 171.123C100.823 171.342 100.767 171.601 100.784 171.899ZM110.839 166.111C111.564 166.081 112.218 166.219 112.801 166.525C113.394 166.831 113.872 167.265 114.234 167.826C114.606 168.387 114.813 169.04 114.854 169.785C114.894 170.52 114.759 171.188 114.45 171.788C114.152 172.377 113.723 172.849 113.166 173.203C112.619 173.557 111.983 173.749 111.259 173.78C110.545 173.81 109.89 173.661 109.296 173.334C108.7 172.996 108.213 172.478 107.833 171.778C107.463 171.079 107.25 170.202 107.192 169.147C107.151 168.402 107.167 167.718 107.24 167.095C107.313 166.473 107.458 165.912 107.677 165.412C107.906 164.911 108.224 164.476 108.631 164.107C109.037 163.726 109.554 163.411 110.181 163.161C110.893 162.885 111.415 162.57 111.748 162.214C112.091 161.847 112.289 161.47 112.343 161.084L113.606 161.031C113.578 161.502 113.431 161.94 113.165 162.346C112.898 162.742 112.538 163.093 112.085 163.401C111.643 163.708 111.134 163.969 110.558 164.186C110.066 164.366 109.662 164.608 109.348 164.909C109.044 165.21 108.806 165.546 108.634 165.916C108.472 166.286 108.365 166.674 108.313 167.082C108.275 167.372 108.259 167.656 108.263 167.933C108.367 167.673 108.498 167.438 108.657 167.228C108.916 166.886 109.228 166.622 109.591 166.436C109.965 166.239 110.381 166.131 110.839 166.111ZM111.193 172.582C111.673 172.561 112.093 172.432 112.454 172.192C112.825 171.942 113.106 171.615 113.297 171.212C113.5 170.808 113.587 170.351 113.559 169.84C113.531 169.329 113.394 168.881 113.149 168.496C112.914 168.1 112.598 167.799 112.202 167.591C111.817 167.383 111.385 167.289 110.905 167.309C110.628 167.321 110.343 167.392 110.051 167.522C109.759 167.651 109.492 167.833 109.248 168.068C109.015 168.302 108.828 168.587 108.686 168.924C108.554 169.25 108.5 169.626 108.523 170.052C108.551 170.563 108.688 171.011 108.933 171.396C109.179 171.78 109.494 172.082 109.88 172.301C110.276 172.508 110.714 172.602 111.193 172.582ZM123.254 173.115L121.975 173.168L121.639 167.018L117.882 167.176L118.078 170.77C118.11 171.346 118.045 171.829 117.885 172.22C117.735 172.6 117.484 172.893 117.132 173.1C116.78 173.296 116.327 173.406 115.772 173.43L115.709 172.263C116.028 172.25 116.295 172.137 116.507 171.925C116.731 171.713 116.828 171.346 116.8 170.824L116.538 166.031L122.852 165.766L123.254 173.115ZM126.602 165.608L126.76 168.483L128.103 168.427C128.164 167.997 128.292 167.597 128.485 167.226C128.784 166.637 129.213 166.165 129.77 165.811C130.327 165.456 130.963 165.264 131.677 165.234C132.402 165.203 133.056 165.341 133.639 165.648C134.232 165.954 134.71 166.387 135.072 166.948C135.444 167.509 135.651 168.162 135.691 168.908C135.732 169.643 135.597 170.31 135.288 170.91C134.989 171.5 134.561 171.971 134.004 172.326C133.457 172.68 132.821 172.872 132.097 172.902C131.382 172.932 130.729 172.794 130.135 172.489C129.542 172.183 129.064 171.744 128.701 171.172C128.399 170.715 128.205 170.2 128.12 169.627L126.825 169.682L127.004 172.957L125.725 173.01L125.324 165.661L126.602 165.608ZM129.377 169.174C129.405 169.685 129.536 170.133 129.771 170.518C130.016 170.903 130.332 171.205 130.718 171.423C131.114 171.631 131.551 171.724 132.031 171.704C132.511 171.684 132.931 171.554 133.292 171.315C133.662 171.064 133.944 170.738 134.135 170.335C134.337 169.931 134.425 169.474 134.397 168.962C134.369 168.451 134.232 168.003 133.987 167.619C133.751 167.223 133.436 166.921 133.04 166.714C132.655 166.506 132.222 166.412 131.743 166.432C131.263 166.452 130.838 166.582 130.466 166.822C130.105 167.061 129.824 167.388 129.623 167.802C129.431 168.205 129.349 168.663 129.377 169.174ZM137.655 172.508L137.734 173.946L136.375 174.003L136.231 171.367L137.542 171.312L140.42 164.465L144.032 171.039L145.343 170.983L145.487 173.62L144.208 173.673L144.13 172.236L137.655 172.508ZM138.965 171.252L142.61 171.099L140.571 167.229L138.965 171.252ZM147.819 168.717C147.874 169.142 147.985 169.511 148.152 169.824C148.366 170.21 148.654 170.497 149.016 170.685C149.379 170.872 149.8 170.956 150.28 170.936C150.642 170.92 150.959 170.854 151.23 170.736C151.512 170.606 151.759 170.441 151.972 170.24C152.185 170.028 152.364 169.786 152.509 169.513L153.584 170.124C153.359 170.507 153.106 170.849 152.823 171.149C152.54 171.438 152.189 171.672 151.772 171.85C151.354 172.017 150.825 172.114 150.185 172.141C149.525 172.168 148.919 172.029 148.368 171.721C147.828 171.413 147.387 170.977 147.047 170.415C146.716 169.842 146.531 169.188 146.491 168.453C146.483 168.315 146.481 168.181 146.485 168.053C146.489 167.925 146.498 167.796 146.512 167.668C146.585 167.056 146.769 166.515 147.064 166.043C147.359 165.572 147.75 165.198 148.237 164.921C148.734 164.644 149.297 164.492 149.926 164.465C150.619 164.436 151.235 164.565 151.774 164.852C152.313 165.139 152.742 165.558 153.06 166.111C153.378 166.653 153.559 167.312 153.601 168.09L153.612 168.281C153.615 168.345 153.613 168.409 153.606 168.474L147.819 168.717ZM152.172 167.445C152.108 167.064 151.983 166.733 151.797 166.452C151.621 166.161 151.379 165.941 151.072 165.794C150.775 165.636 150.413 165.566 149.987 165.584C149.561 165.602 149.177 165.709 148.835 165.904C148.493 166.1 148.23 166.368 148.046 166.706C147.89 166.98 147.805 167.288 147.792 167.63L152.172 167.445ZM161.791 164.126L162.192 171.475L160.914 171.529L160.735 168.254L156.658 168.425L156.837 171.7L155.558 171.754L155.157 164.405L156.435 164.351L156.593 167.227L160.669 167.055L160.512 164.18L161.791 164.126ZM164.708 171.929L164.275 164.021L165.554 163.967L165.815 168.728L170.399 163.203L170.832 171.111L169.553 171.165L169.293 166.404L164.708 171.929ZM173.796 167.624C173.851 168.048 173.962 168.417 174.129 168.731C174.342 169.117 174.631 169.403 174.993 169.591C175.356 169.778 175.777 169.862 176.257 169.842C176.619 169.827 176.936 169.76 177.207 169.642C177.489 169.512 177.736 169.347 177.949 169.146C178.162 168.934 178.341 168.692 178.486 168.419L179.561 169.03C179.336 169.413 179.083 169.755 178.8 170.055C178.517 170.345 178.166 170.578 177.749 170.756C177.331 170.923 176.802 171.02 176.162 171.047C175.502 171.075 174.896 170.935 174.345 170.627C173.805 170.319 173.364 169.884 173.024 169.321C172.693 168.748 172.508 168.094 172.468 167.359C172.46 167.221 172.458 167.087 172.462 166.959C172.466 166.831 172.475 166.702 172.489 166.574C172.562 165.962 172.746 165.421 173.041 164.949C173.336 164.478 173.727 164.104 174.214 163.827C174.711 163.55 175.274 163.398 175.903 163.372C176.596 163.342 177.212 163.471 177.751 163.758C178.29 164.045 178.719 164.465 179.037 165.017C179.355 165.559 179.536 166.218 179.578 166.996L179.589 167.188C179.592 167.251 179.59 167.316 179.583 167.38L173.796 167.624ZM178.149 166.351C178.085 165.97 177.96 165.639 177.774 165.358C177.598 165.067 177.356 164.848 177.049 164.7C176.752 164.542 176.39 164.472 175.964 164.49C175.538 164.508 175.154 164.615 174.812 164.811C174.47 165.006 174.207 165.274 174.023 165.612C173.867 165.886 173.782 166.194 173.769 166.536L178.149 166.351Z"
    fill="#A1A1A1" />
  <rect x="0.471933" y="0.520517" width="88" height="42" rx="7.5"
    transform="matrix(0.999094 0.0425593 -0.0552271 0.998474 54.0475 96.5334)" stroke="black" />
  <path
    d="M84.8874 119.286C84.8514 119.935 84.9303 120.536 85.1241 121.089C85.3184 121.631 85.5965 122.107 85.9584 122.518C86.3315 122.918 86.7573 123.235 87.2357 123.469C87.7248 123.703 88.2464 123.832 88.8006 123.856C89.3335 123.879 89.8222 123.83 90.2668 123.71C90.722 123.591 91.1376 123.416 91.5135 123.187C91.89 122.947 92.2152 122.667 92.4892 122.348L92.3903 124.137C91.8984 124.532 91.3698 124.819 90.8044 124.998C90.2391 125.177 89.5461 125.249 88.7255 125.214C87.9475 125.181 87.2252 125.011 86.5585 124.705C85.903 124.389 85.3336 123.964 84.8503 123.431C84.3677 122.888 84.0019 122.258 83.753 121.543C83.5042 120.828 83.4027 120.055 83.4487 119.224C83.4946 118.394 83.6809 117.633 84.0075 116.942C84.3341 116.252 84.7674 115.661 85.3072 115.172C85.8476 114.672 86.4611 114.298 87.1478 114.049C87.8458 113.791 88.5837 113.678 89.3617 113.711C90.1823 113.746 90.8641 113.877 91.407 114.103C91.95 114.329 92.4445 114.659 92.8904 115.095L92.7914 116.884C92.5539 116.543 92.2608 116.242 91.912 115.982C91.5638 115.711 91.1697 115.497 90.7298 115.339C90.3005 115.182 89.8194 115.092 89.2866 115.069C88.7324 115.046 88.199 115.13 87.6864 115.321C87.1844 115.514 86.7253 115.798 86.3092 116.176C85.9043 116.543 85.575 116.993 85.3211 117.527C85.0679 118.05 84.9233 118.636 84.8874 119.286ZM94.722 125.309L95.3406 114.126L98.3778 114.256C99.1025 114.286 99.7396 114.452 100.289 114.753C100.85 115.044 101.282 115.447 101.584 115.961C101.898 116.477 102.035 117.08 101.997 117.773C101.959 118.454 101.756 119.043 101.386 119.54C101.028 120.027 100.554 120.396 99.963 120.648C99.3835 120.891 98.7314 120.996 98.0067 120.965L96.3282 120.894L96.0808 125.367L94.722 125.309ZM96.3989 119.616L98.0774 119.687C98.5569 119.708 98.982 119.651 99.3526 119.517C99.7344 119.374 100.035 119.152 100.255 118.851C100.485 118.552 100.613 118.173 100.638 117.715C100.663 117.257 100.578 116.869 100.382 116.551C100.197 116.233 99.9215 115.992 99.5567 115.827C99.2032 115.652 98.7867 115.554 98.3071 115.534L96.6286 115.462L96.3989 119.616ZM105.457 114.557L105.191 119.366L109.853 114.744L111.532 114.816L106.398 119.85L111.153 126.009L109.474 125.938L105.139 120.308L104.838 125.74L103.48 125.682L104.098 114.499L105.457 114.557Z"
    fill="#A1A1A1" />
  <path
    d="M257.735 84.2848C261.924 52.1038 273.236 24.3303 285.717 7.5H429.39V201.098H291.453C260.049 165.331 254.718 107.469 257.735 84.2848Z"
    fill="url(#paint1_radial_694_141)" />
  <path d="M293.709 1.5C250.772 52.3588 243.386 139.022 296.019 207.783"
    stroke="url(#paint2_linear_694_141)" stroke-width="3" stroke-linecap="round" />
  <defs>
    <linearGradient id="paint0_linear_694_141" x1="455.56" y1="53.0176" x2="455.56" y2="216.74"
      gradientUnits="userSpaceOnUse">
      <stop offset="0.9999" stop-color="#00B6CC" stop-opacity="0" />
      <stop offset="1" stop-color="#0A0A0A" />
    </linearGradient>
    <radialGradient id="paint1_radial_694_141" cx="0" cy="0" r="1"
      gradientTransform="matrix(128.58 -1.93295 1.46711 98.2597 234.445 104.299)"
      gradientUnits="userSpaceOnUse">
      <stop offset="0.259615" stop-color="#00E3FF" />
      <stop offset="0.918269" stop-color="white" stop-opacity="0" />
    </radialGradient>
    <linearGradient id="paint2_linear_694_141" x1="296.019" y1="104.642" x2="259" y2="104.642"
      gradientUnits="userSpaceOnUse">
      <stop offset="0.399038" stop-color="#02E4FF" stop-opacity="0.22" />
      <stop offset="0.927885" stop-color="#00E3FF" />
    </linearGradient>
  </defs>
</svg>