<svg width="20" height="20" viewBox="0 0 20 20" fill="none" xmlns="http://www.w3.org/2000/svg">
<g clip-path="url(#clip0_1_4470)">
<path d="M8.05148 15.387L10.5469 12.8916L8.05148 10.3962L5.55608 12.8916L8.05148 15.387Z" fill="white"/>
<path d="M8.06799 4.69532L9.95569 2.80762L8.06799 0.919917L6.18029 2.80762L8.06799 4.69532Z" fill="white"/>
<path d="M3.03463 15.3704L5.53003 12.875L3.03463 10.3796L0.539239 12.875L3.03463 15.3704Z" fill="white"/>
<path d="M3.03463 5.30301L5.53003 2.80762L3.03463 0.312222L0.53924 2.80762L3.03463 5.30301Z" fill="white"/>
<path d="M8.05154 19.6885L9.78882 17.9512L8.05154 16.2139L6.31426 17.9512L8.05154 19.6885Z" fill="white"/>
<path d="M8.05133 9.75361L9.93872 7.86621L8.05133 5.97882L6.16393 7.86621L8.05133 9.75361Z" fill="white"/>
<path d="M3.03496 19.6063L4.73401 17.9072L3.03496 16.2082L1.33591 17.9072L3.03496 19.6063Z" fill="white"/>
<path d="M3.03463 10.3362L5.53003 7.84082L3.03463 5.34543L0.53924 7.84082L3.03463 10.3362Z" fill="white"/>
<path d="M13.0678 13.5385L13.6971 12.9092L13.0678 12.2799L12.4385 12.9092L13.0678 13.5385Z" fill="white"/>
<path d="M13.0679 4.10031L14.3264 2.8418L13.0679 1.58329L11.8094 2.8418L13.0679 4.10031Z" fill="white"/>
<path d="M18.1143 13.5385L18.7437 12.9092L18.1143 12.2799L17.485 12.9092L18.1143 13.5385Z" fill="white"/>
<path d="M15.5975 16.0424L16.2268 15.4131L15.5975 14.7838L14.9682 15.4131L15.5975 16.0424Z" fill="white"/>
<path d="M11.193 16.0424L11.8223 15.4131L11.193 14.7838L10.5636 15.4131L11.193 16.0424Z" fill="white"/>
<path d="M18.1152 4.08679L19.3602 2.8418L18.1152 1.5968L16.8702 2.8418L18.1152 4.08679Z" fill="white"/>
<path d="M13.0678 18.559L13.6971 17.9297L13.0678 17.3004L12.4385 17.9297L13.0678 18.559Z" fill="white"/>
<path d="M13.0671 9.13433L14.3391 7.8623L13.0671 6.59028L11.7951 7.86231L13.0671 9.13433Z" fill="white"/>
<path d="M18.1143 18.559L18.7437 17.9297L18.1143 17.3004L17.485 17.9297L18.1143 18.559Z" fill="white"/>
<path d="M18.1143 9.12081L19.3728 7.8623L18.1143 6.6038L16.8558 7.8623L18.1143 9.12081Z" fill="white"/>
<path d="M15.5974 6.60421L16.856 5.3457L15.5974 4.08719L14.3389 5.3457L15.5974 6.60421Z" fill="white"/>
<path d="M15.5974 11.6374L16.856 10.3789L15.5974 9.1204L14.3389 10.3789L15.5974 11.6374Z" fill="white"/>
<path d="M11.1929 11.6374L12.4514 10.3789L11.1929 9.1204L9.9344 10.3789L11.1929 11.6374Z" fill="white"/>
<path d="M10.5638 6.60421L11.8223 5.3457L10.5638 4.08719L9.30525 5.3457L10.5638 6.60421Z" fill="white"/>
</g>
<defs>
<clipPath id="clip0_1_4470">
<rect width="19.4595" height="20" fill="white"/>
</clipPath>
</defs>
</svg>
