<svg width="19" height="19" viewBox="0 0 19 19" fill="none" xmlns="http://www.w3.org/2000/svg">
<path d="M2.92175 0.584351V0H4.09045V0.584351C4.09045 1.87526 5.13694 2.92175 6.42786 2.92175H7.01221V3.5061V4.09045H6.42786C5.13694 4.09045 4.09045 5.13694 4.09045 6.42786V7.01221H3.5061H2.92175V6.42786C2.92175 5.13694 1.87526 4.09045 0.584351 4.09045H0V3.5061V2.92175H0.584351C1.87526 2.92175 2.92175 1.87526 2.92175 0.584351Z" fill="black"/>
<path d="M16.9462 5.2594V5.84375H15.7775V5.2594C15.7775 4.61395 15.2542 4.0907 14.6088 4.0907H14.0244V3.50635V2.922H14.6088C15.2542 2.922 15.7775 2.39875 15.7775 1.7533V1.16895H16.3618H16.9462V1.7533C16.9462 2.39875 17.4694 2.922 18.1149 2.922H18.6992V3.50635V4.0907H18.1149C17.4694 4.0907 16.9462 4.61395 16.9462 5.2594Z" fill="black"/>
<path d="M9.82534 5.76098L9.93396 4.6748H11.1027L11.2113 5.76098C11.488 8.52841 13.677 10.7173 16.4443 10.994L17.5305 11.1027V12.2714L16.4443 12.3799C13.677 12.6567 11.488 14.8457 11.2113 17.613L11.1027 18.6992H9.93396L9.82534 17.613C9.5486 14.8457 7.35971 12.6567 4.59228 12.3799L3.5061 12.2714V11.1027L4.59228 10.994C7.35971 10.7173 9.5486 8.52841 9.82534 5.76098Z" fill="black"/>
</svg>
