<svg width="668" height="248" viewBox="0 0 668 248" fill="none" xmlns="http://www.w3.org/2000/svg">
<path fill-rule="evenodd" clip-rule="evenodd" d="M626.147 70.1858V194.271H556.874L540.275 184.697V215.056L510.737 232.095H459.915L430.377 215.056V195.204H417.07L406.933 189.346L396.781 195.204H374.027L344.489 178.166V158.757H334.857V194.271H287.388V183.519L267.13 195.204H221.851L205.298 185.645V194.286H167.047L137.509 177.233V158.757H137.157V177.233L107.619 194.271H41.8521V71.1035L71.3899 54.0653H137.509V43.2367L184.978 15.9053V54.0653H205.298V62.6915L221.851 53.1476H267.13L287.388 64.8327V54.0653H325.7L327.783 57.6137L333.923 54.0653H413.778L438.692 68.4423L463.605 54.0653H540.275V62.7221L556.874 53.1476H596.61L626.147 70.1858Z" fill="#00B6CC"/>
<path fill-rule="evenodd" clip-rule="evenodd" d="M593.639 64.2051H559.844L540.275 75.5078L538.422 76.5784V145.022L540.275 146.092L559.844 157.38H615.076V135.799H563.718V120.673H615.076V76.5784L593.639 64.2051ZM589.765 101.662H563.718V85.8011H589.765V101.662Z" fill="white"/>
<path fill-rule="evenodd" clip-rule="evenodd" d="M466.575 65.1387L445.153 77.4967V115.32L458.261 122.876L445.153 130.447V147.057L453.1 151.691L462.885 157.38L460.527 158.757L445.153 167.75L443.316 168.836L442.397 169.371H442.381L441.447 169.922V182.846L443.316 183.917L452.564 189.254L462.885 195.204H503.877V183.213H503.892V195.204H507.766L529.188 182.846V150.008L528.07 149.351H528.055L527.335 149.779V148.938L516.984 142.958L507.766 137.635H470.449V125.644H502.223L518.577 116.207L523.645 113.286V93.3572L519.587 90.9713H519.572L512.375 86.7194L523.247 80.4027L524.104 79.898L527.335 78.0167L529.188 76.9461V65.1387H466.575ZM503.892 173.99H466.759V157.38H503.892V173.99ZM498.349 104.981H470.449V85.8017H498.349V104.981Z" fill="white"/>
<path fill-rule="evenodd" clip-rule="evenodd" d="M410.807 65.1387H364.824V86.7194H406.933V101.662H376.997L364.824 108.682H364.809L355.575 114.02V145.94L376.997 158.298H393.81L406.933 150.743L420.041 158.298H432.23V77.4967L410.807 65.1387ZM406.933 137.085H380.887V121.04H406.933V137.085Z" fill="white"/>
<path fill-rule="evenodd" clip-rule="evenodd" d="M355.544 65.1387V86.7194H323.771V157.38H298.474V65.1387H319.345L323.771 72.6942L336.893 65.1387H355.544Z" fill="white"/>
<path fill-rule="evenodd" clip-rule="evenodd" d="M264.159 64.2051H224.822L205.298 75.4772L203.399 76.5784V79.8973H205.298V80.4021H203.399V145.939L205.298 147.041L224.822 158.298H264.159L285.597 145.939V76.5784L264.159 64.2051ZM260.285 136.717H228.696V85.8011H260.285V136.717Z" fill="white"/>
<path fill-rule="evenodd" clip-rule="evenodd" d="M194.212 65.1385V86.7192H173.892V135.8H194.212V157.38H170.018L148.596 145.022V86.7192H131.599V65.1385H148.596V49.6451L173.892 35.0693V65.1385H194.212Z" fill="white"/>
<path fill-rule="evenodd" clip-rule="evenodd" d="M126.071 112.001V145.022L104.649 157.38H52.9382V135.8H100.775V121.591H74.3605L52.9382 109.233V77.4967L74.3605 65.1387H124.233V86.7194H78.2345V99.628H104.649L124.233 110.946L126.071 112.001Z" fill="white"/>
</svg>
