<svg width="314" height="273" viewBox="0 0 314 273" fill="none" xmlns="http://www.w3.org/2000/svg">
<path d="M312.196 271.604H1.29773L156.747 1.25195L312.196 271.604Z" fill="black" stroke="white"/>
<path d="M156.747 0.249023L313.06 272.104" stroke="white"/>
<path d="M156.747 0.249023L0.433472 272.104" stroke="white"/>
<path opacity="0.971429" d="M156.747 6.11426L313.06 272.104" stroke="white"/>
<path opacity="0.971429" d="M156.747 6.11426L0.433594 272.104" stroke="white"/>
<path opacity="0.942857" d="M156.747 11.9795L313.06 272.104" stroke="white"/>
<path opacity="0.942857" d="M156.747 11.9795L0.433594 272.104" stroke="white"/>
<path opacity="0.914286" d="M156.747 17.8438L313.06 272.104" stroke="white"/>
<path opacity="0.914286" d="M156.747 17.8438L0.433594 272.104" stroke="white"/>
<path opacity="0.885714" d="M156.747 23.709L313.06 272.104" stroke="white"/>
<path opacity="0.885714" d="M156.747 23.709L0.433594 272.104" stroke="white"/>
<path opacity="0.857143" d="M156.747 29.5742L313.06 272.104" stroke="white"/>
<path opacity="0.857143" d="M156.747 29.5742L0.433594 272.104" stroke="white"/>
<path opacity="0.828571" d="M156.747 35.4385L313.06 272.103" stroke="white"/>
<path opacity="0.828571" d="M156.747 35.4385L0.433594 272.103" stroke="white"/>
<path opacity="0.8" d="M156.747 41.3037L313.06 272.104" stroke="white"/>
<path opacity="0.8" d="M156.747 41.3037L0.433594 272.104" stroke="white"/>
<path opacity="0.771429" d="M156.747 47.1689L313.06 272.104" stroke="white"/>
<path opacity="0.771429" d="M156.747 47.1689L0.433594 272.104" stroke="white"/>
<path opacity="0.742857" d="M156.747 53.0342L313.06 272.104" stroke="white"/>
<path opacity="0.742857" d="M156.747 53.0342L0.433594 272.104" stroke="white"/>
<path opacity="0.714286" d="M156.747 58.8984L313.06 272.103" stroke="white"/>
<path opacity="0.714286" d="M156.747 58.8984L0.433594 272.103" stroke="white"/>
<path opacity="0.685714" d="M156.747 64.7637L313.06 272.104" stroke="white"/>
<path opacity="0.685714" d="M156.747 64.7637L0.433594 272.104" stroke="white"/>
<path opacity="0.657143" d="M156.747 70.6289L313.06 272.104" stroke="white"/>
<path opacity="0.657143" d="M156.747 70.6289L0.433594 272.104" stroke="white"/>
<path opacity="0.628571" d="M156.747 76.4941L313.06 272.104" stroke="white"/>
<path opacity="0.628571" d="M156.747 76.4941L0.433594 272.104" stroke="white"/>
<path opacity="0.6" d="M156.747 82.3594L313.06 272.104" stroke="white"/>
<path opacity="0.6" d="M156.747 82.3594L0.433594 272.104" stroke="white"/>
<path opacity="0.571429" d="M156.747 88.2236L313.06 272.104" stroke="white"/>
<path opacity="0.571429" d="M156.747 88.2236L0.433594 272.104" stroke="white"/>
<path opacity="0.542857" d="M156.747 94.0889L313.06 272.104" stroke="white"/>
<path opacity="0.542857" d="M156.747 94.0889L0.433594 272.104" stroke="white"/>
<path opacity="0.514286" d="M156.747 99.9541L313.06 272.104" stroke="white"/>
<path opacity="0.514286" d="M156.747 99.9541L0.433594 272.104" stroke="white"/>
<path opacity="0.485714" d="M156.747 105.818L313.06 272.103" stroke="white"/>
<path opacity="0.485714" d="M156.747 105.818L0.433594 272.103" stroke="white"/>
<path opacity="0.457143" d="M156.747 111.684L313.06 272.104" stroke="white"/>
<path opacity="0.457143" d="M156.747 111.684L0.433594 272.104" stroke="white"/>
<path opacity="0.428571" d="M156.747 117.549L313.06 272.104" stroke="white"/>
<path opacity="0.428571" d="M156.747 117.549L0.433594 272.104" stroke="white"/>
<path opacity="0.4" d="M156.747 123.414L313.06 272.104" stroke="white"/>
<path opacity="0.4" d="M156.747 123.414L0.433594 272.104" stroke="white"/>
<path opacity="0.371429" d="M156.747 129.278L313.06 272.103" stroke="white"/>
<path opacity="0.371429" d="M156.747 129.278L0.433594 272.103" stroke="white"/>
<path opacity="0.342857" d="M156.747 135.144L313.06 272.104" stroke="white"/>
<path opacity="0.342857" d="M156.747 135.144L0.433594 272.104" stroke="white"/>
<path opacity="0.314286" d="M156.747 141.009L313.06 272.104" stroke="white"/>
<path opacity="0.314286" d="M156.747 141.009L0.433594 272.104" stroke="white"/>
<path opacity="0.285714" d="M156.747 146.874L313.06 272.104" stroke="white"/>
<path opacity="0.285714" d="M156.747 146.874L0.433594 272.104" stroke="white"/>
<path opacity="0.257143" d="M156.747 152.738L313.06 272.103" stroke="white"/>
<path opacity="0.257143" d="M156.747 152.738L0.433594 272.103" stroke="white"/>
<path opacity="0.228571" d="M156.747 158.604L313.06 272.103" stroke="white"/>
<path opacity="0.228571" d="M156.747 158.604L0.433594 272.103" stroke="white"/>
<path opacity="0.2" d="M156.747 164.469L313.06 272.104" stroke="white"/>
<path opacity="0.2" d="M156.747 164.469L0.433594 272.104" stroke="white"/>
<path opacity="0.171429" d="M156.747 170.334L313.06 272.104" stroke="white"/>
<path opacity="0.171429" d="M156.747 170.334L0.433594 272.104" stroke="white"/>
<path opacity="0.142857" d="M156.747 176.199L313.06 272.104" stroke="white"/>
<path opacity="0.142857" d="M156.747 176.199L0.433594 272.104" stroke="white"/>
<path opacity="0.114286" d="M156.747 182.063L313.06 272.104" stroke="white"/>
<path opacity="0.114286" d="M156.747 182.063L0.433594 272.104" stroke="white"/>
<path opacity="0.0857143" d="M156.747 187.929L313.06 272.104" stroke="white"/>
<path opacity="0.0857143" d="M156.747 187.929L0.433594 272.104" stroke="white"/>
<path opacity="0.0571429" d="M156.747 193.794L313.06 272.104" stroke="white"/>
<path opacity="0.0571429" d="M156.747 193.794L0.433594 272.104" stroke="white"/>
<path opacity="0.0285714" d="M156.747 199.659L313.06 272.104" stroke="white"/>
<path opacity="0.0285714" d="M156.747 199.659L0.433594 272.104" stroke="white"/>
<path d="M0.433472 272.104H313.06L156.747 0.249023L0.433472 272.104Z" fill="url(#paint0_linear_122_599)"/>
<defs>
<linearGradient id="paint0_linear_122_599" x1="156.747" y1="0.249023" x2="156.747" y2="272.104" gradientUnits="userSpaceOnUse">
<stop/>
<stop offset="1" stop-color="#666666" stop-opacity="0"/>
</linearGradient>
</defs>
</svg>
