<svg width="36" height="36" viewBox="0 0 36 36" fill="none" xmlns="http://www.w3.org/2000/svg">
<rect width="36" height="36" rx="8" fill="#007AFF"/>
<path fill-rule="evenodd" clip-rule="evenodd" d="M11 11V22.75C11 23.9926 12.0074 25 13.25 25H25V23.5H13.25C12.8358 23.5 12.5 23.1642 12.5 22.75V11H11ZM24.2971 16.013L24.8101 15.466L23.716 14.4399L23.2029 14.987L19.9826 18.421L17.707 16.1463C17.3165 15.7559 16.6834 15.7559 16.2929 16.1464L14.2197 18.2197L13.6893 18.75L14.75 19.8107L15.2803 19.2803L17.0001 17.5606L19.2872 19.8468C19.6867 20.2461 20.3373 20.2356 20.7236 19.8236L24.2971 16.013Z" fill="white"/>
</svg>
