<svg width="36" height="35" viewBox="0 0 36 35" fill="none" xmlns="http://www.w3.org/2000/svg">
<rect width="36" height="34.1872" rx="8" fill="#999999"/>
<path fill-rule="evenodd" clip-rule="evenodd" d="M18.9911 11.5756C17.0149 11.2723 14.9259 11.8818 13.4038 13.4038C10.8654 15.9422 10.8654 20.0578 13.4038 22.5962L13.9341 23.1265L12.8735 24.1872L12.3431 23.6569C9.21895 20.5327 9.21895 15.4673 12.3431 12.3432C14.4097 10.2766 17.3256 9.57698 19.9673 10.2444L18.9911 11.5756ZM23.8304 15.1225C25.0295 17.5517 24.6181 20.5743 22.5962 22.5962L22.0659 23.1265L23.1265 24.1872L23.6569 23.6569C26.334 20.9797 26.7171 16.8772 24.8061 13.7921L23.8304 15.1225ZM18 19C18.5523 19 19 18.5523 19 18C19 17.4477 18.5523 17 18 17C17.4477 17 17 17.4477 17 18C17 18.5523 17.4477 19 18 19ZM18 20.5C19.3807 20.5 20.5 19.3807 20.5 18C20.5 17.4257 20.3064 16.8967 19.9808 16.4746L23.4475 12.1412C23.0815 11.8007 22.6834 11.4941 22.2585 11.2263L18.7484 15.6139C18.5121 15.5399 18.2607 15.5 18 15.5C16.6193 15.5 15.5 16.6193 15.5 18C15.5 19.3807 16.6193 20.5 18 20.5Z" fill="white"/>
</svg>
