<svg width="36" height="36" viewBox="0 0 36 36" fill="none" xmlns="http://www.w3.org/2000/svg">
<rect x="0.5" y="0.5" width="35" height="35" rx="7.5" fill="#0A0A0A"/>
<rect x="0.5" y="0.5" width="35" height="35" rx="7.5" stroke="#1F1F1F"/>
<path d="M17.1796 11.4195C17.5441 10.7881 18.4559 10.7881 18.8205 11.4195L25.8718 23.6332C26.2248 24.2449 25.8082 25.0049 25.1188 25.0517L25.0513 25.054V24.5804C25.4158 24.5804 25.6437 24.1857 25.4615 23.87L18.4103 11.6563C18.228 11.3406 17.7721 11.3406 17.5898 11.6563L10.5386 23.8695C10.3563 24.1853 10.5842 24.5804 10.9488 24.5804V25.054L10.8813 25.0517C10.1918 25.0049 9.7751 24.2445 10.1283 23.6327L17.1796 11.4195ZM25.0513 24.5804V25.054H10.9488V24.5804H25.0513Z" fill="#A1A1A1"/>
<path d="M10.9488 25.054H25.0513L25.1188 25.0517C25.8082 25.0049 26.2248 24.2449 25.8718 23.6332L18.8205 11.4195C18.4559 10.7881 17.5441 10.7881 17.1796 11.4195L10.1283 23.6327C9.7751 24.2445 10.1918 25.0049 10.8813 25.0517L10.9488 25.054ZM25.0513 25.054V24.5804M25.0513 25.054V24.5804M25.0513 24.5804C25.4158 24.5804 25.6437 24.1857 25.4615 23.87L18.4103 11.6563C18.228 11.3406 17.7721 11.3406 17.5898 11.6563L10.5386 23.8695C10.3563 24.1853 10.5842 24.5804 10.9488 24.5804M25.0513 24.5804H10.9488M10.9488 24.5804V25.054M10.9488 24.5804V25.054" stroke="#A1A1A1" stroke-width="0.6"/>
</svg>
