<svg width="36" height="36" viewBox="0 0 36 36" fill="none" xmlns="http://www.w3.org/2000/svg">
<rect width="36" height="36" rx="8" fill="#1A9CD2"/>
<path d="M17.1796 11.4189C17.5441 10.7874 18.4559 10.7874 18.8205 11.4189L25.8718 23.6326C26.2248 24.2443 25.8082 25.0043 25.1188 25.0511L25.0513 25.0534V24.5798C25.4158 24.5798 25.6437 24.1851 25.4615 23.8694L18.4103 11.6557C18.228 11.34 17.7721 11.34 17.5898 11.6557L10.5386 23.8689C10.3563 24.1846 10.5842 24.5798 10.9488 24.5798V25.0534L10.8813 25.0511C10.1918 25.0043 9.7751 24.2439 10.1283 23.6321L17.1796 11.4189ZM25.0513 24.5798V25.0534H10.9488V24.5798H25.0513Z" fill="white"/>
<path d="M10.9488 25.0534H25.0513L25.1188 25.0511C25.8082 25.0043 26.2248 24.2443 25.8718 23.6326L18.8205 11.4189C18.4559 10.7874 17.5441 10.7874 17.1796 11.4189L10.1283 23.6321C9.7751 24.2439 10.1918 25.0043 10.8813 25.0511L10.9488 25.0534ZM25.0513 25.0534V24.5798M25.0513 25.0534V24.5798M25.0513 24.5798C25.4158 24.5798 25.6437 24.1851 25.4615 23.8694L18.4103 11.6557C18.228 11.34 17.7721 11.34 17.5898 11.6557L10.5386 23.8689C10.3563 24.1846 10.5842 24.5798 10.9488 24.5798M25.0513 24.5798H10.9488M10.9488 24.5798V25.0534M10.9488 24.5798V25.0534" stroke="white" stroke-width="0.6"/>
</svg>
