<svg width="189" height="30" viewBox="0 0 189 30" fill="none" xmlns="http://www.w3.org/2000/svg">
<g clip-path="url(#clip0_1_2426)">
<path d="M0.000488281 0H10.8943C13.0507 0 14.6557 0.0941851 15.7091 0.282556C16.7749 0.458368 17.723 0.835109 18.5534 1.41278C19.3961 1.99045 20.0964 2.76277 20.6541 3.72973C21.2117 4.68413 21.4906 5.75784 21.4906 6.95087C21.4906 8.24435 21.1436 9.43108 20.4496 10.5111C19.7679 11.591 18.8384 12.401 17.661 12.941C19.3218 13.4308 20.5983 14.2659 21.4906 15.4464C22.3829 16.6268 22.8291 18.0145 22.8291 19.6093C22.8291 20.8652 22.5378 22.0895 21.9554 23.2826C21.3853 24.463 20.5983 25.4112 19.5944 26.127C18.603 26.8302 17.376 27.2634 15.9136 27.4268C14.9965 27.5272 12.7843 27.5899 9.27694 27.6152H0.000488281V0ZM5.50315 4.59622V10.982H9.10963C11.2537 10.982 12.586 10.9506 13.1065 10.8878C14.0484 10.7748 14.7858 10.4483 15.3187 9.90827C15.864 9.35572 16.1367 8.63363 16.1367 7.74202C16.1367 6.88808 15.9012 6.19737 15.4302 5.66994C14.9717 5.12996 14.2839 4.80345 13.3668 4.69043C12.8214 4.62763 11.2537 4.59622 8.66347 4.59622H5.50315ZM5.50315 15.5782V22.9623H10.5968C12.5798 22.9623 13.8377 22.9058 14.3706 22.7928C15.1886 22.6421 15.8516 22.2779 16.3597 21.7003C16.8803 21.11 17.1405 20.3252 17.1405 19.3456C17.1405 18.5168 16.9422 17.8136 16.5456 17.2359C16.149 16.6582 15.5728 16.2375 14.8168 15.9738C14.0732 15.7101 12.4496 15.5782 9.94616 15.5782H5.50315Z" fill="#A1A1A1"/>
<path d="M28.0874 27.6152V0H33.5899V27.6152H28.0874Z" fill="#A1A1A1"/>
<path d="M45.7482 27.6152V4.67159H37.6616V0H59.3189V4.67159H51.251V27.6152H45.7482Z" fill="#A1A1A1"/>
<path d="M63.6685 0H74.5624C76.7187 0 78.3238 0.0941851 79.3772 0.282556C80.4429 0.458368 81.391 0.835109 82.2214 1.41278C83.0641 1.99045 83.7644 2.76277 84.3221 3.72973C84.8797 4.68413 85.1587 5.75784 85.1587 6.95087C85.1587 8.24435 84.8117 9.43108 84.1176 10.5111C83.436 11.591 82.5066 12.401 81.3291 12.941C82.9899 13.4308 84.2664 14.2659 85.1587 15.4464C86.051 16.6268 86.4971 18.0145 86.4971 19.6093C86.4971 20.8652 86.206 22.0895 85.6234 23.2826C85.0533 24.463 84.2664 25.4112 83.2626 26.127C82.271 26.8302 81.0439 27.2634 79.5815 27.4268C78.6644 27.5272 76.4524 27.5899 72.9451 27.6152H63.6685V0ZM69.1712 4.59622V10.982H72.7778C74.9218 10.982 76.254 10.9506 76.7744 10.8878C77.7164 10.7748 78.4539 10.4483 78.9867 9.90827C79.5322 9.35572 79.8048 8.63363 79.8048 7.74202C79.8048 6.88808 79.5693 6.19737 79.0982 5.66994C78.6399 5.12996 77.9519 4.80345 77.0348 4.69043C76.4895 4.62763 74.9218 4.59622 72.3315 4.59622H69.1712ZM69.1712 15.5782V22.9623H74.265C76.2478 22.9623 77.5059 22.9058 78.0386 22.7928C78.8567 22.6421 79.5196 22.2779 80.0278 21.7003C80.5483 21.11 80.8086 20.3252 80.8086 19.3456C80.8086 18.5168 80.6102 17.8136 80.2138 17.2359C79.8171 16.6582 79.2409 16.2375 78.4849 15.9738C77.7412 15.7101 76.1177 15.5782 73.6141 15.5782H69.1712Z" fill="#A1A1A1"/>
<path d="M92.0718 27.6147V0.225586H97.5743V22.9619H111.257V27.6147H92.0718Z" fill="#A1A1A1"/>
<path d="M140.538 27.6152H134.552L132.172 21.3423H121.278L119.029 27.6152H113.192L123.807 0H129.625L140.538 27.6152ZM130.406 16.6896L126.651 6.44228L122.97 16.6896H130.406Z" fill="#A1A1A1"/>
<path d="M141.874 27.6152V22.5856L156.188 4.67159H143.491V0H163.438V4.33251L148.51 22.9623H164.014V27.6152H141.874Z" fill="#A1A1A1"/>
<path d="M168.27 27.6152V0H188.477V4.67159H173.773V10.7936H187.455V15.4464H173.773V22.9623H188.998V27.6152H168.27Z" fill="#A1A1A1"/>
</g>
<defs>
<clipPath id="clip0_1_2426">
<rect width="189" height="29.4" fill="white"/>
</clipPath>
</defs>
</svg>
