<svg width="888" height="393" viewBox="0 0 888 393" fill="none" xmlns="http://www.w3.org/2000/svg">
<rect x="1.61426" y="76" width="128" height="37" rx="7" stroke="#FF6600" stroke-width="2"/>
<path d="M36.4263 100H34.7943L31.7703 95.04L28.6983 100H27.1783L30.9703 94.048L27.4183 88.576H29.0183L31.8183 93.056L34.6343 88.576H36.1543L32.6183 94.016L36.4263 100ZM41.9293 91.264C42.9853 91.264 43.8333 91.632 44.4733 92.368C45.1239 93.104 45.4493 94.2133 45.4493 95.696C45.4493 96.6667 45.2999 97.488 45.0013 98.16C44.7133 98.8213 44.3026 99.3227 43.7693 99.664C43.2466 99.9947 42.6279 100.16 41.9133 100.16C41.4759 100.16 41.0866 100.101 40.7453 99.984C40.4039 99.8667 40.1106 99.7173 39.8653 99.536C39.6306 99.344 39.4279 99.136 39.2573 98.912H39.1613C39.1826 99.0933 39.2039 99.3227 39.2253 99.6C39.2466 99.8773 39.2573 100.117 39.2573 100.32V103.84H37.8493V91.424H39.0013L39.1933 92.592H39.2573C39.4279 92.3467 39.6306 92.1227 39.8653 91.92C40.1106 91.7173 40.3986 91.5573 40.7293 91.44C41.0706 91.3227 41.4706 91.264 41.9293 91.264ZM41.6733 92.448C41.0973 92.448 40.6333 92.56 40.2813 92.784C39.9293 92.9973 39.6733 93.3227 39.5133 93.76C39.3533 94.1973 39.2679 94.752 39.2573 95.424V95.696C39.2573 96.4 39.3319 96.9973 39.4813 97.488C39.6306 97.9787 39.8813 98.352 40.2333 98.608C40.5959 98.864 41.0866 98.992 41.7053 98.992C42.2279 98.992 42.6546 98.848 42.9853 98.56C43.3266 98.272 43.5773 97.8827 43.7373 97.392C43.9079 96.8907 43.9933 96.32 43.9933 95.68C43.9933 94.6987 43.8013 93.9147 43.4173 93.328C43.0439 92.7413 42.4626 92.448 41.6733 92.448ZM50.941 91.28C51.9863 91.28 52.7597 91.5093 53.261 91.968C53.7623 92.4267 54.013 93.1573 54.013 94.16V100H52.989L52.717 98.784H52.653C52.4077 99.0933 52.1517 99.3547 51.885 99.568C51.629 99.7707 51.3303 99.92 50.989 100.016C50.6583 100.112 50.253 100.16 49.773 100.16C49.261 100.16 48.797 100.069 48.381 99.888C47.9757 99.7067 47.6557 99.4293 47.421 99.056C47.1863 98.672 47.069 98.192 47.069 97.616C47.069 96.7627 47.405 96.1067 48.077 95.648C48.749 95.1787 49.7837 94.9227 51.181 94.88L52.637 94.832V94.32C52.637 93.6053 52.4823 93.1093 52.173 92.832C51.8637 92.5547 51.4263 92.416 50.861 92.416C50.413 92.416 49.9863 92.4853 49.581 92.624C49.1757 92.752 48.797 92.9013 48.445 93.072L48.013 92.016C48.3863 91.8133 48.829 91.6427 49.341 91.504C49.853 91.3547 50.3863 91.28 50.941 91.28ZM51.357 95.856C50.2903 95.8987 49.549 96.0693 49.133 96.368C48.7277 96.6667 48.525 97.088 48.525 97.632C48.525 98.112 48.669 98.464 48.957 98.688C49.2557 98.912 49.6343 99.024 50.093 99.024C50.8183 99.024 51.421 98.8267 51.901 98.432C52.381 98.0267 52.621 97.408 52.621 96.576V95.808L51.357 95.856ZM58.0698 91.424V94.992H62.7258V91.424H64.1338V100H62.7258V96.176H58.0698V100H56.6618V91.424H58.0698ZM70.1613 91.264C70.8973 91.264 71.5266 91.424 72.0493 91.744C72.5826 92.064 72.9879 92.5173 73.2653 93.104C73.5533 93.68 73.6973 94.3573 73.6973 95.136V95.984H67.8253C67.8466 96.9547 68.0919 97.696 68.5613 98.208C69.0413 98.7093 69.7079 98.96 70.5613 98.96C71.1053 98.96 71.5853 98.912 72.0013 98.816C72.4279 98.7093 72.8653 98.56 73.3133 98.368V99.6C72.8759 99.792 72.4439 99.9307 72.0173 100.016C71.5906 100.112 71.0839 100.16 70.4973 100.16C69.6866 100.16 68.9666 99.9947 68.3373 99.664C67.7186 99.3333 67.2333 98.8427 66.8813 98.192C66.5399 97.5307 66.3693 96.7253 66.3693 95.776C66.3693 94.8373 66.5239 94.032 66.8333 93.36C67.1533 92.688 67.5959 92.1707 68.1613 91.808C68.7373 91.4453 69.4039 91.264 70.1613 91.264ZM70.1453 92.416C69.4733 92.416 68.9399 92.6347 68.5453 93.072C68.1613 93.4987 67.9319 94.096 67.8573 94.864H72.2253C72.2253 94.3733 72.1506 93.9467 72.0013 93.584C71.8519 93.2213 71.6226 92.9387 71.3133 92.736C71.0146 92.5227 70.6253 92.416 70.1453 92.416ZM77.2885 91.424V94.992H81.9445V91.424H83.3525V100H81.9445V96.176H77.2885V100H75.8805V91.424H77.2885ZM87.396 96.656C87.396 96.752 87.3907 96.8907 87.38 97.072C87.38 97.2427 87.3747 97.4293 87.364 97.632C87.3533 97.824 87.3427 98.0107 87.332 98.192C87.3213 98.3627 87.3107 98.5013 87.3 98.608L91.892 91.424H93.62V100H92.308V94.944C92.308 94.7733 92.308 94.5493 92.308 94.272C92.3187 93.9947 92.3293 93.7227 92.34 93.456C92.3507 93.1787 92.3613 92.9707 92.372 92.832L87.812 100H86.068V91.424H87.396V96.656ZM99.6613 91.264C100.397 91.264 101.027 91.424 101.549 91.744C102.083 92.064 102.488 92.5173 102.765 93.104C103.053 93.68 103.197 94.3573 103.197 95.136V95.984H97.3253C97.3466 96.9547 97.5919 97.696 98.0613 98.208C98.5413 98.7093 99.2079 98.96 100.061 98.96C100.605 98.96 101.085 98.912 101.501 98.816C101.928 98.7093 102.365 98.56 102.813 98.368V99.6C102.376 99.792 101.944 99.9307 101.517 100.016C101.091 100.112 100.584 100.16 99.9973 100.16C99.1866 100.16 98.4666 99.9947 97.8373 99.664C97.2186 99.3333 96.7333 98.8427 96.3813 98.192C96.0399 97.5307 95.8693 96.7253 95.8693 95.776C95.8693 94.8373 96.0239 94.032 96.3333 93.36C96.6533 92.688 97.0959 92.1707 97.6613 91.808C98.2373 91.4453 98.9039 91.264 99.6613 91.264ZM99.6453 92.416C98.9733 92.416 98.4399 92.6347 98.0453 93.072C97.6613 93.4987 97.4319 94.096 97.3573 94.864H101.725C101.725 94.3733 101.651 93.9467 101.501 93.584C101.352 93.2213 101.123 92.9387 100.813 92.736C100.515 92.5227 100.125 92.416 99.6453 92.416Z" fill="#A1A1A1"/>
<g filter="url(#filter0_f_1076_113)">
<rect x="493.55" y="62.5" width="153" height="64" rx="19.5" stroke="#FF00E5" stroke-width="25"/>
</g>
<g filter="url(#filter1_f_1076_113)">
<rect x="498.55" y="67.5" width="143" height="54" rx="14.5" stroke="#FF00E5" stroke-width="15"/>
</g>
<g filter="url(#filter2_f_1076_113)">
<rect x="503.55" y="72.5" width="133" height="44" rx="9.5" stroke="#FF00E5" stroke-width="5"/>
</g>
<g filter="url(#filter3_f_1076_113)">
<rect x="503.55" y="72.5" width="133" height="44" rx="9.5" stroke="#FF00E5" stroke-width="5"/>
</g>
<rect x="506.05" y="76" width="128" height="37" rx="7" stroke="white" stroke-width="2"/>
<path d="M530.118 88.576H531.462V94.848C531.462 95.1147 531.456 95.408 531.446 95.728C531.446 96.0373 531.44 96.3467 531.43 96.656C531.419 96.9653 531.403 97.2427 531.382 97.488C531.371 97.7227 531.36 97.904 531.35 98.032H531.414L537.702 88.576H539.302V100H537.958V93.792C537.958 93.504 537.963 93.1947 537.974 92.864C537.984 92.5227 537.995 92.1973 538.006 91.888C538.027 91.568 538.043 91.2853 538.054 91.04C538.064 90.7947 538.075 90.6133 538.086 90.496H538.022L531.718 100H530.118V88.576ZM543.599 91.424V94.992H548.255V91.424H549.663V100H548.255V96.176H543.599V100H542.191V91.424H543.599ZM558.299 92.608H555.499V100H554.107V92.608H551.339V91.424H558.299V92.608ZM563.144 91.264C563.88 91.264 564.509 91.424 565.032 91.744C565.565 92.064 565.97 92.5173 566.248 93.104C566.536 93.68 566.68 94.3573 566.68 95.136V95.984H560.808C560.829 96.9547 561.074 97.696 561.544 98.208C562.024 98.7093 562.69 98.96 563.544 98.96C564.088 98.96 564.568 98.912 564.984 98.816C565.41 98.7093 565.848 98.56 566.296 98.368V99.6C565.858 99.792 565.426 99.9307 565 100.016C564.573 100.112 564.066 100.16 563.48 100.16C562.669 100.16 561.949 99.9947 561.32 99.664C560.701 99.3333 560.216 98.8427 559.864 98.192C559.522 97.5307 559.352 96.7253 559.352 95.776C559.352 94.8373 559.506 94.032 559.816 93.36C560.136 92.688 560.578 92.1707 561.144 91.808C561.72 91.4453 562.386 91.264 563.144 91.264ZM563.128 92.416C562.456 92.416 561.922 92.6347 561.528 93.072C561.144 93.4987 560.914 94.096 560.84 94.864H565.208C565.208 94.3733 565.133 93.9467 564.984 93.584C564.834 93.2213 564.605 92.9387 564.296 92.736C563.997 92.5227 563.608 92.416 563.128 92.416ZM575.391 100H573.967V92.592H571.439C571.332 93.9467 571.199 95.104 571.039 96.064C570.879 97.0133 570.676 97.7867 570.431 98.384C570.186 98.9813 569.892 99.4187 569.551 99.696C569.21 99.9733 568.81 100.112 568.351 100.112C568.212 100.112 568.074 100.101 567.935 100.08C567.807 100.069 567.7 100.043 567.615 100V98.944C567.679 98.9653 567.748 98.9813 567.823 98.992C567.898 99.0027 567.972 99.008 568.047 99.008C568.282 99.008 568.495 98.912 568.687 98.72C568.879 98.528 569.05 98.2347 569.199 97.84C569.359 97.4453 569.503 96.9493 569.631 96.352C569.759 95.744 569.871 95.0293 569.967 94.208C570.063 93.3867 570.148 92.4587 570.223 91.424H575.391V100ZM584.641 100H583.217V92.592H580.689C580.582 93.9467 580.449 95.104 580.289 96.064C580.129 97.0133 579.926 97.7867 579.681 98.384C579.436 98.9813 579.142 99.4187 578.801 99.696C578.46 99.9733 578.06 100.112 577.601 100.112C577.462 100.112 577.324 100.101 577.185 100.08C577.057 100.069 576.95 100.043 576.865 100V98.944C576.929 98.9653 576.998 98.9813 577.073 98.992C577.148 99.0027 577.222 99.008 577.297 99.008C577.532 99.008 577.745 98.912 577.937 98.72C578.129 98.528 578.3 98.2347 578.449 97.84C578.609 97.4453 578.753 96.9493 578.881 96.352C579.009 95.744 579.121 95.0293 579.217 94.208C579.313 93.3867 579.398 92.4587 579.473 91.424H584.641V100ZM590.675 91.264C591.411 91.264 592.04 91.424 592.563 91.744C593.096 92.064 593.502 92.5173 593.779 93.104C594.067 93.68 594.211 94.3573 594.211 95.136V95.984H588.339C588.36 96.9547 588.606 97.696 589.075 98.208C589.555 98.7093 590.222 98.96 591.075 98.96C591.619 98.96 592.099 98.912 592.515 98.816C592.942 98.7093 593.379 98.56 593.827 98.368V99.6C593.39 99.792 592.958 99.9307 592.531 100.016C592.104 100.112 591.598 100.16 591.011 100.16C590.2 100.16 589.48 99.9947 588.851 99.664C588.232 99.3333 587.747 98.8427 587.395 98.192C587.054 97.5307 586.883 96.7253 586.883 95.776C586.883 94.8373 587.038 94.032 587.347 93.36C587.667 92.688 588.11 92.1707 588.675 91.808C589.251 91.4453 589.918 91.264 590.675 91.264ZM590.659 92.416C589.987 92.416 589.454 92.6347 589.059 93.072C588.675 93.4987 588.446 94.096 588.371 94.864H592.739C592.739 94.3733 592.664 93.9467 592.515 93.584C592.366 93.2213 592.136 92.9387 591.827 92.736C591.528 92.5227 591.139 92.416 590.659 92.416ZM601.466 91.424H603.002L599.338 95.552L603.306 100H601.674L597.802 95.648V100H596.394V91.424H597.802V95.584L601.466 91.424ZM610.783 92.608H607.983V100H606.591V92.608H603.823V91.424H610.783V92.608Z" fill="white"/>
<rect x="757.951" y="76" width="128" height="37" rx="7" stroke="#C300FF" stroke-width="2"/>
<path d="M773.003 100V88.576H781.579V100H780.155V89.84H774.443V100H773.003ZM787.762 91.28C788.808 91.28 789.581 91.5093 790.082 91.968C790.584 92.4267 790.834 93.1573 790.834 94.16V100H789.81L789.538 98.784H789.474C789.229 99.0933 788.973 99.3547 788.706 99.568C788.45 99.7707 788.152 99.92 787.81 100.016C787.48 100.112 787.074 100.16 786.594 100.16C786.082 100.16 785.618 100.069 785.202 99.888C784.797 99.7067 784.477 99.4293 784.242 99.056C784.008 98.672 783.89 98.192 783.89 97.616C783.89 96.7627 784.226 96.1067 784.898 95.648C785.57 95.1787 786.605 94.9227 788.002 94.88L789.458 94.832V94.32C789.458 93.6053 789.304 93.1093 788.994 92.832C788.685 92.5547 788.248 92.416 787.682 92.416C787.234 92.416 786.808 92.4853 786.402 92.624C785.997 92.752 785.618 92.9013 785.266 93.072L784.834 92.016C785.208 91.8133 785.65 91.6427 786.162 91.504C786.674 91.3547 787.208 91.28 787.762 91.28ZM788.178 95.856C787.112 95.8987 786.37 96.0693 785.954 96.368C785.549 96.6667 785.346 97.088 785.346 97.632C785.346 98.112 785.49 98.464 785.778 98.688C786.077 98.912 786.456 99.024 786.914 99.024C787.64 99.024 788.242 98.8267 788.722 98.432C789.202 98.0267 789.442 97.408 789.442 96.576V95.808L788.178 95.856ZM797.563 91.264C798.619 91.264 799.467 91.632 800.107 92.368C800.758 93.104 801.083 94.2133 801.083 95.696C801.083 96.6667 800.934 97.488 800.635 98.16C800.347 98.8213 799.936 99.3227 799.403 99.664C798.88 99.9947 798.262 100.16 797.547 100.16C797.11 100.16 796.72 100.101 796.379 99.984C796.038 99.8667 795.744 99.7173 795.499 99.536C795.264 99.344 795.062 99.136 794.891 98.912H794.795C794.816 99.0933 794.838 99.3227 794.859 99.6C794.88 99.8773 794.891 100.117 794.891 100.32V103.84H793.483V91.424H794.635L794.827 92.592H794.891C795.062 92.3467 795.264 92.1227 795.499 91.92C795.744 91.7173 796.032 91.5573 796.363 91.44C796.704 91.3227 797.104 91.264 797.563 91.264ZM797.307 92.448C796.731 92.448 796.267 92.56 795.915 92.784C795.563 92.9973 795.307 93.3227 795.147 93.76C794.987 94.1973 794.902 94.752 794.891 95.424V95.696C794.891 96.4 794.966 96.9973 795.115 97.488C795.264 97.9787 795.515 98.352 795.867 98.608C796.23 98.864 796.72 98.992 797.339 98.992C797.862 98.992 798.288 98.848 798.619 98.56C798.96 98.272 799.211 97.8827 799.371 97.392C799.542 96.8907 799.627 96.32 799.627 95.68C799.627 94.6987 799.435 93.9147 799.051 93.328C798.678 92.7413 798.096 92.448 797.307 92.448ZM809.091 92.608H806.291V100H804.899V92.608H802.131V91.424H809.091V92.608ZM812.188 91.424V94.992H816.844V91.424H818.252V100H816.844V96.176H812.188V100H810.78V91.424H812.188ZM824.279 91.264C825.015 91.264 825.645 91.424 826.167 91.744C826.701 92.064 827.106 92.5173 827.383 93.104C827.671 93.68 827.815 94.3573 827.815 95.136V95.984H821.943C821.965 96.9547 822.21 97.696 822.679 98.208C823.159 98.7093 823.826 98.96 824.679 98.96C825.223 98.96 825.703 98.912 826.119 98.816C826.546 98.7093 826.983 98.56 827.431 98.368V99.6C826.994 99.792 826.562 99.9307 826.135 100.016C825.709 100.112 825.202 100.16 824.615 100.16C823.805 100.16 823.085 99.9947 822.455 99.664C821.837 99.3333 821.351 98.8427 820.999 98.192C820.658 97.5307 820.487 96.7253 820.487 95.776C820.487 94.8373 820.642 94.032 820.951 93.36C821.271 92.688 821.714 92.1707 822.279 91.808C822.855 91.4453 823.522 91.264 824.279 91.264ZM824.263 92.416C823.591 92.416 823.058 92.6347 822.663 93.072C822.279 93.4987 822.05 94.096 821.975 94.864H826.343C826.343 94.3733 826.269 93.9467 826.119 93.584C825.97 93.2213 825.741 92.9387 825.431 92.736C825.133 92.5227 824.743 92.416 824.263 92.416ZM834.079 91.264C835.135 91.264 835.983 91.632 836.623 92.368C837.273 93.104 837.599 94.2133 837.599 95.696C837.599 96.6667 837.449 97.488 837.151 98.16C836.863 98.8213 836.452 99.3227 835.919 99.664C835.396 99.9947 834.777 100.16 834.063 100.16C833.625 100.16 833.236 100.101 832.895 99.984C832.553 99.8667 832.26 99.7173 832.015 99.536C831.78 99.344 831.577 99.136 831.407 98.912H831.311C831.332 99.0933 831.353 99.3227 831.375 99.6C831.396 99.8773 831.407 100.117 831.407 100.32V103.84H829.999V91.424H831.151L831.343 92.592H831.407C831.577 92.3467 831.78 92.1227 832.015 91.92C832.26 91.7173 832.548 91.5573 832.879 91.44C833.22 91.3227 833.62 91.264 834.079 91.264ZM833.823 92.448C833.247 92.448 832.783 92.56 832.431 92.784C832.079 92.9973 831.823 93.3227 831.663 93.76C831.503 94.1973 831.417 94.752 831.407 95.424V95.696C831.407 96.4 831.481 96.9973 831.631 97.488C831.78 97.9787 832.031 98.352 832.383 98.608C832.745 98.864 833.236 98.992 833.855 98.992C834.377 98.992 834.804 98.848 835.135 98.56C835.476 98.272 835.727 97.8827 835.887 97.392C836.057 96.8907 836.143 96.32 836.143 95.68C836.143 94.6987 835.951 93.9147 835.567 93.328C835.193 92.7413 834.612 92.448 833.823 92.448ZM843.282 100.16C842.525 100.16 841.848 100.005 841.25 99.696C840.664 99.3867 840.2 98.9067 839.858 98.256C839.528 97.6053 839.362 96.7733 839.362 95.76C839.362 94.704 839.538 93.8453 839.89 93.184C840.242 92.5227 840.717 92.0373 841.314 91.728C841.922 91.4187 842.61 91.264 843.378 91.264C843.816 91.264 844.237 91.312 844.642 91.408C845.048 91.4933 845.378 91.6 845.634 91.728L845.202 92.896C844.946 92.8 844.648 92.7093 844.306 92.624C843.965 92.5387 843.645 92.496 843.346 92.496C842.77 92.496 842.296 92.6187 841.922 92.864C841.549 93.1093 841.272 93.472 841.09 93.952C840.909 94.432 840.818 95.0293 840.818 95.744C840.818 96.4267 840.909 97.008 841.09 97.488C841.272 97.968 841.544 98.3307 841.906 98.576C842.269 98.8213 842.722 98.944 843.266 98.944C843.736 98.944 844.146 98.896 844.498 98.8C844.861 98.704 845.192 98.5867 845.49 98.448V99.696C845.202 99.8453 844.882 99.9573 844.53 100.032C844.189 100.117 843.773 100.16 843.282 100.16ZM853.45 92.608H850.65V100H849.258V92.608H846.49V91.424H853.45V92.608ZM862.035 93.584C862.035 94.1173 861.875 94.5333 861.555 94.832C861.235 95.1307 860.825 95.3333 860.323 95.44V95.504C860.857 95.5787 861.321 95.7707 861.715 96.08C862.11 96.3787 862.307 96.848 862.307 97.488C862.307 97.8507 862.238 98.1867 862.099 98.496C861.971 98.8053 861.769 99.072 861.491 99.296C861.214 99.52 860.857 99.696 860.419 99.824C859.982 99.9413 859.454 100 858.835 100H855.139V91.424H858.819C859.427 91.424 859.971 91.4933 860.451 91.632C860.942 91.76 861.326 91.984 861.603 92.304C861.891 92.6133 862.035 93.04 862.035 93.584ZM860.851 97.488C860.851 96.9973 860.665 96.6453 860.291 96.432C859.918 96.2187 859.369 96.112 858.643 96.112H856.547V98.864H858.675C859.379 98.864 859.918 98.7627 860.291 98.56C860.665 98.3467 860.851 97.9893 860.851 97.488ZM860.611 93.76C860.611 93.3547 860.462 93.0613 860.163 92.88C859.875 92.688 859.401 92.592 858.739 92.592H856.547V94.944H858.483C859.177 94.944 859.705 94.848 860.067 94.656C860.43 94.464 860.611 94.1653 860.611 93.76ZM867.606 91.28C868.651 91.28 869.425 91.5093 869.926 91.968C870.427 92.4267 870.678 93.1573 870.678 94.16V100H869.654L869.382 98.784H869.318C869.073 99.0933 868.817 99.3547 868.55 99.568C868.294 99.7707 867.995 99.92 867.654 100.016C867.323 100.112 866.918 100.16 866.438 100.16C865.926 100.16 865.462 100.069 865.046 99.888C864.641 99.7067 864.321 99.4293 864.086 99.056C863.851 98.672 863.734 98.192 863.734 97.616C863.734 96.7627 864.07 96.1067 864.742 95.648C865.414 95.1787 866.449 94.9227 867.846 94.88L869.302 94.832V94.32C869.302 93.6053 869.147 93.1093 868.838 92.832C868.529 92.5547 868.091 92.416 867.526 92.416C867.078 92.416 866.651 92.4853 866.246 92.624C865.841 92.752 865.462 92.9013 865.11 93.072L864.678 92.016C865.051 91.8133 865.494 91.6427 866.006 91.504C866.518 91.3547 867.051 91.28 867.606 91.28ZM868.022 95.856C866.955 95.8987 866.214 96.0693 865.798 96.368C865.393 96.6667 865.19 97.088 865.19 97.632C865.19 98.112 865.334 98.464 865.622 98.688C865.921 98.912 866.299 99.024 866.758 99.024C867.483 99.024 868.086 98.8267 868.566 98.432C869.046 98.0267 869.286 97.408 869.286 96.576V95.808L868.022 95.856Z" fill="#A1A1A1"/>
<rect x="255.05" y="76" width="128" height="37" rx="7" stroke="#0029CC" stroke-width="2"/>
<path d="M278.626 88.576C280.119 88.576 281.207 88.8693 281.89 89.456C282.572 90.0427 282.914 90.8693 282.914 91.936C282.914 92.4053 282.834 92.8587 282.674 93.296C282.524 93.7227 282.274 94.1067 281.922 94.448C281.57 94.7893 281.1 95.0613 280.514 95.264C279.927 95.456 279.207 95.552 278.354 95.552H277.042V100H275.602V88.576H278.626ZM278.498 89.808H277.042V94.32H278.194C278.919 94.32 279.522 94.2453 280.002 94.096C280.482 93.936 280.839 93.6853 281.074 93.344C281.308 93.0027 281.426 92.5547 281.426 92C281.426 91.264 281.191 90.7147 280.722 90.352C280.252 89.9893 279.511 89.808 278.498 89.808ZM288.345 91.28C289.391 91.28 290.164 91.5093 290.665 91.968C291.167 92.4267 291.417 93.1573 291.417 94.16V100H290.393L290.121 98.784H290.057C289.812 99.0933 289.556 99.3547 289.289 99.568C289.033 99.7707 288.735 99.92 288.393 100.016C288.063 100.112 287.657 100.16 287.177 100.16C286.665 100.16 286.201 100.069 285.785 99.888C285.38 99.7067 285.06 99.4293 284.825 99.056C284.591 98.672 284.473 98.192 284.473 97.616C284.473 96.7627 284.809 96.1067 285.481 95.648C286.153 95.1787 287.188 94.9227 288.585 94.88L290.041 94.832V94.32C290.041 93.6053 289.887 93.1093 289.577 92.832C289.268 92.5547 288.831 92.416 288.265 92.416C287.817 92.416 287.391 92.4853 286.985 92.624C286.58 92.752 286.201 92.9013 285.849 93.072L285.417 92.016C285.791 91.8133 286.233 91.6427 286.745 91.504C287.257 91.3547 287.791 91.28 288.345 91.28ZM288.761 95.856C287.695 95.8987 286.953 96.0693 286.537 96.368C286.132 96.6667 285.929 97.088 285.929 97.632C285.929 98.112 286.073 98.464 286.361 98.688C286.66 98.912 287.039 99.024 287.497 99.024C288.223 99.024 288.825 98.8267 289.305 98.432C289.785 98.0267 290.025 97.408 290.025 96.576V95.808L288.761 95.856ZM296.322 91.264C296.973 91.264 297.538 91.3547 298.018 91.536C298.498 91.7067 298.871 91.9627 299.138 92.304C299.405 92.6347 299.538 93.04 299.538 93.52C299.538 94.0427 299.394 94.4587 299.106 94.768C298.818 95.0667 298.423 95.2853 297.922 95.424V95.488C298.263 95.584 298.578 95.7173 298.866 95.888C299.154 96.0587 299.383 96.2827 299.554 96.56C299.735 96.8373 299.826 97.1947 299.826 97.632C299.826 98.1013 299.693 98.528 299.426 98.912C299.17 99.296 298.77 99.6 298.226 99.824C297.693 100.048 297.005 100.16 296.162 100.16C295.757 100.16 295.367 100.139 294.994 100.096C294.631 100.053 294.301 99.9893 294.002 99.904C293.714 99.8187 293.458 99.7173 293.234 99.6V98.336C293.597 98.5067 294.023 98.6613 294.514 98.8C295.015 98.9387 295.559 99.008 296.146 99.008C296.573 99.008 296.957 98.96 297.298 98.864C297.65 98.768 297.927 98.6187 298.13 98.416C298.333 98.2027 298.434 97.9147 298.434 97.552C298.434 97.2213 298.343 96.9547 298.162 96.752C297.981 96.5387 297.709 96.3787 297.346 96.272C296.994 96.1653 296.541 96.112 295.986 96.112H294.834V94.96H295.762C296.498 94.96 297.085 94.864 297.522 94.672C297.97 94.4693 298.194 94.128 298.194 93.648C298.194 93.2427 298.023 92.9387 297.682 92.736C297.351 92.5333 296.871 92.432 296.242 92.432C295.773 92.432 295.357 92.48 294.994 92.576C294.642 92.6613 294.253 92.7947 293.826 92.976L293.33 91.856C293.789 91.6533 294.269 91.504 294.77 91.408C295.271 91.312 295.789 91.264 296.322 91.264ZM305.99 91.264C307.046 91.264 307.894 91.632 308.534 92.368C309.184 93.104 309.51 94.2133 309.51 95.696C309.51 96.6667 309.36 97.488 309.062 98.16C308.774 98.8213 308.363 99.3227 307.83 99.664C307.307 99.9947 306.688 100.16 305.974 100.16C305.536 100.16 305.147 100.101 304.806 99.984C304.464 99.8667 304.171 99.7173 303.926 99.536C303.691 99.344 303.488 99.136 303.318 98.912H303.222C303.243 99.0933 303.264 99.3227 303.286 99.6C303.307 99.8773 303.318 100.117 303.318 100.32V103.84H301.91V91.424H303.062L303.254 92.592H303.318C303.488 92.3467 303.691 92.1227 303.926 91.92C304.171 91.7173 304.459 91.5573 304.79 91.44C305.131 91.3227 305.531 91.264 305.99 91.264ZM305.734 92.448C305.158 92.448 304.694 92.56 304.342 92.784C303.99 92.9973 303.734 93.3227 303.574 93.76C303.414 94.1973 303.328 94.752 303.318 95.424V95.696C303.318 96.4 303.392 96.9973 303.542 97.488C303.691 97.9787 303.942 98.352 304.294 98.608C304.656 98.864 305.147 98.992 305.766 98.992C306.288 98.992 306.715 98.848 307.046 98.56C307.387 98.272 307.638 97.8827 307.798 97.392C307.968 96.8907 308.054 96.32 308.054 95.68C308.054 94.6987 307.862 93.9147 307.478 93.328C307.104 92.7413 306.523 92.448 305.734 92.448ZM315.002 91.28C316.047 91.28 316.82 91.5093 317.322 91.968C317.823 92.4267 318.074 93.1573 318.074 94.16V100H317.05L316.778 98.784H316.714C316.468 99.0933 316.212 99.3547 315.946 99.568C315.69 99.7707 315.391 99.92 315.05 100.016C314.719 100.112 314.314 100.16 313.834 100.16C313.322 100.16 312.858 100.069 312.442 99.888C312.036 99.7067 311.716 99.4293 311.482 99.056C311.247 98.672 311.13 98.192 311.13 97.616C311.13 96.7627 311.466 96.1067 312.138 95.648C312.81 95.1787 313.844 94.9227 315.242 94.88L316.698 94.832V94.32C316.698 93.6053 316.543 93.1093 316.234 92.832C315.924 92.5547 315.487 92.416 314.922 92.416C314.474 92.416 314.047 92.4853 313.642 92.624C313.236 92.752 312.858 92.9013 312.506 93.072L312.074 92.016C312.447 91.8133 312.89 91.6427 313.402 91.504C313.914 91.3547 314.447 91.28 315.002 91.28ZM315.418 95.856C314.351 95.8987 313.61 96.0693 313.194 96.368C312.788 96.6667 312.586 97.088 312.586 97.632C312.586 98.112 312.73 98.464 313.018 98.688C313.316 98.912 313.695 99.024 314.154 99.024C314.879 99.024 315.482 98.8267 315.962 98.432C316.442 98.0267 316.682 97.408 316.682 96.576V95.808L315.418 95.856ZM320.274 94.848C320.274 93.6 320.397 92.5387 320.642 91.664C320.898 90.7787 321.288 90.0747 321.81 89.552C322.344 89.0187 323.026 88.6613 323.858 88.48C324.552 88.3307 325.229 88.1973 325.89 88.08C326.552 87.9627 327.17 87.856 327.746 87.76L327.986 88.992C327.709 89.0347 327.4 89.088 327.058 89.152C326.717 89.2053 326.37 89.264 326.018 89.328C325.666 89.3813 325.325 89.44 324.994 89.504C324.674 89.5573 324.392 89.6107 324.146 89.664C323.794 89.7387 323.48 89.8667 323.202 90.048C322.925 90.2187 322.685 90.4533 322.482 90.752C322.29 91.0507 322.136 91.4187 322.018 91.856C321.901 92.2933 321.832 92.8107 321.81 93.408H321.906C322.056 93.2053 322.258 92.9973 322.514 92.784C322.781 92.5707 323.096 92.3893 323.458 92.24C323.832 92.0907 324.253 92.016 324.722 92.016C325.469 92.016 326.088 92.1813 326.578 92.512C327.08 92.832 327.453 93.28 327.698 93.856C327.954 94.432 328.082 95.104 328.082 95.872C328.082 96.8213 327.917 97.616 327.586 98.256C327.256 98.896 326.797 99.376 326.21 99.696C325.624 100.005 324.941 100.16 324.162 100.16C323.576 100.16 323.042 100.048 322.562 99.824C322.082 99.5893 321.672 99.248 321.33 98.8C320.989 98.352 320.728 97.7973 320.546 97.136C320.365 96.4747 320.274 95.712 320.274 94.848ZM324.274 98.992C324.744 98.992 325.149 98.896 325.49 98.704C325.842 98.512 326.114 98.1973 326.306 97.76C326.498 97.3227 326.594 96.7413 326.594 96.016C326.594 95.1413 326.429 94.4533 326.098 93.952C325.778 93.44 325.245 93.184 324.498 93.184C324.029 93.184 323.602 93.2907 323.218 93.504C322.834 93.7067 322.514 93.9413 322.258 94.208C322.002 94.4747 321.821 94.6987 321.714 94.88C321.714 95.4027 321.752 95.9093 321.826 96.4C321.901 96.8907 322.029 97.3333 322.21 97.728C322.402 98.112 322.664 98.4213 322.994 98.656C323.336 98.88 323.762 98.992 324.274 98.992ZM337.756 95.696C337.756 96.4107 337.66 97.0453 337.468 97.6C337.287 98.144 337.02 98.608 336.668 98.992C336.327 99.376 335.906 99.6693 335.404 99.872C334.914 100.064 334.364 100.16 333.756 100.16C333.191 100.16 332.668 100.064 332.188 99.872C331.708 99.6693 331.292 99.376 330.94 98.992C330.588 98.608 330.311 98.144 330.108 97.6C329.916 97.0453 329.82 96.4107 329.82 95.696C329.82 94.7467 329.98 93.9467 330.3 93.296C330.62 92.6347 331.079 92.1333 331.676 91.792C332.274 91.44 332.983 91.264 333.804 91.264C334.583 91.264 335.266 91.44 335.852 91.792C336.45 92.1333 336.914 92.6347 337.244 93.296C337.586 93.9467 337.756 94.7467 337.756 95.696ZM331.276 95.696C331.276 96.368 331.362 96.9547 331.532 97.456C331.714 97.9467 331.991 98.3253 332.364 98.592C332.738 98.8587 333.212 98.992 333.788 98.992C334.364 98.992 334.839 98.8587 335.212 98.592C335.586 98.3253 335.858 97.9467 336.028 97.456C336.21 96.9547 336.3 96.368 336.3 95.696C336.3 95.0133 336.21 94.432 336.028 93.952C335.847 93.472 335.57 93.104 335.196 92.848C334.834 92.5813 334.359 92.448 333.772 92.448C332.898 92.448 332.263 92.736 331.868 93.312C331.474 93.888 331.276 94.6827 331.276 95.696ZM345.752 92.608H342.952V100H341.56V92.608H338.792V91.424H345.752V92.608ZM352.513 91.424H354.049L350.385 95.552L354.353 100H352.721L348.849 95.648V100H347.441V91.424H348.849V95.584L352.513 91.424ZM359.158 91.28C360.203 91.28 360.976 91.5093 361.478 91.968C361.979 92.4267 362.23 93.1573 362.23 94.16V100H361.206L360.934 98.784H360.87C360.624 99.0933 360.368 99.3547 360.102 99.568C359.846 99.7707 359.547 99.92 359.206 100.016C358.875 100.112 358.47 100.16 357.99 100.16C357.478 100.16 357.014 100.069 356.598 99.888C356.192 99.7067 355.872 99.4293 355.638 99.056C355.403 98.672 355.286 98.192 355.286 97.616C355.286 96.7627 355.622 96.1067 356.294 95.648C356.966 95.1787 358 94.9227 359.398 94.88L360.854 94.832V94.32C360.854 93.6053 360.699 93.1093 360.39 92.832C360.08 92.5547 359.643 92.416 359.078 92.416C358.63 92.416 358.203 92.4853 357.798 92.624C357.392 92.752 357.014 92.9013 356.662 93.072L356.23 92.016C356.603 91.8133 357.046 91.6427 357.558 91.504C358.07 91.3547 358.603 91.28 359.158 91.28ZM359.574 95.856C358.507 95.8987 357.766 96.0693 357.35 96.368C356.944 96.6667 356.742 97.088 356.742 97.632C356.742 98.112 356.886 98.464 357.174 98.688C357.472 98.912 357.851 99.024 358.31 99.024C359.035 99.024 359.638 98.8267 360.118 98.432C360.598 98.0267 360.838 97.408 360.838 96.576V95.808L359.574 95.856Z" fill="#0A0A0A"/>
<rect x="99.1259" y="164.421" width="689.313" height="64.8874" rx="12.725" stroke="#1F1F1F" stroke-width="0.841565"/>
<path fill-rule="evenodd" clip-rule="evenodd" d="M142.028 181.131C141.914 181.131 141.804 181.177 141.723 181.258C141.641 181.339 141.596 181.449 141.596 181.564V212.714C141.596 212.952 141.79 213.146 142.028 213.146H164.526C164.64 213.146 164.75 213.101 164.832 213.019C164.913 212.938 164.958 212.828 164.958 212.714V181.564C164.958 181.449 164.913 181.339 164.832 181.258C164.75 181.177 164.64 181.131 164.526 181.131H142.028ZM139 181.564C139 179.89 140.355 178.535 142.028 178.535H164.526C166.199 178.535 167.554 179.89 167.554 181.564V212.714C167.554 213.517 167.235 214.287 166.667 214.855C166.099 215.423 165.329 215.742 164.526 215.742H142.028C141.225 215.742 140.455 215.423 139.887 214.855C139.319 214.287 139 213.517 139 212.714V181.564Z" fill="#EDEDED" stroke="black"/>
<path d="M160.2 186.754C160.659 186.754 161.099 186.572 161.424 186.247C161.748 185.923 161.931 185.482 161.931 185.024C161.931 184.565 161.748 184.124 161.424 183.8C161.099 183.475 160.659 183.293 160.2 183.293C159.741 183.293 159.301 183.475 158.976 183.8C158.652 184.124 158.469 184.565 158.469 185.024C158.469 185.482 158.652 185.923 158.976 186.247C159.301 186.572 159.741 186.754 160.2 186.754ZM146.356 186.754C146.815 186.754 147.255 186.572 147.579 186.247C147.904 185.923 148.086 185.482 148.086 185.024C148.086 184.565 147.904 184.124 147.579 183.8C147.255 183.475 146.815 183.293 146.356 183.293C145.897 183.293 145.456 183.475 145.132 183.8C144.807 184.124 144.625 184.565 144.625 185.024C144.625 185.482 144.807 185.923 145.132 186.247C145.456 186.572 145.897 186.754 146.356 186.754ZM160.2 210.982C160.659 210.982 161.099 210.799 161.424 210.475C161.748 210.15 161.931 209.71 161.931 209.251C161.931 208.792 161.748 208.352 161.424 208.028C161.099 207.703 160.659 207.521 160.2 207.521C159.741 207.521 159.301 207.703 158.976 208.028C158.652 208.352 158.469 208.792 158.469 209.251C158.469 209.71 158.652 210.15 158.976 210.475C159.301 210.799 159.741 210.982 160.2 210.982ZM146.356 210.982C146.815 210.982 147.255 210.799 147.579 210.475C147.904 210.15 148.086 209.71 148.086 209.251C148.086 208.792 147.904 208.352 147.579 208.028C147.255 207.703 146.815 207.521 146.356 207.521C145.897 207.521 145.456 207.703 145.132 208.028C144.807 208.352 144.625 208.792 144.625 209.251C144.625 209.71 144.807 210.15 145.132 210.475C145.456 210.799 145.897 210.982 146.356 210.982Z" fill="#EDEDED" stroke="black"/>
<path fill-rule="evenodd" clip-rule="evenodd" d="M145.057 195.408C145.057 193.782 145.539 192.193 146.442 190.841C147.345 189.489 148.629 188.435 150.131 187.813C151.633 187.191 153.286 187.028 154.88 187.345C156.475 187.663 157.94 188.446 159.089 189.595C160.239 190.745 161.022 192.209 161.339 193.804C161.656 195.399 161.493 197.051 160.871 198.553C160.249 200.055 159.195 201.339 157.844 202.242C156.492 203.146 154.903 203.628 153.277 203.628C152.933 203.628 152.602 203.491 152.359 203.248C152.116 203.004 151.979 202.674 151.979 202.33C151.979 201.986 152.116 201.655 152.359 201.412C152.602 201.169 152.933 201.032 153.277 201.032C154.389 201.032 155.477 200.702 156.401 200.084C157.326 199.466 158.047 198.588 158.473 197.56C158.899 196.532 159.01 195.401 158.793 194.31C158.576 193.219 158.04 192.217 157.254 191.431C156.467 190.644 155.465 190.108 154.374 189.891C153.283 189.674 152.152 189.786 151.124 190.211C150.097 190.637 149.218 191.358 148.6 192.283C147.982 193.208 147.652 194.295 147.652 195.408C147.652 195.752 147.516 196.082 147.272 196.325C147.029 196.569 146.699 196.706 146.355 196.706C146.01 196.706 145.68 196.569 145.437 196.325C145.193 196.082 145.057 195.752 145.057 195.408Z" fill="#EDEDED" stroke="black"/>
<path fill-rule="evenodd" clip-rule="evenodd" d="M154.193 194.489C154.436 194.732 154.572 195.062 154.572 195.406C154.572 195.75 154.436 196.08 154.193 196.323L149.001 201.515C148.755 201.744 148.43 201.869 148.093 201.863C147.757 201.857 147.436 201.721 147.199 201.483C146.961 201.245 146.824 200.925 146.819 200.588C146.813 200.252 146.937 199.927 147.167 199.681L152.358 194.489C152.602 194.246 152.932 194.109 153.276 194.109C153.62 194.109 153.949 194.246 154.193 194.489Z" fill="#EDEDED" stroke="black"/>
<g clip-path="url(#clip0_1076_113)">
<mask id="mask0_1076_113" style="mask-type:luminance" maskUnits="userSpaceOnUse" x="183" y="178" width="38" height="39">
<path d="M183.983 179.06V215.211H220.135V179.06H183.983Z" fill="white" stroke="white" stroke-width="1.68313"/>
</mask>
<g mask="url(#mask0_1076_113)">
<path fill-rule="evenodd" clip-rule="evenodd" d="M198.67 210.13C198.67 212.938 200.946 215.214 203.754 215.214H215.051C217.859 215.214 220.135 212.938 220.135 210.13V184.146C220.135 181.339 217.859 179.062 215.051 179.062L203.754 179.063C200.946 179.063 198.67 181.339 198.67 184.146V210.13ZM203.754 211.825C202.818 211.825 202.059 211.066 202.059 210.13V184.146C202.059 183.21 202.818 182.452 203.754 182.452H215.051C215.987 182.452 216.746 183.21 216.746 184.146V210.13C216.746 211.066 215.987 211.825 215.051 211.825H203.754Z" fill="#00B6CC"/>
<path d="M190.763 211.825H189.068C188.132 211.825 187.374 211.066 187.374 210.13V207.306H183.984V210.13C183.984 212.938 186.26 215.214 189.068 215.214H190.763V211.825Z" fill="#00B6CC"/>
<path d="M197.541 211.825H193.022V215.214H197.541V211.825Z" fill="#00B6CC"/>
<path d="M193.022 179.062H197.541V182.452H193.022V179.062Z" fill="#00B6CC"/>
<path d="M187.374 186.971V184.146C187.374 183.211 188.132 182.452 189.068 182.452H190.763V179.063L189.068 179.063C186.261 179.063 183.984 181.339 183.984 184.146L183.984 186.971H187.374Z" fill="#00B6CC"/>
<path d="M187.374 198.268V205.046H183.984L183.984 198.268H187.374Z" fill="#00B6CC"/>
<path d="M187.374 196.008V189.23H183.984L183.984 196.008H187.374Z" fill="#00B6CC"/>
</g>
</g>
<line x1="253.629" y1="179.088" x2="253.423" y2="215.195" stroke="#888888" stroke-width="0.841565"/>
<path d="M322.039 196.657C321.957 196.566 320.003 194.399 316.829 192.206C311.997 188.868 307.389 187.647 303.886 187.744C298.855 187.824 294.366 190.203 291.467 192.206C288.293 194.399 286.338 196.566 286.257 196.657C286.138 196.789 286.072 196.961 286.072 197.139C286.072 197.317 286.138 197.489 286.257 197.621C286.338 197.713 288.293 199.879 291.467 202.072C295.203 204.653 299.644 206.538 304.148 206.538C308.653 206.538 313.093 204.653 316.829 202.072C320.003 199.879 321.958 197.713 322.039 197.621C322.158 197.489 322.224 197.317 322.224 197.139C322.224 196.961 322.158 196.789 322.039 196.657ZM312.101 197.139C312.101 201.449 308.654 204.97 304.372 205.089C304.071 205.094 304.225 205.094 303.924 205.089C299.642 204.97 296.195 201.45 296.195 197.139C296.195 192.757 299.76 189.186 304.148 189.186C308.53 189.186 312.101 192.75 312.101 197.139ZM287.796 197.139C290.36 194.553 293.819 192.054 297.403 190.6C293.861 194.252 293.866 200.03 297.403 203.678C293.858 202.239 290.404 199.767 287.796 197.139ZM310.893 203.678C314.435 200.026 314.43 194.248 310.893 190.6C314.438 192.039 317.891 194.511 320.5 197.139C317.936 199.725 314.476 202.224 310.893 203.678Z" fill="#888888"/>
<g filter="url(#filter4_f_1076_113)">
<path d="M304.15 192.023C306.972 192.024 309.266 194.317 309.266 197.139C309.266 199.96 306.972 202.254 304.15 202.254C301.329 202.254 299.035 199.96 299.035 197.139C299.035 194.317 301.329 192.023 304.15 192.023ZM304.15 196.47C303.783 196.47 303.481 196.771 303.481 197.139C303.482 197.506 303.783 197.808 304.15 197.808C304.518 197.808 304.819 197.506 304.819 197.139C304.819 196.771 304.518 196.47 304.15 196.47Z" stroke="#00D5FF" stroke-opacity="0.88" stroke-width="3"/>
</g>
<g filter="url(#filter5_f_1076_113)">
<path d="M300.535 197.139C300.535 199.132 302.157 200.754 304.15 200.754C306.144 200.754 307.765 199.132 307.765 197.139C307.765 195.145 306.144 193.523 304.15 193.523C302.157 193.523 300.535 195.145 300.535 197.139ZM306.319 197.139C306.319 198.335 305.346 199.308 304.15 199.308C302.954 199.308 301.981 198.335 301.981 197.139C301.981 195.943 302.954 194.969 304.15 194.969C305.346 194.969 306.319 195.943 306.319 197.139Z" fill="#888888"/>
<path d="M304.15 192.023C306.972 192.024 309.266 194.317 309.266 197.139C309.266 199.96 306.972 202.254 304.15 202.254C301.329 202.254 299.035 199.96 299.035 197.139C299.035 194.317 301.329 192.023 304.15 192.023ZM304.15 196.47C303.783 196.47 303.481 196.771 303.481 197.139C303.482 197.506 303.783 197.808 304.15 197.808C304.518 197.808 304.819 197.506 304.819 197.139C304.819 196.771 304.518 196.47 304.15 196.47Z" stroke="#09FF15" stroke-width="3"/>
</g>
<path d="M300.535 197.139C300.535 199.132 302.157 200.754 304.15 200.754C306.144 200.754 307.765 199.132 307.765 197.139C307.765 195.145 306.144 193.523 304.15 193.523C302.157 193.523 300.535 195.145 300.535 197.139ZM306.319 197.139C306.319 198.335 305.346 199.308 304.15 199.308C302.954 199.308 301.981 198.335 301.981 197.139C301.981 195.943 302.954 194.969 304.15 194.969C305.346 194.969 306.319 195.943 306.319 197.139Z" fill="#F8F2F2"/>
<mask id="path-27-inside-1_1076_113" fill="white">
<path d="M341.947 193.827V197.973H347.741C348.177 197.973 348.596 198.147 348.904 198.455C349.213 198.764 349.386 199.182 349.386 199.619C349.386 200.055 349.213 200.474 348.904 200.782C348.596 201.091 348.177 201.264 347.741 201.264H341.947V205.412H350.222C350.658 205.412 351.077 205.586 351.385 205.894C351.694 206.203 351.867 206.621 351.867 207.058C351.867 207.494 351.694 207.913 351.385 208.221C351.077 208.53 350.658 208.703 350.222 208.703H340.302C339.865 208.703 339.447 208.53 339.138 208.221C338.83 207.913 338.656 207.494 338.656 207.058V192.182C338.656 191.745 338.83 191.327 339.138 191.018C339.447 190.71 339.865 190.537 340.302 190.537H350.222C350.658 190.537 351.077 190.71 351.385 191.018C351.694 191.327 351.867 191.745 351.867 192.182C351.867 192.618 351.694 193.037 351.385 193.345C351.077 193.654 350.658 193.827 350.222 193.827H341.947ZM360.14 195.494H355.182C354.746 195.494 354.327 195.668 354.019 195.976C353.71 196.285 353.537 196.703 353.537 197.14C353.537 197.576 353.71 197.995 354.019 198.303C354.327 198.612 354.746 198.785 355.182 198.785H360.14C360.576 198.785 360.995 198.612 361.303 198.303C361.612 197.995 361.785 197.576 361.785 197.14C361.785 196.703 361.612 196.285 361.303 195.976C360.995 195.668 360.576 195.494 360.14 195.494ZM360.14 200.452H355.182C354.746 200.452 354.327 200.626 354.019 200.934C353.71 201.243 353.537 201.661 353.537 202.098C353.537 202.534 353.71 202.953 354.019 203.261C354.327 203.57 354.746 203.743 355.182 203.743H360.14C360.576 203.743 360.995 203.57 361.303 203.261C361.612 202.953 361.785 202.534 361.785 202.098C361.785 201.661 361.612 201.243 361.303 200.934C360.995 200.626 360.576 200.452 360.14 200.452ZM375.496 190.605C375.159 190.503 374.797 190.513 374.466 190.632C374.134 190.751 373.849 190.974 373.653 191.267L370.06 196.653L366.469 191.267C366.273 190.973 365.988 190.75 365.655 190.631C365.323 190.512 364.961 190.503 364.623 190.605C364.285 190.707 363.989 190.916 363.779 191.199C363.568 191.483 363.455 191.827 363.455 192.18V207.058C363.455 207.494 363.628 207.913 363.937 208.221C364.245 208.53 364.664 208.703 365.1 208.703C365.536 208.703 365.955 208.53 366.263 208.221C366.572 207.913 366.745 207.494 366.745 207.058V197.614L368.691 200.531C369.303 201.451 370.819 201.451 371.429 200.531L373.375 197.614V207.058C373.375 207.494 373.548 207.913 373.857 208.221C374.165 208.53 374.584 208.703 375.02 208.703C375.457 208.703 375.875 208.53 376.184 208.221C376.492 207.913 376.666 207.494 376.666 207.058V192.182C376.666 191.829 376.552 191.485 376.341 191.201C376.131 190.917 375.834 190.709 375.496 190.607V190.605ZM383.701 190.534C382.278 190.535 380.914 191.101 379.908 192.107C378.902 193.113 378.336 194.478 378.335 195.9V203.339C378.337 204.762 378.903 206.125 379.909 207.131C380.915 208.137 382.279 208.702 383.701 208.703C385.123 208.701 386.486 208.136 387.492 207.13C388.497 206.125 389.063 204.761 389.065 203.339V202.1C389.065 201.664 388.891 201.245 388.583 200.936C388.274 200.628 387.856 200.455 387.419 200.455C386.983 200.455 386.565 200.628 386.256 200.936C385.947 201.245 385.774 201.664 385.774 202.1V203.339C385.757 203.878 385.53 204.388 385.143 204.763C384.756 205.138 384.239 205.347 383.7 205.347C383.161 205.347 382.644 205.138 382.256 204.763C381.869 204.388 381.643 203.878 381.626 203.339V195.9C381.643 195.362 381.869 194.851 382.256 194.477C382.644 194.102 383.161 193.892 383.7 193.892C384.239 193.892 384.756 194.102 385.143 194.477C385.53 194.851 385.757 195.362 385.774 195.9V197.14C385.774 197.576 385.947 197.995 386.256 198.303C386.565 198.612 386.983 198.785 387.419 198.785C387.856 198.785 388.274 198.612 388.583 198.303C388.891 197.995 389.065 197.576 389.065 197.14V195.9C389.064 194.478 388.498 193.114 387.493 192.108C386.487 191.102 385.123 190.536 383.701 190.534ZM397.34 197.976H395.453L397.333 195.157C398.415 193.533 398.985 191.647 398.985 189.699C398.985 187.426 397.133 185.574 394.861 185.574C392.588 185.574 390.736 187.426 390.736 189.699C390.736 190.135 390.91 190.553 391.218 190.862C391.527 191.17 391.945 191.344 392.382 191.344C392.818 191.344 393.237 191.17 393.545 190.862C393.854 190.553 394.027 190.135 394.027 189.699C394.027 189.477 394.115 189.265 394.271 189.109C394.428 188.953 394.64 188.865 394.861 188.865C395.082 188.865 395.294 188.953 395.45 189.109C395.606 189.265 395.694 189.477 395.694 189.699C395.694 190.995 395.315 192.25 394.595 193.331L391.011 198.706C390.844 198.954 390.748 199.242 390.733 199.54C390.718 199.838 390.784 200.135 390.925 200.398C391.066 200.661 391.276 200.881 391.532 201.034C391.788 201.187 392.081 201.267 392.38 201.266H397.34C397.776 201.266 398.195 201.093 398.503 200.784C398.812 200.476 398.985 200.057 398.985 199.621C398.985 199.185 398.812 198.766 398.503 198.458C398.195 198.149 397.776 197.976 397.34 197.976Z"/>
</mask>
<path d="M341.947 193.827V197.973H347.741C348.177 197.973 348.596 198.147 348.904 198.455C349.213 198.764 349.386 199.182 349.386 199.619C349.386 200.055 349.213 200.474 348.904 200.782C348.596 201.091 348.177 201.264 347.741 201.264H341.947V205.412H350.222C350.658 205.412 351.077 205.586 351.385 205.894C351.694 206.203 351.867 206.621 351.867 207.058C351.867 207.494 351.694 207.913 351.385 208.221C351.077 208.53 350.658 208.703 350.222 208.703H340.302C339.865 208.703 339.447 208.53 339.138 208.221C338.83 207.913 338.656 207.494 338.656 207.058V192.182C338.656 191.745 338.83 191.327 339.138 191.018C339.447 190.71 339.865 190.537 340.302 190.537H350.222C350.658 190.537 351.077 190.71 351.385 191.018C351.694 191.327 351.867 191.745 351.867 192.182C351.867 192.618 351.694 193.037 351.385 193.345C351.077 193.654 350.658 193.827 350.222 193.827H341.947ZM360.14 195.494H355.182C354.746 195.494 354.327 195.668 354.019 195.976C353.71 196.285 353.537 196.703 353.537 197.14C353.537 197.576 353.71 197.995 354.019 198.303C354.327 198.612 354.746 198.785 355.182 198.785H360.14C360.576 198.785 360.995 198.612 361.303 198.303C361.612 197.995 361.785 197.576 361.785 197.14C361.785 196.703 361.612 196.285 361.303 195.976C360.995 195.668 360.576 195.494 360.14 195.494ZM360.14 200.452H355.182C354.746 200.452 354.327 200.626 354.019 200.934C353.71 201.243 353.537 201.661 353.537 202.098C353.537 202.534 353.71 202.953 354.019 203.261C354.327 203.57 354.746 203.743 355.182 203.743H360.14C360.576 203.743 360.995 203.57 361.303 203.261C361.612 202.953 361.785 202.534 361.785 202.098C361.785 201.661 361.612 201.243 361.303 200.934C360.995 200.626 360.576 200.452 360.14 200.452ZM375.496 190.605C375.159 190.503 374.797 190.513 374.466 190.632C374.134 190.751 373.849 190.974 373.653 191.267L370.06 196.653L366.469 191.267C366.273 190.973 365.988 190.75 365.655 190.631C365.323 190.512 364.961 190.503 364.623 190.605C364.285 190.707 363.989 190.916 363.779 191.199C363.568 191.483 363.455 191.827 363.455 192.18V207.058C363.455 207.494 363.628 207.913 363.937 208.221C364.245 208.53 364.664 208.703 365.1 208.703C365.536 208.703 365.955 208.53 366.263 208.221C366.572 207.913 366.745 207.494 366.745 207.058V197.614L368.691 200.531C369.303 201.451 370.819 201.451 371.429 200.531L373.375 197.614V207.058C373.375 207.494 373.548 207.913 373.857 208.221C374.165 208.53 374.584 208.703 375.02 208.703C375.457 208.703 375.875 208.53 376.184 208.221C376.492 207.913 376.666 207.494 376.666 207.058V192.182C376.666 191.829 376.552 191.485 376.341 191.201C376.131 190.917 375.834 190.709 375.496 190.607V190.605ZM383.701 190.534C382.278 190.535 380.914 191.101 379.908 192.107C378.902 193.113 378.336 194.478 378.335 195.9V203.339C378.337 204.762 378.903 206.125 379.909 207.131C380.915 208.137 382.279 208.702 383.701 208.703C385.123 208.701 386.486 208.136 387.492 207.13C388.497 206.125 389.063 204.761 389.065 203.339V202.1C389.065 201.664 388.891 201.245 388.583 200.936C388.274 200.628 387.856 200.455 387.419 200.455C386.983 200.455 386.565 200.628 386.256 200.936C385.947 201.245 385.774 201.664 385.774 202.1V203.339C385.757 203.878 385.53 204.388 385.143 204.763C384.756 205.138 384.239 205.347 383.7 205.347C383.161 205.347 382.644 205.138 382.256 204.763C381.869 204.388 381.643 203.878 381.626 203.339V195.9C381.643 195.362 381.869 194.851 382.256 194.477C382.644 194.102 383.161 193.892 383.7 193.892C384.239 193.892 384.756 194.102 385.143 194.477C385.53 194.851 385.757 195.362 385.774 195.9V197.14C385.774 197.576 385.947 197.995 386.256 198.303C386.565 198.612 386.983 198.785 387.419 198.785C387.856 198.785 388.274 198.612 388.583 198.303C388.891 197.995 389.065 197.576 389.065 197.14V195.9C389.064 194.478 388.498 193.114 387.493 192.108C386.487 191.102 385.123 190.536 383.701 190.534ZM397.34 197.976H395.453L397.333 195.157C398.415 193.533 398.985 191.647 398.985 189.699C398.985 187.426 397.133 185.574 394.861 185.574C392.588 185.574 390.736 187.426 390.736 189.699C390.736 190.135 390.91 190.553 391.218 190.862C391.527 191.17 391.945 191.344 392.382 191.344C392.818 191.344 393.237 191.17 393.545 190.862C393.854 190.553 394.027 190.135 394.027 189.699C394.027 189.477 394.115 189.265 394.271 189.109C394.428 188.953 394.64 188.865 394.861 188.865C395.082 188.865 395.294 188.953 395.45 189.109C395.606 189.265 395.694 189.477 395.694 189.699C395.694 190.995 395.315 192.25 394.595 193.331L391.011 198.706C390.844 198.954 390.748 199.242 390.733 199.54C390.718 199.838 390.784 200.135 390.925 200.398C391.066 200.661 391.276 200.881 391.532 201.034C391.788 201.187 392.081 201.267 392.38 201.266H397.34C397.776 201.266 398.195 201.093 398.503 200.784C398.812 200.476 398.985 200.057 398.985 199.621C398.985 199.185 398.812 198.766 398.503 198.458C398.195 198.149 397.776 197.976 397.34 197.976Z" fill="#888888" stroke="#A1A1A1" stroke-width="1.3465" mask="url(#path-27-inside-1_1076_113)"/>
<line x1="432.475" y1="179.088" x2="432.27" y2="215.195" stroke="#888888" stroke-width="0.841565"/>
<path d="M479.106 193.62H490.478L478.163 213.815V200.66H466.793L479.106 180.465V193.62Z" stroke="#FF6600" stroke-width="2.10391"/>
<g filter="url(#filter6_f_1076_113)">
<mask id="path-30-outside-2_1076_113" maskUnits="userSpaceOnUse" x="490.783" y="156.719" width="78" height="67" fill="black">
<rect fill="white" x="490.783" y="156.719" width="78" height="67"/>
<path d="M550.514 212.858L520.576 212.871L523.883 206.986C524.706 205.521 526.255 204.611 527.937 204.607L545.728 204.569L550.514 212.858ZM527.185 192.731C528.042 194.178 528.054 195.975 527.217 197.433L518.354 212.858H508.783L523.741 186.926L527.185 192.731ZM527.94 205.922C526.733 205.924 525.621 206.577 525.029 207.63L522.823 211.556L548.237 211.545L544.971 205.887L527.94 205.922ZM511.06 211.544H517.593L526.077 196.777C526.678 195.731 526.669 194.441 526.054 193.402L523.757 189.529L511.06 211.544ZM544.663 202.619L537.913 202.707C536.232 202.729 534.67 201.844 533.824 200.391L524.874 185.015L529.648 176.719L544.663 202.619ZM526.394 185.01L534.959 199.729C535.566 200.773 536.689 201.408 537.896 201.393L542.398 201.334L529.652 179.347L526.394 185.01Z"/>
</mask>
<path d="M550.514 212.858L550.518 222.858L567.831 222.851L559.174 207.858L550.514 212.858ZM520.576 212.871L511.858 207.972L503.483 222.878L520.58 222.871L520.576 212.871ZM523.883 206.986L532.601 211.885L532.601 211.884L523.883 206.986ZM527.937 204.607L527.915 194.607L527.914 194.607L527.937 204.607ZM545.728 204.569L554.388 199.569L551.494 194.557L545.706 194.569L545.728 204.569ZM527.185 192.731L535.786 187.63L535.786 187.63L527.185 192.731ZM527.217 197.433L535.887 202.415L535.888 202.414L527.217 197.433ZM518.354 212.858V222.858H524.141L527.024 217.84L518.354 212.858ZM508.783 212.858L500.121 207.862L491.471 222.858H508.783V212.858ZM523.741 186.926L532.342 181.825L523.621 167.12L515.079 181.929L523.741 186.926ZM527.94 205.922L527.92 195.922L527.919 195.922L527.94 205.922ZM525.029 207.63L533.747 212.529L533.747 212.528L525.029 207.63ZM522.823 211.556L514.105 206.657L505.729 221.563L522.827 221.556L522.823 211.556ZM548.237 211.545L548.242 221.545L565.553 221.538L556.898 206.545L548.237 211.545ZM544.971 205.887L553.631 200.887L550.737 195.875L544.95 195.887L544.971 205.887ZM511.06 211.544L502.397 206.548L493.748 221.544H511.06V211.544ZM517.593 211.544V221.544H523.38L526.263 216.526L517.593 211.544ZM526.077 196.777L534.748 201.759L534.749 201.758L526.077 196.777ZM526.054 193.402L517.452 198.503L517.452 198.503L526.054 193.402ZM523.757 189.529L532.358 184.428L523.637 169.722L515.094 184.533L523.757 189.529ZM544.663 202.619L544.793 212.618L561.889 212.396L553.314 197.604L544.663 202.619ZM537.913 202.707L538.043 212.706L538.043 212.706L537.913 202.707ZM533.824 200.391L525.182 205.421L525.182 205.422L533.824 200.391ZM524.874 185.015L516.207 180.027L513.32 185.043L516.232 190.045L524.874 185.015ZM529.648 176.719L538.3 171.703L529.617 156.726L520.981 171.731L529.648 176.719ZM526.394 185.01L517.726 180.022L514.84 185.038L517.75 190.039L526.394 185.01ZM534.959 199.729L526.316 204.759L526.316 204.76L534.959 199.729ZM537.896 201.393L537.766 191.393L537.766 191.393L537.896 201.393ZM542.398 201.334L542.529 211.333L559.625 211.111L551.05 196.319L542.398 201.334ZM529.652 179.347L538.304 174.331L529.62 159.352L520.985 174.359L529.652 179.347ZM550.514 212.858L550.509 202.858L520.572 202.871L520.576 212.871L520.58 222.871L550.518 222.858L550.514 212.858ZM520.576 212.871L529.294 217.77L532.601 211.885L523.883 206.986L515.165 202.088L511.858 207.972L520.576 212.871ZM523.883 206.986L532.601 211.884C531.659 213.561 529.886 214.603 527.959 214.607L527.937 204.607L527.914 194.607C522.624 194.619 517.754 197.48 515.164 202.088L523.883 206.986ZM527.937 204.607L527.958 214.607L545.749 214.569L545.728 204.569L545.706 194.569L527.915 194.607L527.937 204.607ZM545.728 204.569L537.067 209.57L541.854 217.859L550.514 212.858L559.174 207.858L554.388 199.569L545.728 204.569ZM527.185 192.731L518.583 197.833C517.6 196.175 517.588 194.119 518.546 192.452L527.217 197.433L535.888 202.414C538.521 197.83 538.484 192.181 535.786 187.63L527.185 192.731ZM527.217 197.433L518.546 192.451L509.683 207.876L518.354 212.858L527.024 217.84L535.887 202.415L527.217 197.433ZM518.354 212.858V202.858H508.783V212.858V222.858H518.354V212.858ZM508.783 212.858L517.446 217.855L532.404 191.922L523.741 186.926L515.079 181.929L500.121 207.862L508.783 212.858ZM523.741 186.926L515.14 192.027L518.584 197.833L527.185 192.731L535.786 187.63L532.342 181.825L523.741 186.926ZM527.94 205.922L527.919 195.922C523.103 195.932 518.668 198.536 516.311 202.731L525.029 207.63L533.747 212.528C532.573 214.619 530.363 215.917 527.962 215.922L527.94 205.922ZM525.029 207.63L516.311 202.731L514.105 206.657L522.823 211.556L531.541 216.455L533.747 212.529L525.029 207.63ZM522.823 211.556L522.827 221.556L548.242 221.545L548.237 211.545L548.233 201.545L522.819 201.556L522.823 211.556ZM548.237 211.545L556.898 206.545L553.631 200.887L544.971 205.887L536.31 210.887L539.577 216.545L548.237 211.545ZM544.971 205.887L544.95 195.887L527.92 195.922L527.94 205.922L527.961 215.922L544.991 215.887L544.971 205.887ZM511.06 211.544V221.544H517.593V211.544V201.544H511.06V211.544ZM517.593 211.544L526.263 216.526L534.748 201.759L526.077 196.777L517.406 191.795L508.922 206.562L517.593 211.544ZM526.077 196.777L534.749 201.758C537.146 197.584 537.111 192.442 534.655 188.301L526.054 193.402L517.452 198.503C516.228 196.439 516.211 193.877 517.406 191.797L526.077 196.777ZM526.054 193.402L534.655 188.301L532.358 184.428L523.757 189.529L515.156 194.63L517.452 198.503L526.054 193.402ZM523.757 189.529L515.094 184.533L502.397 206.548L511.06 211.544L519.722 216.54L532.419 194.525L523.757 189.529ZM544.663 202.619L544.533 192.62L537.783 192.708L537.913 202.707L538.043 212.706L544.793 212.618L544.663 202.619ZM537.913 202.707L537.783 192.708C539.711 192.683 541.499 193.698 542.466 195.36L533.824 200.391L525.182 205.422C527.841 209.989 532.753 212.775 538.043 212.706L537.913 202.707ZM533.824 200.391L542.467 195.36L533.516 179.984L524.874 185.015L516.232 190.045L525.182 205.421L533.824 200.391ZM524.874 185.015L533.541 190.003L538.316 181.707L529.648 176.719L520.981 171.731L516.207 180.027L524.874 185.015ZM529.648 176.719L520.997 181.734L536.012 207.634L544.663 202.619L553.314 197.604L538.3 171.703L529.648 176.719ZM526.394 185.01L517.75 190.039L526.316 204.759L534.959 199.729L543.602 194.7L535.037 179.98L526.394 185.01ZM534.959 199.729L526.316 204.76C528.74 208.924 533.217 211.455 538.027 211.392L537.896 201.393L537.766 191.393C540.162 191.362 542.393 192.622 543.602 194.699L534.959 199.729ZM537.896 201.393L538.027 211.392L542.529 211.333L542.398 201.334L542.268 191.335L537.766 191.393L537.896 201.393ZM542.398 201.334L551.05 196.319L538.304 174.331L529.652 179.347L521.001 184.362L533.747 206.349L542.398 201.334ZM529.652 179.347L520.985 174.359L517.726 180.022L526.394 185.01L535.061 189.997L538.32 184.334L529.652 179.347Z" fill="#FF00E5" mask="url(#path-30-outside-2_1076_113)"/>
</g>
<g filter="url(#filter7_f_1076_113)">
<mask id="path-32-outside-3_1076_113" maskUnits="userSpaceOnUse" x="502.783" y="170.719" width="53" height="46" fill="black">
<rect fill="white" x="502.783" y="170.719" width="53" height="46"/>
<path d="M550.514 212.858L520.576 212.871L523.883 206.986C524.706 205.521 526.255 204.611 527.937 204.607L545.728 204.569L550.514 212.858ZM527.185 192.731C528.042 194.178 528.054 195.975 527.217 197.433L518.354 212.858H508.783L523.741 186.926L527.185 192.731ZM527.94 205.922C526.733 205.924 525.621 206.577 525.029 207.63L522.823 211.556L548.237 211.545L544.971 205.887L527.94 205.922ZM511.06 211.544H517.593L526.077 196.777C526.678 195.731 526.669 194.441 526.054 193.402L523.757 189.529L511.06 211.544ZM544.663 202.619L537.913 202.707C536.232 202.729 534.67 201.844 533.824 200.391L524.874 185.015L529.648 176.719L544.663 202.619ZM526.394 185.01L534.959 199.729C535.566 200.773 536.689 201.408 537.896 201.393L542.398 201.334L529.652 179.347L526.394 185.01Z"/>
</mask>
<path d="M550.514 212.858L520.576 212.871L523.883 206.986C524.706 205.521 526.255 204.611 527.937 204.607L545.728 204.569L550.514 212.858ZM527.185 192.731C528.042 194.178 528.054 195.975 527.217 197.433L518.354 212.858H508.783L523.741 186.926L527.185 192.731ZM527.94 205.922C526.733 205.924 525.621 206.577 525.029 207.63L522.823 211.556L548.237 211.545L544.971 205.887L527.94 205.922ZM511.06 211.544H517.593L526.077 196.777C526.678 195.731 526.669 194.441 526.054 193.402L523.757 189.529L511.06 211.544ZM544.663 202.619L537.913 202.707C536.232 202.729 534.67 201.844 533.824 200.391L524.874 185.015L529.648 176.719L544.663 202.619ZM526.394 185.01L534.959 199.729C535.566 200.773 536.689 201.408 537.896 201.393L542.398 201.334L529.652 179.347L526.394 185.01Z" fill="#FF00E5"/>
<path d="M550.514 212.858L550.515 215.858L555.709 215.856L553.112 211.358L550.514 212.858ZM520.576 212.871L517.961 211.402L515.448 215.873L520.577 215.871L520.576 212.871ZM523.883 206.986L526.498 208.456L526.498 208.456L523.883 206.986ZM527.937 204.607L527.93 201.607H527.93L527.937 204.607ZM545.728 204.569L548.326 203.069L547.457 201.566L545.721 201.569L545.728 204.569ZM527.185 192.731L529.765 191.201L529.765 191.201L527.185 192.731ZM527.217 197.433L529.818 198.927L529.818 198.927L527.217 197.433ZM518.354 212.858V215.858H520.09L520.955 214.353L518.354 212.858ZM508.783 212.858L506.185 211.359L503.59 215.858H508.783V212.858ZM523.741 186.926L526.322 185.395L523.705 180.984L521.143 185.427L523.741 186.926ZM527.94 205.922L527.934 202.922L527.934 202.922L527.94 205.922ZM525.029 207.63L527.645 209.1L527.645 209.099L525.029 207.63ZM522.823 211.556L520.208 210.086L517.695 214.558L522.825 214.556L522.823 211.556ZM548.237 211.545L548.239 214.545L553.432 214.543L550.835 210.045L548.237 211.545ZM544.971 205.887L547.569 204.387L546.701 202.883L544.965 202.887L544.971 205.887ZM511.06 211.544L508.461 210.045L505.866 214.544H511.06V211.544ZM517.593 211.544V214.544H519.329L520.194 213.039L517.593 211.544ZM526.077 196.777L528.678 198.272L528.679 198.272L526.077 196.777ZM526.054 193.402L523.473 194.933L523.473 194.933L526.054 193.402ZM523.757 189.529L526.337 187.999L523.721 183.587L521.158 188.03L523.757 189.529ZM544.663 202.619L544.702 205.619L549.831 205.552L547.259 201.115L544.663 202.619ZM537.913 202.707L537.952 205.707H537.952L537.913 202.707ZM533.824 200.391L531.231 201.9L531.232 201.9L533.824 200.391ZM524.874 185.015L522.274 183.518L521.408 185.023L522.281 186.524L524.874 185.015ZM529.648 176.719L532.244 175.214L529.639 170.721L527.048 175.222L529.648 176.719ZM526.394 185.01L523.793 183.513L522.927 185.018L523.801 186.519L526.394 185.01ZM534.959 199.729L532.366 201.238L532.366 201.239L534.959 199.729ZM537.896 201.393L537.857 198.393L537.857 198.393L537.896 201.393ZM542.398 201.334L542.437 204.334L547.566 204.267L544.994 199.829L542.398 201.334ZM529.652 179.347L532.248 177.842L529.643 173.348L527.052 177.85L529.652 179.347ZM550.514 212.858L550.512 209.858L520.575 209.871L520.576 212.871L520.577 215.871L550.515 215.858L550.514 212.858ZM520.576 212.871L523.192 214.341L526.498 208.456L523.883 206.986L521.267 205.517L517.961 211.402L520.576 212.871ZM523.883 206.986L526.498 208.456C526.792 207.933 527.345 207.609 527.943 207.607L527.937 204.607L527.93 201.607C525.166 201.614 522.62 203.108 521.267 205.517L523.883 206.986ZM527.937 204.607L527.943 207.607L545.734 207.569L545.728 204.569L545.721 201.569L527.93 201.607L527.937 204.607ZM545.728 204.569L543.13 206.069L547.916 214.359L550.514 212.858L553.112 211.358L548.326 203.069L545.728 204.569ZM527.185 192.731L524.604 194.262C524.91 194.777 524.914 195.418 524.615 195.938L527.217 197.433L529.818 198.927C531.194 196.531 531.175 193.578 529.765 191.201L527.185 192.731ZM527.217 197.433L524.616 195.938L515.752 211.364L518.354 212.858L520.955 214.353L529.818 198.927L527.217 197.433ZM518.354 212.858V209.858H508.783V212.858V215.858H518.354V212.858ZM508.783 212.858L511.382 214.357L526.34 188.425L523.741 186.926L521.143 185.427L506.185 211.359L508.783 212.858ZM523.741 186.926L521.161 188.456L524.604 194.262L527.185 192.731L529.765 191.201L526.322 185.395L523.741 186.926ZM527.94 205.922L527.934 202.922C525.644 202.927 523.535 204.165 522.414 206.16L525.029 207.63L527.645 209.099C527.706 208.99 527.822 208.922 527.947 208.922L527.94 205.922ZM525.029 207.63L522.414 206.16L520.208 210.086L522.823 211.556L525.439 213.025L527.645 209.1L525.029 207.63ZM522.823 211.556L522.825 214.556L548.239 214.545L548.237 211.545L548.236 208.545L522.822 208.556L522.823 211.556ZM548.237 211.545L550.835 210.045L547.569 204.387L544.971 205.887L542.373 207.387L545.639 213.045L548.237 211.545ZM544.971 205.887L544.965 202.887L527.934 202.922L527.94 205.922L527.947 208.922L544.977 208.887L544.971 205.887ZM511.06 211.544V214.544H517.593V211.544V208.544H511.06V211.544ZM517.593 211.544L520.194 213.039L528.678 198.272L526.077 196.777L523.476 195.283L514.992 210.049L517.593 211.544ZM526.077 196.777L528.679 198.272C529.819 196.287 529.802 193.841 528.634 191.872L526.054 193.402L523.473 194.933C523.537 195.04 523.538 195.174 523.476 195.283L526.077 196.777ZM526.054 193.402L528.634 191.872L526.337 187.999L523.757 189.529L521.176 191.06L523.473 194.933L526.054 193.402ZM523.757 189.529L521.158 188.03L508.461 210.045L511.06 211.544L513.658 213.043L526.356 191.028L523.757 189.529ZM544.663 202.619L544.624 199.619L537.874 199.707L537.913 202.707L537.952 205.707L544.702 205.619L544.663 202.619ZM537.913 202.707L537.874 199.707C537.276 199.715 536.719 199.4 536.417 198.881L533.824 200.391L531.232 201.9C532.621 204.287 535.188 205.743 537.952 205.707L537.913 202.707ZM533.824 200.391L536.417 198.881L527.467 183.505L524.874 185.015L522.281 186.524L531.231 201.9L533.824 200.391ZM524.874 185.015L527.474 186.511L532.249 178.215L529.648 176.719L527.048 175.222L522.274 183.518L524.874 185.015ZM529.648 176.719L527.053 178.223L542.068 204.124L544.663 202.619L547.259 201.115L532.244 175.214L529.648 176.719ZM526.394 185.01L523.801 186.519L532.366 201.238L534.959 199.729L537.552 198.221L528.987 183.501L526.394 185.01ZM534.959 199.729L532.366 201.239C533.518 203.218 535.648 204.422 537.936 204.392L537.896 201.393L537.857 198.393C537.731 198.394 537.614 198.328 537.552 198.22L534.959 199.729ZM537.896 201.393L537.936 204.392L542.437 204.334L542.398 201.334L542.359 198.334L537.857 198.393L537.896 201.393ZM542.398 201.334L544.994 199.829L532.248 177.842L529.652 179.347L527.057 180.851L539.803 202.839L542.398 201.334ZM529.652 179.347L527.052 177.85L523.793 183.513L526.394 185.01L528.994 186.506L532.253 180.843L529.652 179.347Z" fill="#FF00E5" mask="url(#path-32-outside-3_1076_113)"/>
</g>
<path d="M550.514 212.858L520.576 212.871L523.883 206.986C524.706 205.521 526.255 204.611 527.937 204.607L545.728 204.569L550.514 212.858ZM527.185 192.731C528.042 194.178 528.054 195.975 527.217 197.433L518.354 212.858H508.783L523.741 186.926L527.185 192.731ZM527.94 205.922C526.733 205.924 525.621 206.577 525.029 207.63L522.823 211.556L548.237 211.545L544.971 205.887L527.94 205.922ZM511.06 211.544H517.593L526.077 196.777C526.678 195.731 526.669 194.441 526.054 193.402L523.757 189.529L511.06 211.544ZM544.663 202.619L537.913 202.707C536.232 202.729 534.67 201.844 533.824 200.391L524.874 185.015L529.648 176.719L544.663 202.619ZM526.394 185.01L534.959 199.729C535.566 200.773 536.689 201.408 537.896 201.393L542.398 201.334L529.652 179.347L526.394 185.01Z" fill="#EDEDED"/>
<line x1="584.004" y1="179.088" x2="583.798" y2="215.195" stroke="#888888" stroke-width="0.841565"/>
<path d="M645.989 179.066H625.005C620.286 179.066 616.447 182.905 616.447 187.624V198.042C616.447 202.382 619.695 205.978 623.889 206.527V214.102C623.888 214.248 623.917 214.393 623.973 214.529C624.029 214.664 624.112 214.787 624.215 214.891C624.319 214.995 624.442 215.077 624.577 215.133C624.713 215.189 624.858 215.218 625.004 215.218C625.295 215.218 625.58 215.105 625.794 214.891L634.086 206.599H645.989C650.708 206.599 654.546 202.76 654.546 198.042V187.624C654.546 182.905 650.708 179.066 645.989 179.066ZM652.314 198.042C652.314 201.529 649.477 204.367 645.989 204.367H633.624C633.328 204.367 633.044 204.484 632.834 204.694L626.121 211.407V205.483C626.121 204.866 625.621 204.367 625.005 204.367C621.517 204.367 618.68 201.529 618.68 198.042V187.624C618.68 184.136 621.517 181.299 625.005 181.299H645.989C649.477 181.299 652.314 184.136 652.314 187.624V198.042Z" fill="#888888"/>
<path d="M641.079 193.29C641.079 191.444 642.581 189.941 644.428 189.941C646.274 189.941 647.776 191.444 647.776 193.29C647.776 195.136 646.274 196.639 644.428 196.639C642.581 196.639 641.079 195.136 641.079 193.29Z" fill="#00B6CC"/>
<path d="M642.994 193.293C642.994 192.502 643.637 191.859 644.428 191.859C645.218 191.859 645.861 192.502 645.861 193.293C645.861 194.083 645.218 194.726 644.428 194.726C643.637 194.726 642.994 194.083 642.994 193.293Z" fill="#A1A1A1"/>
<path d="M626.567 189.941C624.721 189.941 623.219 191.444 623.219 193.29C623.219 195.136 624.721 196.639 626.567 196.639C628.414 196.639 629.916 195.136 629.916 193.29C629.916 191.444 628.414 189.941 626.567 189.941ZM626.567 194.406C625.952 194.406 625.451 193.905 625.451 193.29C625.451 192.674 625.952 192.174 626.567 192.174C627.183 192.174 627.683 192.674 627.683 193.29C627.683 193.905 627.183 194.406 626.567 194.406ZM635.497 189.941C633.65 189.941 632.148 191.444 632.148 193.29C632.148 195.136 633.65 196.639 635.497 196.639C637.343 196.639 638.845 195.136 638.845 193.29C638.845 191.444 637.343 189.941 635.497 189.941ZM635.497 194.406C634.881 194.406 634.381 193.905 634.381 193.29C634.381 192.674 634.881 192.174 635.497 192.174C636.112 192.174 636.613 192.674 636.613 193.29C636.613 193.905 636.112 194.406 635.497 194.406Z" fill="#888888"/>
<path d="M699.98 189.258L690.12 179.397C690.015 179.292 689.89 179.209 689.753 179.152C689.616 179.096 689.469 179.066 689.321 179.066H674.595C672.601 179.066 670.979 180.689 670.979 182.683V211.601C670.979 213.595 672.601 215.218 674.595 215.218H696.694C698.688 215.218 700.311 213.595 700.311 211.601V190.057C700.311 189.908 700.282 189.761 700.225 189.624C700.168 189.487 700.085 189.363 699.98 189.258ZM690.45 182.924L696.454 188.927H690.45V182.924ZM696.694 212.958H674.595C673.847 212.958 673.238 212.349 673.238 211.601V182.683C673.238 181.935 673.847 181.326 674.595 181.326H688.191V190.057C688.191 190.68 688.697 191.186 689.321 191.186H698.051V211.601C698.051 212.349 697.443 212.958 696.694 212.958ZM693.722 197.836C693.722 198.46 693.216 198.966 692.593 198.966H678.697C678.073 198.966 677.567 198.46 677.567 197.836C677.567 197.212 678.073 196.706 678.697 196.706H692.593C693.216 196.706 693.722 197.212 693.722 197.836ZM693.722 205.546C693.722 206.17 693.216 206.676 692.593 206.676H678.697C678.073 206.676 677.567 206.17 677.567 205.546C677.567 204.922 678.073 204.416 678.697 204.416H692.593C693.216 204.416 693.722 204.922 693.722 205.546Z" fill="#888888"/>
<g filter="url(#filter8_f_1076_113)">
<path d="M747.455 196.689C746.951 196.689 746.549 197.186 746.549 197.807V207.972C746.549 210.737 744.724 212.981 742.489 212.981H722.614C720.373 212.981 718.555 210.729 718.555 207.972V197.641C718.555 197.02 718.152 196.523 717.649 196.523C717.146 196.523 716.743 197.02 716.743 197.641V207.972C716.743 211.971 719.38 215.216 722.614 215.216H742.489C745.73 215.216 748.36 211.963 748.36 207.972V197.807C748.36 197.194 747.958 196.689 747.455 196.689Z" fill="#888888"/>
<path d="M717.865 194.029C720.063 194.156 721.055 196.202 721.055 197.641V207.973C721.055 208.813 721.334 209.501 721.688 209.938C722.037 210.369 722.38 210.48 722.614 210.48H742.489C742.722 210.48 743.066 210.37 743.416 209.938C743.769 209.504 744.049 208.816 744.049 207.973V197.807C744.049 196.321 745.105 194.19 747.454 194.189C749.814 194.189 750.86 196.343 750.86 197.807V207.973C750.86 212.825 747.577 217.716 742.489 217.716H722.614C717.536 217.716 714.243 212.838 714.243 207.973V197.641C714.243 196.155 715.301 194.023 717.649 194.023L717.865 194.029Z" stroke="#4007FB" stroke-width="5"/>
</g>
<g filter="url(#filter9_f_1076_113)">
<path d="M747.455 196.689C746.951 196.689 746.549 197.186 746.549 197.807V207.972C746.549 210.737 744.724 212.981 742.489 212.981H722.614C720.373 212.981 718.555 210.729 718.555 207.972V197.641C718.555 197.02 718.152 196.523 717.649 196.523C717.146 196.523 716.743 197.02 716.743 197.641V207.972C716.743 211.971 719.38 215.216 722.614 215.216H742.489C745.73 215.216 748.36 211.963 748.36 207.972V197.807C748.36 197.194 747.958 196.689 747.455 196.689Z" fill="#888888"/>
<path d="M717.798 195.027C719.309 195.115 720.055 196.537 720.055 197.641V207.973C720.055 210.212 721.482 211.48 722.614 211.48H742.489C743.618 211.48 745.049 210.217 745.049 207.973V197.807C745.049 196.667 745.844 195.19 747.454 195.189C749.071 195.189 749.86 196.683 749.86 197.807V207.973C749.86 212.48 746.838 216.716 742.489 216.716H722.614C718.274 216.716 715.243 212.491 715.243 207.973V197.641C715.243 196.501 716.039 195.023 717.649 195.023L717.798 195.027Z" stroke="#3003F7" stroke-opacity="0.8" stroke-width="3"/>
</g>
<path d="M747.455 196.689C746.951 196.689 746.549 197.186 746.549 197.807V207.972C746.549 210.737 744.724 212.981 742.489 212.981H722.614C720.373 212.981 718.555 210.729 718.555 207.972V197.641C718.555 197.02 718.152 196.523 717.649 196.523C717.146 196.523 716.743 197.02 716.743 197.641V207.972C716.743 211.971 719.38 215.216 722.614 215.216H742.489C745.73 215.216 748.36 211.963 748.36 207.972V197.807C748.36 197.194 747.958 196.689 747.455 196.689Z" fill="#F3EDED"/>
<path d="M731.77 206.344C731.985 206.559 732.275 206.675 732.557 206.675C732.838 206.675 733.128 206.567 733.343 206.344L740.446 199.241C740.885 198.802 740.885 198.099 740.446 197.66C740.007 197.221 739.304 197.221 738.865 197.66L733.674 202.859V180.184C733.674 179.563 733.178 179.066 732.557 179.066C731.936 179.066 731.439 179.563 731.439 180.184V202.859L726.24 197.66C725.802 197.221 725.098 197.221 724.659 197.66C724.22 198.099 724.22 198.802 724.659 199.241L731.77 206.344Z" fill="black"/>
<g filter="url(#filter10_f_1076_113)">
<rect x="117.825" y="271.827" width="145" height="54" rx="14.5" transform="rotate(4 117.825 271.827)" stroke="#00B6CC" stroke-width="15"/>
</g>
<rect x="133.808" y="280.798" width="128" height="37" rx="7" transform="rotate(4 133.808 280.798)" fill="#00B6CC" fill-opacity="0.8"/>
<rect x="133.808" y="280.798" width="128" height="37" rx="7" transform="rotate(4 133.808 280.798)" stroke="#00B6CC" stroke-width="2"/>
<path d="M152.45 294.708L153.791 294.802L153.354 301.058C153.335 301.324 153.309 301.617 153.276 301.935C153.255 302.244 153.228 302.552 153.196 302.86C153.163 303.168 153.128 303.443 153.09 303.686C153.063 303.92 153.039 304.1 153.02 304.227L153.084 304.231L160.016 295.237L161.612 295.349L160.815 306.745L159.474 306.651L159.908 300.458C159.928 300.171 159.955 299.863 159.988 299.533C160.023 299.194 160.056 298.87 160.088 298.562C160.132 298.244 160.168 297.963 160.195 297.72C160.223 297.476 160.246 297.295 160.265 297.179L160.201 297.175L153.25 306.216L151.654 306.104L152.45 294.708ZM165.7 298.489L165.451 302.049L170.096 302.373L170.345 298.814L171.749 298.912L171.151 307.467L169.747 307.369L170.013 303.555L165.369 303.23L165.102 307.044L163.697 306.946L164.296 298.391L165.7 298.489ZM175.863 299.2L175.614 302.759L180.259 303.084L180.508 299.525L181.912 299.623L181.314 308.178L179.909 308.08L180.176 304.265L175.531 303.94L175.265 307.755L173.86 307.657L174.458 299.102L175.863 299.2ZM191.761 304.594C191.711 305.307 191.571 305.934 191.341 306.473C191.122 307.003 190.824 307.448 190.446 307.806C190.078 308.165 189.638 308.429 189.123 308.596C188.62 308.753 188.066 308.811 187.459 308.768C186.895 308.729 186.381 308.597 185.915 308.372C185.45 308.136 185.056 307.814 184.732 307.407C184.407 306.999 184.163 306.517 183.999 305.96C183.846 305.393 183.794 304.753 183.844 304.041C183.91 303.094 184.126 302.307 184.49 301.68C184.856 301.042 185.348 300.574 185.968 300.276C186.588 299.966 187.308 299.84 188.128 299.897C188.904 299.952 189.573 300.175 190.134 300.567C190.706 300.949 191.134 301.481 191.418 302.164C191.713 302.837 191.827 303.647 191.761 304.594ZM185.297 304.142C185.25 304.812 185.294 305.404 185.429 305.916C185.576 306.418 185.826 306.815 186.18 307.107C186.534 307.399 186.998 307.565 187.573 307.605C188.147 307.646 188.63 307.546 189.021 307.306C189.412 307.066 189.71 306.707 189.914 306.229C190.13 305.742 190.262 305.163 190.308 304.493C190.356 303.812 190.306 303.225 190.159 302.734C190.011 302.242 189.76 301.856 189.406 301.575C189.063 301.283 188.598 301.117 188.013 301.076C187.141 301.015 186.487 301.258 186.053 301.805C185.62 302.352 185.367 303.131 185.297 304.142ZM201.013 303.124C200.976 303.656 200.788 304.06 200.448 304.335C200.108 304.611 199.684 304.785 199.176 304.856L199.172 304.92C199.699 305.032 200.148 305.255 200.52 305.592C200.893 305.917 201.057 306.399 201.012 307.037C200.987 307.399 200.895 307.73 200.735 308.028C200.585 308.328 200.365 308.58 200.072 308.784C199.78 308.988 199.411 309.139 198.966 309.236C198.522 309.323 197.991 309.344 197.374 309.301L193.687 309.043L194.285 300.488L197.956 300.745C198.562 300.787 199.1 300.894 199.569 301.066C200.05 301.228 200.417 301.478 200.672 301.817C200.938 302.146 201.051 302.581 201.013 303.124ZM199.56 306.936C199.594 306.446 199.433 306.082 199.075 305.843C198.717 305.605 198.177 305.46 197.453 305.409L195.362 305.263L195.17 308.008L197.293 308.157C197.996 308.206 198.54 308.142 198.927 307.966C199.314 307.779 199.525 307.436 199.56 306.936ZM199.581 303.2C199.609 302.796 199.48 302.493 199.195 302.291C198.921 302.08 198.454 301.951 197.795 301.904L195.608 301.752L195.444 304.098L197.375 304.233C198.067 304.281 198.6 304.222 198.975 304.056C199.351 303.89 199.552 303.605 199.581 303.2ZM206.731 301.214C207.774 301.287 208.53 301.57 208.998 302.062C209.466 302.555 209.665 303.301 209.595 304.301L209.188 310.127L208.166 310.056L207.98 308.824L207.916 308.819C207.649 309.111 207.376 309.354 207.095 309.548C206.825 309.732 206.517 309.86 206.17 309.932C205.833 310.005 205.426 310.025 204.947 309.991C204.436 309.955 203.979 309.833 203.577 309.623C203.185 309.413 202.886 309.115 202.677 308.726C202.47 308.326 202.387 307.839 202.427 307.265C202.486 306.413 202.867 305.782 203.57 305.372C204.273 304.95 205.323 304.767 206.72 304.822L208.175 304.876L208.211 304.365C208.261 303.652 208.141 303.147 207.852 302.848C207.563 302.55 207.136 302.381 206.572 302.342C206.125 302.311 205.695 302.35 205.281 302.46C204.868 302.559 204.479 302.682 204.116 302.828L203.759 301.744C204.146 301.568 204.599 301.429 205.12 301.326C205.641 301.213 206.178 301.176 206.731 301.214ZM206.827 305.808C205.76 305.776 205.009 305.895 204.573 306.164C204.148 306.433 203.916 306.84 203.878 307.382C203.845 307.861 203.964 308.222 204.235 308.466C204.518 308.71 204.888 308.848 205.345 308.88C206.069 308.931 206.684 308.776 207.19 308.416C207.697 308.045 207.98 307.444 208.038 306.614L208.091 305.848L206.827 305.808ZM220.066 313.871L218.693 313.775L218.901 310.806L211.83 310.312L212.428 301.757L213.833 301.855L213.317 309.229L217.738 309.538L218.254 302.164L219.658 302.263L219.142 309.652L220.355 309.737L220.066 313.871ZM223.473 307.774C223.466 307.87 223.451 308.008 223.428 308.188C223.416 308.358 223.397 308.544 223.373 308.745C223.349 308.936 223.325 309.122 223.302 309.302C223.279 309.471 223.259 309.609 223.241 309.715L228.323 302.868L230.046 302.989L229.448 311.544L228.139 311.453L228.492 306.409C228.504 306.239 228.52 306.015 228.539 305.738C228.569 305.463 228.599 305.192 228.628 304.927C228.658 304.651 228.683 304.444 228.703 304.306L223.654 311.139L221.915 311.017L222.513 302.462L223.838 302.555L223.473 307.774ZM233.729 308.491C233.722 308.587 233.707 308.725 233.684 308.905C233.672 309.075 233.654 309.261 233.629 309.463C233.605 309.653 233.581 309.839 233.558 310.019C233.535 310.188 233.515 310.326 233.497 310.432L238.579 303.586L240.303 303.706L239.704 312.261L238.396 312.17L238.748 307.126C238.76 306.956 238.776 306.732 238.795 306.456C238.825 306.18 238.855 305.909 238.884 305.644C238.914 305.368 238.939 305.161 238.959 305.024L233.911 311.856L232.171 311.734L232.769 303.179L234.094 303.272L233.729 308.491Z" fill="#EDEDED"/>
<rect x="383.848" y="291.793" width="128" height="37" rx="7" fill="#00B6CC" fill-opacity="0.8"/>
<rect x="383.848" y="291.793" width="128" height="37" rx="7" stroke="#00B6CC" stroke-width="2"/>
<path d="M395.4 315.793V304.369H402.184V305.633H396.84V309.201H398.536C399.677 309.201 400.562 309.345 401.192 309.633C401.821 309.91 402.258 310.294 402.504 310.785C402.749 311.265 402.872 311.82 402.872 312.449C402.872 313.142 402.733 313.74 402.456 314.241C402.189 314.742 401.752 315.126 401.144 315.393C400.536 315.66 399.736 315.793 398.744 315.793H395.4ZM398.6 314.561C399.624 314.561 400.344 314.39 400.76 314.049C401.176 313.697 401.384 313.164 401.384 312.449C401.384 311.958 401.282 311.569 401.08 311.281C400.888 310.982 400.568 310.769 400.12 310.641C399.682 310.513 399.096 310.449 398.36 310.449H396.84V314.561H398.6ZM408.363 307.057C409.099 307.057 409.729 307.217 410.251 307.537C410.785 307.857 411.19 308.31 411.467 308.897C411.755 309.473 411.899 310.15 411.899 310.929V311.777H406.027C406.049 312.748 406.294 313.489 406.763 314.001C407.243 314.502 407.91 314.753 408.763 314.753C409.307 314.753 409.787 314.705 410.203 314.609C410.63 314.502 411.067 314.353 411.515 314.161V315.393C411.078 315.585 410.646 315.724 410.219 315.809C409.793 315.905 409.286 315.953 408.699 315.953C407.889 315.953 407.169 315.788 406.539 315.457C405.921 315.126 405.435 314.636 405.083 313.985C404.742 313.324 404.571 312.518 404.571 311.569C404.571 310.63 404.726 309.825 405.035 309.153C405.355 308.481 405.798 307.964 406.363 307.601C406.939 307.238 407.606 307.057 408.363 307.057ZM408.347 308.209C407.675 308.209 407.142 308.428 406.747 308.865C406.363 309.292 406.134 309.889 406.059 310.657H410.427C410.427 310.166 410.353 309.74 410.203 309.377C410.054 309.014 409.825 308.732 409.515 308.529C409.217 308.316 408.827 308.209 408.347 308.209ZM416.339 307.057C416.989 307.057 417.555 307.148 418.035 307.329C418.515 307.5 418.888 307.756 419.155 308.097C419.421 308.428 419.555 308.833 419.555 309.313C419.555 309.836 419.411 310.252 419.123 310.561C418.835 310.86 418.44 311.078 417.939 311.217V311.281C418.28 311.377 418.595 311.51 418.883 311.681C419.171 311.852 419.4 312.076 419.571 312.353C419.752 312.63 419.843 312.988 419.843 313.425C419.843 313.894 419.709 314.321 419.443 314.705C419.187 315.089 418.787 315.393 418.243 315.617C417.709 315.841 417.021 315.953 416.179 315.953C415.773 315.953 415.384 315.932 415.011 315.889C414.648 315.846 414.317 315.782 414.019 315.697C413.731 315.612 413.475 315.51 413.251 315.393V314.129C413.613 314.3 414.04 314.454 414.531 314.593C415.032 314.732 415.576 314.801 416.163 314.801C416.589 314.801 416.973 314.753 417.315 314.657C417.667 314.561 417.944 314.412 418.147 314.209C418.349 313.996 418.451 313.708 418.451 313.345C418.451 313.014 418.36 312.748 418.179 312.545C417.997 312.332 417.725 312.172 417.363 312.065C417.011 311.958 416.557 311.905 416.003 311.905H414.851V310.753H415.779C416.515 310.753 417.101 310.657 417.539 310.465C417.987 310.262 418.211 309.921 418.211 309.441C418.211 309.036 418.04 308.732 417.699 308.529C417.368 308.326 416.888 308.225 416.259 308.225C415.789 308.225 415.373 308.273 415.011 308.369C414.659 308.454 414.269 308.588 413.843 308.769L413.347 307.649C413.805 307.446 414.285 307.297 414.787 307.201C415.288 307.105 415.805 307.057 416.339 307.057ZM429.382 311.489C429.382 312.204 429.286 312.838 429.094 313.393C428.913 313.937 428.646 314.401 428.294 314.785C427.953 315.169 427.532 315.462 427.03 315.665C426.54 315.857 425.99 315.953 425.382 315.953C424.817 315.953 424.294 315.857 423.814 315.665C423.334 315.462 422.918 315.169 422.566 314.785C422.214 314.401 421.937 313.937 421.734 313.393C421.542 312.838 421.446 312.204 421.446 311.489C421.446 310.54 421.606 309.74 421.926 309.089C422.246 308.428 422.705 307.926 423.302 307.585C423.9 307.233 424.609 307.057 425.43 307.057C426.209 307.057 426.892 307.233 427.478 307.585C428.076 307.926 428.54 308.428 428.87 309.089C429.212 309.74 429.382 310.54 429.382 311.489ZM422.902 311.489C422.902 312.161 422.988 312.748 423.158 313.249C423.34 313.74 423.617 314.118 423.99 314.385C424.364 314.652 424.838 314.785 425.414 314.785C425.99 314.785 426.465 314.652 426.838 314.385C427.212 314.118 427.484 313.74 427.654 313.249C427.836 312.748 427.926 312.161 427.926 311.489C427.926 310.806 427.836 310.225 427.654 309.745C427.473 309.265 427.196 308.897 426.822 308.641C426.46 308.374 425.985 308.241 425.398 308.241C424.524 308.241 423.889 308.529 423.494 309.105C423.1 309.681 422.902 310.476 422.902 311.489ZM438.862 307.217V315.793H437.454V308.417H433.022V315.793H431.614V307.217H438.862ZM444.846 307.073C445.892 307.073 446.665 307.302 447.166 307.761C447.668 308.22 447.918 308.95 447.918 309.953V315.793H446.894L446.622 314.577H446.558C446.313 314.886 446.057 315.148 445.79 315.361C445.534 315.564 445.236 315.713 444.894 315.809C444.564 315.905 444.158 315.953 443.678 315.953C443.166 315.953 442.702 315.862 442.286 315.681C441.881 315.5 441.561 315.222 441.326 314.849C441.092 314.465 440.974 313.985 440.974 313.409C440.974 312.556 441.31 311.9 441.982 311.441C442.654 310.972 443.689 310.716 445.086 310.673L446.542 310.625V310.113C446.542 309.398 446.388 308.902 446.078 308.625C445.769 308.348 445.332 308.209 444.766 308.209C444.318 308.209 443.892 308.278 443.486 308.417C443.081 308.545 442.702 308.694 442.35 308.865L441.918 307.809C442.292 307.606 442.734 307.436 443.246 307.297C443.758 307.148 444.292 307.073 444.846 307.073ZM445.262 311.649C444.196 311.692 443.454 311.862 443.038 312.161C442.633 312.46 442.43 312.881 442.43 313.425C442.43 313.905 442.574 314.257 442.862 314.481C443.161 314.705 443.54 314.817 443.998 314.817C444.724 314.817 445.326 314.62 445.806 314.225C446.286 313.82 446.526 313.201 446.526 312.369V311.601L445.262 311.649ZM454.007 315.953C453.25 315.953 452.572 315.798 451.975 315.489C451.388 315.18 450.924 314.7 450.583 314.049C450.252 313.398 450.087 312.566 450.087 311.553C450.087 310.497 450.263 309.638 450.615 308.977C450.967 308.316 451.442 307.83 452.039 307.521C452.647 307.212 453.335 307.057 454.103 307.057C454.54 307.057 454.962 307.105 455.367 307.201C455.772 307.286 456.103 307.393 456.359 307.521L455.927 308.689C455.671 308.593 455.372 308.502 455.031 308.417C454.69 308.332 454.37 308.289 454.071 308.289C453.495 308.289 453.02 308.412 452.647 308.657C452.274 308.902 451.996 309.265 451.815 309.745C451.634 310.225 451.543 310.822 451.543 311.537C451.543 312.22 451.634 312.801 451.815 313.281C451.996 313.761 452.268 314.124 452.631 314.369C452.994 314.614 453.447 314.737 453.991 314.737C454.46 314.737 454.871 314.689 455.223 314.593C455.586 314.497 455.916 314.38 456.215 314.241V315.489C455.927 315.638 455.607 315.75 455.255 315.825C454.914 315.91 454.498 315.953 454.007 315.953ZM459.663 307.217V310.785H464.319V307.217H465.727V315.793H464.319V311.969H459.663V315.793H458.255V307.217H459.663ZM475.898 311.489C475.898 312.204 475.802 312.838 475.61 313.393C475.429 313.937 475.162 314.401 474.81 314.785C474.469 315.169 474.047 315.462 473.546 315.665C473.055 315.857 472.506 315.953 471.898 315.953C471.333 315.953 470.81 315.857 470.33 315.665C469.85 315.462 469.434 315.169 469.082 314.785C468.73 314.401 468.453 313.937 468.25 313.393C468.058 312.838 467.962 312.204 467.962 311.489C467.962 310.54 468.122 309.74 468.442 309.089C468.762 308.428 469.221 307.926 469.818 307.585C470.415 307.233 471.125 307.057 471.946 307.057C472.725 307.057 473.407 307.233 473.994 307.585C474.591 307.926 475.055 308.428 475.386 309.089C475.727 309.74 475.898 310.54 475.898 311.489ZM469.418 311.489C469.418 312.161 469.503 312.748 469.674 313.249C469.855 313.74 470.133 314.118 470.506 314.385C470.879 314.652 471.354 314.785 471.93 314.785C472.506 314.785 472.981 314.652 473.354 314.385C473.727 314.118 473.999 313.74 474.17 313.249C474.351 312.748 474.442 312.161 474.442 311.489C474.442 310.806 474.351 310.225 474.17 309.745C473.989 309.265 473.711 308.897 473.338 308.641C472.975 308.374 472.501 308.241 471.914 308.241C471.039 308.241 470.405 308.529 470.01 309.105C469.615 309.681 469.418 310.476 469.418 311.489ZM481.57 315.953C480.812 315.953 480.135 315.798 479.538 315.489C478.951 315.18 478.487 314.7 478.146 314.049C477.815 313.398 477.65 312.566 477.65 311.553C477.65 310.497 477.826 309.638 478.178 308.977C478.53 308.316 479.004 307.83 479.602 307.521C480.21 307.212 480.898 307.057 481.666 307.057C482.103 307.057 482.524 307.105 482.93 307.201C483.335 307.286 483.666 307.393 483.922 307.521L483.49 308.689C483.234 308.593 482.935 308.502 482.594 308.417C482.252 308.332 481.932 308.289 481.634 308.289C481.058 308.289 480.583 308.412 480.21 308.657C479.836 308.902 479.559 309.265 479.378 309.745C479.196 310.225 479.106 310.822 479.106 311.537C479.106 312.22 479.196 312.801 479.378 313.281C479.559 313.761 479.831 314.124 480.194 314.369C480.556 314.614 481.01 314.737 481.554 314.737C482.023 314.737 482.434 314.689 482.786 314.593C483.148 314.497 483.479 314.38 483.778 314.241V315.489C483.49 315.638 483.17 315.75 482.818 315.825C482.476 315.91 482.06 315.953 481.57 315.953ZM491.737 308.401H488.937V315.793H487.545V308.401H484.777V307.217H491.737V308.401ZM497.378 310.737C498.125 310.737 498.744 310.828 499.234 311.009C499.725 311.19 500.093 311.462 500.338 311.825C500.594 312.177 500.722 312.625 500.722 313.169C500.722 313.702 500.6 314.166 500.354 314.561C500.12 314.956 499.752 315.26 499.25 315.473C498.749 315.686 498.104 315.793 497.314 315.793H493.426V307.217H494.834V310.737H497.378ZM499.314 313.249C499.314 312.726 499.128 312.374 498.754 312.193C498.392 312.001 497.88 311.905 497.218 311.905H494.834V314.657H497.25C497.848 314.657 498.338 314.55 498.722 314.337C499.117 314.124 499.314 313.761 499.314 313.249Z" fill="#EDEDED"/>
<rect x="634.166" y="289.826" width="128" height="37" rx="7" transform="rotate(-4 634.166 289.826)" fill="#00B6CC" fill-opacity="0.8"/>
<rect x="634.166" y="289.826" width="128" height="37" rx="7" transform="rotate(-4 634.166 289.826)" stroke="#00B6CC" stroke-width="2"/>
<path d="M675.132 311.02L673.408 311.14L667.849 305.723L668.253 311.501L666.816 311.601L666.019 300.205L667.456 300.105L667.842 305.627L672.484 299.753L674.112 299.639L669.551 305.524L675.132 311.02ZM683.629 306.111C683.679 306.824 683.627 307.464 683.474 308.031C683.331 308.586 683.098 309.067 682.773 309.475C682.46 309.882 682.06 310.204 681.574 310.441C681.098 310.667 680.557 310.801 679.95 310.843C679.386 310.883 678.858 310.823 678.366 310.665C677.873 310.497 677.437 310.233 677.059 309.875C676.681 309.516 676.372 309.073 676.132 308.544C675.902 308.004 675.762 307.378 675.712 306.665C675.646 305.718 675.75 304.908 676.024 304.237C676.297 303.555 676.719 303.023 677.291 302.641C677.863 302.248 678.558 302.023 679.377 301.966C680.154 301.911 680.847 302.039 681.457 302.349C682.077 302.648 682.575 303.116 682.951 303.753C683.337 304.378 683.563 305.164 683.629 306.111ZM677.165 306.563C677.212 307.234 677.338 307.813 677.543 308.301C677.758 308.778 678.061 309.136 678.452 309.376C678.843 309.616 679.326 309.716 679.9 309.676C680.475 309.636 680.939 309.47 681.293 309.178C681.647 308.885 681.892 308.489 682.028 307.987C682.174 307.475 682.223 306.883 682.176 306.213C682.129 305.532 681.998 304.958 681.783 304.492C681.569 304.026 681.267 303.678 680.876 303.449C680.496 303.208 680.013 303.108 679.428 303.149C678.555 303.21 677.942 303.542 677.589 304.144C677.235 304.746 677.094 305.552 677.165 306.563ZM694.735 301.052L695.333 309.607L694.072 309.695L693.69 304.237C693.674 304.013 693.663 303.779 693.657 303.533C693.661 303.287 693.666 303.046 693.671 302.811L693.623 302.814L691.311 309.888L690.129 309.971L686.935 303.282L686.887 303.285C686.925 303.518 686.952 303.756 686.969 304.001C686.997 304.245 687.02 304.495 687.038 304.75L687.416 310.161L686.155 310.249L685.557 301.694L687.424 301.563L690.603 308.254L692.867 301.183L694.735 301.052ZM700.695 300.491C701.738 300.418 702.526 300.593 703.058 301.015C703.59 301.438 703.891 302.149 703.961 303.15L704.368 308.975L703.347 309.047L702.991 307.853L702.927 307.857C702.704 308.183 702.466 308.461 702.215 308.693C701.974 308.913 701.686 309.083 701.353 309.202C701.029 309.321 700.628 309.397 700.15 309.431C699.639 309.466 699.17 309.408 698.742 309.257C698.325 309.104 697.987 308.85 697.726 308.494C697.466 308.127 697.315 307.656 697.275 307.082C697.215 306.23 697.505 305.553 698.143 305.048C698.781 304.533 699.795 304.205 701.186 304.065L702.635 303.916L702.599 303.405C702.549 302.692 702.361 302.208 702.033 301.953C701.705 301.698 701.259 301.59 700.695 301.63C700.248 301.661 699.827 301.76 699.432 301.927C699.037 302.082 698.67 302.258 698.33 302.453L697.826 301.429C698.184 301.201 698.614 301 699.115 300.826C699.615 300.641 700.142 300.53 700.695 300.491ZM701.43 305.027C700.368 305.144 699.641 305.366 699.247 305.693C698.863 306.019 698.69 306.453 698.728 306.996C698.762 307.475 698.93 307.816 699.233 308.019C699.547 308.222 699.932 308.307 700.39 308.275C701.113 308.225 701.701 307.986 702.152 307.559C702.602 307.121 702.799 306.487 702.741 305.657L702.687 304.891L701.43 305.027ZM707.817 300.137L708.066 303.697L712.71 303.372L712.461 299.813L713.866 299.714L714.464 308.269L713.06 308.368L712.793 304.553L708.148 304.878L708.415 308.692L707.01 308.791L706.412 300.236L707.817 300.137ZM722.927 299.081L723.443 306.455L724.688 306.368L724.978 310.517L723.622 310.612L723.414 307.644L717.46 308.06L717.668 311.029L716.327 311.122L716.037 306.973L716.723 306.925C717.165 306.209 717.518 305.442 717.781 304.621C718.055 303.789 718.241 302.932 718.339 302.048C718.448 301.153 718.477 300.269 718.426 299.395L722.927 299.081ZM719.748 300.41C719.756 301.136 719.697 301.894 719.571 302.684C719.443 303.462 719.26 304.213 719.022 304.935C718.795 305.657 718.513 306.286 718.176 306.823L722.086 306.55L721.648 300.277L719.748 300.41ZM729.079 298.506C730.122 298.433 730.909 298.608 731.442 299.031C731.974 299.453 732.275 300.165 732.345 301.165L732.752 306.991L731.73 307.062L731.374 305.868L731.31 305.872C731.087 306.198 730.85 306.477 730.599 306.708C730.358 306.928 730.07 307.098 729.736 307.218C729.413 307.336 729.012 307.413 728.533 307.446C728.023 307.482 727.554 307.424 727.126 307.272C726.709 307.119 726.37 306.865 726.11 306.509C725.849 306.142 725.699 305.671 725.659 305.097C725.599 304.246 725.889 303.568 726.527 303.063C727.164 302.548 728.179 302.221 729.57 302.081L731.019 301.931L730.983 301.42C730.933 300.708 730.744 300.224 730.416 299.968C730.089 299.713 729.643 299.606 729.079 299.645C728.632 299.676 728.211 299.775 727.816 299.942C727.421 300.098 727.054 300.273 726.714 300.468L726.21 299.445C726.568 299.216 726.998 299.015 727.499 298.841C727.999 298.657 728.526 298.545 729.079 298.506ZM729.813 303.042C728.752 303.159 728.025 303.381 727.631 303.708C727.247 304.034 727.074 304.469 727.112 305.011C727.146 305.49 727.314 305.831 727.617 306.035C727.93 306.237 728.316 306.322 728.773 306.29C729.497 306.24 730.084 306.001 730.536 305.574C730.986 305.136 731.183 304.502 731.125 303.672L731.071 302.906L729.813 303.042Z" fill="#EDEDED"/>
<defs>
<filter id="filter0_f_1076_113" x="431.05" y="0" width="278" height="189" filterUnits="userSpaceOnUse" color-interpolation-filters="sRGB">
<feFlood flood-opacity="0" result="BackgroundImageFix"/>
<feBlend mode="normal" in="SourceGraphic" in2="BackgroundImageFix" result="shape"/>
<feGaussianBlur stdDeviation="25" result="effect1_foregroundBlur_1076_113"/>
</filter>
<filter id="filter1_f_1076_113" x="461.05" y="30" width="218" height="129" filterUnits="userSpaceOnUse" color-interpolation-filters="sRGB">
<feFlood flood-opacity="0" result="BackgroundImageFix"/>
<feBlend mode="normal" in="SourceGraphic" in2="BackgroundImageFix" result="shape"/>
<feGaussianBlur stdDeviation="15" result="effect1_foregroundBlur_1076_113"/>
</filter>
<filter id="filter2_f_1076_113" x="491.05" y="60" width="158" height="69" filterUnits="userSpaceOnUse" color-interpolation-filters="sRGB">
<feFlood flood-opacity="0" result="BackgroundImageFix"/>
<feBlend mode="normal" in="SourceGraphic" in2="BackgroundImageFix" result="shape"/>
<feGaussianBlur stdDeviation="5" result="effect1_foregroundBlur_1076_113"/>
</filter>
<filter id="filter3_f_1076_113" x="491.05" y="60" width="158" height="69" filterUnits="userSpaceOnUse" color-interpolation-filters="sRGB">
<feFlood flood-opacity="0" result="BackgroundImageFix"/>
<feBlend mode="normal" in="SourceGraphic" in2="BackgroundImageFix" result="shape"/>
<feGaussianBlur stdDeviation="5" result="effect1_foregroundBlur_1076_113"/>
</filter>
<filter id="filter4_f_1076_113" x="292.535" y="185.523" width="23.2305" height="23.2305" filterUnits="userSpaceOnUse" color-interpolation-filters="sRGB">
<feFlood flood-opacity="0" result="BackgroundImageFix"/>
<feBlend mode="normal" in="SourceGraphic" in2="BackgroundImageFix" result="shape"/>
<feGaussianBlur stdDeviation="2.5" result="effect1_foregroundBlur_1076_113"/>
</filter>
<filter id="filter5_f_1076_113" x="287.535" y="180.523" width="33.2305" height="33.2305" filterUnits="userSpaceOnUse" color-interpolation-filters="sRGB">
<feFlood flood-opacity="0" result="BackgroundImageFix"/>
<feBlend mode="normal" in="SourceGraphic" in2="BackgroundImageFix" result="shape"/>
<feGaussianBlur stdDeviation="5" result="effect1_foregroundBlur_1076_113"/>
</filter>
<filter id="filter6_f_1076_113" x="441.471" y="106.727" width="176.36" height="166.152" filterUnits="userSpaceOnUse" color-interpolation-filters="sRGB">
<feFlood flood-opacity="0" result="BackgroundImageFix"/>
<feBlend mode="normal" in="SourceGraphic" in2="BackgroundImageFix" result="shape"/>
<feGaussianBlur stdDeviation="25" result="effect1_foregroundBlur_1076_113"/>
</filter>
<filter id="filter7_f_1076_113" x="488.59" y="155.723" width="82.1191" height="75.1523" filterUnits="userSpaceOnUse" color-interpolation-filters="sRGB">
<feFlood flood-opacity="0" result="BackgroundImageFix"/>
<feBlend mode="normal" in="SourceGraphic" in2="BackgroundImageFix" result="shape"/>
<feGaussianBlur stdDeviation="7.5" result="effect1_foregroundBlur_1076_113"/>
</filter>
<filter id="filter8_f_1076_113" x="696.743" y="176.523" width="71.6172" height="58.6914" filterUnits="userSpaceOnUse" color-interpolation-filters="sRGB">
<feFlood flood-opacity="0" result="BackgroundImageFix"/>
<feBlend mode="normal" in="SourceGraphic" in2="BackgroundImageFix" result="shape"/>
<feGaussianBlur stdDeviation="7.5" result="effect1_foregroundBlur_1076_113"/>
</filter>
<filter id="filter9_f_1076_113" x="709.743" y="189.523" width="45.6172" height="32.6914" filterUnits="userSpaceOnUse" color-interpolation-filters="sRGB">
<feFlood flood-opacity="0" result="BackgroundImageFix"/>
<feBlend mode="normal" in="SourceGraphic" in2="BackgroundImageFix" result="shape"/>
<feGaussianBlur stdDeviation="2" result="effect1_foregroundBlur_1076_113"/>
</filter>
<filter id="filter10_f_1076_113" x="57.5332" y="215.301" width="261.463" height="177.035" filterUnits="userSpaceOnUse" color-interpolation-filters="sRGB">
<feFlood flood-opacity="0" result="BackgroundImageFix"/>
<feBlend mode="normal" in="SourceGraphic" in2="BackgroundImageFix" result="shape"/>
<feGaussianBlur stdDeviation="25" result="effect1_foregroundBlur_1076_113"/>
</filter>
<clipPath id="clip0_1076_113">
<rect width="36.1513" height="36.1513" fill="white" transform="translate(183.986 179.062)"/>
</clipPath>
</defs>
</svg>
