<svg width="888" height="267" viewBox="0 0 888 267" fill="none" xmlns="http://www.w3.org/2000/svg">
<rect x="1.75873" y="12.1895" width="128" height="37" rx="7" transform="rotate(-4 1.75873 12.1895)" stroke="#FF6600" stroke-width="2"/>
<path d="M38.1599 33.7045L36.5319 33.8184L33.1692 29.0814L30.4507 34.2436L28.9344 34.3496L32.302 28.1476L28.3769 22.9367L29.973 22.8251L33.0787 27.0989L35.5753 22.4333L37.0916 22.3273L33.9437 28.0007L38.1599 33.7045ZM43.0401 24.6059C44.0935 24.5323 44.9651 24.8402 45.6549 25.5298C46.3553 26.2186 46.7572 27.3025 46.8607 28.7816C46.9284 29.7499 46.8367 30.5796 46.5856 31.2708C46.3445 31.9506 45.9698 32.4794 45.4616 32.8571C44.9632 33.2234 44.3576 33.4315 43.6447 33.4814C43.2084 33.5119 42.8159 33.4805 42.4672 33.3873C42.1186 33.294 41.8155 33.1655 41.5581 33.0018C41.3106 32.8266 41.094 32.6332 40.9081 32.4217L40.8123 32.4284C40.8463 32.6078 40.8835 32.8351 40.9242 33.1102C40.9648 33.3854 40.9922 33.6241 41.0063 33.8263L41.2519 37.3377L39.8473 37.4359L38.9812 25.0501L40.1304 24.9698L40.4034 26.1215L40.4672 26.1171C40.6204 25.8604 40.8069 25.6228 41.0269 25.4043C41.2575 25.185 41.5336 25.0053 41.8553 24.8652C42.1876 24.7243 42.5825 24.6379 43.0401 24.6059ZM42.8673 25.8049C42.2927 25.8451 41.8376 25.9892 41.5021 26.2372C41.1659 26.4745 40.9332 26.8169 40.8041 27.2644C40.675 27.7118 40.6285 28.2711 40.6648 28.9422L40.6838 29.2135C40.7329 29.9158 40.849 30.5065 41.0322 30.9855C41.2154 31.4646 41.4915 31.8195 41.8605 32.0503C42.2401 32.2804 42.7385 32.3739 43.3557 32.3307C43.8771 32.2943 44.2927 32.1209 44.6025 31.8105C44.9229 31.4994 45.1458 31.0935 45.2711 30.5929C45.4064 30.0809 45.4517 29.5056 45.4071 28.8672C45.3386 27.8882 45.0924 27.1195 44.6684 26.5611C44.2551 26.0019 43.6547 25.7498 42.8673 25.8049ZM52.031 23.9933C53.0738 23.9203 53.8612 24.0952 54.3933 24.5177C54.9254 24.9403 55.2265 25.6517 55.2964 26.6519L55.7038 32.4777L54.6823 32.5492L54.3261 31.3551L54.2623 31.3596C54.0391 31.6852 53.802 31.9638 53.5508 32.1952C53.3096 32.4152 53.0221 32.5851 52.6883 32.7046C52.3651 32.8235 51.9641 32.8996 51.4853 32.9331C50.9745 32.9688 50.5053 32.9107 50.0777 32.7589C49.6607 32.6062 49.3221 32.3519 49.062 31.9959C48.8011 31.6292 48.6506 31.1585 48.6104 30.5839C48.5509 29.7327 48.8403 29.0548 49.4787 28.5504C50.1163 28.0353 51.1306 27.7078 52.5215 27.5677L53.9706 27.4183L53.9349 26.9075C53.8851 26.1946 53.6962 25.7106 53.3683 25.4555C53.0403 25.2005 52.5944 25.0926 52.0304 25.1321C51.5835 25.1633 51.1627 25.2622 50.7681 25.4289C50.3726 25.5848 50.0053 25.7602 49.6661 25.955L49.1615 24.9317C49.5198 24.7035 49.9494 24.5024 50.4505 24.3283C50.9509 24.1436 51.4777 24.0319 52.031 23.9933ZM52.7652 28.5291C51.7041 28.6461 50.9765 28.868 50.5823 29.195C50.1988 29.5212 50.026 29.9556 50.064 30.4983C50.0975 30.9771 50.2657 31.3182 50.5686 31.5216C50.8822 31.7242 51.2677 31.8095 51.7253 31.7775C52.4488 31.7269 53.0363 31.4881 53.4876 31.0609C53.9381 30.623 54.1344 29.9891 54.0763 29.1592L54.0228 28.393L52.7652 28.5291ZM59.1524 23.6396L59.4013 27.1989L64.046 26.8742L63.7971 23.3148L65.2017 23.2166L65.7999 31.7717L64.3953 31.87L64.1286 28.0553L59.4839 28.3801L59.7507 32.1947L58.3461 32.293L57.7479 23.7378L59.1524 23.6396ZM71.2033 22.6366C71.9375 22.5852 72.5765 22.7009 73.1202 22.9837C73.6746 23.2657 74.1105 23.6897 74.4281 24.2556C74.7556 24.8101 74.9465 25.4757 75.0008 26.2525L75.0599 27.0984L69.2023 27.508C69.2912 28.4748 69.5877 29.1972 70.0916 29.6753C70.6054 30.1419 71.2879 30.3454 72.1392 30.2859C72.6819 30.248 73.1573 30.1666 73.5656 30.0418C73.9838 29.9056 74.4097 29.7262 74.8432 29.5034L74.9291 30.7324C74.5062 30.9544 74.085 31.1229 73.6653 31.2378C73.2464 31.3633 72.7443 31.4465 72.159 31.4875C71.3504 31.544 70.6206 31.4293 69.9697 31.1433C69.3295 30.8566 68.8111 30.401 68.4146 29.7765C68.0279 29.1406 67.8015 28.3491 67.7353 27.4021C67.6698 26.4657 67.7679 25.6515 68.0296 24.9596C68.302 24.2669 68.7075 23.72 69.2461 23.3187C69.7954 22.9168 70.4478 22.6894 71.2033 22.6366ZM71.2677 23.7869C70.5973 23.8337 70.0806 24.0891 69.7174 24.5529C69.3641 25.0053 69.177 25.6172 69.156 26.3885L73.5134 26.0838C73.4792 25.5943 73.3749 25.1739 73.2007 24.8226C73.0264 24.4712 72.7779 24.2052 72.4552 24.0246C72.1424 23.8326 71.7465 23.7534 71.2677 23.7869ZM78.3244 22.299L78.5733 25.8583L83.2179 25.5335L82.969 21.9742L84.3736 21.876L84.9718 30.4311L83.5673 30.5293L83.3005 26.7146L78.6558 27.0394L78.9226 30.8541L77.518 30.9523L76.9198 22.3972L78.3244 22.299ZM88.7722 26.8132C88.7789 26.909 88.7833 27.0477 88.7853 27.2293C88.7972 27.3995 88.8049 27.5861 88.8084 27.789C88.8111 27.9813 88.8135 28.1683 88.8155 28.3499C88.8168 28.5209 88.8158 28.66 88.8126 28.7671L92.8923 21.2803L94.6161 21.1598L95.2143 29.7149L93.9055 29.8064L93.5528 24.7627C93.5409 24.5925 93.5253 24.369 93.5059 24.0924C93.4972 23.815 93.4889 23.5429 93.4809 23.2761C93.4722 22.9987 93.4684 22.7905 93.4693 22.6514L89.4205 30.12L87.6807 30.2417L87.0825 21.6866L88.4072 21.5939L88.7722 26.8132ZM100.631 20.5787C101.366 20.5274 102.005 20.6431 102.548 20.9259C103.103 21.2079 103.539 21.6318 103.856 22.1977C104.184 22.7522 104.375 23.4179 104.429 24.1947L104.488 25.0406L98.6304 25.4502C98.7194 26.417 99.0158 27.1394 99.5197 27.6174C100.034 28.0841 100.716 28.2876 101.567 28.2281C102.11 28.1901 102.585 28.1088 102.994 27.984C103.412 27.8478 103.838 27.6683 104.271 27.4456L104.357 28.6746C103.934 28.8966 103.513 29.0651 103.093 29.18C102.675 29.3055 102.172 29.3887 101.587 29.4296C100.778 29.4862 100.049 29.3715 99.3978 29.0855C98.7576 28.7988 98.2392 28.3432 97.8427 27.7187C97.4561 27.0828 97.2297 26.2913 97.1634 25.3443C97.098 24.4079 97.1961 23.5937 97.4578 22.9018C97.7301 22.2091 98.1356 21.6621 98.6743 21.2609C99.2236 20.859 99.876 20.6316 100.631 20.5787ZM100.696 21.7291C100.025 21.7759 99.5087 22.0313 99.1455 22.4951C98.7922 22.9475 98.6051 23.5594 98.5842 24.3307L102.942 24.026C102.907 23.5365 102.803 23.1161 102.629 22.7647C102.455 22.4134 102.206 22.1474 101.883 21.9668C101.571 21.7748 101.175 21.6956 100.696 21.7291Z" fill="black"/>
<rect x="254.926" y="1" width="128" height="37" rx="7" stroke="#FF00E6" stroke-width="2"/>
<path d="M278.994 13.576H280.338V19.848C280.338 20.1147 280.332 20.408 280.322 20.728C280.322 21.0373 280.316 21.3467 280.306 21.656C280.295 21.9653 280.279 22.2427 280.258 22.488C280.247 22.7227 280.236 22.904 280.226 23.032H280.29L286.578 13.576H288.178V25H286.834V18.792C286.834 18.504 286.839 18.1947 286.85 17.864C286.86 17.5227 286.871 17.1973 286.882 16.888C286.903 16.568 286.919 16.2853 286.93 16.04C286.94 15.7947 286.951 15.6133 286.962 15.496H286.898L280.594 25H278.994V13.576ZM292.475 16.424V19.992H297.131V16.424H298.539V25H297.131V21.176H292.475V25H291.067V16.424H292.475ZM307.175 17.608H304.375V25H302.983V17.608H300.215V16.424H307.175V17.608ZM312.02 16.264C312.756 16.264 313.385 16.424 313.908 16.744C314.441 17.064 314.846 17.5173 315.124 18.104C315.412 18.68 315.556 19.3573 315.556 20.136V20.984H309.684C309.705 21.9547 309.95 22.696 310.42 23.208C310.9 23.7093 311.566 23.96 312.42 23.96C312.964 23.96 313.444 23.912 313.86 23.816C314.286 23.7093 314.724 23.56 315.172 23.368V24.6C314.734 24.792 314.302 24.9307 313.876 25.016C313.449 25.112 312.942 25.16 312.356 25.16C311.545 25.16 310.825 24.9947 310.196 24.664C309.577 24.3333 309.092 23.8427 308.74 23.192C308.398 22.5307 308.228 21.7253 308.228 20.776C308.228 19.8373 308.382 19.032 308.692 18.36C309.012 17.688 309.454 17.1707 310.02 16.808C310.596 16.4453 311.262 16.264 312.02 16.264ZM312.004 17.416C311.332 17.416 310.798 17.6347 310.404 18.072C310.02 18.4987 309.79 19.096 309.716 19.864H314.084C314.084 19.3733 314.009 18.9467 313.86 18.584C313.71 18.2213 313.481 17.9387 313.172 17.736C312.873 17.5227 312.484 17.416 312.004 17.416ZM324.267 25H322.843V17.592H320.315C320.208 18.9467 320.075 20.104 319.915 21.064C319.755 22.0133 319.552 22.7867 319.307 23.384C319.062 23.9813 318.768 24.4187 318.427 24.696C318.086 24.9733 317.686 25.112 317.227 25.112C317.088 25.112 316.95 25.1013 316.811 25.08C316.683 25.0693 316.576 25.0427 316.491 25V23.944C316.555 23.9653 316.624 23.9813 316.699 23.992C316.774 24.0027 316.848 24.008 316.923 24.008C317.158 24.008 317.371 23.912 317.563 23.72C317.755 23.528 317.926 23.2347 318.075 22.84C318.235 22.4453 318.379 21.9493 318.507 21.352C318.635 20.744 318.747 20.0293 318.843 19.208C318.939 18.3867 319.024 17.4587 319.099 16.424H324.267V25ZM333.517 25H332.093V17.592H329.565C329.458 18.9467 329.325 20.104 329.165 21.064C329.005 22.0133 328.802 22.7867 328.557 23.384C328.312 23.9813 328.018 24.4187 327.677 24.696C327.336 24.9733 326.936 25.112 326.477 25.112C326.338 25.112 326.2 25.1013 326.061 25.08C325.933 25.0693 325.826 25.0427 325.741 25V23.944C325.805 23.9653 325.874 23.9813 325.949 23.992C326.024 24.0027 326.098 24.008 326.173 24.008C326.408 24.008 326.621 23.912 326.813 23.72C327.005 23.528 327.176 23.2347 327.325 22.84C327.485 22.4453 327.629 21.9493 327.757 21.352C327.885 20.744 327.997 20.0293 328.093 19.208C328.189 18.3867 328.274 17.4587 328.349 16.424H333.517V25ZM339.551 16.264C340.287 16.264 340.916 16.424 341.439 16.744C341.972 17.064 342.378 17.5173 342.655 18.104C342.943 18.68 343.087 19.3573 343.087 20.136V20.984H337.215C337.236 21.9547 337.482 22.696 337.951 23.208C338.431 23.7093 339.098 23.96 339.951 23.96C340.495 23.96 340.975 23.912 341.391 23.816C341.818 23.7093 342.255 23.56 342.703 23.368V24.6C342.266 24.792 341.834 24.9307 341.407 25.016C340.98 25.112 340.474 25.16 339.887 25.16C339.076 25.16 338.356 24.9947 337.727 24.664C337.108 24.3333 336.623 23.8427 336.271 23.192C335.93 22.5307 335.759 21.7253 335.759 20.776C335.759 19.8373 335.914 19.032 336.223 18.36C336.543 17.688 336.986 17.1707 337.551 16.808C338.127 16.4453 338.794 16.264 339.551 16.264ZM339.535 17.416C338.863 17.416 338.33 17.6347 337.935 18.072C337.551 18.4987 337.322 19.096 337.247 19.864H341.615C341.615 19.3733 341.54 18.9467 341.391 18.584C341.242 18.2213 341.012 17.9387 340.703 17.736C340.404 17.5227 340.015 17.416 339.535 17.416ZM350.342 16.424H351.878L348.214 20.552L352.182 25H350.55L346.678 20.648V25H345.27V16.424H346.678V20.584L350.342 16.424ZM359.659 17.608H356.859V25H355.467V17.608H352.699V16.424H359.659V17.608Z" fill="black"/>
<rect x="758.123" y="3.26263" width="128" height="37" rx="7" transform="rotate(4 758.123 3.26263)" stroke="#C300FF" stroke-width="2"/>
<path d="M771.465 28.2553L772.262 16.8591L780.817 17.4574L780.02 28.8535L778.599 28.7542L779.308 18.619L773.61 18.2205L772.901 28.3558L771.465 28.2553ZM786.796 20.5861C787.839 20.659 788.594 20.9417 789.063 21.4343C789.531 21.9268 789.73 22.6732 789.66 23.6734L789.252 29.4992L788.231 29.4277L788.044 28.1957L787.981 28.1912C787.714 28.4827 787.441 28.7256 787.16 28.9198C786.89 29.1041 786.582 29.2322 786.235 29.3042C785.898 29.3769 785.49 29.3965 785.012 29.363C784.501 29.3273 784.044 29.2045 783.642 28.9946C783.25 28.7854 782.95 28.4864 782.742 28.0976C782.535 27.6982 782.451 27.2112 782.492 26.6366C782.551 25.7853 782.932 25.1544 783.634 24.7437C784.338 24.3224 785.388 24.1392 786.785 24.1941L788.24 24.2478L788.276 23.737C788.326 23.0241 788.206 22.5185 787.917 22.2203C787.628 21.922 787.201 21.7532 786.637 21.7138C786.19 21.6825 785.76 21.7219 785.346 21.832C784.932 21.9314 784.544 22.0539 784.181 22.1996L783.824 21.1161C784.211 20.9399 784.664 20.8006 785.184 20.6979C785.706 20.5847 786.243 20.5474 786.796 20.5861ZM786.892 25.18C785.825 25.1481 785.074 25.2667 784.638 25.5356C784.213 25.8053 783.981 26.2114 783.943 26.7541C783.91 27.2329 784.029 27.5941 784.3 27.8377C784.583 28.0819 784.953 28.2201 785.41 28.2521C786.134 28.3027 786.749 28.1479 787.255 27.7876C787.762 27.4168 788.045 26.8164 788.103 25.9864L788.156 25.2203L786.892 25.18ZM796.574 21.2538C797.628 21.3275 798.448 21.7537 799.035 22.5326C799.633 23.3122 799.88 24.4415 799.776 25.9206C799.709 26.8889 799.502 27.6978 799.158 28.3473C798.824 28.9869 798.38 29.4584 797.824 29.7617C797.279 30.0551 796.651 30.1769 795.938 30.127C795.501 30.0965 795.117 30.0108 794.785 29.87C794.452 29.7291 794.17 29.5597 793.938 29.3617C793.718 29.1538 793.53 28.9321 793.375 28.6968L793.279 28.6901C793.288 28.8725 793.293 29.1027 793.295 29.3809C793.297 29.659 793.291 29.8992 793.277 30.1014L793.031 33.6128L791.627 33.5146L792.493 21.1288L793.642 21.2092L793.752 22.3877L793.816 22.3922C794.003 22.1594 794.221 21.95 794.469 21.7642C794.728 21.5792 795.027 21.4397 795.365 21.3457C795.714 21.2524 796.117 21.2218 796.574 21.2538ZM796.236 22.4171C795.662 22.3769 795.191 22.4562 794.824 22.6551C794.458 22.8434 794.18 23.1501 793.99 23.5752C793.8 24.0003 793.676 24.5477 793.619 25.2173L793.6 25.4886C793.55 26.1909 793.583 26.792 793.698 27.2919C793.813 27.7918 794.037 28.1817 794.37 28.4616C794.714 28.7423 795.195 28.9042 795.812 28.9474C796.333 28.9838 796.769 28.8699 797.119 28.6057C797.479 28.3422 797.756 27.9713 797.95 27.493C798.156 27.0048 798.28 26.4415 798.325 25.803C798.394 24.8241 798.257 24.0286 797.915 23.4166C797.583 22.8053 797.024 22.4721 796.236 22.4171ZM807.98 23.3987L805.187 23.2033L804.671 30.5773L803.282 30.4802L803.798 23.1062L801.037 22.9131L801.119 21.732L808.062 22.2175L807.98 23.3987ZM811.152 22.4336L810.903 25.9929L815.548 26.3177L815.797 22.7584L817.202 22.8566L816.603 31.4117L815.199 31.3135L815.465 27.4988L810.821 27.174L810.554 30.9887L809.149 30.8905L809.748 22.3354L811.152 22.4336ZM823.226 23.1174C823.96 23.1688 824.576 23.3723 825.075 23.728C825.585 24.0844 825.958 24.5649 826.194 25.1695C826.441 25.7642 826.537 26.4499 826.483 27.2267L826.424 28.0726L820.566 27.663C820.52 28.6328 820.713 29.3894 821.145 29.9329C821.589 30.4665 822.236 30.7631 823.088 30.8226C823.63 30.8606 824.113 30.8462 824.534 30.7794C824.967 30.7028 825.414 30.5843 825.874 30.424L825.788 31.653C825.339 31.814 824.898 31.9222 824.466 31.9776C824.034 32.0436 823.525 32.0561 822.94 32.0152C822.131 31.9587 821.425 31.7435 820.82 31.3698C820.226 30.9967 819.776 30.4734 819.47 29.7998C819.176 29.1162 819.062 28.301 819.128 27.3539C819.193 26.4176 819.404 25.625 819.759 24.9762C820.125 24.3282 820.603 23.843 821.192 23.5206C821.792 23.199 822.47 23.0646 823.226 23.1174ZM823.129 24.2655C822.459 24.2186 821.912 24.3996 821.487 24.8083C821.074 25.2072 820.804 25.787 820.676 26.548L825.033 26.8527C825.068 26.3632 825.023 25.9323 824.899 25.5601C824.776 25.1879 824.566 24.89 824.272 24.6662C823.989 24.4326 823.608 24.299 823.129 24.2655ZM833.001 23.801C834.054 23.8747 834.875 24.3009 835.462 25.0798C836.059 25.8594 836.307 26.9887 836.203 28.4678C836.135 29.4361 835.929 30.245 835.584 30.8945C835.251 31.5341 834.806 32.0056 834.25 32.3089C833.706 32.6023 833.077 32.7241 832.364 32.6742C831.928 32.6437 831.544 32.558 831.211 32.4172C830.879 32.2763 830.597 32.1069 830.365 31.9089C830.144 31.701 829.957 31.4793 829.802 31.244L829.706 31.2373C829.715 31.4197 829.72 31.6499 829.722 31.9281C829.724 32.2062 829.718 32.4464 829.704 32.6486L829.458 36.16L828.054 36.0618L828.92 23.676L830.069 23.7564L830.179 24.9349L830.243 24.9394C830.43 24.7066 830.648 24.4972 830.896 24.3114C831.155 24.1264 831.453 23.9869 831.792 23.8929C832.14 23.7996 832.543 23.769 833.001 23.801ZM832.663 24.9643C832.088 24.9241 831.618 25.0034 831.251 25.2023C830.885 25.3906 830.607 25.6973 830.417 26.1224C830.227 26.5475 830.103 27.0949 830.045 27.7645L830.026 28.0358C829.977 28.7381 830.01 29.3392 830.125 29.8391C830.239 30.339 830.463 30.7289 830.797 31.0088C831.141 31.2895 831.621 31.4514 832.238 31.4946C832.76 31.531 833.195 31.4171 833.545 31.1529C833.906 30.8894 834.183 30.5185 834.377 30.0402C834.582 29.552 834.707 28.9887 834.752 28.3502C834.82 27.3713 834.683 26.5758 834.341 25.9638C834.01 25.3525 833.45 25.0193 832.663 24.9643ZM841.562 33.3174C840.806 33.2645 840.141 33.063 839.567 32.7127C839.003 32.3632 838.574 31.852 838.279 31.1792C837.994 30.507 837.887 29.6655 837.958 28.6546C838.032 27.6012 838.267 26.7569 838.665 26.1217C839.062 25.4866 839.569 25.0355 840.187 24.7686C840.815 24.5025 841.512 24.3962 842.278 24.4497C842.714 24.4802 843.131 24.5575 843.529 24.6815C843.927 24.7949 844.25 24.9244 844.496 25.07L843.984 26.205C843.735 26.0914 843.443 25.9801 843.109 25.8711C842.774 25.7622 842.458 25.6973 842.16 25.6765C841.586 25.6363 841.103 25.7256 840.714 25.9443C840.324 26.163 840.022 26.5054 839.808 26.9716C839.594 27.4378 839.462 28.0273 839.412 28.7402C839.364 29.4212 839.414 30.0075 839.561 30.499C839.709 30.9904 839.955 31.3712 840.3 31.6412C840.644 31.9113 841.088 32.0653 841.631 32.1032C842.099 32.1359 842.512 32.1167 842.87 32.0455C843.238 31.975 843.576 31.881 843.884 31.7636L843.797 33.0085C843.499 33.1374 843.172 33.2268 842.816 33.2767C842.469 33.338 842.051 33.3516 841.562 33.3174ZM852.231 26.493L849.438 26.2977L848.922 33.6717L847.534 33.5746L848.049 26.2006L845.288 26.0075L845.371 24.8264L852.314 25.3119L852.231 26.493ZM860.728 28.0655C860.69 28.5975 860.502 29.0014 860.162 29.277C859.822 29.5526 859.398 29.7261 858.89 29.7976L858.886 29.8614C859.413 29.9731 859.862 30.197 860.234 30.5331C860.607 30.8586 860.771 31.3405 860.727 31.979C860.701 32.3408 860.609 32.6711 860.449 32.97C860.3 33.2697 860.079 33.5215 859.786 33.7257C859.494 33.9298 859.125 34.0804 858.68 34.1776C858.236 34.2641 857.705 34.2858 857.088 34.2427L853.401 33.9848L853.999 25.4297L857.67 25.6864C858.277 25.7288 858.814 25.836 859.284 26.0078C859.764 26.1697 860.132 26.4199 860.386 26.7585C860.652 27.0872 860.766 27.5228 860.728 28.0655ZM859.274 31.8774C859.308 31.3879 859.147 31.0238 858.789 30.7849C858.432 30.5461 857.891 30.4013 857.167 30.3507L855.077 30.2045L854.885 32.9498L857.007 33.0983C857.71 33.1474 858.254 33.0839 858.641 32.9077C859.028 32.721 859.239 32.3775 859.274 31.8774ZM859.295 28.1418C859.323 27.7374 859.195 27.4344 858.909 27.2326C858.635 27.021 858.169 26.8921 857.509 26.846L855.322 26.6931L855.158 29.0394L857.089 29.1744C857.781 29.2228 858.314 29.1639 858.69 28.9976C859.065 28.8314 859.266 28.5461 859.295 28.1418ZM866.445 26.1557C867.488 26.2286 868.244 26.5114 868.712 27.0039C869.18 27.4964 869.379 28.2428 869.309 29.243L868.902 35.0688L867.88 34.9973L867.694 33.7653L867.63 33.7609C867.364 34.0523 867.09 34.2952 866.809 34.4894C866.54 34.6737 866.231 34.8018 865.884 34.8738C865.547 34.9465 865.14 34.9661 864.661 34.9326C864.15 34.8969 863.694 34.7741 863.291 34.5642C862.9 34.355 862.6 34.056 862.392 33.6672C862.184 33.2678 862.101 32.7808 862.141 32.2062C862.2 31.3549 862.581 30.724 863.284 30.3133C863.987 29.892 865.037 29.7088 866.434 29.7637L867.89 29.8174L867.925 29.3066C867.975 28.5937 867.855 28.0881 867.566 27.7899C867.277 27.4916 866.85 27.3228 866.286 27.2834C865.84 27.2521 865.409 27.2915 864.995 27.4016C864.582 27.501 864.194 27.6235 863.831 27.7692L863.473 26.6857C863.86 26.5096 864.313 26.3702 864.834 26.2676C865.355 26.1543 865.892 26.117 866.445 26.1557ZM866.541 30.7496C865.474 30.7177 864.723 30.8363 864.287 31.1052C863.862 31.3749 863.63 31.781 863.592 32.3237C863.559 32.8025 863.678 33.1637 863.95 33.4073C864.232 33.6516 864.602 33.7897 865.059 33.8217C865.783 33.8723 866.398 33.7175 866.904 33.3573C867.411 32.9864 867.694 32.386 867.752 31.556L867.806 30.7899L866.541 30.7496Z" fill="black"/>
<rect x="504.926" y="1" width="128" height="37" rx="7" stroke="#0029CC" stroke-width="2"/>
<path d="M528.502 13.576C529.995 13.576 531.083 13.8693 531.766 14.456C532.448 15.0427 532.79 15.8693 532.79 16.936C532.79 17.4053 532.71 17.8587 532.55 18.296C532.4 18.7227 532.15 19.1067 531.798 19.448C531.446 19.7893 530.976 20.0613 530.39 20.264C529.803 20.456 529.083 20.552 528.23 20.552H526.918V25H525.478V13.576H528.502ZM528.374 14.808H526.918V19.32H528.07C528.795 19.32 529.398 19.2453 529.878 19.096C530.358 18.936 530.715 18.6853 530.95 18.344C531.184 18.0027 531.302 17.5547 531.302 17C531.302 16.264 531.067 15.7147 530.598 15.352C530.128 14.9893 529.387 14.808 528.374 14.808ZM538.221 16.28C539.267 16.28 540.04 16.5093 540.541 16.968C541.043 17.4267 541.293 18.1573 541.293 19.16V25H540.269L539.997 23.784H539.933C539.688 24.0933 539.432 24.3547 539.165 24.568C538.909 24.7707 538.611 24.92 538.269 25.016C537.939 25.112 537.533 25.16 537.053 25.16C536.541 25.16 536.077 25.0693 535.661 24.888C535.256 24.7067 534.936 24.4293 534.701 24.056C534.467 23.672 534.349 23.192 534.349 22.616C534.349 21.7627 534.685 21.1067 535.357 20.648C536.029 20.1787 537.064 19.9227 538.461 19.88L539.917 19.832V19.32C539.917 18.6053 539.763 18.1093 539.453 17.832C539.144 17.5547 538.707 17.416 538.141 17.416C537.693 17.416 537.267 17.4853 536.861 17.624C536.456 17.752 536.077 17.9013 535.725 18.072L535.293 17.016C535.667 16.8133 536.109 16.6427 536.621 16.504C537.133 16.3547 537.667 16.28 538.221 16.28ZM538.637 20.856C537.571 20.8987 536.829 21.0693 536.413 21.368C536.008 21.6667 535.805 22.088 535.805 22.632C535.805 23.112 535.949 23.464 536.237 23.688C536.536 23.912 536.915 24.024 537.373 24.024C538.099 24.024 538.701 23.8267 539.181 23.432C539.661 23.0267 539.901 22.408 539.901 21.576V20.808L538.637 20.856ZM546.198 16.264C546.849 16.264 547.414 16.3547 547.894 16.536C548.374 16.7067 548.747 16.9627 549.014 17.304C549.281 17.6347 549.414 18.04 549.414 18.52C549.414 19.0427 549.27 19.4587 548.982 19.768C548.694 20.0667 548.299 20.2853 547.798 20.424V20.488C548.139 20.584 548.454 20.7173 548.742 20.888C549.03 21.0587 549.259 21.2827 549.43 21.56C549.611 21.8373 549.702 22.1947 549.702 22.632C549.702 23.1013 549.569 23.528 549.302 23.912C549.046 24.296 548.646 24.6 548.102 24.824C547.569 25.048 546.881 25.16 546.038 25.16C545.633 25.16 545.243 25.1387 544.87 25.096C544.507 25.0533 544.177 24.9893 543.878 24.904C543.59 24.8187 543.334 24.7173 543.11 24.6V23.336C543.473 23.5067 543.899 23.6613 544.39 23.8C544.891 23.9387 545.435 24.008 546.022 24.008C546.449 24.008 546.833 23.96 547.174 23.864C547.526 23.768 547.803 23.6187 548.006 23.416C548.209 23.2027 548.31 22.9147 548.31 22.552C548.31 22.2213 548.219 21.9547 548.038 21.752C547.857 21.5387 547.585 21.3787 547.222 21.272C546.87 21.1653 546.417 21.112 545.862 21.112H544.71V19.96H545.638C546.374 19.96 546.961 19.864 547.398 19.672C547.846 19.4693 548.07 19.128 548.07 18.648C548.07 18.2427 547.899 17.9387 547.558 17.736C547.227 17.5333 546.747 17.432 546.118 17.432C545.649 17.432 545.233 17.48 544.87 17.576C544.518 17.6613 544.129 17.7947 543.702 17.976L543.206 16.856C543.665 16.6533 544.145 16.504 544.646 16.408C545.147 16.312 545.665 16.264 546.198 16.264ZM555.866 16.264C556.922 16.264 557.77 16.632 558.41 17.368C559.06 18.104 559.386 19.2133 559.386 20.696C559.386 21.6667 559.236 22.488 558.938 23.16C558.65 23.8213 558.239 24.3227 557.706 24.664C557.183 24.9947 556.564 25.16 555.85 25.16C555.412 25.16 555.023 25.1013 554.682 24.984C554.34 24.8667 554.047 24.7173 553.802 24.536C553.567 24.344 553.364 24.136 553.194 23.912H553.098C553.119 24.0933 553.14 24.3227 553.162 24.6C553.183 24.8773 553.194 25.1173 553.194 25.32V28.84H551.786V16.424H552.938L553.13 17.592H553.194C553.364 17.3467 553.567 17.1227 553.802 16.92C554.047 16.7173 554.335 16.5573 554.666 16.44C555.007 16.3227 555.407 16.264 555.866 16.264ZM555.61 17.448C555.034 17.448 554.57 17.56 554.218 17.784C553.866 17.9973 553.61 18.3227 553.45 18.76C553.29 19.1973 553.204 19.752 553.194 20.424V20.696C553.194 21.4 553.268 21.9973 553.418 22.488C553.567 22.9787 553.818 23.352 554.17 23.608C554.532 23.864 555.023 23.992 555.642 23.992C556.164 23.992 556.591 23.848 556.922 23.56C557.263 23.272 557.514 22.8827 557.674 22.392C557.844 21.8907 557.93 21.32 557.93 20.68C557.93 19.6987 557.738 18.9147 557.354 18.328C556.98 17.7413 556.399 17.448 555.61 17.448ZM564.878 16.28C565.923 16.28 566.696 16.5093 567.198 16.968C567.699 17.4267 567.95 18.1573 567.95 19.16V25H566.926L566.654 23.784H566.59C566.344 24.0933 566.088 24.3547 565.822 24.568C565.566 24.7707 565.267 24.92 564.926 25.016C564.595 25.112 564.19 25.16 563.71 25.16C563.198 25.16 562.734 25.0693 562.318 24.888C561.912 24.7067 561.592 24.4293 561.358 24.056C561.123 23.672 561.006 23.192 561.006 22.616C561.006 21.7627 561.342 21.1067 562.014 20.648C562.686 20.1787 563.72 19.9227 565.118 19.88L566.574 19.832V19.32C566.574 18.6053 566.419 18.1093 566.11 17.832C565.8 17.5547 565.363 17.416 564.798 17.416C564.35 17.416 563.923 17.4853 563.518 17.624C563.112 17.752 562.734 17.9013 562.382 18.072L561.95 17.016C562.323 16.8133 562.766 16.6427 563.278 16.504C563.79 16.3547 564.323 16.28 564.878 16.28ZM565.294 20.856C564.227 20.8987 563.486 21.0693 563.07 21.368C562.664 21.6667 562.462 22.088 562.462 22.632C562.462 23.112 562.606 23.464 562.894 23.688C563.192 23.912 563.571 24.024 564.03 24.024C564.755 24.024 565.358 23.8267 565.838 23.432C566.318 23.0267 566.558 22.408 566.558 21.576V20.808L565.294 20.856ZM570.15 19.848C570.15 18.6 570.273 17.5387 570.518 16.664C570.774 15.7787 571.164 15.0747 571.686 14.552C572.22 14.0187 572.902 13.6613 573.734 13.48C574.428 13.3307 575.105 13.1973 575.766 13.08C576.428 12.9627 577.046 12.856 577.622 12.76L577.862 13.992C577.585 14.0347 577.276 14.088 576.934 14.152C576.593 14.2053 576.246 14.264 575.894 14.328C575.542 14.3813 575.201 14.44 574.87 14.504C574.55 14.5573 574.268 14.6107 574.022 14.664C573.67 14.7387 573.356 14.8667 573.078 15.048C572.801 15.2187 572.561 15.4533 572.358 15.752C572.166 16.0507 572.012 16.4187 571.894 16.856C571.777 17.2933 571.708 17.8107 571.686 18.408H571.782C571.932 18.2053 572.134 17.9973 572.39 17.784C572.657 17.5707 572.972 17.3893 573.334 17.24C573.708 17.0907 574.129 17.016 574.598 17.016C575.345 17.016 575.964 17.1813 576.454 17.512C576.956 17.832 577.329 18.28 577.574 18.856C577.83 19.432 577.958 20.104 577.958 20.872C577.958 21.8213 577.793 22.616 577.462 23.256C577.132 23.896 576.673 24.376 576.086 24.696C575.5 25.0053 574.817 25.16 574.038 25.16C573.452 25.16 572.918 25.048 572.438 24.824C571.958 24.5893 571.548 24.248 571.206 23.8C570.865 23.352 570.604 22.7973 570.422 22.136C570.241 21.4747 570.15 20.712 570.15 19.848ZM574.15 23.992C574.62 23.992 575.025 23.896 575.366 23.704C575.718 23.512 575.99 23.1973 576.182 22.76C576.374 22.3227 576.47 21.7413 576.47 21.016C576.47 20.1413 576.305 19.4533 575.974 18.952C575.654 18.44 575.121 18.184 574.374 18.184C573.905 18.184 573.478 18.2907 573.094 18.504C572.71 18.7067 572.39 18.9413 572.134 19.208C571.878 19.4747 571.697 19.6987 571.59 19.88C571.59 20.4027 571.628 20.9093 571.702 21.4C571.777 21.8907 571.905 22.3333 572.086 22.728C572.278 23.112 572.54 23.4213 572.87 23.656C573.212 23.88 573.638 23.992 574.15 23.992ZM587.632 20.696C587.632 21.4107 587.536 22.0453 587.344 22.6C587.163 23.144 586.896 23.608 586.544 23.992C586.203 24.376 585.782 24.6693 585.28 24.872C584.79 25.064 584.24 25.16 583.632 25.16C583.067 25.16 582.544 25.064 582.064 24.872C581.584 24.6693 581.168 24.376 580.816 23.992C580.464 23.608 580.187 23.144 579.984 22.6C579.792 22.0453 579.696 21.4107 579.696 20.696C579.696 19.7467 579.856 18.9467 580.176 18.296C580.496 17.6347 580.955 17.1333 581.552 16.792C582.15 16.44 582.859 16.264 583.68 16.264C584.459 16.264 585.142 16.44 585.728 16.792C586.326 17.1333 586.79 17.6347 587.12 18.296C587.462 18.9467 587.632 19.7467 587.632 20.696ZM581.152 20.696C581.152 21.368 581.238 21.9547 581.408 22.456C581.59 22.9467 581.867 23.3253 582.24 23.592C582.614 23.8587 583.088 23.992 583.664 23.992C584.24 23.992 584.715 23.8587 585.088 23.592C585.462 23.3253 585.734 22.9467 585.904 22.456C586.086 21.9547 586.176 21.368 586.176 20.696C586.176 20.0133 586.086 19.432 585.904 18.952C585.723 18.472 585.446 18.104 585.072 17.848C584.71 17.5813 584.235 17.448 583.648 17.448C582.774 17.448 582.139 17.736 581.744 18.312C581.35 18.888 581.152 19.6827 581.152 20.696ZM595.628 17.608H592.828V25H591.436V17.608H588.668V16.424H595.628V17.608ZM602.389 16.424H603.925L600.261 20.552L604.229 25H602.597L598.725 20.648V25H597.317V16.424H598.725V20.584L602.389 16.424ZM609.034 16.28C610.079 16.28 610.852 16.5093 611.354 16.968C611.855 17.4267 612.106 18.1573 612.106 19.16V25H611.082L610.81 23.784H610.746C610.5 24.0933 610.244 24.3547 609.978 24.568C609.722 24.7707 609.423 24.92 609.082 25.016C608.751 25.112 608.346 25.16 607.866 25.16C607.354 25.16 606.89 25.0693 606.474 24.888C606.068 24.7067 605.748 24.4293 605.514 24.056C605.279 23.672 605.162 23.192 605.162 22.616C605.162 21.7627 605.498 21.1067 606.17 20.648C606.842 20.1787 607.876 19.9227 609.274 19.88L610.73 19.832V19.32C610.73 18.6053 610.575 18.1093 610.266 17.832C609.956 17.5547 609.519 17.416 608.954 17.416C608.506 17.416 608.079 17.4853 607.674 17.624C607.268 17.752 606.89 17.9013 606.538 18.072L606.106 17.016C606.479 16.8133 606.922 16.6427 607.434 16.504C607.946 16.3547 608.479 16.28 609.034 16.28ZM609.45 20.856C608.383 20.8987 607.642 21.0693 607.226 21.368C606.82 21.6667 606.618 22.088 606.618 22.632C606.618 23.112 606.762 23.464 607.05 23.688C607.348 23.912 607.727 24.024 608.186 24.024C608.911 24.024 609.514 23.8267 609.994 23.432C610.474 23.0267 610.714 22.408 610.714 21.576V20.808L609.45 20.856Z" fill="black"/>
<rect x="99.1278" y="100.589" width="689.313" height="64.8874" rx="12.725" stroke="url(#paint0_linear_1077_203)" stroke-width="0.841565"/>
<path fill-rule="evenodd" clip-rule="evenodd" d="M142.03 117.299C141.916 117.299 141.806 117.345 141.724 117.426C141.643 117.507 141.598 117.617 141.598 117.732V148.882C141.598 149.12 141.792 149.314 142.03 149.314H164.528C164.642 149.314 164.752 149.269 164.834 149.187C164.915 149.106 164.96 148.996 164.96 148.882V117.732C164.96 117.617 164.915 117.507 164.834 117.426C164.752 117.345 164.642 117.299 164.528 117.299H142.03ZM139.002 117.732C139.002 116.058 140.357 114.703 142.03 114.703H164.528C166.201 114.703 167.556 116.058 167.556 117.732V148.882C167.556 149.685 167.237 150.455 166.669 151.023C166.101 151.591 165.331 151.91 164.528 151.91H142.03C141.227 151.91 140.457 151.591 139.889 151.023C139.321 150.455 139.002 149.685 139.002 148.882V117.732Z" fill="#EDEDED" stroke="black"/>
<path d="M160.202 122.922C160.661 122.922 161.101 122.74 161.426 122.415C161.75 122.091 161.932 121.65 161.932 121.191C161.932 120.733 161.75 120.292 161.426 119.968C161.101 119.643 160.661 119.461 160.202 119.461C159.743 119.461 159.303 119.643 158.978 119.968C158.654 120.292 158.471 120.733 158.471 121.191C158.471 121.65 158.654 122.091 158.978 122.415C159.303 122.74 159.743 122.922 160.202 122.922ZM146.358 122.922C146.816 122.922 147.257 122.74 147.581 122.415C147.906 122.091 148.088 121.65 148.088 121.191C148.088 120.733 147.906 120.292 147.581 119.968C147.257 119.643 146.816 119.461 146.358 119.461C145.899 119.461 145.458 119.643 145.134 119.968C144.809 120.292 144.627 120.733 144.627 121.191C144.627 121.65 144.809 122.091 145.134 122.415C145.458 122.74 145.899 122.922 146.358 122.922ZM160.202 147.15C160.661 147.15 161.101 146.967 161.426 146.643C161.75 146.318 161.932 145.878 161.932 145.419C161.932 144.96 161.75 144.52 161.426 144.196C161.101 143.871 160.661 143.689 160.202 143.689C159.743 143.689 159.303 143.871 158.978 144.196C158.654 144.52 158.471 144.96 158.471 145.419C158.471 145.878 158.654 146.318 158.978 146.643C159.303 146.967 159.743 147.15 160.202 147.15ZM146.358 147.15C146.816 147.15 147.257 146.967 147.581 146.643C147.906 146.318 148.088 145.878 148.088 145.419C148.088 144.96 147.906 144.52 147.581 144.196C147.257 143.871 146.816 143.689 146.358 143.689C145.899 143.689 145.458 143.871 145.134 144.196C144.809 144.52 144.627 144.96 144.627 145.419C144.627 145.878 144.809 146.318 145.134 146.643C145.458 146.967 145.899 147.15 146.358 147.15Z" fill="#EDEDED" stroke="black"/>
<path fill-rule="evenodd" clip-rule="evenodd" d="M145.059 131.576C145.059 129.95 145.541 128.361 146.444 127.009C147.347 125.657 148.631 124.603 150.133 123.981C151.635 123.359 153.288 123.196 154.882 123.513C156.477 123.831 157.942 124.613 159.091 125.763C160.241 126.913 161.024 128.377 161.341 129.972C161.658 131.566 161.495 133.219 160.873 134.721C160.251 136.223 159.197 137.507 157.846 138.41C156.494 139.314 154.905 139.796 153.279 139.796C152.934 139.796 152.604 139.659 152.361 139.416C152.118 139.172 151.981 138.842 151.981 138.498C151.981 138.154 152.118 137.823 152.361 137.58C152.604 137.337 152.934 137.2 153.279 137.2C154.391 137.2 155.478 136.87 156.403 136.252C157.328 135.634 158.049 134.756 158.475 133.728C158.901 132.7 159.012 131.569 158.795 130.478C158.578 129.387 158.042 128.385 157.256 127.599C156.469 126.812 155.467 126.276 154.376 126.059C153.285 125.842 152.154 125.954 151.126 126.379C150.099 126.805 149.22 127.526 148.602 128.451C147.984 129.376 147.654 130.463 147.654 131.576C147.654 131.92 147.518 132.25 147.274 132.493C147.031 132.737 146.701 132.874 146.357 132.874C146.012 132.874 145.682 132.737 145.439 132.493C145.195 132.25 145.059 131.92 145.059 131.576Z" fill="#EDEDED" stroke="black"/>
<path fill-rule="evenodd" clip-rule="evenodd" d="M154.195 130.657C154.438 130.9 154.574 131.23 154.574 131.574C154.574 131.918 154.438 132.248 154.195 132.491L149.003 137.683C148.757 137.912 148.432 138.037 148.095 138.031C147.759 138.025 147.438 137.889 147.2 137.651C146.963 137.413 146.826 137.093 146.821 136.756C146.815 136.42 146.939 136.095 147.169 135.849L152.36 130.657C152.604 130.414 152.934 130.277 153.278 130.277C153.621 130.277 153.951 130.414 154.195 130.657Z" fill="#EDEDED" stroke="black"/>
<g clip-path="url(#clip0_1077_203)">
<mask id="mask0_1077_203" style="mask-type:luminance" maskUnits="userSpaceOnUse" x="183" y="114" width="38" height="39">
<path d="M183.986 115.228V151.379H220.138V115.228H183.986Z" fill="white" stroke="white" stroke-width="1.68313"/>
</mask>
<g mask="url(#mask0_1077_203)">
<path fill-rule="evenodd" clip-rule="evenodd" d="M198.674 146.298C198.674 149.106 200.95 151.382 203.758 151.382H215.055C217.863 151.382 220.139 149.106 220.139 146.298V120.314C220.139 117.507 217.863 115.23 215.055 115.23L203.758 115.23C200.95 115.23 198.674 117.507 198.674 120.314V146.298ZM203.758 147.993C202.822 147.993 202.063 147.234 202.063 146.298V120.314C202.063 119.378 202.822 118.62 203.758 118.62H215.055C215.991 118.62 216.749 119.378 216.749 120.314V146.298C216.749 147.234 215.991 147.993 215.055 147.993H203.758Z" fill="#00B6CC"/>
<path d="M190.767 147.993H189.072C188.136 147.993 187.377 147.234 187.377 146.298V143.474H183.988V146.298C183.988 149.106 186.264 151.382 189.072 151.382H190.767V147.993Z" fill="#00B6CC"/>
<path d="M197.545 147.993H193.026V151.382H197.545V147.993Z" fill="#00B6CC"/>
<path d="M193.026 115.23H197.545V118.62H193.026V115.23Z" fill="#00B6CC"/>
<path d="M187.378 123.139V120.314C187.378 119.379 188.136 118.62 189.072 118.62H190.767V115.231L189.072 115.231C186.264 115.231 183.988 117.507 183.988 120.314L183.988 123.139H187.378Z" fill="#00B6CC"/>
<path d="M187.378 134.436V141.214H183.988L183.988 134.436H187.378Z" fill="#00B6CC"/>
<path d="M187.378 132.176V125.398H183.988L183.988 132.176H187.378Z" fill="#00B6CC"/>
</g>
</g>
<line x1="253.63" y1="115.256" x2="253.424" y2="151.363" stroke="#888888" stroke-opacity="0.32" stroke-width="0.841565"/>
<path d="M322.041 132.825C321.959 132.733 320.005 130.567 316.831 128.374C311.999 125.036 307.391 123.815 303.888 123.912C298.857 123.992 294.368 126.371 291.469 128.374C288.295 130.567 286.34 132.733 286.259 132.825C286.14 132.957 286.074 133.129 286.074 133.307C286.074 133.485 286.14 133.657 286.259 133.789C286.34 133.88 288.295 136.047 291.469 138.24C295.205 140.821 299.646 142.706 304.15 142.706C308.655 142.706 313.095 140.821 316.831 138.24C320.005 136.047 321.959 133.88 322.041 133.789C322.16 133.657 322.226 133.485 322.226 133.307C322.225 133.129 322.16 132.957 322.041 132.825ZM312.103 133.307C312.103 137.617 308.656 141.138 304.374 141.257C304.072 141.261 304.227 141.261 303.926 141.257C299.644 141.138 296.197 137.618 296.197 133.307C296.197 128.925 299.762 125.354 304.15 125.354C308.532 125.354 312.103 128.918 312.103 133.307ZM287.798 133.307C290.362 130.721 293.821 128.222 297.405 126.768C293.863 130.42 293.868 136.198 297.405 139.846C293.86 138.407 290.406 135.935 287.798 133.307ZM310.895 139.846C314.437 136.194 314.432 130.416 310.895 126.768C314.44 128.207 317.893 130.679 320.502 133.307C317.938 135.893 314.478 138.392 310.895 139.846Z" fill="#888888" fill-opacity="0.32"/>
<g filter="url(#filter0_f_1077_203)">
<path d="M304.152 128.191C306.974 128.191 309.268 130.485 309.268 133.307C309.268 136.128 306.974 138.422 304.152 138.422C301.331 138.422 299.037 136.128 299.037 133.307C299.037 130.485 301.331 128.191 304.152 128.191ZM304.152 132.638C303.785 132.638 303.483 132.939 303.483 133.307C303.483 133.674 303.785 133.976 304.152 133.976C304.52 133.976 304.821 133.674 304.821 133.307C304.821 132.939 304.52 132.638 304.152 132.638Z" stroke="#00D5FF" stroke-opacity="0.88" stroke-width="3"/>
</g>
<g filter="url(#filter1_f_1077_203)">
<path d="M300.537 133.307C300.537 135.3 302.159 136.922 304.152 136.922C306.146 136.922 307.767 135.3 307.767 133.307C307.767 131.313 306.146 129.691 304.152 129.691C302.159 129.691 300.537 131.313 300.537 133.307ZM306.321 133.307C306.321 134.503 305.348 135.476 304.152 135.476C302.956 135.476 301.983 134.503 301.983 133.307C301.983 132.11 302.956 131.137 304.152 131.137C305.348 131.137 306.321 132.11 306.321 133.307Z" fill="#888888" fill-opacity="0.32"/>
<path d="M304.152 128.191C306.974 128.191 309.268 130.485 309.268 133.307C309.268 136.128 306.974 138.422 304.152 138.422C301.331 138.422 299.037 136.128 299.037 133.307C299.037 130.485 301.331 128.191 304.152 128.191ZM304.152 132.638C303.785 132.638 303.483 132.939 303.483 133.307C303.483 133.674 303.785 133.976 304.152 133.976C304.52 133.976 304.821 133.674 304.821 133.307C304.821 132.939 304.52 132.638 304.152 132.638Z" stroke="#09FF15" stroke-width="3"/>
</g>
<path d="M300.537 133.307C300.537 135.3 302.159 136.922 304.152 136.922C306.146 136.922 307.767 135.3 307.767 133.307C307.767 131.313 306.146 129.691 304.152 129.691C302.159 129.691 300.537 131.313 300.537 133.307ZM306.321 133.307C306.321 134.503 305.348 135.476 304.152 135.476C302.956 135.476 301.983 134.503 301.983 133.307C301.983 132.11 302.956 131.137 304.152 131.137C305.348 131.137 306.321 132.11 306.321 133.307Z" fill="#F8F2F2"/>
<mask id="path-23-inside-1_1077_203" fill="white">
<path d="M341.949 129.995V134.141H347.743C348.179 134.141 348.597 134.315 348.906 134.623C349.215 134.932 349.388 135.35 349.388 135.787C349.388 136.223 349.215 136.642 348.906 136.95C348.597 137.259 348.179 137.432 347.743 137.432H341.949V141.58H350.224C350.66 141.58 351.079 141.754 351.387 142.062C351.696 142.371 351.869 142.789 351.869 143.226C351.869 143.662 351.696 144.081 351.387 144.389C351.079 144.698 350.66 144.871 350.224 144.871H340.304C339.867 144.871 339.449 144.698 339.14 144.389C338.832 144.081 338.658 143.662 338.658 143.226V128.35C338.658 127.913 338.832 127.495 339.14 127.186C339.449 126.878 339.867 126.704 340.304 126.704H350.224C350.66 126.704 351.079 126.878 351.387 127.186C351.696 127.495 351.869 127.913 351.869 128.35C351.869 128.786 351.696 129.205 351.387 129.513C351.079 129.822 350.66 129.995 350.224 129.995H341.949ZM360.142 131.662H355.184C354.748 131.662 354.329 131.836 354.02 132.144C353.712 132.453 353.539 132.871 353.539 133.308C353.539 133.744 353.712 134.163 354.02 134.471C354.329 134.78 354.748 134.953 355.184 134.953H360.142C360.578 134.953 360.997 134.78 361.305 134.471C361.614 134.163 361.787 133.744 361.787 133.308C361.787 132.871 361.614 132.453 361.305 132.144C360.997 131.836 360.578 131.662 360.142 131.662ZM360.142 136.62H355.184C354.748 136.62 354.329 136.794 354.02 137.102C353.712 137.411 353.539 137.829 353.539 138.266C353.539 138.702 353.712 139.121 354.02 139.429C354.329 139.738 354.748 139.911 355.184 139.911H360.142C360.578 139.911 360.997 139.738 361.305 139.429C361.614 139.121 361.787 138.702 361.787 138.266C361.787 137.829 361.614 137.411 361.305 137.102C360.997 136.794 360.578 136.62 360.142 136.62ZM375.498 126.773C375.161 126.671 374.799 126.68 374.468 126.8C374.136 126.919 373.851 127.142 373.655 127.435L370.062 132.821L366.471 127.435C366.275 127.141 365.99 126.918 365.657 126.799C365.325 126.68 364.963 126.671 364.625 126.773C364.287 126.875 363.991 127.084 363.781 127.367C363.57 127.651 363.457 127.995 363.457 128.348V143.226C363.457 143.662 363.63 144.081 363.939 144.389C364.247 144.698 364.666 144.871 365.102 144.871C365.538 144.871 365.957 144.698 366.265 144.389C366.574 144.081 366.747 143.662 366.747 143.226V133.782L368.693 136.699C369.305 137.619 370.821 137.619 371.431 136.699L373.377 133.782V143.226C373.377 143.662 373.55 144.081 373.859 144.389C374.167 144.698 374.586 144.871 375.022 144.871C375.459 144.871 375.877 144.698 376.186 144.389C376.494 144.081 376.667 143.662 376.667 143.226V128.35C376.668 127.997 376.554 127.653 376.343 127.369C376.133 127.085 375.836 126.877 375.498 126.775V126.773ZM383.703 126.702C382.28 126.703 380.916 127.269 379.91 128.275C378.904 129.281 378.338 130.645 378.337 132.068V139.507C378.339 140.93 378.905 142.293 379.911 143.299C380.917 144.305 382.281 144.87 383.703 144.871C385.125 144.869 386.488 144.304 387.494 143.298C388.499 142.293 389.065 140.929 389.067 139.507V138.268C389.067 137.832 388.893 137.413 388.585 137.104C388.276 136.796 387.858 136.623 387.421 136.623C386.985 136.623 386.566 136.796 386.258 137.104C385.949 137.413 385.776 137.832 385.776 138.268V139.507C385.759 140.046 385.532 140.556 385.145 140.931C384.758 141.306 384.241 141.515 383.702 141.515C383.163 141.515 382.645 141.306 382.258 140.931C381.871 140.556 381.645 140.046 381.628 139.507V132.068C381.645 131.53 381.871 131.019 382.258 130.645C382.645 130.27 383.163 130.06 383.702 130.06C384.241 130.06 384.758 130.27 385.145 130.645C385.532 131.019 385.759 131.53 385.776 132.068V133.308C385.776 133.744 385.949 134.163 386.258 134.471C386.566 134.78 386.985 134.953 387.421 134.953C387.858 134.953 388.276 134.78 388.585 134.471C388.893 134.163 389.067 133.744 389.067 133.308V132.068C389.066 130.646 388.5 129.282 387.495 128.276C386.489 127.27 385.125 126.704 383.703 126.702ZM397.342 134.144H395.455L397.335 131.325C398.417 129.701 398.987 127.815 398.987 125.866C398.987 123.594 397.135 121.742 394.863 121.742C392.59 121.742 390.738 123.594 390.738 125.866C390.738 126.303 390.912 126.721 391.22 127.03C391.529 127.338 391.947 127.512 392.384 127.512C392.82 127.512 393.239 127.338 393.547 127.03C393.856 126.721 394.029 126.303 394.029 125.866C394.029 125.645 394.117 125.433 394.273 125.277C394.43 125.121 394.642 125.033 394.863 125.033C395.084 125.033 395.296 125.121 395.452 125.277C395.608 125.433 395.696 125.645 395.696 125.866C395.696 127.163 395.317 128.418 394.597 129.499L391.013 134.874C390.846 135.122 390.75 135.41 390.735 135.708C390.72 136.006 390.786 136.303 390.927 136.566C391.068 136.829 391.277 137.049 391.534 137.202C391.79 137.355 392.083 137.435 392.381 137.434H397.342C397.778 137.434 398.196 137.261 398.505 136.952C398.814 136.644 398.987 136.225 398.987 135.789C398.987 135.353 398.814 134.934 398.505 134.625C398.196 134.317 397.778 134.144 397.342 134.144Z"/>
</mask>
<path d="M341.949 129.995V134.141H347.743C348.179 134.141 348.597 134.315 348.906 134.623C349.215 134.932 349.388 135.35 349.388 135.787C349.388 136.223 349.215 136.642 348.906 136.95C348.597 137.259 348.179 137.432 347.743 137.432H341.949V141.58H350.224C350.66 141.58 351.079 141.754 351.387 142.062C351.696 142.371 351.869 142.789 351.869 143.226C351.869 143.662 351.696 144.081 351.387 144.389C351.079 144.698 350.66 144.871 350.224 144.871H340.304C339.867 144.871 339.449 144.698 339.14 144.389C338.832 144.081 338.658 143.662 338.658 143.226V128.35C338.658 127.913 338.832 127.495 339.14 127.186C339.449 126.878 339.867 126.704 340.304 126.704H350.224C350.66 126.704 351.079 126.878 351.387 127.186C351.696 127.495 351.869 127.913 351.869 128.35C351.869 128.786 351.696 129.205 351.387 129.513C351.079 129.822 350.66 129.995 350.224 129.995H341.949ZM360.142 131.662H355.184C354.748 131.662 354.329 131.836 354.02 132.144C353.712 132.453 353.539 132.871 353.539 133.308C353.539 133.744 353.712 134.163 354.02 134.471C354.329 134.78 354.748 134.953 355.184 134.953H360.142C360.578 134.953 360.997 134.78 361.305 134.471C361.614 134.163 361.787 133.744 361.787 133.308C361.787 132.871 361.614 132.453 361.305 132.144C360.997 131.836 360.578 131.662 360.142 131.662ZM360.142 136.62H355.184C354.748 136.62 354.329 136.794 354.02 137.102C353.712 137.411 353.539 137.829 353.539 138.266C353.539 138.702 353.712 139.121 354.02 139.429C354.329 139.738 354.748 139.911 355.184 139.911H360.142C360.578 139.911 360.997 139.738 361.305 139.429C361.614 139.121 361.787 138.702 361.787 138.266C361.787 137.829 361.614 137.411 361.305 137.102C360.997 136.794 360.578 136.62 360.142 136.62ZM375.498 126.773C375.161 126.671 374.799 126.68 374.468 126.8C374.136 126.919 373.851 127.142 373.655 127.435L370.062 132.821L366.471 127.435C366.275 127.141 365.99 126.918 365.657 126.799C365.325 126.68 364.963 126.671 364.625 126.773C364.287 126.875 363.991 127.084 363.781 127.367C363.57 127.651 363.457 127.995 363.457 128.348V143.226C363.457 143.662 363.63 144.081 363.939 144.389C364.247 144.698 364.666 144.871 365.102 144.871C365.538 144.871 365.957 144.698 366.265 144.389C366.574 144.081 366.747 143.662 366.747 143.226V133.782L368.693 136.699C369.305 137.619 370.821 137.619 371.431 136.699L373.377 133.782V143.226C373.377 143.662 373.55 144.081 373.859 144.389C374.167 144.698 374.586 144.871 375.022 144.871C375.459 144.871 375.877 144.698 376.186 144.389C376.494 144.081 376.667 143.662 376.667 143.226V128.35C376.668 127.997 376.554 127.653 376.343 127.369C376.133 127.085 375.836 126.877 375.498 126.775V126.773ZM383.703 126.702C382.28 126.703 380.916 127.269 379.91 128.275C378.904 129.281 378.338 130.645 378.337 132.068V139.507C378.339 140.93 378.905 142.293 379.911 143.299C380.917 144.305 382.281 144.87 383.703 144.871C385.125 144.869 386.488 144.304 387.494 143.298C388.499 142.293 389.065 140.929 389.067 139.507V138.268C389.067 137.832 388.893 137.413 388.585 137.104C388.276 136.796 387.858 136.623 387.421 136.623C386.985 136.623 386.566 136.796 386.258 137.104C385.949 137.413 385.776 137.832 385.776 138.268V139.507C385.759 140.046 385.532 140.556 385.145 140.931C384.758 141.306 384.241 141.515 383.702 141.515C383.163 141.515 382.645 141.306 382.258 140.931C381.871 140.556 381.645 140.046 381.628 139.507V132.068C381.645 131.53 381.871 131.019 382.258 130.645C382.645 130.27 383.163 130.06 383.702 130.06C384.241 130.06 384.758 130.27 385.145 130.645C385.532 131.019 385.759 131.53 385.776 132.068V133.308C385.776 133.744 385.949 134.163 386.258 134.471C386.566 134.78 386.985 134.953 387.421 134.953C387.858 134.953 388.276 134.78 388.585 134.471C388.893 134.163 389.067 133.744 389.067 133.308V132.068C389.066 130.646 388.5 129.282 387.495 128.276C386.489 127.27 385.125 126.704 383.703 126.702ZM397.342 134.144H395.455L397.335 131.325C398.417 129.701 398.987 127.815 398.987 125.866C398.987 123.594 397.135 121.742 394.863 121.742C392.59 121.742 390.738 123.594 390.738 125.866C390.738 126.303 390.912 126.721 391.22 127.03C391.529 127.338 391.947 127.512 392.384 127.512C392.82 127.512 393.239 127.338 393.547 127.03C393.856 126.721 394.029 126.303 394.029 125.866C394.029 125.645 394.117 125.433 394.273 125.277C394.43 125.121 394.642 125.033 394.863 125.033C395.084 125.033 395.296 125.121 395.452 125.277C395.608 125.433 395.696 125.645 395.696 125.866C395.696 127.163 395.317 128.418 394.597 129.499L391.013 134.874C390.846 135.122 390.75 135.41 390.735 135.708C390.72 136.006 390.786 136.303 390.927 136.566C391.068 136.829 391.277 137.049 391.534 137.202C391.79 137.355 392.083 137.435 392.381 137.434H397.342C397.778 137.434 398.196 137.261 398.505 136.952C398.814 136.644 398.987 136.225 398.987 135.789C398.987 135.353 398.814 134.934 398.505 134.625C398.196 134.317 397.778 134.144 397.342 134.144Z" fill="#888888" fill-opacity="0.32" stroke="#A1A1A1" stroke-width="1.3465" mask="url(#path-23-inside-1_1077_203)"/>
<line x1="432.477" y1="115.256" x2="432.272" y2="151.363" stroke="#888888" stroke-opacity="0.32" stroke-width="0.841565"/>
<path d="M479.107 129.788H490.479L478.164 149.983V136.828H466.794L479.107 116.633V129.788Z" stroke="#FF6600" stroke-width="2.10391"/>
<g filter="url(#filter2_f_1077_203)">
<mask id="path-26-outside-2_1077_203" maskUnits="userSpaceOnUse" x="490.785" y="92.8867" width="78" height="67" fill="black">
<rect fill="white" x="490.785" y="92.8867" width="78" height="67"/>
<path d="M550.516 149.026L520.578 149.039L523.885 143.154C524.708 141.688 526.257 140.779 527.938 140.775L545.729 140.737L550.516 149.026ZM527.187 128.899C528.044 130.346 528.056 132.143 527.219 133.601L518.355 149.026H508.785L523.743 123.094L527.187 128.899ZM527.942 142.09C526.735 142.092 525.623 142.745 525.031 143.798L522.825 147.724L548.239 147.713L544.973 142.055L527.942 142.09ZM511.062 147.712H517.595L526.079 132.945C526.68 131.899 526.671 130.609 526.056 129.57L523.759 125.697L511.062 147.712ZM544.665 138.787L537.915 138.875C536.234 138.897 534.672 138.012 533.826 136.559L524.876 121.183L529.65 112.887L544.665 138.787ZM526.396 121.178L534.961 135.897C535.568 136.941 536.691 137.576 537.898 137.561L542.4 137.502L529.654 115.515L526.396 121.178Z"/>
</mask>
<path d="M550.516 149.026L550.52 159.026L567.833 159.019L559.176 144.026L550.516 149.026ZM520.578 149.039L511.86 144.14L503.485 159.046L520.582 159.039L520.578 149.039ZM523.885 143.154L532.603 148.053L532.603 148.052L523.885 143.154ZM527.938 140.775L527.917 130.775L527.916 130.775L527.938 140.775ZM545.729 140.737L554.39 135.737L551.496 130.725L545.708 130.737L545.729 140.737ZM527.187 128.899L535.788 123.798L535.788 123.798L527.187 128.899ZM527.219 133.601L535.889 138.583L535.89 138.582L527.219 133.601ZM518.355 149.026V159.026H524.143L527.026 154.008L518.355 149.026ZM508.785 149.026L500.123 144.03L491.473 159.026H508.785V149.026ZM523.743 123.094L532.344 117.992L523.623 103.288L515.081 118.097L523.743 123.094ZM527.942 142.09L527.922 132.09L527.921 132.09L527.942 142.09ZM525.031 143.798L533.749 148.697L533.749 148.696L525.031 143.798ZM522.825 147.724L514.107 142.825L505.731 157.731L522.829 157.724L522.825 147.724ZM548.239 147.713L548.243 157.713L565.555 157.706L556.9 142.713L548.239 147.713ZM544.973 142.055L553.633 137.055L550.739 132.043L544.952 132.055L544.973 142.055ZM511.062 147.712L502.399 142.716L493.75 157.712H511.062V147.712ZM517.595 147.712V157.712H523.382L526.265 152.694L517.595 147.712ZM526.079 132.945L534.75 137.927L534.75 137.926L526.079 132.945ZM526.056 129.57L517.454 134.671L517.454 134.671L526.056 129.57ZM523.759 125.697L532.36 120.596L523.639 105.89L515.096 120.701L523.759 125.697ZM544.665 138.787L544.795 148.786L561.891 148.564L553.316 133.772L544.665 138.787ZM537.915 138.875L538.045 148.874L538.045 148.874L537.915 138.875ZM533.826 136.559L525.184 141.589L525.184 141.59L533.826 136.559ZM524.876 121.183L516.209 116.195L513.322 121.211L516.234 126.213L524.876 121.183ZM529.65 112.887L538.302 107.871L529.619 92.8935L520.983 107.899L529.65 112.887ZM526.396 121.178L517.728 116.19L514.842 121.206L517.752 126.207L526.396 121.178ZM534.961 135.897L526.318 140.927L526.318 140.928L534.961 135.897ZM537.898 137.561L537.768 127.561L537.768 127.561L537.898 137.561ZM542.4 137.502L542.531 147.501L559.627 147.279L551.052 132.487L542.4 137.502ZM529.654 115.515L538.306 110.499L529.622 95.5204L520.987 110.527L529.654 115.515ZM550.516 149.026L550.511 139.026L520.574 139.039L520.578 149.039L520.582 159.039L550.52 159.026L550.516 149.026ZM520.578 149.039L529.296 153.938L532.603 148.053L523.885 143.154L515.167 138.256L511.86 144.14L520.578 149.039ZM523.885 143.154L532.603 148.052C531.661 149.729 529.888 150.771 527.961 150.775L527.938 140.775L527.916 130.775C522.626 130.787 517.755 133.648 515.166 138.256L523.885 143.154ZM527.938 140.775L527.96 150.775L545.751 150.737L545.729 140.737L545.708 130.737L527.917 130.775L527.938 140.775ZM545.729 140.737L537.069 145.738L541.856 154.027L550.516 149.026L559.176 144.026L554.39 135.737L545.729 140.737ZM527.187 128.899L518.585 134.001C517.602 132.343 517.59 130.287 518.548 128.619L527.219 133.601L535.89 138.582C538.523 133.998 538.486 128.348 535.788 123.798L527.187 128.899ZM527.219 133.601L518.548 128.619L509.685 144.044L518.355 149.026L527.026 154.008L535.889 138.583L527.219 133.601ZM518.355 149.026V139.026H508.785V149.026V159.026H518.355V149.026ZM508.785 149.026L517.447 154.023L532.405 128.09L523.743 123.094L515.081 118.097L500.123 144.03L508.785 149.026ZM523.743 123.094L515.142 128.195L518.586 134.001L527.187 128.899L535.788 123.798L532.344 117.992L523.743 123.094ZM527.942 142.09L527.921 132.09C523.105 132.1 518.67 134.704 516.313 138.899L525.031 143.798L533.749 148.696C532.575 150.786 530.365 152.085 527.964 152.09L527.942 142.09ZM525.031 143.798L516.313 138.899L514.107 142.825L522.825 147.724L531.543 152.623L533.749 148.697L525.031 143.798ZM522.825 147.724L522.829 157.724L548.243 157.713L548.239 147.713L548.235 137.713L522.821 137.724L522.825 147.724ZM548.239 147.713L556.9 142.713L553.633 137.055L544.973 142.055L536.312 147.055L539.579 152.713L548.239 147.713ZM544.973 142.055L544.952 132.055L527.922 132.09L527.942 142.09L527.963 152.09L544.993 152.055L544.973 142.055ZM511.062 147.712V157.712H517.595V147.712V137.712H511.062V147.712ZM517.595 147.712L526.265 152.694L534.75 137.927L526.079 132.945L517.408 127.963L508.924 142.73L517.595 147.712ZM526.079 132.945L534.75 137.926C537.148 133.752 537.112 128.61 534.657 124.469L526.056 129.57L517.454 134.671C516.23 132.607 516.213 130.045 517.408 127.965L526.079 132.945ZM526.056 129.57L534.657 124.469L532.36 120.596L523.759 125.697L515.158 130.798L517.454 134.671L526.056 129.57ZM523.759 125.697L515.096 120.701L502.399 142.716L511.062 147.712L519.724 152.708L532.421 130.693L523.759 125.697ZM544.665 138.787L544.535 128.788L537.785 128.876L537.915 138.875L538.045 148.874L544.795 148.786L544.665 138.787ZM537.915 138.875L537.785 128.876C539.713 128.851 541.501 129.866 542.468 131.528L533.826 136.559L525.184 141.59C527.843 146.157 532.755 148.943 538.045 148.874L537.915 138.875ZM533.826 136.559L542.469 131.528L533.518 116.152L524.876 121.183L516.234 126.213L525.184 141.589L533.826 136.559ZM524.876 121.183L533.543 126.171L538.318 117.875L529.65 112.887L520.983 107.899L516.209 116.195L524.876 121.183ZM529.65 112.887L520.999 117.902L536.014 143.802L544.665 138.787L553.316 133.772L538.302 107.871L529.65 112.887ZM526.396 121.178L517.752 126.207L526.318 140.927L534.961 135.897L543.604 130.868L535.039 116.148L526.396 121.178ZM534.961 135.897L526.318 140.928C528.742 145.092 533.219 147.623 538.029 147.56L537.898 137.561L537.768 127.561C540.164 127.53 542.395 128.79 543.604 130.867L534.961 135.897ZM537.898 137.561L538.029 147.56L542.531 147.501L542.4 137.502L542.27 127.503L537.768 127.561L537.898 137.561ZM542.4 137.502L551.052 132.487L538.306 110.499L529.654 115.515L521.003 120.53L533.749 142.517L542.4 137.502ZM529.654 115.515L520.987 110.527L517.728 116.19L526.396 121.178L535.063 126.165L538.322 120.502L529.654 115.515Z" fill="#FF00E5" mask="url(#path-26-outside-2_1077_203)"/>
</g>
<g filter="url(#filter3_f_1077_203)">
<mask id="path-28-outside-3_1077_203" maskUnits="userSpaceOnUse" x="502.785" y="106.887" width="53" height="46" fill="black">
<rect fill="white" x="502.785" y="106.887" width="53" height="46"/>
<path d="M550.516 149.026L520.578 149.039L523.885 143.154C524.708 141.688 526.257 140.779 527.938 140.775L545.729 140.737L550.516 149.026ZM527.187 128.899C528.044 130.346 528.056 132.143 527.219 133.601L518.355 149.026H508.785L523.743 123.094L527.187 128.899ZM527.942 142.09C526.735 142.092 525.623 142.745 525.031 143.798L522.825 147.724L548.239 147.713L544.973 142.055L527.942 142.09ZM511.062 147.712H517.595L526.079 132.945C526.68 131.899 526.671 130.609 526.056 129.57L523.759 125.697L511.062 147.712ZM544.665 138.787L537.915 138.875C536.234 138.897 534.672 138.012 533.826 136.559L524.876 121.183L529.65 112.887L544.665 138.787ZM526.396 121.178L534.961 135.897C535.568 136.941 536.691 137.576 537.898 137.561L542.4 137.502L529.654 115.515L526.396 121.178Z"/>
</mask>
<path d="M550.516 149.026L520.578 149.039L523.885 143.154C524.708 141.688 526.257 140.779 527.938 140.775L545.729 140.737L550.516 149.026ZM527.187 128.899C528.044 130.346 528.056 132.143 527.219 133.601L518.355 149.026H508.785L523.743 123.094L527.187 128.899ZM527.942 142.09C526.735 142.092 525.623 142.745 525.031 143.798L522.825 147.724L548.239 147.713L544.973 142.055L527.942 142.09ZM511.062 147.712H517.595L526.079 132.945C526.68 131.899 526.671 130.609 526.056 129.57L523.759 125.697L511.062 147.712ZM544.665 138.787L537.915 138.875C536.234 138.897 534.672 138.012 533.826 136.559L524.876 121.183L529.65 112.887L544.665 138.787ZM526.396 121.178L534.961 135.897C535.568 136.941 536.691 137.576 537.898 137.561L542.4 137.502L529.654 115.515L526.396 121.178Z" fill="#FF00E5"/>
<path d="M550.516 149.026L550.517 152.026L555.711 152.024L553.114 147.526L550.516 149.026ZM520.578 149.039L517.963 147.569L515.45 152.041L520.579 152.039L520.578 149.039ZM523.885 143.154L526.5 144.624L526.5 144.624L523.885 143.154ZM527.938 140.775L527.932 137.775H527.932L527.938 140.775ZM545.729 140.737L548.328 139.237L547.459 137.734L545.723 137.737L545.729 140.737ZM527.187 128.899L529.767 127.369L529.767 127.369L527.187 128.899ZM527.219 133.601L529.82 135.095L529.82 135.095L527.219 133.601ZM518.355 149.026V152.026H520.092L520.957 150.521L518.355 149.026ZM508.785 149.026L506.186 147.527L503.591 152.026H508.785V149.026ZM523.743 123.094L526.323 121.563L523.707 117.152L521.144 121.595L523.743 123.094ZM527.942 142.09L527.936 139.09L527.936 139.09L527.942 142.09ZM525.031 143.798L527.647 145.268L527.647 145.267L525.031 143.798ZM522.825 147.724L520.21 146.254L517.697 150.726L522.826 150.724L522.825 147.724ZM548.239 147.713L548.241 150.713L553.434 150.711L550.837 146.213L548.239 147.713ZM544.973 142.055L547.571 140.555L546.703 139.051L544.966 139.055L544.973 142.055ZM511.062 147.712L508.463 146.213L505.868 150.712H511.062V147.712ZM517.595 147.712V150.712H519.331L520.196 149.206L517.595 147.712ZM526.079 132.945L528.68 134.44L528.681 134.44L526.079 132.945ZM526.056 129.57L523.475 131.101L523.475 131.101L526.056 129.57ZM523.759 125.697L526.339 124.167L523.723 119.755L521.16 124.198L523.759 125.697ZM544.665 138.787L544.704 141.787L549.833 141.72L547.26 137.283L544.665 138.787ZM537.915 138.875L537.954 141.875H537.954L537.915 138.875ZM533.826 136.559L531.233 138.068L531.233 138.068L533.826 136.559ZM524.876 121.183L522.276 119.686L521.41 121.191L522.283 122.692L524.876 121.183ZM529.65 112.887L532.246 111.382L529.641 106.889L527.05 111.39L529.65 112.887ZM526.396 121.178L523.795 119.681L522.929 121.186L523.803 122.687L526.396 121.178ZM534.961 135.897L532.368 137.406L532.368 137.407L534.961 135.897ZM537.898 137.561L537.859 134.561L537.859 134.561L537.898 137.561ZM542.4 137.502L542.439 140.502L547.568 140.435L544.996 135.997L542.4 137.502ZM529.654 115.515L532.25 114.01L529.645 109.516L527.054 114.018L529.654 115.515ZM550.516 149.026L550.514 146.026L520.577 146.039L520.578 149.039L520.579 152.039L550.517 152.026L550.516 149.026ZM520.578 149.039L523.194 150.509L526.5 144.624L523.885 143.154L521.269 141.685L517.963 147.569L520.578 149.039ZM523.885 143.154L526.5 144.624C526.794 144.101 527.347 143.777 527.945 143.775L527.938 140.775L527.932 137.775C525.168 137.782 522.622 139.276 521.269 141.685L523.885 143.154ZM527.938 140.775L527.945 143.775L545.736 143.737L545.729 140.737L545.723 137.737L527.932 137.775L527.938 140.775ZM545.729 140.737L543.131 142.237L547.918 150.526L550.516 149.026L553.114 147.526L548.328 139.237L545.729 140.737ZM527.187 128.899L524.606 130.43C524.912 130.945 524.916 131.586 524.617 132.106L527.219 133.601L529.82 135.095C531.196 132.699 531.177 129.746 529.767 127.369L527.187 128.899ZM527.219 133.601L524.618 132.106L515.754 147.532L518.355 149.026L520.957 150.521L529.82 135.095L527.219 133.601ZM518.355 149.026V146.026H508.785V149.026V152.026H518.355V149.026ZM508.785 149.026L511.384 150.525L526.342 124.593L523.743 123.094L521.144 121.595L506.186 147.527L508.785 149.026ZM523.743 123.094L521.163 124.624L524.606 130.43L527.187 128.899L529.767 127.369L526.323 121.563L523.743 123.094ZM527.942 142.09L527.936 139.09C525.646 139.095 523.537 140.333 522.416 142.328L525.031 143.798L527.647 145.267C527.708 145.158 527.824 145.09 527.949 145.09L527.942 142.09ZM525.031 143.798L522.416 142.328L520.21 146.254L522.825 147.724L525.441 149.193L527.647 145.268L525.031 143.798ZM522.825 147.724L522.826 150.724L548.241 150.713L548.239 147.713L548.238 144.713L522.824 144.724L522.825 147.724ZM548.239 147.713L550.837 146.213L547.571 140.555L544.973 142.055L542.375 143.555L545.641 149.213L548.239 147.713ZM544.973 142.055L544.966 139.055L527.936 139.09L527.942 142.09L527.949 145.09L544.979 145.055L544.973 142.055ZM511.062 147.712V150.712H517.595V147.712V144.712H511.062V147.712ZM517.595 147.712L520.196 149.206L528.68 134.44L526.079 132.945L523.478 131.451L514.994 146.217L517.595 147.712ZM526.079 132.945L528.681 134.44C529.821 132.455 529.804 130.009 528.636 128.04L526.056 129.57L523.475 131.101C523.539 131.208 523.54 131.342 523.478 131.451L526.079 132.945ZM526.056 129.57L528.636 128.04L526.339 124.167L523.759 125.697L521.178 127.228L523.475 131.101L526.056 129.57ZM523.759 125.697L521.16 124.198L508.463 146.213L511.062 147.712L513.66 149.211L526.358 127.196L523.759 125.697ZM544.665 138.787L544.626 135.787L537.876 135.875L537.915 138.875L537.954 141.875L544.704 141.787L544.665 138.787ZM537.915 138.875L537.876 135.875C537.278 135.883 536.721 135.568 536.419 135.049L533.826 136.559L531.233 138.068C532.623 140.455 535.19 141.911 537.954 141.875L537.915 138.875ZM533.826 136.559L536.419 135.049L527.469 119.673L524.876 121.183L522.283 122.692L531.233 138.068L533.826 136.559ZM524.876 121.183L527.476 122.679L532.251 114.383L529.65 112.887L527.05 111.39L522.276 119.686L524.876 121.183ZM529.65 112.887L527.055 114.391L542.07 140.292L544.665 138.787L547.26 137.283L532.246 111.382L529.65 112.887ZM526.396 121.178L523.803 122.687L532.368 137.406L534.961 135.897L537.554 134.389L528.988 119.669L526.396 121.178ZM534.961 135.897L532.368 137.407C533.52 139.386 535.65 140.59 537.938 140.56L537.898 137.561L537.859 134.561C537.733 134.562 537.616 134.496 537.554 134.388L534.961 135.897ZM537.898 137.561L537.937 140.56L542.439 140.502L542.4 137.502L542.361 134.502L537.859 134.561L537.898 137.561ZM542.4 137.502L544.996 135.997L532.25 114.01L529.654 115.515L527.059 117.019L539.805 139.007L542.4 137.502ZM529.654 115.515L527.054 114.018L523.795 119.681L526.396 121.178L528.996 122.674L532.255 117.011L529.654 115.515Z" fill="#FF00E5" mask="url(#path-28-outside-3_1077_203)"/>
</g>
<path d="M550.516 149.026L520.578 149.039L523.885 143.154C524.708 141.688 526.257 140.779 527.938 140.775L545.729 140.737L550.516 149.026ZM527.187 128.899C528.044 130.346 528.056 132.143 527.219 133.601L518.355 149.026H508.785L523.743 123.094L527.187 128.899ZM527.942 142.09C526.735 142.092 525.623 142.745 525.031 143.798L522.825 147.724L548.239 147.713L544.973 142.055L527.942 142.09ZM511.062 147.712H517.595L526.079 132.945C526.68 131.899 526.671 130.609 526.056 129.57L523.759 125.697L511.062 147.712ZM544.665 138.787L537.915 138.875C536.234 138.897 534.672 138.012 533.826 136.559L524.876 121.183L529.65 112.887L544.665 138.787ZM526.396 121.178L534.961 135.897C535.568 136.941 536.691 137.576 537.898 137.561L542.4 137.502L529.654 115.515L526.396 121.178Z" fill="#EDEDED"/>
<line x1="584.007" y1="115.256" x2="583.801" y2="151.363" stroke="#FB66EB" stroke-width="0.841565"/>
<path d="M645.991 115.234H625.007C620.288 115.234 616.449 119.073 616.449 123.792V134.21C616.449 138.55 619.697 142.146 623.89 142.694V150.27C623.89 150.416 623.919 150.561 623.975 150.697C624.031 150.832 624.114 150.955 624.217 151.059C624.321 151.163 624.444 151.245 624.579 151.301C624.715 151.357 624.86 151.386 625.006 151.386C625.297 151.386 625.582 151.273 625.796 151.059L634.088 142.767H645.991C650.709 142.767 654.548 138.928 654.548 134.21V123.792C654.548 119.073 650.709 115.234 645.991 115.234ZM652.316 134.21C652.316 137.697 649.479 140.535 645.991 140.535H633.626C633.33 140.535 633.046 140.652 632.836 140.861L626.123 147.575V141.651C626.123 141.034 625.623 140.535 625.007 140.535C621.519 140.535 618.682 137.697 618.682 134.21V123.792C618.682 120.304 621.519 117.467 625.007 117.467H645.991C649.479 117.467 652.316 120.304 652.316 123.792V134.21Z" fill="#888888" fill-opacity="0.32"/>
<path d="M641.082 129.458C641.082 127.612 642.584 126.109 644.431 126.109C646.277 126.109 647.779 127.612 647.779 129.458C647.779 131.304 646.277 132.806 644.431 132.806C642.584 132.806 641.082 131.304 641.082 129.458Z" fill="#00B6CC"/>
<path d="M642.996 129.461C642.996 128.67 643.639 128.027 644.43 128.027C645.22 128.027 645.863 128.67 645.863 129.461C645.863 130.251 645.22 130.894 644.43 130.894C643.639 130.894 642.996 130.251 642.996 129.461Z" fill="#A1A1A1"/>
<path d="M626.569 126.109C624.723 126.109 623.221 127.612 623.221 129.458C623.221 131.304 624.723 132.806 626.569 132.806C628.416 132.806 629.918 131.304 629.918 129.458C629.918 127.612 628.416 126.109 626.569 126.109ZM626.569 130.574C625.954 130.574 625.453 130.073 625.453 129.458C625.453 128.842 625.954 128.342 626.569 128.342C627.185 128.342 627.685 128.842 627.685 129.458C627.685 130.073 627.185 130.574 626.569 130.574ZM635.499 126.109C633.652 126.109 632.15 127.612 632.15 129.458C632.15 131.304 633.652 132.806 635.499 132.806C637.345 132.806 638.847 131.304 638.847 129.458C638.847 127.612 637.345 126.109 635.499 126.109ZM635.499 130.574C634.883 130.574 634.383 130.073 634.383 129.458C634.383 128.842 634.883 128.342 635.499 128.342C636.114 128.342 636.615 128.842 636.615 129.458C636.615 130.073 636.114 130.574 635.499 130.574Z" fill="#888888" fill-opacity="0.32"/>
<path d="M699.982 125.426L690.122 115.565C690.017 115.46 689.892 115.377 689.755 115.32C689.618 115.264 689.471 115.234 689.323 115.234H674.597C672.603 115.234 670.98 116.857 670.98 118.851V147.769C670.98 149.763 672.603 151.386 674.597 151.386H696.696C698.69 151.386 700.313 149.763 700.313 147.769V126.225C700.313 126.076 700.284 125.929 700.227 125.792C700.17 125.655 700.087 125.531 699.982 125.426ZM690.452 119.092L696.456 125.095H690.452V119.092ZM696.696 149.126H674.597C673.849 149.126 673.24 148.517 673.24 147.769V118.851C673.24 118.103 673.849 117.494 674.597 117.494H688.193V126.225C688.193 126.848 688.699 127.354 689.323 127.354H698.053V147.769C698.053 148.517 697.445 149.126 696.696 149.126ZM693.724 134.004C693.724 134.628 693.218 135.134 692.594 135.134H678.699C678.075 135.134 677.569 134.628 677.569 134.004C677.569 133.38 678.075 132.874 678.699 132.874H692.594C693.218 132.874 693.724 133.38 693.724 134.004ZM693.724 141.714C693.724 142.338 693.218 142.844 692.594 142.844H678.699C678.075 142.844 677.569 142.338 677.569 141.714C677.569 141.09 678.075 140.584 678.699 140.584H692.594C693.218 140.584 693.724 141.09 693.724 141.714Z" fill="#888888" fill-opacity="0.32"/>
<g filter="url(#filter4_f_1077_203)">
<path d="M747.457 132.857C746.954 132.857 746.552 133.354 746.552 133.975V144.14C746.552 146.905 744.727 149.149 742.492 149.149H722.617C720.376 149.149 718.558 146.897 718.558 144.14V133.809C718.558 133.188 718.155 132.691 717.652 132.691C717.149 132.691 716.746 133.188 716.746 133.809V144.14C716.746 148.139 719.383 151.384 722.617 151.384H742.492C745.733 151.384 748.363 148.131 748.363 144.14V133.975C748.363 133.362 747.961 132.857 747.457 132.857Z" fill="#888888" fill-opacity="0.32"/>
<path d="M717.868 130.197C720.066 130.324 721.057 132.37 721.058 133.809V144.141C721.058 144.981 721.337 145.669 721.69 146.105C722.04 146.537 722.383 146.648 722.617 146.648H742.492C742.725 146.648 743.069 146.538 743.419 146.106C743.772 145.672 744.052 144.984 744.052 144.141V133.975C744.052 132.489 745.108 130.358 747.457 130.357C749.816 130.357 750.863 132.51 750.863 133.975V144.141C750.863 148.993 747.58 153.884 742.492 153.884H722.617C717.539 153.884 714.246 149.005 714.246 144.141V133.809C714.246 132.323 715.304 130.191 717.652 130.191L717.868 130.197Z" stroke="#4007FB" stroke-width="5"/>
</g>
<g filter="url(#filter5_f_1077_203)">
<path d="M747.457 132.857C746.954 132.857 746.552 133.354 746.552 133.975V144.14C746.552 146.905 744.727 149.149 742.492 149.149H722.617C720.376 149.149 718.558 146.897 718.558 144.14V133.809C718.558 133.188 718.155 132.691 717.652 132.691C717.149 132.691 716.746 133.188 716.746 133.809V144.14C716.746 148.139 719.383 151.384 722.617 151.384H742.492C745.733 151.384 748.363 148.131 748.363 144.14V133.975C748.363 133.362 747.961 132.857 747.457 132.857Z" fill="#888888" fill-opacity="0.32"/>
<path d="M717.801 131.195C719.311 131.283 720.057 132.705 720.058 133.809V144.141C720.058 146.38 721.485 147.648 722.617 147.648H742.492C743.621 147.648 745.052 146.385 745.052 144.141V133.975C745.052 132.835 745.847 131.358 747.457 131.357C749.074 131.357 749.863 132.851 749.863 133.975V144.141C749.863 148.648 746.841 152.884 742.492 152.884H722.617C718.277 152.884 715.246 148.659 715.246 144.141V133.809C715.246 132.669 716.042 131.191 717.652 131.191L717.801 131.195Z" stroke="#3003F7" stroke-opacity="0.8" stroke-width="3"/>
</g>
<path d="M747.457 132.857C746.954 132.857 746.552 133.354 746.552 133.975V144.14C746.552 146.905 744.727 149.149 742.492 149.149H722.617C720.376 149.149 718.558 146.897 718.558 144.14V133.809C718.558 133.188 718.155 132.691 717.652 132.691C717.149 132.691 716.746 133.188 716.746 133.809V144.14C716.746 148.139 719.383 151.384 722.617 151.384H742.492C745.733 151.384 748.363 148.131 748.363 144.14V133.975C748.363 133.362 747.961 132.857 747.457 132.857Z" fill="#F3EDED"/>
<path d="M731.774 142.512C731.989 142.727 732.279 142.843 732.561 142.843C732.842 142.843 733.132 142.735 733.347 142.512L740.45 135.409C740.889 134.97 740.889 134.266 740.45 133.828C740.011 133.389 739.307 133.389 738.869 133.828L733.678 139.027V116.352C733.678 115.731 733.181 115.234 732.561 115.234C731.94 115.234 731.443 115.731 731.443 116.352V139.027L726.244 133.828C725.805 133.389 725.102 133.389 724.663 133.828C724.224 134.266 724.224 134.97 724.663 135.409L731.774 142.512Z" fill="black"/>
<rect x="129.34" y="216.966" width="128" height="37" rx="7" transform="rotate(4 129.34 216.966)" stroke="#00B6CC" stroke-width="2"/>
<path d="M147.983 230.876L149.323 230.97L148.886 237.226C148.867 237.492 148.842 237.785 148.809 238.103C148.787 238.412 148.76 238.72 148.728 239.028C148.696 239.336 148.66 239.611 148.622 239.854C148.595 240.088 148.572 240.268 148.552 240.395L148.616 240.399L155.548 231.405L157.144 231.517L156.347 242.913L155.007 242.819L155.44 236.626C155.46 236.339 155.487 236.031 155.52 235.701C155.555 235.362 155.588 235.038 155.62 234.73C155.664 234.412 155.7 234.131 155.727 233.887C155.755 233.643 155.779 233.463 155.797 233.347L155.734 233.343L148.782 242.384L147.186 242.272L147.983 230.876ZM161.232 234.657L160.984 238.217L165.628 238.541L165.877 234.982L167.282 235.08L166.683 243.635L165.279 243.537L165.546 239.723L160.901 239.398L160.634 243.212L159.23 243.114L159.828 234.559L161.232 234.657ZM171.395 235.368L171.146 238.927L175.791 239.252L176.04 235.693L177.444 235.791L176.846 244.346L175.442 244.248L175.708 240.433L171.064 240.108L170.797 243.923L169.392 243.825L169.991 235.27L171.395 235.368ZM187.293 240.762C187.243 241.475 187.103 242.101 186.873 242.641C186.654 243.171 186.356 243.616 185.978 243.974C185.611 244.333 185.17 244.597 184.656 244.764C184.153 244.921 183.598 244.979 182.991 244.936C182.427 244.897 181.913 244.765 181.447 244.54C180.983 244.304 180.588 243.982 180.264 243.575C179.939 243.167 179.695 242.685 179.531 242.128C179.378 241.561 179.327 240.921 179.376 240.209C179.443 239.262 179.658 238.475 180.023 237.848C180.388 237.21 180.881 236.742 181.5 236.444C182.121 236.134 182.841 236.008 183.66 236.065C184.437 236.12 185.105 236.343 185.666 236.735C186.238 237.117 186.666 237.649 186.95 238.332C187.245 239.005 187.359 239.815 187.293 240.762ZM180.829 240.31C180.782 240.98 180.826 241.572 180.961 242.084C181.108 242.586 181.358 242.983 181.712 243.275C182.066 243.567 182.53 243.733 183.105 243.773C183.679 243.813 184.162 243.714 184.553 243.474C184.944 243.234 185.242 242.875 185.447 242.397C185.662 241.91 185.794 241.331 185.841 240.661C185.888 239.98 185.838 239.393 185.691 238.902C185.544 238.41 185.293 238.024 184.938 237.742C184.595 237.451 184.131 237.285 183.545 237.244C182.673 237.183 182.02 237.426 181.586 237.973C181.152 238.52 180.9 239.299 180.829 240.31ZM196.546 239.292C196.508 239.824 196.32 240.228 195.98 240.503C195.64 240.779 195.216 240.953 194.708 241.024L194.704 241.088C195.231 241.2 195.68 241.423 196.052 241.76C196.425 242.085 196.589 242.567 196.545 243.205C196.519 243.567 196.427 243.898 196.267 244.196C196.118 244.496 195.897 244.748 195.605 244.952C195.312 245.156 194.944 245.307 194.498 245.404C194.054 245.491 193.523 245.512 192.906 245.469L189.219 245.211L189.817 236.656L193.488 236.913C194.095 236.955 194.633 237.062 195.102 237.234C195.582 237.396 195.95 237.646 196.204 237.985C196.47 238.314 196.584 238.749 196.546 239.292ZM195.092 243.104C195.126 242.614 194.965 242.25 194.607 242.011C194.25 241.773 193.709 241.628 192.986 241.577L190.895 241.431L190.703 244.176L192.826 244.325C193.528 244.374 194.072 244.31 194.459 244.134C194.846 243.947 195.057 243.604 195.092 243.104ZM195.113 239.368C195.141 238.964 195.013 238.661 194.727 238.459C194.453 238.247 193.987 238.119 193.327 238.072L191.14 237.92L190.976 240.266L192.907 240.401C193.599 240.449 194.133 240.39 194.508 240.224C194.883 240.058 195.085 239.773 195.113 239.368ZM202.264 237.382C203.306 237.455 204.062 237.738 204.53 238.23C204.998 238.723 205.197 239.469 205.127 240.469L204.72 246.295L203.698 246.224L203.512 244.992L203.448 244.987C203.182 245.279 202.908 245.522 202.627 245.716C202.358 245.9 202.049 246.028 201.702 246.1C201.366 246.173 200.958 246.193 200.479 246.159C199.968 246.123 199.512 246.001 199.109 245.791C198.718 245.581 198.418 245.282 198.21 244.894C198.002 244.494 197.919 244.007 197.959 243.433C198.019 242.581 198.399 241.95 199.102 241.54C199.805 241.118 200.855 240.935 202.252 240.99L203.708 241.044L203.743 240.533C203.793 239.82 203.674 239.315 203.384 239.016C203.095 238.718 202.668 238.549 202.105 238.51C201.658 238.479 201.227 238.518 200.813 238.628C200.4 238.727 200.012 238.85 199.649 238.996L199.291 237.912C199.678 237.736 200.131 237.597 200.652 237.494C201.173 237.381 201.71 237.343 202.264 237.382ZM202.359 241.976C201.292 241.944 200.541 242.063 200.105 242.332C199.68 242.601 199.448 243.007 199.41 243.55C199.377 244.029 199.496 244.39 199.768 244.634C200.05 244.878 200.42 245.016 200.877 245.048C201.601 245.099 202.216 244.944 202.722 244.584C203.229 244.213 203.512 243.612 203.57 242.782L203.624 242.016L202.359 241.976ZM215.598 250.039L214.225 249.943L214.433 246.974L207.362 246.48L207.96 237.925L209.365 238.023L208.849 245.397L213.27 245.706L213.786 238.332L215.191 238.43L214.674 245.82L215.887 245.905L215.598 250.039ZM219.005 243.942C218.998 244.038 218.983 244.176 218.96 244.356C218.948 244.526 218.93 244.712 218.905 244.913C218.881 245.104 218.857 245.29 218.834 245.47C218.811 245.639 218.791 245.777 218.773 245.883L223.855 239.036L225.579 239.157L224.98 247.712L223.672 247.62L224.024 242.577C224.036 242.407 224.052 242.183 224.071 241.906C224.101 241.631 224.131 241.36 224.16 241.095C224.19 240.819 224.215 240.612 224.236 240.474L219.187 247.307L217.447 247.185L218.045 238.63L219.37 238.723L219.005 243.942ZM229.261 244.659C229.254 244.755 229.239 244.893 229.216 245.073C229.204 245.243 229.186 245.429 229.161 245.631C229.137 245.821 229.113 246.007 229.09 246.187C229.068 246.356 229.047 246.494 229.029 246.6L234.111 239.754L235.835 239.874L235.237 248.429L233.928 248.338L234.281 243.294C234.292 243.124 234.308 242.9 234.327 242.624C234.357 242.348 234.387 242.077 234.416 241.812C234.446 241.536 234.471 241.329 234.492 241.192L229.443 248.024L227.703 247.902L228.301 239.347L229.626 239.44L229.261 244.659Z" fill="black"/>
<rect x="379.926" y="228.059" width="128" height="37" rx="7" stroke="#00B6CC" stroke-width="2"/>
<path d="M391.478 252.059V240.635H398.262V241.899H392.918V245.467H394.614C395.755 245.467 396.64 245.611 397.27 245.899C397.899 246.176 398.336 246.56 398.582 247.051C398.827 247.531 398.95 248.085 398.95 248.715C398.95 249.408 398.811 250.005 398.534 250.507C398.267 251.008 397.83 251.392 397.222 251.659C396.614 251.925 395.814 252.059 394.822 252.059H391.478ZM394.678 250.827C395.702 250.827 396.422 250.656 396.838 250.315C397.254 249.963 397.462 249.429 397.462 248.715C397.462 248.224 397.36 247.835 397.158 247.547C396.966 247.248 396.646 247.035 396.198 246.907C395.76 246.779 395.174 246.715 394.438 246.715H392.918V250.827H394.678ZM404.442 243.323C405.178 243.323 405.807 243.483 406.33 243.803C406.863 244.123 407.268 244.576 407.546 245.163C407.834 245.739 407.978 246.416 407.978 247.195V248.043H402.106C402.127 249.013 402.372 249.755 402.842 250.267C403.322 250.768 403.988 251.019 404.842 251.019C405.386 251.019 405.866 250.971 406.282 250.875C406.708 250.768 407.146 250.619 407.594 250.427V251.659C407.156 251.851 406.724 251.989 406.298 252.075C405.871 252.171 405.364 252.219 404.778 252.219C403.967 252.219 403.247 252.053 402.618 251.723C401.999 251.392 401.514 250.901 401.162 250.251C400.82 249.589 400.65 248.784 400.65 247.835C400.65 246.896 400.804 246.091 401.114 245.419C401.434 244.747 401.876 244.229 402.442 243.867C403.018 243.504 403.684 243.323 404.442 243.323ZM404.426 244.475C403.754 244.475 403.22 244.693 402.826 245.131C402.442 245.557 402.212 246.155 402.138 246.923H406.506C406.506 246.432 406.431 246.005 406.282 245.643C406.132 245.28 405.903 244.997 405.594 244.795C405.295 244.581 404.906 244.475 404.426 244.475ZM412.417 243.323C413.067 243.323 413.633 243.413 414.113 243.595C414.593 243.765 414.966 244.021 415.233 244.363C415.499 244.693 415.633 245.099 415.633 245.579C415.633 246.101 415.489 246.517 415.201 246.827C414.913 247.125 414.518 247.344 414.017 247.483V247.547C414.358 247.643 414.673 247.776 414.961 247.947C415.249 248.117 415.478 248.341 415.649 248.619C415.83 248.896 415.921 249.253 415.921 249.691C415.921 250.16 415.787 250.587 415.521 250.971C415.265 251.355 414.865 251.659 414.321 251.883C413.787 252.107 413.099 252.219 412.257 252.219C411.851 252.219 411.462 252.197 411.089 252.155C410.726 252.112 410.395 252.048 410.097 251.963C409.809 251.877 409.553 251.776 409.329 251.659V250.395C409.691 250.565 410.118 250.72 410.609 250.859C411.11 250.997 411.654 251.067 412.241 251.067C412.667 251.067 413.051 251.019 413.393 250.923C413.745 250.827 414.022 250.677 414.225 250.475C414.427 250.261 414.529 249.973 414.529 249.611C414.529 249.28 414.438 249.013 414.257 248.811C414.075 248.597 413.803 248.437 413.441 248.331C413.089 248.224 412.635 248.171 412.081 248.171H410.929V247.019H411.857C412.593 247.019 413.179 246.923 413.617 246.731C414.065 246.528 414.289 246.187 414.289 245.707C414.289 245.301 414.118 244.997 413.777 244.795C413.446 244.592 412.966 244.491 412.337 244.491C411.867 244.491 411.451 244.539 411.089 244.635C410.737 244.72 410.347 244.853 409.921 245.035L409.425 243.915C409.883 243.712 410.363 243.563 410.865 243.467C411.366 243.371 411.883 243.323 412.417 243.323ZM425.461 247.755C425.461 248.469 425.365 249.104 425.173 249.659C424.991 250.203 424.725 250.667 424.373 251.051C424.031 251.435 423.61 251.728 423.109 251.931C422.618 252.123 422.069 252.219 421.461 252.219C420.895 252.219 420.373 252.123 419.893 251.931C419.413 251.728 418.997 251.435 418.645 251.051C418.293 250.667 418.015 250.203 417.813 249.659C417.621 249.104 417.525 248.469 417.525 247.755C417.525 246.805 417.685 246.005 418.005 245.355C418.325 244.693 418.783 244.192 419.381 243.851C419.978 243.499 420.687 243.323 421.509 243.323C422.287 243.323 422.97 243.499 423.557 243.851C424.154 244.192 424.618 244.693 424.949 245.355C425.29 246.005 425.461 246.805 425.461 247.755ZM418.981 247.755C418.981 248.427 419.066 249.013 419.237 249.515C419.418 250.005 419.695 250.384 420.069 250.651C420.442 250.917 420.917 251.051 421.493 251.051C422.069 251.051 422.543 250.917 422.917 250.651C423.29 250.384 423.562 250.005 423.733 249.515C423.914 249.013 424.005 248.427 424.005 247.755C424.005 247.072 423.914 246.491 423.733 246.011C423.551 245.531 423.274 245.163 422.901 244.907C422.538 244.64 422.063 244.507 421.477 244.507C420.602 244.507 419.967 244.795 419.573 245.371C419.178 245.947 418.981 246.741 418.981 247.755ZM434.94 243.483V252.059H433.532V244.683H429.1V252.059H427.692V243.483H434.94ZM440.924 243.339C441.97 243.339 442.743 243.568 443.244 244.027C443.746 244.485 443.996 245.216 443.996 246.219V252.059H442.972L442.7 250.843H442.636C442.391 251.152 442.135 251.413 441.868 251.627C441.612 251.829 441.314 251.979 440.972 252.075C440.642 252.171 440.236 252.219 439.756 252.219C439.244 252.219 438.78 252.128 438.364 251.947C437.959 251.765 437.639 251.488 437.404 251.115C437.17 250.731 437.052 250.251 437.052 249.675C437.052 248.821 437.388 248.165 438.06 247.707C438.732 247.237 439.767 246.981 441.164 246.939L442.62 246.891V246.379C442.62 245.664 442.466 245.168 442.156 244.891C441.847 244.613 441.41 244.475 440.844 244.475C440.396 244.475 439.97 244.544 439.564 244.683C439.159 244.811 438.78 244.96 438.428 245.131L437.996 244.075C438.37 243.872 438.812 243.701 439.324 243.563C439.836 243.413 440.37 243.339 440.924 243.339ZM441.34 247.915C440.274 247.957 439.532 248.128 439.116 248.427C438.711 248.725 438.508 249.147 438.508 249.691C438.508 250.171 438.652 250.523 438.94 250.747C439.239 250.971 439.618 251.083 440.076 251.083C440.802 251.083 441.404 250.885 441.884 250.491C442.364 250.085 442.604 249.467 442.604 248.635V247.867L441.34 247.915ZM450.085 252.219C449.328 252.219 448.65 252.064 448.053 251.755C447.466 251.445 447.002 250.965 446.661 250.315C446.33 249.664 446.165 248.832 446.165 247.819C446.165 246.763 446.341 245.904 446.693 245.243C447.045 244.581 447.52 244.096 448.117 243.787C448.725 243.477 449.413 243.323 450.181 243.323C450.618 243.323 451.04 243.371 451.445 243.467C451.85 243.552 452.181 243.659 452.437 243.787L452.005 244.955C451.749 244.859 451.45 244.768 451.109 244.683C450.768 244.597 450.448 244.555 450.149 244.555C449.573 244.555 449.098 244.677 448.725 244.923C448.352 245.168 448.074 245.531 447.893 246.011C447.712 246.491 447.621 247.088 447.621 247.803C447.621 248.485 447.712 249.067 447.893 249.547C448.074 250.027 448.346 250.389 448.709 250.635C449.072 250.88 449.525 251.003 450.069 251.003C450.538 251.003 450.949 250.955 451.301 250.859C451.664 250.763 451.994 250.645 452.293 250.507V251.755C452.005 251.904 451.685 252.016 451.333 252.091C450.992 252.176 450.576 252.219 450.085 252.219ZM455.741 243.483V247.051H460.397V243.483H461.805V252.059H460.397V248.235H455.741V252.059H454.333V243.483H455.741ZM471.976 247.755C471.976 248.469 471.88 249.104 471.688 249.659C471.507 250.203 471.24 250.667 470.888 251.051C470.547 251.435 470.125 251.728 469.624 251.931C469.133 252.123 468.584 252.219 467.976 252.219C467.411 252.219 466.888 252.123 466.408 251.931C465.928 251.728 465.512 251.435 465.16 251.051C464.808 250.667 464.531 250.203 464.328 249.659C464.136 249.104 464.04 248.469 464.04 247.755C464.04 246.805 464.2 246.005 464.52 245.355C464.84 244.693 465.299 244.192 465.896 243.851C466.493 243.499 467.203 243.323 468.024 243.323C468.803 243.323 469.485 243.499 470.072 243.851C470.669 244.192 471.133 244.693 471.464 245.355C471.805 246.005 471.976 246.805 471.976 247.755ZM465.496 247.755C465.496 248.427 465.581 249.013 465.752 249.515C465.933 250.005 466.211 250.384 466.584 250.651C466.957 250.917 467.432 251.051 468.008 251.051C468.584 251.051 469.059 250.917 469.432 250.651C469.805 250.384 470.077 250.005 470.248 249.515C470.429 249.013 470.52 248.427 470.52 247.755C470.52 247.072 470.429 246.491 470.248 246.011C470.067 245.531 469.789 245.163 469.416 244.907C469.053 244.64 468.579 244.507 467.992 244.507C467.117 244.507 466.483 244.795 466.088 245.371C465.693 245.947 465.496 246.741 465.496 247.755ZM477.648 252.219C476.89 252.219 476.213 252.064 475.616 251.755C475.029 251.445 474.565 250.965 474.224 250.315C473.893 249.664 473.728 248.832 473.728 247.819C473.728 246.763 473.904 245.904 474.256 245.243C474.608 244.581 475.082 244.096 475.68 243.787C476.288 243.477 476.976 243.323 477.744 243.323C478.181 243.323 478.602 243.371 479.008 243.467C479.413 243.552 479.744 243.659 480 243.787L479.568 244.955C479.312 244.859 479.013 244.768 478.672 244.683C478.33 244.597 478.01 244.555 477.712 244.555C477.136 244.555 476.661 244.677 476.288 244.923C475.914 245.168 475.637 245.531 475.456 246.011C475.274 246.491 475.184 247.088 475.184 247.803C475.184 248.485 475.274 249.067 475.456 249.547C475.637 250.027 475.909 250.389 476.272 250.635C476.634 250.88 477.088 251.003 477.632 251.003C478.101 251.003 478.512 250.955 478.864 250.859C479.226 250.763 479.557 250.645 479.856 250.507V251.755C479.568 251.904 479.248 252.016 478.896 252.091C478.554 252.176 478.138 252.219 477.648 252.219ZM487.815 244.667H485.015V252.059H483.623V244.667H480.855V243.483H487.815V244.667ZM493.457 247.003C494.203 247.003 494.822 247.093 495.313 247.275C495.803 247.456 496.171 247.728 496.417 248.091C496.673 248.443 496.801 248.891 496.801 249.435C496.801 249.968 496.678 250.432 496.433 250.827C496.198 251.221 495.83 251.525 495.329 251.739C494.827 251.952 494.182 252.059 493.393 252.059H489.505V243.483H490.913V247.003H493.457ZM495.393 249.515C495.393 248.992 495.206 248.64 494.833 248.459C494.47 248.267 493.958 248.171 493.297 248.171H490.913V250.923H493.329C493.926 250.923 494.417 250.816 494.801 250.603C495.195 250.389 495.393 250.027 495.393 249.515Z" fill="black"/>
<rect x="630.542" y="225.897" width="128" height="37" rx="7" transform="rotate(-4 630.542 225.897)" stroke="#00B6CC" stroke-width="2"/>
<path d="M671.508 247.09L669.784 247.211L664.225 241.793L664.629 247.571L663.192 247.672L662.395 236.275L663.832 236.175L664.218 241.697L668.86 235.823L670.488 235.71L665.927 241.594L671.508 247.09ZM680.005 242.181C680.055 242.894 680.003 243.534 679.85 244.101C679.707 244.656 679.474 245.138 679.149 245.545C678.836 245.952 678.436 246.274 677.95 246.511C677.474 246.737 676.932 246.871 676.326 246.914C675.762 246.953 675.234 246.894 674.742 246.736C674.249 246.567 673.813 246.303 673.435 245.945C673.057 245.586 672.748 245.143 672.508 244.614C672.278 244.074 672.138 243.448 672.088 242.735C672.022 241.788 672.126 240.979 672.4 240.307C672.673 239.625 673.095 239.093 673.667 238.711C674.239 238.318 674.934 238.093 675.753 238.036C676.53 237.982 677.223 238.11 677.833 238.42C678.453 238.719 678.951 239.186 679.327 239.823C679.713 240.448 679.939 241.234 680.005 242.181ZM673.541 242.633C673.587 243.304 673.714 243.883 673.919 244.371C674.134 244.848 674.437 245.207 674.828 245.447C675.219 245.686 675.702 245.786 676.276 245.746C676.851 245.706 677.315 245.54 677.669 245.248C678.023 244.956 678.268 244.559 678.404 244.058C678.55 243.545 678.599 242.953 678.552 242.283C678.505 241.602 678.374 241.028 678.159 240.562C677.945 240.096 677.643 239.748 677.252 239.519C676.872 239.278 676.389 239.178 675.804 239.219C674.931 239.28 674.318 239.612 673.965 240.214C673.611 240.816 673.47 241.623 673.541 242.633ZM691.11 237.122L691.709 245.678L690.448 245.766L690.066 240.307C690.05 240.084 690.039 239.849 690.033 239.604C690.037 239.357 690.042 239.117 690.047 238.881L689.999 238.884L687.687 245.959L686.505 246.041L683.311 239.352L683.263 239.355C683.301 239.588 683.328 239.827 683.345 240.071C683.373 240.315 683.396 240.565 683.414 240.82L683.792 246.231L682.531 246.319L681.933 237.764L683.8 237.634L686.979 244.324L689.243 237.253L691.11 237.122ZM697.071 236.561C698.114 236.488 698.902 236.663 699.434 237.086C699.966 237.508 700.267 238.22 700.337 239.22L700.744 245.046L699.723 245.117L699.366 243.923L699.303 243.928C699.079 244.253 698.842 244.532 698.591 244.763C698.35 244.983 698.062 245.153 697.729 245.273C697.405 245.391 697.004 245.468 696.526 245.501C696.015 245.537 695.546 245.479 695.118 245.327C694.701 245.174 694.362 244.92 694.102 244.564C693.841 244.197 693.691 243.727 693.651 243.152C693.591 242.301 693.881 241.623 694.519 241.118C695.157 240.603 696.171 240.276 697.562 240.136L699.011 239.986L698.975 239.476C698.925 238.763 698.737 238.279 698.409 238.024C698.081 237.768 697.635 237.661 697.071 237.7C696.624 237.731 696.203 237.83 695.808 237.997C695.413 238.153 695.046 238.328 694.706 238.523L694.202 237.5C694.56 237.271 694.99 237.07 695.491 236.896C695.991 236.712 696.518 236.6 697.071 236.561ZM697.806 241.097C696.744 241.214 696.017 241.436 695.623 241.763C695.239 242.089 695.066 242.524 695.104 243.066C695.138 243.545 695.306 243.886 695.609 244.09C695.923 244.292 696.308 244.378 696.766 244.346C697.489 244.295 698.077 244.056 698.528 243.629C698.978 243.191 699.175 242.557 699.117 241.727L699.063 240.961L697.806 241.097ZM704.193 236.208L704.442 239.767L709.086 239.442L708.837 235.883L710.242 235.785L710.84 244.34L709.436 244.438L709.169 240.623L704.524 240.948L704.791 244.763L703.386 244.861L702.788 236.306L704.193 236.208ZM719.303 235.151L719.819 242.525L721.064 242.438L721.354 246.588L719.997 246.683L719.79 243.714L713.836 244.13L714.044 247.099L712.703 247.193L712.413 243.043L713.099 242.995C713.541 242.28 713.894 241.512 714.157 240.691C714.431 239.86 714.617 239.002 714.715 238.118C714.824 237.223 714.853 236.339 714.802 235.466L719.303 235.151ZM716.124 236.48C716.132 237.207 716.073 237.965 715.947 238.754C715.819 239.533 715.636 240.283 715.398 241.006C715.171 241.727 714.889 242.357 714.552 242.893L718.462 242.62L718.024 236.347L716.124 236.48ZM725.455 234.576C726.498 234.504 727.285 234.678 727.818 235.101C728.35 235.524 728.651 236.235 728.721 237.235L729.128 243.061L728.106 243.132L727.75 241.938L727.686 241.943C727.463 242.268 727.226 242.547 726.975 242.778C726.734 242.998 726.446 243.168 726.112 243.288C725.789 243.407 725.388 243.483 724.909 243.516C724.399 243.552 723.93 243.494 723.502 243.342C723.085 243.189 722.746 242.935 722.486 242.579C722.225 242.212 722.075 241.742 722.035 241.167C721.975 240.316 722.264 239.638 722.903 239.134C723.54 238.619 724.555 238.291 725.946 238.151L727.395 238.002L727.359 237.491C727.309 236.778 727.12 236.294 726.792 236.039C726.465 235.784 726.019 235.676 725.455 235.715C725.008 235.747 724.587 235.845 724.192 236.012C723.797 236.168 723.429 236.343 723.09 236.538L722.586 235.515C722.944 235.287 723.374 235.086 723.875 234.912C724.375 234.727 724.902 234.615 725.455 234.576ZM726.189 239.112C725.128 239.229 724.401 239.451 724.006 239.778C723.623 240.104 723.45 240.539 723.488 241.082C723.522 241.56 723.69 241.901 723.993 242.105C724.306 242.307 724.692 242.393 725.149 242.361C725.873 242.31 726.46 242.071 726.912 241.644C727.362 241.206 727.559 240.572 727.501 239.742L727.447 238.976L726.189 239.112Z" fill="black"/>
<defs>
<filter id="filter0_f_1077_203" x="292.537" y="121.691" width="23.2305" height="23.2305" filterUnits="userSpaceOnUse" color-interpolation-filters="sRGB">
<feFlood flood-opacity="0" result="BackgroundImageFix"/>
<feBlend mode="normal" in="SourceGraphic" in2="BackgroundImageFix" result="shape"/>
<feGaussianBlur stdDeviation="2.5" result="effect1_foregroundBlur_1077_203"/>
</filter>
<filter id="filter1_f_1077_203" x="287.537" y="116.691" width="33.2305" height="33.2305" filterUnits="userSpaceOnUse" color-interpolation-filters="sRGB">
<feFlood flood-opacity="0" result="BackgroundImageFix"/>
<feBlend mode="normal" in="SourceGraphic" in2="BackgroundImageFix" result="shape"/>
<feGaussianBlur stdDeviation="5" result="effect1_foregroundBlur_1077_203"/>
</filter>
<filter id="filter2_f_1077_203" x="441.473" y="42.8945" width="176.359" height="166.152" filterUnits="userSpaceOnUse" color-interpolation-filters="sRGB">
<feFlood flood-opacity="0" result="BackgroundImageFix"/>
<feBlend mode="normal" in="SourceGraphic" in2="BackgroundImageFix" result="shape"/>
<feGaussianBlur stdDeviation="25" result="effect1_foregroundBlur_1077_203"/>
</filter>
<filter id="filter3_f_1077_203" x="488.592" y="91.8906" width="82.1191" height="75.1523" filterUnits="userSpaceOnUse" color-interpolation-filters="sRGB">
<feFlood flood-opacity="0" result="BackgroundImageFix"/>
<feBlend mode="normal" in="SourceGraphic" in2="BackgroundImageFix" result="shape"/>
<feGaussianBlur stdDeviation="7.5" result="effect1_foregroundBlur_1077_203"/>
</filter>
<filter id="filter4_f_1077_203" x="696.746" y="112.691" width="71.6172" height="58.6914" filterUnits="userSpaceOnUse" color-interpolation-filters="sRGB">
<feFlood flood-opacity="0" result="BackgroundImageFix"/>
<feBlend mode="normal" in="SourceGraphic" in2="BackgroundImageFix" result="shape"/>
<feGaussianBlur stdDeviation="7.5" result="effect1_foregroundBlur_1077_203"/>
</filter>
<filter id="filter5_f_1077_203" x="709.746" y="125.691" width="45.6172" height="32.6914" filterUnits="userSpaceOnUse" color-interpolation-filters="sRGB">
<feFlood flood-opacity="0" result="BackgroundImageFix"/>
<feBlend mode="normal" in="SourceGraphic" in2="BackgroundImageFix" result="shape"/>
<feGaussianBlur stdDeviation="2" result="effect1_foregroundBlur_1077_203"/>
</filter>
<linearGradient id="paint0_linear_1077_203" x1="98.707" y1="133.032" x2="788.861" y2="133.032" gradientUnits="userSpaceOnUse">
<stop offset="0.326923" stop-color="#1F1F1F"/>
<stop offset="0.668269" stop-color="#FC3CE9"/>
<stop offset="1" stop-color="#1F1F1F"/>
</linearGradient>
<clipPath id="clip0_1077_203">
<rect width="36.1513" height="36.1513" fill="white" transform="translate(183.988 115.23)"/>
</clipPath>
</defs>
</svg>
