<svg width="888" height="267" viewBox="0 0 888 267" fill="none" xmlns="http://www.w3.org/2000/svg">
<rect x="1.75677" y="12.1895" width="128" height="37" rx="7" transform="rotate(-4 1.75677 12.1895)" stroke="#FF6600" stroke-width="2"/>
<path d="M38.1579 33.7045L36.5299 33.8184L33.1673 29.0814L30.4488 34.2436L28.9325 34.3496L32.3 28.1476L28.375 22.9367L29.9711 22.8251L33.0768 27.0989L35.5734 22.4333L37.0897 22.3273L33.9418 28.0007L38.1579 33.7045ZM43.0381 24.6059C44.0916 24.5323 44.9632 24.8402 45.6529 25.5298C46.3534 26.2186 46.7553 27.3025 46.8587 28.7816C46.9264 29.7499 46.8348 30.5796 46.5837 31.2708C46.3425 31.9506 45.9678 32.4794 45.4596 32.8571C44.9613 33.2234 44.3556 33.4315 43.6427 33.4814C43.2065 33.5119 42.814 33.4805 42.4653 33.3873C42.1166 33.294 41.8136 33.1655 41.5562 33.0018C41.3087 32.8266 41.092 32.6332 40.9061 32.4217L40.8104 32.4284C40.8443 32.6078 40.8816 32.8351 40.9222 33.1102C40.9628 33.3854 40.9902 33.6241 41.0044 33.8263L41.2499 37.3377L39.8453 37.4359L38.9792 25.0501L40.1284 24.9698L40.4014 26.1215L40.4653 26.1171C40.6184 25.8604 40.805 25.6228 41.0249 25.4043C41.2555 25.185 41.5317 25.0053 41.8533 24.8652C42.1856 24.7243 42.5806 24.6379 43.0381 24.6059ZM42.8653 25.8049C42.2907 25.8451 41.8357 25.9892 41.5002 26.2372C41.1639 26.4745 40.9312 26.8169 40.8021 27.2644C40.673 27.7118 40.6266 28.2711 40.6628 28.9422L40.6818 29.2135C40.7309 29.9158 40.8471 30.5065 41.0303 30.9855C41.2135 31.4646 41.4896 31.8195 41.8586 32.0503C42.2382 32.2804 42.7366 32.3739 43.3538 32.3307C43.8751 32.2943 44.2907 32.1209 44.6005 31.8105C44.9209 31.4994 45.1438 31.0935 45.2692 30.5929C45.4045 30.0809 45.4498 29.5056 45.4051 28.8672C45.3367 27.8882 45.0905 27.1195 44.6665 26.5611C44.2531 26.0019 43.6528 25.7498 42.8653 25.8049ZM52.029 23.9933C53.0718 23.9203 53.8593 24.0952 54.3914 24.5177C54.9235 24.9403 55.2245 25.6517 55.2945 26.6519L55.7018 32.4777L54.6803 32.5492L54.3242 31.3551L54.2603 31.3596C54.0372 31.6852 53.8 31.9638 53.5489 32.1952C53.3076 32.4152 53.0201 32.5851 52.6863 32.7046C52.3632 32.8235 51.9622 32.8996 51.4833 32.9331C50.9726 32.9688 50.5034 32.9107 50.0757 32.7589C49.6587 32.6062 49.3202 32.3519 49.06 31.9959C48.7992 31.6292 48.6486 31.1585 48.6085 30.5839C48.5489 29.7327 48.8383 29.0548 49.4767 28.5504C50.1143 28.0353 51.1286 27.7078 52.5196 27.5677L53.9687 27.4183L53.933 26.9075C53.8831 26.1946 53.6942 25.7106 53.3663 25.4555C53.0384 25.2005 52.5924 25.0926 52.0285 25.1321C51.5816 25.1633 51.1608 25.2622 50.7661 25.4289C50.3707 25.5848 50.0034 25.7602 49.6641 25.955L49.1595 24.9317C49.5178 24.7035 49.9475 24.5024 50.4486 24.3283C50.9489 24.1436 51.4757 24.0319 52.029 23.9933ZM52.7632 28.5291C51.7021 28.6461 50.9745 28.868 50.5804 29.195C50.1969 29.5212 50.0241 29.9556 50.062 30.4983C50.0955 30.9771 50.2637 31.3182 50.5666 31.5216C50.8802 31.7242 51.2658 31.8095 51.7233 31.7775C52.4469 31.7269 53.0343 31.4881 53.4856 31.0609C53.9362 30.623 54.1324 29.9891 54.0744 29.1592L54.0208 28.393L52.7632 28.5291ZM59.1505 23.6396L59.3994 27.1989L64.044 26.8742L63.7951 23.3148L65.1997 23.2166L65.7979 31.7717L64.3934 31.87L64.1266 28.0553L59.482 28.3801L59.7487 32.1947L58.3441 32.293L57.7459 23.7378L59.1505 23.6396ZM71.2014 22.6366C71.9356 22.5852 72.5745 22.7009 73.1182 22.9837C73.6726 23.2657 74.1086 23.6897 74.4261 24.2556C74.7536 24.8101 74.9445 25.4757 74.9988 26.2525L75.058 27.0984L69.2003 27.508C69.2893 28.4748 69.5857 29.1972 70.0896 29.6753C70.6034 30.1419 71.286 30.3454 72.1372 30.2859C72.6799 30.248 73.1554 30.1666 73.5637 30.0418C73.9819 29.9056 74.4077 29.7262 74.8412 29.5034L74.9272 30.7324C74.5043 30.9544 74.083 31.1229 73.6633 31.2378C73.2444 31.3633 72.7423 31.4465 72.1571 31.4875C71.3484 31.544 70.6186 31.4293 69.9678 31.1433C69.3275 30.8566 68.8092 30.401 68.4126 29.7765C68.026 29.1406 67.7996 28.3491 67.7333 27.4021C67.6679 26.4657 67.766 25.6515 68.0277 24.9596C68.3 24.2669 68.7055 23.72 69.2442 23.3187C69.7935 22.9168 70.4459 22.6894 71.2014 22.6366ZM71.2658 23.7869C70.5954 23.8337 70.0786 24.0891 69.7154 24.5529C69.3621 25.0053 69.175 25.6172 69.1541 26.3885L73.5115 26.0838C73.4772 25.5943 73.373 25.1739 73.1987 24.8226C73.0244 24.4712 72.776 24.2052 72.4532 24.0246C72.1404 23.8326 71.7446 23.7534 71.2658 23.7869ZM78.3224 22.299L78.5713 25.8583L83.216 25.5335L82.9671 21.9742L84.3716 21.876L84.9699 30.4311L83.5653 30.5293L83.2985 26.7146L78.6539 27.0394L78.9206 30.8541L77.5161 30.9523L76.9178 22.3972L78.3224 22.299ZM88.7703 26.8132C88.7769 26.909 88.7813 27.0477 88.7833 27.2293C88.7952 27.3995 88.8029 27.5861 88.8064 27.789C88.8092 27.9813 88.8115 28.1683 88.8136 28.3499C88.8148 28.5209 88.8139 28.66 88.8107 28.7671L92.8903 21.2803L94.6141 21.1598L95.2124 29.7149L93.9036 29.8064L93.5509 24.7627C93.539 24.5925 93.5233 24.369 93.504 24.0924C93.4953 23.815 93.4869 23.5429 93.479 23.2761C93.4703 22.9987 93.4664 22.7905 93.4674 22.6514L89.4185 30.12L87.6788 30.2417L87.0805 21.6866L88.4053 21.5939L88.7703 26.8132ZM100.629 20.5787C101.364 20.5274 102.003 20.6431 102.546 20.9259C103.101 21.2079 103.537 21.6318 103.854 22.1977C104.182 22.7522 104.373 23.4179 104.427 24.1947L104.486 25.0406L98.6284 25.4502C98.7174 26.417 99.0139 27.1394 99.5178 27.6174C100.032 28.0841 100.714 28.2876 101.565 28.2281C102.108 28.1901 102.584 28.1088 102.992 27.984C103.41 27.8478 103.836 27.6683 104.269 27.4456L104.355 28.6746C103.932 28.8966 103.511 29.0651 103.091 29.18C102.673 29.3055 102.17 29.3887 101.585 29.4296C100.777 29.4862 100.047 29.3715 99.3959 29.0855C98.7557 28.7988 98.2373 28.3432 97.8408 27.7187C97.4541 27.0828 97.2277 26.2913 97.1615 25.3443C97.096 24.4079 97.1941 23.5937 97.4558 22.9018C97.7282 22.2091 98.1337 21.6621 98.6723 21.2609C99.2216 20.859 99.874 20.6316 100.629 20.5787ZM100.694 21.7291C100.024 21.7759 99.5068 22.0313 99.1436 22.4951C98.7903 22.9475 98.6031 23.5594 98.5822 24.3307L102.94 24.026C102.905 23.5365 102.801 23.1161 102.627 22.7647C102.453 22.4134 102.204 22.1474 101.881 21.9668C101.569 21.7748 101.173 21.6956 100.694 21.7291Z" fill="white"/>
<rect x="254.922" y="1" width="128" height="37" rx="7" stroke="#FF00E6" stroke-width="2"/>
<path d="M278.99 13.576H280.334V19.848C280.334 20.1147 280.329 20.408 280.318 20.728C280.318 21.0373 280.313 21.3467 280.302 21.656C280.291 21.9653 280.275 22.2427 280.254 22.488C280.243 22.7227 280.233 22.904 280.222 23.032H280.286L286.574 13.576H288.174V25H286.83V18.792C286.83 18.504 286.835 18.1947 286.846 17.864C286.857 17.5227 286.867 17.1973 286.878 16.888C286.899 16.568 286.915 16.2853 286.926 16.04C286.937 15.7947 286.947 15.6133 286.958 15.496H286.894L280.59 25H278.99V13.576ZM292.471 16.424V19.992H297.127V16.424H298.535V25H297.127V21.176H292.471V25H291.063V16.424H292.471ZM307.171 17.608H304.371V25H302.979V17.608H300.211V16.424H307.171V17.608ZM312.016 16.264C312.752 16.264 313.381 16.424 313.904 16.744C314.437 17.064 314.842 17.5173 315.12 18.104C315.408 18.68 315.552 19.3573 315.552 20.136V20.984H309.68C309.701 21.9547 309.946 22.696 310.416 23.208C310.896 23.7093 311.562 23.96 312.416 23.96C312.96 23.96 313.44 23.912 313.856 23.816C314.282 23.7093 314.72 23.56 315.168 23.368V24.6C314.73 24.792 314.298 24.9307 313.872 25.016C313.445 25.112 312.938 25.16 312.352 25.16C311.541 25.16 310.821 24.9947 310.192 24.664C309.573 24.3333 309.088 23.8427 308.736 23.192C308.394 22.5307 308.224 21.7253 308.224 20.776C308.224 19.8373 308.378 19.032 308.688 18.36C309.008 17.688 309.45 17.1707 310.016 16.808C310.592 16.4453 311.258 16.264 312.016 16.264ZM312 17.416C311.328 17.416 310.794 17.6347 310.4 18.072C310.016 18.4987 309.786 19.096 309.712 19.864H314.08C314.08 19.3733 314.005 18.9467 313.856 18.584C313.706 18.2213 313.477 17.9387 313.168 17.736C312.869 17.5227 312.48 17.416 312 17.416ZM324.263 25H322.839V17.592H320.311C320.204 18.9467 320.071 20.104 319.911 21.064C319.751 22.0133 319.548 22.7867 319.303 23.384C319.058 23.9813 318.764 24.4187 318.423 24.696C318.082 24.9733 317.682 25.112 317.223 25.112C317.084 25.112 316.946 25.1013 316.807 25.08C316.679 25.0693 316.572 25.0427 316.487 25V23.944C316.551 23.9653 316.62 23.9813 316.695 23.992C316.77 24.0027 316.844 24.008 316.919 24.008C317.154 24.008 317.367 23.912 317.559 23.72C317.751 23.528 317.922 23.2347 318.071 22.84C318.231 22.4453 318.375 21.9493 318.503 21.352C318.631 20.744 318.743 20.0293 318.839 19.208C318.935 18.3867 319.02 17.4587 319.095 16.424H324.263V25ZM333.513 25H332.089V17.592H329.561C329.454 18.9467 329.321 20.104 329.161 21.064C329.001 22.0133 328.798 22.7867 328.553 23.384C328.308 23.9813 328.014 24.4187 327.673 24.696C327.332 24.9733 326.932 25.112 326.473 25.112C326.334 25.112 326.196 25.1013 326.057 25.08C325.929 25.0693 325.822 25.0427 325.737 25V23.944C325.801 23.9653 325.87 23.9813 325.945 23.992C326.02 24.0027 326.094 24.008 326.169 24.008C326.404 24.008 326.617 23.912 326.809 23.72C327.001 23.528 327.172 23.2347 327.321 22.84C327.481 22.4453 327.625 21.9493 327.753 21.352C327.881 20.744 327.993 20.0293 328.089 19.208C328.185 18.3867 328.27 17.4587 328.345 16.424H333.513V25ZM339.547 16.264C340.283 16.264 340.912 16.424 341.435 16.744C341.968 17.064 342.374 17.5173 342.651 18.104C342.939 18.68 343.083 19.3573 343.083 20.136V20.984H337.211C337.232 21.9547 337.478 22.696 337.947 23.208C338.427 23.7093 339.094 23.96 339.947 23.96C340.491 23.96 340.971 23.912 341.387 23.816C341.814 23.7093 342.251 23.56 342.699 23.368V24.6C342.262 24.792 341.83 24.9307 341.403 25.016C340.976 25.112 340.47 25.16 339.883 25.16C339.072 25.16 338.352 24.9947 337.723 24.664C337.104 24.3333 336.619 23.8427 336.267 23.192C335.926 22.5307 335.755 21.7253 335.755 20.776C335.755 19.8373 335.91 19.032 336.219 18.36C336.539 17.688 336.982 17.1707 337.547 16.808C338.123 16.4453 338.79 16.264 339.547 16.264ZM339.531 17.416C338.859 17.416 338.326 17.6347 337.931 18.072C337.547 18.4987 337.318 19.096 337.243 19.864H341.611C341.611 19.3733 341.536 18.9467 341.387 18.584C341.238 18.2213 341.008 17.9387 340.699 17.736C340.4 17.5227 340.011 17.416 339.531 17.416ZM350.338 16.424H351.874L348.21 20.552L352.178 25H350.546L346.674 20.648V25H345.266V16.424H346.674V20.584L350.338 16.424ZM359.655 17.608H356.855V25H355.463V17.608H352.695V16.424H359.655V17.608Z" fill="white"/>
<rect x="758.121" y="3.26263" width="128" height="37" rx="7" transform="rotate(4 758.121 3.26263)" stroke="#C300FF" stroke-width="2"/>
<path d="M771.463 28.2553L772.26 16.8591L780.815 17.4574L780.018 28.8535L778.597 28.7542L779.306 18.619L773.608 18.2205L772.899 28.3558L771.463 28.2553ZM786.794 20.5861C787.837 20.659 788.592 20.9417 789.061 21.4343C789.529 21.9268 789.728 22.6732 789.658 23.6734L789.25 29.4992L788.229 29.4277L788.042 28.1957L787.979 28.1912C787.712 28.4827 787.439 28.7256 787.158 28.9198C786.888 29.1041 786.58 29.2322 786.233 29.3042C785.896 29.3769 785.488 29.3965 785.01 29.363C784.499 29.3273 784.042 29.2045 783.64 28.9946C783.248 28.7854 782.948 28.4864 782.74 28.0976C782.533 27.6982 782.45 27.2112 782.49 26.6366C782.549 25.7853 782.93 25.1544 783.633 24.7437C784.336 24.3224 785.386 24.1392 786.783 24.1941L788.238 24.2478L788.274 23.737C788.324 23.0241 788.204 22.5185 787.915 22.2203C787.626 21.922 787.199 21.7532 786.635 21.7138C786.188 21.6825 785.758 21.7219 785.344 21.832C784.931 21.9314 784.542 22.0539 784.179 22.1996L783.822 21.1161C784.209 20.9399 784.662 20.8006 785.183 20.6979C785.704 20.5847 786.241 20.5474 786.794 20.5861ZM786.89 25.18C785.823 25.1481 785.072 25.2667 784.636 25.5356C784.211 25.8053 783.979 26.2114 783.941 26.7541C783.908 27.2329 784.027 27.5941 784.298 27.8377C784.581 28.0819 784.951 28.2201 785.408 28.2521C786.132 28.3027 786.747 28.1479 787.253 27.7876C787.76 27.4168 788.043 26.8164 788.101 25.9864L788.154 25.2203L786.89 25.18ZM796.572 21.2538C797.626 21.3275 798.446 21.7537 799.033 22.5326C799.631 23.3122 799.878 24.4415 799.775 25.9206C799.707 26.8889 799.501 27.6978 799.156 28.3473C798.822 28.9869 798.378 29.4584 797.822 29.7617C797.277 30.0551 796.649 30.1769 795.936 30.127C795.499 30.0965 795.115 30.0108 794.783 29.87C794.451 29.7291 794.168 29.5597 793.936 29.3617C793.716 29.1538 793.528 28.9321 793.373 28.6968L793.277 28.6901C793.286 28.8725 793.291 29.1027 793.293 29.3809C793.295 29.659 793.289 29.8992 793.275 30.1014L793.03 33.6128L791.625 33.5146L792.491 21.1288L793.64 21.2092L793.75 22.3877L793.814 22.3922C794.001 22.1594 794.219 21.95 794.468 21.7642C794.726 21.5792 795.025 21.4397 795.363 21.3457C795.712 21.2524 796.115 21.2218 796.572 21.2538ZM796.234 22.4171C795.66 22.3769 795.189 22.4562 794.822 22.6551C794.456 22.8434 794.178 23.1501 793.988 23.5752C793.798 24.0003 793.674 24.5477 793.617 25.2173L793.598 25.4886C793.548 26.1909 793.581 26.792 793.696 27.2919C793.811 27.7918 794.035 28.1817 794.368 28.4616C794.712 28.7423 795.193 28.9042 795.81 28.9474C796.331 28.9838 796.767 28.8699 797.117 28.6057C797.477 28.3422 797.755 27.9713 797.948 27.493C798.154 27.0048 798.279 26.4415 798.323 25.803C798.392 24.8241 798.255 24.0286 797.913 23.4166C797.581 22.8053 797.022 22.4721 796.234 22.4171ZM807.978 23.3987L805.185 23.2033L804.669 30.5773L803.28 30.4802L803.796 23.1062L801.035 22.9131L801.117 21.732L808.061 22.2175L807.978 23.3987ZM811.15 22.4336L810.901 25.9929L815.546 26.3177L815.795 22.7584L817.2 22.8566L816.601 31.4117L815.197 31.3135L815.464 27.4988L810.819 27.174L810.552 30.9887L809.148 30.8905L809.746 22.3354L811.15 22.4336ZM823.224 23.1174C823.958 23.1688 824.574 23.3723 825.073 23.728C825.583 24.0844 825.956 24.5649 826.192 25.1695C826.439 25.7642 826.535 26.4499 826.481 27.2267L826.422 28.0726L820.564 27.663C820.518 28.6328 820.711 29.3894 821.143 29.9329C821.587 30.4665 822.234 30.7631 823.086 30.8226C823.628 30.8606 824.111 30.8462 824.532 30.7794C824.965 30.7028 825.412 30.5843 825.872 30.424L825.786 31.653C825.337 31.814 824.896 31.9222 824.465 31.9776C824.032 32.0436 823.523 32.0561 822.938 32.0152C822.129 31.9587 821.423 31.7435 820.818 31.3698C820.224 30.9967 819.774 30.4734 819.468 29.7998C819.174 29.1162 819.06 28.301 819.126 27.3539C819.192 26.4176 819.402 25.625 819.757 24.9762C820.124 24.3282 820.601 23.843 821.19 23.5206C821.79 23.199 822.468 23.0646 823.224 23.1174ZM823.127 24.2655C822.457 24.2186 821.91 24.3996 821.485 24.8083C821.073 25.2072 820.802 25.787 820.674 26.548L825.031 26.8527C825.066 26.3632 825.021 25.9323 824.897 25.5601C824.774 25.1879 824.565 24.89 824.27 24.6662C823.987 24.4326 823.606 24.299 823.127 24.2655ZM832.999 23.801C834.052 23.8747 834.873 24.3009 835.46 25.0798C836.057 25.8594 836.305 26.9887 836.201 28.4678C836.133 29.4361 835.927 30.245 835.582 30.8945C835.249 31.5341 834.804 32.0056 834.248 32.3089C833.704 32.6023 833.075 32.7241 832.362 32.6742C831.926 32.6437 831.542 32.558 831.21 32.4172C830.877 32.2763 830.595 32.1069 830.363 31.9089C830.142 31.701 829.955 31.4793 829.8 31.244L829.704 31.2373C829.713 31.4197 829.718 31.6499 829.72 31.9281C829.722 32.2062 829.716 32.4464 829.702 32.6486L829.456 36.16L828.052 36.0618L828.918 23.676L830.067 23.7564L830.177 24.9349L830.241 24.9394C830.428 24.7066 830.646 24.4972 830.894 24.3114C831.153 24.1264 831.452 23.9869 831.79 23.8929C832.138 23.7996 832.541 23.769 832.999 23.801ZM832.661 24.9643C832.086 24.9241 831.616 25.0034 831.249 25.2023C830.883 25.3906 830.605 25.6973 830.415 26.1224C830.225 26.5475 830.101 27.0949 830.043 27.7645L830.024 28.0358C829.975 28.7381 830.008 29.3392 830.123 29.8391C830.237 30.339 830.461 30.7289 830.795 31.0088C831.139 31.2895 831.619 31.4514 832.236 31.4946C832.758 31.531 833.193 31.4171 833.543 31.1529C833.904 30.8894 834.181 30.5185 834.375 30.0402C834.58 29.552 834.705 28.9887 834.75 28.3502C834.818 27.3713 834.681 26.5758 834.339 25.9638C834.008 25.3525 833.448 25.0193 832.661 24.9643ZM841.56 33.3174C840.804 33.2645 840.139 33.063 839.565 32.7127C839.001 32.3632 838.572 31.852 838.277 31.1792C837.992 30.507 837.885 29.6655 837.956 28.6546C838.03 27.6012 838.265 26.7569 838.663 26.1217C839.06 25.4866 839.567 25.0355 840.185 24.7686C840.813 24.5025 841.51 24.3962 842.276 24.4497C842.712 24.4802 843.129 24.5575 843.527 24.6815C843.925 24.7949 844.248 24.9244 844.494 25.07L843.982 26.205C843.733 26.0914 843.441 25.9801 843.107 25.8711C842.772 25.7622 842.456 25.6973 842.158 25.6765C841.584 25.6363 841.101 25.7256 840.712 25.9443C840.322 26.163 840.02 26.5054 839.806 26.9716C839.592 27.4378 839.46 28.0273 839.41 28.7402C839.362 29.4212 839.412 30.0075 839.559 30.499C839.707 30.9904 839.953 31.3712 840.298 31.6412C840.642 31.9113 841.086 32.0653 841.629 32.1032C842.097 32.1359 842.51 32.1167 842.868 32.0455C843.236 31.975 843.574 31.881 843.882 31.7636L843.795 33.0085C843.497 33.1374 843.17 33.2268 842.814 33.2767C842.467 33.338 842.049 33.3516 841.56 33.3174ZM852.229 26.493L849.436 26.2977L848.92 33.6717L847.532 33.5746L848.047 26.2006L845.286 26.0075L845.369 24.8264L852.312 25.3119L852.229 26.493ZM860.726 28.0655C860.688 28.5975 860.5 29.0014 860.16 29.277C859.82 29.5526 859.396 29.7261 858.888 29.7976L858.884 29.8614C859.411 29.9731 859.86 30.197 860.232 30.5331C860.605 30.8586 860.769 31.3405 860.725 31.979C860.699 32.3408 860.607 32.6711 860.447 32.97C860.298 33.2697 860.077 33.5215 859.784 33.7257C859.492 33.9298 859.123 34.0804 858.678 34.1776C858.234 34.2641 857.703 34.2858 857.086 34.2427L853.399 33.9848L853.997 25.4297L857.668 25.6864C858.275 25.7288 858.812 25.836 859.282 26.0078C859.762 26.1697 860.13 26.4199 860.384 26.7585C860.65 27.0872 860.764 27.5228 860.726 28.0655ZM859.272 31.8774C859.306 31.3879 859.145 31.0238 858.787 30.7849C858.43 30.5461 857.889 30.4013 857.166 30.3507L855.075 30.2045L854.883 32.9498L857.005 33.0983C857.708 33.1474 858.252 33.0839 858.639 32.9077C859.026 32.721 859.237 32.3775 859.272 31.8774ZM859.293 28.1418C859.321 27.7374 859.193 27.4344 858.907 27.2326C858.633 27.021 858.167 26.8921 857.507 26.846L855.32 26.6931L855.156 29.0394L857.087 29.1744C857.779 29.2228 858.312 29.1639 858.688 28.9976C859.063 28.8314 859.265 28.5461 859.293 28.1418ZM866.444 26.1557C867.486 26.2286 868.242 26.5114 868.71 27.0039C869.178 27.4964 869.377 28.2428 869.307 29.243L868.9 35.0688L867.878 34.9973L867.692 33.7653L867.628 33.7609C867.362 34.0523 867.088 34.2952 866.807 34.4894C866.538 34.6737 866.229 34.8018 865.882 34.8738C865.545 34.9465 865.138 34.9661 864.659 34.9326C864.148 34.8969 863.692 34.7741 863.289 34.5642C862.898 34.355 862.598 34.056 862.39 33.6672C862.182 33.2678 862.099 32.7808 862.139 32.2062C862.198 31.3549 862.579 30.724 863.282 30.3133C863.985 29.892 865.035 29.7088 866.432 29.7637L867.888 29.8174L867.923 29.3066C867.973 28.5937 867.853 28.0881 867.564 27.7899C867.275 27.4916 866.848 27.3228 866.284 27.2834C865.838 27.2521 865.407 27.2915 864.993 27.4016C864.58 27.501 864.192 27.6235 863.829 27.7692L863.471 26.6857C863.858 26.5096 864.311 26.3702 864.832 26.2676C865.353 26.1543 865.89 26.117 866.444 26.1557ZM866.539 30.7496C865.472 30.7177 864.721 30.8363 864.285 31.1052C863.86 31.3749 863.628 31.781 863.59 32.3237C863.557 32.8025 863.676 33.1637 863.948 33.4073C864.23 33.6516 864.6 33.7897 865.057 33.8217C865.781 33.8723 866.396 33.7175 866.902 33.3573C867.409 32.9864 867.692 32.386 867.75 31.556L867.804 30.7899L866.539 30.7496Z" fill="white"/>
<rect x="504.922" y="1" width="128" height="37" rx="7" stroke="#0029CC" stroke-width="2"/>
<path d="M528.498 13.576C529.991 13.576 531.079 13.8693 531.762 14.456C532.445 15.0427 532.786 15.8693 532.786 16.936C532.786 17.4053 532.706 17.8587 532.546 18.296C532.397 18.7227 532.146 19.1067 531.794 19.448C531.442 19.7893 530.973 20.0613 530.386 20.264C529.799 20.456 529.079 20.552 528.226 20.552H526.914V25H525.474V13.576H528.498ZM528.37 14.808H526.914V19.32H528.066C528.791 19.32 529.394 19.2453 529.874 19.096C530.354 18.936 530.711 18.6853 530.946 18.344C531.181 18.0027 531.298 17.5547 531.298 17C531.298 16.264 531.063 15.7147 530.594 15.352C530.125 14.9893 529.383 14.808 528.37 14.808ZM538.217 16.28C539.263 16.28 540.036 16.5093 540.537 16.968C541.039 17.4267 541.289 18.1573 541.289 19.16V25H540.265L539.993 23.784H539.929C539.684 24.0933 539.428 24.3547 539.161 24.568C538.905 24.7707 538.607 24.92 538.265 25.016C537.935 25.112 537.529 25.16 537.049 25.16C536.537 25.16 536.073 25.0693 535.657 24.888C535.252 24.7067 534.932 24.4293 534.697 24.056C534.463 23.672 534.345 23.192 534.345 22.616C534.345 21.7627 534.681 21.1067 535.353 20.648C536.025 20.1787 537.06 19.9227 538.457 19.88L539.913 19.832V19.32C539.913 18.6053 539.759 18.1093 539.449 17.832C539.14 17.5547 538.703 17.416 538.137 17.416C537.689 17.416 537.263 17.4853 536.857 17.624C536.452 17.752 536.073 17.9013 535.721 18.072L535.289 17.016C535.663 16.8133 536.105 16.6427 536.617 16.504C537.129 16.3547 537.663 16.28 538.217 16.28ZM538.633 20.856C537.567 20.8987 536.825 21.0693 536.409 21.368C536.004 21.6667 535.801 22.088 535.801 22.632C535.801 23.112 535.945 23.464 536.233 23.688C536.532 23.912 536.911 24.024 537.369 24.024C538.095 24.024 538.697 23.8267 539.177 23.432C539.657 23.0267 539.897 22.408 539.897 21.576V20.808L538.633 20.856ZM546.194 16.264C546.845 16.264 547.41 16.3547 547.89 16.536C548.37 16.7067 548.743 16.9627 549.01 17.304C549.277 17.6347 549.41 18.04 549.41 18.52C549.41 19.0427 549.266 19.4587 548.978 19.768C548.69 20.0667 548.295 20.2853 547.794 20.424V20.488C548.135 20.584 548.45 20.7173 548.738 20.888C549.026 21.0587 549.255 21.2827 549.426 21.56C549.607 21.8373 549.698 22.1947 549.698 22.632C549.698 23.1013 549.565 23.528 549.298 23.912C549.042 24.296 548.642 24.6 548.098 24.824C547.565 25.048 546.877 25.16 546.034 25.16C545.629 25.16 545.239 25.1387 544.866 25.096C544.503 25.0533 544.173 24.9893 543.874 24.904C543.586 24.8187 543.33 24.7173 543.106 24.6V23.336C543.469 23.5067 543.895 23.6613 544.386 23.8C544.887 23.9387 545.431 24.008 546.018 24.008C546.445 24.008 546.829 23.96 547.17 23.864C547.522 23.768 547.799 23.6187 548.002 23.416C548.205 23.2027 548.306 22.9147 548.306 22.552C548.306 22.2213 548.215 21.9547 548.034 21.752C547.853 21.5387 547.581 21.3787 547.218 21.272C546.866 21.1653 546.413 21.112 545.858 21.112H544.706V19.96H545.634C546.37 19.96 546.957 19.864 547.394 19.672C547.842 19.4693 548.066 19.128 548.066 18.648C548.066 18.2427 547.895 17.9387 547.554 17.736C547.223 17.5333 546.743 17.432 546.114 17.432C545.645 17.432 545.229 17.48 544.866 17.576C544.514 17.6613 544.125 17.7947 543.698 17.976L543.202 16.856C543.661 16.6533 544.141 16.504 544.642 16.408C545.143 16.312 545.661 16.264 546.194 16.264ZM555.862 16.264C556.918 16.264 557.766 16.632 558.406 17.368C559.057 18.104 559.382 19.2133 559.382 20.696C559.382 21.6667 559.233 22.488 558.934 23.16C558.646 23.8213 558.235 24.3227 557.702 24.664C557.179 24.9947 556.561 25.16 555.846 25.16C555.409 25.16 555.019 25.1013 554.678 24.984C554.337 24.8667 554.043 24.7173 553.798 24.536C553.563 24.344 553.361 24.136 553.19 23.912H553.094C553.115 24.0933 553.137 24.3227 553.158 24.6C553.179 24.8773 553.19 25.1173 553.19 25.32V28.84H551.782V16.424H552.934L553.126 17.592H553.19C553.361 17.3467 553.563 17.1227 553.798 16.92C554.043 16.7173 554.331 16.5573 554.662 16.44C555.003 16.3227 555.403 16.264 555.862 16.264ZM555.606 17.448C555.03 17.448 554.566 17.56 554.214 17.784C553.862 17.9973 553.606 18.3227 553.446 18.76C553.286 19.1973 553.201 19.752 553.19 20.424V20.696C553.19 21.4 553.265 21.9973 553.414 22.488C553.563 22.9787 553.814 23.352 554.166 23.608C554.529 23.864 555.019 23.992 555.638 23.992C556.161 23.992 556.587 23.848 556.918 23.56C557.259 23.272 557.51 22.8827 557.67 22.392C557.841 21.8907 557.926 21.32 557.926 20.68C557.926 19.6987 557.734 18.9147 557.35 18.328C556.977 17.7413 556.395 17.448 555.606 17.448ZM564.874 16.28C565.919 16.28 566.692 16.5093 567.194 16.968C567.695 17.4267 567.946 18.1573 567.946 19.16V25H566.922L566.65 23.784H566.586C566.34 24.0933 566.084 24.3547 565.818 24.568C565.562 24.7707 565.263 24.92 564.922 25.016C564.591 25.112 564.186 25.16 563.706 25.16C563.194 25.16 562.73 25.0693 562.314 24.888C561.908 24.7067 561.588 24.4293 561.354 24.056C561.119 23.672 561.002 23.192 561.002 22.616C561.002 21.7627 561.338 21.1067 562.01 20.648C562.682 20.1787 563.716 19.9227 565.114 19.88L566.57 19.832V19.32C566.57 18.6053 566.415 18.1093 566.106 17.832C565.796 17.5547 565.359 17.416 564.794 17.416C564.346 17.416 563.919 17.4853 563.514 17.624C563.108 17.752 562.73 17.9013 562.378 18.072L561.946 17.016C562.319 16.8133 562.762 16.6427 563.274 16.504C563.786 16.3547 564.319 16.28 564.874 16.28ZM565.29 20.856C564.223 20.8987 563.482 21.0693 563.066 21.368C562.66 21.6667 562.458 22.088 562.458 22.632C562.458 23.112 562.602 23.464 562.89 23.688C563.188 23.912 563.567 24.024 564.026 24.024C564.751 24.024 565.354 23.8267 565.834 23.432C566.314 23.0267 566.554 22.408 566.554 21.576V20.808L565.29 20.856ZM570.146 19.848C570.146 18.6 570.269 17.5387 570.514 16.664C570.77 15.7787 571.16 15.0747 571.682 14.552C572.216 14.0187 572.898 13.6613 573.73 13.48C574.424 13.3307 575.101 13.1973 575.762 13.08C576.424 12.9627 577.042 12.856 577.618 12.76L577.858 13.992C577.581 14.0347 577.272 14.088 576.93 14.152C576.589 14.2053 576.242 14.264 575.89 14.328C575.538 14.3813 575.197 14.44 574.866 14.504C574.546 14.5573 574.264 14.6107 574.018 14.664C573.666 14.7387 573.352 14.8667 573.074 15.048C572.797 15.2187 572.557 15.4533 572.354 15.752C572.162 16.0507 572.008 16.4187 571.89 16.856C571.773 17.2933 571.704 17.8107 571.682 18.408H571.778C571.928 18.2053 572.13 17.9973 572.386 17.784C572.653 17.5707 572.968 17.3893 573.33 17.24C573.704 17.0907 574.125 17.016 574.594 17.016C575.341 17.016 575.96 17.1813 576.45 17.512C576.952 17.832 577.325 18.28 577.57 18.856C577.826 19.432 577.954 20.104 577.954 20.872C577.954 21.8213 577.789 22.616 577.458 23.256C577.128 23.896 576.669 24.376 576.082 24.696C575.496 25.0053 574.813 25.16 574.034 25.16C573.448 25.16 572.914 25.048 572.434 24.824C571.954 24.5893 571.544 24.248 571.202 23.8C570.861 23.352 570.6 22.7973 570.418 22.136C570.237 21.4747 570.146 20.712 570.146 19.848ZM574.146 23.992C574.616 23.992 575.021 23.896 575.362 23.704C575.714 23.512 575.986 23.1973 576.178 22.76C576.37 22.3227 576.466 21.7413 576.466 21.016C576.466 20.1413 576.301 19.4533 575.97 18.952C575.65 18.44 575.117 18.184 574.37 18.184C573.901 18.184 573.474 18.2907 573.09 18.504C572.706 18.7067 572.386 18.9413 572.13 19.208C571.874 19.4747 571.693 19.6987 571.586 19.88C571.586 20.4027 571.624 20.9093 571.698 21.4C571.773 21.8907 571.901 22.3333 572.082 22.728C572.274 23.112 572.536 23.4213 572.866 23.656C573.208 23.88 573.634 23.992 574.146 23.992ZM587.628 20.696C587.628 21.4107 587.533 22.0453 587.341 22.6C587.159 23.144 586.893 23.608 586.541 23.992C586.199 24.376 585.778 24.6693 585.277 24.872C584.786 25.064 584.237 25.16 583.629 25.16C583.063 25.16 582.541 25.064 582.061 24.872C581.581 24.6693 581.165 24.376 580.812 23.992C580.461 23.608 580.183 23.144 579.981 22.6C579.789 22.0453 579.693 21.4107 579.693 20.696C579.693 19.7467 579.853 18.9467 580.173 18.296C580.493 17.6347 580.951 17.1333 581.549 16.792C582.146 16.44 582.855 16.264 583.677 16.264C584.455 16.264 585.138 16.44 585.725 16.792C586.322 17.1333 586.786 17.6347 587.117 18.296C587.458 18.9467 587.628 19.7467 587.628 20.696ZM581.149 20.696C581.149 21.368 581.234 21.9547 581.405 22.456C581.586 22.9467 581.863 23.3253 582.237 23.592C582.61 23.8587 583.085 23.992 583.661 23.992C584.237 23.992 584.711 23.8587 585.085 23.592C585.458 23.3253 585.73 22.9467 585.901 22.456C586.082 21.9547 586.173 21.368 586.173 20.696C586.173 20.0133 586.082 19.432 585.901 18.952C585.719 18.472 585.442 18.104 585.069 17.848C584.706 17.5813 584.231 17.448 583.645 17.448C582.77 17.448 582.135 17.736 581.741 18.312C581.346 18.888 581.149 19.6827 581.149 20.696ZM595.624 17.608H592.824V25H591.432V17.608H588.664V16.424H595.624V17.608ZM602.385 16.424H603.921L600.257 20.552L604.225 25H602.593L598.721 20.648V25H597.313V16.424H598.721V20.584L602.385 16.424ZM609.03 16.28C610.075 16.28 610.849 16.5093 611.35 16.968C611.851 17.4267 612.102 18.1573 612.102 19.16V25H611.078L610.806 23.784H610.742C610.497 24.0933 610.241 24.3547 609.974 24.568C609.718 24.7707 609.419 24.92 609.078 25.016C608.747 25.112 608.342 25.16 607.862 25.16C607.35 25.16 606.886 25.0693 606.47 24.888C606.065 24.7067 605.745 24.4293 605.51 24.056C605.275 23.672 605.158 23.192 605.158 22.616C605.158 21.7627 605.494 21.1067 606.166 20.648C606.838 20.1787 607.873 19.9227 609.27 19.88L610.726 19.832V19.32C610.726 18.6053 610.571 18.1093 610.262 17.832C609.953 17.5547 609.515 17.416 608.95 17.416C608.502 17.416 608.075 17.4853 607.67 17.624C607.265 17.752 606.886 17.9013 606.534 18.072L606.102 17.016C606.475 16.8133 606.918 16.6427 607.43 16.504C607.942 16.3547 608.475 16.28 609.03 16.28ZM609.446 20.856C608.379 20.8987 607.638 21.0693 607.222 21.368C606.817 21.6667 606.614 22.088 606.614 22.632C606.614 23.112 606.758 23.464 607.046 23.688C607.345 23.912 607.723 24.024 608.182 24.024C608.907 24.024 609.51 23.8267 609.99 23.432C610.47 23.0267 610.71 22.408 610.71 21.576V20.808L609.446 20.856Z" fill="white"/>
<g filter="url(#filter0_f_1077_279)">
<rect x="96.873" y="98.168" width="693.817" height="69.6969" rx="15.1458" stroke="url(#paint0_linear_1077_279)" stroke-width="4"/>
</g>
<g filter="url(#filter1_f_1077_279)">
<rect x="96.373" y="97.668" width="694.817" height="70.6969" rx="15.6458" stroke="url(#paint1_linear_1077_279)" stroke-width="5"/>
</g>
<rect x="99.623" y="100.918" width="688.317" height="64.1969" rx="12.3958" stroke="white" stroke-width="1.5"/>
<path fill-rule="evenodd" clip-rule="evenodd" d="M142.177 117.483C142.062 117.483 141.952 117.528 141.871 117.609C141.79 117.69 141.744 117.8 141.744 117.915V149.065C141.744 149.304 141.938 149.498 142.177 149.498H164.674C164.789 149.498 164.899 149.452 164.98 149.371C165.061 149.29 165.107 149.18 165.107 149.065V117.915C165.107 117.8 165.061 117.69 164.98 117.609C164.899 117.528 164.789 117.483 164.674 117.483H142.177ZM139.148 117.915C139.148 116.242 140.503 114.887 142.177 114.887H164.674C166.348 114.887 167.703 116.242 167.703 117.915V149.065C167.703 149.868 167.383 150.639 166.816 151.207C166.248 151.775 165.477 152.094 164.674 152.094H142.177C141.374 152.094 140.603 151.775 140.035 151.207C139.468 150.639 139.148 149.868 139.148 149.065V117.915Z" stroke="#A1A1A1"/>
<path d="M160.348 123.106C160.807 123.106 161.248 122.923 161.572 122.599C161.897 122.274 162.079 121.834 162.079 121.375C162.079 120.916 161.897 120.476 161.572 120.151C161.248 119.827 160.807 119.645 160.348 119.645C159.889 119.645 159.449 119.827 159.125 120.151C158.8 120.476 158.618 120.916 158.618 121.375C158.618 121.834 158.8 122.274 159.125 122.599C159.449 122.923 159.889 123.106 160.348 123.106ZM146.504 123.106C146.963 123.106 147.403 122.923 147.728 122.599C148.052 122.274 148.235 121.834 148.235 121.375C148.235 120.916 148.052 120.476 147.728 120.151C147.403 119.827 146.963 119.645 146.504 119.645C146.045 119.645 145.605 119.827 145.28 120.151C144.956 120.476 144.773 120.916 144.773 121.375C144.773 121.834 144.956 122.274 145.28 122.599C145.605 122.923 146.045 123.106 146.504 123.106ZM160.348 147.333C160.807 147.333 161.248 147.151 161.572 146.826C161.897 146.502 162.079 146.062 162.079 145.603C162.079 145.144 161.897 144.704 161.572 144.379C161.248 144.055 160.807 143.872 160.348 143.872C159.889 143.872 159.449 144.055 159.125 144.379C158.8 144.704 158.618 145.144 158.618 145.603C158.618 146.062 158.8 146.502 159.125 146.826C159.449 147.151 159.889 147.333 160.348 147.333ZM146.504 147.333C146.963 147.333 147.403 147.151 147.728 146.826C148.052 146.502 148.235 146.062 148.235 145.603C148.235 145.144 148.052 144.704 147.728 144.379C147.403 144.055 146.963 143.872 146.504 143.872C146.045 143.872 145.605 144.055 145.28 144.379C144.956 144.704 144.773 145.144 144.773 145.603C144.773 146.062 144.956 146.502 145.28 146.826C145.605 147.151 146.045 147.333 146.504 147.333Z" fill="#EDEDED" stroke="#A1A1A1"/>
<path fill-rule="evenodd" clip-rule="evenodd" d="M145.205 131.759C145.205 130.133 145.687 128.544 146.59 127.192C147.494 125.841 148.777 124.787 150.279 124.165C151.782 123.543 153.434 123.38 155.029 123.697C156.623 124.014 158.088 124.797 159.238 125.947C160.387 127.096 161.17 128.561 161.487 130.156C161.805 131.75 161.642 133.403 161.02 134.905C160.397 136.407 159.344 137.691 157.992 138.594C156.64 139.497 155.051 139.979 153.425 139.979C153.081 139.979 152.751 139.843 152.507 139.599C152.264 139.356 152.127 139.026 152.127 138.681C152.127 138.337 152.264 138.007 152.507 137.764C152.751 137.52 153.081 137.383 153.425 137.383C154.538 137.383 155.625 137.054 156.55 136.436C157.475 135.818 158.196 134.939 158.621 133.912C159.047 132.884 159.158 131.753 158.941 130.662C158.724 129.571 158.189 128.569 157.402 127.782C156.616 126.996 155.613 126.46 154.522 126.243C153.431 126.026 152.301 126.137 151.273 126.563C150.245 126.989 149.367 127.71 148.749 128.634C148.131 129.559 147.801 130.647 147.801 131.759C147.801 132.103 147.664 132.434 147.421 132.677C147.177 132.92 146.847 133.057 146.503 133.057C146.159 133.057 145.829 132.92 145.585 132.677C145.342 132.434 145.205 132.103 145.205 131.759Z" stroke="#A1A1A1"/>
<path fill-rule="evenodd" clip-rule="evenodd" d="M154.341 130.841C154.584 131.084 154.721 131.414 154.721 131.758C154.721 132.102 154.584 132.432 154.341 132.675L149.15 137.867C148.903 138.096 148.578 138.221 148.242 138.215C147.906 138.209 147.585 138.073 147.347 137.835C147.109 137.597 146.973 137.276 146.967 136.94C146.961 136.604 147.086 136.278 147.315 136.032L152.507 130.841C152.75 130.597 153.08 130.461 153.424 130.461C153.768 130.461 154.098 130.597 154.341 130.841Z" stroke="#A1A1A1"/>
<g clip-path="url(#clip0_1077_279)">
<mask id="mask0_1077_279" style="mask-type:luminance" maskUnits="userSpaceOnUse" x="183" y="114" width="38" height="39">
<path d="M184.133 115.411V151.562H220.284V115.411H184.133Z" fill="white" stroke="white"/>
</mask>
<g mask="url(#mask0_1077_279)">
<path fill-rule="evenodd" clip-rule="evenodd" d="M198.82 146.482C198.82 149.289 201.096 151.565 203.904 151.565H215.201C218.009 151.565 220.285 149.289 220.285 146.482V120.498C220.285 117.69 218.009 115.414 215.201 115.414L203.904 115.414C201.096 115.414 198.82 117.69 198.82 120.498V146.482ZM203.904 148.176C202.968 148.176 202.209 147.417 202.209 146.482V120.498C202.209 119.562 202.968 118.803 203.904 118.803H215.201C216.137 118.803 216.896 119.562 216.896 120.498V146.482C216.896 147.417 216.137 148.176 215.201 148.176H203.904Z" stroke="white"/>
<path d="M190.913 148.176H189.219C188.283 148.176 187.524 147.417 187.524 146.482V143.657H184.135V146.482C184.135 149.289 186.411 151.565 189.219 151.565H190.913V148.176Z" fill="black"/>
<path d="M197.692 148.176H193.173V151.565H197.692V148.176Z" fill="black"/>
<path d="M193.173 115.414H197.692V118.803H193.173V115.414Z" fill="black"/>
<path d="M187.524 123.322V120.498C187.524 119.562 188.283 118.803 189.219 118.803H190.913V115.414L189.219 115.414C186.411 115.414 184.135 117.69 184.135 120.498L184.135 123.322H187.524Z" fill="black"/>
<path d="M187.524 134.619V141.398H184.135L184.135 134.619H187.524Z" fill="black"/>
<path d="M187.524 132.36V125.582H184.135L184.135 132.36H187.524Z" fill="black"/>
<path d="M190.913 148.176H189.219C188.283 148.176 187.524 147.417 187.524 146.482V143.657H184.135V146.482C184.135 149.289 186.411 151.565 189.219 151.565H190.913V148.176Z" stroke="white"/>
<path d="M197.692 148.176H193.173V151.565H197.692V148.176Z" stroke="white"/>
<path d="M193.173 115.414H197.692V118.803H193.173V115.414Z" stroke="white"/>
<path d="M187.524 123.322V120.498C187.524 119.562 188.283 118.803 189.219 118.803H190.913V115.414L189.219 115.414C186.411 115.414 184.135 117.69 184.135 120.498L184.135 123.322H187.524Z" stroke="white"/>
<path d="M187.524 134.619V141.398H184.135L184.135 134.619H187.524Z" stroke="white"/>
<path d="M187.524 132.36V125.582H184.135L184.135 132.36H187.524Z" stroke="white"/>
</g>
</g>
<line x1="253.776" y1="115.436" x2="253.571" y2="151.543" stroke="#FFF8F8" stroke-width="0.841565"/>
<path d="M322.188 133.008C322.106 132.917 320.152 130.75 316.977 128.558C312.145 125.22 307.537 123.999 304.034 124.095C299.003 124.176 294.515 126.555 291.615 128.558C288.441 130.75 286.487 132.917 286.405 133.008C286.286 133.141 286.221 133.313 286.221 133.491C286.221 133.669 286.286 133.84 286.405 133.973C286.487 134.064 288.441 136.231 291.615 138.424C295.352 141.005 299.792 142.89 304.296 142.89C308.801 142.89 313.242 141.004 316.977 138.424C320.152 136.231 322.106 134.064 322.188 133.973C322.306 133.84 322.372 133.669 322.372 133.491C322.372 133.313 322.306 133.141 322.188 133.008ZM312.25 133.491C312.25 137.801 308.803 141.321 304.521 141.441C304.219 141.445 304.374 141.445 304.073 141.441C299.79 141.322 296.343 137.801 296.343 133.491C296.343 129.108 299.908 125.537 304.296 125.537C308.678 125.537 312.25 129.102 312.25 133.491ZM287.944 133.49C290.508 130.905 293.968 128.406 297.552 126.952C294.01 130.604 294.014 136.382 297.551 140.029C294.006 138.591 290.553 136.119 287.944 133.49ZM311.041 140.03C314.583 136.377 314.578 130.599 311.042 126.952C314.586 128.39 318.04 130.862 320.648 133.491C318.084 136.077 314.625 138.575 311.041 140.03Z" fill="#FFF8F8"/>
<path d="M304.299 128.375C307.121 128.375 309.414 130.668 309.414 133.49C309.414 136.312 307.121 138.605 304.299 138.605C301.477 138.605 299.184 136.312 299.184 133.49C299.184 130.668 301.477 128.375 304.299 128.375ZM304.299 132.821C303.931 132.821 303.63 133.123 303.63 133.49C303.63 133.858 303.931 134.159 304.299 134.159C304.666 134.159 304.968 133.858 304.968 133.49C304.968 133.123 304.666 132.821 304.299 132.821Z" stroke="#067FF0" stroke-opacity="0.8" stroke-width="3"/>
<g filter="url(#filter2_f_1077_279)">
<path d="M304.299 129.375C306.568 129.375 308.414 131.221 308.414 133.49C308.414 135.76 306.568 137.605 304.299 137.605C302.029 137.605 300.184 135.76 300.184 133.49C300.184 131.221 302.029 129.375 304.299 129.375ZM304.299 131.821C303.379 131.821 302.63 132.57 302.63 133.49C302.63 134.41 303.379 135.159 304.299 135.159C305.219 135.159 305.968 134.41 305.968 133.49C305.968 132.57 305.219 131.821 304.299 131.821Z" stroke="#31FA04"/>
</g>
<path d="M300.684 133.49C300.684 135.483 302.305 137.105 304.299 137.105C306.292 137.105 307.914 135.483 307.914 133.49C307.914 131.497 306.292 129.875 304.299 129.875C302.305 129.875 300.684 131.497 300.684 133.49ZM306.468 133.49C306.468 134.686 305.495 135.659 304.299 135.659C303.103 135.659 302.13 134.686 302.13 133.49C302.13 132.294 303.103 131.321 304.299 131.321C305.495 131.321 306.468 132.294 306.468 133.49Z" fill="white"/>
<path d="M300.684 133.49C300.684 135.483 302.305 137.105 304.299 137.105C306.292 137.105 307.914 135.483 307.914 133.49C307.914 131.497 306.292 129.875 304.299 129.875C302.305 129.875 300.684 131.497 300.684 133.49ZM306.468 133.49C306.468 134.686 305.495 135.659 304.299 135.659C303.103 135.659 302.13 134.686 302.13 133.49C302.13 132.294 303.103 131.321 304.299 131.321C305.495 131.321 306.468 132.294 306.468 133.49Z" fill="white"/>
<path d="M306.045 131.656C306.045 132.208 306.494 132.656 307.045 132.656C307.596 132.656 308.045 132.208 308.045 131.656C308.045 131.105 307.596 130.656 307.045 130.656C306.494 130.656 306.045 131.105 306.045 131.656ZM307.645 131.656C307.645 131.987 307.376 132.256 307.045 132.256C306.714 132.256 306.445 131.987 306.445 131.656C306.445 131.325 306.714 131.056 307.045 131.056C307.376 131.056 307.645 131.325 307.645 131.656Z" fill="black"/>
<path d="M306.045 131.656C306.045 132.208 306.494 132.656 307.045 132.656C307.596 132.656 308.045 132.208 308.045 131.656C308.045 131.105 307.596 130.656 307.045 130.656C306.494 130.656 306.045 131.105 306.045 131.656ZM307.645 131.656C307.645 131.987 307.376 132.256 307.045 132.256C306.714 132.256 306.445 131.987 306.445 131.656C306.445 131.325 306.714 131.056 307.045 131.056C307.376 131.056 307.645 131.325 307.645 131.656Z" fill="black"/>
<path d="M306.045 131.656C306.045 132.208 306.494 132.656 307.045 132.656C307.596 132.656 308.045 132.208 308.045 131.656C308.045 131.105 307.596 130.656 307.045 130.656C306.494 130.656 306.045 131.105 306.045 131.656ZM307.645 131.656C307.645 131.987 307.376 132.256 307.045 132.256C306.714 132.256 306.445 131.987 306.445 131.656C306.445 131.325 306.714 131.056 307.045 131.056C307.376 131.056 307.645 131.325 307.645 131.656Z" stroke="black"/>
<path d="M306.045 131.656C306.045 132.208 306.494 132.656 307.045 132.656C307.596 132.656 308.045 132.208 308.045 131.656C308.045 131.105 307.596 130.656 307.045 130.656C306.494 130.656 306.045 131.105 306.045 131.656ZM307.645 131.656C307.645 131.987 307.376 132.256 307.045 132.256C306.714 132.256 306.445 131.987 306.445 131.656C306.445 131.325 306.714 131.056 307.045 131.056C307.376 131.056 307.645 131.325 307.645 131.656Z" stroke="black"/>
<mask id="path-25-inside-1_1077_279" fill="white">
<path d="M342.095 130.179V134.325H347.889C348.325 134.325 348.744 134.498 349.053 134.807C349.361 135.115 349.534 135.534 349.534 135.97C349.534 136.407 349.361 136.825 349.053 137.134C348.744 137.442 348.325 137.616 347.889 137.616H342.095V141.764H350.37C350.807 141.764 351.225 141.937 351.534 142.246C351.842 142.555 352.016 142.973 352.016 143.409C352.016 143.846 351.842 144.264 351.534 144.573C351.225 144.881 350.807 145.055 350.37 145.055H340.45C340.014 145.055 339.595 144.881 339.287 144.573C338.978 144.264 338.805 143.846 338.805 143.409V128.533C338.805 128.097 338.978 127.679 339.287 127.37C339.595 127.061 340.014 126.888 340.45 126.888H350.37C350.807 126.888 351.225 127.061 351.534 127.37C351.842 127.679 352.016 128.097 352.016 128.533C352.016 128.97 351.842 129.388 351.534 129.697C351.225 130.005 350.807 130.179 350.37 130.179H342.095ZM360.288 131.846H355.33C354.894 131.846 354.476 132.019 354.167 132.328C353.858 132.636 353.685 133.055 353.685 133.491C353.685 133.928 353.858 134.346 354.167 134.655C354.476 134.963 354.894 135.137 355.33 135.137H360.288C360.725 135.137 361.143 134.963 361.452 134.655C361.76 134.346 361.934 133.928 361.934 133.491C361.934 133.055 361.76 132.636 361.452 132.328C361.143 132.019 360.725 131.846 360.288 131.846ZM360.288 136.804H355.33C354.894 136.804 354.476 136.977 354.167 137.286C353.858 137.594 353.685 138.013 353.685 138.449C353.685 138.886 353.858 139.304 354.167 139.613C354.476 139.921 354.894 140.095 355.33 140.095H360.288C360.725 140.095 361.143 139.921 361.452 139.613C361.76 139.304 361.934 138.886 361.934 138.449C361.934 138.013 361.76 137.594 361.452 137.286C361.143 136.977 360.725 136.804 360.288 136.804ZM375.645 126.956C375.307 126.855 374.946 126.864 374.614 126.983C374.282 127.103 373.998 127.325 373.802 127.619L370.209 133.004L366.617 127.619C366.421 127.325 366.136 127.102 365.804 126.983C365.471 126.863 365.11 126.854 364.772 126.957C364.434 127.059 364.138 127.267 363.927 127.551C363.717 127.834 363.603 128.178 363.603 128.531V143.409C363.603 143.846 363.776 144.264 364.085 144.573C364.394 144.881 364.812 145.055 365.248 145.055C365.685 145.055 366.103 144.881 366.412 144.573C366.72 144.264 366.894 143.846 366.894 143.409V133.965L368.84 136.883C369.452 137.802 370.968 137.802 371.577 136.883L373.523 133.965V143.409C373.523 143.846 373.697 144.264 374.005 144.573C374.314 144.881 374.732 145.055 375.169 145.055C375.605 145.055 376.024 144.881 376.332 144.573C376.641 144.264 376.814 143.846 376.814 143.409V128.533C376.814 128.18 376.7 127.836 376.49 127.553C376.279 127.269 375.983 127.061 375.645 126.958V126.956ZM383.849 126.886C382.427 126.887 381.062 127.453 380.056 128.459C379.05 129.465 378.485 130.829 378.483 132.252V139.691C378.485 141.113 379.051 142.477 380.057 143.483C381.063 144.488 382.427 145.054 383.849 145.055C385.271 145.053 386.635 144.487 387.64 143.482C388.646 142.476 389.211 141.113 389.213 139.691V138.451C389.213 138.015 389.04 137.597 388.731 137.288C388.423 136.979 388.004 136.806 387.568 136.806C387.131 136.806 386.713 136.979 386.404 137.288C386.096 137.597 385.923 138.015 385.923 138.451V139.691C385.905 140.229 385.679 140.74 385.292 141.115C384.905 141.489 384.387 141.699 383.848 141.699C383.31 141.699 382.792 141.489 382.405 141.115C382.018 140.74 381.792 140.229 381.774 139.691V132.252C381.792 131.713 382.018 131.203 382.405 130.828C382.792 130.454 383.31 130.244 383.848 130.244C384.387 130.244 384.905 130.454 385.292 130.828C385.679 131.203 385.905 131.713 385.923 132.252V133.491C385.923 133.928 386.096 134.346 386.404 134.655C386.713 134.963 387.131 135.137 387.568 135.137C388.004 135.137 388.423 134.963 388.731 134.655C389.04 134.346 389.213 133.928 389.213 133.491V132.252C389.212 130.829 388.647 129.466 387.641 128.46C386.635 127.454 385.272 126.888 383.849 126.886ZM397.488 134.327H395.601L397.482 131.508C398.563 129.885 399.133 127.998 399.133 126.05C399.133 123.777 397.282 121.926 395.009 121.926C392.736 121.926 390.885 123.777 390.885 126.05C390.885 126.486 391.058 126.905 391.367 127.213C391.675 127.522 392.094 127.695 392.53 127.695C392.967 127.695 393.385 127.522 393.694 127.213C394.002 126.905 394.175 126.486 394.175 126.05C394.175 125.829 394.263 125.617 394.42 125.461C394.576 125.304 394.788 125.216 395.009 125.216C395.23 125.216 395.442 125.304 395.599 125.461C395.755 125.617 395.843 125.829 395.843 126.05C395.843 127.347 395.463 128.601 394.744 129.683L391.159 135.058C390.993 135.305 390.897 135.594 390.881 135.892C390.866 136.19 390.933 136.486 391.074 136.749C391.214 137.013 391.424 137.233 391.68 137.386C391.936 137.539 392.23 137.619 392.528 137.618H397.488C397.924 137.618 398.343 137.444 398.652 137.136C398.96 136.827 399.133 136.409 399.133 135.973C399.133 135.536 398.96 135.118 398.652 134.809C398.343 134.501 397.924 134.327 397.488 134.327Z"/>
</mask>
<path d="M342.095 130.179V134.325H347.889C348.325 134.325 348.744 134.498 349.053 134.807C349.361 135.115 349.534 135.534 349.534 135.97C349.534 136.407 349.361 136.825 349.053 137.134C348.744 137.442 348.325 137.616 347.889 137.616H342.095V141.764H350.37C350.807 141.764 351.225 141.937 351.534 142.246C351.842 142.555 352.016 142.973 352.016 143.409C352.016 143.846 351.842 144.264 351.534 144.573C351.225 144.881 350.807 145.055 350.37 145.055H340.45C340.014 145.055 339.595 144.881 339.287 144.573C338.978 144.264 338.805 143.846 338.805 143.409V128.533C338.805 128.097 338.978 127.679 339.287 127.37C339.595 127.061 340.014 126.888 340.45 126.888H350.37C350.807 126.888 351.225 127.061 351.534 127.37C351.842 127.679 352.016 128.097 352.016 128.533C352.016 128.97 351.842 129.388 351.534 129.697C351.225 130.005 350.807 130.179 350.37 130.179H342.095ZM360.288 131.846H355.33C354.894 131.846 354.476 132.019 354.167 132.328C353.858 132.636 353.685 133.055 353.685 133.491C353.685 133.928 353.858 134.346 354.167 134.655C354.476 134.963 354.894 135.137 355.33 135.137H360.288C360.725 135.137 361.143 134.963 361.452 134.655C361.76 134.346 361.934 133.928 361.934 133.491C361.934 133.055 361.76 132.636 361.452 132.328C361.143 132.019 360.725 131.846 360.288 131.846ZM360.288 136.804H355.33C354.894 136.804 354.476 136.977 354.167 137.286C353.858 137.594 353.685 138.013 353.685 138.449C353.685 138.886 353.858 139.304 354.167 139.613C354.476 139.921 354.894 140.095 355.33 140.095H360.288C360.725 140.095 361.143 139.921 361.452 139.613C361.76 139.304 361.934 138.886 361.934 138.449C361.934 138.013 361.76 137.594 361.452 137.286C361.143 136.977 360.725 136.804 360.288 136.804ZM375.645 126.956C375.307 126.855 374.946 126.864 374.614 126.983C374.282 127.103 373.998 127.325 373.802 127.619L370.209 133.004L366.617 127.619C366.421 127.325 366.136 127.102 365.804 126.983C365.471 126.863 365.11 126.854 364.772 126.957C364.434 127.059 364.138 127.267 363.927 127.551C363.717 127.834 363.603 128.178 363.603 128.531V143.409C363.603 143.846 363.776 144.264 364.085 144.573C364.394 144.881 364.812 145.055 365.248 145.055C365.685 145.055 366.103 144.881 366.412 144.573C366.72 144.264 366.894 143.846 366.894 143.409V133.965L368.84 136.883C369.452 137.802 370.968 137.802 371.577 136.883L373.523 133.965V143.409C373.523 143.846 373.697 144.264 374.005 144.573C374.314 144.881 374.732 145.055 375.169 145.055C375.605 145.055 376.024 144.881 376.332 144.573C376.641 144.264 376.814 143.846 376.814 143.409V128.533C376.814 128.18 376.7 127.836 376.49 127.553C376.279 127.269 375.983 127.061 375.645 126.958V126.956ZM383.849 126.886C382.427 126.887 381.062 127.453 380.056 128.459C379.05 129.465 378.485 130.829 378.483 132.252V139.691C378.485 141.113 379.051 142.477 380.057 143.483C381.063 144.488 382.427 145.054 383.849 145.055C385.271 145.053 386.635 144.487 387.64 143.482C388.646 142.476 389.211 141.113 389.213 139.691V138.451C389.213 138.015 389.04 137.597 388.731 137.288C388.423 136.979 388.004 136.806 387.568 136.806C387.131 136.806 386.713 136.979 386.404 137.288C386.096 137.597 385.923 138.015 385.923 138.451V139.691C385.905 140.229 385.679 140.74 385.292 141.115C384.905 141.489 384.387 141.699 383.848 141.699C383.31 141.699 382.792 141.489 382.405 141.115C382.018 140.74 381.792 140.229 381.774 139.691V132.252C381.792 131.713 382.018 131.203 382.405 130.828C382.792 130.454 383.31 130.244 383.848 130.244C384.387 130.244 384.905 130.454 385.292 130.828C385.679 131.203 385.905 131.713 385.923 132.252V133.491C385.923 133.928 386.096 134.346 386.404 134.655C386.713 134.963 387.131 135.137 387.568 135.137C388.004 135.137 388.423 134.963 388.731 134.655C389.04 134.346 389.213 133.928 389.213 133.491V132.252C389.212 130.829 388.647 129.466 387.641 128.46C386.635 127.454 385.272 126.888 383.849 126.886ZM397.488 134.327H395.601L397.482 131.508C398.563 129.885 399.133 127.998 399.133 126.05C399.133 123.777 397.282 121.926 395.009 121.926C392.736 121.926 390.885 123.777 390.885 126.05C390.885 126.486 391.058 126.905 391.367 127.213C391.675 127.522 392.094 127.695 392.53 127.695C392.967 127.695 393.385 127.522 393.694 127.213C394.002 126.905 394.175 126.486 394.175 126.05C394.175 125.829 394.263 125.617 394.42 125.461C394.576 125.304 394.788 125.216 395.009 125.216C395.23 125.216 395.442 125.304 395.599 125.461C395.755 125.617 395.843 125.829 395.843 126.05C395.843 127.347 395.463 128.601 394.744 129.683L391.159 135.058C390.993 135.305 390.897 135.594 390.881 135.892C390.866 136.19 390.933 136.486 391.074 136.749C391.214 137.013 391.424 137.233 391.68 137.386C391.936 137.539 392.23 137.619 392.528 137.618H397.488C397.924 137.618 398.343 137.444 398.652 137.136C398.96 136.827 399.133 136.409 399.133 135.973C399.133 135.536 398.96 135.118 398.652 134.809C398.343 134.501 397.924 134.327 397.488 134.327Z" stroke="url(#paint2_linear_1077_279)" stroke-width="1.3465" mask="url(#path-25-inside-1_1077_279)"/>
<line x1="432.624" y1="115.436" x2="432.418" y2="151.543" stroke="white" stroke-width="0.841565"/>
<g filter="url(#filter3_f_1077_279)">
<path d="M485.307 123.916H501.403L496.768 131.519L481.527 156.513L472.259 171.714V143.06H456.161L460.798 135.457L476.037 110.463L485.307 95.2617V123.916Z" stroke="#FF6600" stroke-width="10"/>
</g>
<g filter="url(#filter4_f_1077_279)">
<path d="M482.807 126.416H496.951L494.633 130.218L479.393 155.211L474.759 162.812V140.56H460.614L462.932 136.759L478.172 111.765L482.807 104.164V126.416Z" stroke="#FF6600" stroke-width="5"/>
</g>
<g filter="url(#filter5_f_1077_279)">
<path d="M481.358 127.864H494.372L493.396 129.464L478.156 154.457L476.206 157.655V139.112H463.193L464.168 137.513L479.408 112.519L481.358 109.32V127.864Z" stroke="#FF6600" stroke-width="2.10391"/>
</g>
<path d="M479.807 129.416H491.607L477.759 152.127V137.56H465.957L479.807 114.847V129.416Z" stroke="white"/>
<path d="M550.66 149.206L520.723 149.219L524.029 143.334C524.853 141.868 526.402 140.959 528.083 140.955L545.874 140.917L550.66 149.206ZM527.331 129.079C528.189 130.525 528.201 132.322 527.363 133.78L518.5 149.206H508.93L523.888 123.273L527.331 129.079ZM528.087 142.27C526.88 142.272 525.767 142.925 525.176 143.978L522.97 147.903L548.384 147.893L545.117 142.234L528.087 142.27ZM511.206 147.892H517.739L526.224 133.125C526.825 132.078 526.816 130.788 526.2 129.75L523.903 125.877L511.206 147.892ZM544.81 138.967L538.06 139.055C536.379 139.077 534.817 138.191 533.971 136.738L525.021 121.362L529.795 113.066L544.81 138.967ZM526.54 121.357L535.105 136.077C535.713 137.121 536.836 137.756 538.043 137.74L542.545 137.682L529.799 115.694L526.54 121.357Z" fill="url(#paint3_linear_1077_279)"/>
<line x1="584.153" y1="115.436" x2="583.948" y2="151.543" stroke="url(#paint4_linear_1077_279)" stroke-width="0.841565"/>
<g filter="url(#filter6_f_1077_279)">
<path d="M646.137 115.414H625.153C620.435 115.414 616.596 119.253 616.596 123.971V134.389C616.596 138.73 619.844 142.326 624.037 142.874V150.449C624.037 150.596 624.066 150.741 624.122 150.877C624.178 151.012 624.26 151.135 624.364 151.239C624.467 151.342 624.59 151.425 624.726 151.481C624.861 151.537 625.006 151.566 625.153 151.566C625.443 151.566 625.729 151.452 625.942 151.239L634.234 142.947H646.137C650.856 142.947 654.695 139.108 654.695 134.389V123.971C654.695 119.253 650.856 115.414 646.137 115.414ZM652.462 134.389C652.462 137.877 649.625 140.714 646.137 140.714H633.772C633.476 140.714 633.192 140.832 632.983 141.041L626.269 147.755V141.83C626.269 141.214 625.77 140.714 625.153 140.714C621.665 140.714 618.828 137.877 618.828 134.389V123.971C618.828 120.484 621.665 117.646 625.153 117.646H646.137C649.625 117.646 652.462 120.484 652.462 123.971V134.389Z" fill="#0029CC"/>
<path d="M646.138 111.914C652.789 111.914 658.195 117.32 658.195 123.972V134.39C658.195 141.041 652.789 146.446 646.138 146.446H635.685L628.417 153.714C627.533 154.598 626.352 155.065 625.153 155.065H625.152C624.778 155.065 624.405 155.019 624.043 154.93L622.77 156.204V154.401C622.45 154.209 622.154 153.978 621.889 153.713C621.46 153.284 621.12 152.776 620.888 152.216C620.656 151.656 620.537 151.055 620.537 150.449V145.525C616.172 143.711 613.096 139.409 613.096 134.39V123.972C613.096 117.32 618.502 111.914 625.153 111.914H646.138ZM625.153 121.146C623.599 121.146 622.328 122.417 622.328 123.972V134.39C622.328 135.944 623.599 137.214 625.153 137.214C626.967 137.214 628.535 138.261 629.29 139.783L630.508 138.566L630.674 138.409C631.521 137.642 632.625 137.214 633.772 137.214H646.138C647.692 137.214 648.963 135.944 648.963 134.39V123.972C648.963 122.417 647.692 121.147 646.138 121.146H625.153Z" stroke="#0029CC" stroke-width="7"/>
</g>
<path d="M646.137 115.414H625.153C620.435 115.414 616.596 119.253 616.596 123.971V134.389C616.596 138.73 619.844 142.326 624.037 142.874V150.449C624.037 150.596 624.066 150.741 624.122 150.877C624.178 151.012 624.26 151.135 624.364 151.239C624.467 151.342 624.59 151.425 624.726 151.481C624.861 151.537 625.006 151.566 625.153 151.566C625.443 151.566 625.729 151.452 625.942 151.239L634.234 142.947H646.137C650.856 142.947 654.695 139.108 654.695 134.389V123.971C654.695 119.253 650.856 115.414 646.137 115.414ZM652.462 134.389C652.462 137.877 649.625 140.714 646.137 140.714H633.772C633.476 140.714 633.192 140.832 632.983 141.041L626.269 147.755V141.83C626.269 141.214 625.77 140.714 625.153 140.714C621.665 140.714 618.828 137.877 618.828 134.389V123.971C618.828 120.484 621.665 117.646 625.153 117.646H646.137C649.625 117.646 652.462 120.484 652.462 123.971V134.389Z" fill="white"/>
<path d="M641.229 129.638C641.229 127.791 642.731 126.289 644.577 126.289C646.424 126.289 647.926 127.791 647.926 129.638C647.926 131.484 646.424 132.986 644.577 132.986C642.731 132.986 641.229 131.484 641.229 129.638Z" fill="#EBEDF0"/>
<path d="M643.143 129.641C643.143 128.85 643.786 128.207 644.576 128.207C645.367 128.207 646.01 128.85 646.01 129.641C646.01 130.431 645.367 131.074 644.576 131.074C643.786 131.074 643.143 130.431 643.143 129.641Z" fill="#0A0A0A"/>
<path d="M626.716 126.289C624.869 126.289 623.367 127.791 623.367 129.638C623.367 131.484 624.869 132.986 626.716 132.986C628.562 132.986 630.064 131.484 630.064 129.638C630.064 127.791 628.562 126.289 626.716 126.289ZM626.716 130.754C626.1 130.754 625.6 130.253 625.6 129.638C625.6 129.022 626.1 128.521 626.716 128.521C627.331 128.521 627.832 129.022 627.832 129.638C627.832 130.253 627.331 130.754 626.716 130.754ZM635.645 126.289C633.799 126.289 632.297 127.791 632.297 129.638C632.297 131.484 633.799 132.986 635.645 132.986C637.492 132.986 638.994 131.484 638.994 129.638C638.994 127.791 637.492 126.289 635.645 126.289ZM635.645 130.754C635.03 130.754 634.529 130.253 634.529 129.638C634.529 129.022 635.03 128.521 635.645 128.521C636.261 128.521 636.761 129.022 636.761 129.638C636.761 130.253 636.261 130.754 635.645 130.754Z" fill="#A1A1A1"/>
<path d="M700.128 125.605L690.268 115.745C690.163 115.64 690.039 115.557 689.902 115.5C689.764 115.443 689.618 115.414 689.469 115.414H674.744C672.749 115.414 671.127 117.036 671.127 119.031V147.949C671.127 149.943 672.749 151.565 674.744 151.565H696.843C698.837 151.565 700.459 149.943 700.459 147.949V126.404C700.459 126.256 700.43 126.109 700.373 125.972C700.317 125.835 700.233 125.71 700.128 125.605ZM690.599 119.271L696.602 125.275H690.599V119.271ZM696.843 149.306H674.744C673.995 149.306 673.386 148.697 673.386 147.949V119.031C673.386 118.282 673.995 117.674 674.744 117.674H688.339V126.404C688.339 127.028 688.845 127.534 689.469 127.534H698.2V147.949C698.2 148.697 697.591 149.306 696.843 149.306ZM693.871 134.183C693.871 134.807 693.365 135.313 692.741 135.313H678.845C678.221 135.313 677.716 134.807 677.716 134.183C677.716 133.56 678.221 133.054 678.845 133.054H692.741C693.365 133.054 693.871 133.56 693.871 134.183ZM693.871 141.894C693.871 142.518 693.365 143.024 692.741 143.024H678.845C678.221 143.024 677.716 142.518 677.716 141.894C677.716 141.27 678.221 140.764 678.845 140.764H692.741C693.365 140.764 693.871 141.27 693.871 141.894Z" fill="#A1A1A1"/>
<path d="M747.604 133.037C747.101 133.037 746.698 133.533 746.698 134.154V144.32C746.698 147.085 744.873 149.329 742.639 149.329H722.764C720.523 149.329 718.704 147.077 718.704 144.32V133.989C718.704 133.368 718.302 132.871 717.798 132.871C717.295 132.871 716.893 133.368 716.893 133.989V144.32C716.893 148.319 719.53 151.564 722.764 151.564H742.639C745.879 151.564 748.51 148.31 748.51 144.32V134.154C748.51 133.542 748.107 133.037 747.604 133.037Z" fill="#2637CF"/>
<path d="M747.604 133.037C747.101 133.037 746.698 133.533 746.698 134.154V144.32C746.698 147.085 744.873 149.329 742.639 149.329H722.764C720.523 149.329 718.704 147.077 718.704 144.32V133.989C718.704 133.368 718.302 132.871 717.798 132.871C717.295 132.871 716.893 133.368 716.893 133.989V144.32C716.893 148.319 719.53 151.564 722.764 151.564H742.639C745.879 151.564 748.51 148.31 748.51 144.32V134.154C748.51 133.542 748.107 133.037 747.604 133.037Z" fill="white"/>
<g filter="url(#filter7_f_1077_279)">
<path d="M731.921 142.691C732.136 142.907 732.426 143.023 732.707 143.023C732.989 143.023 733.278 142.915 733.494 142.691L740.596 135.589C741.035 135.15 741.035 134.446 740.596 134.007C740.158 133.569 739.454 133.569 739.015 134.007L733.825 139.206V116.532C733.825 115.911 733.328 115.414 732.707 115.414C732.086 115.414 731.59 115.911 731.59 116.532V139.206L726.391 134.007C725.952 133.569 725.248 133.569 724.81 134.007C724.371 134.446 724.371 135.15 724.81 135.589L731.921 142.691Z" fill="#A1A1A1"/>
<path d="M732.707 113.914C734.156 113.914 735.324 115.082 735.324 116.531V135.581L737.954 132.947V132.946C738.915 131.986 740.428 131.926 741.458 132.767L741.657 132.946L741.837 133.146C742.678 134.175 742.618 135.689 741.657 136.649L734.554 143.752L734.553 143.751C734.035 144.277 733.355 144.522 732.707 144.522C732.026 144.522 731.355 144.247 730.86 143.752V143.753L723.749 136.649C722.724 135.625 722.724 133.971 723.749 132.946C724.773 131.922 726.427 131.922 727.451 132.946L730.09 135.585V116.531C730.09 115.082 731.258 113.914 732.707 113.914Z" stroke="#1527CE" stroke-width="3"/>
</g>
<g filter="url(#filter8_f_1077_279)">
<path d="M731.921 142.691C732.136 142.907 732.426 143.023 732.707 143.023C732.989 143.023 733.278 142.915 733.494 142.691L740.596 135.589C741.035 135.15 741.035 134.446 740.596 134.007C740.158 133.569 739.454 133.569 739.015 134.007L733.825 139.206V116.532C733.825 115.911 733.328 115.414 732.707 115.414C732.086 115.414 731.59 115.911 731.59 116.532V139.206L726.391 134.007C725.952 133.569 725.248 133.569 724.81 134.007C724.371 134.446 724.371 135.15 724.81 135.589L731.921 142.691Z" fill="#A1A1A1"/>
<path d="M732.707 113.914C734.156 113.914 735.324 115.082 735.324 116.531V135.581L737.954 132.947V132.946C738.915 131.986 740.428 131.926 741.458 132.767L741.657 132.946L741.837 133.146C742.678 134.175 742.618 135.689 741.657 136.649L734.554 143.752L734.553 143.751C734.035 144.277 733.355 144.522 732.707 144.522C732.026 144.522 731.355 144.247 730.86 143.752V143.753L723.749 136.649C722.724 135.625 722.724 133.971 723.749 132.946C724.773 131.922 726.427 131.922 727.451 132.946L730.09 135.585V116.531C730.09 115.082 731.258 113.914 732.707 113.914Z" stroke="#1527CE" stroke-width="3"/>
</g>
<path d="M731.921 142.691C732.136 142.907 732.426 143.023 732.707 143.023C732.989 143.023 733.278 142.915 733.494 142.691L740.596 135.589C741.035 135.15 741.035 134.446 740.596 134.007C740.158 133.569 739.454 133.569 739.015 134.007L733.825 139.206V116.532C733.825 115.911 733.328 115.414 732.707 115.414C732.086 115.414 731.59 115.911 731.59 116.532V139.206L726.391 134.007C725.952 133.569 725.248 133.569 724.81 134.007C724.371 134.446 724.371 135.15 724.81 135.589L731.921 142.691Z" fill="white"/>
<rect x="129.338" y="216.935" width="128" height="37" rx="7" transform="rotate(4 129.338 216.935)" stroke="#00B6CC" stroke-width="2"/>
<path d="M147.981 230.845L149.321 230.938L148.884 237.195C148.865 237.461 148.84 237.753 148.807 238.072C148.785 238.38 148.758 238.689 148.726 238.996C148.694 239.304 148.658 239.58 148.62 239.823C148.593 240.056 148.57 240.237 148.55 240.364L148.614 240.368L155.546 231.374L157.142 231.485L156.345 242.881L155.005 242.788L155.438 236.595C155.458 236.308 155.485 235.999 155.518 235.67C155.553 235.33 155.586 235.007 155.618 234.699C155.662 234.381 155.698 234.1 155.726 233.856C155.753 233.612 155.777 233.432 155.795 233.316L155.732 233.311L148.78 242.352L147.184 242.241L147.981 230.845ZM161.23 234.626L160.982 238.185L165.626 238.51L165.875 234.951L167.28 235.049L166.681 243.604L165.277 243.506L165.544 239.691L160.899 239.367L160.632 243.181L159.228 243.083L159.826 234.528L161.23 234.626ZM171.393 235.337L171.144 238.896L175.789 239.221L176.038 235.662L177.442 235.76L176.844 244.315L175.44 244.217L175.706 240.402L171.062 240.077L170.795 243.892L169.39 243.794L169.989 235.239L171.393 235.337ZM187.291 240.731C187.241 241.444 187.101 242.07 186.871 242.61C186.652 243.14 186.354 243.584 185.976 243.943C185.609 244.302 185.168 244.565 184.654 244.733C184.151 244.89 183.596 244.947 182.989 244.905C182.426 244.866 181.911 244.733 181.445 244.508C180.981 244.273 180.586 243.951 180.262 243.543C179.937 243.136 179.693 242.654 179.529 242.097C179.376 241.53 179.325 240.89 179.374 240.177C179.441 239.23 179.656 238.443 180.021 237.817C180.386 237.179 180.879 236.711 181.498 236.412C182.119 236.103 182.839 235.977 183.658 236.034C184.435 236.088 185.103 236.311 185.664 236.704C186.236 237.086 186.664 237.618 186.948 238.301C187.243 238.974 187.357 239.784 187.291 240.731ZM180.827 240.279C180.78 240.949 180.824 241.54 180.96 242.052C181.106 242.555 181.356 242.952 181.71 243.244C182.064 243.536 182.528 243.702 183.103 243.742C183.677 243.782 184.16 243.682 184.551 243.442C184.942 243.202 185.24 242.844 185.445 242.366C185.66 241.879 185.792 241.3 185.839 240.629C185.886 239.948 185.836 239.362 185.689 238.871C185.542 238.379 185.291 237.993 184.936 237.711C184.593 237.42 184.129 237.254 183.543 237.213C182.671 237.152 182.018 237.395 181.584 237.942C181.15 238.489 180.898 239.268 180.827 240.279ZM196.544 239.261C196.507 239.793 196.318 240.197 195.978 240.472C195.638 240.748 195.214 240.921 194.706 240.993L194.702 241.057C195.229 241.168 195.678 241.392 196.05 241.728C196.423 242.054 196.587 242.536 196.543 243.174C196.517 243.536 196.425 243.866 196.265 244.165C196.116 244.465 195.895 244.717 195.603 244.921C195.31 245.125 194.942 245.276 194.496 245.373C194.052 245.459 193.521 245.481 192.904 245.438L189.217 245.18L189.815 236.625L193.486 236.882C194.093 236.924 194.631 237.031 195.1 237.203C195.58 237.365 195.948 237.615 196.202 237.954C196.468 238.282 196.582 238.718 196.544 239.261ZM195.09 243.073C195.125 242.583 194.963 242.219 194.605 241.98C194.248 241.741 193.707 241.597 192.984 241.546L190.893 241.4L190.701 244.145L192.824 244.293C193.526 244.343 194.07 244.279 194.457 244.103C194.844 243.916 195.055 243.573 195.09 243.073ZM195.111 239.337C195.139 238.933 195.011 238.63 194.725 238.428C194.451 238.216 193.985 238.087 193.325 238.041L191.138 237.888L190.974 240.235L192.906 240.37C193.597 240.418 194.131 240.359 194.506 240.193C194.881 240.027 195.083 239.741 195.111 239.337ZM202.262 237.351C203.304 237.424 204.06 237.707 204.528 238.199C204.996 238.692 205.195 239.438 205.125 240.438L204.718 246.264L203.696 246.193L203.51 244.961L203.446 244.956C203.18 245.248 202.906 245.49 202.625 245.685C202.356 245.869 202.047 245.997 201.7 246.069C201.364 246.142 200.956 246.161 200.477 246.128C199.966 246.092 199.51 245.969 199.107 245.759C198.716 245.55 198.416 245.251 198.208 244.862C198 244.463 197.917 243.976 197.957 243.401C198.017 242.55 198.398 241.919 199.1 241.509C199.803 241.087 200.853 240.904 202.25 240.959L203.706 241.013L203.741 240.502C203.791 239.789 203.672 239.283 203.382 238.985C203.093 238.687 202.667 238.518 202.103 238.479C201.656 238.447 201.225 238.487 200.811 238.597C200.398 238.696 200.01 238.819 199.647 238.964L199.289 237.881C199.676 237.705 200.129 237.565 200.65 237.463C201.171 237.35 201.708 237.312 202.262 237.351ZM202.357 241.945C201.29 241.913 200.539 242.031 200.103 242.3C199.678 242.57 199.446 242.976 199.408 243.519C199.375 243.998 199.494 244.359 199.766 244.602C200.048 244.847 200.418 244.985 200.875 245.017C201.599 245.068 202.214 244.913 202.72 244.552C203.227 244.182 203.51 243.581 203.568 242.751L203.622 241.985L202.357 241.945ZM215.596 250.008L214.223 249.912L214.431 246.943L207.36 246.449L207.958 237.894L209.363 237.992L208.847 245.366L213.269 245.675L213.784 238.301L215.189 238.399L214.672 245.789L215.885 245.874L215.596 250.008ZM219.003 243.911C218.996 244.006 218.981 244.144 218.958 244.325C218.946 244.495 218.928 244.681 218.903 244.882C218.879 245.073 218.855 245.258 218.832 245.439C218.809 245.608 218.789 245.746 218.771 245.851L223.853 239.005L225.577 239.126L224.979 247.681L223.67 247.589L224.022 242.546C224.034 242.375 224.05 242.152 224.069 241.875C224.099 241.599 224.129 241.329 224.158 241.063C224.188 240.787 224.213 240.581 224.234 240.443L219.185 247.276L217.445 247.154L218.043 238.599L219.368 238.691L219.003 243.911ZM229.259 244.628C229.252 244.724 229.237 244.862 229.214 245.042C229.202 245.212 229.184 245.398 229.159 245.599C229.135 245.79 229.111 245.976 229.088 246.156C229.066 246.325 229.045 246.463 229.027 246.568L234.109 239.722L235.833 239.843L235.235 248.398L233.926 248.306L234.279 243.263C234.291 243.092 234.306 242.869 234.325 242.592C234.355 242.316 234.385 242.046 234.414 241.781C234.444 241.505 234.469 241.298 234.49 241.16L229.441 247.993L227.701 247.871L228.299 239.316L229.624 239.409L229.259 244.628Z" fill="#EDEDED"/>
<rect x="379.924" y="228.027" width="128" height="37" rx="7" stroke="#00B6CC" stroke-width="2"/>
<path d="M391.476 252.027V240.603H398.26V241.867H392.916V245.435H394.612C395.753 245.435 396.638 245.579 397.268 245.867C397.897 246.145 398.334 246.529 398.58 247.019C398.825 247.499 398.948 248.054 398.948 248.683C398.948 249.377 398.809 249.974 398.532 250.475C398.265 250.977 397.828 251.361 397.22 251.627C396.612 251.894 395.812 252.027 394.82 252.027H391.476ZM394.676 250.795C395.7 250.795 396.42 250.625 396.836 250.283C397.252 249.931 397.46 249.398 397.46 248.683C397.46 248.193 397.358 247.803 397.156 247.515C396.964 247.217 396.644 247.003 396.196 246.875C395.758 246.747 395.172 246.683 394.436 246.683H392.916V250.795H394.676ZM404.44 243.291C405.176 243.291 405.805 243.451 406.328 243.771C406.861 244.091 407.266 244.545 407.544 245.131C407.832 245.707 407.976 246.385 407.976 247.163V248.011H402.104C402.125 248.982 402.37 249.723 402.84 250.235C403.32 250.737 403.986 250.987 404.84 250.987C405.384 250.987 405.864 250.939 406.28 250.843C406.706 250.737 407.144 250.587 407.592 250.395V251.627C407.154 251.819 406.722 251.958 406.296 252.043C405.869 252.139 405.362 252.187 404.776 252.187C403.965 252.187 403.245 252.022 402.616 251.691C401.997 251.361 401.512 250.87 401.16 250.219C400.818 249.558 400.648 248.753 400.648 247.803C400.648 246.865 400.802 246.059 401.112 245.387C401.432 244.715 401.874 244.198 402.44 243.835C403.016 243.473 403.682 243.291 404.44 243.291ZM404.424 244.443C403.752 244.443 403.218 244.662 402.824 245.099C402.44 245.526 402.21 246.123 402.136 246.891H406.504C406.504 246.401 406.429 245.974 406.28 245.611C406.13 245.249 405.901 244.966 405.592 244.763C405.293 244.55 404.904 244.443 404.424 244.443ZM412.415 243.291C413.065 243.291 413.631 243.382 414.111 243.563C414.591 243.734 414.964 243.99 415.231 244.331C415.497 244.662 415.631 245.067 415.631 245.547C415.631 246.07 415.487 246.486 415.199 246.795C414.911 247.094 414.516 247.313 414.015 247.451V247.515C414.356 247.611 414.671 247.745 414.959 247.915C415.247 248.086 415.476 248.31 415.647 248.587C415.828 248.865 415.919 249.222 415.919 249.659C415.919 250.129 415.785 250.555 415.519 250.939C415.263 251.323 414.863 251.627 414.319 251.851C413.785 252.075 413.097 252.187 412.255 252.187C411.849 252.187 411.46 252.166 411.087 252.123C410.724 252.081 410.393 252.017 410.095 251.931C409.807 251.846 409.551 251.745 409.327 251.627V250.363C409.689 250.534 410.116 250.689 410.607 250.827C411.108 250.966 411.652 251.035 412.239 251.035C412.665 251.035 413.049 250.987 413.391 250.891C413.743 250.795 414.02 250.646 414.223 250.443C414.425 250.23 414.527 249.942 414.527 249.579C414.527 249.249 414.436 248.982 414.255 248.779C414.073 248.566 413.801 248.406 413.439 248.299C413.087 248.193 412.633 248.139 412.079 248.139H410.927V246.987H411.855C412.591 246.987 413.177 246.891 413.615 246.699C414.063 246.497 414.287 246.155 414.287 245.675C414.287 245.27 414.116 244.966 413.775 244.763C413.444 244.561 412.964 244.459 412.335 244.459C411.865 244.459 411.449 244.507 411.087 244.603C410.735 244.689 410.345 244.822 409.919 245.003L409.423 243.883C409.881 243.681 410.361 243.531 410.863 243.435C411.364 243.339 411.881 243.291 412.415 243.291ZM425.459 247.723C425.459 248.438 425.363 249.073 425.171 249.627C424.989 250.171 424.723 250.635 424.371 251.019C424.029 251.403 423.608 251.697 423.107 251.899C422.616 252.091 422.067 252.187 421.459 252.187C420.893 252.187 420.371 252.091 419.891 251.899C419.411 251.697 418.995 251.403 418.643 251.019C418.291 250.635 418.013 250.171 417.811 249.627C417.619 249.073 417.523 248.438 417.523 247.723C417.523 246.774 417.683 245.974 418.003 245.323C418.323 244.662 418.781 244.161 419.379 243.819C419.976 243.467 420.685 243.291 421.507 243.291C422.285 243.291 422.968 243.467 423.555 243.819C424.152 244.161 424.616 244.662 424.947 245.323C425.288 245.974 425.459 246.774 425.459 247.723ZM418.979 247.723C418.979 248.395 419.064 248.982 419.235 249.483C419.416 249.974 419.693 250.353 420.067 250.619C420.44 250.886 420.915 251.019 421.491 251.019C422.067 251.019 422.541 250.886 422.915 250.619C423.288 250.353 423.56 249.974 423.731 249.483C423.912 248.982 424.003 248.395 424.003 247.723C424.003 247.041 423.912 246.459 423.731 245.979C423.549 245.499 423.272 245.131 422.899 244.875C422.536 244.609 422.061 244.475 421.475 244.475C420.6 244.475 419.965 244.763 419.571 245.339C419.176 245.915 418.979 246.71 418.979 247.723ZM434.938 243.451V252.027H433.53V244.651H429.098V252.027H427.69V243.451H434.938ZM440.922 243.307C441.968 243.307 442.741 243.537 443.242 243.995C443.744 244.454 443.994 245.185 443.994 246.187V252.027H442.97L442.698 250.811H442.634C442.389 251.121 442.133 251.382 441.866 251.595C441.61 251.798 441.312 251.947 440.97 252.043C440.64 252.139 440.234 252.187 439.754 252.187C439.242 252.187 438.778 252.097 438.362 251.915C437.957 251.734 437.637 251.457 437.402 251.083C437.168 250.699 437.05 250.219 437.05 249.643C437.05 248.79 437.386 248.134 438.058 247.675C438.73 247.206 439.765 246.95 441.162 246.907L442.618 246.859V246.347C442.618 245.633 442.464 245.137 442.154 244.859C441.845 244.582 441.408 244.443 440.842 244.443C440.394 244.443 439.968 244.513 439.562 244.651C439.157 244.779 438.778 244.929 438.426 245.099L437.994 244.043C438.368 243.841 438.81 243.67 439.322 243.531C439.834 243.382 440.368 243.307 440.922 243.307ZM441.338 247.883C440.272 247.926 439.53 248.097 439.114 248.395C438.709 248.694 438.506 249.115 438.506 249.659C438.506 250.139 438.65 250.491 438.938 250.715C439.237 250.939 439.616 251.051 440.074 251.051C440.8 251.051 441.402 250.854 441.882 250.459C442.362 250.054 442.602 249.435 442.602 248.603V247.835L441.338 247.883ZM450.083 252.187C449.326 252.187 448.649 252.033 448.051 251.723C447.465 251.414 447.001 250.934 446.659 250.283C446.329 249.633 446.163 248.801 446.163 247.787C446.163 246.731 446.339 245.873 446.691 245.211C447.043 244.55 447.518 244.065 448.115 243.755C448.723 243.446 449.411 243.291 450.179 243.291C450.617 243.291 451.038 243.339 451.443 243.435C451.849 243.521 452.179 243.627 452.435 243.755L452.003 244.923C451.747 244.827 451.449 244.737 451.107 244.651C450.766 244.566 450.446 244.523 450.147 244.523C449.571 244.523 449.097 244.646 448.723 244.891C448.35 245.137 448.073 245.499 447.891 245.979C447.71 246.459 447.619 247.057 447.619 247.771C447.619 248.454 447.71 249.035 447.891 249.515C448.073 249.995 448.345 250.358 448.707 250.603C449.07 250.849 449.523 250.971 450.067 250.971C450.537 250.971 450.947 250.923 451.299 250.827C451.662 250.731 451.993 250.614 452.291 250.475V251.723C452.003 251.873 451.683 251.985 451.331 252.059C450.99 252.145 450.574 252.187 450.083 252.187ZM455.739 243.451V247.019H460.395V243.451H461.803V252.027H460.395V248.203H455.739V252.027H454.331V243.451H455.739ZM471.974 247.723C471.974 248.438 471.878 249.073 471.686 249.627C471.505 250.171 471.238 250.635 470.886 251.019C470.545 251.403 470.124 251.697 469.622 251.899C469.132 252.091 468.582 252.187 467.974 252.187C467.409 252.187 466.886 252.091 466.406 251.899C465.926 251.697 465.51 251.403 465.158 251.019C464.806 250.635 464.529 250.171 464.326 249.627C464.134 249.073 464.038 248.438 464.038 247.723C464.038 246.774 464.198 245.974 464.518 245.323C464.838 244.662 465.297 244.161 465.894 243.819C466.492 243.467 467.201 243.291 468.022 243.291C468.801 243.291 469.484 243.467 470.07 243.819C470.668 244.161 471.132 244.662 471.462 245.323C471.804 245.974 471.974 246.774 471.974 247.723ZM465.494 247.723C465.494 248.395 465.58 248.982 465.75 249.483C465.932 249.974 466.209 250.353 466.582 250.619C466.956 250.886 467.43 251.019 468.006 251.019C468.582 251.019 469.057 250.886 469.43 250.619C469.804 250.353 470.076 249.974 470.246 249.483C470.428 248.982 470.518 248.395 470.518 247.723C470.518 247.041 470.428 246.459 470.246 245.979C470.065 245.499 469.788 245.131 469.414 244.875C469.052 244.609 468.577 244.475 467.99 244.475C467.116 244.475 466.481 244.763 466.086 245.339C465.692 245.915 465.494 246.71 465.494 247.723ZM477.646 252.187C476.888 252.187 476.211 252.033 475.614 251.723C475.027 251.414 474.563 250.934 474.222 250.283C473.891 249.633 473.726 248.801 473.726 247.787C473.726 246.731 473.902 245.873 474.254 245.211C474.606 244.55 475.08 244.065 475.678 243.755C476.286 243.446 476.974 243.291 477.742 243.291C478.179 243.291 478.6 243.339 479.006 243.435C479.411 243.521 479.742 243.627 479.998 243.755L479.566 244.923C479.31 244.827 479.011 244.737 478.67 244.651C478.328 244.566 478.008 244.523 477.71 244.523C477.134 244.523 476.659 244.646 476.286 244.891C475.912 245.137 475.635 245.499 475.454 245.979C475.272 246.459 475.182 247.057 475.182 247.771C475.182 248.454 475.272 249.035 475.454 249.515C475.635 249.995 475.907 250.358 476.27 250.603C476.632 250.849 477.086 250.971 477.63 250.971C478.099 250.971 478.51 250.923 478.862 250.827C479.224 250.731 479.555 250.614 479.854 250.475V251.723C479.566 251.873 479.246 251.985 478.894 252.059C478.552 252.145 478.136 252.187 477.646 252.187ZM487.813 244.635H485.013V252.027H483.621V244.635H480.853V243.451H487.813V244.635ZM493.455 246.971C494.201 246.971 494.82 247.062 495.311 247.243C495.801 247.425 496.169 247.697 496.415 248.059C496.671 248.411 496.799 248.859 496.799 249.403C496.799 249.937 496.676 250.401 496.431 250.795C496.196 251.19 495.828 251.494 495.327 251.707C494.825 251.921 494.18 252.027 493.391 252.027H489.503V243.451H490.911V246.971H493.455ZM495.391 249.483C495.391 248.961 495.204 248.609 494.831 248.427C494.468 248.235 493.956 248.139 493.295 248.139H490.911V250.891H493.327C493.924 250.891 494.415 250.785 494.799 250.571C495.193 250.358 495.391 249.995 495.391 249.483Z" fill="#EDEDED"/>
<rect x="630.54" y="225.865" width="128" height="37" rx="7" transform="rotate(-4 630.54 225.865)" stroke="#00B6CC" stroke-width="2"/>
<path d="M671.506 247.059L669.782 247.179L664.223 241.762L664.627 247.54L663.19 247.64L662.393 236.244L663.83 236.144L664.216 241.666L668.858 235.792L670.486 235.678L665.925 241.563L671.506 247.059ZM680.003 242.15C680.053 242.863 680.001 243.503 679.848 244.07C679.705 244.625 679.472 245.106 679.147 245.514C678.834 245.921 678.434 246.243 677.948 246.48C677.472 246.706 676.931 246.84 676.324 246.882C675.76 246.922 675.232 246.862 674.74 246.704C674.247 246.536 673.811 246.272 673.433 245.914C673.055 245.555 672.746 245.112 672.506 244.583C672.276 244.043 672.136 243.417 672.086 242.704C672.02 241.757 672.124 240.948 672.398 240.276C672.671 239.594 673.093 239.062 673.665 238.68C674.237 238.287 674.932 238.062 675.751 238.005C676.528 237.95 677.221 238.078 677.831 238.389C678.451 238.687 678.949 239.155 679.325 239.792C679.711 240.417 679.937 241.203 680.003 242.15ZM673.539 242.602C673.586 243.273 673.712 243.852 673.917 244.34C674.132 244.817 674.435 245.175 674.826 245.415C675.217 245.655 675.7 245.755 676.274 245.715C676.849 245.675 677.313 245.509 677.667 245.217C678.021 244.925 678.266 244.528 678.402 244.026C678.548 243.514 678.597 242.922 678.55 242.252C678.503 241.571 678.372 240.997 678.157 240.531C677.943 240.065 677.641 239.717 677.25 239.488C676.87 239.247 676.387 239.147 675.802 239.188C674.929 239.249 674.316 239.581 673.963 240.183C673.609 240.785 673.468 241.591 673.539 242.602ZM691.109 237.091L691.707 245.646L690.446 245.734L690.064 240.276C690.049 240.052 690.037 239.818 690.031 239.572C690.035 239.326 690.04 239.085 690.045 238.85L689.997 238.853L687.685 245.928L686.503 246.01L683.309 239.321L683.261 239.324C683.299 239.557 683.326 239.795 683.343 240.04C683.371 240.284 683.394 240.534 683.412 240.789L683.79 246.2L682.529 246.288L681.931 237.733L683.798 237.602L686.977 244.293L689.241 237.222L691.109 237.091ZM697.069 236.53C698.112 236.457 698.9 236.632 699.432 237.054C699.964 237.477 700.265 238.188 700.335 239.189L700.742 245.014L699.721 245.086L699.365 243.892L699.301 243.896C699.078 244.222 698.84 244.501 698.589 244.732C698.348 244.952 698.06 245.122 697.727 245.241C697.404 245.36 697.003 245.436 696.524 245.47C696.013 245.506 695.544 245.447 695.116 245.296C694.699 245.143 694.361 244.889 694.1 244.533C693.84 244.166 693.689 243.695 693.649 243.121C693.589 242.269 693.879 241.592 694.517 241.087C695.155 240.572 696.169 240.245 697.56 240.104L699.009 239.955L698.973 239.444C698.923 238.731 698.735 238.247 698.407 237.992C698.079 237.737 697.633 237.629 697.069 237.669C696.622 237.7 696.201 237.799 695.806 237.966C695.411 238.122 695.044 238.297 694.704 238.492L694.2 237.468C694.558 237.24 694.988 237.039 695.489 236.865C695.989 236.68 696.516 236.569 697.069 236.53ZM697.804 241.066C696.743 241.183 696.015 241.405 695.621 241.732C695.237 242.058 695.064 242.492 695.102 243.035C695.136 243.514 695.304 243.855 695.607 244.058C695.921 244.261 696.306 244.346 696.764 244.314C697.487 244.264 698.075 244.025 698.526 243.598C698.977 243.16 699.173 242.526 699.115 241.696L699.061 240.93L697.804 241.066ZM704.191 236.176L704.44 239.736L709.084 239.411L708.835 235.852L710.24 235.753L710.838 244.308L709.434 244.407L709.167 240.592L704.522 240.917L704.789 244.731L703.384 244.83L702.786 236.275L704.191 236.176ZM719.301 235.12L719.817 242.494L721.062 242.407L721.352 246.557L719.996 246.651L719.788 243.683L713.834 244.099L714.042 247.068L712.701 247.161L712.411 243.012L713.097 242.964C713.539 242.248 713.892 241.481 714.155 240.66C714.429 239.828 714.615 238.971 714.713 238.087C714.822 237.192 714.851 236.308 714.8 235.434L719.301 235.12ZM716.122 236.449C716.13 237.175 716.071 237.933 715.945 238.723C715.817 239.501 715.635 240.252 715.396 240.974C715.169 241.696 714.887 242.325 714.55 242.862L718.46 242.589L718.022 236.316L716.122 236.449ZM725.453 234.545C726.496 234.472 727.283 234.647 727.816 235.07C728.348 235.492 728.649 236.204 728.719 237.204L729.126 243.03L728.105 243.101L727.748 241.907L727.685 241.912C727.461 242.237 727.224 242.516 726.973 242.747C726.732 242.967 726.444 243.137 726.11 243.257C725.787 243.375 725.386 243.452 724.908 243.485C724.397 243.521 723.928 243.463 723.5 243.311C723.083 243.158 722.744 242.904 722.484 242.548C722.223 242.181 722.073 241.71 722.033 241.136C721.973 240.285 722.263 239.607 722.901 239.102C723.539 238.587 724.553 238.26 725.944 238.12L727.393 237.97L727.357 237.459C727.307 236.747 727.118 236.263 726.79 236.007C726.463 235.752 726.017 235.645 725.453 235.684C725.006 235.715 724.585 235.814 724.19 235.981C723.795 236.137 723.428 236.312 723.088 236.507L722.584 235.484C722.942 235.255 723.372 235.054 723.873 234.88C724.373 234.696 724.9 234.584 725.453 234.545ZM726.187 239.081C725.126 239.198 724.399 239.42 724.005 239.747C723.621 240.073 723.448 240.508 723.486 241.05C723.52 241.529 723.688 241.87 723.991 242.074C724.304 242.276 724.69 242.361 725.147 242.33C725.871 242.279 726.458 242.04 726.91 241.613C727.36 241.175 727.557 240.541 727.499 239.711L727.445 238.945L726.187 239.081Z" fill="#EDEDED"/>
<defs>
<filter id="filter0_f_1077_279" x="90.873" y="92.168" width="705.818" height="81.6953" filterUnits="userSpaceOnUse" color-interpolation-filters="sRGB">
<feFlood flood-opacity="0" result="BackgroundImageFix"/>
<feBlend mode="normal" in="SourceGraphic" in2="BackgroundImageFix" result="shape"/>
<feGaussianBlur stdDeviation="2" result="effect1_foregroundBlur_1077_279"/>
</filter>
<filter id="filter1_f_1077_279" x="83.873" y="85.168" width="719.818" height="95.6953" filterUnits="userSpaceOnUse" color-interpolation-filters="sRGB">
<feFlood flood-opacity="0" result="BackgroundImageFix"/>
<feBlend mode="normal" in="SourceGraphic" in2="BackgroundImageFix" result="shape"/>
<feGaussianBlur stdDeviation="5" result="effect1_foregroundBlur_1077_279"/>
</filter>
<filter id="filter2_f_1077_279" x="297.684" y="126.875" width="13.2305" height="13.2305" filterUnits="userSpaceOnUse" color-interpolation-filters="sRGB">
<feFlood flood-opacity="0" result="BackgroundImageFix"/>
<feBlend mode="normal" in="SourceGraphic" in2="BackgroundImageFix" result="shape"/>
<feGaussianBlur stdDeviation="1" result="effect1_foregroundBlur_1077_279"/>
</filter>
<filter id="filter3_f_1077_279" x="427.256" y="57.457" width="103.053" height="152.062" filterUnits="userSpaceOnUse" color-interpolation-filters="sRGB">
<feFlood flood-opacity="0" result="BackgroundImageFix"/>
<feBlend mode="normal" in="SourceGraphic" in2="BackgroundImageFix" result="shape"/>
<feGaussianBlur stdDeviation="10" result="effect1_foregroundBlur_1077_279"/>
</filter>
<filter id="filter4_f_1077_279" x="446.162" y="85.2617" width="65.2402" height="96.4531" filterUnits="userSpaceOnUse" color-interpolation-filters="sRGB">
<feFlood flood-opacity="0" result="BackgroundImageFix"/>
<feBlend mode="normal" in="SourceGraphic" in2="BackgroundImageFix" result="shape"/>
<feGaussianBlur stdDeviation="5" result="effect1_foregroundBlur_1077_279"/>
</filter>
<filter id="filter5_f_1077_279" x="451.32" y="95.5742" width="54.9258" height="75.8281" filterUnits="userSpaceOnUse" color-interpolation-filters="sRGB">
<feFlood flood-opacity="0" result="BackgroundImageFix"/>
<feBlend mode="normal" in="SourceGraphic" in2="BackgroundImageFix" result="shape"/>
<feGaussianBlur stdDeviation="5" result="effect1_foregroundBlur_1077_279"/>
</filter>
<filter id="filter6_f_1077_279" x="599.596" y="98.4141" width="72.0996" height="76.2383" filterUnits="userSpaceOnUse" color-interpolation-filters="sRGB">
<feFlood flood-opacity="0" result="BackgroundImageFix"/>
<feBlend mode="normal" in="SourceGraphic" in2="BackgroundImageFix" result="shape"/>
<feGaussianBlur stdDeviation="5" result="effect1_foregroundBlur_1077_279"/>
</filter>
<filter id="filter7_f_1077_279" x="717.48" y="108.414" width="30.4453" height="42.043" filterUnits="userSpaceOnUse" color-interpolation-filters="sRGB">
<feFlood flood-opacity="0" result="BackgroundImageFix"/>
<feBlend mode="normal" in="SourceGraphic" in2="BackgroundImageFix" result="shape"/>
<feGaussianBlur stdDeviation="2" result="effect1_foregroundBlur_1077_279"/>
</filter>
<filter id="filter8_f_1077_279" x="717.48" y="108.414" width="30.4453" height="42.043" filterUnits="userSpaceOnUse" color-interpolation-filters="sRGB">
<feFlood flood-opacity="0" result="BackgroundImageFix"/>
<feBlend mode="normal" in="SourceGraphic" in2="BackgroundImageFix" result="shape"/>
<feGaussianBlur stdDeviation="2" result="effect1_foregroundBlur_1077_279"/>
</filter>
<linearGradient id="paint0_linear_1077_279" x1="98.873" y1="133.016" x2="788.69" y2="133.016" gradientUnits="userSpaceOnUse">
<stop stop-color="#C300FF"/>
<stop offset="0.447115" stop-color="#0300CC"/>
<stop offset="0.548077" stop-color="white"/>
<stop offset="0.730769" stop-color="#0029CC"/>
<stop offset="1" stop-color="#750099"/>
</linearGradient>
<linearGradient id="paint1_linear_1077_279" x1="98.873" y1="133.016" x2="788.69" y2="133.016" gradientUnits="userSpaceOnUse">
<stop stop-color="#C300FF"/>
<stop offset="0.447115" stop-color="#0300CC"/>
<stop offset="0.548077" stop-color="white"/>
<stop offset="0.730769" stop-color="#0029CC"/>
<stop offset="1" stop-color="#750099"/>
</linearGradient>
<linearGradient id="paint2_linear_1077_279" x1="399.133" y1="133.487" x2="338.805" y2="133.494" gradientUnits="userSpaceOnUse">
<stop stop-color="#D35401"/>
<stop offset="0.100962" stop-color="white"/>
</linearGradient>
<linearGradient id="paint3_linear_1077_279" x1="510.646" y1="143.68" x2="539.146" y2="147.68" gradientUnits="userSpaceOnUse">
<stop offset="0.168269" stop-color="#CC5101"/>
<stop offset="0.605769" stop-color="white"/>
</linearGradient>
<linearGradient id="paint4_linear_1077_279" x1="601.183" y1="133.587" x2="565.076" y2="133.381" gradientUnits="userSpaceOnUse">
<stop offset="0.253541" stop-color="#001259"/>
<stop offset="0.651328" stop-color="#EDF0FB"/>
</linearGradient>
<clipPath id="clip0_1077_279">
<rect width="36.1513" height="36.1513" fill="white" transform="translate(184.135 115.414)"/>
</clipPath>
</defs>
</svg>
