<svg width="888" height="341" viewBox="0 0 888 341" fill="none" xmlns="http://www.w3.org/2000/svg">
<rect x="1.75677" y="87.1895" width="128" height="37" rx="7" transform="rotate(-4 1.75677 87.1895)" stroke="#FF6600" stroke-width="2"/>
<path d="M38.1579 108.705L36.5299 108.818L33.1673 104.081L30.4488 109.244L28.9325 109.35L32.3 103.148L28.375 97.9367L29.9711 97.8251L33.0768 102.099L35.5734 97.4333L37.0897 97.3273L33.9418 103.001L38.1579 108.705ZM43.0381 99.6059C44.0916 99.5323 44.9632 99.8402 45.6529 100.53C46.3534 101.219 46.7553 102.303 46.8587 103.782C46.9264 104.75 46.8348 105.58 46.5837 106.271C46.3425 106.951 45.9678 107.479 45.4596 107.857C44.9613 108.223 44.3556 108.432 43.6427 108.481C43.2065 108.512 42.814 108.481 42.4653 108.387C42.1166 108.294 41.8136 108.166 41.5562 108.002C41.3087 107.827 41.092 107.633 40.9061 107.422L40.8104 107.428C40.8443 107.608 40.8816 107.835 40.9222 108.11C40.9628 108.385 40.9902 108.624 41.0044 108.826L41.2499 112.338L39.8453 112.436L38.9792 100.05L40.1284 99.9698L40.4014 101.122L40.4653 101.117C40.6184 100.86 40.805 100.623 41.0249 100.404C41.2555 100.185 41.5317 100.005 41.8533 99.8652C42.1856 99.7243 42.5806 99.6379 43.0381 99.6059ZM42.8653 100.805C42.2907 100.845 41.8357 100.989 41.5002 101.237C41.1639 101.475 40.9312 101.817 40.8021 102.264C40.673 102.712 40.6266 103.271 40.6628 103.942L40.6818 104.214C40.7309 104.916 40.8471 105.506 41.0303 105.986C41.2135 106.465 41.4896 106.82 41.8586 107.05C42.2382 107.28 42.7366 107.374 43.3538 107.331C43.8751 107.294 44.2907 107.121 44.6005 106.81C44.9209 106.499 45.1438 106.094 45.2692 105.593C45.4045 105.081 45.4498 104.506 45.4051 103.867C45.3367 102.888 45.0905 102.12 44.6665 101.561C44.2531 101.002 43.6528 100.75 42.8653 100.805ZM52.029 98.9933C53.0718 98.9203 53.8593 99.0952 54.3914 99.5177C54.9235 99.9403 55.2245 100.652 55.2945 101.652L55.7018 107.478L54.6803 107.549L54.3242 106.355L54.2603 106.36C54.0372 106.685 53.8 106.964 53.5489 107.195C53.3076 107.415 53.0201 107.585 52.6863 107.705C52.3632 107.823 51.9622 107.9 51.4833 107.933C50.9726 107.969 50.5034 107.911 50.0757 107.759C49.6587 107.606 49.3202 107.352 49.06 106.996C48.7992 106.629 48.6486 106.159 48.6085 105.584C48.5489 104.733 48.8383 104.055 49.4767 103.55C50.1143 103.035 51.1286 102.708 52.5196 102.568L53.9687 102.418L53.933 101.908C53.8831 101.195 53.6942 100.711 53.3663 100.456C53.0384 100.2 52.5924 100.093 52.0285 100.132C51.5816 100.163 51.1608 100.262 50.7661 100.429C50.3707 100.585 50.0034 100.76 49.6641 100.955L49.1595 99.9317C49.5178 99.7035 49.9475 99.5024 50.4486 99.3283C50.9489 99.1436 51.4757 99.0319 52.029 98.9933ZM52.7632 103.529C51.7021 103.646 50.9745 103.868 50.5804 104.195C50.1969 104.521 50.0241 104.956 50.062 105.498C50.0955 105.977 50.2637 106.318 50.5666 106.522C50.8802 106.724 51.2658 106.81 51.7233 106.778C52.4469 106.727 53.0343 106.488 53.4856 106.061C53.9362 105.623 54.1324 104.989 54.0744 104.159L54.0208 103.393L52.7632 103.529ZM59.1505 98.6396L59.3994 102.199L64.044 101.874L63.7951 98.3148L65.1997 98.2166L65.7979 106.772L64.3934 106.87L64.1266 103.055L59.482 103.38L59.7487 107.195L58.3441 107.293L57.7459 98.7378L59.1505 98.6396ZM71.2014 97.6366C71.9356 97.5852 72.5745 97.7009 73.1182 97.9837C73.6726 98.2657 74.1086 98.6897 74.4261 99.2556C74.7536 99.8101 74.9445 100.476 74.9988 101.252L75.058 102.098L69.2003 102.508C69.2893 103.475 69.5857 104.197 70.0896 104.675C70.6034 105.142 71.286 105.345 72.1372 105.286C72.6799 105.248 73.1554 105.167 73.5637 105.042C73.9819 104.906 74.4077 104.726 74.8412 104.503L74.9272 105.732C74.5043 105.954 74.083 106.123 73.6633 106.238C73.2444 106.363 72.7423 106.447 72.1571 106.487C71.3484 106.544 70.6186 106.429 69.9678 106.143C69.3275 105.857 68.8092 105.401 68.4126 104.776C68.026 104.141 67.7996 103.349 67.7333 102.402C67.6679 101.466 67.766 100.652 68.0277 99.9596C68.3 99.2669 68.7055 98.72 69.2442 98.3187C69.7935 97.9168 70.4459 97.6894 71.2014 97.6366ZM71.2658 98.7869C70.5954 98.8337 70.0786 99.0891 69.7154 99.5529C69.3621 100.005 69.175 100.617 69.1541 101.389L73.5115 101.084C73.4772 100.594 73.373 100.174 73.1987 99.8226C73.0244 99.4712 72.776 99.2052 72.4532 99.0246C72.1404 98.8326 71.7446 98.7534 71.2658 98.7869ZM78.3224 97.299L78.5713 100.858L83.216 100.534L82.9671 96.9742L84.3716 96.876L84.9699 105.431L83.5653 105.529L83.2985 101.715L78.6539 102.039L78.9206 105.854L77.5161 105.952L76.9178 97.3972L78.3224 97.299ZM88.7703 101.813C88.7769 101.909 88.7813 102.048 88.7833 102.229C88.7952 102.4 88.8029 102.586 88.8064 102.789C88.8092 102.981 88.8115 103.168 88.8136 103.35C88.8148 103.521 88.8139 103.66 88.8107 103.767L92.8903 96.2803L94.6141 96.1598L95.2124 104.715L93.9036 104.806L93.5509 99.7627C93.539 99.5925 93.5233 99.369 93.504 99.0924C93.4953 98.815 93.4869 98.5429 93.479 98.2761C93.4703 97.9987 93.4664 97.7905 93.4674 97.6514L89.4185 105.12L87.6788 105.242L87.0805 96.6866L88.4053 96.5939L88.7703 101.813ZM100.629 95.5787C101.364 95.5274 102.003 95.6431 102.546 95.9259C103.101 96.2079 103.537 96.6318 103.854 97.1977C104.182 97.7522 104.373 98.4179 104.427 99.1947L104.486 100.041L98.6284 100.45C98.7174 101.417 99.0139 102.139 99.5178 102.617C100.032 103.084 100.714 103.288 101.565 103.228C102.108 103.19 102.584 103.109 102.992 102.984C103.41 102.848 103.836 102.668 104.269 102.446L104.355 103.675C103.932 103.897 103.511 104.065 103.091 104.18C102.673 104.305 102.17 104.389 101.585 104.43C100.777 104.486 100.047 104.371 99.3959 104.086C98.7557 103.799 98.2373 103.343 97.8408 102.719C97.4541 102.083 97.2277 101.291 97.1615 100.344C97.096 99.4079 97.1941 98.5937 97.4558 97.9018C97.7282 97.2091 98.1337 96.6621 98.6723 96.2609C99.2216 95.859 99.874 95.6316 100.629 95.5787ZM100.694 96.7291C100.024 96.7759 99.5068 97.0313 99.1436 97.4951C98.7903 97.9475 98.6031 98.5594 98.5822 99.3307L102.94 99.026C102.905 98.5365 102.801 98.1161 102.627 97.7647C102.453 97.4134 102.204 97.1474 101.881 96.9668C101.569 96.7748 101.173 96.6956 100.694 96.7291Z" fill="#A1A1A1"/>
<g filter="url(#filter0_f_1060_407)">
<rect x="493.5" y="62.5" width="153" height="64" rx="19.5" stroke="#FF00E5" stroke-width="25"/>
</g>
<g filter="url(#filter1_f_1060_407)">
<rect x="498.5" y="67.5" width="143" height="54" rx="14.5" stroke="#FF00E5" stroke-width="15"/>
</g>
<g filter="url(#filter2_f_1060_407)">
<rect x="503.5" y="72.5" width="133" height="44" rx="9.5" stroke="#FF00E5" stroke-width="5"/>
</g>
<g filter="url(#filter3_f_1060_407)">
<rect x="503.5" y="72.5" width="133" height="44" rx="9.5" stroke="#FF00E5" stroke-width="5"/>
</g>
<rect x="506" y="76" width="128" height="37" rx="7" stroke="white" stroke-width="2"/>
<path d="M530.068 88.576H531.412V94.848C531.412 95.1147 531.407 95.408 531.396 95.728C531.396 96.0373 531.391 96.3467 531.38 96.656C531.369 96.9653 531.353 97.2427 531.332 97.488C531.321 97.7227 531.311 97.904 531.3 98.032H531.364L537.652 88.576H539.252V100H537.908V93.792C537.908 93.504 537.913 93.1947 537.924 92.864C537.935 92.5227 537.945 92.1973 537.956 91.888C537.977 91.568 537.993 91.2853 538.004 91.04C538.015 90.7947 538.025 90.6133 538.036 90.496H537.972L531.668 100H530.068V88.576ZM543.549 91.424V94.992H548.205V91.424H549.613V100H548.205V96.176H543.549V100H542.141V91.424H543.549ZM558.249 92.608H555.449V100H554.057V92.608H551.289V91.424H558.249V92.608ZM563.094 91.264C563.83 91.264 564.459 91.424 564.982 91.744C565.515 92.064 565.921 92.5173 566.198 93.104C566.486 93.68 566.63 94.3573 566.63 95.136V95.984H560.758C560.779 96.9547 561.025 97.696 561.494 98.208C561.974 98.7093 562.641 98.96 563.494 98.96C564.038 98.96 564.518 98.912 564.934 98.816C565.361 98.7093 565.798 98.56 566.246 98.368V99.6C565.809 99.792 565.377 99.9307 564.95 100.016C564.523 100.112 564.017 100.16 563.43 100.16C562.619 100.16 561.899 99.9947 561.27 99.664C560.651 99.3333 560.166 98.8427 559.814 98.192C559.473 97.5307 559.302 96.7253 559.302 95.776C559.302 94.8373 559.457 94.032 559.766 93.36C560.086 92.688 560.529 92.1707 561.094 91.808C561.67 91.4453 562.337 91.264 563.094 91.264ZM563.078 92.416C562.406 92.416 561.873 92.6347 561.478 93.072C561.094 93.4987 560.865 94.096 560.79 94.864H565.158C565.158 94.3733 565.083 93.9467 564.934 93.584C564.785 93.2213 564.555 92.9387 564.246 92.736C563.947 92.5227 563.558 92.416 563.078 92.416ZM575.341 100H573.917V92.592H571.389C571.282 93.9467 571.149 95.104 570.989 96.064C570.829 97.0133 570.626 97.7867 570.381 98.384C570.136 98.9813 569.842 99.4187 569.501 99.696C569.16 99.9733 568.76 100.112 568.301 100.112C568.162 100.112 568.024 100.101 567.885 100.08C567.757 100.069 567.65 100.043 567.565 100V98.944C567.629 98.9653 567.698 98.9813 567.773 98.992C567.848 99.0027 567.922 99.008 567.997 99.008C568.232 99.008 568.445 98.912 568.637 98.72C568.829 98.528 569 98.2347 569.149 97.84C569.309 97.4453 569.453 96.9493 569.581 96.352C569.709 95.744 569.821 95.0293 569.917 94.208C570.013 93.3867 570.098 92.4587 570.173 91.424H575.341V100ZM584.591 100H583.167V92.592H580.639C580.532 93.9467 580.399 95.104 580.239 96.064C580.079 97.0133 579.876 97.7867 579.631 98.384C579.386 98.9813 579.092 99.4187 578.751 99.696C578.41 99.9733 578.01 100.112 577.551 100.112C577.412 100.112 577.274 100.101 577.135 100.08C577.007 100.069 576.9 100.043 576.815 100V98.944C576.879 98.9653 576.948 98.9813 577.023 98.992C577.098 99.0027 577.172 99.008 577.247 99.008C577.482 99.008 577.695 98.912 577.887 98.72C578.079 98.528 578.25 98.2347 578.399 97.84C578.559 97.4453 578.703 96.9493 578.831 96.352C578.959 95.744 579.071 95.0293 579.167 94.208C579.263 93.3867 579.348 92.4587 579.423 91.424H584.591V100ZM590.625 91.264C591.361 91.264 591.99 91.424 592.513 91.744C593.046 92.064 593.452 92.5173 593.729 93.104C594.017 93.68 594.161 94.3573 594.161 95.136V95.984H588.289C588.31 96.9547 588.556 97.696 589.025 98.208C589.505 98.7093 590.172 98.96 591.025 98.96C591.569 98.96 592.049 98.912 592.465 98.816C592.892 98.7093 593.329 98.56 593.777 98.368V99.6C593.34 99.792 592.908 99.9307 592.481 100.016C592.054 100.112 591.548 100.16 590.961 100.16C590.15 100.16 589.43 99.9947 588.801 99.664C588.182 99.3333 587.697 98.8427 587.345 98.192C587.004 97.5307 586.833 96.7253 586.833 95.776C586.833 94.8373 586.988 94.032 587.297 93.36C587.617 92.688 588.06 92.1707 588.625 91.808C589.201 91.4453 589.868 91.264 590.625 91.264ZM590.609 92.416C589.937 92.416 589.404 92.6347 589.009 93.072C588.625 93.4987 588.396 94.096 588.321 94.864H592.689C592.689 94.3733 592.614 93.9467 592.465 93.584C592.316 93.2213 592.086 92.9387 591.777 92.736C591.478 92.5227 591.089 92.416 590.609 92.416ZM601.416 91.424H602.952L599.288 95.552L603.256 100H601.624L597.752 95.648V100H596.344V91.424H597.752V95.584L601.416 91.424ZM610.733 92.608H607.933V100H606.541V92.608H603.773V91.424H610.733V92.608Z" fill="white"/>
<rect x="758.12" y="78.2626" width="128" height="37" rx="7" transform="rotate(4 758.12 78.2626)" stroke="#C300FF" stroke-width="2"/>
<path d="M771.462 103.255L772.259 91.8591L780.814 92.4574L780.017 103.854L778.596 103.754L779.305 93.619L773.607 93.2205L772.898 103.356L771.462 103.255ZM786.793 95.5861C787.836 95.659 788.592 95.9417 789.06 96.4343C789.528 96.9268 789.727 97.6732 789.657 98.6734L789.25 104.499L788.228 104.428L788.042 103.196L787.978 103.191C787.711 103.483 787.438 103.726 787.157 103.92C786.887 104.104 786.579 104.232 786.232 104.304C785.895 104.377 785.488 104.396 785.009 104.363C784.498 104.327 784.041 104.204 783.639 103.995C783.247 103.785 782.947 103.486 782.739 103.098C782.532 102.698 782.449 102.211 782.489 101.637C782.548 100.785 782.929 100.154 783.632 99.7437C784.335 99.3224 785.385 99.1392 786.782 99.1941L788.237 99.2478L788.273 98.737C788.323 98.0241 788.203 97.5185 787.914 97.2203C787.625 96.922 787.198 96.7532 786.634 96.7138C786.187 96.6825 785.757 96.7219 785.343 96.832C784.93 96.9314 784.541 97.0539 784.178 97.1996L783.821 96.1161C784.208 95.9399 784.661 95.8006 785.182 95.6979C785.703 95.5847 786.24 95.5474 786.793 95.5861ZM786.889 100.18C785.822 100.148 785.071 100.267 784.635 100.536C784.21 100.805 783.978 101.211 783.94 101.754C783.907 102.233 784.026 102.594 784.297 102.838C784.58 103.082 784.95 103.22 785.407 103.252C786.131 103.303 786.746 103.148 787.252 102.788C787.759 102.417 788.042 101.816 788.1 100.986L788.153 100.22L786.889 100.18ZM796.571 96.2538C797.625 96.3275 798.445 96.7537 799.032 97.5326C799.63 98.3122 799.877 99.4415 799.774 100.921C799.706 101.889 799.5 102.698 799.155 103.347C798.821 103.987 798.377 104.458 797.821 104.762C797.276 105.055 796.648 105.177 795.935 105.127C795.498 105.097 795.114 105.011 794.782 104.87C794.45 104.729 794.167 104.56 793.935 104.362C793.715 104.154 793.527 103.932 793.372 103.697L793.277 103.69C793.285 103.872 793.29 104.103 793.292 104.381C793.294 104.659 793.288 104.899 793.274 105.101L793.029 108.613L791.624 108.515L792.49 96.1288L793.639 96.2092L793.749 97.3877L793.813 97.3922C794.001 97.1594 794.218 96.95 794.467 96.7642C794.725 96.5792 795.024 96.4397 795.362 96.3457C795.711 96.2524 796.114 96.2218 796.571 96.2538ZM796.233 97.4171C795.659 97.3769 795.188 97.4562 794.821 97.6551C794.455 97.8434 794.177 98.1501 793.987 98.5752C793.797 99.0003 793.673 99.5477 793.616 100.217L793.597 100.489C793.548 101.191 793.58 101.792 793.695 102.292C793.81 102.792 794.034 103.182 794.367 103.462C794.711 103.742 795.192 103.904 795.809 103.947C796.33 103.984 796.766 103.87 797.116 103.606C797.476 103.342 797.754 102.971 797.947 102.493C798.153 102.005 798.278 101.441 798.322 100.803C798.391 99.8241 798.254 99.0286 797.912 98.4166C797.58 97.8053 797.021 97.4721 796.233 97.4171ZM807.977 98.3987L805.184 98.2033L804.668 105.577L803.28 105.48L803.795 98.1062L801.034 97.9131L801.116 96.732L808.06 97.2175L807.977 98.3987ZM811.149 97.4336L810.9 100.993L815.545 101.318L815.794 97.7584L817.199 97.8566L816.6 106.412L815.196 106.313L815.463 102.499L810.818 102.174L810.551 105.989L809.147 105.89L809.745 97.3354L811.149 97.4336ZM823.223 98.1174C823.957 98.1688 824.573 98.3723 825.072 98.728C825.582 99.0844 825.955 99.5649 826.191 100.169C826.438 100.764 826.534 101.45 826.48 102.227L826.421 103.073L820.563 102.663C820.517 103.633 820.71 104.389 821.142 104.933C821.586 105.467 822.233 105.763 823.085 105.823C823.627 105.861 824.11 105.846 824.531 105.779C824.964 105.703 825.411 105.584 825.871 105.424L825.785 106.653C825.336 106.814 824.895 106.922 824.464 106.978C824.031 107.044 823.522 107.056 822.937 107.015C822.129 106.959 821.422 106.744 820.817 106.37C820.223 105.997 819.773 105.473 819.467 104.8C819.173 104.116 819.059 103.301 819.125 102.354C819.191 101.418 819.401 100.625 819.756 99.9762C820.123 99.3282 820.6 98.843 821.189 98.5206C821.789 98.199 822.467 98.0646 823.223 98.1174ZM823.126 99.2655C822.456 99.2186 821.909 99.3996 821.484 99.8083C821.072 100.207 820.801 100.787 820.673 101.548L825.03 101.853C825.065 101.363 825.02 100.932 824.896 100.56C824.773 100.188 824.564 99.89 824.269 99.6662C823.986 99.4326 823.605 99.299 823.126 99.2655ZM832.998 98.801C834.051 98.8747 834.872 99.3009 835.459 100.08C836.056 100.859 836.304 101.989 836.2 103.468C836.133 104.436 835.926 105.245 835.581 105.895C835.248 106.534 834.803 107.006 834.248 107.309C833.703 107.602 833.074 107.724 832.361 107.674C831.925 107.644 831.541 107.558 831.209 107.417C830.876 107.276 830.594 107.107 830.362 106.909C830.141 106.701 829.954 106.479 829.799 106.244L829.703 106.237C829.712 106.42 829.717 106.65 829.719 106.928C829.721 107.206 829.715 107.446 829.701 107.649L829.455 111.16L828.051 111.062L828.917 98.676L830.066 98.7564L830.176 99.9349L830.24 99.9394C830.427 99.7066 830.645 99.4972 830.893 99.3114C831.152 99.1264 831.451 98.9869 831.789 98.8929C832.137 98.7996 832.54 98.769 832.998 98.801ZM832.66 99.9643C832.085 99.9241 831.615 100.003 831.248 100.202C830.882 100.391 830.604 100.697 830.414 101.122C830.224 101.548 830.1 102.095 830.042 102.764L830.023 103.036C829.974 103.738 830.007 104.339 830.122 104.839C830.236 105.339 830.461 105.729 830.794 106.009C831.138 106.289 831.618 106.451 832.235 106.495C832.757 106.531 833.192 106.417 833.542 106.153C833.903 105.889 834.18 105.519 834.374 105.04C834.579 104.552 834.704 103.989 834.749 103.35C834.817 102.371 834.68 101.576 834.338 100.964C834.007 100.352 833.447 100.019 832.66 99.9643ZM841.559 108.317C840.803 108.265 840.138 108.063 839.564 107.713C839 107.363 838.571 106.852 838.276 106.179C837.991 105.507 837.885 104.665 837.955 103.655C838.029 102.601 838.264 101.757 838.662 101.122C839.059 100.487 839.566 100.036 840.184 99.7686C840.812 99.5025 841.509 99.3962 842.275 99.4497C842.711 99.4802 843.128 99.5575 843.526 99.6815C843.924 99.7949 844.247 99.9244 844.493 100.07L843.981 101.205C843.732 101.091 843.44 100.98 843.106 100.871C842.771 100.762 842.455 100.697 842.157 100.676C841.583 100.636 841.101 100.726 840.711 100.944C840.321 101.163 840.019 101.505 839.805 101.972C839.591 102.438 839.459 103.027 839.409 103.74C839.361 104.421 839.411 105.007 839.558 105.499C839.706 105.99 839.952 106.371 840.297 106.641C840.641 106.911 841.085 107.065 841.628 107.103C842.096 107.136 842.509 107.117 842.867 107.045C843.235 106.975 843.573 106.881 843.881 106.764L843.794 108.009C843.496 108.137 843.169 108.227 842.813 108.277C842.466 108.338 842.048 108.352 841.559 108.317ZM852.228 101.493L849.435 101.298L848.919 108.672L847.531 108.575L848.046 101.201L845.285 101.007L845.368 99.8264L852.311 100.312L852.228 101.493ZM860.725 103.066C860.687 103.598 860.499 104.001 860.159 104.277C859.819 104.553 859.395 104.726 858.887 104.798L858.883 104.861C859.41 104.973 859.859 105.197 860.231 105.533C860.604 105.859 860.768 106.341 860.724 106.979C860.698 107.341 860.606 107.671 860.446 107.97C860.297 108.27 860.076 108.522 859.784 108.726C859.491 108.93 859.122 109.08 858.677 109.178C858.233 109.264 857.702 109.286 857.085 109.243L853.398 108.985L853.996 100.43L857.667 100.686C858.274 100.729 858.812 100.836 859.281 101.008C859.761 101.17 860.129 101.42 860.383 101.758C860.649 102.087 860.763 102.523 860.725 103.066ZM859.271 106.877C859.305 106.388 859.144 106.024 858.786 105.785C858.429 105.546 857.888 105.401 857.165 105.351L855.074 105.205L854.882 107.95L857.005 108.098C857.707 108.147 858.251 108.084 858.638 107.908C859.025 107.721 859.236 107.378 859.271 106.877ZM859.292 103.142C859.32 102.737 859.192 102.434 858.906 102.233C858.632 102.021 858.166 101.892 857.506 101.846L855.319 101.693L855.155 104.039L857.086 104.174C857.778 104.223 858.311 104.164 858.687 103.998C859.062 103.831 859.264 103.546 859.292 103.142ZM866.443 101.156C867.485 101.229 868.241 101.511 868.709 102.004C869.177 102.496 869.376 103.243 869.306 104.243L868.899 110.069L867.877 109.997L867.691 108.765L867.627 108.761C867.361 109.052 867.087 109.295 866.806 109.489C866.537 109.674 866.228 109.802 865.881 109.874C865.544 109.946 865.137 109.966 864.658 109.933C864.147 109.897 863.691 109.774 863.288 109.564C862.897 109.355 862.597 109.056 862.389 108.667C862.181 108.268 862.098 107.781 862.138 107.206C862.198 106.355 862.578 105.724 863.281 105.313C863.984 104.892 865.034 104.709 866.431 104.764L867.887 104.817L867.922 104.307C867.972 103.594 867.853 103.088 867.563 102.79C867.274 102.492 866.847 102.323 866.283 102.283C865.837 102.252 865.406 102.292 864.992 102.402C864.579 102.501 864.191 102.624 863.828 102.769L863.47 101.686C863.857 101.51 864.31 101.37 864.831 101.268C865.352 101.154 865.889 101.117 866.443 101.156ZM866.538 105.75C865.471 105.718 864.72 105.836 864.284 106.105C863.859 106.375 863.627 106.781 863.589 107.324C863.556 107.803 863.675 108.164 863.947 108.407C864.229 108.652 864.599 108.79 865.056 108.822C865.78 108.872 866.395 108.717 866.901 108.357C867.408 107.986 867.691 107.386 867.749 106.556L867.803 105.79L866.538 105.75Z" fill="#A1A1A1"/>
<rect x="255" y="76" width="128" height="37" rx="7" stroke="#0029CC" stroke-width="2"/>
<path d="M278.576 88.576C280.069 88.576 281.157 88.8693 281.84 89.456C282.523 90.0427 282.864 90.8693 282.864 91.936C282.864 92.4053 282.784 92.8587 282.624 93.296C282.475 93.7227 282.224 94.1067 281.872 94.448C281.52 94.7893 281.051 95.0613 280.464 95.264C279.877 95.456 279.157 95.552 278.304 95.552H276.992V100H275.552V88.576H278.576ZM278.448 89.808H276.992V94.32H278.144C278.869 94.32 279.472 94.2453 279.952 94.096C280.432 93.936 280.789 93.6853 281.024 93.344C281.259 93.0027 281.376 92.5547 281.376 92C281.376 91.264 281.141 90.7147 280.672 90.352C280.203 89.9893 279.461 89.808 278.448 89.808ZM288.296 91.28C289.341 91.28 290.114 91.5093 290.616 91.968C291.117 92.4267 291.368 93.1573 291.368 94.16V100H290.344L290.072 98.784H290.008C289.762 99.0933 289.506 99.3547 289.24 99.568C288.984 99.7707 288.685 99.92 288.344 100.016C288.013 100.112 287.608 100.16 287.128 100.16C286.616 100.16 286.152 100.069 285.736 99.888C285.33 99.7067 285.01 99.4293 284.776 99.056C284.541 98.672 284.424 98.192 284.424 97.616C284.424 96.7627 284.76 96.1067 285.432 95.648C286.104 95.1787 287.138 94.9227 288.536 94.88L289.992 94.832V94.32C289.992 93.6053 289.837 93.1093 289.528 92.832C289.218 92.5547 288.781 92.416 288.216 92.416C287.768 92.416 287.341 92.4853 286.936 92.624C286.53 92.752 286.152 92.9013 285.799 93.072L285.368 92.016C285.741 91.8133 286.184 91.6427 286.696 91.504C287.208 91.3547 287.741 91.28 288.296 91.28ZM288.712 95.856C287.645 95.8987 286.904 96.0693 286.488 96.368C286.082 96.6667 285.88 97.088 285.88 97.632C285.88 98.112 286.024 98.464 286.312 98.688C286.61 98.912 286.989 99.024 287.448 99.024C288.173 99.024 288.776 98.8267 289.256 98.432C289.736 98.0267 289.976 97.408 289.976 96.576V95.808L288.712 95.856ZM296.272 91.264C296.923 91.264 297.488 91.3547 297.968 91.536C298.448 91.7067 298.822 91.9627 299.088 92.304C299.355 92.6347 299.488 93.04 299.488 93.52C299.488 94.0427 299.344 94.4587 299.056 94.768C298.768 95.0667 298.374 95.2853 297.872 95.424V95.488C298.214 95.584 298.528 95.7173 298.816 95.888C299.104 96.0587 299.334 96.2827 299.504 96.56C299.686 96.8373 299.776 97.1947 299.776 97.632C299.776 98.1013 299.643 98.528 299.376 98.912C299.12 99.296 298.72 99.6 298.176 99.824C297.643 100.048 296.955 100.16 296.112 100.16C295.707 100.16 295.318 100.139 294.944 100.096C294.582 100.053 294.251 99.9893 293.952 99.904C293.664 99.8187 293.408 99.7173 293.184 99.6V98.336C293.547 98.5067 293.974 98.6613 294.464 98.8C294.966 98.9387 295.51 99.008 296.096 99.008C296.523 99.008 296.907 98.96 297.248 98.864C297.6 98.768 297.878 98.6187 298.08 98.416C298.283 98.2027 298.384 97.9147 298.384 97.552C298.384 97.2213 298.294 96.9547 298.112 96.752C297.931 96.5387 297.659 96.3787 297.296 96.272C296.944 96.1653 296.491 96.112 295.936 96.112H294.784V94.96H295.712C296.448 94.96 297.035 94.864 297.472 94.672C297.92 94.4693 298.144 94.128 298.144 93.648C298.144 93.2427 297.974 92.9387 297.632 92.736C297.302 92.5333 296.822 92.432 296.192 92.432C295.723 92.432 295.307 92.48 294.944 92.576C294.592 92.6613 294.203 92.7947 293.776 92.976L293.28 91.856C293.739 91.6533 294.219 91.504 294.72 91.408C295.222 91.312 295.739 91.264 296.272 91.264ZM305.94 91.264C306.996 91.264 307.844 91.632 308.484 92.368C309.135 93.104 309.46 94.2133 309.46 95.696C309.46 96.6667 309.311 97.488 309.012 98.16C308.724 98.8213 308.313 99.3227 307.78 99.664C307.257 99.9947 306.639 100.16 305.924 100.16C305.487 100.16 305.097 100.101 304.756 99.984C304.415 99.8667 304.121 99.7173 303.876 99.536C303.641 99.344 303.439 99.136 303.268 98.912H303.172C303.193 99.0933 303.215 99.3227 303.236 99.6C303.257 99.8773 303.268 100.117 303.268 100.32V103.84H301.86V91.424H303.012L303.204 92.592H303.268C303.439 92.3467 303.641 92.1227 303.876 91.92C304.121 91.7173 304.409 91.5573 304.74 91.44C305.081 91.3227 305.481 91.264 305.94 91.264ZM305.684 92.448C305.108 92.448 304.644 92.56 304.292 92.784C303.94 92.9973 303.684 93.3227 303.524 93.76C303.364 94.1973 303.279 94.752 303.268 95.424V95.696C303.268 96.4 303.343 96.9973 303.492 97.488C303.641 97.9787 303.892 98.352 304.244 98.608C304.607 98.864 305.097 98.992 305.716 98.992C306.239 98.992 306.665 98.848 306.996 98.56C307.337 98.272 307.588 97.8827 307.748 97.392C307.919 96.8907 308.004 96.32 308.004 95.68C308.004 94.6987 307.812 93.9147 307.428 93.328C307.055 92.7413 306.473 92.448 305.684 92.448ZM314.952 91.28C315.997 91.28 316.77 91.5093 317.272 91.968C317.773 92.4267 318.024 93.1573 318.024 94.16V100H317L316.728 98.784H316.664C316.418 99.0933 316.162 99.3547 315.896 99.568C315.64 99.7707 315.341 99.92 315 100.016C314.669 100.112 314.264 100.16 313.784 100.16C313.272 100.16 312.808 100.069 312.392 99.888C311.986 99.7067 311.666 99.4293 311.432 99.056C311.197 98.672 311.08 98.192 311.08 97.616C311.08 96.7627 311.416 96.1067 312.088 95.648C312.76 95.1787 313.794 94.9227 315.192 94.88L316.648 94.832V94.32C316.648 93.6053 316.493 93.1093 316.184 92.832C315.874 92.5547 315.437 92.416 314.872 92.416C314.424 92.416 313.997 92.4853 313.592 92.624C313.186 92.752 312.808 92.9013 312.456 93.072L312.024 92.016C312.397 91.8133 312.84 91.6427 313.352 91.504C313.864 91.3547 314.397 91.28 314.952 91.28ZM315.368 95.856C314.301 95.8987 313.56 96.0693 313.144 96.368C312.738 96.6667 312.536 97.088 312.536 97.632C312.536 98.112 312.68 98.464 312.968 98.688C313.266 98.912 313.645 99.024 314.104 99.024C314.829 99.024 315.432 98.8267 315.912 98.432C316.392 98.0267 316.632 97.408 316.632 96.576V95.808L315.368 95.856ZM320.225 94.848C320.225 93.6 320.347 92.5387 320.593 91.664C320.849 90.7787 321.238 90.0747 321.761 89.552C322.294 89.0187 322.977 88.6613 323.809 88.48C324.502 88.3307 325.179 88.1973 325.841 88.08C326.502 87.9627 327.121 87.856 327.697 87.76L327.937 88.992C327.659 89.0347 327.35 89.088 327.009 89.152C326.667 89.2053 326.321 89.264 325.969 89.328C325.617 89.3813 325.275 89.44 324.945 89.504C324.625 89.5573 324.342 89.6107 324.097 89.664C323.745 89.7387 323.43 89.8667 323.153 90.048C322.875 90.2187 322.635 90.4533 322.433 90.752C322.241 91.0507 322.086 91.4187 321.969 91.856C321.851 92.2933 321.782 92.8107 321.761 93.408H321.857C322.006 93.2053 322.209 92.9973 322.465 92.784C322.731 92.5707 323.046 92.3893 323.409 92.24C323.782 92.0907 324.203 92.016 324.673 92.016C325.419 92.016 326.038 92.1813 326.529 92.512C327.03 92.832 327.403 93.28 327.649 93.856C327.905 94.432 328.033 95.104 328.033 95.872C328.033 96.8213 327.867 97.616 327.536 98.256C327.206 98.896 326.747 99.376 326.161 99.696C325.574 100.005 324.891 100.16 324.113 100.16C323.526 100.16 322.993 100.048 322.513 99.824C322.033 99.5893 321.622 99.248 321.281 98.8C320.939 98.352 320.678 97.7973 320.497 97.136C320.315 96.4747 320.225 95.712 320.225 94.848ZM324.225 98.992C324.694 98.992 325.099 98.896 325.441 98.704C325.793 98.512 326.065 98.1973 326.257 97.76C326.449 97.3227 326.545 96.7413 326.545 96.016C326.545 95.1413 326.379 94.4533 326.049 93.952C325.729 93.44 325.195 93.184 324.449 93.184C323.979 93.184 323.553 93.2907 323.169 93.504C322.785 93.7067 322.465 93.9413 322.209 94.208C321.953 94.4747 321.771 94.6987 321.664 94.88C321.664 95.4027 321.702 95.9093 321.777 96.4C321.851 96.8907 321.979 97.3333 322.161 97.728C322.353 98.112 322.614 98.4213 322.945 98.656C323.286 98.88 323.713 98.992 324.225 98.992ZM337.707 95.696C337.707 96.4107 337.611 97.0453 337.419 97.6C337.237 98.144 336.971 98.608 336.619 98.992C336.277 99.376 335.856 99.6693 335.355 99.872C334.864 100.064 334.315 100.16 333.707 100.16C333.141 100.16 332.619 100.064 332.139 99.872C331.659 99.6693 331.243 99.376 330.891 98.992C330.539 98.608 330.261 98.144 330.059 97.6C329.867 97.0453 329.771 96.4107 329.771 95.696C329.771 94.7467 329.931 93.9467 330.251 93.296C330.571 92.6347 331.029 92.1333 331.627 91.792C332.224 91.44 332.933 91.264 333.755 91.264C334.533 91.264 335.216 91.44 335.803 91.792C336.4 92.1333 336.864 92.6347 337.195 93.296C337.536 93.9467 337.707 94.7467 337.707 95.696ZM331.227 95.696C331.227 96.368 331.312 96.9547 331.483 97.456C331.664 97.9467 331.941 98.3253 332.315 98.592C332.688 98.8587 333.163 98.992 333.739 98.992C334.315 98.992 334.789 98.8587 335.163 98.592C335.536 98.3253 335.808 97.9467 335.979 97.456C336.16 96.9547 336.251 96.368 336.251 95.696C336.251 95.0133 336.16 94.432 335.979 93.952C335.797 93.472 335.52 93.104 335.147 92.848C334.784 92.5813 334.309 92.448 333.723 92.448C332.848 92.448 332.213 92.736 331.819 93.312C331.424 93.888 331.227 94.6827 331.227 95.696ZM345.702 92.608H342.902V100H341.51V92.608H338.742V91.424H345.702V92.608ZM352.463 91.424H353.999L350.335 95.552L354.303 100H352.671L348.799 95.648V100H347.391V91.424H348.799V95.584L352.463 91.424ZM359.108 91.28C360.153 91.28 360.927 91.5093 361.428 91.968C361.929 92.4267 362.18 93.1573 362.18 94.16V100H361.156L360.884 98.784H360.82C360.575 99.0933 360.319 99.3547 360.052 99.568C359.796 99.7707 359.497 99.92 359.156 100.016C358.825 100.112 358.42 100.16 357.94 100.16C357.428 100.16 356.964 100.069 356.548 99.888C356.143 99.7067 355.823 99.4293 355.588 99.056C355.353 98.672 355.236 98.192 355.236 97.616C355.236 96.7627 355.572 96.1067 356.244 95.648C356.916 95.1787 357.951 94.9227 359.348 94.88L360.804 94.832V94.32C360.804 93.6053 360.649 93.1093 360.34 92.832C360.031 92.5547 359.593 92.416 359.028 92.416C358.58 92.416 358.153 92.4853 357.748 92.624C357.343 92.752 356.964 92.9013 356.612 93.072L356.18 92.016C356.553 91.8133 356.996 91.6427 357.508 91.504C358.02 91.3547 358.553 91.28 359.108 91.28ZM359.524 95.856C358.457 95.8987 357.716 96.0693 357.3 96.368C356.895 96.6667 356.692 97.088 356.692 97.632C356.692 98.112 356.836 98.464 357.124 98.688C357.423 98.912 357.801 99.024 358.26 99.024C358.985 99.024 359.588 98.8267 360.068 98.432C360.548 98.0267 360.788 97.408 360.788 96.576V95.808L359.524 95.856Z" fill="#0A0A0A"/>
<rect x="99.1259" y="175.589" width="689.313" height="64.8874" rx="12.725" stroke="#1F1F1F" stroke-width="0.841565"/>
<path fill-rule="evenodd" clip-rule="evenodd" d="M142.028 192.299C141.914 192.299 141.804 192.345 141.723 192.426C141.641 192.507 141.596 192.617 141.596 192.732V223.882C141.596 224.12 141.79 224.314 142.028 224.314H164.526C164.64 224.314 164.75 224.269 164.832 224.187C164.913 224.106 164.958 223.996 164.958 223.882V192.732C164.958 192.617 164.913 192.507 164.832 192.426C164.75 192.345 164.64 192.299 164.526 192.299H142.028ZM139 192.732C139 191.058 140.355 189.703 142.028 189.703H164.526C166.199 189.703 167.554 191.058 167.554 192.732V223.882C167.554 224.685 167.235 225.455 166.667 226.023C166.099 226.591 165.329 226.91 164.526 226.91H142.028C141.225 226.91 140.455 226.591 139.887 226.023C139.319 225.455 139 224.685 139 223.882V192.732Z" fill="#EDEDED" stroke="black"/>
<path d="M160.2 197.922C160.659 197.922 161.099 197.74 161.424 197.415C161.748 197.091 161.931 196.65 161.931 196.191C161.931 195.733 161.748 195.292 161.424 194.968C161.099 194.643 160.659 194.461 160.2 194.461C159.741 194.461 159.301 194.643 158.976 194.968C158.652 195.292 158.469 195.733 158.469 196.191C158.469 196.65 158.652 197.091 158.976 197.415C159.301 197.74 159.741 197.922 160.2 197.922ZM146.356 197.922C146.815 197.922 147.255 197.74 147.579 197.415C147.904 197.091 148.086 196.65 148.086 196.191C148.086 195.733 147.904 195.292 147.579 194.968C147.255 194.643 146.815 194.461 146.356 194.461C145.897 194.461 145.456 194.643 145.132 194.968C144.807 195.292 144.625 195.733 144.625 196.191C144.625 196.65 144.807 197.091 145.132 197.415C145.456 197.74 145.897 197.922 146.356 197.922ZM160.2 222.15C160.659 222.15 161.099 221.967 161.424 221.643C161.748 221.318 161.931 220.878 161.931 220.419C161.931 219.96 161.748 219.52 161.424 219.196C161.099 218.871 160.659 218.689 160.2 218.689C159.741 218.689 159.301 218.871 158.976 219.196C158.652 219.52 158.469 219.96 158.469 220.419C158.469 220.878 158.652 221.318 158.976 221.643C159.301 221.967 159.741 222.15 160.2 222.15ZM146.356 222.15C146.815 222.15 147.255 221.967 147.579 221.643C147.904 221.318 148.086 220.878 148.086 220.419C148.086 219.96 147.904 219.52 147.579 219.196C147.255 218.871 146.815 218.689 146.356 218.689C145.897 218.689 145.456 218.871 145.132 219.196C144.807 219.52 144.625 219.96 144.625 220.419C144.625 220.878 144.807 221.318 145.132 221.643C145.456 221.967 145.897 222.15 146.356 222.15Z" fill="#EDEDED" stroke="black"/>
<path fill-rule="evenodd" clip-rule="evenodd" d="M145.057 206.576C145.057 204.95 145.539 203.361 146.442 202.009C147.345 200.657 148.629 199.603 150.131 198.981C151.633 198.359 153.286 198.196 154.88 198.513C156.475 198.831 157.94 199.613 159.089 200.763C160.239 201.913 161.022 203.377 161.339 204.972C161.656 206.566 161.493 208.219 160.871 209.721C160.249 211.223 159.195 212.507 157.844 213.41C156.492 214.314 154.903 214.796 153.277 214.796C152.933 214.796 152.602 214.659 152.359 214.416C152.116 214.172 151.979 213.842 151.979 213.498C151.979 213.154 152.116 212.823 152.359 212.58C152.602 212.337 152.933 212.2 153.277 212.2C154.389 212.2 155.477 211.87 156.401 211.252C157.326 210.634 158.047 209.756 158.473 208.728C158.899 207.7 159.01 206.569 158.793 205.478C158.576 204.387 158.04 203.385 157.254 202.599C156.467 201.812 155.465 201.276 154.374 201.059C153.283 200.842 152.152 200.954 151.124 201.379C150.097 201.805 149.218 202.526 148.6 203.451C147.982 204.376 147.652 205.463 147.652 206.576C147.652 206.92 147.516 207.25 147.272 207.493C147.029 207.737 146.699 207.874 146.355 207.874C146.01 207.874 145.68 207.737 145.437 207.493C145.193 207.25 145.057 206.92 145.057 206.576Z" fill="#EDEDED" stroke="black"/>
<path fill-rule="evenodd" clip-rule="evenodd" d="M154.193 205.657C154.436 205.9 154.572 206.23 154.572 206.574C154.572 206.918 154.436 207.248 154.193 207.491L149.001 212.683C148.755 212.912 148.43 213.037 148.093 213.031C147.757 213.025 147.436 212.889 147.199 212.651C146.961 212.413 146.824 212.093 146.819 211.756C146.813 211.42 146.937 211.095 147.167 210.849L152.358 205.657C152.602 205.414 152.932 205.277 153.276 205.277C153.62 205.277 153.949 205.414 154.193 205.657Z" fill="#EDEDED" stroke="black"/>
<g clip-path="url(#clip0_1060_407)">
<mask id="mask0_1060_407" style="mask-type:luminance" maskUnits="userSpaceOnUse" x="183" y="189" width="38" height="39">
<path d="M183.983 190.232V226.383H220.135V190.232H183.983Z" fill="white" stroke="white" stroke-width="1.68313"/>
</mask>
<g mask="url(#mask0_1060_407)">
<path fill-rule="evenodd" clip-rule="evenodd" d="M198.67 221.298C198.67 224.106 200.946 226.382 203.754 226.382H215.051C217.859 226.382 220.135 224.106 220.135 221.298V195.314C220.135 192.507 217.859 190.23 215.051 190.23L203.754 190.23C200.946 190.23 198.67 192.507 198.67 195.314V221.298ZM203.754 222.993C202.818 222.993 202.059 222.234 202.059 221.298V195.314C202.059 194.378 202.818 193.62 203.754 193.62H215.051C215.987 193.62 216.746 194.378 216.746 195.314V221.298C216.746 222.234 215.987 222.993 215.051 222.993H203.754Z" fill="#00B6CC"/>
<path d="M190.763 222.993H189.068C188.132 222.993 187.374 222.234 187.374 221.298V218.474H183.984V221.298C183.984 224.106 186.26 226.382 189.068 226.382H190.763V222.993Z" fill="#00B6CC"/>
<path d="M197.541 222.993H193.022V226.382H197.541V222.993Z" fill="#00B6CC"/>
<path d="M193.022 190.23H197.541V193.62H193.022V190.23Z" fill="#00B6CC"/>
<path d="M187.374 198.139V195.314C187.374 194.379 188.132 193.62 189.068 193.62H190.763V190.231L189.068 190.231C186.261 190.231 183.984 192.507 183.984 195.314L183.984 198.139H187.374Z" fill="#00B6CC"/>
<path d="M187.374 209.436V216.214H183.984L183.984 209.436H187.374Z" fill="#00B6CC"/>
<path d="M187.374 207.176V200.398H183.984L183.984 207.176H187.374Z" fill="#00B6CC"/>
</g>
</g>
<line x1="253.629" y1="190.256" x2="253.423" y2="226.363" stroke="#888888" stroke-width="0.841565"/>
<path d="M322.039 207.825C321.957 207.733 320.003 205.567 316.829 203.374C311.997 200.036 307.389 198.815 303.886 198.912C298.855 198.992 294.366 201.371 291.467 203.374C288.293 205.567 286.338 207.733 286.257 207.825C286.138 207.957 286.072 208.129 286.072 208.307C286.072 208.485 286.138 208.657 286.257 208.789C286.338 208.88 288.293 211.047 291.467 213.24C295.203 215.821 299.644 217.706 304.148 217.706C308.653 217.706 313.093 215.821 316.829 213.24C320.003 211.047 321.958 208.88 322.039 208.789C322.158 208.657 322.224 208.485 322.224 208.307C322.224 208.129 322.158 207.957 322.039 207.825ZM312.101 208.307C312.101 212.617 308.654 216.138 304.372 216.257C304.071 216.261 304.225 216.261 303.924 216.257C299.642 216.138 296.195 212.618 296.195 208.307C296.195 203.925 299.76 200.354 304.148 200.354C308.53 200.354 312.101 203.918 312.101 208.307ZM287.796 208.307C290.36 205.721 293.819 203.222 297.403 201.768C293.861 205.42 293.866 211.198 297.403 214.846C293.858 213.407 290.404 210.935 287.796 208.307ZM310.893 214.846C314.435 211.194 314.43 205.416 310.893 201.768C314.438 203.207 317.891 205.679 320.5 208.307C317.936 210.893 314.476 213.392 310.893 214.846Z" fill="#888888"/>
<g filter="url(#filter4_f_1060_407)">
<path d="M304.15 203.191C306.972 203.191 309.266 205.485 309.266 208.307C309.266 211.128 306.972 213.422 304.15 213.422C301.329 213.422 299.035 211.128 299.035 208.307C299.035 205.485 301.329 203.191 304.15 203.191ZM304.15 207.638C303.783 207.638 303.481 207.939 303.481 208.307C303.482 208.674 303.783 208.976 304.15 208.976C304.518 208.976 304.819 208.674 304.819 208.307C304.819 207.939 304.518 207.638 304.15 207.638Z" stroke="#00D5FF" stroke-opacity="0.88" stroke-width="3"/>
</g>
<g filter="url(#filter5_f_1060_407)">
<path d="M300.535 208.307C300.535 210.3 302.157 211.922 304.15 211.922C306.144 211.922 307.765 210.3 307.765 208.307C307.765 206.313 306.144 204.691 304.15 204.691C302.157 204.691 300.535 206.313 300.535 208.307ZM306.319 208.307C306.319 209.503 305.346 210.476 304.15 210.476C302.954 210.476 301.981 209.503 301.981 208.307C301.981 207.11 302.954 206.137 304.15 206.137C305.346 206.137 306.319 207.11 306.319 208.307Z" fill="#888888"/>
<path d="M304.15 203.191C306.972 203.191 309.266 205.485 309.266 208.307C309.266 211.128 306.972 213.422 304.15 213.422C301.329 213.422 299.035 211.128 299.035 208.307C299.035 205.485 301.329 203.191 304.15 203.191ZM304.15 207.638C303.783 207.638 303.481 207.939 303.481 208.307C303.482 208.674 303.783 208.976 304.15 208.976C304.518 208.976 304.819 208.674 304.819 208.307C304.819 207.939 304.518 207.638 304.15 207.638Z" stroke="#09FF15" stroke-width="3"/>
</g>
<path d="M300.535 208.307C300.535 210.3 302.157 211.922 304.15 211.922C306.144 211.922 307.765 210.3 307.765 208.307C307.765 206.313 306.144 204.691 304.15 204.691C302.157 204.691 300.535 206.313 300.535 208.307ZM306.319 208.307C306.319 209.503 305.346 210.476 304.15 210.476C302.954 210.476 301.981 209.503 301.981 208.307C301.981 207.11 302.954 206.137 304.15 206.137C305.346 206.137 306.319 207.11 306.319 208.307Z" fill="#F8F2F2"/>
<mask id="path-27-inside-1_1060_407" fill="white">
<path d="M341.947 204.995V209.141H347.741C348.177 209.141 348.596 209.315 348.904 209.623C349.213 209.932 349.386 210.35 349.386 210.787C349.386 211.223 349.213 211.642 348.904 211.95C348.596 212.259 348.177 212.432 347.741 212.432H341.947V216.58H350.222C350.658 216.58 351.077 216.754 351.385 217.062C351.694 217.371 351.867 217.789 351.867 218.226C351.867 218.662 351.694 219.081 351.385 219.389C351.077 219.698 350.658 219.871 350.222 219.871H340.302C339.865 219.871 339.447 219.698 339.138 219.389C338.83 219.081 338.656 218.662 338.656 218.226V203.35C338.656 202.913 338.83 202.495 339.138 202.186C339.447 201.878 339.865 201.704 340.302 201.704H350.222C350.658 201.704 351.077 201.878 351.385 202.186C351.694 202.495 351.867 202.913 351.867 203.35C351.867 203.786 351.694 204.205 351.385 204.513C351.077 204.822 350.658 204.995 350.222 204.995H341.947ZM360.14 206.662H355.182C354.746 206.662 354.327 206.836 354.019 207.144C353.71 207.453 353.537 207.871 353.537 208.308C353.537 208.744 353.71 209.163 354.019 209.471C354.327 209.78 354.746 209.953 355.182 209.953H360.14C360.576 209.953 360.995 209.78 361.303 209.471C361.612 209.163 361.785 208.744 361.785 208.308C361.785 207.871 361.612 207.453 361.303 207.144C360.995 206.836 360.576 206.662 360.14 206.662ZM360.14 211.62H355.182C354.746 211.62 354.327 211.794 354.019 212.102C353.71 212.411 353.537 212.829 353.537 213.266C353.537 213.702 353.71 214.121 354.019 214.429C354.327 214.738 354.746 214.911 355.182 214.911H360.14C360.576 214.911 360.995 214.738 361.303 214.429C361.612 214.121 361.785 213.702 361.785 213.266C361.785 212.829 361.612 212.411 361.303 212.102C360.995 211.794 360.576 211.62 360.14 211.62ZM375.496 201.773C375.159 201.671 374.797 201.68 374.466 201.8C374.134 201.919 373.849 202.142 373.653 202.435L370.06 207.821L366.469 202.435C366.273 202.141 365.988 201.918 365.655 201.799C365.323 201.68 364.961 201.671 364.623 201.773C364.285 201.875 363.989 202.084 363.779 202.367C363.568 202.651 363.455 202.995 363.455 203.348V218.226C363.455 218.662 363.628 219.081 363.937 219.389C364.245 219.698 364.664 219.871 365.1 219.871C365.536 219.871 365.955 219.698 366.263 219.389C366.572 219.081 366.745 218.662 366.745 218.226V208.782L368.691 211.699C369.303 212.619 370.819 212.619 371.429 211.699L373.375 208.782V218.226C373.375 218.662 373.548 219.081 373.857 219.389C374.165 219.698 374.584 219.871 375.02 219.871C375.457 219.871 375.875 219.698 376.184 219.389C376.492 219.081 376.666 218.662 376.666 218.226V203.35C376.666 202.997 376.552 202.653 376.341 202.369C376.131 202.085 375.834 201.877 375.496 201.775V201.773ZM383.701 201.702C382.278 201.703 380.914 202.269 379.908 203.275C378.902 204.281 378.336 205.645 378.335 207.068V214.507C378.337 215.93 378.903 217.293 379.909 218.299C380.915 219.305 382.279 219.87 383.701 219.871C385.123 219.869 386.486 219.304 387.492 218.298C388.497 217.293 389.063 215.929 389.065 214.507V213.268C389.065 212.832 388.891 212.413 388.583 212.104C388.274 211.796 387.856 211.623 387.419 211.623C386.983 211.623 386.565 211.796 386.256 212.104C385.947 212.413 385.774 212.832 385.774 213.268V214.507C385.757 215.046 385.53 215.556 385.143 215.931C384.756 216.306 384.239 216.515 383.7 216.515C383.161 216.515 382.644 216.306 382.256 215.931C381.869 215.556 381.643 215.046 381.626 214.507V207.068C381.643 206.53 381.869 206.019 382.256 205.645C382.644 205.27 383.161 205.06 383.7 205.06C384.239 205.06 384.756 205.27 385.143 205.645C385.53 206.019 385.757 206.53 385.774 207.068V208.308C385.774 208.744 385.947 209.163 386.256 209.471C386.565 209.78 386.983 209.953 387.419 209.953C387.856 209.953 388.274 209.78 388.583 209.471C388.891 209.163 389.065 208.744 389.065 208.308V207.068C389.064 205.646 388.498 204.282 387.493 203.276C386.487 202.27 385.123 201.704 383.701 201.702ZM397.34 209.144H395.453L397.333 206.325C398.415 204.701 398.985 202.815 398.985 200.866C398.985 198.594 397.133 196.742 394.861 196.742C392.588 196.742 390.736 198.594 390.736 200.866C390.736 201.303 390.91 201.721 391.218 202.03C391.527 202.338 391.945 202.512 392.382 202.512C392.818 202.512 393.237 202.338 393.545 202.03C393.854 201.721 394.027 201.303 394.027 200.866C394.027 200.645 394.115 200.433 394.271 200.277C394.428 200.121 394.64 200.033 394.861 200.033C395.082 200.033 395.294 200.121 395.45 200.277C395.606 200.433 395.694 200.645 395.694 200.866C395.694 202.163 395.315 203.418 394.595 204.499L391.011 209.874C390.844 210.122 390.748 210.41 390.733 210.708C390.718 211.006 390.784 211.303 390.925 211.566C391.066 211.829 391.276 212.049 391.532 212.202C391.788 212.355 392.081 212.435 392.38 212.434H397.34C397.776 212.434 398.195 212.261 398.503 211.952C398.812 211.644 398.985 211.225 398.985 210.789C398.985 210.353 398.812 209.934 398.503 209.625C398.195 209.317 397.776 209.144 397.34 209.144Z"/>
</mask>
<path d="M341.947 204.995V209.141H347.741C348.177 209.141 348.596 209.315 348.904 209.623C349.213 209.932 349.386 210.35 349.386 210.787C349.386 211.223 349.213 211.642 348.904 211.95C348.596 212.259 348.177 212.432 347.741 212.432H341.947V216.58H350.222C350.658 216.58 351.077 216.754 351.385 217.062C351.694 217.371 351.867 217.789 351.867 218.226C351.867 218.662 351.694 219.081 351.385 219.389C351.077 219.698 350.658 219.871 350.222 219.871H340.302C339.865 219.871 339.447 219.698 339.138 219.389C338.83 219.081 338.656 218.662 338.656 218.226V203.35C338.656 202.913 338.83 202.495 339.138 202.186C339.447 201.878 339.865 201.704 340.302 201.704H350.222C350.658 201.704 351.077 201.878 351.385 202.186C351.694 202.495 351.867 202.913 351.867 203.35C351.867 203.786 351.694 204.205 351.385 204.513C351.077 204.822 350.658 204.995 350.222 204.995H341.947ZM360.14 206.662H355.182C354.746 206.662 354.327 206.836 354.019 207.144C353.71 207.453 353.537 207.871 353.537 208.308C353.537 208.744 353.71 209.163 354.019 209.471C354.327 209.78 354.746 209.953 355.182 209.953H360.14C360.576 209.953 360.995 209.78 361.303 209.471C361.612 209.163 361.785 208.744 361.785 208.308C361.785 207.871 361.612 207.453 361.303 207.144C360.995 206.836 360.576 206.662 360.14 206.662ZM360.14 211.62H355.182C354.746 211.62 354.327 211.794 354.019 212.102C353.71 212.411 353.537 212.829 353.537 213.266C353.537 213.702 353.71 214.121 354.019 214.429C354.327 214.738 354.746 214.911 355.182 214.911H360.14C360.576 214.911 360.995 214.738 361.303 214.429C361.612 214.121 361.785 213.702 361.785 213.266C361.785 212.829 361.612 212.411 361.303 212.102C360.995 211.794 360.576 211.62 360.14 211.62ZM375.496 201.773C375.159 201.671 374.797 201.68 374.466 201.8C374.134 201.919 373.849 202.142 373.653 202.435L370.06 207.821L366.469 202.435C366.273 202.141 365.988 201.918 365.655 201.799C365.323 201.68 364.961 201.671 364.623 201.773C364.285 201.875 363.989 202.084 363.779 202.367C363.568 202.651 363.455 202.995 363.455 203.348V218.226C363.455 218.662 363.628 219.081 363.937 219.389C364.245 219.698 364.664 219.871 365.1 219.871C365.536 219.871 365.955 219.698 366.263 219.389C366.572 219.081 366.745 218.662 366.745 218.226V208.782L368.691 211.699C369.303 212.619 370.819 212.619 371.429 211.699L373.375 208.782V218.226C373.375 218.662 373.548 219.081 373.857 219.389C374.165 219.698 374.584 219.871 375.02 219.871C375.457 219.871 375.875 219.698 376.184 219.389C376.492 219.081 376.666 218.662 376.666 218.226V203.35C376.666 202.997 376.552 202.653 376.341 202.369C376.131 202.085 375.834 201.877 375.496 201.775V201.773ZM383.701 201.702C382.278 201.703 380.914 202.269 379.908 203.275C378.902 204.281 378.336 205.645 378.335 207.068V214.507C378.337 215.93 378.903 217.293 379.909 218.299C380.915 219.305 382.279 219.87 383.701 219.871C385.123 219.869 386.486 219.304 387.492 218.298C388.497 217.293 389.063 215.929 389.065 214.507V213.268C389.065 212.832 388.891 212.413 388.583 212.104C388.274 211.796 387.856 211.623 387.419 211.623C386.983 211.623 386.565 211.796 386.256 212.104C385.947 212.413 385.774 212.832 385.774 213.268V214.507C385.757 215.046 385.53 215.556 385.143 215.931C384.756 216.306 384.239 216.515 383.7 216.515C383.161 216.515 382.644 216.306 382.256 215.931C381.869 215.556 381.643 215.046 381.626 214.507V207.068C381.643 206.53 381.869 206.019 382.256 205.645C382.644 205.27 383.161 205.06 383.7 205.06C384.239 205.06 384.756 205.27 385.143 205.645C385.53 206.019 385.757 206.53 385.774 207.068V208.308C385.774 208.744 385.947 209.163 386.256 209.471C386.565 209.78 386.983 209.953 387.419 209.953C387.856 209.953 388.274 209.78 388.583 209.471C388.891 209.163 389.065 208.744 389.065 208.308V207.068C389.064 205.646 388.498 204.282 387.493 203.276C386.487 202.27 385.123 201.704 383.701 201.702ZM397.34 209.144H395.453L397.333 206.325C398.415 204.701 398.985 202.815 398.985 200.866C398.985 198.594 397.133 196.742 394.861 196.742C392.588 196.742 390.736 198.594 390.736 200.866C390.736 201.303 390.91 201.721 391.218 202.03C391.527 202.338 391.945 202.512 392.382 202.512C392.818 202.512 393.237 202.338 393.545 202.03C393.854 201.721 394.027 201.303 394.027 200.866C394.027 200.645 394.115 200.433 394.271 200.277C394.428 200.121 394.64 200.033 394.861 200.033C395.082 200.033 395.294 200.121 395.45 200.277C395.606 200.433 395.694 200.645 395.694 200.866C395.694 202.163 395.315 203.418 394.595 204.499L391.011 209.874C390.844 210.122 390.748 210.41 390.733 210.708C390.718 211.006 390.784 211.303 390.925 211.566C391.066 211.829 391.276 212.049 391.532 212.202C391.788 212.355 392.081 212.435 392.38 212.434H397.34C397.776 212.434 398.195 212.261 398.503 211.952C398.812 211.644 398.985 211.225 398.985 210.789C398.985 210.353 398.812 209.934 398.503 209.625C398.195 209.317 397.776 209.144 397.34 209.144Z" fill="#888888" stroke="#A1A1A1" stroke-width="1.3465" mask="url(#path-27-inside-1_1060_407)"/>
<line x1="432.475" y1="190.256" x2="432.27" y2="226.363" stroke="#888888" stroke-width="0.841565"/>
<path d="M479.106 204.788H490.478L478.163 224.983V211.828H466.793L479.106 191.633V204.788Z" stroke="#FF6600" stroke-width="2.10391"/>
<g filter="url(#filter6_f_1060_407)">
<mask id="path-30-outside-2_1060_407" maskUnits="userSpaceOnUse" x="490.783" y="167.887" width="78" height="67" fill="black">
<rect fill="white" x="490.783" y="167.887" width="78" height="67"/>
<path d="M550.514 224.026L520.576 224.039L523.883 218.154C524.706 216.688 526.255 215.779 527.937 215.775L545.728 215.737L550.514 224.026ZM527.185 203.899C528.042 205.346 528.054 207.143 527.217 208.601L518.354 224.026H508.783L523.741 198.094L527.185 203.899ZM527.94 217.09C526.733 217.092 525.621 217.745 525.029 218.798L522.823 222.724L548.237 222.713L544.971 217.055L527.94 217.09ZM511.06 222.712H517.593L526.077 207.945C526.678 206.899 526.669 205.609 526.054 204.57L523.757 200.697L511.06 222.712ZM544.663 213.787L537.913 213.875C536.232 213.897 534.67 213.012 533.824 211.559L524.874 196.183L529.648 187.887L544.663 213.787ZM526.394 196.178L534.959 210.897C535.566 211.941 536.689 212.576 537.896 212.561L542.398 212.502L529.652 190.515L526.394 196.178Z"/>
</mask>
<path d="M550.514 224.026L550.518 234.026L567.831 234.019L559.174 219.026L550.514 224.026ZM520.576 224.039L511.858 219.14L503.483 234.046L520.58 234.039L520.576 224.039ZM523.883 218.154L532.601 223.053L532.601 223.052L523.883 218.154ZM527.937 215.775L527.915 205.775L527.914 205.775L527.937 215.775ZM545.728 215.737L554.388 210.737L551.494 205.725L545.706 205.737L545.728 215.737ZM527.185 203.899L535.786 198.798L535.786 198.798L527.185 203.899ZM527.217 208.601L535.887 213.583L535.888 213.582L527.217 208.601ZM518.354 224.026V234.026H524.141L527.024 229.008L518.354 224.026ZM508.783 224.026L500.121 219.03L491.471 234.026H508.783V224.026ZM523.741 198.094L532.342 192.992L523.621 178.288L515.079 193.097L523.741 198.094ZM527.94 217.09L527.92 207.09L527.919 207.09L527.94 217.09ZM525.029 218.798L533.747 223.697L533.747 223.696L525.029 218.798ZM522.823 222.724L514.105 217.825L505.729 232.731L522.827 232.724L522.823 222.724ZM548.237 222.713L548.242 232.713L565.553 232.706L556.898 217.713L548.237 222.713ZM544.971 217.055L553.631 212.055L550.737 207.043L544.95 207.055L544.971 217.055ZM511.06 222.712L502.397 217.716L493.748 232.712H511.06V222.712ZM517.593 222.712V232.712H523.38L526.263 227.694L517.593 222.712ZM526.077 207.945L534.748 212.927L534.749 212.926L526.077 207.945ZM526.054 204.57L517.452 209.671L517.452 209.671L526.054 204.57ZM523.757 200.697L532.358 195.596L523.637 180.89L515.094 195.701L523.757 200.697ZM544.663 213.787L544.793 223.786L561.889 223.564L553.314 208.772L544.663 213.787ZM537.913 213.875L538.043 223.874L538.043 223.874L537.913 213.875ZM533.824 211.559L525.182 216.589L525.182 216.59L533.824 211.559ZM524.874 196.183L516.207 191.195L513.32 196.211L516.232 201.213L524.874 196.183ZM529.648 187.887L538.3 182.871L529.617 167.893L520.981 182.899L529.648 187.887ZM526.394 196.178L517.726 191.19L514.84 196.206L517.75 201.207L526.394 196.178ZM534.959 210.897L526.316 215.927L526.316 215.928L534.959 210.897ZM537.896 212.561L537.766 202.561L537.766 202.561L537.896 212.561ZM542.398 212.502L542.529 222.501L559.625 222.279L551.05 207.487L542.398 212.502ZM529.652 190.515L538.304 185.499L529.62 170.52L520.985 185.527L529.652 190.515ZM550.514 224.026L550.509 214.026L520.572 214.039L520.576 224.039L520.58 234.039L550.518 234.026L550.514 224.026ZM520.576 224.039L529.294 228.938L532.601 223.053L523.883 218.154L515.165 213.256L511.858 219.14L520.576 224.039ZM523.883 218.154L532.601 223.052C531.659 224.729 529.886 225.771 527.959 225.775L527.937 215.775L527.914 205.775C522.624 205.787 517.754 208.648 515.164 213.256L523.883 218.154ZM527.937 215.775L527.958 225.775L545.749 225.737L545.728 215.737L545.706 205.737L527.915 205.775L527.937 215.775ZM545.728 215.737L537.067 220.738L541.854 229.027L550.514 224.026L559.174 219.026L554.388 210.737L545.728 215.737ZM527.185 203.899L518.583 209.001C517.6 207.343 517.588 205.287 518.546 203.619L527.217 208.601L535.888 213.582C538.521 208.998 538.484 203.348 535.786 198.798L527.185 203.899ZM527.217 208.601L518.546 203.619L509.683 219.044L518.354 224.026L527.024 229.008L535.887 213.583L527.217 208.601ZM518.354 224.026V214.026H508.783V224.026V234.026H518.354V224.026ZM508.783 224.026L517.446 229.023L532.404 203.09L523.741 198.094L515.079 193.097L500.121 219.03L508.783 224.026ZM523.741 198.094L515.14 203.195L518.584 209.001L527.185 203.899L535.786 198.798L532.342 192.992L523.741 198.094ZM527.94 217.09L527.919 207.09C523.103 207.1 518.668 209.704 516.311 213.899L525.029 218.798L533.747 223.696C532.573 225.786 530.363 227.085 527.962 227.09L527.94 217.09ZM525.029 218.798L516.311 213.899L514.105 217.825L522.823 222.724L531.541 227.623L533.747 223.697L525.029 218.798ZM522.823 222.724L522.827 232.724L548.242 232.713L548.237 222.713L548.233 212.713L522.819 212.724L522.823 222.724ZM548.237 222.713L556.898 217.713L553.631 212.055L544.971 217.055L536.31 222.055L539.577 227.713L548.237 222.713ZM544.971 217.055L544.95 207.055L527.92 207.09L527.94 217.09L527.961 227.09L544.991 227.055L544.971 217.055ZM511.06 222.712V232.712H517.593V222.712V212.712H511.06V222.712ZM517.593 222.712L526.263 227.694L534.748 212.927L526.077 207.945L517.406 202.963L508.922 217.73L517.593 222.712ZM526.077 207.945L534.749 212.926C537.146 208.752 537.111 203.61 534.655 199.469L526.054 204.57L517.452 209.671C516.228 207.607 516.211 205.045 517.406 202.965L526.077 207.945ZM526.054 204.57L534.655 199.469L532.358 195.596L523.757 200.697L515.156 205.798L517.452 209.671L526.054 204.57ZM523.757 200.697L515.094 195.701L502.397 217.716L511.06 222.712L519.722 227.708L532.419 205.693L523.757 200.697ZM544.663 213.787L544.533 203.788L537.783 203.876L537.913 213.875L538.043 223.874L544.793 223.786L544.663 213.787ZM537.913 213.875L537.783 203.876C539.711 203.851 541.499 204.866 542.466 206.528L533.824 211.559L525.182 216.59C527.841 221.157 532.753 223.943 538.043 223.874L537.913 213.875ZM533.824 211.559L542.467 206.528L533.516 191.152L524.874 196.183L516.232 201.213L525.182 216.589L533.824 211.559ZM524.874 196.183L533.541 201.171L538.316 192.875L529.648 187.887L520.981 182.899L516.207 191.195L524.874 196.183ZM529.648 187.887L520.997 192.902L536.012 218.802L544.663 213.787L553.314 208.772L538.3 182.871L529.648 187.887ZM526.394 196.178L517.75 201.207L526.316 215.927L534.959 210.897L543.602 205.868L535.037 191.148L526.394 196.178ZM534.959 210.897L526.316 215.928C528.74 220.092 533.217 222.623 538.027 222.56L537.896 212.561L537.766 202.561C540.162 202.53 542.393 203.79 543.602 205.867L534.959 210.897ZM537.896 212.561L538.027 222.56L542.529 222.501L542.398 212.502L542.268 202.503L537.766 202.561L537.896 212.561ZM542.398 212.502L551.05 207.487L538.304 185.499L529.652 190.515L521.001 195.53L533.747 217.517L542.398 212.502ZM529.652 190.515L520.985 185.527L517.726 191.19L526.394 196.178L535.061 201.165L538.32 195.502L529.652 190.515Z" fill="#FF00E5" mask="url(#path-30-outside-2_1060_407)"/>
</g>
<g filter="url(#filter7_f_1060_407)">
<mask id="path-32-outside-3_1060_407" maskUnits="userSpaceOnUse" x="502.783" y="181.887" width="53" height="46" fill="black">
<rect fill="white" x="502.783" y="181.887" width="53" height="46"/>
<path d="M550.514 224.026L520.576 224.039L523.883 218.154C524.706 216.688 526.255 215.779 527.937 215.775L545.728 215.737L550.514 224.026ZM527.185 203.899C528.042 205.346 528.054 207.143 527.217 208.601L518.354 224.026H508.783L523.741 198.094L527.185 203.899ZM527.94 217.09C526.733 217.092 525.621 217.745 525.029 218.798L522.823 222.724L548.237 222.713L544.971 217.055L527.94 217.09ZM511.06 222.712H517.593L526.077 207.945C526.678 206.899 526.669 205.609 526.054 204.57L523.757 200.697L511.06 222.712ZM544.663 213.787L537.913 213.875C536.232 213.897 534.67 213.012 533.824 211.559L524.874 196.183L529.648 187.887L544.663 213.787ZM526.394 196.178L534.959 210.897C535.566 211.941 536.689 212.576 537.896 212.561L542.398 212.502L529.652 190.515L526.394 196.178Z"/>
</mask>
<path d="M550.514 224.026L520.576 224.039L523.883 218.154C524.706 216.688 526.255 215.779 527.937 215.775L545.728 215.737L550.514 224.026ZM527.185 203.899C528.042 205.346 528.054 207.143 527.217 208.601L518.354 224.026H508.783L523.741 198.094L527.185 203.899ZM527.94 217.09C526.733 217.092 525.621 217.745 525.029 218.798L522.823 222.724L548.237 222.713L544.971 217.055L527.94 217.09ZM511.06 222.712H517.593L526.077 207.945C526.678 206.899 526.669 205.609 526.054 204.57L523.757 200.697L511.06 222.712ZM544.663 213.787L537.913 213.875C536.232 213.897 534.67 213.012 533.824 211.559L524.874 196.183L529.648 187.887L544.663 213.787ZM526.394 196.178L534.959 210.897C535.566 211.941 536.689 212.576 537.896 212.561L542.398 212.502L529.652 190.515L526.394 196.178Z" fill="#FF00E5"/>
<path d="M550.514 224.026L550.515 227.026L555.709 227.024L553.112 222.526L550.514 224.026ZM520.576 224.039L517.961 222.569L515.448 227.041L520.577 227.039L520.576 224.039ZM523.883 218.154L526.498 219.624L526.498 219.624L523.883 218.154ZM527.937 215.775L527.93 212.775H527.93L527.937 215.775ZM545.728 215.737L548.326 214.237L547.457 212.734L545.721 212.737L545.728 215.737ZM527.185 203.899L529.765 202.369L529.765 202.369L527.185 203.899ZM527.217 208.601L529.818 210.095L529.818 210.095L527.217 208.601ZM518.354 224.026V227.026H520.09L520.955 225.521L518.354 224.026ZM508.783 224.026L506.185 222.527L503.59 227.026H508.783V224.026ZM523.741 198.094L526.322 196.563L523.705 192.152L521.143 196.595L523.741 198.094ZM527.94 217.09L527.934 214.09L527.934 214.09L527.94 217.09ZM525.029 218.798L527.645 220.268L527.645 220.267L525.029 218.798ZM522.823 222.724L520.208 221.254L517.695 225.726L522.825 225.724L522.823 222.724ZM548.237 222.713L548.239 225.713L553.432 225.711L550.835 221.213L548.237 222.713ZM544.971 217.055L547.569 215.555L546.701 214.051L544.965 214.055L544.971 217.055ZM511.06 222.712L508.461 221.213L505.866 225.712H511.06V222.712ZM517.593 222.712V225.712H519.329L520.194 224.206L517.593 222.712ZM526.077 207.945L528.678 209.44L528.679 209.44L526.077 207.945ZM526.054 204.57L523.473 206.101L523.473 206.101L526.054 204.57ZM523.757 200.697L526.337 199.167L523.721 194.755L521.158 199.198L523.757 200.697ZM544.663 213.787L544.702 216.787L549.831 216.72L547.259 212.283L544.663 213.787ZM537.913 213.875L537.952 216.875H537.952L537.913 213.875ZM533.824 211.559L531.231 213.068L531.232 213.068L533.824 211.559ZM524.874 196.183L522.274 194.686L521.408 196.191L522.281 197.692L524.874 196.183ZM529.648 187.887L532.244 186.382L529.639 181.889L527.048 186.39L529.648 187.887ZM526.394 196.178L523.793 194.681L522.927 196.186L523.801 197.687L526.394 196.178ZM534.959 210.897L532.366 212.406L532.366 212.407L534.959 210.897ZM537.896 212.561L537.857 209.561L537.857 209.561L537.896 212.561ZM542.398 212.502L542.437 215.502L547.566 215.435L544.994 210.997L542.398 212.502ZM529.652 190.515L532.248 189.01L529.643 184.516L527.052 189.018L529.652 190.515ZM550.514 224.026L550.512 221.026L520.575 221.039L520.576 224.039L520.577 227.039L550.515 227.026L550.514 224.026ZM520.576 224.039L523.192 225.509L526.498 219.624L523.883 218.154L521.267 216.685L517.961 222.569L520.576 224.039ZM523.883 218.154L526.498 219.624C526.792 219.101 527.345 218.777 527.943 218.775L527.937 215.775L527.93 212.775C525.166 212.782 522.62 214.276 521.267 216.685L523.883 218.154ZM527.937 215.775L527.943 218.775L545.734 218.737L545.728 215.737L545.721 212.737L527.93 212.775L527.937 215.775ZM545.728 215.737L543.13 217.237L547.916 225.526L550.514 224.026L553.112 222.526L548.326 214.237L545.728 215.737ZM527.185 203.899L524.604 205.43C524.91 205.945 524.914 206.586 524.615 207.106L527.217 208.601L529.818 210.095C531.194 207.699 531.175 204.746 529.765 202.369L527.185 203.899ZM527.217 208.601L524.616 207.106L515.752 222.532L518.354 224.026L520.955 225.521L529.818 210.095L527.217 208.601ZM518.354 224.026V221.026H508.783V224.026V227.026H518.354V224.026ZM508.783 224.026L511.382 225.525L526.34 199.593L523.741 198.094L521.143 196.595L506.185 222.527L508.783 224.026ZM523.741 198.094L521.161 199.624L524.604 205.43L527.185 203.899L529.765 202.369L526.322 196.563L523.741 198.094ZM527.94 217.09L527.934 214.09C525.644 214.095 523.535 215.333 522.414 217.328L525.029 218.798L527.645 220.267C527.706 220.158 527.822 220.09 527.947 220.09L527.94 217.09ZM525.029 218.798L522.414 217.328L520.208 221.254L522.823 222.724L525.439 224.193L527.645 220.268L525.029 218.798ZM522.823 222.724L522.825 225.724L548.239 225.713L548.237 222.713L548.236 219.713L522.822 219.724L522.823 222.724ZM548.237 222.713L550.835 221.213L547.569 215.555L544.971 217.055L542.373 218.555L545.639 224.213L548.237 222.713ZM544.971 217.055L544.965 214.055L527.934 214.09L527.94 217.09L527.947 220.09L544.977 220.055L544.971 217.055ZM511.06 222.712V225.712H517.593V222.712V219.712H511.06V222.712ZM517.593 222.712L520.194 224.206L528.678 209.44L526.077 207.945L523.476 206.451L514.992 221.217L517.593 222.712ZM526.077 207.945L528.679 209.44C529.819 207.455 529.802 205.009 528.634 203.04L526.054 204.57L523.473 206.101C523.537 206.208 523.538 206.342 523.476 206.451L526.077 207.945ZM526.054 204.57L528.634 203.04L526.337 199.167L523.757 200.697L521.176 202.228L523.473 206.101L526.054 204.57ZM523.757 200.697L521.158 199.198L508.461 221.213L511.06 222.712L513.658 224.211L526.356 202.196L523.757 200.697ZM544.663 213.787L544.624 210.787L537.874 210.875L537.913 213.875L537.952 216.875L544.702 216.787L544.663 213.787ZM537.913 213.875L537.874 210.875C537.276 210.883 536.719 210.568 536.417 210.049L533.824 211.559L531.232 213.068C532.621 215.455 535.188 216.911 537.952 216.875L537.913 213.875ZM533.824 211.559L536.417 210.049L527.467 194.673L524.874 196.183L522.281 197.692L531.231 213.068L533.824 211.559ZM524.874 196.183L527.474 197.679L532.249 189.383L529.648 187.887L527.048 186.39L522.274 194.686L524.874 196.183ZM529.648 187.887L527.053 189.391L542.068 215.292L544.663 213.787L547.259 212.283L532.244 186.382L529.648 187.887ZM526.394 196.178L523.801 197.687L532.366 212.406L534.959 210.897L537.552 209.389L528.987 194.669L526.394 196.178ZM534.959 210.897L532.366 212.407C533.518 214.386 535.648 215.59 537.936 215.56L537.896 212.561L537.857 209.561C537.731 209.562 537.614 209.496 537.552 209.388L534.959 210.897ZM537.896 212.561L537.936 215.56L542.437 215.502L542.398 212.502L542.359 209.502L537.857 209.561L537.896 212.561ZM542.398 212.502L544.994 210.997L532.248 189.01L529.652 190.515L527.057 192.019L539.803 214.007L542.398 212.502ZM529.652 190.515L527.052 189.018L523.793 194.681L526.394 196.178L528.994 197.674L532.253 192.011L529.652 190.515Z" fill="#FF00E5" mask="url(#path-32-outside-3_1060_407)"/>
</g>
<path d="M550.514 224.026L520.576 224.039L523.883 218.154C524.706 216.688 526.255 215.779 527.937 215.775L545.728 215.737L550.514 224.026ZM527.185 203.899C528.042 205.346 528.054 207.143 527.217 208.601L518.354 224.026H508.783L523.741 198.094L527.185 203.899ZM527.94 217.09C526.733 217.092 525.621 217.745 525.029 218.798L522.823 222.724L548.237 222.713L544.971 217.055L527.94 217.09ZM511.06 222.712H517.593L526.077 207.945C526.678 206.899 526.669 205.609 526.054 204.57L523.757 200.697L511.06 222.712ZM544.663 213.787L537.913 213.875C536.232 213.897 534.67 213.012 533.824 211.559L524.874 196.183L529.648 187.887L544.663 213.787ZM526.394 196.178L534.959 210.897C535.566 211.941 536.689 212.576 537.896 212.561L542.398 212.502L529.652 190.515L526.394 196.178Z" fill="#EDEDED"/>
<line x1="584.004" y1="190.256" x2="583.798" y2="226.363" stroke="#888888" stroke-width="0.841565"/>
<path d="M645.989 190.234H625.005C620.286 190.234 616.447 194.073 616.447 198.792V209.21C616.447 213.55 619.695 217.146 623.889 217.694V225.27C623.888 225.416 623.917 225.561 623.973 225.697C624.029 225.832 624.112 225.955 624.215 226.059C624.319 226.163 624.442 226.245 624.577 226.301C624.713 226.357 624.858 226.386 625.004 226.386C625.295 226.386 625.58 226.273 625.794 226.059L634.086 217.767H645.989C650.708 217.767 654.546 213.928 654.546 209.21V198.792C654.546 194.073 650.708 190.234 645.989 190.234ZM652.314 209.21C652.314 212.697 649.477 215.535 645.989 215.535H633.624C633.328 215.535 633.044 215.652 632.834 215.861L626.121 222.575V216.651C626.121 216.034 625.621 215.535 625.005 215.535C621.517 215.535 618.68 212.697 618.68 209.21V198.792C618.68 195.304 621.517 192.467 625.005 192.467H645.989C649.477 192.467 652.314 195.304 652.314 198.792V209.21Z" fill="#888888"/>
<path d="M641.079 204.458C641.079 202.612 642.581 201.109 644.428 201.109C646.274 201.109 647.776 202.612 647.776 204.458C647.776 206.304 646.274 207.806 644.428 207.806C642.581 207.806 641.079 206.304 641.079 204.458Z" fill="#00B6CC"/>
<path d="M642.994 204.461C642.994 203.67 643.637 203.027 644.428 203.027C645.218 203.027 645.861 203.67 645.861 204.461C645.861 205.251 645.218 205.894 644.428 205.894C643.637 205.894 642.994 205.251 642.994 204.461Z" fill="#A1A1A1"/>
<path d="M626.567 201.109C624.721 201.109 623.219 202.612 623.219 204.458C623.219 206.304 624.721 207.806 626.567 207.806C628.414 207.806 629.916 206.304 629.916 204.458C629.916 202.612 628.414 201.109 626.567 201.109ZM626.567 205.574C625.952 205.574 625.451 205.073 625.451 204.458C625.451 203.842 625.952 203.342 626.567 203.342C627.183 203.342 627.683 203.842 627.683 204.458C627.683 205.073 627.183 205.574 626.567 205.574ZM635.497 201.109C633.65 201.109 632.148 202.612 632.148 204.458C632.148 206.304 633.65 207.806 635.497 207.806C637.343 207.806 638.845 206.304 638.845 204.458C638.845 202.612 637.343 201.109 635.497 201.109ZM635.497 205.574C634.881 205.574 634.381 205.073 634.381 204.458C634.381 203.842 634.881 203.342 635.497 203.342C636.112 203.342 636.613 203.842 636.613 204.458C636.613 205.073 636.112 205.574 635.497 205.574Z" fill="#888888"/>
<path d="M699.98 200.426L690.12 190.565C690.015 190.46 689.89 190.377 689.753 190.32C689.616 190.264 689.469 190.234 689.321 190.234H674.595C672.601 190.234 670.979 191.857 670.979 193.851V222.769C670.979 224.763 672.601 226.386 674.595 226.386H696.694C698.688 226.386 700.311 224.763 700.311 222.769V201.225C700.311 201.076 700.282 200.929 700.225 200.792C700.168 200.655 700.085 200.531 699.98 200.426ZM690.45 194.092L696.454 200.095H690.45V194.092ZM696.694 224.126H674.595C673.847 224.126 673.238 223.517 673.238 222.769V193.851C673.238 193.103 673.847 192.494 674.595 192.494H688.191V201.225C688.191 201.848 688.697 202.354 689.321 202.354H698.051V222.769C698.051 223.517 697.443 224.126 696.694 224.126ZM693.722 209.004C693.722 209.628 693.216 210.134 692.593 210.134H678.697C678.073 210.134 677.567 209.628 677.567 209.004C677.567 208.38 678.073 207.874 678.697 207.874H692.593C693.216 207.874 693.722 208.38 693.722 209.004ZM693.722 216.714C693.722 217.338 693.216 217.844 692.593 217.844H678.697C678.073 217.844 677.567 217.338 677.567 216.714C677.567 216.09 678.073 215.584 678.697 215.584H692.593C693.216 215.584 693.722 216.09 693.722 216.714Z" fill="#888888"/>
<g filter="url(#filter8_f_1060_407)">
<path d="M747.455 207.857C746.951 207.857 746.549 208.354 746.549 208.975V219.14C746.549 221.905 744.724 224.149 742.489 224.149H722.614C720.373 224.149 718.555 221.897 718.555 219.14V208.809C718.555 208.188 718.152 207.691 717.649 207.691C717.146 207.691 716.743 208.188 716.743 208.809V219.14C716.743 223.139 719.38 226.384 722.614 226.384H742.489C745.73 226.384 748.36 223.131 748.36 219.14V208.975C748.36 208.362 747.958 207.857 747.455 207.857Z" fill="#888888"/>
<path d="M717.865 205.197C720.063 205.324 721.055 207.37 721.055 208.809V219.141C721.055 219.981 721.334 220.669 721.688 221.105C722.037 221.537 722.38 221.648 722.614 221.648H742.489C742.722 221.648 743.066 221.538 743.416 221.106C743.769 220.672 744.049 219.984 744.049 219.141V208.975C744.049 207.489 745.105 205.358 747.454 205.357C749.814 205.357 750.86 207.51 750.86 208.975V219.141C750.86 223.993 747.577 228.884 742.489 228.884H722.614C717.536 228.884 714.243 224.005 714.243 219.141V208.809C714.243 207.323 715.301 205.191 717.649 205.191L717.865 205.197Z" stroke="#4007FB" stroke-width="5"/>
</g>
<g filter="url(#filter9_f_1060_407)">
<path d="M747.455 207.857C746.951 207.857 746.549 208.354 746.549 208.975V219.14C746.549 221.905 744.724 224.149 742.489 224.149H722.614C720.373 224.149 718.555 221.897 718.555 219.14V208.809C718.555 208.188 718.152 207.691 717.649 207.691C717.146 207.691 716.743 208.188 716.743 208.809V219.14C716.743 223.139 719.38 226.384 722.614 226.384H742.489C745.73 226.384 748.36 223.131 748.36 219.14V208.975C748.36 208.362 747.958 207.857 747.455 207.857Z" fill="#888888"/>
<path d="M717.798 206.195C719.309 206.283 720.055 207.705 720.055 208.809V219.141C720.055 221.38 721.482 222.648 722.614 222.648H742.489C743.618 222.648 745.049 221.385 745.049 219.141V208.975C745.049 207.835 745.844 206.358 747.454 206.357C749.071 206.357 749.86 207.851 749.86 208.975V219.141C749.86 223.648 746.838 227.884 742.489 227.884H722.614C718.274 227.884 715.243 223.659 715.243 219.141V208.809C715.243 207.669 716.039 206.191 717.649 206.191L717.798 206.195Z" stroke="#3003F7" stroke-opacity="0.8" stroke-width="3"/>
</g>
<path d="M747.455 207.857C746.951 207.857 746.549 208.354 746.549 208.975V219.14C746.549 221.905 744.724 224.149 742.489 224.149H722.614C720.373 224.149 718.555 221.897 718.555 219.14V208.809C718.555 208.188 718.152 207.691 717.649 207.691C717.146 207.691 716.743 208.188 716.743 208.809V219.14C716.743 223.139 719.38 226.384 722.614 226.384H742.489C745.73 226.384 748.36 223.131 748.36 219.14V208.975C748.36 208.362 747.958 207.857 747.455 207.857Z" fill="#F3EDED"/>
<path d="M731.77 217.512C731.985 217.727 732.275 217.843 732.557 217.843C732.838 217.843 733.128 217.735 733.343 217.512L740.446 210.409C740.885 209.97 740.885 209.266 740.446 208.828C740.007 208.389 739.304 208.389 738.865 208.828L733.674 214.027V191.352C733.674 190.731 733.178 190.234 732.557 190.234C731.936 190.234 731.439 190.731 731.439 191.352V214.027L726.24 208.828C725.802 208.389 725.098 208.389 724.659 208.828C724.22 209.266 724.22 209.97 724.659 210.409L731.77 217.512Z" fill="black"/>
<rect x="129.76" y="291.966" width="128" height="37" rx="7" transform="rotate(4 129.76 291.966)" fill="#00B6CC" fill-opacity="0.8"/>
<rect x="129.76" y="291.966" width="128" height="37" rx="7" transform="rotate(4 129.76 291.966)" stroke="#00B6CC" stroke-width="2"/>
<path d="M148.403 305.876L149.743 305.97L149.306 312.226C149.287 312.492 149.261 312.785 149.228 313.103C149.207 313.412 149.18 313.72 149.148 314.028C149.116 314.336 149.08 314.611 149.042 314.854C149.015 315.088 148.992 315.268 148.972 315.395L149.036 315.399L155.968 306.405L157.564 306.517L156.767 317.913L155.427 317.819L155.86 311.626C155.88 311.339 155.907 311.031 155.94 310.701C155.975 310.362 156.008 310.038 156.04 309.73C156.084 309.412 156.12 309.131 156.147 308.887C156.175 308.643 156.198 308.463 156.217 308.347L156.153 308.343L149.202 317.384L147.606 317.272L148.403 305.876ZM161.652 309.657L161.403 313.217L166.048 313.541L166.297 309.982L167.702 310.08L167.103 318.635L165.699 318.537L165.966 314.723L161.321 314.398L161.054 318.212L159.65 318.114L160.248 309.559L161.652 309.657ZM171.815 310.368L171.566 313.927L176.211 314.252L176.46 310.693L177.864 310.791L177.266 319.346L175.861 319.248L176.128 315.433L171.484 315.108L171.217 318.923L169.812 318.825L170.41 310.27L171.815 310.368ZM187.713 315.762C187.663 316.475 187.523 317.101 187.293 317.641C187.074 318.171 186.776 318.616 186.398 318.974C186.03 319.333 185.59 319.597 185.075 319.764C184.573 319.921 184.018 319.979 183.411 319.936C182.847 319.897 182.333 319.765 181.867 319.54C181.403 319.304 181.008 318.982 180.684 318.575C180.359 318.167 180.115 317.685 179.951 317.128C179.798 316.561 179.746 315.921 179.796 315.209C179.863 314.262 180.078 313.475 180.443 312.848C180.808 312.21 181.3 311.742 181.92 311.444C182.541 311.134 183.26 311.008 184.08 311.065C184.857 311.12 185.525 311.343 186.086 311.735C186.658 312.117 187.086 312.649 187.37 313.332C187.665 314.005 187.779 314.815 187.713 315.762ZM181.249 315.31C181.202 315.98 181.246 316.572 181.381 317.084C181.528 317.586 181.778 317.983 182.132 318.275C182.486 318.567 182.95 318.733 183.525 318.773C184.099 318.813 184.582 318.714 184.973 318.474C185.364 318.234 185.662 317.875 185.866 317.397C186.082 316.91 186.214 316.331 186.261 315.661C186.308 314.98 186.258 314.393 186.111 313.902C185.963 313.41 185.712 313.024 185.358 312.742C185.015 312.451 184.551 312.285 183.965 312.244C183.093 312.183 182.44 312.426 182.006 312.973C181.572 313.52 181.319 314.299 181.249 315.31ZM196.966 314.292C196.928 314.824 196.74 315.228 196.4 315.503C196.06 315.779 195.636 315.953 195.128 316.024L195.124 316.088C195.651 316.2 196.1 316.423 196.472 316.76C196.845 317.085 197.009 317.567 196.965 318.205C196.939 318.567 196.847 318.898 196.687 319.196C196.538 319.496 196.317 319.748 196.024 319.952C195.732 320.156 195.363 320.307 194.918 320.404C194.474 320.491 193.943 320.512 193.326 320.469L189.639 320.211L190.237 311.656L193.908 311.913C194.515 311.955 195.052 312.062 195.522 312.234C196.002 312.396 196.37 312.646 196.624 312.985C196.89 313.314 197.004 313.749 196.966 314.292ZM195.512 318.104C195.546 317.614 195.385 317.25 195.027 317.011C194.67 316.773 194.129 316.628 193.406 316.577L191.315 316.431L191.123 319.176L193.245 319.325C193.948 319.374 194.492 319.31 194.879 319.134C195.266 318.947 195.477 318.604 195.512 318.104ZM195.533 314.368C195.561 313.964 195.433 313.661 195.147 313.459C194.873 313.247 194.407 313.119 193.747 313.072L191.56 312.92L191.396 315.266L193.327 315.401C194.019 315.449 194.552 315.39 194.928 315.224C195.303 315.058 195.505 314.773 195.533 314.368ZM202.683 312.382C203.726 312.455 204.482 312.738 204.95 313.23C205.418 313.723 205.617 314.469 205.547 315.469L205.14 321.295L204.118 321.224L203.932 319.992L203.868 319.987C203.602 320.279 203.328 320.522 203.047 320.716C202.778 320.9 202.469 321.028 202.122 321.1C201.785 321.173 201.378 321.193 200.899 321.159C200.388 321.123 199.932 321.001 199.529 320.791C199.138 320.581 198.838 320.282 198.63 319.894C198.422 319.494 198.339 319.007 198.379 318.433C198.438 317.581 198.819 316.95 199.522 316.54C200.225 316.118 201.275 315.935 202.672 315.99L204.128 316.044L204.163 315.533C204.213 314.82 204.093 314.315 203.804 314.016C203.515 313.718 203.088 313.549 202.524 313.51C202.078 313.479 201.647 313.518 201.233 313.628C200.82 313.727 200.432 313.85 200.069 313.996L199.711 312.912C200.098 312.736 200.551 312.597 201.072 312.494C201.593 312.381 202.13 312.343 202.683 312.382ZM202.779 316.976C201.712 316.944 200.961 317.063 200.525 317.332C200.1 317.601 199.868 318.007 199.83 318.55C199.797 319.029 199.916 319.39 200.188 319.634C200.47 319.878 200.84 320.016 201.297 320.048C202.021 320.099 202.636 319.944 203.142 319.584C203.649 319.213 203.932 318.612 203.99 317.782L204.044 317.016L202.779 316.976ZM216.018 325.039L214.645 324.943L214.853 321.974L207.782 321.48L208.38 312.925L209.785 313.023L209.269 320.397L213.69 320.706L214.206 313.332L215.611 313.43L215.094 320.82L216.307 320.905L216.018 325.039ZM219.425 318.942C219.418 319.038 219.403 319.176 219.38 319.356C219.368 319.526 219.35 319.712 219.325 319.913C219.301 320.104 219.277 320.29 219.254 320.47C219.231 320.639 219.211 320.777 219.193 320.883L224.275 314.036L225.999 314.157L225.4 322.712L224.092 322.62L224.444 317.577C224.456 317.407 224.472 317.183 224.491 316.906C224.521 316.631 224.551 316.36 224.58 316.095C224.61 315.819 224.635 315.612 224.655 315.474L219.607 322.307L217.867 322.185L218.465 313.63L219.79 313.723L219.425 318.942ZM229.681 319.659C229.674 319.755 229.659 319.893 229.636 320.073C229.624 320.243 229.606 320.429 229.581 320.631C229.557 320.821 229.533 321.007 229.51 321.187C229.487 321.356 229.467 321.494 229.449 321.6L234.531 314.754L236.255 314.874L235.657 323.429L234.348 323.338L234.7 318.294C234.712 318.124 234.728 317.9 234.747 317.624C234.777 317.348 234.807 317.077 234.836 316.812C234.866 316.536 234.891 316.329 234.912 316.192L229.863 323.024L228.123 322.902L228.721 314.347L230.046 314.44L229.681 319.659Z" fill="#EDEDED"/>
<rect x="379.801" y="302.961" width="128" height="37" rx="7" fill="#00B6CC" fill-opacity="0.8"/>
<rect x="379.801" y="302.961" width="128" height="37" rx="7" stroke="#00B6CC" stroke-width="2"/>
<path d="M391.353 326.961V315.537H398.137V316.801H392.793V320.369H394.489C395.63 320.369 396.515 320.513 397.145 320.801C397.774 321.078 398.211 321.462 398.457 321.953C398.702 322.433 398.825 322.988 398.825 323.617C398.825 324.31 398.686 324.908 398.409 325.409C398.142 325.91 397.705 326.294 397.097 326.561C396.489 326.828 395.689 326.961 394.697 326.961H391.353ZM394.553 325.729C395.577 325.729 396.297 325.558 396.713 325.217C397.129 324.865 397.337 324.332 397.337 323.617C397.337 323.126 397.235 322.737 397.033 322.449C396.841 322.15 396.521 321.937 396.073 321.809C395.635 321.681 395.049 321.617 394.313 321.617H392.793V325.729H394.553ZM404.317 318.225C405.053 318.225 405.682 318.385 406.205 318.705C406.738 319.025 407.143 319.478 407.421 320.065C407.709 320.641 407.853 321.318 407.853 322.097V322.945H401.981C402.002 323.916 402.247 324.657 402.717 325.169C403.197 325.67 403.863 325.921 404.717 325.921C405.261 325.921 405.741 325.873 406.157 325.777C406.583 325.67 407.021 325.521 407.469 325.329V326.561C407.031 326.753 406.599 326.892 406.173 326.977C405.746 327.073 405.239 327.121 404.653 327.121C403.842 327.121 403.122 326.956 402.493 326.625C401.874 326.294 401.389 325.804 401.037 325.153C400.695 324.492 400.525 323.686 400.525 322.737C400.525 321.798 400.679 320.993 400.989 320.321C401.309 319.649 401.751 319.132 402.317 318.769C402.893 318.406 403.559 318.225 404.317 318.225ZM404.301 319.377C403.629 319.377 403.095 319.596 402.701 320.033C402.317 320.46 402.087 321.057 402.013 321.825H406.381C406.381 321.334 406.306 320.908 406.157 320.545C406.007 320.182 405.778 319.9 405.469 319.697C405.17 319.484 404.781 319.377 404.301 319.377ZM412.292 318.225C412.942 318.225 413.508 318.316 413.988 318.497C414.468 318.668 414.841 318.924 415.108 319.265C415.374 319.596 415.508 320.001 415.508 320.481C415.508 321.004 415.364 321.42 415.076 321.729C414.788 322.028 414.393 322.246 413.892 322.385V322.449C414.233 322.545 414.548 322.678 414.836 322.849C415.124 323.02 415.353 323.244 415.524 323.521C415.705 323.798 415.796 324.156 415.796 324.593C415.796 325.062 415.662 325.489 415.396 325.873C415.14 326.257 414.74 326.561 414.196 326.785C413.662 327.009 412.974 327.121 412.132 327.121C411.726 327.121 411.337 327.1 410.964 327.057C410.601 327.014 410.27 326.95 409.972 326.865C409.684 326.78 409.428 326.678 409.204 326.561V325.297C409.566 325.468 409.993 325.622 410.484 325.761C410.985 325.9 411.529 325.969 412.116 325.969C412.542 325.969 412.926 325.921 413.268 325.825C413.62 325.729 413.897 325.58 414.1 325.377C414.302 325.164 414.404 324.876 414.404 324.513C414.404 324.182 414.313 323.916 414.132 323.713C413.95 323.5 413.678 323.34 413.316 323.233C412.964 323.126 412.51 323.073 411.956 323.073H410.804V321.921H411.732C412.468 321.921 413.054 321.825 413.492 321.633C413.94 321.43 414.164 321.089 414.164 320.609C414.164 320.204 413.993 319.9 413.652 319.697C413.321 319.494 412.841 319.393 412.212 319.393C411.742 319.393 411.326 319.441 410.964 319.537C410.612 319.622 410.222 319.756 409.796 319.937L409.3 318.817C409.758 318.614 410.238 318.465 410.74 318.369C411.241 318.273 411.758 318.225 412.292 318.225ZM425.336 322.657C425.336 323.372 425.24 324.006 425.048 324.561C424.866 325.105 424.6 325.569 424.248 325.953C423.906 326.337 423.485 326.63 422.984 326.833C422.493 327.025 421.944 327.121 421.336 327.121C420.77 327.121 420.248 327.025 419.768 326.833C419.288 326.63 418.872 326.337 418.52 325.953C418.168 325.569 417.89 325.105 417.688 324.561C417.496 324.006 417.4 323.372 417.4 322.657C417.4 321.708 417.56 320.908 417.88 320.257C418.2 319.596 418.658 319.094 419.256 318.753C419.853 318.401 420.562 318.225 421.384 318.225C422.162 318.225 422.845 318.401 423.432 318.753C424.029 319.094 424.493 319.596 424.824 320.257C425.165 320.908 425.336 321.708 425.336 322.657ZM418.856 322.657C418.856 323.329 418.941 323.916 419.112 324.417C419.293 324.908 419.57 325.286 419.944 325.553C420.317 325.82 420.792 325.953 421.368 325.953C421.944 325.953 422.418 325.82 422.792 325.553C423.165 325.286 423.437 324.908 423.608 324.417C423.789 323.916 423.88 323.329 423.88 322.657C423.88 321.974 423.789 321.393 423.608 320.913C423.426 320.433 423.149 320.065 422.776 319.809C422.413 319.542 421.938 319.409 421.352 319.409C420.477 319.409 419.842 319.697 419.448 320.273C419.053 320.849 418.856 321.644 418.856 322.657ZM434.815 318.385V326.961H433.407V319.585H428.975V326.961H427.567V318.385H434.815ZM440.799 318.241C441.845 318.241 442.618 318.47 443.119 318.929C443.621 319.388 443.871 320.118 443.871 321.121V326.961H442.847L442.575 325.745H442.511C442.266 326.054 442.01 326.316 441.743 326.529C441.487 326.732 441.189 326.881 440.847 326.977C440.517 327.073 440.111 327.121 439.631 327.121C439.119 327.121 438.655 327.03 438.239 326.849C437.834 326.668 437.514 326.39 437.279 326.017C437.045 325.633 436.927 325.153 436.927 324.577C436.927 323.724 437.263 323.068 437.935 322.609C438.607 322.14 439.642 321.884 441.039 321.841L442.495 321.793V321.281C442.495 320.566 442.341 320.07 442.031 319.793C441.722 319.516 441.285 319.377 440.719 319.377C440.271 319.377 439.845 319.446 439.439 319.585C439.034 319.713 438.655 319.862 438.303 320.033L437.871 318.977C438.245 318.774 438.687 318.604 439.199 318.465C439.711 318.316 440.245 318.241 440.799 318.241ZM441.215 322.817C440.149 322.86 439.407 323.03 438.991 323.329C438.586 323.628 438.383 324.049 438.383 324.593C438.383 325.073 438.527 325.425 438.815 325.649C439.114 325.873 439.493 325.985 439.951 325.985C440.677 325.985 441.279 325.788 441.759 325.393C442.239 324.988 442.479 324.369 442.479 323.537V322.769L441.215 322.817ZM449.96 327.121C449.203 327.121 448.525 326.966 447.928 326.657C447.341 326.348 446.877 325.868 446.536 325.217C446.205 324.566 446.04 323.734 446.04 322.721C446.04 321.665 446.216 320.806 446.568 320.145C446.92 319.484 447.395 318.998 447.992 318.689C448.6 318.38 449.288 318.225 450.056 318.225C450.493 318.225 450.915 318.273 451.32 318.369C451.725 318.454 452.056 318.561 452.312 318.689L451.88 319.857C451.624 319.761 451.325 319.67 450.984 319.585C450.643 319.5 450.323 319.457 450.024 319.457C449.448 319.457 448.973 319.58 448.6 319.825C448.227 320.07 447.949 320.433 447.768 320.913C447.587 321.393 447.496 321.99 447.496 322.705C447.496 323.388 447.587 323.969 447.768 324.449C447.949 324.929 448.221 325.292 448.584 325.537C448.947 325.782 449.4 325.905 449.944 325.905C450.413 325.905 450.824 325.857 451.176 325.761C451.539 325.665 451.869 325.548 452.168 325.409V326.657C451.88 326.806 451.56 326.918 451.208 326.993C450.867 327.078 450.451 327.121 449.96 327.121ZM455.616 318.385V321.953H460.272V318.385H461.68V326.961H460.272V323.137H455.616V326.961H454.208V318.385H455.616ZM471.851 322.657C471.851 323.372 471.755 324.006 471.563 324.561C471.382 325.105 471.115 325.569 470.763 325.953C470.422 326.337 470 326.63 469.499 326.833C469.008 327.025 468.459 327.121 467.851 327.121C467.286 327.121 466.763 327.025 466.283 326.833C465.803 326.63 465.387 326.337 465.035 325.953C464.683 325.569 464.406 325.105 464.203 324.561C464.011 324.006 463.915 323.372 463.915 322.657C463.915 321.708 464.075 320.908 464.395 320.257C464.715 319.596 465.174 319.094 465.771 318.753C466.368 318.401 467.078 318.225 467.899 318.225C468.678 318.225 469.36 318.401 469.947 318.753C470.544 319.094 471.008 319.596 471.339 320.257C471.68 320.908 471.851 321.708 471.851 322.657ZM465.371 322.657C465.371 323.329 465.456 323.916 465.627 324.417C465.808 324.908 466.086 325.286 466.459 325.553C466.832 325.82 467.307 325.953 467.883 325.953C468.459 325.953 468.934 325.82 469.307 325.553C469.68 325.286 469.952 324.908 470.123 324.417C470.304 323.916 470.395 323.329 470.395 322.657C470.395 321.974 470.304 321.393 470.123 320.913C469.942 320.433 469.664 320.065 469.291 319.809C468.928 319.542 468.454 319.409 467.867 319.409C466.992 319.409 466.358 319.697 465.963 320.273C465.568 320.849 465.371 321.644 465.371 322.657ZM477.523 327.121C476.765 327.121 476.088 326.966 475.491 326.657C474.904 326.348 474.44 325.868 474.099 325.217C473.768 324.566 473.603 323.734 473.603 322.721C473.603 321.665 473.779 320.806 474.131 320.145C474.483 319.484 474.957 318.998 475.555 318.689C476.163 318.38 476.851 318.225 477.619 318.225C478.056 318.225 478.477 318.273 478.883 318.369C479.288 318.454 479.619 318.561 479.875 318.689L479.443 319.857C479.187 319.761 478.888 319.67 478.547 319.585C478.205 319.5 477.885 319.457 477.587 319.457C477.011 319.457 476.536 319.58 476.163 319.825C475.789 320.07 475.512 320.433 475.331 320.913C475.149 321.393 475.059 321.99 475.059 322.705C475.059 323.388 475.149 323.969 475.331 324.449C475.512 324.929 475.784 325.292 476.147 325.537C476.509 325.782 476.963 325.905 477.507 325.905C477.976 325.905 478.387 325.857 478.739 325.761C479.101 325.665 479.432 325.548 479.731 325.409V326.657C479.443 326.806 479.123 326.918 478.771 326.993C478.429 327.078 478.013 327.121 477.523 327.121ZM487.69 319.569H484.89V326.961H483.498V319.569H480.73V318.385H487.69V319.569ZM493.332 321.905C494.078 321.905 494.697 321.996 495.188 322.177C495.678 322.358 496.046 322.63 496.292 322.993C496.548 323.345 496.676 323.793 496.676 324.337C496.676 324.87 496.553 325.334 496.308 325.729C496.073 326.124 495.705 326.428 495.204 326.641C494.702 326.854 494.057 326.961 493.268 326.961H489.38V318.385H490.788V321.905H493.332ZM495.268 324.417C495.268 323.894 495.081 323.542 494.708 323.361C494.345 323.169 493.833 323.073 493.172 323.073H490.788V325.825H493.204C493.801 325.825 494.292 325.718 494.676 325.505C495.07 325.292 495.268 324.929 495.268 324.417Z" fill="#EDEDED"/>
<rect x="630.118" y="300.994" width="128" height="37" rx="7" transform="rotate(-4 630.118 300.994)" fill="#00B6CC" fill-opacity="0.8"/>
<rect x="630.118" y="300.994" width="128" height="37" rx="7" transform="rotate(-4 630.118 300.994)" stroke="#00B6CC" stroke-width="2"/>
<path d="M671.084 322.188L669.36 322.308L663.801 316.891L664.205 322.669L662.768 322.769L661.971 311.373L663.408 311.273L663.794 316.795L668.436 310.921L670.064 310.807L665.503 316.692L671.084 322.188ZM679.581 317.279C679.631 317.992 679.579 318.632 679.427 319.199C679.284 319.754 679.05 320.235 678.726 320.643C678.412 321.05 678.012 321.372 677.526 321.609C677.05 321.835 676.509 321.969 675.902 322.011C675.338 322.051 674.81 321.991 674.318 321.833C673.825 321.665 673.389 321.401 673.012 321.043C672.634 320.684 672.325 320.24 672.084 319.712C671.854 319.172 671.714 318.546 671.664 317.833C671.598 316.886 671.702 316.076 671.976 315.405C672.249 314.723 672.671 314.191 673.243 313.809C673.815 313.416 674.51 313.191 675.329 313.134C676.106 313.079 676.8 313.207 677.409 313.517C678.029 313.816 678.527 314.284 678.903 314.921C679.289 315.546 679.515 316.332 679.581 317.279ZM673.117 317.731C673.164 318.401 673.29 318.981 673.495 319.469C673.71 319.946 674.013 320.304 674.404 320.544C674.795 320.784 675.278 320.884 675.853 320.844C676.427 320.804 676.891 320.638 677.245 320.346C677.599 320.053 677.844 319.657 677.98 319.155C678.126 318.643 678.175 318.051 678.129 317.381C678.081 316.7 677.95 316.126 677.736 315.66C677.521 315.194 677.219 314.846 676.829 314.617C676.448 314.376 675.965 314.276 675.38 314.317C674.508 314.378 673.895 314.71 673.541 315.312C673.188 315.914 673.046 316.72 673.117 317.731ZM690.687 312.22L691.285 320.775L690.024 320.863L689.642 315.405C689.627 315.181 689.616 314.947 689.609 314.701C689.613 314.455 689.618 314.214 689.623 313.979L689.575 313.982L687.263 321.056L686.082 321.139L682.887 314.45L682.839 314.453C682.877 314.686 682.904 314.924 682.921 315.169C682.949 315.413 682.972 315.663 682.99 315.918L683.368 321.329L682.107 321.417L681.509 312.862L683.377 312.731L686.555 319.422L688.819 312.351L690.687 312.22ZM696.648 311.659C697.69 311.586 698.478 311.761 699.01 312.183C699.542 312.606 699.843 313.317 699.913 314.318L700.32 320.143L699.299 320.215L698.943 319.021L698.879 319.025C698.656 319.351 698.419 319.629 698.167 319.861C697.926 320.081 697.639 320.251 697.305 320.37C696.982 320.489 696.581 320.565 696.102 320.599C695.591 320.634 695.122 320.576 694.694 320.425C694.277 320.272 693.939 320.018 693.679 319.662C693.418 319.295 693.267 318.824 693.227 318.25C693.167 317.398 693.457 316.72 694.095 316.216C694.733 315.701 695.747 315.373 697.138 315.233L698.587 315.084L698.551 314.573C698.502 313.86 698.313 313.376 697.985 313.121C697.657 312.866 697.211 312.758 696.647 312.798C696.2 312.829 695.779 312.928 695.385 313.095C694.989 313.25 694.622 313.426 694.283 313.621L693.778 312.597C694.136 312.369 694.566 312.168 695.067 311.994C695.567 311.809 696.094 311.698 696.648 311.659ZM697.382 316.195C696.321 316.312 695.593 316.534 695.199 316.861C694.815 317.187 694.643 317.621 694.681 318.164C694.714 318.643 694.882 318.984 695.185 319.187C695.499 319.39 695.884 319.475 696.342 319.443C697.065 319.393 697.653 319.154 698.104 318.727C698.555 318.289 698.751 317.655 698.693 316.825L698.639 316.059L697.382 316.195ZM703.769 311.305L704.018 314.865L708.663 314.54L708.414 310.98L709.818 310.882L710.416 319.437L709.012 319.536L708.745 315.721L704.1 316.046L704.367 319.86L702.963 319.959L702.364 311.403L703.769 311.305ZM718.88 310.249L719.395 317.623L720.64 317.536L720.93 321.685L719.574 321.78L719.366 318.812L713.413 319.228L713.62 322.197L712.279 322.29L711.989 318.141L712.676 318.093C713.117 317.377 713.47 316.609 713.734 315.789C714.007 314.957 714.193 314.1 714.291 313.216C714.4 312.321 714.429 311.437 714.379 310.563L718.88 310.249ZM715.701 311.578C715.709 312.304 715.649 313.062 715.523 313.852C715.395 314.63 715.213 315.381 714.974 316.103C714.747 316.825 714.465 317.454 714.128 317.991L718.039 317.718L717.6 311.445L715.701 311.578ZM725.031 309.674C726.074 309.601 726.862 309.776 727.394 310.199C727.926 310.621 728.227 311.333 728.297 312.333L728.704 318.159L727.683 318.23L727.326 317.036L727.263 317.04C727.039 317.366 726.802 317.645 726.551 317.876C726.31 318.096 726.022 318.266 725.689 318.385C725.365 318.504 724.964 318.58 724.486 318.614C723.975 318.65 723.506 318.592 723.078 318.44C722.661 318.287 722.322 318.033 722.062 317.677C721.801 317.31 721.651 316.839 721.611 316.265C721.551 315.414 721.841 314.736 722.479 314.231C723.117 313.716 724.131 313.389 725.522 313.249L726.971 313.099L726.935 312.588C726.885 311.875 726.697 311.391 726.369 311.136C726.041 310.881 725.595 310.773 725.031 310.813C724.584 310.844 724.163 310.943 723.768 311.11C723.373 311.266 723.006 311.441 722.666 311.636L722.162 310.613C722.52 310.384 722.95 310.183 723.451 310.009C723.951 309.824 724.478 309.713 725.031 309.674ZM725.766 314.21C724.704 314.327 723.977 314.549 723.583 314.876C723.199 315.202 723.026 315.637 723.064 316.179C723.098 316.658 723.266 316.999 723.569 317.202C723.882 317.405 724.268 317.49 724.726 317.458C725.449 317.408 726.037 317.169 726.488 316.742C726.938 316.304 727.135 315.67 727.077 314.84L727.023 314.074L725.766 314.21Z" fill="#EDEDED"/>
<defs>
<filter id="filter0_f_1060_407" x="431" y="0" width="278" height="189" filterUnits="userSpaceOnUse" color-interpolation-filters="sRGB">
<feFlood flood-opacity="0" result="BackgroundImageFix"/>
<feBlend mode="normal" in="SourceGraphic" in2="BackgroundImageFix" result="shape"/>
<feGaussianBlur stdDeviation="25" result="effect1_foregroundBlur_1060_407"/>
</filter>
<filter id="filter1_f_1060_407" x="461" y="30" width="218" height="129" filterUnits="userSpaceOnUse" color-interpolation-filters="sRGB">
<feFlood flood-opacity="0" result="BackgroundImageFix"/>
<feBlend mode="normal" in="SourceGraphic" in2="BackgroundImageFix" result="shape"/>
<feGaussianBlur stdDeviation="15" result="effect1_foregroundBlur_1060_407"/>
</filter>
<filter id="filter2_f_1060_407" x="491" y="60" width="158" height="69" filterUnits="userSpaceOnUse" color-interpolation-filters="sRGB">
<feFlood flood-opacity="0" result="BackgroundImageFix"/>
<feBlend mode="normal" in="SourceGraphic" in2="BackgroundImageFix" result="shape"/>
<feGaussianBlur stdDeviation="5" result="effect1_foregroundBlur_1060_407"/>
</filter>
<filter id="filter3_f_1060_407" x="491" y="60" width="158" height="69" filterUnits="userSpaceOnUse" color-interpolation-filters="sRGB">
<feFlood flood-opacity="0" result="BackgroundImageFix"/>
<feBlend mode="normal" in="SourceGraphic" in2="BackgroundImageFix" result="shape"/>
<feGaussianBlur stdDeviation="5" result="effect1_foregroundBlur_1060_407"/>
</filter>
<filter id="filter4_f_1060_407" x="292.535" y="196.691" width="23.2305" height="23.2305" filterUnits="userSpaceOnUse" color-interpolation-filters="sRGB">
<feFlood flood-opacity="0" result="BackgroundImageFix"/>
<feBlend mode="normal" in="SourceGraphic" in2="BackgroundImageFix" result="shape"/>
<feGaussianBlur stdDeviation="2.5" result="effect1_foregroundBlur_1060_407"/>
</filter>
<filter id="filter5_f_1060_407" x="287.535" y="191.691" width="33.2305" height="33.2305" filterUnits="userSpaceOnUse" color-interpolation-filters="sRGB">
<feFlood flood-opacity="0" result="BackgroundImageFix"/>
<feBlend mode="normal" in="SourceGraphic" in2="BackgroundImageFix" result="shape"/>
<feGaussianBlur stdDeviation="5" result="effect1_foregroundBlur_1060_407"/>
</filter>
<filter id="filter6_f_1060_407" x="441.471" y="117.895" width="176.36" height="166.152" filterUnits="userSpaceOnUse" color-interpolation-filters="sRGB">
<feFlood flood-opacity="0" result="BackgroundImageFix"/>
<feBlend mode="normal" in="SourceGraphic" in2="BackgroundImageFix" result="shape"/>
<feGaussianBlur stdDeviation="25" result="effect1_foregroundBlur_1060_407"/>
</filter>
<filter id="filter7_f_1060_407" x="488.59" y="166.891" width="82.1191" height="75.1523" filterUnits="userSpaceOnUse" color-interpolation-filters="sRGB">
<feFlood flood-opacity="0" result="BackgroundImageFix"/>
<feBlend mode="normal" in="SourceGraphic" in2="BackgroundImageFix" result="shape"/>
<feGaussianBlur stdDeviation="7.5" result="effect1_foregroundBlur_1060_407"/>
</filter>
<filter id="filter8_f_1060_407" x="696.743" y="187.691" width="71.6172" height="58.6914" filterUnits="userSpaceOnUse" color-interpolation-filters="sRGB">
<feFlood flood-opacity="0" result="BackgroundImageFix"/>
<feBlend mode="normal" in="SourceGraphic" in2="BackgroundImageFix" result="shape"/>
<feGaussianBlur stdDeviation="7.5" result="effect1_foregroundBlur_1060_407"/>
</filter>
<filter id="filter9_f_1060_407" x="709.743" y="200.691" width="45.6172" height="32.6914" filterUnits="userSpaceOnUse" color-interpolation-filters="sRGB">
<feFlood flood-opacity="0" result="BackgroundImageFix"/>
<feBlend mode="normal" in="SourceGraphic" in2="BackgroundImageFix" result="shape"/>
<feGaussianBlur stdDeviation="2" result="effect1_foregroundBlur_1060_407"/>
</filter>
<clipPath id="clip0_1060_407">
<rect width="36.1513" height="36.1513" fill="white" transform="translate(183.986 190.23)"/>
</clipPath>
</defs>
</svg>
