<svg width="888" height="266" viewBox="0 0 888 266" fill="none" xmlns="http://www.w3.org/2000/svg">
<rect x="1.75677" y="12.1895" width="128" height="37" rx="7" transform="rotate(-4 1.75677 12.1895)" stroke="#FF6600" stroke-width="2"/>
<path d="M38.1579 33.7045L36.5299 33.8184L33.1673 29.0814L30.4488 34.2436L28.9325 34.3496L32.3 28.1476L28.375 22.9367L29.9711 22.8251L33.0768 27.0989L35.5734 22.4333L37.0897 22.3273L33.9418 28.0007L38.1579 33.7045ZM43.0381 24.6059C44.0916 24.5323 44.9632 24.8402 45.6529 25.5298C46.3534 26.2186 46.7553 27.3025 46.8587 28.7816C46.9264 29.7499 46.8348 30.5796 46.5837 31.2708C46.3425 31.9506 45.9678 32.4794 45.4596 32.8571C44.9613 33.2234 44.3556 33.4315 43.6427 33.4814C43.2065 33.5119 42.814 33.4805 42.4653 33.3873C42.1166 33.294 41.8136 33.1655 41.5562 33.0018C41.3087 32.8266 41.092 32.6332 40.9061 32.4217L40.8104 32.4284C40.8443 32.6078 40.8816 32.8351 40.9222 33.1102C40.9628 33.3854 40.9902 33.6241 41.0044 33.8263L41.2499 37.3377L39.8453 37.4359L38.9792 25.0501L40.1284 24.9698L40.4014 26.1215L40.4653 26.1171C40.6184 25.8604 40.805 25.6228 41.0249 25.4043C41.2555 25.185 41.5317 25.0053 41.8533 24.8652C42.1856 24.7243 42.5806 24.6379 43.0381 24.6059ZM42.8653 25.8049C42.2907 25.8451 41.8357 25.9892 41.5002 26.2372C41.1639 26.4745 40.9312 26.8169 40.8021 27.2644C40.673 27.7118 40.6266 28.2711 40.6628 28.9422L40.6818 29.2135C40.7309 29.9158 40.8471 30.5065 41.0303 30.9855C41.2135 31.4646 41.4896 31.8195 41.8586 32.0503C42.2382 32.2804 42.7366 32.3739 43.3538 32.3307C43.8751 32.2943 44.2907 32.1209 44.6005 31.8105C44.9209 31.4994 45.1438 31.0935 45.2692 30.5929C45.4045 30.0809 45.4498 29.5056 45.4051 28.8672C45.3367 27.8882 45.0905 27.1195 44.6665 26.5611C44.2531 26.0019 43.6528 25.7498 42.8653 25.8049ZM52.029 23.9933C53.0718 23.9203 53.8593 24.0952 54.3914 24.5177C54.9235 24.9403 55.2245 25.6517 55.2945 26.6519L55.7018 32.4777L54.6803 32.5492L54.3242 31.3551L54.2603 31.3596C54.0372 31.6852 53.8 31.9638 53.5489 32.1952C53.3076 32.4152 53.0201 32.5851 52.6863 32.7046C52.3632 32.8235 51.9622 32.8996 51.4833 32.9331C50.9726 32.9688 50.5034 32.9107 50.0757 32.7589C49.6587 32.6062 49.3202 32.3519 49.06 31.9959C48.7992 31.6292 48.6486 31.1585 48.6085 30.5839C48.5489 29.7327 48.8383 29.0548 49.4767 28.5504C50.1143 28.0353 51.1286 27.7078 52.5196 27.5677L53.9687 27.4183L53.933 26.9075C53.8831 26.1946 53.6942 25.7106 53.3663 25.4555C53.0384 25.2005 52.5924 25.0926 52.0285 25.1321C51.5816 25.1633 51.1608 25.2622 50.7661 25.4289C50.3707 25.5848 50.0034 25.7602 49.6641 25.955L49.1595 24.9317C49.5178 24.7035 49.9475 24.5024 50.4486 24.3283C50.9489 24.1436 51.4757 24.0319 52.029 23.9933ZM52.7632 28.5291C51.7021 28.6461 50.9745 28.868 50.5804 29.195C50.1969 29.5212 50.0241 29.9556 50.062 30.4983C50.0955 30.9771 50.2637 31.3182 50.5666 31.5216C50.8802 31.7242 51.2658 31.8095 51.7233 31.7775C52.4469 31.7269 53.0343 31.4881 53.4856 31.0609C53.9362 30.623 54.1324 29.9891 54.0744 29.1592L54.0208 28.393L52.7632 28.5291ZM59.1505 23.6396L59.3994 27.1989L64.044 26.8742L63.7951 23.3148L65.1997 23.2166L65.7979 31.7717L64.3934 31.87L64.1266 28.0553L59.482 28.3801L59.7487 32.1947L58.3441 32.293L57.7459 23.7378L59.1505 23.6396ZM71.2014 22.6366C71.9356 22.5852 72.5745 22.7009 73.1182 22.9837C73.6726 23.2657 74.1086 23.6897 74.4261 24.2556C74.7536 24.8101 74.9445 25.4757 74.9988 26.2525L75.058 27.0984L69.2003 27.508C69.2893 28.4748 69.5857 29.1972 70.0896 29.6753C70.6034 30.1419 71.286 30.3454 72.1372 30.2859C72.6799 30.248 73.1554 30.1666 73.5637 30.0418C73.9819 29.9056 74.4077 29.7262 74.8412 29.5034L74.9272 30.7324C74.5043 30.9544 74.083 31.1229 73.6633 31.2378C73.2444 31.3633 72.7423 31.4465 72.1571 31.4875C71.3484 31.544 70.6186 31.4293 69.9678 31.1433C69.3275 30.8566 68.8092 30.401 68.4126 29.7765C68.026 29.1406 67.7996 28.3491 67.7333 27.4021C67.6679 26.4657 67.766 25.6515 68.0277 24.9596C68.3 24.2669 68.7055 23.72 69.2442 23.3187C69.7935 22.9168 70.4459 22.6894 71.2014 22.6366ZM71.2658 23.7869C70.5954 23.8337 70.0786 24.0891 69.7154 24.5529C69.3621 25.0053 69.175 25.6172 69.1541 26.3885L73.5115 26.0838C73.4772 25.5943 73.373 25.1739 73.1987 24.8226C73.0244 24.4712 72.776 24.2052 72.4532 24.0246C72.1404 23.8326 71.7446 23.7534 71.2658 23.7869ZM78.3224 22.299L78.5713 25.8583L83.216 25.5335L82.9671 21.9742L84.3716 21.876L84.9699 30.4311L83.5653 30.5293L83.2985 26.7146L78.6539 27.0394L78.9206 30.8541L77.5161 30.9523L76.9178 22.3972L78.3224 22.299ZM88.7703 26.8132C88.7769 26.909 88.7813 27.0477 88.7833 27.2293C88.7952 27.3995 88.8029 27.5861 88.8064 27.789C88.8092 27.9813 88.8115 28.1683 88.8136 28.3499C88.8148 28.5209 88.8139 28.66 88.8107 28.7671L92.8903 21.2803L94.6141 21.1598L95.2124 29.7149L93.9036 29.8064L93.5509 24.7627C93.539 24.5925 93.5233 24.369 93.504 24.0924C93.4953 23.815 93.4869 23.5429 93.479 23.2761C93.4703 22.9987 93.4664 22.7905 93.4674 22.6514L89.4185 30.12L87.6788 30.2417L87.0805 21.6866L88.4053 21.5939L88.7703 26.8132ZM100.629 20.5787C101.364 20.5274 102.003 20.6431 102.546 20.9259C103.101 21.2079 103.537 21.6318 103.854 22.1977C104.182 22.7522 104.373 23.4179 104.427 24.1947L104.486 25.0406L98.6284 25.4502C98.7174 26.417 99.0139 27.1394 99.5178 27.6174C100.032 28.0841 100.714 28.2876 101.565 28.2281C102.108 28.1901 102.584 28.1088 102.992 27.984C103.41 27.8478 103.836 27.6683 104.269 27.4456L104.355 28.6746C103.932 28.8966 103.511 29.0651 103.091 29.18C102.673 29.3055 102.17 29.3887 101.585 29.4296C100.777 29.4862 100.047 29.3715 99.3959 29.0855C98.7557 28.7988 98.2373 28.3432 97.8408 27.7187C97.4541 27.0828 97.2277 26.2913 97.1615 25.3443C97.096 24.4079 97.1941 23.5937 97.4558 22.9018C97.7282 22.2091 98.1337 21.6621 98.6723 21.2609C99.2216 20.859 99.874 20.6316 100.629 20.5787ZM100.694 21.7291C100.024 21.7759 99.5068 22.0313 99.1436 22.4951C98.7903 22.9475 98.6031 23.5594 98.5822 24.3307L102.94 24.026C102.905 23.5365 102.801 23.1161 102.627 22.7647C102.453 22.4134 102.204 22.1474 101.881 21.9668C101.569 21.7748 101.173 21.6956 100.694 21.7291Z" fill="#A1A1A1"/>
<rect x="254.923" y="1" width="128" height="37" rx="7" stroke="#FF00E6" stroke-width="2"/>
<path d="M278.991 13.576H280.335V19.848C280.335 20.1147 280.33 20.408 280.319 20.728C280.319 21.0373 280.314 21.3467 280.303 21.656C280.292 21.9653 280.276 22.2427 280.255 22.488C280.244 22.7227 280.234 22.904 280.223 23.032H280.287L286.575 13.576H288.175V25H286.831V18.792C286.831 18.504 286.836 18.1947 286.847 17.864C286.858 17.5227 286.868 17.1973 286.879 16.888C286.9 16.568 286.916 16.2853 286.927 16.04C286.938 15.7947 286.948 15.6133 286.959 15.496H286.895L280.591 25H278.991V13.576ZM292.472 16.424V19.992H297.128V16.424H298.536V25H297.128V21.176H292.472V25H291.064V16.424H292.472ZM307.172 17.608H304.372V25H302.98V17.608H300.212V16.424H307.172V17.608ZM312.017 16.264C312.753 16.264 313.382 16.424 313.905 16.744C314.438 17.064 314.843 17.5173 315.121 18.104C315.409 18.68 315.553 19.3573 315.553 20.136V20.984H309.681C309.702 21.9547 309.947 22.696 310.417 23.208C310.897 23.7093 311.563 23.96 312.417 23.96C312.961 23.96 313.441 23.912 313.857 23.816C314.283 23.7093 314.721 23.56 315.169 23.368V24.6C314.731 24.792 314.299 24.9307 313.873 25.016C313.446 25.112 312.939 25.16 312.353 25.16C311.542 25.16 310.822 24.9947 310.193 24.664C309.574 24.3333 309.089 23.8427 308.737 23.192C308.395 22.5307 308.225 21.7253 308.225 20.776C308.225 19.8373 308.379 19.032 308.689 18.36C309.009 17.688 309.451 17.1707 310.017 16.808C310.593 16.4453 311.259 16.264 312.017 16.264ZM312.001 17.416C311.329 17.416 310.795 17.6347 310.401 18.072C310.017 18.4987 309.787 19.096 309.713 19.864H314.081C314.081 19.3733 314.006 18.9467 313.857 18.584C313.707 18.2213 313.478 17.9387 313.169 17.736C312.87 17.5227 312.481 17.416 312.001 17.416ZM324.264 25H322.84V17.592H320.312C320.205 18.9467 320.072 20.104 319.912 21.064C319.752 22.0133 319.549 22.7867 319.304 23.384C319.059 23.9813 318.765 24.4187 318.424 24.696C318.083 24.9733 317.683 25.112 317.224 25.112C317.085 25.112 316.947 25.1013 316.808 25.08C316.68 25.0693 316.573 25.0427 316.488 25V23.944C316.552 23.9653 316.621 23.9813 316.696 23.992C316.771 24.0027 316.845 24.008 316.92 24.008C317.155 24.008 317.368 23.912 317.56 23.72C317.752 23.528 317.923 23.2347 318.072 22.84C318.232 22.4453 318.376 21.9493 318.504 21.352C318.632 20.744 318.744 20.0293 318.84 19.208C318.936 18.3867 319.021 17.4587 319.096 16.424H324.264V25ZM333.514 25H332.09V17.592H329.562C329.455 18.9467 329.322 20.104 329.162 21.064C329.002 22.0133 328.799 22.7867 328.554 23.384C328.309 23.9813 328.015 24.4187 327.674 24.696C327.333 24.9733 326.933 25.112 326.474 25.112C326.335 25.112 326.197 25.1013 326.058 25.08C325.93 25.0693 325.823 25.0427 325.738 25V23.944C325.802 23.9653 325.871 23.9813 325.946 23.992C326.021 24.0027 326.095 24.008 326.17 24.008C326.405 24.008 326.618 23.912 326.81 23.72C327.002 23.528 327.173 23.2347 327.322 22.84C327.482 22.4453 327.626 21.9493 327.754 21.352C327.882 20.744 327.994 20.0293 328.09 19.208C328.186 18.3867 328.271 17.4587 328.346 16.424H333.514V25ZM339.548 16.264C340.284 16.264 340.913 16.424 341.436 16.744C341.969 17.064 342.375 17.5173 342.652 18.104C342.94 18.68 343.084 19.3573 343.084 20.136V20.984H337.212C337.233 21.9547 337.479 22.696 337.948 23.208C338.428 23.7093 339.095 23.96 339.948 23.96C340.492 23.96 340.972 23.912 341.388 23.816C341.815 23.7093 342.252 23.56 342.7 23.368V24.6C342.263 24.792 341.831 24.9307 341.404 25.016C340.977 25.112 340.471 25.16 339.884 25.16C339.073 25.16 338.353 24.9947 337.724 24.664C337.105 24.3333 336.62 23.8427 336.268 23.192C335.927 22.5307 335.756 21.7253 335.756 20.776C335.756 19.8373 335.911 19.032 336.22 18.36C336.54 17.688 336.983 17.1707 337.548 16.808C338.124 16.4453 338.791 16.264 339.548 16.264ZM339.532 17.416C338.86 17.416 338.327 17.6347 337.932 18.072C337.548 18.4987 337.319 19.096 337.244 19.864H341.612C341.612 19.3733 341.537 18.9467 341.388 18.584C341.239 18.2213 341.009 17.9387 340.7 17.736C340.401 17.5227 340.012 17.416 339.532 17.416ZM350.339 16.424H351.875L348.211 20.552L352.179 25H350.547L346.675 20.648V25H345.267V16.424H346.675V20.584L350.339 16.424ZM359.656 17.608H356.856V25H355.464V17.608H352.696V16.424H359.656V17.608Z" fill="#A1A1A1"/>
<rect x="758.12" y="3.26263" width="128" height="37" rx="7" transform="rotate(4 758.12 3.26263)" stroke="#C300FF" stroke-width="2"/>
<path d="M771.462 28.2553L772.259 16.8591L780.814 17.4574L780.017 28.8535L778.596 28.7542L779.305 18.619L773.607 18.2205L772.898 28.3558L771.462 28.2553ZM786.793 20.5861C787.836 20.659 788.592 20.9417 789.06 21.4343C789.528 21.9268 789.727 22.6732 789.657 23.6734L789.25 29.4992L788.228 29.4277L788.042 28.1957L787.978 28.1912C787.711 28.4827 787.438 28.7256 787.157 28.9198C786.887 29.1041 786.579 29.2322 786.232 29.3042C785.895 29.3769 785.488 29.3965 785.009 29.363C784.498 29.3273 784.041 29.2045 783.639 28.9946C783.247 28.7854 782.947 28.4864 782.739 28.0976C782.532 27.6982 782.449 27.2112 782.489 26.6366C782.548 25.7853 782.929 25.1544 783.632 24.7437C784.335 24.3224 785.385 24.1392 786.782 24.1941L788.237 24.2478L788.273 23.737C788.323 23.0241 788.203 22.5185 787.914 22.2203C787.625 21.922 787.198 21.7532 786.634 21.7138C786.187 21.6825 785.757 21.7219 785.343 21.832C784.93 21.9314 784.541 22.0539 784.178 22.1996L783.821 21.1161C784.208 20.9399 784.661 20.8006 785.182 20.6979C785.703 20.5847 786.24 20.5474 786.793 20.5861ZM786.889 25.18C785.822 25.1481 785.071 25.2667 784.635 25.5356C784.21 25.8053 783.978 26.2114 783.94 26.7541C783.907 27.2329 784.026 27.5941 784.297 27.8377C784.58 28.0819 784.95 28.2201 785.407 28.2521C786.131 28.3027 786.746 28.1479 787.252 27.7876C787.759 27.4168 788.042 26.8164 788.1 25.9864L788.153 25.2203L786.889 25.18ZM796.571 21.2538C797.625 21.3275 798.445 21.7537 799.032 22.5326C799.63 23.3122 799.877 24.4415 799.774 25.9206C799.706 26.8889 799.5 27.6978 799.155 28.3473C798.821 28.9869 798.377 29.4584 797.821 29.7617C797.276 30.0551 796.648 30.1769 795.935 30.127C795.498 30.0965 795.114 30.0108 794.782 29.87C794.45 29.7291 794.167 29.5597 793.935 29.3617C793.715 29.1538 793.527 28.9321 793.372 28.6968L793.277 28.6901C793.285 28.8725 793.29 29.1027 793.292 29.3809C793.294 29.659 793.288 29.8992 793.274 30.1014L793.029 33.6128L791.624 33.5146L792.49 21.1288L793.639 21.2092L793.749 22.3877L793.813 22.3922C794.001 22.1594 794.218 21.95 794.467 21.7642C794.725 21.5792 795.024 21.4397 795.362 21.3457C795.711 21.2524 796.114 21.2218 796.571 21.2538ZM796.233 22.4171C795.659 22.3769 795.188 22.4562 794.821 22.6551C794.455 22.8434 794.177 23.1501 793.987 23.5752C793.797 24.0003 793.673 24.5477 793.616 25.2173L793.597 25.4886C793.548 26.1909 793.58 26.792 793.695 27.2919C793.81 27.7918 794.034 28.1817 794.367 28.4616C794.711 28.7423 795.192 28.9042 795.809 28.9474C796.33 28.9838 796.766 28.8699 797.116 28.6057C797.476 28.3422 797.754 27.9713 797.947 27.493C798.153 27.0048 798.278 26.4415 798.322 25.803C798.391 24.8241 798.254 24.0286 797.912 23.4166C797.58 22.8053 797.021 22.4721 796.233 22.4171ZM807.977 23.3987L805.184 23.2033L804.668 30.5773L803.28 30.4802L803.795 23.1062L801.034 22.9131L801.116 21.732L808.06 22.2175L807.977 23.3987ZM811.149 22.4336L810.9 25.9929L815.545 26.3177L815.794 22.7584L817.199 22.8566L816.6 31.4117L815.196 31.3135L815.463 27.4988L810.818 27.174L810.551 30.9887L809.147 30.8905L809.745 22.3354L811.149 22.4336ZM823.223 23.1174C823.957 23.1688 824.573 23.3723 825.072 23.728C825.582 24.0844 825.955 24.5649 826.191 25.1695C826.438 25.7642 826.534 26.4499 826.48 27.2267L826.421 28.0726L820.563 27.663C820.517 28.6328 820.71 29.3894 821.142 29.9329C821.586 30.4665 822.233 30.7631 823.085 30.8226C823.627 30.8606 824.11 30.8462 824.531 30.7794C824.964 30.7028 825.411 30.5843 825.871 30.424L825.785 31.653C825.336 31.814 824.895 31.9222 824.464 31.9776C824.031 32.0436 823.522 32.0561 822.937 32.0152C822.129 31.9587 821.422 31.7435 820.817 31.3698C820.223 30.9967 819.773 30.4734 819.467 29.7998C819.173 29.1162 819.059 28.301 819.125 27.3539C819.191 26.4176 819.401 25.625 819.756 24.9762C820.123 24.3282 820.6 23.843 821.189 23.5206C821.789 23.199 822.467 23.0646 823.223 23.1174ZM823.126 24.2655C822.456 24.2186 821.909 24.3996 821.484 24.8083C821.072 25.2072 820.801 25.787 820.673 26.548L825.03 26.8527C825.065 26.3632 825.02 25.9323 824.896 25.5601C824.773 25.1879 824.564 24.89 824.269 24.6662C823.986 24.4326 823.605 24.299 823.126 24.2655ZM832.998 23.801C834.051 23.8747 834.872 24.3009 835.459 25.0798C836.056 25.8594 836.304 26.9887 836.2 28.4678C836.133 29.4361 835.926 30.245 835.581 30.8945C835.248 31.5341 834.803 32.0056 834.248 32.3089C833.703 32.6023 833.074 32.7241 832.361 32.6742C831.925 32.6437 831.541 32.558 831.209 32.4172C830.876 32.2763 830.594 32.1069 830.362 31.9089C830.141 31.701 829.954 31.4793 829.799 31.244L829.703 31.2373C829.712 31.4197 829.717 31.6499 829.719 31.9281C829.721 32.2062 829.715 32.4464 829.701 32.6486L829.455 36.16L828.051 36.0618L828.917 23.676L830.066 23.7564L830.176 24.9349L830.24 24.9394C830.427 24.7066 830.645 24.4972 830.893 24.3114C831.152 24.1264 831.451 23.9869 831.789 23.8929C832.137 23.7996 832.54 23.769 832.998 23.801ZM832.66 24.9643C832.085 24.9241 831.615 25.0034 831.248 25.2023C830.882 25.3906 830.604 25.6973 830.414 26.1224C830.224 26.5475 830.1 27.0949 830.042 27.7645L830.023 28.0358C829.974 28.7381 830.007 29.3392 830.122 29.8391C830.236 30.339 830.461 30.7289 830.794 31.0088C831.138 31.2895 831.618 31.4514 832.235 31.4946C832.757 31.531 833.192 31.4171 833.542 31.1529C833.903 30.8894 834.18 30.5185 834.374 30.0402C834.579 29.552 834.704 28.9887 834.749 28.3502C834.817 27.3713 834.68 26.5758 834.338 25.9638C834.007 25.3525 833.447 25.0193 832.66 24.9643ZM841.559 33.3174C840.803 33.2645 840.138 33.063 839.564 32.7127C839 32.3632 838.571 31.852 838.276 31.1792C837.991 30.507 837.885 29.6655 837.955 28.6546C838.029 27.6012 838.264 26.7569 838.662 26.1217C839.059 25.4866 839.566 25.0355 840.184 24.7686C840.812 24.5025 841.509 24.3962 842.275 24.4497C842.711 24.4802 843.128 24.5575 843.526 24.6815C843.924 24.7949 844.247 24.9244 844.493 25.07L843.981 26.205C843.732 26.0914 843.44 25.9801 843.106 25.8711C842.771 25.7622 842.455 25.6973 842.157 25.6765C841.583 25.6363 841.101 25.7256 840.711 25.9443C840.321 26.163 840.019 26.5054 839.805 26.9716C839.591 27.4378 839.459 28.0273 839.409 28.7402C839.361 29.4212 839.411 30.0075 839.558 30.499C839.706 30.9904 839.952 31.3712 840.297 31.6412C840.641 31.9113 841.085 32.0653 841.628 32.1032C842.096 32.1359 842.509 32.1167 842.867 32.0455C843.235 31.975 843.573 31.881 843.881 31.7636L843.794 33.0085C843.496 33.1374 843.169 33.2268 842.813 33.2767C842.466 33.338 842.048 33.3516 841.559 33.3174ZM852.228 26.493L849.435 26.2977L848.919 33.6717L847.531 33.5746L848.046 26.2006L845.285 26.0075L845.368 24.8264L852.311 25.3119L852.228 26.493ZM860.725 28.0655C860.687 28.5975 860.499 29.0014 860.159 29.277C859.819 29.5526 859.395 29.7261 858.887 29.7976L858.883 29.8614C859.41 29.9731 859.859 30.197 860.231 30.5331C860.604 30.8586 860.768 31.3405 860.724 31.979C860.698 32.3408 860.606 32.6711 860.446 32.97C860.297 33.2697 860.076 33.5215 859.784 33.7257C859.491 33.9298 859.122 34.0804 858.677 34.1776C858.233 34.2641 857.702 34.2858 857.085 34.2427L853.398 33.9848L853.996 25.4297L857.667 25.6864C858.274 25.7288 858.812 25.836 859.281 26.0078C859.761 26.1697 860.129 26.4199 860.383 26.7585C860.649 27.0872 860.763 27.5228 860.725 28.0655ZM859.271 31.8774C859.305 31.3879 859.144 31.0238 858.786 30.7849C858.429 30.5461 857.888 30.4013 857.165 30.3507L855.074 30.2045L854.882 32.9498L857.005 33.0983C857.707 33.1474 858.251 33.0839 858.638 32.9077C859.025 32.721 859.236 32.3775 859.271 31.8774ZM859.292 28.1418C859.32 27.7374 859.192 27.4344 858.906 27.2326C858.632 27.021 858.166 26.8921 857.506 26.846L855.319 26.6931L855.155 29.0394L857.086 29.1744C857.778 29.2228 858.311 29.1639 858.687 28.9976C859.062 28.8314 859.264 28.5461 859.292 28.1418ZM866.443 26.1557C867.485 26.2286 868.241 26.5114 868.709 27.0039C869.177 27.4964 869.376 28.2428 869.306 29.243L868.899 35.0688L867.877 34.9973L867.691 33.7653L867.627 33.7609C867.361 34.0523 867.087 34.2952 866.806 34.4894C866.537 34.6737 866.228 34.8018 865.881 34.8738C865.544 34.9465 865.137 34.9661 864.658 34.9326C864.147 34.8969 863.691 34.7741 863.288 34.5642C862.897 34.355 862.597 34.056 862.389 33.6672C862.181 33.2678 862.098 32.7808 862.138 32.2062C862.198 31.3549 862.578 30.724 863.281 30.3133C863.984 29.892 865.034 29.7088 866.431 29.7637L867.887 29.8174L867.922 29.3066C867.972 28.5937 867.853 28.0881 867.563 27.7899C867.274 27.4916 866.847 27.3228 866.283 27.2834C865.837 27.2521 865.406 27.2915 864.992 27.4016C864.579 27.501 864.191 27.6235 863.828 27.7692L863.47 26.6857C863.857 26.5096 864.31 26.3702 864.831 26.2676C865.352 26.1543 865.889 26.117 866.443 26.1557ZM866.538 30.7496C865.471 30.7177 864.72 30.8363 864.284 31.1052C863.859 31.3749 863.627 31.781 863.589 32.3237C863.556 32.8025 863.675 33.1637 863.947 33.4073C864.229 33.6516 864.599 33.7897 865.056 33.8217C865.78 33.8723 866.395 33.7175 866.901 33.3573C867.408 32.9864 867.691 32.386 867.749 31.556L867.803 30.7899L866.538 30.7496Z" fill="#A1A1A1"/>
<rect x="505" y="1" width="128" height="37" rx="7" stroke="#0029CC" stroke-width="2"/>
<path d="M528.576 13.576C530.069 13.576 531.157 13.8693 531.84 14.456C532.523 15.0427 532.864 15.8693 532.864 16.936C532.864 17.4053 532.784 17.8587 532.624 18.296C532.475 18.7227 532.224 19.1067 531.872 19.448C531.52 19.7893 531.051 20.0613 530.464 20.264C529.877 20.456 529.157 20.552 528.304 20.552H526.992V25H525.552V13.576H528.576ZM528.448 14.808H526.992V19.32H528.144C528.869 19.32 529.472 19.2453 529.952 19.096C530.432 18.936 530.789 18.6853 531.024 18.344C531.259 18.0027 531.376 17.5547 531.376 17C531.376 16.264 531.141 15.7147 530.672 15.352C530.203 14.9893 529.461 14.808 528.448 14.808ZM538.296 16.28C539.341 16.28 540.114 16.5093 540.616 16.968C541.117 17.4267 541.368 18.1573 541.368 19.16V25H540.344L540.072 23.784H540.008C539.762 24.0933 539.506 24.3547 539.24 24.568C538.984 24.7707 538.685 24.92 538.344 25.016C538.013 25.112 537.608 25.16 537.128 25.16C536.616 25.16 536.152 25.0693 535.736 24.888C535.33 24.7067 535.01 24.4293 534.776 24.056C534.541 23.672 534.424 23.192 534.424 22.616C534.424 21.7627 534.76 21.1067 535.432 20.648C536.104 20.1787 537.138 19.9227 538.536 19.88L539.992 19.832V19.32C539.992 18.6053 539.837 18.1093 539.528 17.832C539.218 17.5547 538.781 17.416 538.216 17.416C537.768 17.416 537.341 17.4853 536.936 17.624C536.53 17.752 536.152 17.9013 535.799 18.072L535.368 17.016C535.741 16.8133 536.184 16.6427 536.696 16.504C537.208 16.3547 537.741 16.28 538.296 16.28ZM538.712 20.856C537.645 20.8987 536.904 21.0693 536.488 21.368C536.082 21.6667 535.88 22.088 535.88 22.632C535.88 23.112 536.024 23.464 536.312 23.688C536.61 23.912 536.989 24.024 537.448 24.024C538.173 24.024 538.776 23.8267 539.256 23.432C539.736 23.0267 539.976 22.408 539.976 21.576V20.808L538.712 20.856ZM546.272 16.264C546.923 16.264 547.488 16.3547 547.968 16.536C548.448 16.7067 548.822 16.9627 549.088 17.304C549.355 17.6347 549.488 18.04 549.488 18.52C549.488 19.0427 549.344 19.4587 549.056 19.768C548.768 20.0667 548.374 20.2853 547.872 20.424V20.488C548.214 20.584 548.528 20.7173 548.816 20.888C549.104 21.0587 549.334 21.2827 549.504 21.56C549.686 21.8373 549.776 22.1947 549.776 22.632C549.776 23.1013 549.643 23.528 549.376 23.912C549.12 24.296 548.72 24.6 548.176 24.824C547.643 25.048 546.955 25.16 546.112 25.16C545.707 25.16 545.318 25.1387 544.944 25.096C544.582 25.0533 544.251 24.9893 543.952 24.904C543.664 24.8187 543.408 24.7173 543.184 24.6V23.336C543.547 23.5067 543.974 23.6613 544.464 23.8C544.966 23.9387 545.51 24.008 546.096 24.008C546.523 24.008 546.907 23.96 547.248 23.864C547.6 23.768 547.878 23.6187 548.08 23.416C548.283 23.2027 548.384 22.9147 548.384 22.552C548.384 22.2213 548.294 21.9547 548.112 21.752C547.931 21.5387 547.659 21.3787 547.296 21.272C546.944 21.1653 546.491 21.112 545.936 21.112H544.784V19.96H545.712C546.448 19.96 547.035 19.864 547.472 19.672C547.92 19.4693 548.144 19.128 548.144 18.648C548.144 18.2427 547.974 17.9387 547.632 17.736C547.302 17.5333 546.822 17.432 546.192 17.432C545.723 17.432 545.307 17.48 544.944 17.576C544.592 17.6613 544.203 17.7947 543.776 17.976L543.28 16.856C543.739 16.6533 544.219 16.504 544.72 16.408C545.222 16.312 545.739 16.264 546.272 16.264ZM555.94 16.264C556.996 16.264 557.844 16.632 558.484 17.368C559.135 18.104 559.46 19.2133 559.46 20.696C559.46 21.6667 559.311 22.488 559.012 23.16C558.724 23.8213 558.313 24.3227 557.78 24.664C557.257 24.9947 556.639 25.16 555.924 25.16C555.487 25.16 555.097 25.1013 554.756 24.984C554.415 24.8667 554.121 24.7173 553.876 24.536C553.641 24.344 553.439 24.136 553.268 23.912H553.172C553.193 24.0933 553.215 24.3227 553.236 24.6C553.257 24.8773 553.268 25.1173 553.268 25.32V28.84H551.86V16.424H553.012L553.204 17.592H553.268C553.439 17.3467 553.641 17.1227 553.876 16.92C554.121 16.7173 554.409 16.5573 554.74 16.44C555.081 16.3227 555.481 16.264 555.94 16.264ZM555.684 17.448C555.108 17.448 554.644 17.56 554.292 17.784C553.94 17.9973 553.684 18.3227 553.524 18.76C553.364 19.1973 553.279 19.752 553.268 20.424V20.696C553.268 21.4 553.343 21.9973 553.492 22.488C553.641 22.9787 553.892 23.352 554.244 23.608C554.607 23.864 555.097 23.992 555.716 23.992C556.239 23.992 556.665 23.848 556.996 23.56C557.337 23.272 557.588 22.8827 557.748 22.392C557.919 21.8907 558.004 21.32 558.004 20.68C558.004 19.6987 557.812 18.9147 557.428 18.328C557.055 17.7413 556.473 17.448 555.684 17.448ZM564.952 16.28C565.997 16.28 566.77 16.5093 567.272 16.968C567.773 17.4267 568.024 18.1573 568.024 19.16V25H567L566.728 23.784H566.664C566.418 24.0933 566.162 24.3547 565.896 24.568C565.64 24.7707 565.341 24.92 565 25.016C564.669 25.112 564.264 25.16 563.784 25.16C563.272 25.16 562.808 25.0693 562.392 24.888C561.986 24.7067 561.666 24.4293 561.432 24.056C561.197 23.672 561.08 23.192 561.08 22.616C561.08 21.7627 561.416 21.1067 562.088 20.648C562.76 20.1787 563.794 19.9227 565.192 19.88L566.648 19.832V19.32C566.648 18.6053 566.493 18.1093 566.184 17.832C565.874 17.5547 565.437 17.416 564.872 17.416C564.424 17.416 563.997 17.4853 563.592 17.624C563.186 17.752 562.808 17.9013 562.456 18.072L562.024 17.016C562.397 16.8133 562.84 16.6427 563.352 16.504C563.864 16.3547 564.397 16.28 564.952 16.28ZM565.368 20.856C564.301 20.8987 563.56 21.0693 563.144 21.368C562.738 21.6667 562.536 22.088 562.536 22.632C562.536 23.112 562.68 23.464 562.968 23.688C563.266 23.912 563.645 24.024 564.104 24.024C564.829 24.024 565.432 23.8267 565.912 23.432C566.392 23.0267 566.632 22.408 566.632 21.576V20.808L565.368 20.856ZM570.225 19.848C570.225 18.6 570.347 17.5387 570.593 16.664C570.849 15.7787 571.238 15.0747 571.761 14.552C572.294 14.0187 572.977 13.6613 573.809 13.48C574.502 13.3307 575.179 13.1973 575.841 13.08C576.502 12.9627 577.121 12.856 577.697 12.76L577.937 13.992C577.659 14.0347 577.35 14.088 577.009 14.152C576.667 14.2053 576.321 14.264 575.969 14.328C575.617 14.3813 575.275 14.44 574.945 14.504C574.625 14.5573 574.342 14.6107 574.097 14.664C573.745 14.7387 573.43 14.8667 573.153 15.048C572.875 15.2187 572.635 15.4533 572.433 15.752C572.241 16.0507 572.086 16.4187 571.969 16.856C571.851 17.2933 571.782 17.8107 571.761 18.408H571.857C572.006 18.2053 572.209 17.9973 572.465 17.784C572.731 17.5707 573.046 17.3893 573.409 17.24C573.782 17.0907 574.203 17.016 574.673 17.016C575.419 17.016 576.038 17.1813 576.529 17.512C577.03 17.832 577.403 18.28 577.649 18.856C577.905 19.432 578.033 20.104 578.033 20.872C578.033 21.8213 577.867 22.616 577.536 23.256C577.206 23.896 576.747 24.376 576.161 24.696C575.574 25.0053 574.891 25.16 574.113 25.16C573.526 25.16 572.993 25.048 572.513 24.824C572.033 24.5893 571.622 24.248 571.281 23.8C570.939 23.352 570.678 22.7973 570.497 22.136C570.315 21.4747 570.225 20.712 570.225 19.848ZM574.225 23.992C574.694 23.992 575.099 23.896 575.441 23.704C575.793 23.512 576.065 23.1973 576.257 22.76C576.449 22.3227 576.545 21.7413 576.545 21.016C576.545 20.1413 576.379 19.4533 576.049 18.952C575.729 18.44 575.195 18.184 574.449 18.184C573.979 18.184 573.553 18.2907 573.169 18.504C572.785 18.7067 572.465 18.9413 572.209 19.208C571.953 19.4747 571.771 19.6987 571.664 19.88C571.664 20.4027 571.702 20.9093 571.777 21.4C571.851 21.8907 571.979 22.3333 572.161 22.728C572.353 23.112 572.614 23.4213 572.945 23.656C573.286 23.88 573.713 23.992 574.225 23.992ZM587.707 20.696C587.707 21.4107 587.611 22.0453 587.419 22.6C587.237 23.144 586.971 23.608 586.619 23.992C586.277 24.376 585.856 24.6693 585.355 24.872C584.864 25.064 584.315 25.16 583.707 25.16C583.141 25.16 582.619 25.064 582.139 24.872C581.659 24.6693 581.243 24.376 580.891 23.992C580.539 23.608 580.261 23.144 580.059 22.6C579.867 22.0453 579.771 21.4107 579.771 20.696C579.771 19.7467 579.931 18.9467 580.251 18.296C580.571 17.6347 581.029 17.1333 581.627 16.792C582.224 16.44 582.933 16.264 583.755 16.264C584.533 16.264 585.216 16.44 585.803 16.792C586.4 17.1333 586.864 17.6347 587.195 18.296C587.536 18.9467 587.707 19.7467 587.707 20.696ZM581.227 20.696C581.227 21.368 581.312 21.9547 581.483 22.456C581.664 22.9467 581.941 23.3253 582.315 23.592C582.688 23.8587 583.163 23.992 583.739 23.992C584.315 23.992 584.789 23.8587 585.163 23.592C585.536 23.3253 585.808 22.9467 585.979 22.456C586.16 21.9547 586.251 21.368 586.251 20.696C586.251 20.0133 586.16 19.432 585.979 18.952C585.797 18.472 585.52 18.104 585.147 17.848C584.784 17.5813 584.309 17.448 583.723 17.448C582.848 17.448 582.213 17.736 581.819 18.312C581.424 18.888 581.227 19.6827 581.227 20.696ZM595.702 17.608H592.902V25H591.51V17.608H588.742V16.424H595.702V17.608ZM602.463 16.424H603.999L600.335 20.552L604.303 25H602.671L598.799 20.648V25H597.391V16.424H598.799V20.584L602.463 16.424ZM609.108 16.28C610.153 16.28 610.927 16.5093 611.428 16.968C611.929 17.4267 612.18 18.1573 612.18 19.16V25H611.156L610.884 23.784H610.82C610.575 24.0933 610.319 24.3547 610.052 24.568C609.796 24.7707 609.497 24.92 609.156 25.016C608.825 25.112 608.42 25.16 607.94 25.16C607.428 25.16 606.964 25.0693 606.548 24.888C606.143 24.7067 605.823 24.4293 605.588 24.056C605.353 23.672 605.236 23.192 605.236 22.616C605.236 21.7627 605.572 21.1067 606.244 20.648C606.916 20.1787 607.951 19.9227 609.348 19.88L610.804 19.832V19.32C610.804 18.6053 610.649 18.1093 610.34 17.832C610.031 17.5547 609.593 17.416 609.028 17.416C608.58 17.416 608.153 17.4853 607.748 17.624C607.343 17.752 606.964 17.9013 606.612 18.072L606.18 17.016C606.553 16.8133 606.996 16.6427 607.508 16.504C608.02 16.3547 608.553 16.28 609.108 16.28ZM609.524 20.856C608.457 20.8987 607.716 21.0693 607.3 21.368C606.895 21.6667 606.692 22.088 606.692 22.632C606.692 23.112 606.836 23.464 607.124 23.688C607.423 23.912 607.801 24.024 608.26 24.024C608.985 24.024 609.588 23.8267 610.068 23.432C610.548 23.0267 610.788 22.408 610.788 21.576V20.808L609.524 20.856Z" fill="#0A0A0A"/>
<rect x="99.1259" y="100.589" width="689.313" height="64.8874" rx="12.725" stroke="#1F1F1F" stroke-width="0.841565"/>
<path fill-rule="evenodd" clip-rule="evenodd" d="M142.028 117.299C141.914 117.299 141.804 117.345 141.723 117.426C141.641 117.507 141.596 117.617 141.596 117.732V148.882C141.596 149.12 141.79 149.314 142.028 149.314H164.526C164.64 149.314 164.75 149.269 164.832 149.187C164.913 149.106 164.958 148.996 164.958 148.882V117.732C164.958 117.617 164.913 117.507 164.832 117.426C164.75 117.345 164.64 117.299 164.526 117.299H142.028ZM139 117.732C139 116.058 140.355 114.703 142.028 114.703H164.526C166.199 114.703 167.554 116.058 167.554 117.732V148.882C167.554 149.685 167.235 150.455 166.667 151.023C166.099 151.591 165.329 151.91 164.526 151.91H142.028C141.225 151.91 140.455 151.591 139.887 151.023C139.319 150.455 139 149.685 139 148.882V117.732Z" fill="#EDEDED" stroke="black"/>
<path d="M160.2 122.922C160.659 122.922 161.099 122.74 161.424 122.415C161.748 122.091 161.931 121.65 161.931 121.191C161.931 120.733 161.748 120.292 161.424 119.968C161.099 119.643 160.659 119.461 160.2 119.461C159.741 119.461 159.301 119.643 158.976 119.968C158.652 120.292 158.469 120.733 158.469 121.191C158.469 121.65 158.652 122.091 158.976 122.415C159.301 122.74 159.741 122.922 160.2 122.922ZM146.356 122.922C146.815 122.922 147.255 122.74 147.579 122.415C147.904 122.091 148.086 121.65 148.086 121.191C148.086 120.733 147.904 120.292 147.579 119.968C147.255 119.643 146.815 119.461 146.356 119.461C145.897 119.461 145.456 119.643 145.132 119.968C144.807 120.292 144.625 120.733 144.625 121.191C144.625 121.65 144.807 122.091 145.132 122.415C145.456 122.74 145.897 122.922 146.356 122.922ZM160.2 147.15C160.659 147.15 161.099 146.967 161.424 146.643C161.748 146.318 161.931 145.878 161.931 145.419C161.931 144.96 161.748 144.52 161.424 144.196C161.099 143.871 160.659 143.689 160.2 143.689C159.741 143.689 159.301 143.871 158.976 144.196C158.652 144.52 158.469 144.96 158.469 145.419C158.469 145.878 158.652 146.318 158.976 146.643C159.301 146.967 159.741 147.15 160.2 147.15ZM146.356 147.15C146.815 147.15 147.255 146.967 147.579 146.643C147.904 146.318 148.086 145.878 148.086 145.419C148.086 144.96 147.904 144.52 147.579 144.196C147.255 143.871 146.815 143.689 146.356 143.689C145.897 143.689 145.456 143.871 145.132 144.196C144.807 144.52 144.625 144.96 144.625 145.419C144.625 145.878 144.807 146.318 145.132 146.643C145.456 146.967 145.897 147.15 146.356 147.15Z" fill="#EDEDED" stroke="black"/>
<path fill-rule="evenodd" clip-rule="evenodd" d="M145.057 131.576C145.057 129.95 145.539 128.361 146.442 127.009C147.345 125.657 148.629 124.603 150.131 123.981C151.633 123.359 153.286 123.196 154.88 123.513C156.475 123.831 157.94 124.613 159.089 125.763C160.239 126.913 161.022 128.377 161.339 129.972C161.656 131.566 161.493 133.219 160.871 134.721C160.249 136.223 159.195 137.507 157.844 138.41C156.492 139.314 154.903 139.796 153.277 139.796C152.933 139.796 152.602 139.659 152.359 139.416C152.116 139.172 151.979 138.842 151.979 138.498C151.979 138.154 152.116 137.823 152.359 137.58C152.602 137.337 152.933 137.2 153.277 137.2C154.389 137.2 155.477 136.87 156.401 136.252C157.326 135.634 158.047 134.756 158.473 133.728C158.899 132.7 159.01 131.569 158.793 130.478C158.576 129.387 158.04 128.385 157.254 127.599C156.467 126.812 155.465 126.276 154.374 126.059C153.283 125.842 152.152 125.954 151.124 126.379C150.097 126.805 149.218 127.526 148.6 128.451C147.982 129.376 147.652 130.463 147.652 131.576C147.652 131.92 147.516 132.25 147.272 132.493C147.029 132.737 146.699 132.874 146.355 132.874C146.01 132.874 145.68 132.737 145.437 132.493C145.193 132.25 145.057 131.92 145.057 131.576Z" fill="#EDEDED" stroke="black"/>
<path fill-rule="evenodd" clip-rule="evenodd" d="M154.193 130.657C154.436 130.9 154.572 131.23 154.572 131.574C154.572 131.918 154.436 132.248 154.193 132.491L149.001 137.683C148.755 137.912 148.43 138.037 148.093 138.031C147.757 138.025 147.436 137.889 147.199 137.651C146.961 137.413 146.824 137.093 146.819 136.756C146.813 136.42 146.937 136.095 147.167 135.849L152.358 130.657C152.602 130.414 152.932 130.277 153.276 130.277C153.62 130.277 153.949 130.414 154.193 130.657Z" fill="#EDEDED" stroke="black"/>
<g clip-path="url(#clip0_1031_57439)">
<mask id="mask0_1031_57439" style="mask-type:luminance" maskUnits="userSpaceOnUse" x="183" y="114" width="38" height="39">
<path d="M183.983 115.232V151.383H220.135V115.232H183.983Z" fill="white" stroke="white" stroke-width="1.68313"/>
</mask>
<g mask="url(#mask0_1031_57439)">
<path fill-rule="evenodd" clip-rule="evenodd" d="M198.67 146.298C198.67 149.106 200.946 151.382 203.754 151.382H215.051C217.859 151.382 220.135 149.106 220.135 146.298V120.314C220.135 117.507 217.859 115.23 215.051 115.23L203.754 115.23C200.946 115.23 198.67 117.507 198.67 120.314V146.298ZM203.754 147.993C202.818 147.993 202.059 147.234 202.059 146.298V120.314C202.059 119.378 202.818 118.62 203.754 118.62H215.051C215.987 118.62 216.746 119.378 216.746 120.314V146.298C216.746 147.234 215.987 147.993 215.051 147.993H203.754Z" fill="#00B6CC"/>
<path d="M190.763 147.993H189.068C188.132 147.993 187.374 147.234 187.374 146.298V143.474H183.984V146.298C183.984 149.106 186.26 151.382 189.068 151.382H190.763V147.993Z" fill="#00B6CC"/>
<path d="M197.541 147.993H193.022V151.382H197.541V147.993Z" fill="#00B6CC"/>
<path d="M193.022 115.23H197.541V118.62H193.022V115.23Z" fill="#00B6CC"/>
<path d="M187.374 123.139V120.314C187.374 119.379 188.132 118.62 189.068 118.62H190.763V115.231L189.068 115.231C186.261 115.231 183.984 117.507 183.984 120.314L183.984 123.139H187.374Z" fill="#00B6CC"/>
<path d="M187.374 134.436V141.214H183.984L183.984 134.436H187.374Z" fill="#00B6CC"/>
<path d="M187.374 132.176V125.398H183.984L183.984 132.176H187.374Z" fill="#00B6CC"/>
</g>
</g>
<line x1="253.629" y1="115.256" x2="253.423" y2="151.363" stroke="#888888" stroke-width="0.841565"/>
<path d="M322.039 132.825C321.957 132.733 320.003 130.567 316.829 128.374C311.997 125.036 307.389 123.815 303.886 123.912C298.855 123.992 294.366 126.371 291.467 128.374C288.293 130.567 286.338 132.733 286.257 132.825C286.138 132.957 286.072 133.129 286.072 133.307C286.072 133.485 286.138 133.657 286.257 133.789C286.338 133.88 288.293 136.047 291.467 138.24C295.203 140.821 299.644 142.706 304.148 142.706C308.653 142.706 313.093 140.821 316.829 138.24C320.003 136.047 321.958 133.88 322.039 133.789C322.158 133.657 322.224 133.485 322.224 133.307C322.224 133.129 322.158 132.957 322.039 132.825ZM312.101 133.307C312.101 137.617 308.654 141.138 304.372 141.257C304.071 141.261 304.225 141.261 303.924 141.257C299.642 141.138 296.195 137.618 296.195 133.307C296.195 128.925 299.76 125.354 304.148 125.354C308.53 125.354 312.101 128.918 312.101 133.307ZM287.796 133.307C290.36 130.721 293.819 128.222 297.403 126.768C293.861 130.42 293.866 136.198 297.403 139.846C293.858 138.407 290.404 135.935 287.796 133.307ZM310.893 139.846C314.435 136.194 314.43 130.416 310.893 126.768C314.438 128.207 317.891 130.679 320.5 133.307C317.936 135.893 314.476 138.392 310.893 139.846Z" fill="#888888"/>
<g filter="url(#filter0_f_1031_57439)">
<path d="M304.15 128.191C306.972 128.191 309.266 130.485 309.266 133.307C309.266 136.128 306.972 138.422 304.15 138.422C301.329 138.422 299.035 136.128 299.035 133.307C299.035 130.485 301.329 128.191 304.15 128.191ZM304.15 132.638C303.783 132.638 303.481 132.939 303.481 133.307C303.482 133.674 303.783 133.976 304.15 133.976C304.518 133.976 304.819 133.674 304.819 133.307C304.819 132.939 304.518 132.638 304.15 132.638Z" stroke="#00D5FF" stroke-opacity="0.88" stroke-width="3"/>
</g>
<g filter="url(#filter1_f_1031_57439)">
<path d="M300.535 133.307C300.535 135.3 302.157 136.922 304.15 136.922C306.144 136.922 307.765 135.3 307.765 133.307C307.765 131.313 306.144 129.691 304.15 129.691C302.157 129.691 300.535 131.313 300.535 133.307ZM306.319 133.307C306.319 134.503 305.346 135.476 304.15 135.476C302.954 135.476 301.981 134.503 301.981 133.307C301.981 132.11 302.954 131.137 304.15 131.137C305.346 131.137 306.319 132.11 306.319 133.307Z" fill="#888888"/>
<path d="M304.15 128.191C306.972 128.191 309.266 130.485 309.266 133.307C309.266 136.128 306.972 138.422 304.15 138.422C301.329 138.422 299.035 136.128 299.035 133.307C299.035 130.485 301.329 128.191 304.15 128.191ZM304.15 132.638C303.783 132.638 303.481 132.939 303.481 133.307C303.482 133.674 303.783 133.976 304.15 133.976C304.518 133.976 304.819 133.674 304.819 133.307C304.819 132.939 304.518 132.638 304.15 132.638Z" stroke="#09FF15" stroke-width="3"/>
</g>
<path d="M300.535 133.307C300.535 135.3 302.157 136.922 304.15 136.922C306.144 136.922 307.765 135.3 307.765 133.307C307.765 131.313 306.144 129.691 304.15 129.691C302.157 129.691 300.535 131.313 300.535 133.307ZM306.319 133.307C306.319 134.503 305.346 135.476 304.15 135.476C302.954 135.476 301.981 134.503 301.981 133.307C301.981 132.11 302.954 131.137 304.15 131.137C305.346 131.137 306.319 132.11 306.319 133.307Z" fill="#F8F2F2"/>
<mask id="path-23-inside-1_1031_57439" fill="white">
<path d="M341.947 129.995V134.141H347.741C348.177 134.141 348.596 134.315 348.904 134.623C349.213 134.932 349.386 135.35 349.386 135.787C349.386 136.223 349.213 136.642 348.904 136.95C348.596 137.259 348.177 137.432 347.741 137.432H341.947V141.58H350.222C350.658 141.58 351.077 141.754 351.385 142.062C351.694 142.371 351.867 142.789 351.867 143.226C351.867 143.662 351.694 144.081 351.385 144.389C351.077 144.698 350.658 144.871 350.222 144.871H340.302C339.865 144.871 339.447 144.698 339.138 144.389C338.83 144.081 338.656 143.662 338.656 143.226V128.35C338.656 127.913 338.83 127.495 339.138 127.186C339.447 126.878 339.865 126.704 340.302 126.704H350.222C350.658 126.704 351.077 126.878 351.385 127.186C351.694 127.495 351.867 127.913 351.867 128.35C351.867 128.786 351.694 129.205 351.385 129.513C351.077 129.822 350.658 129.995 350.222 129.995H341.947ZM360.14 131.662H355.182C354.746 131.662 354.327 131.836 354.019 132.144C353.71 132.453 353.537 132.871 353.537 133.308C353.537 133.744 353.71 134.163 354.019 134.471C354.327 134.78 354.746 134.953 355.182 134.953H360.14C360.576 134.953 360.995 134.78 361.303 134.471C361.612 134.163 361.785 133.744 361.785 133.308C361.785 132.871 361.612 132.453 361.303 132.144C360.995 131.836 360.576 131.662 360.14 131.662ZM360.14 136.62H355.182C354.746 136.62 354.327 136.794 354.019 137.102C353.71 137.411 353.537 137.829 353.537 138.266C353.537 138.702 353.71 139.121 354.019 139.429C354.327 139.738 354.746 139.911 355.182 139.911H360.14C360.576 139.911 360.995 139.738 361.303 139.429C361.612 139.121 361.785 138.702 361.785 138.266C361.785 137.829 361.612 137.411 361.303 137.102C360.995 136.794 360.576 136.62 360.14 136.62ZM375.496 126.773C375.159 126.671 374.797 126.68 374.466 126.8C374.134 126.919 373.849 127.142 373.653 127.435L370.06 132.821L366.469 127.435C366.273 127.141 365.988 126.918 365.655 126.799C365.323 126.68 364.961 126.671 364.623 126.773C364.285 126.875 363.989 127.084 363.779 127.367C363.568 127.651 363.455 127.995 363.455 128.348V143.226C363.455 143.662 363.628 144.081 363.937 144.389C364.245 144.698 364.664 144.871 365.1 144.871C365.536 144.871 365.955 144.698 366.263 144.389C366.572 144.081 366.745 143.662 366.745 143.226V133.782L368.691 136.699C369.303 137.619 370.819 137.619 371.429 136.699L373.375 133.782V143.226C373.375 143.662 373.548 144.081 373.857 144.389C374.165 144.698 374.584 144.871 375.02 144.871C375.457 144.871 375.875 144.698 376.184 144.389C376.492 144.081 376.666 143.662 376.666 143.226V128.35C376.666 127.997 376.552 127.653 376.341 127.369C376.131 127.085 375.834 126.877 375.496 126.775V126.773ZM383.701 126.702C382.278 126.703 380.914 127.269 379.908 128.275C378.902 129.281 378.336 130.645 378.335 132.068V139.507C378.337 140.93 378.903 142.293 379.909 143.299C380.915 144.305 382.279 144.87 383.701 144.871C385.123 144.869 386.486 144.304 387.492 143.298C388.497 142.293 389.063 140.929 389.065 139.507V138.268C389.065 137.832 388.891 137.413 388.583 137.104C388.274 136.796 387.856 136.623 387.419 136.623C386.983 136.623 386.565 136.796 386.256 137.104C385.947 137.413 385.774 137.832 385.774 138.268V139.507C385.757 140.046 385.53 140.556 385.143 140.931C384.756 141.306 384.239 141.515 383.7 141.515C383.161 141.515 382.644 141.306 382.256 140.931C381.869 140.556 381.643 140.046 381.626 139.507V132.068C381.643 131.53 381.869 131.019 382.256 130.645C382.644 130.27 383.161 130.06 383.7 130.06C384.239 130.06 384.756 130.27 385.143 130.645C385.53 131.019 385.757 131.53 385.774 132.068V133.308C385.774 133.744 385.947 134.163 386.256 134.471C386.565 134.78 386.983 134.953 387.419 134.953C387.856 134.953 388.274 134.78 388.583 134.471C388.891 134.163 389.065 133.744 389.065 133.308V132.068C389.064 130.646 388.498 129.282 387.493 128.276C386.487 127.27 385.123 126.704 383.701 126.702ZM397.34 134.144H395.453L397.333 131.325C398.415 129.701 398.985 127.815 398.985 125.866C398.985 123.594 397.133 121.742 394.861 121.742C392.588 121.742 390.736 123.594 390.736 125.866C390.736 126.303 390.91 126.721 391.218 127.03C391.527 127.338 391.945 127.512 392.382 127.512C392.818 127.512 393.237 127.338 393.545 127.03C393.854 126.721 394.027 126.303 394.027 125.866C394.027 125.645 394.115 125.433 394.271 125.277C394.428 125.121 394.64 125.033 394.861 125.033C395.082 125.033 395.294 125.121 395.45 125.277C395.606 125.433 395.694 125.645 395.694 125.866C395.694 127.163 395.315 128.418 394.595 129.499L391.011 134.874C390.844 135.122 390.748 135.41 390.733 135.708C390.718 136.006 390.784 136.303 390.925 136.566C391.066 136.829 391.276 137.049 391.532 137.202C391.788 137.355 392.081 137.435 392.38 137.434H397.34C397.776 137.434 398.195 137.261 398.503 136.952C398.812 136.644 398.985 136.225 398.985 135.789C398.985 135.353 398.812 134.934 398.503 134.625C398.195 134.317 397.776 134.144 397.34 134.144Z"/>
</mask>
<path d="M341.947 129.995V134.141H347.741C348.177 134.141 348.596 134.315 348.904 134.623C349.213 134.932 349.386 135.35 349.386 135.787C349.386 136.223 349.213 136.642 348.904 136.95C348.596 137.259 348.177 137.432 347.741 137.432H341.947V141.58H350.222C350.658 141.58 351.077 141.754 351.385 142.062C351.694 142.371 351.867 142.789 351.867 143.226C351.867 143.662 351.694 144.081 351.385 144.389C351.077 144.698 350.658 144.871 350.222 144.871H340.302C339.865 144.871 339.447 144.698 339.138 144.389C338.83 144.081 338.656 143.662 338.656 143.226V128.35C338.656 127.913 338.83 127.495 339.138 127.186C339.447 126.878 339.865 126.704 340.302 126.704H350.222C350.658 126.704 351.077 126.878 351.385 127.186C351.694 127.495 351.867 127.913 351.867 128.35C351.867 128.786 351.694 129.205 351.385 129.513C351.077 129.822 350.658 129.995 350.222 129.995H341.947ZM360.14 131.662H355.182C354.746 131.662 354.327 131.836 354.019 132.144C353.71 132.453 353.537 132.871 353.537 133.308C353.537 133.744 353.71 134.163 354.019 134.471C354.327 134.78 354.746 134.953 355.182 134.953H360.14C360.576 134.953 360.995 134.78 361.303 134.471C361.612 134.163 361.785 133.744 361.785 133.308C361.785 132.871 361.612 132.453 361.303 132.144C360.995 131.836 360.576 131.662 360.14 131.662ZM360.14 136.62H355.182C354.746 136.62 354.327 136.794 354.019 137.102C353.71 137.411 353.537 137.829 353.537 138.266C353.537 138.702 353.71 139.121 354.019 139.429C354.327 139.738 354.746 139.911 355.182 139.911H360.14C360.576 139.911 360.995 139.738 361.303 139.429C361.612 139.121 361.785 138.702 361.785 138.266C361.785 137.829 361.612 137.411 361.303 137.102C360.995 136.794 360.576 136.62 360.14 136.62ZM375.496 126.773C375.159 126.671 374.797 126.68 374.466 126.8C374.134 126.919 373.849 127.142 373.653 127.435L370.06 132.821L366.469 127.435C366.273 127.141 365.988 126.918 365.655 126.799C365.323 126.68 364.961 126.671 364.623 126.773C364.285 126.875 363.989 127.084 363.779 127.367C363.568 127.651 363.455 127.995 363.455 128.348V143.226C363.455 143.662 363.628 144.081 363.937 144.389C364.245 144.698 364.664 144.871 365.1 144.871C365.536 144.871 365.955 144.698 366.263 144.389C366.572 144.081 366.745 143.662 366.745 143.226V133.782L368.691 136.699C369.303 137.619 370.819 137.619 371.429 136.699L373.375 133.782V143.226C373.375 143.662 373.548 144.081 373.857 144.389C374.165 144.698 374.584 144.871 375.02 144.871C375.457 144.871 375.875 144.698 376.184 144.389C376.492 144.081 376.666 143.662 376.666 143.226V128.35C376.666 127.997 376.552 127.653 376.341 127.369C376.131 127.085 375.834 126.877 375.496 126.775V126.773ZM383.701 126.702C382.278 126.703 380.914 127.269 379.908 128.275C378.902 129.281 378.336 130.645 378.335 132.068V139.507C378.337 140.93 378.903 142.293 379.909 143.299C380.915 144.305 382.279 144.87 383.701 144.871C385.123 144.869 386.486 144.304 387.492 143.298C388.497 142.293 389.063 140.929 389.065 139.507V138.268C389.065 137.832 388.891 137.413 388.583 137.104C388.274 136.796 387.856 136.623 387.419 136.623C386.983 136.623 386.565 136.796 386.256 137.104C385.947 137.413 385.774 137.832 385.774 138.268V139.507C385.757 140.046 385.53 140.556 385.143 140.931C384.756 141.306 384.239 141.515 383.7 141.515C383.161 141.515 382.644 141.306 382.256 140.931C381.869 140.556 381.643 140.046 381.626 139.507V132.068C381.643 131.53 381.869 131.019 382.256 130.645C382.644 130.27 383.161 130.06 383.7 130.06C384.239 130.06 384.756 130.27 385.143 130.645C385.53 131.019 385.757 131.53 385.774 132.068V133.308C385.774 133.744 385.947 134.163 386.256 134.471C386.565 134.78 386.983 134.953 387.419 134.953C387.856 134.953 388.274 134.78 388.583 134.471C388.891 134.163 389.065 133.744 389.065 133.308V132.068C389.064 130.646 388.498 129.282 387.493 128.276C386.487 127.27 385.123 126.704 383.701 126.702ZM397.34 134.144H395.453L397.333 131.325C398.415 129.701 398.985 127.815 398.985 125.866C398.985 123.594 397.133 121.742 394.861 121.742C392.588 121.742 390.736 123.594 390.736 125.866C390.736 126.303 390.91 126.721 391.218 127.03C391.527 127.338 391.945 127.512 392.382 127.512C392.818 127.512 393.237 127.338 393.545 127.03C393.854 126.721 394.027 126.303 394.027 125.866C394.027 125.645 394.115 125.433 394.271 125.277C394.428 125.121 394.64 125.033 394.861 125.033C395.082 125.033 395.294 125.121 395.45 125.277C395.606 125.433 395.694 125.645 395.694 125.866C395.694 127.163 395.315 128.418 394.595 129.499L391.011 134.874C390.844 135.122 390.748 135.41 390.733 135.708C390.718 136.006 390.784 136.303 390.925 136.566C391.066 136.829 391.276 137.049 391.532 137.202C391.788 137.355 392.081 137.435 392.38 137.434H397.34C397.776 137.434 398.195 137.261 398.503 136.952C398.812 136.644 398.985 136.225 398.985 135.789C398.985 135.353 398.812 134.934 398.503 134.625C398.195 134.317 397.776 134.144 397.34 134.144Z" fill="#888888" stroke="#A1A1A1" stroke-width="1.3465" mask="url(#path-23-inside-1_1031_57439)"/>
<line x1="432.475" y1="115.256" x2="432.27" y2="151.363" stroke="#888888" stroke-width="0.841565"/>
<path d="M479.106 129.788H490.478L478.163 149.983V136.828H466.793L479.106 116.633V129.788Z" stroke="#FF6600" stroke-width="2.10391"/>
<g filter="url(#filter2_f_1031_57439)">
<mask id="path-26-outside-2_1031_57439" maskUnits="userSpaceOnUse" x="490.783" y="92.8867" width="78" height="67" fill="black">
<rect fill="white" x="490.783" y="92.8867" width="78" height="67"/>
<path d="M550.514 149.026L520.576 149.039L523.883 143.154C524.706 141.688 526.255 140.779 527.937 140.775L545.728 140.737L550.514 149.026ZM527.185 128.899C528.042 130.346 528.054 132.143 527.217 133.601L518.354 149.026H508.783L523.741 123.094L527.185 128.899ZM527.94 142.09C526.733 142.092 525.621 142.745 525.029 143.798L522.823 147.724L548.237 147.713L544.971 142.055L527.94 142.09ZM511.06 147.712H517.593L526.077 132.945C526.678 131.899 526.669 130.609 526.054 129.57L523.757 125.697L511.06 147.712ZM544.663 138.787L537.913 138.875C536.232 138.897 534.67 138.012 533.824 136.559L524.874 121.183L529.648 112.887L544.663 138.787ZM526.394 121.178L534.959 135.897C535.566 136.941 536.689 137.576 537.896 137.561L542.398 137.502L529.652 115.515L526.394 121.178Z"/>
</mask>
<path d="M550.514 149.026L550.518 159.026L567.831 159.019L559.174 144.026L550.514 149.026ZM520.576 149.039L511.858 144.14L503.483 159.046L520.58 159.039L520.576 149.039ZM523.883 143.154L532.601 148.053L532.601 148.052L523.883 143.154ZM527.937 140.775L527.915 130.775L527.914 130.775L527.937 140.775ZM545.728 140.737L554.388 135.737L551.494 130.725L545.706 130.737L545.728 140.737ZM527.185 128.899L535.786 123.798L535.786 123.798L527.185 128.899ZM527.217 133.601L535.887 138.583L535.888 138.582L527.217 133.601ZM518.354 149.026V159.026H524.141L527.024 154.008L518.354 149.026ZM508.783 149.026L500.121 144.03L491.471 159.026H508.783V149.026ZM523.741 123.094L532.342 117.992L523.621 103.288L515.079 118.097L523.741 123.094ZM527.94 142.09L527.92 132.09L527.919 132.09L527.94 142.09ZM525.029 143.798L533.747 148.697L533.747 148.696L525.029 143.798ZM522.823 147.724L514.105 142.825L505.729 157.731L522.827 157.724L522.823 147.724ZM548.237 147.713L548.242 157.713L565.553 157.706L556.898 142.713L548.237 147.713ZM544.971 142.055L553.631 137.055L550.737 132.043L544.95 132.055L544.971 142.055ZM511.06 147.712L502.397 142.716L493.748 157.712H511.06V147.712ZM517.593 147.712V157.712H523.38L526.263 152.694L517.593 147.712ZM526.077 132.945L534.748 137.927L534.749 137.926L526.077 132.945ZM526.054 129.57L517.452 134.671L517.452 134.671L526.054 129.57ZM523.757 125.697L532.358 120.596L523.637 105.89L515.094 120.701L523.757 125.697ZM544.663 138.787L544.793 148.786L561.889 148.564L553.314 133.772L544.663 138.787ZM537.913 138.875L538.043 148.874L538.043 148.874L537.913 138.875ZM533.824 136.559L525.182 141.589L525.182 141.59L533.824 136.559ZM524.874 121.183L516.207 116.195L513.32 121.211L516.232 126.213L524.874 121.183ZM529.648 112.887L538.3 107.871L529.617 92.8935L520.981 107.899L529.648 112.887ZM526.394 121.178L517.726 116.19L514.84 121.206L517.75 126.207L526.394 121.178ZM534.959 135.897L526.316 140.927L526.316 140.928L534.959 135.897ZM537.896 137.561L537.766 127.561L537.766 127.561L537.896 137.561ZM542.398 137.502L542.529 147.501L559.625 147.279L551.05 132.487L542.398 137.502ZM529.652 115.515L538.304 110.499L529.62 95.5204L520.985 110.527L529.652 115.515ZM550.514 149.026L550.509 139.026L520.572 139.039L520.576 149.039L520.58 159.039L550.518 159.026L550.514 149.026ZM520.576 149.039L529.294 153.938L532.601 148.053L523.883 143.154L515.165 138.256L511.858 144.14L520.576 149.039ZM523.883 143.154L532.601 148.052C531.659 149.729 529.886 150.771 527.959 150.775L527.937 140.775L527.914 130.775C522.624 130.787 517.754 133.648 515.164 138.256L523.883 143.154ZM527.937 140.775L527.958 150.775L545.749 150.737L545.728 140.737L545.706 130.737L527.915 130.775L527.937 140.775ZM545.728 140.737L537.067 145.738L541.854 154.027L550.514 149.026L559.174 144.026L554.388 135.737L545.728 140.737ZM527.185 128.899L518.583 134.001C517.6 132.343 517.588 130.287 518.546 128.619L527.217 133.601L535.888 138.582C538.521 133.998 538.484 128.348 535.786 123.798L527.185 128.899ZM527.217 133.601L518.546 128.619L509.683 144.044L518.354 149.026L527.024 154.008L535.887 138.583L527.217 133.601ZM518.354 149.026V139.026H508.783V149.026V159.026H518.354V149.026ZM508.783 149.026L517.446 154.023L532.404 128.09L523.741 123.094L515.079 118.097L500.121 144.03L508.783 149.026ZM523.741 123.094L515.14 128.195L518.584 134.001L527.185 128.899L535.786 123.798L532.342 117.992L523.741 123.094ZM527.94 142.09L527.919 132.09C523.103 132.1 518.668 134.704 516.311 138.899L525.029 143.798L533.747 148.696C532.573 150.786 530.363 152.085 527.962 152.09L527.94 142.09ZM525.029 143.798L516.311 138.899L514.105 142.825L522.823 147.724L531.541 152.623L533.747 148.697L525.029 143.798ZM522.823 147.724L522.827 157.724L548.242 157.713L548.237 147.713L548.233 137.713L522.819 137.724L522.823 147.724ZM548.237 147.713L556.898 142.713L553.631 137.055L544.971 142.055L536.31 147.055L539.577 152.713L548.237 147.713ZM544.971 142.055L544.95 132.055L527.92 132.09L527.94 142.09L527.961 152.09L544.991 152.055L544.971 142.055ZM511.06 147.712V157.712H517.593V147.712V137.712H511.06V147.712ZM517.593 147.712L526.263 152.694L534.748 137.927L526.077 132.945L517.406 127.963L508.922 142.73L517.593 147.712ZM526.077 132.945L534.749 137.926C537.146 133.752 537.111 128.61 534.655 124.469L526.054 129.57L517.452 134.671C516.228 132.607 516.211 130.045 517.406 127.965L526.077 132.945ZM526.054 129.57L534.655 124.469L532.358 120.596L523.757 125.697L515.156 130.798L517.452 134.671L526.054 129.57ZM523.757 125.697L515.094 120.701L502.397 142.716L511.06 147.712L519.722 152.708L532.419 130.693L523.757 125.697ZM544.663 138.787L544.533 128.788L537.783 128.876L537.913 138.875L538.043 148.874L544.793 148.786L544.663 138.787ZM537.913 138.875L537.783 128.876C539.711 128.851 541.499 129.866 542.466 131.528L533.824 136.559L525.182 141.59C527.841 146.157 532.753 148.943 538.043 148.874L537.913 138.875ZM533.824 136.559L542.467 131.528L533.516 116.152L524.874 121.183L516.232 126.213L525.182 141.589L533.824 136.559ZM524.874 121.183L533.541 126.171L538.316 117.875L529.648 112.887L520.981 107.899L516.207 116.195L524.874 121.183ZM529.648 112.887L520.997 117.902L536.012 143.802L544.663 138.787L553.314 133.772L538.3 107.871L529.648 112.887ZM526.394 121.178L517.75 126.207L526.316 140.927L534.959 135.897L543.602 130.868L535.037 116.148L526.394 121.178ZM534.959 135.897L526.316 140.928C528.74 145.092 533.217 147.623 538.027 147.56L537.896 137.561L537.766 127.561C540.162 127.53 542.393 128.79 543.602 130.867L534.959 135.897ZM537.896 137.561L538.027 147.56L542.529 147.501L542.398 137.502L542.268 127.503L537.766 127.561L537.896 137.561ZM542.398 137.502L551.05 132.487L538.304 110.499L529.652 115.515L521.001 120.53L533.747 142.517L542.398 137.502ZM529.652 115.515L520.985 110.527L517.726 116.19L526.394 121.178L535.061 126.165L538.32 120.502L529.652 115.515Z" fill="#FF00E5" mask="url(#path-26-outside-2_1031_57439)"/>
</g>
<g filter="url(#filter3_f_1031_57439)">
<mask id="path-28-outside-3_1031_57439" maskUnits="userSpaceOnUse" x="502.783" y="106.887" width="53" height="46" fill="black">
<rect fill="white" x="502.783" y="106.887" width="53" height="46"/>
<path d="M550.514 149.026L520.576 149.039L523.883 143.154C524.706 141.688 526.255 140.779 527.937 140.775L545.728 140.737L550.514 149.026ZM527.185 128.899C528.042 130.346 528.054 132.143 527.217 133.601L518.354 149.026H508.783L523.741 123.094L527.185 128.899ZM527.94 142.09C526.733 142.092 525.621 142.745 525.029 143.798L522.823 147.724L548.237 147.713L544.971 142.055L527.94 142.09ZM511.06 147.712H517.593L526.077 132.945C526.678 131.899 526.669 130.609 526.054 129.57L523.757 125.697L511.06 147.712ZM544.663 138.787L537.913 138.875C536.232 138.897 534.67 138.012 533.824 136.559L524.874 121.183L529.648 112.887L544.663 138.787ZM526.394 121.178L534.959 135.897C535.566 136.941 536.689 137.576 537.896 137.561L542.398 137.502L529.652 115.515L526.394 121.178Z"/>
</mask>
<path d="M550.514 149.026L520.576 149.039L523.883 143.154C524.706 141.688 526.255 140.779 527.937 140.775L545.728 140.737L550.514 149.026ZM527.185 128.899C528.042 130.346 528.054 132.143 527.217 133.601L518.354 149.026H508.783L523.741 123.094L527.185 128.899ZM527.94 142.09C526.733 142.092 525.621 142.745 525.029 143.798L522.823 147.724L548.237 147.713L544.971 142.055L527.94 142.09ZM511.06 147.712H517.593L526.077 132.945C526.678 131.899 526.669 130.609 526.054 129.57L523.757 125.697L511.06 147.712ZM544.663 138.787L537.913 138.875C536.232 138.897 534.67 138.012 533.824 136.559L524.874 121.183L529.648 112.887L544.663 138.787ZM526.394 121.178L534.959 135.897C535.566 136.941 536.689 137.576 537.896 137.561L542.398 137.502L529.652 115.515L526.394 121.178Z" fill="#FF00E5"/>
<path d="M550.514 149.026L550.515 152.026L555.709 152.024L553.112 147.526L550.514 149.026ZM520.576 149.039L517.961 147.569L515.448 152.041L520.577 152.039L520.576 149.039ZM523.883 143.154L526.498 144.624L526.498 144.624L523.883 143.154ZM527.937 140.775L527.93 137.775H527.93L527.937 140.775ZM545.728 140.737L548.326 139.237L547.457 137.734L545.721 137.737L545.728 140.737ZM527.185 128.899L529.765 127.369L529.765 127.369L527.185 128.899ZM527.217 133.601L529.818 135.095L529.818 135.095L527.217 133.601ZM518.354 149.026V152.026H520.09L520.955 150.521L518.354 149.026ZM508.783 149.026L506.185 147.527L503.59 152.026H508.783V149.026ZM523.741 123.094L526.322 121.563L523.705 117.152L521.143 121.595L523.741 123.094ZM527.94 142.09L527.934 139.09L527.934 139.09L527.94 142.09ZM525.029 143.798L527.645 145.268L527.645 145.267L525.029 143.798ZM522.823 147.724L520.208 146.254L517.695 150.726L522.825 150.724L522.823 147.724ZM548.237 147.713L548.239 150.713L553.432 150.711L550.835 146.213L548.237 147.713ZM544.971 142.055L547.569 140.555L546.701 139.051L544.965 139.055L544.971 142.055ZM511.06 147.712L508.461 146.213L505.866 150.712H511.06V147.712ZM517.593 147.712V150.712H519.329L520.194 149.206L517.593 147.712ZM526.077 132.945L528.678 134.44L528.679 134.44L526.077 132.945ZM526.054 129.57L523.473 131.101L523.473 131.101L526.054 129.57ZM523.757 125.697L526.337 124.167L523.721 119.755L521.158 124.198L523.757 125.697ZM544.663 138.787L544.702 141.787L549.831 141.72L547.259 137.283L544.663 138.787ZM537.913 138.875L537.952 141.875H537.952L537.913 138.875ZM533.824 136.559L531.231 138.068L531.232 138.068L533.824 136.559ZM524.874 121.183L522.274 119.686L521.408 121.191L522.281 122.692L524.874 121.183ZM529.648 112.887L532.244 111.382L529.639 106.889L527.048 111.39L529.648 112.887ZM526.394 121.178L523.793 119.681L522.927 121.186L523.801 122.687L526.394 121.178ZM534.959 135.897L532.366 137.406L532.366 137.407L534.959 135.897ZM537.896 137.561L537.857 134.561L537.857 134.561L537.896 137.561ZM542.398 137.502L542.437 140.502L547.566 140.435L544.994 135.997L542.398 137.502ZM529.652 115.515L532.248 114.01L529.643 109.516L527.052 114.018L529.652 115.515ZM550.514 149.026L550.512 146.026L520.575 146.039L520.576 149.039L520.577 152.039L550.515 152.026L550.514 149.026ZM520.576 149.039L523.192 150.509L526.498 144.624L523.883 143.154L521.267 141.685L517.961 147.569L520.576 149.039ZM523.883 143.154L526.498 144.624C526.792 144.101 527.345 143.777 527.943 143.775L527.937 140.775L527.93 137.775C525.166 137.782 522.62 139.276 521.267 141.685L523.883 143.154ZM527.937 140.775L527.943 143.775L545.734 143.737L545.728 140.737L545.721 137.737L527.93 137.775L527.937 140.775ZM545.728 140.737L543.13 142.237L547.916 150.526L550.514 149.026L553.112 147.526L548.326 139.237L545.728 140.737ZM527.185 128.899L524.604 130.43C524.91 130.945 524.914 131.586 524.615 132.106L527.217 133.601L529.818 135.095C531.194 132.699 531.175 129.746 529.765 127.369L527.185 128.899ZM527.217 133.601L524.616 132.106L515.752 147.532L518.354 149.026L520.955 150.521L529.818 135.095L527.217 133.601ZM518.354 149.026V146.026H508.783V149.026V152.026H518.354V149.026ZM508.783 149.026L511.382 150.525L526.34 124.593L523.741 123.094L521.143 121.595L506.185 147.527L508.783 149.026ZM523.741 123.094L521.161 124.624L524.604 130.43L527.185 128.899L529.765 127.369L526.322 121.563L523.741 123.094ZM527.94 142.09L527.934 139.09C525.644 139.095 523.535 140.333 522.414 142.328L525.029 143.798L527.645 145.267C527.706 145.158 527.822 145.09 527.947 145.09L527.94 142.09ZM525.029 143.798L522.414 142.328L520.208 146.254L522.823 147.724L525.439 149.193L527.645 145.268L525.029 143.798ZM522.823 147.724L522.825 150.724L548.239 150.713L548.237 147.713L548.236 144.713L522.822 144.724L522.823 147.724ZM548.237 147.713L550.835 146.213L547.569 140.555L544.971 142.055L542.373 143.555L545.639 149.213L548.237 147.713ZM544.971 142.055L544.965 139.055L527.934 139.09L527.94 142.09L527.947 145.09L544.977 145.055L544.971 142.055ZM511.06 147.712V150.712H517.593V147.712V144.712H511.06V147.712ZM517.593 147.712L520.194 149.206L528.678 134.44L526.077 132.945L523.476 131.451L514.992 146.217L517.593 147.712ZM526.077 132.945L528.679 134.44C529.819 132.455 529.802 130.009 528.634 128.04L526.054 129.57L523.473 131.101C523.537 131.208 523.538 131.342 523.476 131.451L526.077 132.945ZM526.054 129.57L528.634 128.04L526.337 124.167L523.757 125.697L521.176 127.228L523.473 131.101L526.054 129.57ZM523.757 125.697L521.158 124.198L508.461 146.213L511.06 147.712L513.658 149.211L526.356 127.196L523.757 125.697ZM544.663 138.787L544.624 135.787L537.874 135.875L537.913 138.875L537.952 141.875L544.702 141.787L544.663 138.787ZM537.913 138.875L537.874 135.875C537.276 135.883 536.719 135.568 536.417 135.049L533.824 136.559L531.232 138.068C532.621 140.455 535.188 141.911 537.952 141.875L537.913 138.875ZM533.824 136.559L536.417 135.049L527.467 119.673L524.874 121.183L522.281 122.692L531.231 138.068L533.824 136.559ZM524.874 121.183L527.474 122.679L532.249 114.383L529.648 112.887L527.048 111.39L522.274 119.686L524.874 121.183ZM529.648 112.887L527.053 114.391L542.068 140.292L544.663 138.787L547.259 137.283L532.244 111.382L529.648 112.887ZM526.394 121.178L523.801 122.687L532.366 137.406L534.959 135.897L537.552 134.389L528.987 119.669L526.394 121.178ZM534.959 135.897L532.366 137.407C533.518 139.386 535.648 140.59 537.936 140.56L537.896 137.561L537.857 134.561C537.731 134.562 537.614 134.496 537.552 134.388L534.959 135.897ZM537.896 137.561L537.936 140.56L542.437 140.502L542.398 137.502L542.359 134.502L537.857 134.561L537.896 137.561ZM542.398 137.502L544.994 135.997L532.248 114.01L529.652 115.515L527.057 117.019L539.803 139.007L542.398 137.502ZM529.652 115.515L527.052 114.018L523.793 119.681L526.394 121.178L528.994 122.674L532.253 117.011L529.652 115.515Z" fill="#FF00E5" mask="url(#path-28-outside-3_1031_57439)"/>
</g>
<path d="M550.514 149.026L520.576 149.039L523.883 143.154C524.706 141.688 526.255 140.779 527.937 140.775L545.728 140.737L550.514 149.026ZM527.185 128.899C528.042 130.346 528.054 132.143 527.217 133.601L518.354 149.026H508.783L523.741 123.094L527.185 128.899ZM527.94 142.09C526.733 142.092 525.621 142.745 525.029 143.798L522.823 147.724L548.237 147.713L544.971 142.055L527.94 142.09ZM511.06 147.712H517.593L526.077 132.945C526.678 131.899 526.669 130.609 526.054 129.57L523.757 125.697L511.06 147.712ZM544.663 138.787L537.913 138.875C536.232 138.897 534.67 138.012 533.824 136.559L524.874 121.183L529.648 112.887L544.663 138.787ZM526.394 121.178L534.959 135.897C535.566 136.941 536.689 137.576 537.896 137.561L542.398 137.502L529.652 115.515L526.394 121.178Z" fill="#EDEDED"/>
<line x1="584.004" y1="115.256" x2="583.798" y2="151.363" stroke="#888888" stroke-width="0.841565"/>
<path d="M645.989 115.234H625.005C620.286 115.234 616.447 119.073 616.447 123.792V134.21C616.447 138.55 619.695 142.146 623.889 142.694V150.27C623.888 150.416 623.917 150.561 623.973 150.697C624.029 150.832 624.112 150.955 624.215 151.059C624.319 151.163 624.442 151.245 624.577 151.301C624.713 151.357 624.858 151.386 625.004 151.386C625.295 151.386 625.58 151.273 625.794 151.059L634.086 142.767H645.989C650.708 142.767 654.546 138.928 654.546 134.21V123.792C654.546 119.073 650.708 115.234 645.989 115.234ZM652.314 134.21C652.314 137.697 649.477 140.535 645.989 140.535H633.624C633.328 140.535 633.044 140.652 632.834 140.861L626.121 147.575V141.651C626.121 141.034 625.621 140.535 625.005 140.535C621.517 140.535 618.68 137.697 618.68 134.21V123.792C618.68 120.304 621.517 117.467 625.005 117.467H645.989C649.477 117.467 652.314 120.304 652.314 123.792V134.21Z" fill="#888888"/>
<path d="M641.079 129.458C641.079 127.612 642.581 126.109 644.428 126.109C646.274 126.109 647.776 127.612 647.776 129.458C647.776 131.304 646.274 132.806 644.428 132.806C642.581 132.806 641.079 131.304 641.079 129.458Z" fill="#00B6CC"/>
<path d="M642.994 129.461C642.994 128.67 643.637 128.027 644.428 128.027C645.218 128.027 645.861 128.67 645.861 129.461C645.861 130.251 645.218 130.894 644.428 130.894C643.637 130.894 642.994 130.251 642.994 129.461Z" fill="#A1A1A1"/>
<path d="M626.567 126.109C624.721 126.109 623.219 127.612 623.219 129.458C623.219 131.304 624.721 132.806 626.567 132.806C628.414 132.806 629.916 131.304 629.916 129.458C629.916 127.612 628.414 126.109 626.567 126.109ZM626.567 130.574C625.952 130.574 625.451 130.073 625.451 129.458C625.451 128.842 625.952 128.342 626.567 128.342C627.183 128.342 627.683 128.842 627.683 129.458C627.683 130.073 627.183 130.574 626.567 130.574ZM635.497 126.109C633.65 126.109 632.148 127.612 632.148 129.458C632.148 131.304 633.65 132.806 635.497 132.806C637.343 132.806 638.845 131.304 638.845 129.458C638.845 127.612 637.343 126.109 635.497 126.109ZM635.497 130.574C634.881 130.574 634.381 130.073 634.381 129.458C634.381 128.842 634.881 128.342 635.497 128.342C636.112 128.342 636.613 128.842 636.613 129.458C636.613 130.073 636.112 130.574 635.497 130.574Z" fill="#888888"/>
<path d="M699.98 125.426L690.12 115.565C690.015 115.46 689.89 115.377 689.753 115.32C689.616 115.264 689.469 115.234 689.321 115.234H674.595C672.601 115.234 670.979 116.857 670.979 118.851V147.769C670.979 149.763 672.601 151.386 674.595 151.386H696.694C698.688 151.386 700.311 149.763 700.311 147.769V126.225C700.311 126.076 700.282 125.929 700.225 125.792C700.168 125.655 700.085 125.531 699.98 125.426ZM690.45 119.092L696.454 125.095H690.45V119.092ZM696.694 149.126H674.595C673.847 149.126 673.238 148.517 673.238 147.769V118.851C673.238 118.103 673.847 117.494 674.595 117.494H688.191V126.225C688.191 126.848 688.697 127.354 689.321 127.354H698.051V147.769C698.051 148.517 697.443 149.126 696.694 149.126ZM693.722 134.004C693.722 134.628 693.216 135.134 692.593 135.134H678.697C678.073 135.134 677.567 134.628 677.567 134.004C677.567 133.38 678.073 132.874 678.697 132.874H692.593C693.216 132.874 693.722 133.38 693.722 134.004ZM693.722 141.714C693.722 142.338 693.216 142.844 692.593 142.844H678.697C678.073 142.844 677.567 142.338 677.567 141.714C677.567 141.09 678.073 140.584 678.697 140.584H692.593C693.216 140.584 693.722 141.09 693.722 141.714Z" fill="#888888"/>
<g filter="url(#filter4_f_1031_57439)">
<path d="M747.455 132.857C746.951 132.857 746.549 133.354 746.549 133.975V144.14C746.549 146.905 744.724 149.149 742.489 149.149H722.614C720.373 149.149 718.555 146.897 718.555 144.14V133.809C718.555 133.188 718.152 132.691 717.649 132.691C717.146 132.691 716.743 133.188 716.743 133.809V144.14C716.743 148.139 719.38 151.384 722.614 151.384H742.489C745.73 151.384 748.36 148.131 748.36 144.14V133.975C748.36 133.362 747.958 132.857 747.455 132.857Z" fill="#888888"/>
<path d="M717.865 130.197C720.063 130.324 721.055 132.37 721.055 133.809V144.141C721.055 144.981 721.334 145.669 721.688 146.105C722.037 146.537 722.38 146.648 722.614 146.648H742.489C742.722 146.648 743.066 146.538 743.416 146.106C743.769 145.672 744.049 144.984 744.049 144.141V133.975C744.049 132.489 745.105 130.358 747.454 130.357C749.814 130.357 750.86 132.51 750.86 133.975V144.141C750.86 148.993 747.577 153.884 742.489 153.884H722.614C717.536 153.884 714.243 149.005 714.243 144.141V133.809C714.243 132.323 715.301 130.191 717.649 130.191L717.865 130.197Z" stroke="#4007FB" stroke-width="5"/>
</g>
<g filter="url(#filter5_f_1031_57439)">
<path d="M747.455 132.857C746.951 132.857 746.549 133.354 746.549 133.975V144.14C746.549 146.905 744.724 149.149 742.489 149.149H722.614C720.373 149.149 718.555 146.897 718.555 144.14V133.809C718.555 133.188 718.152 132.691 717.649 132.691C717.146 132.691 716.743 133.188 716.743 133.809V144.14C716.743 148.139 719.38 151.384 722.614 151.384H742.489C745.73 151.384 748.36 148.131 748.36 144.14V133.975C748.36 133.362 747.958 132.857 747.455 132.857Z" fill="#888888"/>
<path d="M717.798 131.195C719.309 131.283 720.055 132.705 720.055 133.809V144.141C720.055 146.38 721.482 147.648 722.614 147.648H742.489C743.618 147.648 745.049 146.385 745.049 144.141V133.975C745.049 132.835 745.844 131.358 747.454 131.357C749.071 131.357 749.86 132.851 749.86 133.975V144.141C749.86 148.648 746.838 152.884 742.489 152.884H722.614C718.274 152.884 715.243 148.659 715.243 144.141V133.809C715.243 132.669 716.039 131.191 717.649 131.191L717.798 131.195Z" stroke="#3003F7" stroke-opacity="0.8" stroke-width="3"/>
</g>
<path d="M747.455 132.857C746.951 132.857 746.549 133.354 746.549 133.975V144.14C746.549 146.905 744.724 149.149 742.489 149.149H722.614C720.373 149.149 718.555 146.897 718.555 144.14V133.809C718.555 133.188 718.152 132.691 717.649 132.691C717.146 132.691 716.743 133.188 716.743 133.809V144.14C716.743 148.139 719.38 151.384 722.614 151.384H742.489C745.73 151.384 748.36 148.131 748.36 144.14V133.975C748.36 133.362 747.958 132.857 747.455 132.857Z" fill="#F3EDED"/>
<path d="M731.77 142.512C731.985 142.727 732.275 142.843 732.557 142.843C732.838 142.843 733.128 142.735 733.343 142.512L740.446 135.409C740.885 134.97 740.885 134.266 740.446 133.828C740.007 133.389 739.304 133.389 738.865 133.828L733.674 139.027V116.352C733.674 115.731 733.178 115.234 732.557 115.234C731.936 115.234 731.439 115.731 731.439 116.352V139.027L726.24 133.828C725.802 133.389 725.098 133.389 724.659 133.828C724.22 134.266 724.22 134.97 724.659 135.409L731.77 142.512Z" fill="black"/>
<rect x="129.76" y="216.966" width="128" height="37" rx="7" transform="rotate(4 129.76 216.966)" fill="#00B6CC" fill-opacity="0.8"/>
<rect x="129.76" y="216.966" width="128" height="37" rx="7" transform="rotate(4 129.76 216.966)" stroke="#00B6CC" stroke-width="2"/>
<path d="M148.403 230.876L149.743 230.97L149.306 237.226C149.287 237.492 149.261 237.785 149.228 238.103C149.207 238.412 149.18 238.72 149.148 239.028C149.116 239.336 149.08 239.611 149.042 239.854C149.015 240.088 148.992 240.268 148.972 240.395L149.036 240.399L155.968 231.405L157.564 231.517L156.767 242.913L155.427 242.819L155.86 236.626C155.88 236.339 155.907 236.031 155.94 235.701C155.975 235.362 156.008 235.038 156.04 234.73C156.084 234.412 156.12 234.131 156.147 233.887C156.175 233.643 156.198 233.463 156.217 233.347L156.153 233.343L149.202 242.384L147.606 242.272L148.403 230.876ZM161.652 234.657L161.403 238.217L166.048 238.541L166.297 234.982L167.702 235.08L167.103 243.635L165.699 243.537L165.966 239.723L161.321 239.398L161.054 243.212L159.65 243.114L160.248 234.559L161.652 234.657ZM171.815 235.368L171.566 238.927L176.211 239.252L176.46 235.693L177.864 235.791L177.266 244.346L175.861 244.248L176.128 240.433L171.484 240.108L171.217 243.923L169.812 243.825L170.41 235.27L171.815 235.368ZM187.713 240.762C187.663 241.475 187.523 242.101 187.293 242.641C187.074 243.171 186.776 243.616 186.398 243.974C186.03 244.333 185.59 244.597 185.075 244.764C184.573 244.921 184.018 244.979 183.411 244.936C182.847 244.897 182.333 244.765 181.867 244.54C181.403 244.304 181.008 243.982 180.684 243.575C180.359 243.167 180.115 242.685 179.951 242.128C179.798 241.561 179.746 240.921 179.796 240.209C179.863 239.262 180.078 238.475 180.443 237.848C180.808 237.21 181.3 236.742 181.92 236.444C182.541 236.134 183.26 236.008 184.08 236.065C184.857 236.12 185.525 236.343 186.086 236.735C186.658 237.117 187.086 237.649 187.37 238.332C187.665 239.005 187.779 239.815 187.713 240.762ZM181.249 240.31C181.202 240.98 181.246 241.572 181.381 242.084C181.528 242.586 181.778 242.983 182.132 243.275C182.486 243.567 182.95 243.733 183.525 243.773C184.099 243.813 184.582 243.714 184.973 243.474C185.364 243.234 185.662 242.875 185.866 242.397C186.082 241.91 186.214 241.331 186.261 240.661C186.308 239.98 186.258 239.393 186.111 238.902C185.963 238.41 185.712 238.024 185.358 237.742C185.015 237.451 184.551 237.285 183.965 237.244C183.093 237.183 182.44 237.426 182.006 237.973C181.572 238.52 181.319 239.299 181.249 240.31ZM196.966 239.292C196.928 239.824 196.74 240.228 196.4 240.503C196.06 240.779 195.636 240.953 195.128 241.024L195.124 241.088C195.651 241.2 196.1 241.423 196.472 241.76C196.845 242.085 197.009 242.567 196.965 243.205C196.939 243.567 196.847 243.898 196.687 244.196C196.538 244.496 196.317 244.748 196.024 244.952C195.732 245.156 195.363 245.307 194.918 245.404C194.474 245.491 193.943 245.512 193.326 245.469L189.639 245.211L190.237 236.656L193.908 236.913C194.515 236.955 195.052 237.062 195.522 237.234C196.002 237.396 196.37 237.646 196.624 237.985C196.89 238.314 197.004 238.749 196.966 239.292ZM195.512 243.104C195.546 242.614 195.385 242.25 195.027 242.011C194.67 241.773 194.129 241.628 193.406 241.577L191.315 241.431L191.123 244.176L193.245 244.325C193.948 244.374 194.492 244.31 194.879 244.134C195.266 243.947 195.477 243.604 195.512 243.104ZM195.533 239.368C195.561 238.964 195.433 238.661 195.147 238.459C194.873 238.247 194.407 238.119 193.747 238.072L191.56 237.92L191.396 240.266L193.327 240.401C194.019 240.449 194.552 240.39 194.928 240.224C195.303 240.058 195.505 239.773 195.533 239.368ZM202.683 237.382C203.726 237.455 204.482 237.738 204.95 238.23C205.418 238.723 205.617 239.469 205.547 240.469L205.14 246.295L204.118 246.224L203.932 244.992L203.868 244.987C203.602 245.279 203.328 245.522 203.047 245.716C202.778 245.9 202.469 246.028 202.122 246.1C201.785 246.173 201.378 246.193 200.899 246.159C200.388 246.123 199.932 246.001 199.529 245.791C199.138 245.581 198.838 245.282 198.63 244.894C198.422 244.494 198.339 244.007 198.379 243.433C198.438 242.581 198.819 241.95 199.522 241.54C200.225 241.118 201.275 240.935 202.672 240.99L204.128 241.044L204.163 240.533C204.213 239.82 204.093 239.315 203.804 239.016C203.515 238.718 203.088 238.549 202.524 238.51C202.078 238.479 201.647 238.518 201.233 238.628C200.82 238.727 200.432 238.85 200.069 238.996L199.711 237.912C200.098 237.736 200.551 237.597 201.072 237.494C201.593 237.381 202.13 237.343 202.683 237.382ZM202.779 241.976C201.712 241.944 200.961 242.063 200.525 242.332C200.1 242.601 199.868 243.007 199.83 243.55C199.797 244.029 199.916 244.39 200.188 244.634C200.47 244.878 200.84 245.016 201.297 245.048C202.021 245.099 202.636 244.944 203.142 244.584C203.649 244.213 203.932 243.612 203.99 242.782L204.044 242.016L202.779 241.976ZM216.018 250.039L214.645 249.943L214.853 246.974L207.782 246.48L208.38 237.925L209.785 238.023L209.269 245.397L213.69 245.706L214.206 238.332L215.611 238.43L215.094 245.82L216.307 245.905L216.018 250.039ZM219.425 243.942C219.418 244.038 219.403 244.176 219.38 244.356C219.368 244.526 219.35 244.712 219.325 244.913C219.301 245.104 219.277 245.29 219.254 245.47C219.231 245.639 219.211 245.777 219.193 245.883L224.275 239.036L225.999 239.157L225.4 247.712L224.092 247.62L224.444 242.577C224.456 242.407 224.472 242.183 224.491 241.906C224.521 241.631 224.551 241.36 224.58 241.095C224.61 240.819 224.635 240.612 224.655 240.474L219.607 247.307L217.867 247.185L218.465 238.63L219.79 238.723L219.425 243.942ZM229.681 244.659C229.674 244.755 229.659 244.893 229.636 245.073C229.624 245.243 229.606 245.429 229.581 245.631C229.557 245.821 229.533 246.007 229.51 246.187C229.487 246.356 229.467 246.494 229.449 246.6L234.531 239.754L236.255 239.874L235.657 248.429L234.348 248.338L234.7 243.294C234.712 243.124 234.728 242.9 234.747 242.624C234.777 242.348 234.807 242.077 234.836 241.812C234.866 241.536 234.891 241.329 234.912 241.192L229.863 248.024L228.123 247.902L228.721 239.347L230.046 239.44L229.681 244.659Z" fill="#EDEDED"/>
<rect x="379.801" y="227.961" width="128" height="37" rx="7" fill="#00B6CC" fill-opacity="0.8"/>
<rect x="379.801" y="227.961" width="128" height="37" rx="7" stroke="#00B6CC" stroke-width="2"/>
<path d="M391.353 251.961V240.537H398.137V241.801H392.793V245.369H394.489C395.63 245.369 396.515 245.513 397.145 245.801C397.774 246.078 398.211 246.462 398.457 246.953C398.702 247.433 398.825 247.988 398.825 248.617C398.825 249.31 398.686 249.908 398.409 250.409C398.142 250.91 397.705 251.294 397.097 251.561C396.489 251.828 395.689 251.961 394.697 251.961H391.353ZM394.553 250.729C395.577 250.729 396.297 250.558 396.713 250.217C397.129 249.865 397.337 249.332 397.337 248.617C397.337 248.126 397.235 247.737 397.033 247.449C396.841 247.15 396.521 246.937 396.073 246.809C395.635 246.681 395.049 246.617 394.313 246.617H392.793V250.729H394.553ZM404.317 243.225C405.053 243.225 405.682 243.385 406.205 243.705C406.738 244.025 407.143 244.478 407.421 245.065C407.709 245.641 407.853 246.318 407.853 247.097V247.945H401.981C402.002 248.916 402.247 249.657 402.717 250.169C403.197 250.67 403.863 250.921 404.717 250.921C405.261 250.921 405.741 250.873 406.157 250.777C406.583 250.67 407.021 250.521 407.469 250.329V251.561C407.031 251.753 406.599 251.892 406.173 251.977C405.746 252.073 405.239 252.121 404.653 252.121C403.842 252.121 403.122 251.956 402.493 251.625C401.874 251.294 401.389 250.804 401.037 250.153C400.695 249.492 400.525 248.686 400.525 247.737C400.525 246.798 400.679 245.993 400.989 245.321C401.309 244.649 401.751 244.132 402.317 243.769C402.893 243.406 403.559 243.225 404.317 243.225ZM404.301 244.377C403.629 244.377 403.095 244.596 402.701 245.033C402.317 245.46 402.087 246.057 402.013 246.825H406.381C406.381 246.334 406.306 245.908 406.157 245.545C406.007 245.182 405.778 244.9 405.469 244.697C405.17 244.484 404.781 244.377 404.301 244.377ZM412.292 243.225C412.942 243.225 413.508 243.316 413.988 243.497C414.468 243.668 414.841 243.924 415.108 244.265C415.374 244.596 415.508 245.001 415.508 245.481C415.508 246.004 415.364 246.42 415.076 246.729C414.788 247.028 414.393 247.246 413.892 247.385V247.449C414.233 247.545 414.548 247.678 414.836 247.849C415.124 248.02 415.353 248.244 415.524 248.521C415.705 248.798 415.796 249.156 415.796 249.593C415.796 250.062 415.662 250.489 415.396 250.873C415.14 251.257 414.74 251.561 414.196 251.785C413.662 252.009 412.974 252.121 412.132 252.121C411.726 252.121 411.337 252.1 410.964 252.057C410.601 252.014 410.27 251.95 409.972 251.865C409.684 251.78 409.428 251.678 409.204 251.561V250.297C409.566 250.468 409.993 250.622 410.484 250.761C410.985 250.9 411.529 250.969 412.116 250.969C412.542 250.969 412.926 250.921 413.268 250.825C413.62 250.729 413.897 250.58 414.1 250.377C414.302 250.164 414.404 249.876 414.404 249.513C414.404 249.182 414.313 248.916 414.132 248.713C413.95 248.5 413.678 248.34 413.316 248.233C412.964 248.126 412.51 248.073 411.956 248.073H410.804V246.921H411.732C412.468 246.921 413.054 246.825 413.492 246.633C413.94 246.43 414.164 246.089 414.164 245.609C414.164 245.204 413.993 244.9 413.652 244.697C413.321 244.494 412.841 244.393 412.212 244.393C411.742 244.393 411.326 244.441 410.964 244.537C410.612 244.622 410.222 244.756 409.796 244.937L409.3 243.817C409.758 243.614 410.238 243.465 410.74 243.369C411.241 243.273 411.758 243.225 412.292 243.225ZM425.336 247.657C425.336 248.372 425.24 249.006 425.048 249.561C424.866 250.105 424.6 250.569 424.248 250.953C423.906 251.337 423.485 251.63 422.984 251.833C422.493 252.025 421.944 252.121 421.336 252.121C420.77 252.121 420.248 252.025 419.768 251.833C419.288 251.63 418.872 251.337 418.52 250.953C418.168 250.569 417.89 250.105 417.688 249.561C417.496 249.006 417.4 248.372 417.4 247.657C417.4 246.708 417.56 245.908 417.88 245.257C418.2 244.596 418.658 244.094 419.256 243.753C419.853 243.401 420.562 243.225 421.384 243.225C422.162 243.225 422.845 243.401 423.432 243.753C424.029 244.094 424.493 244.596 424.824 245.257C425.165 245.908 425.336 246.708 425.336 247.657ZM418.856 247.657C418.856 248.329 418.941 248.916 419.112 249.417C419.293 249.908 419.57 250.286 419.944 250.553C420.317 250.82 420.792 250.953 421.368 250.953C421.944 250.953 422.418 250.82 422.792 250.553C423.165 250.286 423.437 249.908 423.608 249.417C423.789 248.916 423.88 248.329 423.88 247.657C423.88 246.974 423.789 246.393 423.608 245.913C423.426 245.433 423.149 245.065 422.776 244.809C422.413 244.542 421.938 244.409 421.352 244.409C420.477 244.409 419.842 244.697 419.448 245.273C419.053 245.849 418.856 246.644 418.856 247.657ZM434.815 243.385V251.961H433.407V244.585H428.975V251.961H427.567V243.385H434.815ZM440.799 243.241C441.845 243.241 442.618 243.47 443.119 243.929C443.621 244.388 443.871 245.118 443.871 246.121V251.961H442.847L442.575 250.745H442.511C442.266 251.054 442.01 251.316 441.743 251.529C441.487 251.732 441.189 251.881 440.847 251.977C440.517 252.073 440.111 252.121 439.631 252.121C439.119 252.121 438.655 252.03 438.239 251.849C437.834 251.668 437.514 251.39 437.279 251.017C437.045 250.633 436.927 250.153 436.927 249.577C436.927 248.724 437.263 248.068 437.935 247.609C438.607 247.14 439.642 246.884 441.039 246.841L442.495 246.793V246.281C442.495 245.566 442.341 245.07 442.031 244.793C441.722 244.516 441.285 244.377 440.719 244.377C440.271 244.377 439.845 244.446 439.439 244.585C439.034 244.713 438.655 244.862 438.303 245.033L437.871 243.977C438.245 243.774 438.687 243.604 439.199 243.465C439.711 243.316 440.245 243.241 440.799 243.241ZM441.215 247.817C440.149 247.86 439.407 248.03 438.991 248.329C438.586 248.628 438.383 249.049 438.383 249.593C438.383 250.073 438.527 250.425 438.815 250.649C439.114 250.873 439.493 250.985 439.951 250.985C440.677 250.985 441.279 250.788 441.759 250.393C442.239 249.988 442.479 249.369 442.479 248.537V247.769L441.215 247.817ZM449.96 252.121C449.203 252.121 448.525 251.966 447.928 251.657C447.341 251.348 446.877 250.868 446.536 250.217C446.205 249.566 446.04 248.734 446.04 247.721C446.04 246.665 446.216 245.806 446.568 245.145C446.92 244.484 447.395 243.998 447.992 243.689C448.6 243.38 449.288 243.225 450.056 243.225C450.493 243.225 450.915 243.273 451.32 243.369C451.725 243.454 452.056 243.561 452.312 243.689L451.88 244.857C451.624 244.761 451.325 244.67 450.984 244.585C450.643 244.5 450.323 244.457 450.024 244.457C449.448 244.457 448.973 244.58 448.6 244.825C448.227 245.07 447.949 245.433 447.768 245.913C447.587 246.393 447.496 246.99 447.496 247.705C447.496 248.388 447.587 248.969 447.768 249.449C447.949 249.929 448.221 250.292 448.584 250.537C448.947 250.782 449.4 250.905 449.944 250.905C450.413 250.905 450.824 250.857 451.176 250.761C451.539 250.665 451.869 250.548 452.168 250.409V251.657C451.88 251.806 451.56 251.918 451.208 251.993C450.867 252.078 450.451 252.121 449.96 252.121ZM455.616 243.385V246.953H460.272V243.385H461.68V251.961H460.272V248.137H455.616V251.961H454.208V243.385H455.616ZM471.851 247.657C471.851 248.372 471.755 249.006 471.563 249.561C471.382 250.105 471.115 250.569 470.763 250.953C470.422 251.337 470 251.63 469.499 251.833C469.008 252.025 468.459 252.121 467.851 252.121C467.286 252.121 466.763 252.025 466.283 251.833C465.803 251.63 465.387 251.337 465.035 250.953C464.683 250.569 464.406 250.105 464.203 249.561C464.011 249.006 463.915 248.372 463.915 247.657C463.915 246.708 464.075 245.908 464.395 245.257C464.715 244.596 465.174 244.094 465.771 243.753C466.368 243.401 467.078 243.225 467.899 243.225C468.678 243.225 469.36 243.401 469.947 243.753C470.544 244.094 471.008 244.596 471.339 245.257C471.68 245.908 471.851 246.708 471.851 247.657ZM465.371 247.657C465.371 248.329 465.456 248.916 465.627 249.417C465.808 249.908 466.086 250.286 466.459 250.553C466.832 250.82 467.307 250.953 467.883 250.953C468.459 250.953 468.934 250.82 469.307 250.553C469.68 250.286 469.952 249.908 470.123 249.417C470.304 248.916 470.395 248.329 470.395 247.657C470.395 246.974 470.304 246.393 470.123 245.913C469.942 245.433 469.664 245.065 469.291 244.809C468.928 244.542 468.454 244.409 467.867 244.409C466.992 244.409 466.358 244.697 465.963 245.273C465.568 245.849 465.371 246.644 465.371 247.657ZM477.523 252.121C476.765 252.121 476.088 251.966 475.491 251.657C474.904 251.348 474.44 250.868 474.099 250.217C473.768 249.566 473.603 248.734 473.603 247.721C473.603 246.665 473.779 245.806 474.131 245.145C474.483 244.484 474.957 243.998 475.555 243.689C476.163 243.38 476.851 243.225 477.619 243.225C478.056 243.225 478.477 243.273 478.883 243.369C479.288 243.454 479.619 243.561 479.875 243.689L479.443 244.857C479.187 244.761 478.888 244.67 478.547 244.585C478.205 244.5 477.885 244.457 477.587 244.457C477.011 244.457 476.536 244.58 476.163 244.825C475.789 245.07 475.512 245.433 475.331 245.913C475.149 246.393 475.059 246.99 475.059 247.705C475.059 248.388 475.149 248.969 475.331 249.449C475.512 249.929 475.784 250.292 476.147 250.537C476.509 250.782 476.963 250.905 477.507 250.905C477.976 250.905 478.387 250.857 478.739 250.761C479.101 250.665 479.432 250.548 479.731 250.409V251.657C479.443 251.806 479.123 251.918 478.771 251.993C478.429 252.078 478.013 252.121 477.523 252.121ZM487.69 244.569H484.89V251.961H483.498V244.569H480.73V243.385H487.69V244.569ZM493.332 246.905C494.078 246.905 494.697 246.996 495.188 247.177C495.678 247.358 496.046 247.63 496.292 247.993C496.548 248.345 496.676 248.793 496.676 249.337C496.676 249.87 496.553 250.334 496.308 250.729C496.073 251.124 495.705 251.428 495.204 251.641C494.702 251.854 494.057 251.961 493.268 251.961H489.38V243.385H490.788V246.905H493.332ZM495.268 249.417C495.268 248.894 495.081 248.542 494.708 248.361C494.345 248.169 493.833 248.073 493.172 248.073H490.788V250.825H493.204C493.801 250.825 494.292 250.718 494.676 250.505C495.07 250.292 495.268 249.929 495.268 249.417Z" fill="#EDEDED"/>
<rect x="630.118" y="225.994" width="128" height="37" rx="7" transform="rotate(-4 630.118 225.994)" fill="#00B6CC" fill-opacity="0.8"/>
<rect x="630.118" y="225.994" width="128" height="37" rx="7" transform="rotate(-4 630.118 225.994)" stroke="#00B6CC" stroke-width="2"/>
<path d="M671.084 247.188L669.36 247.308L663.801 241.891L664.205 247.669L662.768 247.769L661.971 236.373L663.408 236.273L663.794 241.795L668.436 235.921L670.064 235.807L665.503 241.692L671.084 247.188ZM679.581 242.279C679.631 242.992 679.579 243.632 679.427 244.199C679.284 244.754 679.05 245.235 678.726 245.643C678.412 246.05 678.012 246.372 677.526 246.609C677.05 246.835 676.509 246.969 675.902 247.011C675.338 247.051 674.81 246.991 674.318 246.833C673.825 246.665 673.389 246.401 673.012 246.043C672.634 245.684 672.325 245.24 672.084 244.712C671.854 244.172 671.714 243.546 671.664 242.833C671.598 241.886 671.702 241.076 671.976 240.405C672.249 239.723 672.671 239.191 673.243 238.809C673.815 238.416 674.51 238.191 675.329 238.134C676.106 238.079 676.8 238.207 677.409 238.517C678.029 238.816 678.527 239.284 678.903 239.921C679.289 240.546 679.515 241.332 679.581 242.279ZM673.117 242.731C673.164 243.401 673.29 243.981 673.495 244.469C673.71 244.946 674.013 245.304 674.404 245.544C674.795 245.784 675.278 245.884 675.853 245.844C676.427 245.804 676.891 245.638 677.245 245.346C677.599 245.053 677.844 244.657 677.98 244.155C678.126 243.643 678.175 243.051 678.129 242.381C678.081 241.7 677.95 241.126 677.736 240.66C677.521 240.194 677.219 239.846 676.829 239.617C676.448 239.376 675.965 239.276 675.38 239.317C674.508 239.378 673.895 239.71 673.541 240.312C673.188 240.914 673.046 241.72 673.117 242.731ZM690.687 237.22L691.285 245.775L690.024 245.863L689.642 240.405C689.627 240.181 689.616 239.947 689.609 239.701C689.613 239.455 689.618 239.214 689.623 238.979L689.575 238.982L687.263 246.056L686.082 246.139L682.887 239.45L682.839 239.453C682.877 239.686 682.904 239.924 682.921 240.169C682.949 240.413 682.972 240.663 682.99 240.918L683.368 246.329L682.107 246.417L681.509 237.862L683.377 237.731L686.555 244.422L688.819 237.351L690.687 237.22ZM696.648 236.659C697.69 236.586 698.478 236.761 699.01 237.183C699.542 237.606 699.843 238.317 699.913 239.318L700.32 245.143L699.299 245.215L698.943 244.021L698.879 244.025C698.656 244.351 698.419 244.629 698.167 244.861C697.926 245.081 697.639 245.251 697.305 245.37C696.982 245.489 696.581 245.565 696.102 245.599C695.591 245.634 695.122 245.576 694.694 245.425C694.277 245.272 693.939 245.018 693.679 244.662C693.418 244.295 693.267 243.824 693.227 243.25C693.167 242.398 693.457 241.72 694.095 241.216C694.733 240.701 695.747 240.373 697.138 240.233L698.587 240.084L698.551 239.573C698.502 238.86 698.313 238.376 697.985 238.121C697.657 237.866 697.211 237.758 696.647 237.798C696.2 237.829 695.779 237.928 695.385 238.095C694.989 238.25 694.622 238.426 694.283 238.621L693.778 237.597C694.136 237.369 694.566 237.168 695.067 236.994C695.567 236.809 696.094 236.698 696.648 236.659ZM697.382 241.195C696.321 241.312 695.593 241.534 695.199 241.861C694.815 242.187 694.643 242.621 694.681 243.164C694.714 243.643 694.882 243.984 695.185 244.187C695.499 244.39 695.884 244.475 696.342 244.443C697.065 244.393 697.653 244.154 698.104 243.727C698.555 243.289 698.751 242.655 698.693 241.825L698.639 241.059L697.382 241.195ZM703.769 236.305L704.018 239.865L708.663 239.54L708.414 235.98L709.818 235.882L710.416 244.437L709.012 244.536L708.745 240.721L704.1 241.046L704.367 244.86L702.963 244.959L702.364 236.403L703.769 236.305ZM718.88 235.249L719.395 242.623L720.64 242.536L720.93 246.685L719.574 246.78L719.366 243.812L713.413 244.228L713.62 247.197L712.279 247.29L711.989 243.141L712.676 243.093C713.117 242.377 713.47 241.609 713.734 240.789C714.007 239.957 714.193 239.1 714.291 238.216C714.4 237.321 714.429 236.437 714.379 235.563L718.88 235.249ZM715.701 236.578C715.709 237.304 715.649 238.062 715.523 238.852C715.395 239.63 715.213 240.381 714.974 241.103C714.747 241.825 714.465 242.454 714.128 242.991L718.039 242.718L717.6 236.445L715.701 236.578ZM725.031 234.674C726.074 234.601 726.862 234.776 727.394 235.199C727.926 235.621 728.227 236.333 728.297 237.333L728.704 243.159L727.683 243.23L727.326 242.036L727.263 242.04C727.039 242.366 726.802 242.645 726.551 242.876C726.31 243.096 726.022 243.266 725.689 243.385C725.365 243.504 724.964 243.58 724.486 243.614C723.975 243.65 723.506 243.592 723.078 243.44C722.661 243.287 722.322 243.033 722.062 242.677C721.801 242.31 721.651 241.839 721.611 241.265C721.551 240.414 721.841 239.736 722.479 239.231C723.117 238.716 724.131 238.389 725.522 238.249L726.971 238.099L726.935 237.588C726.885 236.875 726.697 236.391 726.369 236.136C726.041 235.881 725.595 235.773 725.031 235.813C724.584 235.844 724.163 235.943 723.768 236.11C723.373 236.266 723.006 236.441 722.666 236.636L722.162 235.613C722.52 235.384 722.95 235.183 723.451 235.009C723.951 234.824 724.478 234.713 725.031 234.674ZM725.766 239.21C724.704 239.327 723.977 239.549 723.583 239.876C723.199 240.202 723.026 240.637 723.064 241.179C723.098 241.658 723.266 241.999 723.569 242.202C723.882 242.405 724.268 242.49 724.726 242.458C725.449 242.408 726.037 242.169 726.488 241.742C726.938 241.304 727.135 240.67 727.077 239.84L727.023 239.074L725.766 239.21Z" fill="#EDEDED"/>
<defs>
<filter id="filter0_f_1031_57439" x="292.535" y="121.691" width="23.2305" height="23.2305" filterUnits="userSpaceOnUse" color-interpolation-filters="sRGB">
<feFlood flood-opacity="0" result="BackgroundImageFix"/>
<feBlend mode="normal" in="SourceGraphic" in2="BackgroundImageFix" result="shape"/>
<feGaussianBlur stdDeviation="2.5" result="effect1_foregroundBlur_1031_57439"/>
</filter>
<filter id="filter1_f_1031_57439" x="287.535" y="116.691" width="33.2305" height="33.2305" filterUnits="userSpaceOnUse" color-interpolation-filters="sRGB">
<feFlood flood-opacity="0" result="BackgroundImageFix"/>
<feBlend mode="normal" in="SourceGraphic" in2="BackgroundImageFix" result="shape"/>
<feGaussianBlur stdDeviation="5" result="effect1_foregroundBlur_1031_57439"/>
</filter>
<filter id="filter2_f_1031_57439" x="441.471" y="42.8945" width="176.36" height="166.152" filterUnits="userSpaceOnUse" color-interpolation-filters="sRGB">
<feFlood flood-opacity="0" result="BackgroundImageFix"/>
<feBlend mode="normal" in="SourceGraphic" in2="BackgroundImageFix" result="shape"/>
<feGaussianBlur stdDeviation="25" result="effect1_foregroundBlur_1031_57439"/>
</filter>
<filter id="filter3_f_1031_57439" x="488.59" y="91.8906" width="82.1191" height="75.1523" filterUnits="userSpaceOnUse" color-interpolation-filters="sRGB">
<feFlood flood-opacity="0" result="BackgroundImageFix"/>
<feBlend mode="normal" in="SourceGraphic" in2="BackgroundImageFix" result="shape"/>
<feGaussianBlur stdDeviation="7.5" result="effect1_foregroundBlur_1031_57439"/>
</filter>
<filter id="filter4_f_1031_57439" x="696.743" y="112.691" width="71.6172" height="58.6914" filterUnits="userSpaceOnUse" color-interpolation-filters="sRGB">
<feFlood flood-opacity="0" result="BackgroundImageFix"/>
<feBlend mode="normal" in="SourceGraphic" in2="BackgroundImageFix" result="shape"/>
<feGaussianBlur stdDeviation="7.5" result="effect1_foregroundBlur_1031_57439"/>
</filter>
<filter id="filter5_f_1031_57439" x="709.743" y="125.691" width="45.6172" height="32.6914" filterUnits="userSpaceOnUse" color-interpolation-filters="sRGB">
<feFlood flood-opacity="0" result="BackgroundImageFix"/>
<feBlend mode="normal" in="SourceGraphic" in2="BackgroundImageFix" result="shape"/>
<feGaussianBlur stdDeviation="2" result="effect1_foregroundBlur_1031_57439"/>
</filter>
<clipPath id="clip0_1031_57439">
<rect width="36.1513" height="36.1513" fill="white" transform="translate(183.986 115.23)"/>
</clipPath>
</defs>
</svg>
