<svg width="860" height="349" viewBox="0 0 860 349" fill="none" xmlns="http://www.w3.org/2000/svg">
<rect x="4.93164" y="0.5" width="829.705" height="347.787" rx="9.5" stroke="#A1A1A1"/>
<rect x="27.9316" y="20.5" width="519" height="38" rx="7.5" stroke="#A1A1A1" stroke-opacity="0.81"/>
<circle cx="62.4316" cy="39.5" r="5" fill="#A1A1A1"/>
<path d="M82.8556 35.8H82.7756L79.4956 45H77.7356L81.9276 33.688H83.7676L87.9596 45H86.1196L82.8556 35.8ZM85.7836 42.072H79.8956V40.536H85.7836V42.072ZM90.937 45H89.209V33.512H90.937V45ZM95.0151 45H93.2871V33.512H95.0151V45Z" fill="#A1A1A1"/>
<circle cx="179.432" cy="39.5" r="5" fill="#C300FF"/>
<path d="M201.232 36.824H202.96V48.232H201.232V36.824ZM198.608 45.16C197.53 45.16 196.672 44.8027 196.032 44.088C195.402 43.3733 195.088 42.3173 195.088 40.92C195.088 39.96 195.232 39.1707 195.52 38.552C195.818 37.9227 196.229 37.4533 196.752 37.144C197.285 36.824 197.904 36.664 198.608 36.664C199.376 36.664 199.994 36.8507 200.464 37.224C200.944 37.5973 201.29 38.104 201.504 38.744C201.717 39.384 201.824 40.1093 201.824 40.92C201.824 41.7307 201.717 42.456 201.504 43.096C201.29 43.7253 200.944 44.2267 200.464 44.6C199.994 44.9733 199.376 45.16 198.608 45.16ZM199.056 43.736C199.802 43.736 200.352 43.496 200.704 43.016C201.056 42.536 201.232 41.8373 201.232 40.92C201.232 40.0027 201.056 39.304 200.704 38.824C200.352 38.3333 199.802 38.088 199.056 38.088C198.277 38.088 197.706 38.3333 197.344 38.824C196.992 39.304 196.816 40.0027 196.816 40.92C196.816 41.8373 196.992 42.536 197.344 43.016C197.706 43.496 198.277 43.736 199.056 43.736ZM209.429 45H207.653V34.648L208.917 34.712L204.917 37.352V35.576L207.781 33.688H209.429V45ZM213.242 42.952H215.29V45H213.242V42.952ZM217.294 43.784L221.102 39.816C221.518 39.3787 221.864 39 222.142 38.68C222.419 38.36 222.627 38.056 222.766 37.768C222.904 37.4693 222.974 37.1547 222.974 36.824C222.974 36.2053 222.803 35.752 222.462 35.464C222.12 35.176 221.656 35.032 221.07 35.032C220.44 35.032 219.96 35.192 219.63 35.512C219.31 35.832 219.139 36.328 219.118 37H217.358C217.358 36.296 217.512 35.688 217.822 35.176C218.142 34.6533 218.584 34.248 219.15 33.96C219.715 33.672 220.371 33.528 221.118 33.528C221.843 33.528 222.478 33.6667 223.022 33.944C223.566 34.2107 223.987 34.5893 224.286 35.08C224.584 35.5707 224.734 36.152 224.734 36.824C224.734 37.2613 224.648 37.6773 224.478 38.072C224.307 38.456 224.03 38.8773 223.646 39.336C223.262 39.784 222.75 40.3387 222.11 41L219.134 44.104L218.894 43.496H224.862V45H217.294V43.784ZM226.626 41.384C226.637 41.0213 226.696 40.6533 226.802 40.28C226.909 39.896 227.09 39.4747 227.346 39.016C227.602 38.5467 227.944 38.0133 228.37 37.416L231.074 33.688H233.058L228.882 39.4L228.866 38.376C228.973 38.2907 229.128 38.2053 229.33 38.12C229.544 38.0347 229.778 37.9653 230.034 37.912C230.29 37.848 230.546 37.816 230.802 37.816C231.517 37.816 232.146 37.9707 232.69 38.28C233.245 38.5893 233.677 39.016 233.986 39.56C234.296 40.104 234.45 40.7387 234.45 41.464C234.45 42.2 234.296 42.8507 233.986 43.416C233.677 43.9707 233.229 44.4027 232.642 44.712C232.056 45.0107 231.357 45.16 230.546 45.16C229.309 45.16 228.344 44.8187 227.65 44.136C226.957 43.4533 226.616 42.536 226.626 41.384ZM228.386 41.464C228.386 42.136 228.557 42.6747 228.898 43.08C229.24 43.4747 229.789 43.672 230.546 43.672C231.282 43.672 231.821 43.4747 232.162 43.08C232.514 42.6747 232.69 42.136 232.69 41.464C232.69 40.7813 232.514 40.2533 232.162 39.88C231.821 39.496 231.282 39.304 230.546 39.304C229.874 39.304 229.346 39.496 228.962 39.88C228.578 40.2533 228.386 40.7813 228.386 41.464Z" fill="#A1A1A1"/>
<circle cx="318.432" cy="39.5" r="5" fill="#00B6CC"/>
<path d="M340.232 36.824H341.96V48.232H340.232V36.824ZM337.608 45.16C336.53 45.16 335.672 44.8027 335.032 44.088C334.402 43.3733 334.088 42.3173 334.088 40.92C334.088 39.96 334.232 39.1707 334.52 38.552C334.818 37.9227 335.229 37.4533 335.752 37.144C336.285 36.824 336.904 36.664 337.608 36.664C338.376 36.664 338.994 36.8507 339.464 37.224C339.944 37.5973 340.29 38.104 340.504 38.744C340.717 39.384 340.824 40.1093 340.824 40.92C340.824 41.7307 340.717 42.456 340.504 43.096C340.29 43.7253 339.944 44.2267 339.464 44.6C338.994 44.9733 338.376 45.16 337.608 45.16ZM338.056 43.736C338.802 43.736 339.352 43.496 339.704 43.016C340.056 42.536 340.232 41.8373 340.232 40.92C340.232 40.0027 340.056 39.304 339.704 38.824C339.352 38.3333 338.802 38.088 338.056 38.088C337.277 38.088 336.706 38.3333 336.344 38.824C335.992 39.304 335.816 40.0027 335.816 40.92C335.816 41.8373 335.992 42.536 336.344 43.016C336.706 43.496 337.277 43.736 338.056 43.736ZM343.981 43.784L347.789 39.816C348.205 39.3787 348.552 39 348.829 38.68C349.107 38.36 349.315 38.056 349.453 37.768C349.592 37.4693 349.661 37.1547 349.661 36.824C349.661 36.2053 349.491 35.752 349.149 35.464C348.808 35.176 348.344 35.032 347.757 35.032C347.128 35.032 346.648 35.192 346.317 35.512C345.997 35.832 345.827 36.328 345.805 37H344.045C344.045 36.296 344.2 35.688 344.509 35.176C344.829 34.6533 345.272 34.248 345.837 33.96C346.403 33.672 347.059 33.528 347.805 33.528C348.531 33.528 349.165 33.6667 349.709 33.944C350.253 34.2107 350.675 34.5893 350.973 35.08C351.272 35.5707 351.421 36.152 351.421 36.824C351.421 37.2613 351.336 37.6773 351.165 38.072C350.995 38.456 350.717 38.8773 350.333 39.336C349.949 39.784 349.437 40.3387 348.797 41L345.821 44.104L345.581 43.496H351.549V45H343.981V43.784ZM353.57 42.952H355.618V45H353.57V42.952ZM357.622 43.784L361.43 39.816C361.846 39.3787 362.193 39 362.47 38.68C362.747 38.36 362.955 38.056 363.094 37.768C363.233 37.4693 363.302 37.1547 363.302 36.824C363.302 36.2053 363.131 35.752 362.79 35.464C362.449 35.176 361.985 35.032 361.398 35.032C360.769 35.032 360.289 35.192 359.958 35.512C359.638 35.832 359.467 36.328 359.446 37H357.686C357.686 36.296 357.841 35.688 358.15 35.176C358.47 34.6533 358.913 34.248 359.478 33.96C360.043 33.672 360.699 33.528 361.446 33.528C362.171 33.528 362.806 33.6667 363.35 33.944C363.894 34.2107 364.315 34.5893 364.614 35.08C364.913 35.5707 365.062 36.152 365.062 36.824C365.062 37.2613 364.977 37.6773 364.806 38.072C364.635 38.456 364.358 38.8773 363.974 39.336C363.59 39.784 363.078 40.3387 362.438 41L359.462 44.104L359.222 43.496H365.19V45H357.622V43.784ZM366.955 41.384C366.965 41.0213 367.024 40.6533 367.131 40.28C367.237 39.896 367.419 39.4747 367.675 39.016C367.931 38.5467 368.272 38.0133 368.699 37.416L371.403 33.688H373.387L369.211 39.4L369.195 38.376C369.301 38.2907 369.456 38.2053 369.659 38.12C369.872 38.0347 370.107 37.9653 370.363 37.912C370.619 37.848 370.875 37.816 371.131 37.816C371.845 37.816 372.475 37.9707 373.019 38.28C373.573 38.5893 374.005 39.016 374.315 39.56C374.624 40.104 374.779 40.7387 374.779 41.464C374.779 42.2 374.624 42.8507 374.315 43.416C374.005 43.9707 373.557 44.4027 372.971 44.712C372.384 45.0107 371.685 45.16 370.875 45.16C369.637 45.16 368.672 44.8187 367.979 44.136C367.285 43.4533 366.944 42.536 366.955 41.384ZM368.715 41.464C368.715 42.136 368.885 42.6747 369.227 43.08C369.568 43.4747 370.117 43.672 370.875 43.672C371.611 43.672 372.149 43.4747 372.491 43.08C372.843 42.6747 373.019 42.136 373.019 41.464C373.019 40.7813 372.843 40.2533 372.491 39.88C372.149 39.496 371.611 39.304 370.875 39.304C370.203 39.304 369.675 39.496 369.291 39.88C368.907 40.2533 368.715 40.7813 368.715 41.464Z" fill="#A1A1A1"/>
<circle cx="459.432" cy="39.5" r="5" fill="#FF00E6"/>
<path d="M481.232 36.824H482.96V48.232H481.232V36.824ZM478.608 45.16C477.53 45.16 476.672 44.8027 476.032 44.088C475.402 43.3733 475.088 42.3173 475.088 40.92C475.088 39.96 475.232 39.1707 475.52 38.552C475.818 37.9227 476.229 37.4533 476.752 37.144C477.285 36.824 477.904 36.664 478.608 36.664C479.376 36.664 479.994 36.8507 480.464 37.224C480.944 37.5973 481.29 38.104 481.504 38.744C481.717 39.384 481.824 40.1093 481.824 40.92C481.824 41.7307 481.717 42.456 481.504 43.096C481.29 43.7253 480.944 44.2267 480.464 44.6C479.994 44.9733 479.376 45.16 478.608 45.16ZM479.056 43.736C479.802 43.736 480.352 43.496 480.704 43.016C481.056 42.536 481.232 41.8373 481.232 40.92C481.232 40.0027 481.056 39.304 480.704 38.824C480.352 38.3333 479.802 38.088 479.056 38.088C478.277 38.088 477.706 38.3333 477.344 38.824C476.992 39.304 476.816 40.0027 476.816 40.92C476.816 41.8373 476.992 42.536 477.344 43.016C477.706 43.496 478.277 43.736 479.056 43.736ZM489.141 45.16C488.309 45.16 487.595 45.0267 486.997 44.76C486.4 44.4933 485.941 44.1147 485.621 43.624C485.312 43.1333 485.147 42.5627 485.125 41.912H486.949C486.981 42.2853 487.072 42.6053 487.221 42.872C487.371 43.128 487.6 43.3253 487.909 43.464C488.229 43.592 488.645 43.656 489.157 43.656C489.893 43.656 490.448 43.48 490.821 43.128C491.195 42.7653 491.381 42.232 491.381 41.528C491.381 40.8453 491.184 40.3333 490.789 39.992C490.395 39.6507 489.84 39.48 489.125 39.48H487.557V38.248L491.637 34.056L491.717 35.192H485.621V33.688H492.869V34.936L488.885 39L488.837 38.024C489.648 38.0027 490.331 38.088 490.885 38.28C491.44 38.472 491.883 38.7387 492.213 39.08C492.544 39.4107 492.779 39.7893 492.917 40.216C493.067 40.6427 493.141 41.08 493.141 41.528C493.141 42.2747 492.976 42.92 492.645 43.464C492.315 44.008 491.851 44.4293 491.253 44.728C490.656 45.016 489.952 45.16 489.141 45.16ZM495.242 42.952H497.29V45H495.242V42.952ZM499.294 43.784L503.102 39.816C503.518 39.3787 503.864 39 504.142 38.68C504.419 38.36 504.627 38.056 504.766 37.768C504.904 37.4693 504.974 37.1547 504.974 36.824C504.974 36.2053 504.803 35.752 504.462 35.464C504.12 35.176 503.656 35.032 503.07 35.032C502.44 35.032 501.96 35.192 501.63 35.512C501.31 35.832 501.139 36.328 501.118 37H499.358C499.358 36.296 499.512 35.688 499.822 35.176C500.142 34.6533 500.584 34.248 501.15 33.96C501.715 33.672 502.371 33.528 503.118 33.528C503.843 33.528 504.478 33.6667 505.022 33.944C505.566 34.2107 505.987 34.5893 506.286 35.08C506.584 35.5707 506.734 36.152 506.734 36.824C506.734 37.2613 506.648 37.6773 506.478 38.072C506.307 38.456 506.03 38.8773 505.646 39.336C505.262 39.784 504.75 40.3387 504.11 41L501.134 44.104L500.894 43.496H506.862V45H499.294V43.784ZM508.626 41.384C508.637 41.0213 508.696 40.6533 508.802 40.28C508.909 39.896 509.09 39.4747 509.346 39.016C509.602 38.5467 509.944 38.0133 510.37 37.416L513.074 33.688H515.058L510.882 39.4L510.866 38.376C510.973 38.2907 511.128 38.2053 511.33 38.12C511.544 38.0347 511.778 37.9653 512.034 37.912C512.29 37.848 512.546 37.816 512.802 37.816C513.517 37.816 514.146 37.9707 514.69 38.28C515.245 38.5893 515.677 39.016 515.986 39.56C516.296 40.104 516.45 40.7387 516.45 41.464C516.45 42.2 516.296 42.8507 515.986 43.416C515.677 43.9707 515.229 44.4027 514.642 44.712C514.056 45.0107 513.357 45.16 512.546 45.16C511.309 45.16 510.344 44.8187 509.65 44.136C508.957 43.4533 508.616 42.536 508.626 41.384ZM510.386 41.464C510.386 42.136 510.557 42.6747 510.898 43.08C511.24 43.4747 511.789 43.672 512.546 43.672C513.282 43.672 513.821 43.4747 514.162 43.08C514.514 42.6747 514.69 42.136 514.69 41.464C514.69 40.7813 514.514 40.2533 514.162 39.88C513.821 39.496 513.282 39.304 512.546 39.304C511.874 39.304 511.346 39.496 510.962 39.88C510.578 40.2533 510.386 40.7813 510.386 41.464Z" fill="#A1A1A1"/>
<path d="M64.7273 115.622C63.1503 114.805 61.4616 114.145 59.6756 113.666C56.1655 112.725 52.6298 112.581 49.2598 113.121" stroke="#C300FF" stroke-width="2" stroke-linecap="round"/>
<path d="M107.108 133.715C106.455 133.715 105.875 133.835 105.368 134.075C104.861 134.315 104.428 134.662 104.068 135.115C103.721 135.568 103.455 136.115 103.268 136.755C103.095 137.395 103.008 138.115 103.008 138.915C103.008 139.995 103.155 140.922 103.448 141.695C103.741 142.455 104.188 143.042 104.788 143.455C105.401 143.868 106.168 144.075 107.088 144.075C107.701 144.075 108.288 144.015 108.848 143.895C109.421 143.762 110.021 143.588 110.648 143.375V145.555C110.061 145.795 109.468 145.968 108.868 146.075C108.281 146.182 107.601 146.235 106.828 146.235C105.361 146.235 104.148 145.935 103.188 145.335C102.228 144.722 101.515 143.868 101.048 142.775C100.581 141.668 100.348 140.375 100.348 138.895C100.348 137.815 100.495 136.828 100.788 135.935C101.095 135.042 101.528 134.268 102.088 133.615C102.661 132.962 103.368 132.455 104.208 132.095C105.048 131.735 106.015 131.555 107.108 131.555C107.828 131.555 108.535 131.642 109.228 131.815C109.935 131.975 110.595 132.202 111.208 132.495L110.328 134.595C109.821 134.368 109.295 134.168 108.748 133.995C108.215 133.808 107.668 133.715 107.108 133.715ZM120.323 135.195H123.103L118.683 140.395L123.483 146.035H120.603L116.003 140.535V146.035H113.483V135.195H116.003V140.455L120.323 135.195ZM134.472 140.595C134.472 141.502 134.352 142.302 134.112 142.995C133.872 143.688 133.525 144.282 133.072 144.775C132.632 145.255 132.085 145.622 131.432 145.875C130.792 146.115 130.079 146.235 129.292 146.235C128.545 146.235 127.859 146.115 127.232 145.875C126.605 145.622 126.059 145.255 125.592 144.775C125.139 144.282 124.785 143.688 124.532 142.995C124.279 142.302 124.152 141.502 124.152 140.595C124.152 139.395 124.359 138.382 124.772 137.555C125.185 136.715 125.779 136.082 126.552 135.655C127.339 135.215 128.265 134.995 129.332 134.995C130.345 134.995 131.232 135.215 131.992 135.655C132.765 136.082 133.372 136.715 133.812 137.555C134.252 138.382 134.472 139.395 134.472 140.595ZM126.732 140.595C126.732 141.355 126.819 142.008 126.992 142.555C127.179 143.088 127.459 143.495 127.832 143.775C128.219 144.055 128.712 144.195 129.312 144.195C129.925 144.195 130.419 144.055 130.792 143.775C131.179 143.495 131.459 143.088 131.632 142.555C131.805 142.008 131.892 141.355 131.892 140.595C131.892 139.822 131.799 139.175 131.612 138.655C131.439 138.122 131.159 137.722 130.772 137.455C130.399 137.175 129.912 137.035 129.312 137.035C128.405 137.035 127.745 137.342 127.332 137.955C126.932 138.568 126.732 139.448 126.732 140.595ZM142.777 134.995C144.044 134.995 145.064 135.468 145.837 136.415C146.61 137.348 146.997 138.742 146.997 140.595C146.997 141.822 146.817 142.855 146.457 143.695C146.097 144.535 145.597 145.168 144.957 145.595C144.317 146.022 143.57 146.235 142.717 146.235C142.197 146.235 141.737 146.168 141.337 146.035C140.937 145.888 140.597 145.708 140.317 145.495C140.037 145.268 139.797 145.028 139.597 144.775H139.437C139.49 145.015 139.53 145.288 139.557 145.595C139.584 145.888 139.597 146.168 139.597 146.435V150.835H137.077V135.195H139.117L139.477 136.635H139.597C139.797 136.328 140.037 136.055 140.317 135.815C140.61 135.562 140.957 135.362 141.357 135.215C141.77 135.068 142.244 134.995 142.777 134.995ZM142.057 137.035C141.47 137.035 140.997 137.155 140.637 137.395C140.277 137.622 140.017 137.975 139.857 138.455C139.697 138.935 139.61 139.535 139.597 140.255V140.575C139.597 141.348 139.67 142.002 139.817 142.535C139.977 143.068 140.237 143.475 140.597 143.755C140.97 144.035 141.47 144.175 142.097 144.175C142.63 144.175 143.064 144.028 143.397 143.735C143.744 143.442 143.997 143.028 144.157 142.495C144.33 141.948 144.417 141.302 144.417 140.555C144.417 139.435 144.224 138.568 143.837 137.955C143.464 137.342 142.87 137.035 142.057 137.035ZM159.277 140.595C159.277 141.502 159.157 142.302 158.917 142.995C158.677 143.688 158.33 144.282 157.877 144.775C157.437 145.255 156.89 145.622 156.237 145.875C155.597 146.115 154.883 146.235 154.097 146.235C153.35 146.235 152.663 146.115 152.037 145.875C151.41 145.622 150.863 145.255 150.397 144.775C149.943 144.282 149.59 143.688 149.337 142.995C149.083 142.302 148.957 141.502 148.957 140.595C148.957 139.395 149.163 138.382 149.577 137.555C149.99 136.715 150.583 136.082 151.357 135.655C152.143 135.215 153.07 134.995 154.137 134.995C155.15 134.995 156.037 135.215 156.797 135.655C157.57 136.082 158.177 136.715 158.617 137.555C159.057 138.382 159.277 139.395 159.277 140.595ZM151.537 140.595C151.537 141.355 151.623 142.008 151.797 142.555C151.983 143.088 152.263 143.495 152.637 143.775C153.023 144.055 153.517 144.195 154.117 144.195C154.73 144.195 155.223 144.055 155.597 143.775C155.983 143.495 156.263 143.088 156.437 142.555C156.61 142.008 156.697 141.355 156.697 140.595C156.697 139.822 156.603 139.175 156.417 138.655C156.243 138.122 155.963 137.722 155.577 137.455C155.203 137.175 154.717 137.035 154.117 137.035C153.21 137.035 152.55 137.342 152.137 137.955C151.737 138.568 151.537 139.448 151.537 140.595ZM166.262 146.235C165.235 146.235 164.342 146.042 163.582 145.655C162.835 145.255 162.255 144.648 161.842 143.835C161.442 143.008 161.242 141.955 161.242 140.675C161.242 139.342 161.462 138.262 161.902 137.435C162.355 136.595 162.975 135.982 163.762 135.595C164.548 135.195 165.448 134.995 166.462 134.995C167.142 134.995 167.748 135.062 168.282 135.195C168.815 135.328 169.268 135.488 169.642 135.675L168.902 137.655C168.488 137.495 168.075 137.362 167.662 137.255C167.248 137.135 166.848 137.075 166.462 137.075C165.862 137.075 165.362 137.208 164.962 137.475C164.575 137.742 164.288 138.142 164.102 138.675C163.915 139.195 163.822 139.855 163.822 140.655C163.822 141.428 163.915 142.075 164.102 142.595C164.302 143.115 164.595 143.508 164.982 143.775C165.368 144.028 165.848 144.155 166.422 144.155C167.035 144.155 167.575 144.082 168.042 143.935C168.508 143.788 168.948 143.588 169.362 143.335V145.515C168.948 145.768 168.502 145.948 168.022 146.055C167.555 146.175 166.968 146.235 166.262 146.235ZM180.321 137.135H176.761V146.035H174.261V137.135H170.721V135.195H180.321V137.135ZM187.41 139.475C188.463 139.475 189.33 139.595 190.01 139.835C190.703 140.062 191.216 140.408 191.55 140.875C191.896 141.342 192.07 141.928 192.07 142.635C192.07 143.328 191.91 143.928 191.59 144.435C191.27 144.942 190.77 145.335 190.09 145.615C189.423 145.895 188.543 146.035 187.45 146.035H182.39V135.195H184.91V139.475H187.41ZM189.55 142.695C189.55 142.175 189.356 141.815 188.97 141.615C188.583 141.415 188.023 141.315 187.29 141.315H184.91V144.215H187.33C187.983 144.215 188.516 144.102 188.93 143.875C189.343 143.635 189.55 143.242 189.55 142.695ZM194.438 143.475H196.998V146.035H194.438V143.475Z" fill="#C300FF"/>
<path d="M207.345 146.035H205.705V134.015C205.705 133.535 205.799 133.122 205.985 132.775C206.185 132.428 206.479 132.162 206.865 131.975C207.252 131.788 207.739 131.695 208.325 131.695H209.885V133.115H207.345V146.035ZM203.985 137.335V135.935H209.705V137.335H203.985ZM215.297 146.235C213.777 146.235 212.604 145.782 211.777 144.875C210.951 143.968 210.537 142.675 210.537 140.995C210.537 139.302 210.951 138.002 211.777 137.095C212.604 136.175 213.777 135.715 215.297 135.715C216.311 135.715 217.171 135.922 217.877 136.335C218.584 136.735 219.124 137.328 219.497 138.115C219.884 138.888 220.077 139.842 220.077 140.975C220.077 142.682 219.657 143.988 218.817 144.895C217.991 145.788 216.817 146.235 215.297 146.235ZM215.297 144.815C216.364 144.815 217.151 144.488 217.657 143.835C218.177 143.168 218.437 142.222 218.437 140.995C218.437 139.768 218.177 138.822 217.657 138.155C217.151 137.475 216.364 137.135 215.297 137.135C214.244 137.135 213.457 137.475 212.937 138.155C212.431 138.822 212.177 139.768 212.177 140.995C212.177 142.222 212.431 143.168 212.937 143.835C213.457 144.488 214.244 144.815 215.297 144.815ZM229.204 135.935H230.844V146.035H229.204V144.495C228.884 145.002 228.484 145.422 228.004 145.755C227.537 146.075 226.897 146.235 226.084 146.235C224.977 146.235 224.104 145.928 223.464 145.315C222.824 144.688 222.504 143.662 222.504 142.235V135.935H224.144L224.124 142.175C224.124 143.135 224.331 143.815 224.744 144.215C225.157 144.615 225.744 144.815 226.504 144.815C227.051 144.815 227.524 144.715 227.924 144.515C228.324 144.315 228.637 144.002 228.864 143.575C229.091 143.135 229.204 142.568 229.204 141.875V135.935ZM235.591 146.035H233.951V135.935H235.591V137.715C235.831 137.142 236.164 136.702 236.591 136.395C237.031 136.088 237.577 135.935 238.231 135.935H239.131V137.335H238.011C237.224 137.335 236.624 137.562 236.211 138.015C235.797 138.468 235.591 139.148 235.591 140.055V146.035ZM250.377 146.235C248.751 146.235 247.537 145.782 246.737 144.875C245.937 143.955 245.537 142.655 245.537 140.975C245.537 139.295 245.951 138.002 246.777 137.095C247.604 136.175 248.791 135.715 250.337 135.715C251.124 135.715 251.817 135.855 252.417 136.135C253.017 136.402 253.504 136.775 253.877 137.255C254.251 137.735 254.477 138.295 254.557 138.935H252.897C252.817 138.415 252.584 137.988 252.197 137.655C251.824 137.308 251.211 137.135 250.357 137.135C249.224 137.135 248.411 137.475 247.917 138.155C247.424 138.822 247.177 139.762 247.177 140.975C247.177 142.188 247.424 143.135 247.917 143.815C248.411 144.482 249.224 144.815 250.357 144.815C251.171 144.815 251.777 144.675 252.177 144.395C252.577 144.102 252.817 143.668 252.897 143.095H254.597C254.517 143.682 254.304 144.215 253.957 144.695C253.624 145.162 253.151 145.535 252.537 145.815C251.937 146.095 251.217 146.235 250.377 146.235ZM261.118 146.235C259.598 146.235 258.424 145.782 257.598 144.875C256.771 143.968 256.358 142.675 256.358 140.995C256.358 139.302 256.771 138.002 257.598 137.095C258.424 136.175 259.598 135.715 261.118 135.715C262.131 135.715 262.991 135.922 263.698 136.335C264.404 136.735 264.944 137.328 265.318 138.115C265.704 138.888 265.898 139.842 265.898 140.975C265.898 142.682 265.478 143.988 264.638 144.895C263.811 145.788 262.638 146.235 261.118 146.235ZM261.118 144.815C262.184 144.815 262.971 144.488 263.478 143.835C263.998 143.168 264.258 142.222 264.258 140.995C264.258 139.768 263.998 138.822 263.478 138.155C262.971 137.475 262.184 137.135 261.118 137.135C260.064 137.135 259.278 137.475 258.758 138.155C258.251 138.822 257.998 139.768 257.998 140.995C257.998 142.222 258.251 143.168 258.758 143.835C259.278 144.488 260.064 144.815 261.118 144.815ZM270.024 146.035H268.384V135.935H270.024V137.475C270.344 136.955 270.738 136.535 271.204 136.215C271.684 135.882 272.331 135.715 273.144 135.715C274.251 135.715 275.124 136.028 275.764 136.655C276.404 137.268 276.724 138.288 276.724 139.715V146.035H275.064V139.775C275.064 138.815 274.864 138.135 274.464 137.735C274.064 137.335 273.484 137.135 272.724 137.135C272.178 137.135 271.698 137.235 271.284 137.435C270.884 137.635 270.571 137.948 270.344 138.375C270.131 138.802 270.024 139.375 270.024 140.095V146.035ZM279.791 143.815H281.971V146.035H279.791V143.815ZM294.484 146.235C293.538 146.235 292.691 146.042 291.944 145.655C291.211 145.268 290.631 144.668 290.204 143.855C289.791 143.042 289.584 142.002 289.584 140.735C289.584 139.415 289.804 138.342 290.244 137.515C290.684 136.688 291.278 136.082 292.024 135.695C292.784 135.308 293.644 135.115 294.604 135.115C295.151 135.115 295.678 135.175 296.184 135.295C296.691 135.402 297.104 135.535 297.424 135.695L296.884 137.155C296.564 137.035 296.191 136.922 295.764 136.815C295.338 136.708 294.938 136.655 294.564 136.655C293.844 136.655 293.251 136.808 292.784 137.115C292.318 137.422 291.971 137.875 291.744 138.475C291.518 139.075 291.404 139.822 291.404 140.715C291.404 141.568 291.518 142.295 291.744 142.895C291.971 143.495 292.311 143.948 292.764 144.255C293.218 144.562 293.784 144.715 294.464 144.715C295.051 144.715 295.564 144.655 296.004 144.535C296.458 144.415 296.871 144.268 297.244 144.095V145.655C296.884 145.842 296.484 145.982 296.044 146.075C295.618 146.182 295.098 146.235 294.484 146.235ZM301.294 146.035H299.654V131.695H301.294V146.035ZM311.059 135.935H312.699V146.035H311.059V144.495C310.739 145.002 310.339 145.422 309.859 145.755C309.393 146.075 308.753 146.235 307.939 146.235C306.833 146.235 305.959 145.928 305.319 145.315C304.679 144.688 304.359 143.662 304.359 142.235V135.935H305.999L305.979 142.175C305.979 143.135 306.186 143.815 306.599 144.215C307.013 144.615 307.599 144.815 308.359 144.815C308.906 144.815 309.379 144.715 309.779 144.515C310.179 144.315 310.493 144.002 310.719 143.575C310.946 143.135 311.059 142.568 311.059 141.875V135.935ZM321.526 138.595C321.446 138.075 321.232 137.702 320.886 137.475C320.552 137.235 320.046 137.115 319.366 137.115C318.632 137.115 318.072 137.248 317.686 137.515C317.312 137.768 317.126 138.102 317.126 138.515C317.126 138.942 317.272 139.262 317.566 139.475C317.872 139.688 318.332 139.868 318.946 140.015L320.546 140.415C321.492 140.642 322.192 140.982 322.646 141.435C323.099 141.888 323.326 142.488 323.326 143.235C323.326 144.102 322.986 144.822 322.306 145.395C321.626 145.955 320.592 146.235 319.206 146.235C317.966 146.235 317.012 145.988 316.346 145.495C315.679 145.002 315.286 144.242 315.166 143.215H316.886C316.966 143.762 317.166 144.168 317.486 144.435C317.806 144.688 318.366 144.815 319.166 144.815C320.072 144.815 320.712 144.682 321.086 144.415C321.472 144.135 321.666 143.775 321.666 143.335C321.666 142.922 321.526 142.595 321.246 142.355C320.966 142.102 320.512 141.895 319.886 141.735L318.286 141.335C317.366 141.108 316.672 140.775 316.206 140.335C315.739 139.882 315.506 139.308 315.506 138.615C315.506 137.722 315.832 137.015 316.486 136.495C317.152 135.975 318.112 135.715 319.366 135.715C320.526 135.715 321.419 135.962 322.046 136.455C322.686 136.935 323.046 137.648 323.126 138.595H321.526ZM330.287 137.335H327.967V144.635H330.247V146.035H328.887C328.073 146.035 327.44 145.875 326.987 145.555C326.547 145.222 326.327 144.608 326.327 143.715V137.335H324.587V135.935H326.327V132.915H327.967V135.935H330.287V137.335ZM332.372 140.255H339.172C339.159 139.215 338.912 138.428 338.432 137.895C337.966 137.362 337.252 137.095 336.292 137.095C335.226 137.095 334.446 137.422 333.952 138.075C333.459 138.715 333.212 139.668 333.212 140.935C333.212 142.228 333.452 143.208 333.932 143.875C334.426 144.528 335.259 144.855 336.432 144.855C337.219 144.855 337.792 144.728 338.152 144.475C338.512 144.222 338.759 143.882 338.892 143.455H340.632C340.499 143.988 340.259 144.468 339.912 144.895C339.566 145.308 339.106 145.635 338.532 145.875C337.972 146.115 337.272 146.235 336.432 146.235C334.832 146.235 333.619 145.775 332.792 144.855C331.979 143.935 331.572 142.642 331.572 140.975C331.572 139.282 331.979 137.982 332.792 137.075C333.619 136.168 334.786 135.715 336.292 135.715C337.119 135.715 337.872 135.888 338.552 136.235C339.232 136.582 339.779 137.135 340.192 137.895C340.606 138.655 340.812 139.675 340.812 140.955V141.515H332.352L332.372 140.255ZM344.888 146.035H343.248V135.935H344.888V137.715C345.128 137.142 345.461 136.702 345.888 136.395C346.328 136.088 346.874 135.935 347.528 135.935H348.428V137.335H347.308C346.521 137.335 345.921 137.562 345.508 138.015C345.094 138.468 344.888 139.148 344.888 140.055V146.035ZM357.892 147.455H348.972V146.035H357.892V147.455ZM361.779 146.035H360.139V134.015C360.139 133.535 360.232 133.122 360.419 132.775C360.619 132.428 360.912 132.162 361.299 131.975C361.686 131.788 362.172 131.695 362.759 131.695H364.319V133.115H361.779V146.035ZM358.419 137.335V135.935H364.139V137.335H358.419ZM367.329 146.035H365.689V135.935H367.329V137.715C367.569 137.142 367.902 136.702 368.329 136.395C368.769 136.088 369.316 135.935 369.969 135.935H370.869V137.335H369.749C368.962 137.335 368.362 137.562 367.949 138.015C367.536 138.468 367.329 139.148 367.329 140.055V146.035ZM381.248 146.035H380.168C379.675 146.035 379.295 145.868 379.028 145.535C378.761 145.202 378.621 144.655 378.608 143.895L378.828 143.955C378.575 144.648 378.155 145.202 377.568 145.615C376.995 146.028 376.221 146.235 375.248 146.235C374.501 146.235 373.861 146.122 373.328 145.895C372.808 145.668 372.408 145.328 372.128 144.875C371.861 144.422 371.728 143.848 371.728 143.155C371.728 142.608 371.828 142.148 372.028 141.775C372.228 141.388 372.501 141.082 372.848 140.855C373.208 140.615 373.621 140.442 374.088 140.335C374.555 140.215 375.048 140.155 375.568 140.155H378.628V139.195C378.628 138.488 378.435 137.962 378.048 137.615C377.675 137.268 377.061 137.095 376.208 137.095C375.448 137.095 374.875 137.235 374.488 137.515C374.101 137.795 373.868 138.208 373.788 138.755H372.128C372.195 138.102 372.401 137.555 372.748 137.115C373.095 136.662 373.568 136.315 374.168 136.075C374.768 135.835 375.468 135.715 376.268 135.715C376.788 135.715 377.288 135.775 377.768 135.895C378.248 136.015 378.675 136.215 379.048 136.495C379.421 136.775 379.715 137.148 379.928 137.615C380.155 138.082 380.268 138.662 380.268 139.355V144.615H381.248V146.035ZM373.348 143.155C373.348 143.728 373.521 144.155 373.868 144.435C374.215 144.715 374.741 144.855 375.448 144.855C376.435 144.855 377.208 144.622 377.768 144.155C378.341 143.688 378.628 143.068 378.628 142.295V141.435H375.588C374.868 141.435 374.315 141.582 373.928 141.875C373.555 142.168 373.361 142.595 373.348 143.155ZM383.287 135.935H384.907V137.435C385.24 136.875 385.653 136.455 386.147 136.175C386.64 135.882 387.22 135.735 387.887 135.735C388.633 135.735 389.26 135.902 389.767 136.235C390.273 136.555 390.627 137.062 390.827 137.755H390.927C391.273 137.062 391.7 136.555 392.207 136.235C392.727 135.902 393.36 135.735 394.107 135.735C394.6 135.735 395.053 135.808 395.467 135.955C395.88 136.102 396.233 136.335 396.527 136.655C396.82 136.962 397.047 137.375 397.207 137.895C397.38 138.402 397.467 139.015 397.467 139.735V146.035H395.807L395.827 139.795C395.827 138.808 395.64 138.122 395.267 137.735C394.907 137.348 394.347 137.155 393.587 137.155C392.84 137.155 392.253 137.388 391.827 137.855C391.4 138.308 391.187 139.055 391.187 140.095V146.035H389.547L389.567 139.795C389.567 139.128 389.48 138.602 389.307 138.215C389.147 137.828 388.907 137.555 388.587 137.395C388.267 137.235 387.86 137.155 387.367 137.155C386.593 137.155 385.987 137.382 385.547 137.835C385.12 138.288 384.907 139.035 384.907 140.075L384.927 146.035H383.287V135.935ZM400.673 140.255H407.473C407.46 139.215 407.213 138.428 406.733 137.895C406.266 137.362 405.553 137.095 404.593 137.095C403.526 137.095 402.746 137.422 402.253 138.075C401.76 138.715 401.513 139.668 401.513 140.935C401.513 142.228 401.753 143.208 402.233 143.875C402.726 144.528 403.56 144.855 404.733 144.855C405.52 144.855 406.093 144.728 406.453 144.475C406.813 144.222 407.06 143.882 407.193 143.455H408.933C408.8 143.988 408.56 144.468 408.213 144.895C407.866 145.308 407.406 145.635 406.833 145.875C406.273 146.115 405.573 146.235 404.733 146.235C403.133 146.235 401.92 145.775 401.093 144.855C400.28 143.935 399.873 142.642 399.873 140.975C399.873 139.282 400.28 137.982 401.093 137.075C401.92 136.168 403.086 135.715 404.593 135.715C405.42 135.715 406.173 135.888 406.853 136.235C407.533 136.582 408.08 137.135 408.493 137.895C408.906 138.655 409.113 139.675 409.113 140.955V141.515H400.653L400.673 140.255ZM409.979 135.935H411.639L414.139 144.315H414.199L416.479 135.935H418.399L420.679 144.275H420.759L423.259 135.935H424.899L421.639 146.035H419.779L417.479 137.635H417.359L415.039 146.035H413.199L409.979 135.935ZM430.59 146.235C429.07 146.235 427.897 145.782 427.07 144.875C426.243 143.968 425.83 142.675 425.83 140.995C425.83 139.302 426.243 138.002 427.07 137.095C427.897 136.175 429.07 135.715 430.59 135.715C431.603 135.715 432.463 135.922 433.17 136.335C433.877 136.735 434.417 137.328 434.79 138.115C435.177 138.888 435.37 139.842 435.37 140.975C435.37 142.682 434.95 143.988 434.11 144.895C433.283 145.788 432.11 146.235 430.59 146.235ZM430.59 144.815C431.657 144.815 432.443 144.488 432.95 143.835C433.47 143.168 433.73 142.222 433.73 140.995C433.73 139.768 433.47 138.822 432.95 138.155C432.443 137.475 431.657 137.135 430.59 137.135C429.537 137.135 428.75 137.475 428.23 138.155C427.723 138.822 427.47 139.768 427.47 140.995C427.47 142.222 427.723 143.168 428.23 143.835C428.75 144.488 429.537 144.815 430.59 144.815ZM439.497 146.035H437.857V135.935H439.497V137.715C439.737 137.142 440.07 136.702 440.497 136.395C440.937 136.088 441.484 135.935 442.137 135.935H443.037V137.335H441.917C441.13 137.335 440.53 137.562 440.117 138.015C439.704 138.468 439.497 139.148 439.497 140.055V146.035ZM448.334 139.475L453.594 146.035H451.554L447.174 140.475L448.334 139.475ZM446.274 146.035H444.634V131.695H446.274V146.035ZM445.734 140.815L450.774 135.935H452.854L445.734 142.695V140.815Z" fill="#A1A1A1"/>
<path d="M50.6846 198.579C51.587 198.48 52.5038 198.43 53.4324 198.43C65.3153 198.43 75.2618 206.72 77.8035 217.832" stroke="#00B6CC" stroke-width="2" stroke-linecap="round"/>
<path d="M43.6956 227.654H45.4396V229.43H43.6956V227.654ZM51.5929 229.59C50.8036 229.59 50.1209 229.467 49.5449 229.222C48.9796 228.976 48.5369 228.619 48.2169 228.15C47.9076 227.67 47.7369 227.094 47.7049 226.422H49.1449C49.1769 226.859 49.2836 227.227 49.4649 227.526C49.6569 227.824 49.9289 228.048 50.2809 228.198C50.6329 228.347 51.0756 228.422 51.6089 228.422C52.3876 228.422 52.9956 228.219 53.4329 227.814C53.8809 227.408 54.1049 226.816 54.1049 226.038C54.1049 225.28 53.8809 224.704 53.4329 224.31C52.9956 223.915 52.3769 223.718 51.5769 223.718H50.1689V222.742L54.0569 218.598L54.1689 219.286H48.2009V218.118H55.1929V219.126L51.4329 223.126L51.3849 222.55C52.1742 222.539 52.8302 222.64 53.3529 222.854C53.8862 223.056 54.3076 223.328 54.6169 223.67C54.9262 224.011 55.1449 224.39 55.2729 224.806C55.4116 225.211 55.4809 225.622 55.4809 226.038C55.4809 226.784 55.3209 227.424 55.0009 227.958C54.6809 228.48 54.2276 228.886 53.6409 229.174C53.0649 229.451 52.3822 229.59 51.5929 229.59ZM61.44 229.43H60.08V218.918L60.8 219.03L57.264 221.382V220.006L60.064 218.118H61.44V229.43Z" fill="#00B6CC"/>
<path d="M100.292 230.43V216.15H109.092V218.31H102.852V221.85H104.392C105.765 221.85 106.865 222.03 107.692 222.39C108.532 222.75 109.138 223.25 109.512 223.89C109.885 224.53 110.072 225.256 110.072 226.07C110.072 226.976 109.878 227.756 109.492 228.41C109.105 229.063 108.498 229.563 107.672 229.91C106.845 230.256 105.772 230.43 104.452 230.43H100.292ZM104.312 228.31C105.365 228.31 106.152 228.136 106.672 227.79C107.205 227.443 107.472 226.87 107.472 226.07C107.472 225.523 107.338 225.103 107.072 224.81C106.818 224.503 106.438 224.29 105.932 224.17C105.438 224.036 104.812 223.97 104.052 223.97H102.852V228.31H104.312ZM116.99 219.39C117.963 219.39 118.796 219.59 119.49 219.99C120.196 220.376 120.743 220.936 121.13 221.67C121.516 222.39 121.71 223.27 121.71 224.31V225.59H114.55C114.576 226.576 114.85 227.343 115.37 227.89C115.89 228.423 116.61 228.69 117.53 228.69C118.236 228.69 118.863 228.623 119.41 228.49C119.97 228.343 120.543 228.136 121.13 227.87V229.89C120.596 230.143 120.043 230.33 119.47 230.45C118.896 230.57 118.21 230.63 117.41 230.63C116.356 230.63 115.416 230.43 114.59 230.03C113.776 229.616 113.136 228.996 112.67 228.17C112.216 227.343 111.99 226.316 111.99 225.09C111.99 223.85 112.196 222.81 112.61 221.97C113.036 221.116 113.623 220.476 114.37 220.05C115.116 219.61 115.99 219.39 116.99 219.39ZM116.99 221.25C116.323 221.25 115.776 221.47 115.35 221.91C114.936 222.336 114.69 222.976 114.61 223.83H119.27C119.27 223.323 119.183 222.876 119.01 222.49C118.85 222.103 118.603 221.803 118.27 221.59C117.936 221.363 117.51 221.25 116.99 221.25ZM127.791 219.39C128.591 219.39 129.318 219.496 129.971 219.71C130.624 219.923 131.144 220.243 131.531 220.67C131.918 221.083 132.111 221.61 132.111 222.25C132.111 222.903 131.918 223.423 131.531 223.81C131.158 224.196 130.644 224.476 129.991 224.65V224.75C130.444 224.856 130.851 225.01 131.211 225.21C131.584 225.41 131.878 225.676 132.091 226.01C132.318 226.343 132.431 226.783 132.431 227.33C132.431 227.93 132.251 228.483 131.891 228.99C131.531 229.483 130.978 229.883 130.231 230.19C129.484 230.483 128.524 230.63 127.351 230.63C126.791 230.63 126.264 230.603 125.771 230.55C125.278 230.496 124.824 230.423 124.411 230.33C124.011 230.223 123.658 230.096 123.351 229.95V227.81C123.804 228.023 124.351 228.216 124.991 228.39C125.644 228.563 126.338 228.65 127.071 228.65C127.618 228.65 128.104 228.603 128.531 228.51C128.971 228.416 129.318 228.263 129.571 228.05C129.838 227.836 129.971 227.55 129.971 227.19C129.971 226.843 129.858 226.563 129.631 226.35C129.404 226.123 129.064 225.956 128.611 225.85C128.158 225.743 127.578 225.69 126.871 225.69H125.611V223.87H126.731C127.691 223.87 128.444 223.776 128.991 223.59C129.538 223.39 129.811 223.036 129.811 222.53C129.811 222.13 129.624 221.83 129.251 221.63C128.878 221.416 128.298 221.31 127.511 221.31C126.964 221.31 126.418 221.37 125.871 221.49C125.324 221.596 124.778 221.763 124.231 221.99L123.451 220.17C124.051 219.93 124.704 219.743 125.411 219.61C126.118 219.463 126.911 219.39 127.791 219.39ZM144.536 224.99C144.536 225.896 144.416 226.696 144.176 227.39C143.936 228.083 143.59 228.676 143.136 229.17C142.696 229.65 142.15 230.016 141.496 230.27C140.856 230.51 140.143 230.63 139.356 230.63C138.61 230.63 137.923 230.51 137.296 230.27C136.67 230.016 136.123 229.65 135.656 229.17C135.203 228.676 134.85 228.083 134.596 227.39C134.343 226.696 134.216 225.896 134.216 224.99C134.216 223.79 134.423 222.776 134.836 221.95C135.25 221.11 135.843 220.476 136.616 220.05C137.403 219.61 138.33 219.39 139.396 219.39C140.41 219.39 141.296 219.61 142.056 220.05C142.83 220.476 143.436 221.11 143.876 221.95C144.316 222.776 144.536 223.79 144.536 224.99ZM136.796 224.99C136.796 225.75 136.883 226.403 137.056 226.95C137.243 227.483 137.523 227.89 137.896 228.17C138.283 228.45 138.776 228.59 139.376 228.59C139.99 228.59 140.483 228.45 140.856 228.17C141.243 227.89 141.523 227.483 141.696 226.95C141.87 226.403 141.956 225.75 141.956 224.99C141.956 224.216 141.863 223.57 141.676 223.05C141.503 222.516 141.223 222.116 140.836 221.85C140.463 221.57 139.976 221.43 139.376 221.43C138.47 221.43 137.81 221.736 137.396 222.35C136.996 222.963 136.796 223.843 136.796 224.99ZM156.721 219.59V230.43H154.201V221.55H149.661V230.43H147.141V219.59H156.721ZM164.274 219.39C165.674 219.39 166.734 219.696 167.454 220.31C168.187 220.91 168.554 221.856 168.554 223.15V230.43H166.774L166.274 228.93H166.194C165.887 229.316 165.567 229.643 165.234 229.91C164.914 230.163 164.541 230.343 164.114 230.45C163.701 230.57 163.194 230.63 162.594 230.63C161.954 230.63 161.374 230.51 160.854 230.27C160.347 230.03 159.947 229.663 159.654 229.17C159.361 228.663 159.214 228.03 159.214 227.27C159.214 226.15 159.621 225.31 160.434 224.75C161.261 224.176 162.507 223.863 164.174 223.81L166.054 223.75V223.21C166.054 222.516 165.887 222.023 165.554 221.73C165.221 221.436 164.754 221.29 164.154 221.29C163.607 221.29 163.081 221.37 162.574 221.53C162.067 221.69 161.574 221.876 161.094 222.09L160.294 220.33C160.827 220.05 161.434 219.823 162.114 219.65C162.807 219.476 163.527 219.39 164.274 219.39ZM164.734 225.35C163.627 225.39 162.861 225.583 162.434 225.93C162.007 226.263 161.794 226.716 161.794 227.29C161.794 227.796 161.947 228.163 162.254 228.39C162.561 228.616 162.954 228.73 163.434 228.73C164.167 228.73 164.787 228.523 165.294 228.11C165.801 227.683 166.054 227.056 166.054 226.23V225.31L164.734 225.35ZM176.092 230.63C175.065 230.63 174.172 230.436 173.412 230.05C172.665 229.65 172.085 229.043 171.672 228.23C171.272 227.403 171.072 226.35 171.072 225.07C171.072 223.736 171.292 222.656 171.732 221.83C172.185 220.99 172.805 220.376 173.592 219.99C174.378 219.59 175.278 219.39 176.292 219.39C176.972 219.39 177.578 219.456 178.112 219.59C178.645 219.723 179.098 219.883 179.472 220.07L178.732 222.05C178.318 221.89 177.905 221.756 177.492 221.65C177.078 221.53 176.678 221.47 176.292 221.47C175.692 221.47 175.192 221.603 174.792 221.87C174.405 222.136 174.118 222.536 173.932 223.07C173.745 223.59 173.652 224.25 173.652 225.05C173.652 225.823 173.745 226.47 173.932 226.99C174.132 227.51 174.425 227.903 174.812 228.17C175.198 228.423 175.678 228.55 176.252 228.55C176.865 228.55 177.405 228.476 177.872 228.33C178.338 228.183 178.778 227.983 179.192 227.73V229.91C178.778 230.163 178.332 230.343 177.852 230.45C177.385 230.57 176.798 230.63 176.092 230.63ZM184.251 219.59V223.89H189.031V219.59H191.551V230.43H189.031V225.83H184.251V230.43H181.731V219.59H184.251ZM204.478 224.99C204.478 225.896 204.358 226.696 204.118 227.39C203.878 228.083 203.531 228.676 203.078 229.17C202.638 229.65 202.091 230.016 201.438 230.27C200.798 230.51 200.084 230.63 199.298 230.63C198.551 230.63 197.864 230.51 197.238 230.27C196.611 230.016 196.064 229.65 195.598 229.17C195.144 228.676 194.791 228.083 194.538 227.39C194.284 226.696 194.158 225.896 194.158 224.99C194.158 223.79 194.364 222.776 194.778 221.95C195.191 221.11 195.784 220.476 196.558 220.05C197.344 219.61 198.271 219.39 199.338 219.39C200.351 219.39 201.238 219.61 201.998 220.05C202.771 220.476 203.378 221.11 203.818 221.95C204.258 222.776 204.478 223.79 204.478 224.99ZM196.738 224.99C196.738 225.75 196.824 226.403 196.998 226.95C197.184 227.483 197.464 227.89 197.838 228.17C198.224 228.45 198.718 228.59 199.318 228.59C199.931 228.59 200.424 228.45 200.798 228.17C201.184 227.89 201.464 227.483 201.638 226.95C201.811 226.403 201.898 225.75 201.898 224.99C201.898 224.216 201.804 223.57 201.618 223.05C201.444 222.516 201.164 222.116 200.778 221.85C200.404 221.57 199.918 221.43 199.318 221.43C198.411 221.43 197.751 221.736 197.338 222.35C196.938 222.963 196.738 223.843 196.738 224.99ZM215.308 221.53H211.748V230.43H209.248V221.53H205.708V219.59H215.308V221.53ZM222.396 223.87C223.449 223.87 224.316 223.99 224.996 224.23C225.689 224.456 226.203 224.803 226.536 225.27C226.883 225.736 227.056 226.323 227.056 227.03C227.056 227.723 226.896 228.323 226.576 228.83C226.256 229.336 225.756 229.73 225.076 230.01C224.409 230.29 223.529 230.43 222.436 230.43H217.376V219.59H219.896V223.87H222.396ZM224.536 227.09C224.536 226.57 224.343 226.21 223.956 226.01C223.569 225.81 223.009 225.71 222.276 225.71H219.896V228.61H222.316C222.969 228.61 223.503 228.496 223.916 228.27C224.329 228.03 224.536 227.636 224.536 227.09ZM229.425 227.87H231.985V230.43H229.425V227.87Z" fill="#00B6CC"/>
<path d="M242.332 230.43H240.692V218.41C240.692 217.93 240.785 217.516 240.972 217.17C241.172 216.823 241.465 216.556 241.852 216.37C242.238 216.183 242.725 216.09 243.312 216.09H244.872V217.51H242.332V230.43ZM238.972 221.73V220.33H244.692V221.73H238.972ZM248.132 230.43H246.492V216.09H248.132V230.43ZM252.862 230.43H251.222V216.09H252.862V230.43ZM262.55 230.43H260.91V220.33H262.55V221.87C262.87 221.35 263.263 220.93 263.73 220.61C264.21 220.276 264.856 220.11 265.67 220.11C266.776 220.11 267.65 220.423 268.29 221.05C268.93 221.663 269.25 222.683 269.25 224.11V230.43H267.59V224.17C267.59 223.21 267.39 222.53 266.99 222.13C266.59 221.73 266.01 221.53 265.25 221.53C264.703 221.53 264.223 221.63 263.81 221.83C263.41 222.03 263.096 222.343 262.87 222.77C262.656 223.196 262.55 223.77 262.55 224.49V230.43ZM276.189 230.43H274.469L270.609 220.33H272.309L275.269 228.69H275.389L278.369 220.33H280.069L276.189 230.43ZM281.808 220.33H283.428V221.83C283.761 221.27 284.175 220.85 284.668 220.57C285.161 220.276 285.741 220.13 286.408 220.13C287.155 220.13 287.781 220.296 288.288 220.63C288.795 220.95 289.148 221.456 289.348 222.15H289.448C289.795 221.456 290.221 220.95 290.728 220.63C291.248 220.296 291.881 220.13 292.628 220.13C293.121 220.13 293.575 220.203 293.988 220.35C294.401 220.496 294.755 220.73 295.048 221.05C295.341 221.356 295.568 221.77 295.728 222.29C295.901 222.796 295.988 223.41 295.988 224.13V230.43H294.328L294.348 224.19C294.348 223.203 294.161 222.516 293.788 222.13C293.428 221.743 292.868 221.55 292.108 221.55C291.361 221.55 290.775 221.783 290.348 222.25C289.921 222.703 289.708 223.45 289.708 224.49V230.43H288.068L288.088 224.19C288.088 223.523 288.001 222.996 287.828 222.61C287.668 222.223 287.428 221.95 287.108 221.79C286.788 221.63 286.381 221.55 285.888 221.55C285.115 221.55 284.508 221.776 284.068 222.23C283.641 222.683 283.428 223.43 283.428 224.47L283.448 230.43H281.808V220.33ZM299.195 224.65H305.995C305.981 223.61 305.735 222.823 305.255 222.29C304.788 221.756 304.075 221.49 303.115 221.49C302.048 221.49 301.268 221.816 300.775 222.47C300.281 223.11 300.035 224.063 300.035 225.33C300.035 226.623 300.275 227.603 300.755 228.27C301.248 228.923 302.081 229.25 303.255 229.25C304.041 229.25 304.615 229.123 304.975 228.87C305.335 228.616 305.581 228.276 305.715 227.85H307.455C307.321 228.383 307.081 228.863 306.735 229.29C306.388 229.703 305.928 230.03 305.355 230.27C304.795 230.51 304.095 230.63 303.255 230.63C301.655 230.63 300.441 230.17 299.615 229.25C298.801 228.33 298.395 227.036 298.395 225.37C298.395 223.676 298.801 222.376 299.615 221.47C300.441 220.563 301.608 220.11 303.115 220.11C303.941 220.11 304.695 220.283 305.375 220.63C306.055 220.976 306.601 221.53 307.015 222.29C307.428 223.05 307.635 224.07 307.635 225.35V225.91H299.175L299.195 224.65ZM322.332 231.85H313.412V230.43H322.332V231.85ZM326.218 230.43H324.578V218.41C324.578 217.93 324.672 217.516 324.858 217.17C325.058 216.823 325.352 216.556 325.738 216.37C326.125 216.183 326.612 216.09 327.198 216.09H328.758V217.51H326.218V230.43ZM322.858 221.73V220.33H328.578V221.73H322.858ZM331.768 230.43H330.128V220.33H331.768V222.11C332.008 221.536 332.342 221.096 332.768 220.79C333.208 220.483 333.755 220.33 334.408 220.33H335.308V221.73H334.188C333.402 221.73 332.802 221.956 332.388 222.41C331.975 222.863 331.768 223.543 331.768 224.45V230.43ZM345.688 230.43H344.608C344.114 230.43 343.734 230.263 343.468 229.93C343.201 229.596 343.061 229.05 343.048 228.29L343.268 228.35C343.014 229.043 342.594 229.596 342.008 230.01C341.434 230.423 340.661 230.63 339.688 230.63C338.941 230.63 338.301 230.516 337.768 230.29C337.248 230.063 336.848 229.723 336.568 229.27C336.301 228.816 336.168 228.243 336.168 227.55C336.168 227.003 336.268 226.543 336.468 226.17C336.668 225.783 336.941 225.476 337.288 225.25C337.648 225.01 338.061 224.836 338.528 224.73C338.994 224.61 339.488 224.55 340.008 224.55H343.068V223.59C343.068 222.883 342.874 222.356 342.488 222.01C342.114 221.663 341.501 221.49 340.648 221.49C339.888 221.49 339.314 221.63 338.928 221.91C338.541 222.19 338.308 222.603 338.228 223.15H336.568C336.634 222.496 336.841 221.95 337.188 221.51C337.534 221.056 338.008 220.71 338.608 220.47C339.208 220.23 339.908 220.11 340.708 220.11C341.228 220.11 341.728 220.17 342.208 220.29C342.688 220.41 343.114 220.61 343.488 220.89C343.861 221.17 344.154 221.543 344.368 222.01C344.594 222.476 344.708 223.056 344.708 223.75V229.01H345.688V230.43ZM337.788 227.55C337.788 228.123 337.961 228.55 338.308 228.83C338.654 229.11 339.181 229.25 339.888 229.25C340.874 229.25 341.648 229.016 342.208 228.55C342.781 228.083 343.068 227.463 343.068 226.69V225.83H340.028C339.308 225.83 338.754 225.976 338.368 226.27C337.994 226.563 337.801 226.99 337.788 227.55ZM347.726 220.33H349.346V221.83C349.679 221.27 350.093 220.85 350.586 220.57C351.079 220.276 351.659 220.13 352.326 220.13C353.073 220.13 353.699 220.296 354.206 220.63C354.713 220.95 355.066 221.456 355.266 222.15H355.366C355.713 221.456 356.139 220.95 356.646 220.63C357.166 220.296 357.799 220.13 358.546 220.13C359.039 220.13 359.493 220.203 359.906 220.35C360.319 220.496 360.673 220.73 360.966 221.05C361.259 221.356 361.486 221.77 361.646 222.29C361.819 222.796 361.906 223.41 361.906 224.13V230.43H360.246L360.266 224.19C360.266 223.203 360.079 222.516 359.706 222.13C359.346 221.743 358.786 221.55 358.026 221.55C357.279 221.55 356.693 221.783 356.266 222.25C355.839 222.703 355.626 223.45 355.626 224.49V230.43H353.986L354.006 224.19C354.006 223.523 353.919 222.996 353.746 222.61C353.586 222.223 353.346 221.95 353.026 221.79C352.706 221.63 352.299 221.55 351.806 221.55C351.033 221.55 350.426 221.776 349.986 222.23C349.559 222.683 349.346 223.43 349.346 224.47L349.366 230.43H347.726V220.33ZM365.113 224.65H371.913C371.899 223.61 371.653 222.823 371.173 222.29C370.706 221.756 369.993 221.49 369.033 221.49C367.966 221.49 367.186 221.816 366.693 222.47C366.199 223.11 365.953 224.063 365.953 225.33C365.953 226.623 366.193 227.603 366.673 228.27C367.166 228.923 367.999 229.25 369.173 229.25C369.959 229.25 370.533 229.123 370.893 228.87C371.253 228.616 371.499 228.276 371.633 227.85H373.373C373.239 228.383 372.999 228.863 372.653 229.29C372.306 229.703 371.846 230.03 371.273 230.27C370.713 230.51 370.013 230.63 369.173 230.63C367.573 230.63 366.359 230.17 365.533 229.25C364.719 228.33 364.313 227.036 364.313 225.37C364.313 223.676 364.719 222.376 365.533 221.47C366.359 220.563 367.526 220.11 369.033 220.11C369.859 220.11 370.613 220.283 371.293 220.63C371.973 220.976 372.519 221.53 372.933 222.29C373.346 223.05 373.553 224.07 373.553 225.35V225.91H365.093L365.113 224.65ZM374.418 220.33H376.078L378.578 228.71H378.638L380.918 220.33H382.838L385.118 228.67H385.198L387.698 220.33H389.338L386.078 230.43H384.218L381.918 222.03H381.798L379.478 230.43H377.638L374.418 220.33ZM395.03 230.63C393.51 230.63 392.336 230.176 391.51 229.27C390.683 228.363 390.27 227.07 390.27 225.39C390.27 223.696 390.683 222.396 391.51 221.49C392.336 220.57 393.51 220.11 395.03 220.11C396.043 220.11 396.903 220.316 397.61 220.73C398.316 221.13 398.856 221.723 399.23 222.51C399.616 223.283 399.81 224.236 399.81 225.37C399.81 227.076 399.39 228.383 398.55 229.29C397.723 230.183 396.55 230.63 395.03 230.63ZM395.03 229.21C396.096 229.21 396.883 228.883 397.39 228.23C397.91 227.563 398.17 226.616 398.17 225.39C398.17 224.163 397.91 223.216 397.39 222.55C396.883 221.87 396.096 221.53 395.03 221.53C393.976 221.53 393.19 221.87 392.67 222.55C392.163 223.216 391.91 224.163 391.91 225.39C391.91 226.616 392.163 227.563 392.67 228.23C393.19 228.883 393.976 229.21 395.03 229.21ZM403.936 230.43H402.296V220.33H403.936V222.11C404.176 221.536 404.51 221.096 404.936 220.79C405.376 220.483 405.923 220.33 406.576 220.33H407.476V221.73H406.356C405.57 221.73 404.97 221.956 404.556 222.41C404.143 222.863 403.936 223.543 403.936 224.45V230.43ZM412.774 223.87L418.034 230.43H415.994L411.614 224.87L412.774 223.87ZM410.714 230.43H409.074V216.09H410.714V230.43ZM410.174 225.21L415.214 220.33H417.294L410.174 227.09V225.21Z" fill="#A1A1A1"/>
<path d="M49.0625 278.81C50.4814 278.56 51.9416 278.43 53.4322 278.43C61.0565 278.43 67.8837 281.843 72.4693 287.224" stroke="#00B6CC" stroke-width="2" stroke-linecap="round"/>
<path d="M43.6956 307.654H45.4396V309.43H43.6956V307.654ZM51.7369 309.43H50.3769V298.918L51.0969 299.03L47.5609 301.382V300.006L50.3609 298.118H51.7369V309.43ZM63.1014 301.702C63.1014 302.075 63.0427 302.454 62.9254 302.838C62.8081 303.222 62.6267 303.638 62.3814 304.086C62.1467 304.534 61.8321 305.067 61.4374 305.686L59.0054 309.43H57.4694L61.0854 304.038L61.1814 304.614C61.0107 304.72 60.8241 304.822 60.6214 304.918C60.4294 305.014 60.2161 305.094 59.9814 305.158C59.7574 305.211 59.5014 305.238 59.2134 305.238C58.4667 305.238 57.8161 305.088 57.2614 304.79C56.7174 304.491 56.2961 304.075 55.9974 303.542C55.6987 302.998 55.5494 302.358 55.5494 301.622C55.5494 300.875 55.6987 300.23 55.9974 299.686C56.2961 299.142 56.7281 298.72 57.2934 298.422C57.8587 298.112 58.5414 297.958 59.3414 297.958C60.5681 297.958 61.5014 298.299 62.1414 298.982C62.7921 299.664 63.1121 300.571 63.1014 301.702ZM61.7734 301.606C61.7734 300.838 61.5814 300.235 61.1974 299.798C60.8134 299.36 60.1947 299.142 59.3414 299.142C58.4987 299.142 57.8854 299.36 57.5014 299.798C57.1174 300.235 56.9254 300.838 56.9254 301.606C56.9254 302.374 57.1174 302.976 57.5014 303.414C57.8854 303.84 58.4987 304.054 59.3414 304.054C60.1094 304.054 60.7067 303.84 61.1334 303.414C61.5601 302.976 61.7734 302.374 61.7734 301.606Z" fill="#00B6CC"/>
<path d="M111.692 310.43H109.132V304.09H102.852V310.43H100.292V296.15H102.852V301.91H109.132V296.15H111.692V310.43ZM119.489 299.39C120.889 299.39 121.949 299.696 122.669 300.31C123.402 300.91 123.769 301.856 123.769 303.15V310.43H121.989L121.489 308.93H121.409C121.102 309.316 120.782 309.643 120.449 309.91C120.129 310.163 119.755 310.343 119.329 310.45C118.915 310.57 118.409 310.63 117.809 310.63C117.169 310.63 116.589 310.51 116.069 310.27C115.562 310.03 115.162 309.663 114.869 309.17C114.575 308.663 114.429 308.03 114.429 307.27C114.429 306.15 114.835 305.31 115.649 304.75C116.475 304.176 117.722 303.863 119.389 303.81L121.269 303.75V303.21C121.269 302.516 121.102 302.023 120.769 301.73C120.435 301.436 119.969 301.29 119.369 301.29C118.822 301.29 118.295 301.37 117.789 301.53C117.282 301.69 116.789 301.876 116.309 302.09L115.509 300.33C116.042 300.05 116.649 299.823 117.329 299.65C118.022 299.476 118.742 299.39 119.489 299.39ZM119.949 305.35C118.842 305.39 118.075 305.583 117.649 305.93C117.222 306.263 117.009 306.716 117.009 307.29C117.009 307.796 117.162 308.163 117.469 308.39C117.775 308.616 118.169 308.73 118.649 308.73C119.382 308.73 120.002 308.523 120.509 308.11C121.015 307.683 121.269 307.056 121.269 306.23V305.31L119.949 305.35ZM136.047 299.59V308.51H137.627V314.27H135.307V310.43H127.927V314.27H125.627V308.51H126.527C127.06 307.736 127.507 306.87 127.867 305.91C128.227 304.936 128.507 303.91 128.707 302.83C128.907 301.75 129.04 300.67 129.107 299.59H136.047ZM131.247 301.51C131.167 302.35 131.033 303.19 130.847 304.03C130.66 304.856 130.427 305.65 130.147 306.41C129.867 307.17 129.533 307.87 129.147 308.51H133.547V301.51H131.247ZM143.943 299.39C144.916 299.39 145.75 299.59 146.443 299.99C147.15 300.376 147.696 300.936 148.083 301.67C148.47 302.39 148.663 303.27 148.663 304.31V305.59H141.503C141.53 306.576 141.803 307.343 142.323 307.89C142.843 308.423 143.563 308.69 144.483 308.69C145.19 308.69 145.816 308.623 146.363 308.49C146.923 308.343 147.496 308.136 148.083 307.87V309.89C147.55 310.143 146.996 310.33 146.423 310.45C145.85 310.57 145.163 310.63 144.363 310.63C143.31 310.63 142.37 310.43 141.543 310.03C140.73 309.616 140.09 308.996 139.623 308.17C139.17 307.343 138.943 306.316 138.943 305.09C138.943 303.85 139.15 302.81 139.563 301.97C139.99 301.116 140.576 300.476 141.323 300.05C142.07 299.61 142.943 299.39 143.943 299.39ZM143.943 301.25C143.276 301.25 142.73 301.47 142.303 301.91C141.89 302.336 141.643 302.976 141.563 303.83H146.223C146.223 303.323 146.136 302.876 145.963 302.49C145.803 302.103 145.556 301.803 145.223 301.59C144.89 301.363 144.463 301.25 143.943 301.25ZM165.704 299.59L161.544 304.81L166.084 310.43H163.364L159.024 304.93V310.43H156.664V304.93L152.324 310.43H149.584L154.144 304.81L149.964 299.59H152.624L156.664 304.85V299.59H159.024V304.85L163.084 299.59H165.704ZM170.267 299.59V303.89H175.047V299.59H177.567V310.43H175.047V305.83H170.267V310.43H167.747V299.59H170.267ZM190.493 304.99C190.493 305.896 190.373 306.696 190.133 307.39C189.893 308.083 189.547 308.676 189.093 309.17C188.653 309.65 188.107 310.016 187.453 310.27C186.813 310.51 186.1 310.63 185.313 310.63C184.567 310.63 183.88 310.51 183.253 310.27C182.627 310.016 182.08 309.65 181.613 309.17C181.16 308.676 180.807 308.083 180.553 307.39C180.3 306.696 180.173 305.896 180.173 304.99C180.173 303.79 180.38 302.776 180.793 301.95C181.207 301.11 181.8 300.476 182.573 300.05C183.36 299.61 184.287 299.39 185.353 299.39C186.367 299.39 187.253 299.61 188.013 300.05C188.787 300.476 189.393 301.11 189.833 301.95C190.273 302.776 190.493 303.79 190.493 304.99ZM182.753 304.99C182.753 305.75 182.84 306.403 183.013 306.95C183.2 307.483 183.48 307.89 183.853 308.17C184.24 308.45 184.733 308.59 185.333 308.59C185.947 308.59 186.44 308.45 186.813 308.17C187.2 307.89 187.48 307.483 187.653 306.95C187.827 306.403 187.913 305.75 187.913 304.99C187.913 304.216 187.82 303.57 187.633 303.05C187.46 302.516 187.18 302.116 186.793 301.85C186.42 301.57 185.933 301.43 185.333 301.43C184.427 301.43 183.767 301.736 183.353 302.35C182.953 302.963 182.753 303.843 182.753 304.99ZM197.479 310.63C196.452 310.63 195.559 310.436 194.799 310.05C194.052 309.65 193.472 309.043 193.059 308.23C192.659 307.403 192.459 306.35 192.459 305.07C192.459 303.736 192.679 302.656 193.119 301.83C193.572 300.99 194.192 300.376 194.979 299.99C195.765 299.59 196.665 299.39 197.679 299.39C198.359 299.39 198.965 299.456 199.499 299.59C200.032 299.723 200.485 299.883 200.859 300.07L200.119 302.05C199.705 301.89 199.292 301.756 198.879 301.65C198.465 301.53 198.065 301.47 197.679 301.47C197.079 301.47 196.579 301.603 196.179 301.87C195.792 302.136 195.505 302.536 195.319 303.07C195.132 303.59 195.039 304.25 195.039 305.05C195.039 305.823 195.132 306.47 195.319 306.99C195.519 307.51 195.812 307.903 196.199 308.17C196.585 308.423 197.065 308.55 197.639 308.55C198.252 308.55 198.792 308.476 199.259 308.33C199.725 308.183 200.165 307.983 200.579 307.73V309.91C200.165 310.163 199.719 310.343 199.239 310.45C198.772 310.57 198.185 310.63 197.479 310.63ZM211.538 301.53H207.978V310.43H205.478V301.53H201.938V299.59H211.538V301.53ZM218.626 303.87C219.68 303.87 220.546 303.99 221.226 304.23C221.92 304.456 222.433 304.803 222.766 305.27C223.113 305.736 223.286 306.323 223.286 307.03C223.286 307.723 223.126 308.323 222.806 308.83C222.486 309.336 221.986 309.73 221.306 310.01C220.64 310.29 219.76 310.43 218.666 310.43H213.606V299.59H216.126V303.87H218.626ZM220.766 307.09C220.766 306.57 220.573 306.21 220.186 306.01C219.8 305.81 219.24 305.71 218.506 305.71H216.126V308.61H218.546C219.2 308.61 219.733 308.496 220.146 308.27C220.56 308.03 220.766 307.636 220.766 307.09ZM225.655 307.87H228.215V310.43H225.655V307.87Z" fill="#00B6CC"/>
<path d="M239.922 310.29C238.549 310.29 237.482 309.85 236.722 308.97C235.962 308.09 235.582 306.843 235.582 305.23C235.582 304.11 235.755 303.176 236.102 302.43C236.449 301.67 236.949 301.096 237.602 300.71C238.255 300.31 239.029 300.11 239.922 300.11C240.829 300.11 241.575 300.33 242.162 300.77C242.749 301.21 243.182 301.816 243.462 302.59C243.742 303.35 243.882 304.23 243.882 305.23C243.882 306.203 243.742 307.076 243.462 307.85C243.182 308.61 242.749 309.21 242.162 309.65C241.575 310.076 240.829 310.29 239.922 310.29ZM240.342 308.89C241.355 308.89 242.102 308.563 242.582 307.91C243.062 307.256 243.302 306.363 243.302 305.23C243.302 304.07 243.062 303.163 242.582 302.51C242.102 301.856 241.355 301.53 240.342 301.53C239.275 301.53 238.489 301.856 237.982 302.51C237.475 303.163 237.222 304.07 237.222 305.23C237.222 306.363 237.475 307.256 237.982 307.91C238.489 308.563 239.275 308.89 240.342 308.89ZM243.322 300.33H244.942V310.43H243.302V302.79L243.322 302.65V300.33ZM244.942 310.19C244.955 311.736 244.609 312.87 243.902 313.59C243.195 314.31 242.109 314.67 240.642 314.67C239.655 314.67 238.849 314.543 238.222 314.29C237.609 314.05 237.142 313.696 236.822 313.23C236.515 312.776 236.329 312.236 236.262 311.61H237.982C238.022 311.97 238.115 312.276 238.262 312.53C238.422 312.783 238.682 312.97 239.042 313.09C239.415 313.21 239.949 313.27 240.642 313.27C241.375 313.27 241.929 313.156 242.302 312.93C242.689 312.716 242.949 312.383 243.082 311.93C243.229 311.476 243.302 310.896 243.302 310.19H244.942ZM248.218 304.65H255.018C255.005 303.61 254.758 302.823 254.278 302.29C253.811 301.756 253.098 301.49 252.138 301.49C251.071 301.49 250.291 301.816 249.798 302.47C249.305 303.11 249.058 304.063 249.058 305.33C249.058 306.623 249.298 307.603 249.778 308.27C250.271 308.923 251.105 309.25 252.278 309.25C253.065 309.25 253.638 309.123 253.998 308.87C254.358 308.616 254.605 308.276 254.738 307.85H256.478C256.345 308.383 256.105 308.863 255.758 309.29C255.411 309.703 254.951 310.03 254.378 310.27C253.818 310.51 253.118 310.63 252.278 310.63C250.678 310.63 249.465 310.17 248.638 309.25C247.825 308.33 247.418 307.036 247.418 305.37C247.418 303.676 247.825 302.376 248.638 301.47C249.465 300.563 250.631 300.11 252.138 300.11C252.965 300.11 253.718 300.283 254.398 300.63C255.078 300.976 255.625 301.53 256.038 302.29C256.451 303.05 256.658 304.07 256.658 305.35V305.91H248.198L248.218 304.65ZM263.213 310.63C261.693 310.63 260.52 310.176 259.693 309.27C258.867 308.363 258.453 307.07 258.453 305.39C258.453 303.696 258.867 302.396 259.693 301.49C260.52 300.57 261.693 300.11 263.213 300.11C264.227 300.11 265.087 300.316 265.793 300.73C266.5 301.13 267.04 301.723 267.413 302.51C267.8 303.283 267.993 304.236 267.993 305.37C267.993 307.076 267.573 308.383 266.733 309.29C265.907 310.183 264.733 310.63 263.213 310.63ZM263.213 309.21C264.28 309.21 265.067 308.883 265.573 308.23C266.093 307.563 266.353 306.616 266.353 305.39C266.353 304.163 266.093 303.216 265.573 302.55C265.067 301.87 264.28 301.53 263.213 301.53C262.16 301.53 261.373 301.87 260.853 302.55C260.347 303.216 260.093 304.163 260.093 305.39C260.093 306.616 260.347 307.563 260.853 308.23C261.373 308.883 262.16 309.21 263.213 309.21ZM270.5 308.21H272.68V310.43H270.5V308.21ZM277.471 310.43H275.831V300.33H277.471V302.11C277.711 301.536 278.045 301.096 278.471 300.79C278.911 300.483 279.458 300.33 280.111 300.33H281.011V301.73H279.891C279.105 301.73 278.505 301.956 278.091 302.41C277.678 302.863 277.471 303.543 277.471 304.45V310.43ZM282.691 304.65H289.491C289.477 303.61 289.231 302.823 288.751 302.29C288.284 301.756 287.571 301.49 286.611 301.49C285.544 301.49 284.764 301.816 284.271 302.47C283.777 303.11 283.531 304.063 283.531 305.33C283.531 306.623 283.771 307.603 284.251 308.27C284.744 308.923 285.577 309.25 286.751 309.25C287.537 309.25 288.111 309.123 288.471 308.87C288.831 308.616 289.077 308.276 289.211 307.85H290.951C290.817 308.383 290.577 308.863 290.231 309.29C289.884 309.703 289.424 310.03 288.851 310.27C288.291 310.51 287.591 310.63 286.751 310.63C285.151 310.63 283.937 310.17 283.111 309.25C282.297 308.33 281.891 307.036 281.891 305.37C281.891 303.676 282.297 302.376 283.111 301.47C283.937 300.563 285.104 300.11 286.611 300.11C287.437 300.11 288.191 300.283 288.871 300.63C289.551 300.976 290.097 301.53 290.511 302.29C290.924 303.05 291.131 304.07 291.131 305.35V305.91H282.671L282.691 304.65ZM295.306 300.33V314.47H293.666V300.33H295.306ZM298.666 310.63C297.773 310.63 297.026 310.41 296.426 309.97C295.839 309.53 295.406 308.916 295.126 308.13C294.846 307.343 294.706 306.43 294.706 305.39C294.706 304.35 294.846 303.436 295.126 302.65C295.406 301.85 295.839 301.23 296.426 300.79C297.026 300.35 297.773 300.13 298.666 300.13C299.586 300.13 300.366 300.33 301.006 300.73C301.659 301.13 302.153 301.723 302.486 302.51C302.833 303.283 303.006 304.243 303.006 305.39C303.006 307.11 302.626 308.416 301.866 309.31C301.106 310.19 300.039 310.63 298.666 310.63ZM298.266 309.21C299.319 309.21 300.099 308.883 300.606 308.23C301.113 307.563 301.366 306.616 301.366 305.39C301.366 304.176 301.113 303.236 300.606 302.57C300.099 301.89 299.319 301.55 298.266 301.55C297.253 301.55 296.506 301.89 296.026 302.57C295.546 303.236 295.306 304.176 295.306 305.39C295.306 306.616 295.546 307.563 296.026 308.23C296.506 308.883 297.253 309.21 298.266 309.21ZM307.12 310.43H305.48V296.09H307.12V310.43ZM322.507 311.85H313.587V310.43H322.507V311.85ZM326.394 310.43H324.754V298.41C324.754 297.93 324.847 297.516 325.034 297.17C325.234 296.823 325.527 296.556 325.914 296.37C326.301 296.183 326.787 296.09 327.374 296.09H328.934V297.51H326.394V310.43ZM323.034 301.73V300.33H328.754V301.73H323.034ZM331.944 310.43H330.304V300.33H331.944V302.11C332.184 301.536 332.517 301.096 332.944 300.79C333.384 300.483 333.931 300.33 334.584 300.33H335.484V301.73H334.364C333.577 301.73 332.977 301.956 332.564 302.41C332.151 302.863 331.944 303.543 331.944 304.45V310.43ZM345.863 310.43H344.783C344.29 310.43 343.91 310.263 343.643 309.93C343.377 309.596 343.237 309.05 343.223 308.29L343.443 308.35C343.19 309.043 342.77 309.596 342.183 310.01C341.61 310.423 340.837 310.63 339.863 310.63C339.117 310.63 338.477 310.516 337.943 310.29C337.423 310.063 337.023 309.723 336.743 309.27C336.477 308.816 336.343 308.243 336.343 307.55C336.343 307.003 336.443 306.543 336.643 306.17C336.843 305.783 337.117 305.476 337.463 305.25C337.823 305.01 338.237 304.836 338.703 304.73C339.17 304.61 339.663 304.55 340.183 304.55H343.243V303.59C343.243 302.883 343.05 302.356 342.663 302.01C342.29 301.663 341.677 301.49 340.823 301.49C340.063 301.49 339.49 301.63 339.103 301.91C338.717 302.19 338.483 302.603 338.403 303.15H336.743C336.81 302.496 337.017 301.95 337.363 301.51C337.71 301.056 338.183 300.71 338.783 300.47C339.383 300.23 340.083 300.11 340.883 300.11C341.403 300.11 341.903 300.17 342.383 300.29C342.863 300.41 343.29 300.61 343.663 300.89C344.037 301.17 344.33 301.543 344.543 302.01C344.77 302.476 344.883 303.056 344.883 303.75V309.01H345.863V310.43ZM337.963 307.55C337.963 308.123 338.137 308.55 338.483 308.83C338.83 309.11 339.357 309.25 340.063 309.25C341.05 309.25 341.823 309.016 342.383 308.55C342.957 308.083 343.243 307.463 343.243 306.69V305.83H340.203C339.483 305.83 338.93 305.976 338.543 306.27C338.17 306.563 337.977 306.99 337.963 307.55ZM347.902 300.33H349.522V301.83C349.855 301.27 350.268 300.85 350.762 300.57C351.255 300.276 351.835 300.13 352.502 300.13C353.248 300.13 353.875 300.296 354.382 300.63C354.888 300.95 355.242 301.456 355.442 302.15H355.542C355.888 301.456 356.315 300.95 356.822 300.63C357.342 300.296 357.975 300.13 358.722 300.13C359.215 300.13 359.668 300.203 360.082 300.35C360.495 300.496 360.848 300.73 361.142 301.05C361.435 301.356 361.662 301.77 361.822 302.29C361.995 302.796 362.082 303.41 362.082 304.13V310.43H360.422L360.442 304.19C360.442 303.203 360.255 302.516 359.882 302.13C359.522 301.743 358.962 301.55 358.202 301.55C357.455 301.55 356.868 301.783 356.442 302.25C356.015 302.703 355.802 303.45 355.802 304.49V310.43H354.162L354.182 304.19C354.182 303.523 354.095 302.996 353.922 302.61C353.762 302.223 353.522 301.95 353.202 301.79C352.882 301.63 352.475 301.55 351.982 301.55C351.208 301.55 350.602 301.776 350.162 302.23C349.735 302.683 349.522 303.43 349.522 304.47L349.542 310.43H347.902V300.33ZM365.288 304.65H372.088C372.075 303.61 371.828 302.823 371.348 302.29C370.882 301.756 370.168 301.49 369.208 301.49C368.142 301.49 367.362 301.816 366.868 302.47C366.375 303.11 366.128 304.063 366.128 305.33C366.128 306.623 366.368 307.603 366.848 308.27C367.342 308.923 368.175 309.25 369.348 309.25C370.135 309.25 370.708 309.123 371.068 308.87C371.428 308.616 371.675 308.276 371.808 307.85H373.548C373.415 308.383 373.175 308.863 372.828 309.29C372.482 309.703 372.022 310.03 371.448 310.27C370.888 310.51 370.188 310.63 369.348 310.63C367.748 310.63 366.535 310.17 365.708 309.25C364.895 308.33 364.488 307.036 364.488 305.37C364.488 303.676 364.895 302.376 365.708 301.47C366.535 300.563 367.702 300.11 369.208 300.11C370.035 300.11 370.788 300.283 371.468 300.63C372.148 300.976 372.695 301.53 373.108 302.29C373.522 303.05 373.728 304.07 373.728 305.35V305.91H365.268L365.288 304.65ZM374.594 300.33H376.254L378.754 308.71H378.814L381.094 300.33H383.014L385.294 308.67H385.374L387.874 300.33H389.514L386.254 310.43H384.394L382.094 302.03H381.974L379.654 310.43H377.814L374.594 300.33ZM395.205 310.63C393.685 310.63 392.512 310.176 391.685 309.27C390.859 308.363 390.445 307.07 390.445 305.39C390.445 303.696 390.859 302.396 391.685 301.49C392.512 300.57 393.685 300.11 395.205 300.11C396.219 300.11 397.079 300.316 397.785 300.73C398.492 301.13 399.032 301.723 399.405 302.51C399.792 303.283 399.985 304.236 399.985 305.37C399.985 307.076 399.565 308.383 398.725 309.29C397.899 310.183 396.725 310.63 395.205 310.63ZM395.205 309.21C396.272 309.21 397.059 308.883 397.565 308.23C398.085 307.563 398.345 306.616 398.345 305.39C398.345 304.163 398.085 303.216 397.565 302.55C397.059 301.87 396.272 301.53 395.205 301.53C394.152 301.53 393.365 301.87 392.845 302.55C392.339 303.216 392.085 304.163 392.085 305.39C392.085 306.616 392.339 307.563 392.845 308.23C393.365 308.883 394.152 309.21 395.205 309.21ZM404.112 310.43H402.472V300.33H404.112V302.11C404.352 301.536 404.685 301.096 405.112 300.79C405.552 300.483 406.099 300.33 406.752 300.33H407.652V301.73H406.532C405.745 301.73 405.145 301.956 404.732 302.41C404.319 302.863 404.112 303.543 404.112 304.45V310.43ZM412.949 303.87L418.209 310.43H416.169L411.789 304.87L412.949 303.87ZM410.889 310.43H409.249V296.09H410.889V310.43ZM410.349 305.21L415.389 300.33H417.469L410.349 307.09V305.21Z" fill="#A1A1A1"/>
</svg>
