<svg width="860" height="349" viewBox="0 0 860 349" fill="none" xmlns="http://www.w3.org/2000/svg">
<rect x="4.93164" y="0.5" width="829.705" height="347.787" rx="9.5" stroke="#A1A1A1"/>
<rect x="27.9316" y="20.5" width="519" height="38" rx="7.5" stroke="#A1A1A1" stroke-opacity="0.81"/>
<circle cx="62.4316" cy="39.5" r="5" fill="#A1A1A1"/>
<path d="M82.8556 35.8H82.7756L79.4956 45H77.7356L81.9276 33.688H83.7676L87.9596 45H86.1196L82.8556 35.8ZM85.7836 42.072H79.8956V40.536H85.7836V42.072ZM90.937 45H89.209V33.512H90.937V45ZM95.0151 45H93.2871V33.512H95.0151V45Z" fill="#A1A1A1"/>
<circle cx="179.432" cy="39.5" r="5" fill="#C300FF"/>
<path d="M201.232 36.824H202.96V48.232H201.232V36.824ZM198.608 45.16C197.53 45.16 196.672 44.8027 196.032 44.088C195.402 43.3733 195.088 42.3173 195.088 40.92C195.088 39.96 195.232 39.1707 195.52 38.552C195.818 37.9227 196.229 37.4533 196.752 37.144C197.285 36.824 197.904 36.664 198.608 36.664C199.376 36.664 199.994 36.8507 200.464 37.224C200.944 37.5973 201.29 38.104 201.504 38.744C201.717 39.384 201.824 40.1093 201.824 40.92C201.824 41.7307 201.717 42.456 201.504 43.096C201.29 43.7253 200.944 44.2267 200.464 44.6C199.994 44.9733 199.376 45.16 198.608 45.16ZM199.056 43.736C199.802 43.736 200.352 43.496 200.704 43.016C201.056 42.536 201.232 41.8373 201.232 40.92C201.232 40.0027 201.056 39.304 200.704 38.824C200.352 38.3333 199.802 38.088 199.056 38.088C198.277 38.088 197.706 38.3333 197.344 38.824C196.992 39.304 196.816 40.0027 196.816 40.92C196.816 41.8373 196.992 42.536 197.344 43.016C197.706 43.496 198.277 43.736 199.056 43.736ZM209.429 45H207.653V34.648L208.917 34.712L204.917 37.352V35.576L207.781 33.688H209.429V45ZM213.242 42.952H215.29V45H213.242V42.952ZM217.294 43.784L221.102 39.816C221.518 39.3787 221.864 39 222.142 38.68C222.419 38.36 222.627 38.056 222.766 37.768C222.904 37.4693 222.974 37.1547 222.974 36.824C222.974 36.2053 222.803 35.752 222.462 35.464C222.12 35.176 221.656 35.032 221.07 35.032C220.44 35.032 219.96 35.192 219.63 35.512C219.31 35.832 219.139 36.328 219.118 37H217.358C217.358 36.296 217.512 35.688 217.822 35.176C218.142 34.6533 218.584 34.248 219.15 33.96C219.715 33.672 220.371 33.528 221.118 33.528C221.843 33.528 222.478 33.6667 223.022 33.944C223.566 34.2107 223.987 34.5893 224.286 35.08C224.584 35.5707 224.734 36.152 224.734 36.824C224.734 37.2613 224.648 37.6773 224.478 38.072C224.307 38.456 224.03 38.8773 223.646 39.336C223.262 39.784 222.75 40.3387 222.11 41L219.134 44.104L218.894 43.496H224.862V45H217.294V43.784ZM226.626 41.384C226.637 41.0213 226.696 40.6533 226.802 40.28C226.909 39.896 227.09 39.4747 227.346 39.016C227.602 38.5467 227.944 38.0133 228.37 37.416L231.074 33.688H233.058L228.882 39.4L228.866 38.376C228.973 38.2907 229.128 38.2053 229.33 38.12C229.544 38.0347 229.778 37.9653 230.034 37.912C230.29 37.848 230.546 37.816 230.802 37.816C231.517 37.816 232.146 37.9707 232.69 38.28C233.245 38.5893 233.677 39.016 233.986 39.56C234.296 40.104 234.45 40.7387 234.45 41.464C234.45 42.2 234.296 42.8507 233.986 43.416C233.677 43.9707 233.229 44.4027 232.642 44.712C232.056 45.0107 231.357 45.16 230.546 45.16C229.309 45.16 228.344 44.8187 227.65 44.136C226.957 43.4533 226.616 42.536 226.626 41.384ZM228.386 41.464C228.386 42.136 228.557 42.6747 228.898 43.08C229.24 43.4747 229.789 43.672 230.546 43.672C231.282 43.672 231.821 43.4747 232.162 43.08C232.514 42.6747 232.69 42.136 232.69 41.464C232.69 40.7813 232.514 40.2533 232.162 39.88C231.821 39.496 231.282 39.304 230.546 39.304C229.874 39.304 229.346 39.496 228.962 39.88C228.578 40.2533 228.386 40.7813 228.386 41.464Z" fill="#A1A1A1"/>
<circle cx="318.432" cy="39.5" r="5" fill="#00B6CC"/>
<path d="M340.232 36.824H341.96V48.232H340.232V36.824ZM337.608 45.16C336.53 45.16 335.672 44.8027 335.032 44.088C334.402 43.3733 334.088 42.3173 334.088 40.92C334.088 39.96 334.232 39.1707 334.52 38.552C334.818 37.9227 335.229 37.4533 335.752 37.144C336.285 36.824 336.904 36.664 337.608 36.664C338.376 36.664 338.994 36.8507 339.464 37.224C339.944 37.5973 340.29 38.104 340.504 38.744C340.717 39.384 340.824 40.1093 340.824 40.92C340.824 41.7307 340.717 42.456 340.504 43.096C340.29 43.7253 339.944 44.2267 339.464 44.6C338.994 44.9733 338.376 45.16 337.608 45.16ZM338.056 43.736C338.802 43.736 339.352 43.496 339.704 43.016C340.056 42.536 340.232 41.8373 340.232 40.92C340.232 40.0027 340.056 39.304 339.704 38.824C339.352 38.3333 338.802 38.088 338.056 38.088C337.277 38.088 336.706 38.3333 336.344 38.824C335.992 39.304 335.816 40.0027 335.816 40.92C335.816 41.8373 335.992 42.536 336.344 43.016C336.706 43.496 337.277 43.736 338.056 43.736ZM343.981 43.784L347.789 39.816C348.205 39.3787 348.552 39 348.829 38.68C349.107 38.36 349.315 38.056 349.453 37.768C349.592 37.4693 349.661 37.1547 349.661 36.824C349.661 36.2053 349.491 35.752 349.149 35.464C348.808 35.176 348.344 35.032 347.757 35.032C347.128 35.032 346.648 35.192 346.317 35.512C345.997 35.832 345.827 36.328 345.805 37H344.045C344.045 36.296 344.2 35.688 344.509 35.176C344.829 34.6533 345.272 34.248 345.837 33.96C346.403 33.672 347.059 33.528 347.805 33.528C348.531 33.528 349.165 33.6667 349.709 33.944C350.253 34.2107 350.675 34.5893 350.973 35.08C351.272 35.5707 351.421 36.152 351.421 36.824C351.421 37.2613 351.336 37.6773 351.165 38.072C350.995 38.456 350.717 38.8773 350.333 39.336C349.949 39.784 349.437 40.3387 348.797 41L345.821 44.104L345.581 43.496H351.549V45H343.981V43.784ZM353.57 42.952H355.618V45H353.57V42.952ZM357.622 43.784L361.43 39.816C361.846 39.3787 362.193 39 362.47 38.68C362.747 38.36 362.955 38.056 363.094 37.768C363.233 37.4693 363.302 37.1547 363.302 36.824C363.302 36.2053 363.131 35.752 362.79 35.464C362.449 35.176 361.985 35.032 361.398 35.032C360.769 35.032 360.289 35.192 359.958 35.512C359.638 35.832 359.467 36.328 359.446 37H357.686C357.686 36.296 357.841 35.688 358.15 35.176C358.47 34.6533 358.913 34.248 359.478 33.96C360.043 33.672 360.699 33.528 361.446 33.528C362.171 33.528 362.806 33.6667 363.35 33.944C363.894 34.2107 364.315 34.5893 364.614 35.08C364.913 35.5707 365.062 36.152 365.062 36.824C365.062 37.2613 364.977 37.6773 364.806 38.072C364.635 38.456 364.358 38.8773 363.974 39.336C363.59 39.784 363.078 40.3387 362.438 41L359.462 44.104L359.222 43.496H365.19V45H357.622V43.784ZM366.955 41.384C366.965 41.0213 367.024 40.6533 367.131 40.28C367.237 39.896 367.419 39.4747 367.675 39.016C367.931 38.5467 368.272 38.0133 368.699 37.416L371.403 33.688H373.387L369.211 39.4L369.195 38.376C369.301 38.2907 369.456 38.2053 369.659 38.12C369.872 38.0347 370.107 37.9653 370.363 37.912C370.619 37.848 370.875 37.816 371.131 37.816C371.845 37.816 372.475 37.9707 373.019 38.28C373.573 38.5893 374.005 39.016 374.315 39.56C374.624 40.104 374.779 40.7387 374.779 41.464C374.779 42.2 374.624 42.8507 374.315 43.416C374.005 43.9707 373.557 44.4027 372.971 44.712C372.384 45.0107 371.685 45.16 370.875 45.16C369.637 45.16 368.672 44.8187 367.979 44.136C367.285 43.4533 366.944 42.536 366.955 41.384ZM368.715 41.464C368.715 42.136 368.885 42.6747 369.227 43.08C369.568 43.4747 370.117 43.672 370.875 43.672C371.611 43.672 372.149 43.4747 372.491 43.08C372.843 42.6747 373.019 42.136 373.019 41.464C373.019 40.7813 372.843 40.2533 372.491 39.88C372.149 39.496 371.611 39.304 370.875 39.304C370.203 39.304 369.675 39.496 369.291 39.88C368.907 40.2533 368.715 40.7813 368.715 41.464Z" fill="#A1A1A1"/>
<circle cx="459.432" cy="39.5" r="5" fill="#FF00E6"/>
<path d="M481.232 36.824H482.96V48.232H481.232V36.824ZM478.608 45.16C477.53 45.16 476.672 44.8027 476.032 44.088C475.402 43.3733 475.088 42.3173 475.088 40.92C475.088 39.96 475.232 39.1707 475.52 38.552C475.818 37.9227 476.229 37.4533 476.752 37.144C477.285 36.824 477.904 36.664 478.608 36.664C479.376 36.664 479.994 36.8507 480.464 37.224C480.944 37.5973 481.29 38.104 481.504 38.744C481.717 39.384 481.824 40.1093 481.824 40.92C481.824 41.7307 481.717 42.456 481.504 43.096C481.29 43.7253 480.944 44.2267 480.464 44.6C479.994 44.9733 479.376 45.16 478.608 45.16ZM479.056 43.736C479.802 43.736 480.352 43.496 480.704 43.016C481.056 42.536 481.232 41.8373 481.232 40.92C481.232 40.0027 481.056 39.304 480.704 38.824C480.352 38.3333 479.802 38.088 479.056 38.088C478.277 38.088 477.706 38.3333 477.344 38.824C476.992 39.304 476.816 40.0027 476.816 40.92C476.816 41.8373 476.992 42.536 477.344 43.016C477.706 43.496 478.277 43.736 479.056 43.736ZM489.141 45.16C488.309 45.16 487.595 45.0267 486.997 44.76C486.4 44.4933 485.941 44.1147 485.621 43.624C485.312 43.1333 485.147 42.5627 485.125 41.912H486.949C486.981 42.2853 487.072 42.6053 487.221 42.872C487.371 43.128 487.6 43.3253 487.909 43.464C488.229 43.592 488.645 43.656 489.157 43.656C489.893 43.656 490.448 43.48 490.821 43.128C491.195 42.7653 491.381 42.232 491.381 41.528C491.381 40.8453 491.184 40.3333 490.789 39.992C490.395 39.6507 489.84 39.48 489.125 39.48H487.557V38.248L491.637 34.056L491.717 35.192H485.621V33.688H492.869V34.936L488.885 39L488.837 38.024C489.648 38.0027 490.331 38.088 490.885 38.28C491.44 38.472 491.883 38.7387 492.213 39.08C492.544 39.4107 492.779 39.7893 492.917 40.216C493.067 40.6427 493.141 41.08 493.141 41.528C493.141 42.2747 492.976 42.92 492.645 43.464C492.315 44.008 491.851 44.4293 491.253 44.728C490.656 45.016 489.952 45.16 489.141 45.16ZM495.242 42.952H497.29V45H495.242V42.952ZM499.294 43.784L503.102 39.816C503.518 39.3787 503.864 39 504.142 38.68C504.419 38.36 504.627 38.056 504.766 37.768C504.904 37.4693 504.974 37.1547 504.974 36.824C504.974 36.2053 504.803 35.752 504.462 35.464C504.12 35.176 503.656 35.032 503.07 35.032C502.44 35.032 501.96 35.192 501.63 35.512C501.31 35.832 501.139 36.328 501.118 37H499.358C499.358 36.296 499.512 35.688 499.822 35.176C500.142 34.6533 500.584 34.248 501.15 33.96C501.715 33.672 502.371 33.528 503.118 33.528C503.843 33.528 504.478 33.6667 505.022 33.944C505.566 34.2107 505.987 34.5893 506.286 35.08C506.584 35.5707 506.734 36.152 506.734 36.824C506.734 37.2613 506.648 37.6773 506.478 38.072C506.307 38.456 506.03 38.8773 505.646 39.336C505.262 39.784 504.75 40.3387 504.11 41L501.134 44.104L500.894 43.496H506.862V45H499.294V43.784ZM508.626 41.384C508.637 41.0213 508.696 40.6533 508.802 40.28C508.909 39.896 509.09 39.4747 509.346 39.016C509.602 38.5467 509.944 38.0133 510.37 37.416L513.074 33.688H515.058L510.882 39.4L510.866 38.376C510.973 38.2907 511.128 38.2053 511.33 38.12C511.544 38.0347 511.778 37.9653 512.034 37.912C512.29 37.848 512.546 37.816 512.802 37.816C513.517 37.816 514.146 37.9707 514.69 38.28C515.245 38.5893 515.677 39.016 515.986 39.56C516.296 40.104 516.45 40.7387 516.45 41.464C516.45 42.2 516.296 42.8507 515.986 43.416C515.677 43.9707 515.229 44.4027 514.642 44.712C514.056 45.0107 513.357 45.16 512.546 45.16C511.309 45.16 510.344 44.8187 509.65 44.136C508.957 43.4533 508.616 42.536 508.626 41.384ZM510.386 41.464C510.386 42.136 510.557 42.6747 510.898 43.08C511.24 43.4747 511.789 43.672 512.546 43.672C513.282 43.672 513.821 43.4747 514.162 43.08C514.514 42.6747 514.69 42.136 514.69 41.464C514.69 40.7813 514.514 40.2533 514.162 39.88C513.821 39.496 513.282 39.304 512.546 39.304C511.874 39.304 511.346 39.496 510.962 39.88C510.578 40.2533 510.386 40.7813 510.386 41.464Z" fill="#A1A1A1"/>
<path d="M64.7273 115.618C63.1503 114.801 61.4616 114.141 59.6756 113.662C56.1655 112.722 52.6298 112.577 49.2598 113.117" stroke="#C300FF" stroke-width="2" stroke-linecap="round"/>
<path d="M106.314 133.943C105.726 133.943 105.204 134.051 104.748 134.267C104.292 134.483 103.902 134.795 103.578 135.203C103.266 135.611 103.026 136.103 102.858 136.679C102.702 137.255 102.624 137.903 102.624 138.623C102.624 139.595 102.756 140.429 103.02 141.125C103.284 141.809 103.686 142.337 104.226 142.709C104.778 143.081 105.468 143.267 106.296 143.267C106.848 143.267 107.376 143.213 107.88 143.105C108.396 142.985 108.936 142.829 109.5 142.637V144.599C108.972 144.815 108.438 144.971 107.898 145.067C107.37 145.163 106.758 145.211 106.062 145.211C104.742 145.211 103.65 144.941 102.786 144.401C101.922 143.849 101.28 143.081 100.86 142.097C100.44 141.101 100.23 139.937 100.23 138.605C100.23 137.633 100.362 136.745 100.626 135.941C100.902 135.137 101.292 134.441 101.796 133.853C102.312 133.265 102.948 132.809 103.704 132.485C104.46 132.161 105.33 131.999 106.314 131.999C106.962 131.999 107.598 132.077 108.222 132.233C108.858 132.377 109.452 132.581 110.004 132.845L109.212 134.735C108.756 134.531 108.282 134.351 107.79 134.195C107.31 134.027 106.818 133.943 106.314 133.943ZM118.208 135.275H120.71L116.732 139.955L121.052 145.031H118.46L114.32 140.081V145.031H112.052V135.275H114.32V140.009L118.208 135.275ZM130.941 140.135C130.941 140.951 130.833 141.671 130.617 142.295C130.401 142.919 130.089 143.453 129.681 143.897C129.285 144.329 128.793 144.659 128.205 144.887C127.629 145.103 126.987 145.211 126.279 145.211C125.607 145.211 124.989 145.103 124.425 144.887C123.861 144.659 123.369 144.329 122.949 143.897C122.541 143.453 122.223 142.919 121.995 142.295C121.767 141.671 121.653 140.951 121.653 140.135C121.653 139.055 121.839 138.143 122.211 137.399C122.583 136.643 123.117 136.073 123.813 135.689C124.521 135.293 125.355 135.095 126.315 135.095C127.227 135.095 128.025 135.293 128.709 135.689C129.405 136.073 129.951 136.643 130.347 137.399C130.743 138.143 130.941 139.055 130.941 140.135ZM123.975 140.135C123.975 140.819 124.053 141.407 124.209 141.899C124.377 142.379 124.629 142.745 124.965 142.997C125.313 143.249 125.757 143.375 126.297 143.375C126.849 143.375 127.293 143.249 127.629 142.997C127.977 142.745 128.229 142.379 128.385 141.899C128.541 141.407 128.619 140.819 128.619 140.135C128.619 139.439 128.535 138.857 128.367 138.389C128.211 137.909 127.959 137.549 127.611 137.309C127.275 137.057 126.837 136.931 126.297 136.931C125.481 136.931 124.887 137.207 124.515 137.759C124.155 138.311 123.975 139.103 123.975 140.135ZM138.416 135.095C139.556 135.095 140.474 135.521 141.17 136.373C141.866 137.213 142.214 138.467 142.214 140.135C142.214 141.239 142.052 142.169 141.728 142.925C141.404 143.681 140.954 144.251 140.378 144.635C139.802 145.019 139.13 145.211 138.362 145.211C137.894 145.211 137.48 145.151 137.12 145.031C136.76 144.899 136.454 144.737 136.202 144.545C135.95 144.341 135.734 144.125 135.554 143.897H135.41C135.458 144.113 135.494 144.359 135.518 144.635C135.542 144.899 135.554 145.151 135.554 145.391V149.351H133.286V135.275H135.122L135.446 136.571H135.554C135.734 136.295 135.95 136.049 136.202 135.833C136.466 135.605 136.778 135.425 137.138 135.293C137.51 135.161 137.936 135.095 138.416 135.095ZM137.768 136.931C137.24 136.931 136.814 137.039 136.49 137.255C136.166 137.459 135.932 137.777 135.788 138.209C135.644 138.641 135.566 139.181 135.554 139.829V140.117C135.554 140.813 135.62 141.401 135.752 141.881C135.896 142.361 136.13 142.727 136.454 142.979C136.79 143.231 137.24 143.357 137.804 143.357C138.284 143.357 138.674 143.225 138.974 142.961C139.286 142.697 139.514 142.325 139.658 141.845C139.814 141.353 139.892 140.771 139.892 140.099C139.892 139.091 139.718 138.311 139.37 137.759C139.034 137.207 138.5 136.931 137.768 136.931ZM153.266 140.135C153.266 140.951 153.158 141.671 152.942 142.295C152.726 142.919 152.414 143.453 152.006 143.897C151.61 144.329 151.118 144.659 150.53 144.887C149.954 145.103 149.312 145.211 148.604 145.211C147.932 145.211 147.314 145.103 146.75 144.887C146.186 144.659 145.694 144.329 145.274 143.897C144.866 143.453 144.548 142.919 144.32 142.295C144.092 141.671 143.978 140.951 143.978 140.135C143.978 139.055 144.164 138.143 144.536 137.399C144.908 136.643 145.442 136.073 146.138 135.689C146.846 135.293 147.68 135.095 148.64 135.095C149.552 135.095 150.35 135.293 151.034 135.689C151.73 136.073 152.276 136.643 152.672 137.399C153.068 138.143 153.266 139.055 153.266 140.135ZM146.3 140.135C146.3 140.819 146.378 141.407 146.534 141.899C146.702 142.379 146.954 142.745 147.29 142.997C147.638 143.249 148.082 143.375 148.622 143.375C149.174 143.375 149.618 143.249 149.954 142.997C150.302 142.745 150.554 142.379 150.71 141.899C150.866 141.407 150.944 140.819 150.944 140.135C150.944 139.439 150.86 138.857 150.692 138.389C150.536 137.909 150.284 137.549 149.936 137.309C149.6 137.057 149.162 136.931 148.622 136.931C147.806 136.931 147.212 137.207 146.84 137.759C146.48 138.311 146.3 139.103 146.3 140.135ZM159.552 145.211C158.628 145.211 157.824 145.037 157.14 144.689C156.468 144.329 155.946 143.783 155.574 143.051C155.214 142.307 155.034 141.359 155.034 140.207C155.034 139.007 155.232 138.035 155.628 137.291C156.036 136.535 156.594 135.983 157.302 135.635C158.01 135.275 158.82 135.095 159.732 135.095C160.344 135.095 160.89 135.155 161.37 135.275C161.85 135.395 162.258 135.539 162.594 135.707L161.928 137.489C161.556 137.345 161.184 137.225 160.812 137.129C160.44 137.021 160.08 136.967 159.732 136.967C159.192 136.967 158.742 137.087 158.382 137.327C158.034 137.567 157.776 137.927 157.608 138.407C157.44 138.875 157.356 139.469 157.356 140.189C157.356 140.885 157.44 141.467 157.608 141.935C157.788 142.403 158.052 142.757 158.4 142.997C158.748 143.225 159.18 143.339 159.696 143.339C160.248 143.339 160.734 143.273 161.154 143.141C161.574 143.009 161.97 142.829 162.342 142.601V144.563C161.97 144.791 161.568 144.953 161.136 145.049C160.716 145.157 160.188 145.211 159.552 145.211ZM172.206 137.021H169.002V145.031H166.752V137.021H163.566V135.275H172.206V137.021ZM178.585 139.127C179.533 139.127 180.313 139.235 180.925 139.451C181.549 139.655 182.011 139.967 182.311 140.387C182.623 140.807 182.779 141.335 182.779 141.971C182.779 142.595 182.635 143.135 182.347 143.591C182.059 144.047 181.609 144.401 180.997 144.653C180.397 144.905 179.605 145.031 178.621 145.031H174.067V135.275H176.335V139.127H178.585ZM180.511 142.025C180.511 141.557 180.337 141.233 179.989 141.053C179.641 140.873 179.137 140.783 178.477 140.783H176.335V143.393H178.513C179.101 143.393 179.581 143.291 179.953 143.087C180.325 142.871 180.511 142.517 180.511 142.025ZM184.911 142.727H187.215V145.031H184.911V142.727Z" fill="#C300FF"/>
<path d="M196.528 145.031H195.052V134.213C195.052 133.781 195.136 133.409 195.304 133.097C195.484 132.785 195.748 132.545 196.096 132.377C196.444 132.209 196.882 132.125 197.41 132.125H198.814V133.403H196.528V145.031ZM193.504 137.201V135.941H198.652V137.201H193.504ZM203.684 145.211C202.316 145.211 201.26 144.803 200.516 143.987C199.772 143.171 199.4 142.007 199.4 140.495C199.4 138.971 199.772 137.801 200.516 136.985C201.26 136.157 202.316 135.743 203.684 135.743C204.596 135.743 205.37 135.929 206.006 136.301C206.642 136.661 207.128 137.195 207.464 137.903C207.812 138.599 207.986 139.457 207.986 140.477C207.986 142.013 207.608 143.189 206.852 144.005C206.108 144.809 205.052 145.211 203.684 145.211ZM203.684 143.933C204.644 143.933 205.352 143.639 205.808 143.051C206.276 142.451 206.51 141.599 206.51 140.495C206.51 139.391 206.276 138.539 205.808 137.939C205.352 137.327 204.644 137.021 203.684 137.021C202.736 137.021 202.028 137.327 201.56 137.939C201.104 138.539 200.876 139.391 200.876 140.495C200.876 141.599 201.104 142.451 201.56 143.051C202.028 143.639 202.736 143.933 203.684 143.933ZM216.2 135.941H217.676V145.031H216.2V143.645C215.912 144.101 215.552 144.479 215.12 144.779C214.7 145.067 214.124 145.211 213.392 145.211C212.396 145.211 211.61 144.935 211.034 144.383C210.458 143.819 210.17 142.895 210.17 141.611V135.941H211.646L211.628 141.557C211.628 142.421 211.814 143.033 212.186 143.393C212.558 143.753 213.086 143.933 213.77 143.933C214.262 143.933 214.688 143.843 215.048 143.663C215.408 143.483 215.69 143.201 215.894 142.817C216.098 142.421 216.2 141.911 216.2 141.287V135.941ZM221.948 145.031H220.472V135.941H221.948V137.543C222.164 137.027 222.464 136.631 222.848 136.355C223.244 136.079 223.736 135.941 224.324 135.941H225.134V137.201H224.126C223.418 137.201 222.878 137.405 222.506 137.813C222.134 138.221 221.948 138.833 221.948 139.649V145.031ZM235.472 145.211C234.62 145.211 233.858 145.037 233.186 144.689C232.526 144.341 232.004 143.801 231.62 143.069C231.248 142.337 231.062 141.401 231.062 140.261C231.062 139.073 231.26 138.107 231.656 137.363C232.052 136.619 232.586 136.073 233.258 135.725C233.942 135.377 234.716 135.203 235.58 135.203C236.072 135.203 236.546 135.257 237.002 135.365C237.458 135.461 237.83 135.581 238.118 135.725L237.632 137.039C237.344 136.931 237.008 136.829 236.624 136.733C236.24 136.637 235.88 136.589 235.544 136.589C234.896 136.589 234.362 136.727 233.942 137.003C233.522 137.279 233.21 137.687 233.006 138.227C232.802 138.767 232.7 139.439 232.7 140.243C232.7 141.011 232.802 141.665 233.006 142.205C233.21 142.745 233.516 143.153 233.924 143.429C234.332 143.705 234.842 143.843 235.454 143.843C235.982 143.843 236.444 143.789 236.84 143.681C237.248 143.573 237.62 143.441 237.956 143.285V144.689C237.632 144.857 237.272 144.983 236.876 145.067C236.492 145.163 236.024 145.211 235.472 145.211ZM241.601 145.031H240.125V132.125H241.601V145.031ZM250.39 135.941H251.866V145.031H250.39V143.645C250.102 144.101 249.742 144.479 249.31 144.779C248.89 145.067 248.314 145.211 247.582 145.211C246.586 145.211 245.8 144.935 245.224 144.383C244.648 143.819 244.36 142.895 244.36 141.611V135.941H245.836L245.818 141.557C245.818 142.421 246.004 143.033 246.376 143.393C246.748 143.753 247.276 143.933 247.96 143.933C248.452 143.933 248.878 143.843 249.238 143.663C249.598 143.483 249.88 143.201 250.084 142.817C250.288 142.421 250.39 141.911 250.39 141.287V135.941ZM259.809 138.335C259.737 137.867 259.545 137.531 259.233 137.327C258.933 137.111 258.477 137.003 257.865 137.003C257.205 137.003 256.701 137.123 256.353 137.363C256.017 137.591 255.849 137.891 255.849 138.263C255.849 138.647 255.981 138.935 256.245 139.127C256.521 139.319 256.935 139.481 257.487 139.613L258.927 139.973C259.779 140.177 260.409 140.483 260.817 140.891C261.225 141.299 261.429 141.839 261.429 142.511C261.429 143.291 261.123 143.939 260.511 144.455C259.899 144.959 258.969 145.211 257.721 145.211C256.605 145.211 255.747 144.989 255.147 144.545C254.547 144.101 254.193 143.417 254.085 142.493H255.633C255.705 142.985 255.885 143.351 256.173 143.591C256.461 143.819 256.965 143.933 257.685 143.933C258.501 143.933 259.077 143.813 259.413 143.573C259.761 143.321 259.935 142.997 259.935 142.601C259.935 142.229 259.809 141.935 259.557 141.719C259.305 141.491 258.897 141.305 258.333 141.161L256.893 140.801C256.065 140.597 255.441 140.297 255.021 139.901C254.601 139.493 254.391 138.977 254.391 138.353C254.391 137.549 254.685 136.913 255.273 136.445C255.873 135.977 256.737 135.743 257.865 135.743C258.909 135.743 259.713 135.965 260.277 136.409C260.853 136.841 261.177 137.483 261.249 138.335H259.809ZM267.694 137.201H265.606V143.771H267.658V145.031H266.434C265.702 145.031 265.132 144.887 264.724 144.599C264.328 144.299 264.13 143.747 264.13 142.943V137.201H262.564V135.941H264.13V133.223H265.606V135.941H267.694V137.201ZM269.571 139.829H275.691C275.679 138.893 275.457 138.185 275.025 137.705C274.605 137.225 273.963 136.985 273.099 136.985C272.139 136.985 271.437 137.279 270.993 137.867C270.549 138.443 270.327 139.301 270.327 140.441C270.327 141.605 270.543 142.487 270.975 143.087C271.419 143.675 272.169 143.969 273.225 143.969C273.933 143.969 274.449 143.855 274.773 143.627C275.097 143.399 275.319 143.093 275.439 142.709H277.005C276.885 143.189 276.669 143.621 276.357 144.005C276.045 144.377 275.631 144.671 275.115 144.887C274.611 145.103 273.981 145.211 273.225 145.211C271.785 145.211 270.693 144.797 269.949 143.969C269.217 143.141 268.851 141.977 268.851 140.477C268.851 138.953 269.217 137.783 269.949 136.967C270.693 136.151 271.743 135.743 273.099 135.743C273.843 135.743 274.521 135.899 275.133 136.211C275.745 136.523 276.237 137.021 276.609 137.705C276.981 138.389 277.167 139.307 277.167 140.459V140.963H269.553L269.571 139.829ZM280.835 145.031H279.359V135.941H280.835V137.543C281.051 137.027 281.351 136.631 281.735 136.355C282.131 136.079 282.623 135.941 283.211 135.941H284.021V137.201H283.013C282.305 137.201 281.765 137.405 281.393 137.813C281.021 138.221 280.835 138.833 280.835 139.649V145.031ZM292.539 146.309H284.511V145.031H292.539V146.309ZM296.037 145.031H294.561V134.213C294.561 133.781 294.645 133.409 294.813 133.097C294.993 132.785 295.257 132.545 295.605 132.377C295.953 132.209 296.391 132.125 296.919 132.125H298.323V133.403H296.037V145.031ZM293.013 137.201V135.941H298.161V137.201H293.013ZM301.032 145.031H299.556V135.941H301.032V137.543C301.248 137.027 301.548 136.631 301.932 136.355C302.328 136.079 302.82 135.941 303.408 135.941H304.218V137.201H303.21C302.502 137.201 301.962 137.405 301.59 137.813C301.218 138.221 301.032 138.833 301.032 139.649V145.031ZM313.56 145.031H312.588C312.144 145.031 311.802 144.881 311.562 144.581C311.322 144.281 311.196 143.789 311.184 143.105L311.382 143.159C311.154 143.783 310.776 144.281 310.248 144.653C309.732 145.025 309.036 145.211 308.16 145.211C307.488 145.211 306.912 145.109 306.432 144.905C305.964 144.701 305.604 144.395 305.352 143.987C305.112 143.579 304.992 143.063 304.992 142.439C304.992 141.947 305.082 141.533 305.262 141.197C305.442 140.849 305.688 140.573 306 140.369C306.324 140.153 306.696 139.997 307.116 139.901C307.536 139.793 307.98 139.739 308.448 139.739H311.202V138.875C311.202 138.239 311.028 137.765 310.68 137.453C310.344 137.141 309.792 136.985 309.024 136.985C308.34 136.985 307.824 137.111 307.476 137.363C307.128 137.615 306.918 137.987 306.846 138.479H305.352C305.412 137.891 305.598 137.399 305.91 137.003C306.222 136.595 306.648 136.283 307.188 136.067C307.728 135.851 308.358 135.743 309.078 135.743C309.546 135.743 309.996 135.797 310.428 135.905C310.86 136.013 311.244 136.193 311.58 136.445C311.916 136.697 312.18 137.033 312.372 137.453C312.576 137.873 312.678 138.395 312.678 139.019V143.753H313.56V145.031ZM306.45 142.439C306.45 142.955 306.606 143.339 306.918 143.591C307.23 143.843 307.704 143.969 308.34 143.969C309.228 143.969 309.924 143.759 310.428 143.339C310.944 142.919 311.202 142.361 311.202 141.665V140.891H308.466C307.818 140.891 307.32 141.023 306.972 141.287C306.636 141.551 306.462 141.935 306.45 142.439ZM315.394 135.941H316.852V137.291C317.152 136.787 317.524 136.409 317.968 136.157C318.412 135.893 318.934 135.761 319.534 135.761C320.206 135.761 320.77 135.911 321.226 136.211C321.682 136.499 322 136.955 322.18 137.579H322.27C322.582 136.955 322.966 136.499 323.422 136.211C323.89 135.911 324.46 135.761 325.132 135.761C325.576 135.761 325.984 135.827 326.356 135.959C326.728 136.091 327.046 136.301 327.31 136.589C327.574 136.865 327.778 137.237 327.922 137.705C328.078 138.161 328.156 138.713 328.156 139.361V145.031H326.662L326.68 139.415C326.68 138.527 326.512 137.909 326.176 137.561C325.852 137.213 325.348 137.039 324.664 137.039C323.992 137.039 323.464 137.249 323.08 137.669C322.696 138.077 322.504 138.749 322.504 139.685V145.031H321.028L321.046 139.415C321.046 138.815 320.968 138.341 320.812 137.993C320.668 137.645 320.452 137.399 320.164 137.255C319.876 137.111 319.51 137.039 319.066 137.039C318.37 137.039 317.824 137.243 317.428 137.651C317.044 138.059 316.852 138.731 316.852 139.667L316.87 145.031H315.394V135.941ZM331.042 139.829H337.162C337.15 138.893 336.928 138.185 336.496 137.705C336.076 137.225 335.434 136.985 334.57 136.985C333.61 136.985 332.908 137.279 332.464 137.867C332.02 138.443 331.798 139.301 331.798 140.441C331.798 141.605 332.014 142.487 332.446 143.087C332.89 143.675 333.64 143.969 334.696 143.969C335.404 143.969 335.92 143.855 336.244 143.627C336.568 143.399 336.79 143.093 336.91 142.709H338.476C338.356 143.189 338.14 143.621 337.828 144.005C337.516 144.377 337.102 144.671 336.586 144.887C336.082 145.103 335.452 145.211 334.696 145.211C333.256 145.211 332.164 144.797 331.42 143.969C330.688 143.141 330.322 141.977 330.322 140.477C330.322 138.953 330.688 137.783 331.42 136.967C332.164 136.151 333.214 135.743 334.57 135.743C335.314 135.743 335.992 135.899 336.604 136.211C337.216 136.523 337.708 137.021 338.08 137.705C338.452 138.389 338.638 139.307 338.638 140.459V140.963H331.024L331.042 139.829ZM339.417 135.941H340.911L343.161 143.483H343.215L345.267 135.941H346.995L349.047 143.447H349.119L351.369 135.941H352.845L349.911 145.031H348.237L346.167 137.471H346.059L343.971 145.031H342.315L339.417 135.941ZM357.967 145.211C356.599 145.211 355.543 144.803 354.799 143.987C354.055 143.171 353.683 142.007 353.683 140.495C353.683 138.971 354.055 137.801 354.799 136.985C355.543 136.157 356.599 135.743 357.967 135.743C358.879 135.743 359.653 135.929 360.289 136.301C360.925 136.661 361.411 137.195 361.747 137.903C362.095 138.599 362.269 139.457 362.269 140.477C362.269 142.013 361.891 143.189 361.135 144.005C360.391 144.809 359.335 145.211 357.967 145.211ZM357.967 143.933C358.927 143.933 359.635 143.639 360.091 143.051C360.559 142.451 360.793 141.599 360.793 140.495C360.793 139.391 360.559 138.539 360.091 137.939C359.635 137.327 358.927 137.021 357.967 137.021C357.019 137.021 356.311 137.327 355.843 137.939C355.387 138.539 355.159 139.391 355.159 140.495C355.159 141.599 355.387 142.451 355.843 143.051C356.311 143.639 357.019 143.933 357.967 143.933ZM365.984 145.031H364.508V135.941H365.984V137.543C366.2 137.027 366.5 136.631 366.884 136.355C367.28 136.079 367.772 135.941 368.36 135.941H369.17V137.201H368.162C367.454 137.201 366.914 137.405 366.542 137.813C366.17 138.221 365.984 138.833 365.984 139.649V145.031ZM373.937 139.127L378.671 145.031H376.835L372.893 140.027L373.937 139.127ZM372.083 145.031H370.607V132.125H372.083V145.031ZM371.597 140.333L376.133 135.941H378.005L371.597 142.025V140.333Z" fill="#A1A1A1"/>
<path d="M50.6843 198.579C51.5867 198.48 52.5035 198.43 53.4322 198.43C65.3151 198.43 75.2616 206.72 77.8032 217.832" stroke="#00B6CC" stroke-width="2" stroke-linecap="round"/>
<path d="M43.6956 227.654H45.4396V229.43H43.6956V227.654ZM51.5929 229.59C50.8036 229.59 50.1209 229.467 49.5449 229.222C48.9796 228.976 48.5369 228.619 48.2169 228.15C47.9076 227.67 47.7369 227.094 47.7049 226.422H49.1449C49.1769 226.859 49.2836 227.227 49.4649 227.526C49.6569 227.824 49.9289 228.048 50.2809 228.198C50.6329 228.347 51.0756 228.422 51.6089 228.422C52.3876 228.422 52.9956 228.219 53.4329 227.814C53.8809 227.408 54.1049 226.816 54.1049 226.038C54.1049 225.28 53.8809 224.704 53.4329 224.31C52.9956 223.915 52.3769 223.718 51.5769 223.718H50.1689V222.742L54.0569 218.598L54.1689 219.286H48.2009V218.118H55.1929V219.126L51.4329 223.126L51.3849 222.55C52.1742 222.539 52.8302 222.64 53.3529 222.854C53.8862 223.056 54.3076 223.328 54.6169 223.67C54.9262 224.011 55.1449 224.39 55.2729 224.806C55.4116 225.211 55.4809 225.622 55.4809 226.038C55.4809 226.784 55.3209 227.424 55.0009 227.958C54.6809 228.48 54.2276 228.886 53.6409 229.174C53.0649 229.451 52.3822 229.59 51.5929 229.59ZM61.44 229.43H60.08V218.918L60.8 219.03L57.264 221.382V220.006L60.064 218.118H61.44V229.43Z" fill="#00B6CC"/>
<path d="M100.106 229.43V216.578H108.026V218.522H102.41V221.708H103.796C105.032 221.708 106.022 221.87 106.766 222.194C107.522 222.518 108.068 222.968 108.404 223.544C108.74 224.12 108.908 224.774 108.908 225.506C108.908 226.322 108.734 227.024 108.386 227.612C108.038 228.2 107.492 228.65 106.748 228.962C106.004 229.274 105.038 229.43 103.85 229.43H100.106ZM103.724 227.522C104.672 227.522 105.38 227.366 105.848 227.054C106.328 226.742 106.568 226.226 106.568 225.506C106.568 225.014 106.448 224.636 106.208 224.372C105.98 224.096 105.638 223.904 105.182 223.796C104.738 223.676 104.174 223.616 103.49 223.616H102.41V227.522H103.724ZM115.134 219.494C116.01 219.494 116.76 219.674 117.384 220.034C118.02 220.382 118.512 220.886 118.86 221.546C119.208 222.194 119.382 222.986 119.382 223.922V225.074H112.938C112.962 225.962 113.208 226.652 113.676 227.144C114.144 227.624 114.792 227.864 115.62 227.864C116.256 227.864 116.82 227.804 117.312 227.684C117.816 227.552 118.332 227.366 118.86 227.126V228.944C118.38 229.172 117.882 229.34 117.366 229.448C116.85 229.556 116.232 229.61 115.512 229.61C114.564 229.61 113.718 229.43 112.974 229.07C112.242 228.698 111.666 228.14 111.246 227.396C110.838 226.652 110.634 225.728 110.634 224.624C110.634 223.508 110.82 222.572 111.192 221.816C111.576 221.048 112.104 220.472 112.776 220.088C113.448 219.692 114.234 219.494 115.134 219.494ZM115.134 221.168C114.534 221.168 114.042 221.366 113.658 221.762C113.286 222.146 113.064 222.722 112.992 223.49H117.186C117.186 223.034 117.108 222.632 116.952 222.284C116.808 221.936 116.586 221.666 116.286 221.474C115.986 221.27 115.602 221.168 115.134 221.168ZM124.855 219.494C125.575 219.494 126.229 219.59 126.817 219.782C127.405 219.974 127.873 220.262 128.221 220.646C128.569 221.018 128.743 221.492 128.743 222.068C128.743 222.656 128.569 223.124 128.221 223.472C127.885 223.82 127.423 224.072 126.835 224.228V224.318C127.243 224.414 127.609 224.552 127.933 224.732C128.269 224.912 128.533 225.152 128.725 225.452C128.929 225.752 129.031 226.148 129.031 226.64C129.031 227.18 128.869 227.678 128.545 228.134C128.221 228.578 127.723 228.938 127.051 229.214C126.379 229.478 125.515 229.61 124.459 229.61C123.955 229.61 123.481 229.586 123.037 229.538C122.593 229.49 122.185 229.424 121.813 229.34C121.453 229.244 121.135 229.13 120.859 228.998V227.072C121.267 227.264 121.759 227.438 122.335 227.594C122.923 227.75 123.547 227.828 124.207 227.828C124.699 227.828 125.137 227.786 125.521 227.702C125.917 227.618 126.229 227.48 126.457 227.288C126.697 227.096 126.817 226.838 126.817 226.514C126.817 226.202 126.715 225.95 126.511 225.758C126.307 225.554 126.001 225.404 125.593 225.308C125.185 225.212 124.663 225.164 124.027 225.164H122.893V223.526H123.901C124.765 223.526 125.443 223.442 125.935 223.274C126.427 223.094 126.673 222.776 126.673 222.32C126.673 221.96 126.505 221.69 126.169 221.51C125.833 221.318 125.311 221.222 124.603 221.222C124.111 221.222 123.619 221.276 123.127 221.384C122.635 221.48 122.143 221.63 121.651 221.834L120.949 220.196C121.489 219.98 122.077 219.812 122.713 219.692C123.349 219.56 124.063 219.494 124.855 219.494ZM139.926 224.534C139.926 225.35 139.818 226.07 139.602 226.694C139.386 227.318 139.074 227.852 138.666 228.296C138.27 228.728 137.778 229.058 137.19 229.286C136.614 229.502 135.972 229.61 135.264 229.61C134.592 229.61 133.974 229.502 133.41 229.286C132.846 229.058 132.354 228.728 131.934 228.296C131.526 227.852 131.208 227.318 130.98 226.694C130.752 226.07 130.638 225.35 130.638 224.534C130.638 223.454 130.824 222.542 131.196 221.798C131.568 221.042 132.102 220.472 132.798 220.088C133.506 219.692 134.34 219.494 135.3 219.494C136.212 219.494 137.01 219.692 137.694 220.088C138.39 220.472 138.936 221.042 139.332 221.798C139.728 222.542 139.926 223.454 139.926 224.534ZM132.96 224.534C132.96 225.218 133.038 225.806 133.194 226.298C133.362 226.778 133.614 227.144 133.95 227.396C134.298 227.648 134.742 227.774 135.282 227.774C135.834 227.774 136.278 227.648 136.614 227.396C136.962 227.144 137.214 226.778 137.37 226.298C137.526 225.806 137.604 225.218 137.604 224.534C137.604 223.838 137.52 223.256 137.352 222.788C137.196 222.308 136.944 221.948 136.596 221.708C136.26 221.456 135.822 221.33 135.282 221.33C134.466 221.33 133.872 221.606 133.5 222.158C133.14 222.71 132.96 223.502 132.96 224.534ZM150.893 219.674V229.43H148.625V221.438H144.539V229.43H142.271V219.674H150.893ZM157.69 219.494C158.95 219.494 159.904 219.77 160.552 220.322C161.212 220.862 161.542 221.714 161.542 222.878V229.43H159.94L159.49 228.08H159.418C159.142 228.428 158.854 228.722 158.554 228.962C158.266 229.19 157.93 229.352 157.546 229.448C157.174 229.556 156.718 229.61 156.178 229.61C155.602 229.61 155.08 229.502 154.612 229.286C154.156 229.07 153.796 228.74 153.532 228.296C153.268 227.84 153.136 227.27 153.136 226.586C153.136 225.578 153.502 224.822 154.234 224.318C154.978 223.802 156.1 223.52 157.6 223.472L159.292 223.418V222.932C159.292 222.308 159.142 221.864 158.842 221.6C158.542 221.336 158.122 221.204 157.582 221.204C157.09 221.204 156.616 221.276 156.16 221.42C155.704 221.564 155.26 221.732 154.828 221.924L154.108 220.34C154.588 220.088 155.134 219.884 155.746 219.728C156.37 219.572 157.018 219.494 157.69 219.494ZM158.104 224.858C157.108 224.894 156.418 225.068 156.034 225.38C155.65 225.68 155.458 226.088 155.458 226.604C155.458 227.06 155.596 227.39 155.872 227.594C156.148 227.798 156.502 227.9 156.934 227.9C157.594 227.9 158.152 227.714 158.608 227.342C159.064 226.958 159.292 226.394 159.292 225.65V224.822L158.104 224.858ZM168.326 229.61C167.402 229.61 166.598 229.436 165.914 229.088C165.242 228.728 164.72 228.182 164.348 227.45C163.988 226.706 163.808 225.758 163.808 224.606C163.808 223.406 164.006 222.434 164.402 221.69C164.81 220.934 165.368 220.382 166.076 220.034C166.784 219.674 167.594 219.494 168.506 219.494C169.118 219.494 169.664 219.554 170.144 219.674C170.624 219.794 171.032 219.938 171.368 220.106L170.702 221.888C170.33 221.744 169.958 221.624 169.586 221.528C169.214 221.42 168.854 221.366 168.506 221.366C167.966 221.366 167.516 221.486 167.156 221.726C166.808 221.966 166.55 222.326 166.382 222.806C166.214 223.274 166.13 223.868 166.13 224.588C166.13 225.284 166.214 225.866 166.382 226.334C166.562 226.802 166.826 227.156 167.174 227.396C167.522 227.624 167.954 227.738 168.47 227.738C169.022 227.738 169.508 227.672 169.928 227.54C170.348 227.408 170.744 227.228 171.116 227V228.962C170.744 229.19 170.342 229.352 169.91 229.448C169.49 229.556 168.962 229.61 168.326 229.61ZM175.669 219.674V223.544H179.971V219.674H182.239V229.43H179.971V225.29H175.669V229.43H173.401V219.674H175.669ZM193.873 224.534C193.873 225.35 193.765 226.07 193.549 226.694C193.333 227.318 193.021 227.852 192.613 228.296C192.217 228.728 191.725 229.058 191.137 229.286C190.561 229.502 189.919 229.61 189.211 229.61C188.539 229.61 187.921 229.502 187.357 229.286C186.793 229.058 186.301 228.728 185.881 228.296C185.473 227.852 185.155 227.318 184.927 226.694C184.699 226.07 184.585 225.35 184.585 224.534C184.585 223.454 184.771 222.542 185.143 221.798C185.515 221.042 186.049 220.472 186.745 220.088C187.453 219.692 188.287 219.494 189.247 219.494C190.159 219.494 190.957 219.692 191.641 220.088C192.337 220.472 192.883 221.042 193.279 221.798C193.675 222.542 193.873 223.454 193.873 224.534ZM186.907 224.534C186.907 225.218 186.985 225.806 187.141 226.298C187.309 226.778 187.561 227.144 187.897 227.396C188.245 227.648 188.689 227.774 189.229 227.774C189.781 227.774 190.225 227.648 190.561 227.396C190.909 227.144 191.161 226.778 191.317 226.298C191.473 225.806 191.551 225.218 191.551 224.534C191.551 223.838 191.467 223.256 191.299 222.788C191.143 222.308 190.891 221.948 190.543 221.708C190.207 221.456 189.769 221.33 189.229 221.33C188.413 221.33 187.819 221.606 187.447 222.158C187.087 222.71 186.907 223.502 186.907 224.534ZM203.62 221.42H200.416V229.43H198.166V221.42H194.98V219.674H203.62V221.42ZM209.999 223.526C210.947 223.526 211.727 223.634 212.339 223.85C212.963 224.054 213.425 224.366 213.725 224.786C214.037 225.206 214.193 225.734 214.193 226.37C214.193 226.994 214.049 227.534 213.761 227.99C213.473 228.446 213.023 228.8 212.411 229.052C211.811 229.304 211.019 229.43 210.035 229.43H205.481V219.674H207.749V223.526H209.999ZM211.925 226.424C211.925 225.956 211.751 225.632 211.403 225.452C211.055 225.272 210.551 225.182 209.891 225.182H207.749V227.792H209.927C210.515 227.792 210.995 227.69 211.367 227.486C211.739 227.27 211.925 226.916 211.925 226.424ZM216.325 227.126H218.629V229.43H216.325V227.126Z" fill="#00B6CC"/>
<path d="M227.312 229.43H225.836V220.34H227.312V221.726C227.6 221.258 227.954 220.88 228.374 220.592C228.806 220.292 229.388 220.142 230.12 220.142C231.116 220.142 231.902 220.424 232.478 220.988C233.054 221.54 233.342 222.458 233.342 223.742V229.43H231.848V223.796C231.848 222.932 231.668 222.32 231.308 221.96C230.948 221.6 230.426 221.42 229.742 221.42C229.25 221.42 228.818 221.51 228.446 221.69C228.086 221.87 227.804 222.152 227.6 222.536C227.408 222.92 227.312 223.436 227.312 224.084V229.43ZM239.588 229.43H238.04L234.566 220.34H236.096L238.76 227.864H238.868L241.55 220.34H243.08L239.588 229.43ZM244.644 220.34H246.102V221.69C246.402 221.186 246.774 220.808 247.218 220.556C247.662 220.292 248.184 220.16 248.784 220.16C249.456 220.16 250.02 220.31 250.476 220.61C250.932 220.898 251.25 221.354 251.43 221.978H251.52C251.832 221.354 252.216 220.898 252.672 220.61C253.14 220.31 253.71 220.16 254.382 220.16C254.826 220.16 255.234 220.226 255.606 220.358C255.978 220.49 256.296 220.7 256.56 220.988C256.824 221.264 257.028 221.636 257.172 222.104C257.328 222.56 257.406 223.112 257.406 223.76V229.43H255.912L255.93 223.814C255.93 222.926 255.762 222.308 255.426 221.96C255.102 221.612 254.598 221.438 253.914 221.438C253.242 221.438 252.714 221.648 252.33 222.068C251.946 222.476 251.754 223.148 251.754 224.084V229.43H250.278L250.296 223.814C250.296 223.214 250.218 222.74 250.062 222.392C249.918 222.044 249.702 221.798 249.414 221.654C249.126 221.51 248.76 221.438 248.316 221.438C247.62 221.438 247.074 221.642 246.678 222.05C246.294 222.458 246.102 223.13 246.102 224.066L246.12 229.43H244.644V220.34ZM260.292 224.228H266.412C266.4 223.292 266.178 222.584 265.746 222.104C265.326 221.624 264.684 221.384 263.82 221.384C262.86 221.384 262.158 221.678 261.714 222.266C261.27 222.842 261.048 223.7 261.048 224.84C261.048 226.004 261.264 226.886 261.696 227.486C262.14 228.074 262.89 228.368 263.946 228.368C264.654 228.368 265.17 228.254 265.494 228.026C265.818 227.798 266.04 227.492 266.16 227.108H267.726C267.606 227.588 267.39 228.02 267.078 228.404C266.766 228.776 266.352 229.07 265.836 229.286C265.332 229.502 264.702 229.61 263.946 229.61C262.506 229.61 261.414 229.196 260.67 228.368C259.938 227.54 259.572 226.376 259.572 224.876C259.572 223.352 259.938 222.182 260.67 221.366C261.414 220.55 262.464 220.142 263.82 220.142C264.564 220.142 265.242 220.298 265.854 220.61C266.466 220.922 266.958 221.42 267.33 222.104C267.702 222.788 267.888 223.706 267.888 224.858V225.362H260.274L260.292 224.228ZM281.115 230.708H273.087V229.43H281.115V230.708ZM284.614 229.43H283.138V218.612C283.138 218.18 283.222 217.808 283.39 217.496C283.57 217.184 283.834 216.944 284.182 216.776C284.53 216.608 284.968 216.524 285.496 216.524H286.9V217.802H284.614V229.43ZM281.59 221.6V220.34H286.738V221.6H281.59ZM289.609 229.43H288.133V220.34H289.609V221.942C289.825 221.426 290.125 221.03 290.509 220.754C290.905 220.478 291.397 220.34 291.985 220.34H292.795V221.6H291.787C291.079 221.6 290.539 221.804 290.167 222.212C289.795 222.62 289.609 223.232 289.609 224.048V229.43ZM302.136 229.43H301.164C300.72 229.43 300.378 229.28 300.138 228.98C299.898 228.68 299.772 228.188 299.76 227.504L299.958 227.558C299.73 228.182 299.352 228.68 298.824 229.052C298.308 229.424 297.612 229.61 296.736 229.61C296.064 229.61 295.488 229.508 295.008 229.304C294.54 229.1 294.18 228.794 293.928 228.386C293.688 227.978 293.568 227.462 293.568 226.838C293.568 226.346 293.658 225.932 293.838 225.596C294.018 225.248 294.264 224.972 294.576 224.768C294.9 224.552 295.272 224.396 295.692 224.3C296.112 224.192 296.556 224.138 297.024 224.138H299.778V223.274C299.778 222.638 299.604 222.164 299.256 221.852C298.92 221.54 298.368 221.384 297.6 221.384C296.916 221.384 296.4 221.51 296.052 221.762C295.704 222.014 295.494 222.386 295.422 222.878H293.928C293.988 222.29 294.174 221.798 294.486 221.402C294.798 220.994 295.224 220.682 295.764 220.466C296.304 220.25 296.934 220.142 297.654 220.142C298.122 220.142 298.572 220.196 299.004 220.304C299.436 220.412 299.82 220.592 300.156 220.844C300.492 221.096 300.756 221.432 300.948 221.852C301.152 222.272 301.254 222.794 301.254 223.418V228.152H302.136V229.43ZM295.026 226.838C295.026 227.354 295.182 227.738 295.494 227.99C295.806 228.242 296.28 228.368 296.916 228.368C297.804 228.368 298.5 228.158 299.004 227.738C299.52 227.318 299.778 226.76 299.778 226.064V225.29H297.042C296.394 225.29 295.896 225.422 295.548 225.686C295.212 225.95 295.038 226.334 295.026 226.838ZM303.97 220.34H305.428V221.69C305.728 221.186 306.1 220.808 306.544 220.556C306.988 220.292 307.51 220.16 308.11 220.16C308.782 220.16 309.346 220.31 309.802 220.61C310.258 220.898 310.576 221.354 310.756 221.978H310.846C311.158 221.354 311.542 220.898 311.998 220.61C312.466 220.31 313.036 220.16 313.708 220.16C314.152 220.16 314.56 220.226 314.932 220.358C315.304 220.49 315.622 220.7 315.886 220.988C316.15 221.264 316.354 221.636 316.498 222.104C316.654 222.56 316.732 223.112 316.732 223.76V229.43H315.238L315.256 223.814C315.256 222.926 315.088 222.308 314.752 221.96C314.428 221.612 313.924 221.438 313.24 221.438C312.568 221.438 312.04 221.648 311.656 222.068C311.272 222.476 311.08 223.148 311.08 224.084V229.43H309.604L309.622 223.814C309.622 223.214 309.544 222.74 309.388 222.392C309.244 222.044 309.028 221.798 308.74 221.654C308.452 221.51 308.086 221.438 307.642 221.438C306.946 221.438 306.4 221.642 306.004 222.05C305.62 222.458 305.428 223.13 305.428 224.066L305.446 229.43H303.97V220.34ZM319.618 224.228H325.738C325.726 223.292 325.504 222.584 325.072 222.104C324.652 221.624 324.01 221.384 323.146 221.384C322.186 221.384 321.484 221.678 321.04 222.266C320.596 222.842 320.374 223.7 320.374 224.84C320.374 226.004 320.59 226.886 321.022 227.486C321.466 228.074 322.216 228.368 323.272 228.368C323.98 228.368 324.496 228.254 324.82 228.026C325.144 227.798 325.366 227.492 325.486 227.108H327.052C326.932 227.588 326.716 228.02 326.404 228.404C326.092 228.776 325.678 229.07 325.162 229.286C324.658 229.502 324.028 229.61 323.272 229.61C321.832 229.61 320.74 229.196 319.996 228.368C319.264 227.54 318.898 226.376 318.898 224.876C318.898 223.352 319.264 222.182 319.996 221.366C320.74 220.55 321.79 220.142 323.146 220.142C323.89 220.142 324.568 220.298 325.18 220.61C325.792 220.922 326.284 221.42 326.656 222.104C327.028 222.788 327.214 223.706 327.214 224.858V225.362H319.6L319.618 224.228ZM327.993 220.34H329.487L331.737 227.882H331.791L333.843 220.34H335.571L337.623 227.846H337.695L339.945 220.34H341.421L338.487 229.43H336.813L334.743 221.87H334.635L332.547 229.43H330.891L327.993 220.34ZM346.544 229.61C345.176 229.61 344.12 229.202 343.376 228.386C342.632 227.57 342.26 226.406 342.26 224.894C342.26 223.37 342.632 222.2 343.376 221.384C344.12 220.556 345.176 220.142 346.544 220.142C347.456 220.142 348.23 220.328 348.866 220.7C349.502 221.06 349.988 221.594 350.324 222.302C350.672 222.998 350.846 223.856 350.846 224.876C350.846 226.412 350.468 227.588 349.712 228.404C348.968 229.208 347.912 229.61 346.544 229.61ZM346.544 228.332C347.504 228.332 348.212 228.038 348.668 227.45C349.136 226.85 349.37 225.998 349.37 224.894C349.37 223.79 349.136 222.938 348.668 222.338C348.212 221.726 347.504 221.42 346.544 221.42C345.596 221.42 344.888 221.726 344.42 222.338C343.964 222.938 343.736 223.79 343.736 224.894C343.736 225.998 343.964 226.85 344.42 227.45C344.888 228.038 345.596 228.332 346.544 228.332ZM354.56 229.43H353.084V220.34H354.56V221.942C354.776 221.426 355.076 221.03 355.46 220.754C355.856 220.478 356.348 220.34 356.936 220.34H357.746V221.6H356.738C356.03 221.6 355.49 221.804 355.118 222.212C354.746 222.62 354.56 223.232 354.56 224.048V229.43ZM362.513 223.526L367.247 229.43H365.411L361.469 224.426L362.513 223.526ZM360.659 229.43H359.183V216.524H360.659V229.43ZM360.173 224.732L364.709 220.34H366.581L360.173 226.424V224.732Z" fill="#A1A1A1"/>
<path d="M49.0623 278.81C50.4812 278.56 51.9413 278.43 53.432 278.43C61.0563 278.43 67.8835 281.843 72.469 287.224" stroke="#00B6CC" stroke-width="2" stroke-linecap="round"/>
<path d="M43.6956 307.654H45.4396V309.43H43.6956V307.654ZM51.7369 309.43H50.3769V298.918L51.0969 299.03L47.5609 301.382V300.006L50.3609 298.118H51.7369V309.43ZM63.1014 301.702C63.1014 302.075 63.0427 302.454 62.9254 302.838C62.8081 303.222 62.6267 303.638 62.3814 304.086C62.1467 304.534 61.8321 305.067 61.4374 305.686L59.0054 309.43H57.4694L61.0854 304.038L61.1814 304.614C61.0107 304.72 60.8241 304.822 60.6214 304.918C60.4294 305.014 60.2161 305.094 59.9814 305.158C59.7574 305.211 59.5014 305.238 59.2134 305.238C58.4667 305.238 57.8161 305.088 57.2614 304.79C56.7174 304.491 56.2961 304.075 55.9974 303.542C55.6987 302.998 55.5494 302.358 55.5494 301.622C55.5494 300.875 55.6987 300.23 55.9974 299.686C56.2961 299.142 56.7281 298.72 57.2934 298.422C57.8587 298.112 58.5414 297.958 59.3414 297.958C60.5681 297.958 61.5014 298.299 62.1414 298.982C62.7921 299.664 63.1121 300.571 63.1014 301.702ZM61.7734 301.606C61.7734 300.838 61.5814 300.235 61.1974 299.798C60.8134 299.36 60.1947 299.142 59.3414 299.142C58.4987 299.142 57.8854 299.36 57.5014 299.798C57.1174 300.235 56.9254 300.838 56.9254 301.606C56.9254 302.374 57.1174 302.976 57.5014 303.414C57.8854 303.84 58.4987 304.054 59.3414 304.054C60.1094 304.054 60.7067 303.84 61.1334 303.414C61.5601 302.976 61.7734 302.374 61.7734 301.606Z" fill="#00B6CC"/>
<path d="M110.366 309.43H108.062V303.724H102.41V309.43H100.106V296.578H102.41V301.762H108.062V296.578H110.366V309.43ZM117.383 299.494C118.643 299.494 119.597 299.77 120.245 300.322C120.905 300.862 121.235 301.714 121.235 302.878V309.43H119.633L119.183 308.08H119.111C118.835 308.428 118.547 308.722 118.247 308.962C117.959 309.19 117.623 309.352 117.239 309.448C116.867 309.556 116.411 309.61 115.871 309.61C115.295 309.61 114.773 309.502 114.305 309.286C113.849 309.07 113.489 308.74 113.225 308.296C112.961 307.84 112.829 307.27 112.829 306.586C112.829 305.578 113.195 304.822 113.927 304.318C114.671 303.802 115.793 303.52 117.293 303.472L118.985 303.418V302.932C118.985 302.308 118.835 301.864 118.535 301.6C118.235 301.336 117.815 301.204 117.275 301.204C116.783 301.204 116.309 301.276 115.853 301.42C115.397 301.564 114.953 301.732 114.521 301.924L113.801 300.34C114.281 300.088 114.827 299.884 115.439 299.728C116.063 299.572 116.711 299.494 117.383 299.494ZM117.797 304.858C116.801 304.894 116.111 305.068 115.727 305.38C115.343 305.68 115.151 306.088 115.151 306.604C115.151 307.06 115.289 307.39 115.565 307.594C115.841 307.798 116.195 307.9 116.627 307.9C117.287 307.9 117.845 307.714 118.301 307.342C118.757 306.958 118.985 306.394 118.985 305.65V304.822L117.797 304.858ZM132.285 299.674V307.702H133.707V312.886H131.619V309.43H124.977V312.886H122.907V307.702H123.717C124.197 307.006 124.599 306.226 124.923 305.362C125.247 304.486 125.499 303.562 125.679 302.59C125.859 301.618 125.979 300.646 126.039 299.674H132.285ZM127.965 301.402C127.893 302.158 127.773 302.914 127.605 303.67C127.437 304.414 127.227 305.128 126.975 305.812C126.723 306.496 126.423 307.126 126.075 307.702H130.035V301.402H127.965ZM139.392 299.494C140.268 299.494 141.018 299.674 141.642 300.034C142.278 300.382 142.77 300.886 143.118 301.546C143.466 302.194 143.64 302.986 143.64 303.922V305.074H137.196C137.22 305.962 137.466 306.652 137.934 307.144C138.402 307.624 139.05 307.864 139.878 307.864C140.514 307.864 141.078 307.804 141.57 307.684C142.074 307.552 142.59 307.366 143.118 307.126V308.944C142.638 309.172 142.14 309.34 141.624 309.448C141.108 309.556 140.49 309.61 139.77 309.61C138.822 309.61 137.976 309.43 137.232 309.07C136.5 308.698 135.924 308.14 135.504 307.396C135.096 306.652 134.892 305.728 134.892 304.624C134.892 303.508 135.078 302.572 135.45 301.816C135.834 301.048 136.362 300.472 137.034 300.088C137.706 299.692 138.492 299.494 139.392 299.494ZM139.392 301.168C138.792 301.168 138.3 301.366 137.916 301.762C137.544 302.146 137.322 302.722 137.25 303.49H141.444C141.444 303.034 141.366 302.632 141.21 302.284C141.066 301.936 140.844 301.666 140.544 301.474C140.244 301.27 139.86 301.168 139.392 301.168ZM158.977 299.674L155.233 304.372L159.319 309.43H156.871L152.965 304.48V309.43H150.841V304.48L146.935 309.43H144.469L148.573 304.372L144.811 299.674H147.205L150.841 304.408V299.674H152.965V304.408L156.619 299.674H158.977ZM163.083 299.674V303.544H167.385V299.674H169.653V309.43H167.385V305.29H163.083V309.43H160.815V299.674H163.083ZM181.287 304.534C181.287 305.35 181.179 306.07 180.963 306.694C180.747 307.318 180.435 307.852 180.027 308.296C179.631 308.728 179.139 309.058 178.551 309.286C177.975 309.502 177.333 309.61 176.625 309.61C175.953 309.61 175.335 309.502 174.771 309.286C174.207 309.058 173.715 308.728 173.295 308.296C172.887 307.852 172.569 307.318 172.341 306.694C172.113 306.07 171.999 305.35 171.999 304.534C171.999 303.454 172.185 302.542 172.557 301.798C172.929 301.042 173.463 300.472 174.159 300.088C174.867 299.692 175.701 299.494 176.661 299.494C177.573 299.494 178.371 299.692 179.055 300.088C179.751 300.472 180.297 301.042 180.693 301.798C181.089 302.542 181.287 303.454 181.287 304.534ZM174.321 304.534C174.321 305.218 174.399 305.806 174.555 306.298C174.723 306.778 174.975 307.144 175.311 307.396C175.659 307.648 176.103 307.774 176.643 307.774C177.195 307.774 177.639 307.648 177.975 307.396C178.323 307.144 178.575 306.778 178.731 306.298C178.887 305.806 178.965 305.218 178.965 304.534C178.965 303.838 178.881 303.256 178.713 302.788C178.557 302.308 178.305 301.948 177.957 301.708C177.621 301.456 177.183 301.33 176.643 301.33C175.827 301.33 175.233 301.606 174.861 302.158C174.501 302.71 174.321 303.502 174.321 304.534ZM187.574 309.61C186.65 309.61 185.846 309.436 185.162 309.088C184.49 308.728 183.968 308.182 183.596 307.45C183.236 306.706 183.056 305.758 183.056 304.606C183.056 303.406 183.254 302.434 183.65 301.69C184.058 300.934 184.616 300.382 185.324 300.034C186.032 299.674 186.842 299.494 187.754 299.494C188.366 299.494 188.912 299.554 189.392 299.674C189.872 299.794 190.28 299.938 190.616 300.106L189.95 301.888C189.578 301.744 189.206 301.624 188.834 301.528C188.462 301.42 188.102 301.366 187.754 301.366C187.214 301.366 186.764 301.486 186.404 301.726C186.056 301.966 185.798 302.326 185.63 302.806C185.462 303.274 185.378 303.868 185.378 304.588C185.378 305.284 185.462 305.866 185.63 306.334C185.81 306.802 186.074 307.156 186.422 307.396C186.77 307.624 187.202 307.738 187.718 307.738C188.27 307.738 188.756 307.672 189.176 307.54C189.596 307.408 189.992 307.228 190.364 307V308.962C189.992 309.19 189.59 309.352 189.158 309.448C188.738 309.556 188.21 309.61 187.574 309.61ZM200.227 301.42H197.023V309.43H194.773V301.42H191.587V299.674H200.227V301.42ZM206.607 303.526C207.555 303.526 208.335 303.634 208.947 303.85C209.571 304.054 210.033 304.366 210.333 304.786C210.645 305.206 210.801 305.734 210.801 306.37C210.801 306.994 210.657 307.534 210.369 307.99C210.081 308.446 209.631 308.8 209.019 309.052C208.419 309.304 207.627 309.43 206.643 309.43H202.089V299.674H204.357V303.526H206.607ZM208.533 306.424C208.533 305.956 208.359 305.632 208.011 305.452C207.663 305.272 207.159 305.182 206.499 305.182H204.357V307.792H206.535C207.123 307.792 207.603 307.69 207.975 307.486C208.347 307.27 208.533 306.916 208.533 306.424ZM212.933 307.126H215.237V309.43H212.933V307.126Z" fill="#00B6CC"/>
<path d="M225.773 309.304C224.537 309.304 223.577 308.908 222.893 308.116C222.209 307.324 221.867 306.202 221.867 304.75C221.867 303.742 222.023 302.902 222.335 302.23C222.647 301.546 223.097 301.03 223.685 300.682C224.273 300.322 224.969 300.142 225.773 300.142C226.589 300.142 227.261 300.34 227.789 300.736C228.317 301.132 228.707 301.678 228.959 302.374C229.211 303.058 229.337 303.85 229.337 304.75C229.337 305.626 229.211 306.412 228.959 307.108C228.707 307.792 228.317 308.332 227.789 308.728C227.261 309.112 226.589 309.304 225.773 309.304ZM226.151 308.044C227.063 308.044 227.735 307.75 228.167 307.162C228.599 306.574 228.815 305.77 228.815 304.75C228.815 303.706 228.599 302.89 228.167 302.302C227.735 301.714 227.063 301.42 226.151 301.42C225.191 301.42 224.483 301.714 224.027 302.302C223.571 302.89 223.343 303.706 223.343 304.75C223.343 305.77 223.571 306.574 224.027 307.162C224.483 307.75 225.191 308.044 226.151 308.044ZM228.833 300.34H230.291V309.43H228.815V302.554L228.833 302.428V300.34ZM230.291 309.214C230.303 310.606 229.991 311.626 229.355 312.274C228.719 312.922 227.741 313.246 226.421 313.246C225.533 313.246 224.807 313.132 224.243 312.904C223.691 312.688 223.271 312.37 222.983 311.95C222.707 311.542 222.539 311.056 222.479 310.492H224.027C224.063 310.816 224.147 311.092 224.279 311.32C224.423 311.548 224.657 311.716 224.981 311.824C225.317 311.932 225.797 311.986 226.421 311.986C227.081 311.986 227.579 311.884 227.915 311.68C228.263 311.488 228.497 311.188 228.617 310.78C228.749 310.372 228.815 309.85 228.815 309.214H230.291ZM233.239 304.228H239.359C239.347 303.292 239.125 302.584 238.693 302.104C238.273 301.624 237.631 301.384 236.767 301.384C235.807 301.384 235.105 301.678 234.661 302.266C234.217 302.842 233.995 303.7 233.995 304.84C233.995 306.004 234.211 306.886 234.643 307.486C235.087 308.074 235.837 308.368 236.893 308.368C237.601 308.368 238.117 308.254 238.441 308.026C238.765 307.798 238.987 307.492 239.107 307.108H240.673C240.553 307.588 240.337 308.02 240.025 308.404C239.713 308.776 239.299 309.07 238.783 309.286C238.279 309.502 237.649 309.61 236.893 309.61C235.453 309.61 234.361 309.196 233.617 308.368C232.885 307.54 232.519 306.376 232.519 304.876C232.519 303.352 232.885 302.182 233.617 301.366C234.361 300.55 235.411 300.142 236.767 300.142C237.511 300.142 238.189 300.298 238.801 300.61C239.413 300.922 239.905 301.42 240.277 302.104C240.649 302.788 240.835 303.706 240.835 304.858V305.362H233.221L233.239 304.228ZM246.735 309.61C245.367 309.61 244.311 309.202 243.567 308.386C242.823 307.57 242.451 306.406 242.451 304.894C242.451 303.37 242.823 302.2 243.567 301.384C244.311 300.556 245.367 300.142 246.735 300.142C247.647 300.142 248.421 300.328 249.057 300.7C249.693 301.06 250.179 301.594 250.515 302.302C250.863 302.998 251.037 303.856 251.037 304.876C251.037 306.412 250.659 307.588 249.903 308.404C249.159 309.208 248.103 309.61 246.735 309.61ZM246.735 308.332C247.695 308.332 248.403 308.038 248.859 307.45C249.327 306.85 249.561 305.998 249.561 304.894C249.561 303.79 249.327 302.938 248.859 302.338C248.403 301.726 247.695 301.42 246.735 301.42C245.787 301.42 245.079 301.726 244.611 302.338C244.155 302.938 243.927 303.79 243.927 304.894C243.927 305.998 244.155 306.85 244.611 307.45C245.079 308.038 245.787 308.332 246.735 308.332ZM253.293 307.432H255.255V309.43H253.293V307.432ZM259.568 309.43H258.092V300.34H259.568V301.942C259.784 301.426 260.084 301.03 260.468 300.754C260.864 300.478 261.356 300.34 261.944 300.34H262.754V301.6H261.746C261.038 301.6 260.498 301.804 260.126 302.212C259.754 302.62 259.568 303.232 259.568 304.048V309.43ZM264.265 304.228H270.385C270.373 303.292 270.151 302.584 269.719 302.104C269.299 301.624 268.657 301.384 267.793 301.384C266.833 301.384 266.131 301.678 265.687 302.266C265.243 302.842 265.021 303.7 265.021 304.84C265.021 306.004 265.237 306.886 265.669 307.486C266.113 308.074 266.863 308.368 267.919 308.368C268.627 308.368 269.143 308.254 269.467 308.026C269.791 307.798 270.013 307.492 270.133 307.108H271.699C271.579 307.588 271.363 308.02 271.051 308.404C270.739 308.776 270.325 309.07 269.809 309.286C269.305 309.502 268.675 309.61 267.919 309.61C266.479 309.61 265.387 309.196 264.643 308.368C263.911 307.54 263.545 306.376 263.545 304.876C263.545 303.352 263.911 302.182 264.643 301.366C265.387 300.55 266.437 300.142 267.793 300.142C268.537 300.142 269.215 300.298 269.827 300.61C270.439 300.922 270.931 301.42 271.303 302.104C271.675 302.788 271.861 303.706 271.861 304.858V305.362H264.247L264.265 304.228ZM275.618 300.34V313.066H274.142V300.34H275.618ZM278.642 309.61C277.838 309.61 277.166 309.412 276.626 309.016C276.098 308.62 275.708 308.068 275.456 307.36C275.204 306.652 275.078 305.83 275.078 304.894C275.078 303.958 275.204 303.136 275.456 302.428C275.708 301.708 276.098 301.15 276.626 300.754C277.166 300.358 277.838 300.16 278.642 300.16C279.47 300.16 280.172 300.34 280.748 300.7C281.336 301.06 281.78 301.594 282.08 302.302C282.392 302.998 282.548 303.862 282.548 304.894C282.548 306.442 282.206 307.618 281.522 308.422C280.838 309.214 279.878 309.61 278.642 309.61ZM278.282 308.332C279.23 308.332 279.932 308.038 280.388 307.45C280.844 306.85 281.072 305.998 281.072 304.894C281.072 303.802 280.844 302.956 280.388 302.356C279.932 301.744 279.23 301.438 278.282 301.438C277.37 301.438 276.698 301.744 276.266 302.356C275.834 302.956 275.618 303.802 275.618 304.894C275.618 305.998 275.834 306.85 276.266 307.45C276.698 308.038 277.37 308.332 278.282 308.332ZM286.251 309.43H284.775V296.524H286.251V309.43ZM300.1 310.708H292.072V309.43H300.1V310.708ZM303.598 309.43H302.122V298.612C302.122 298.18 302.206 297.808 302.374 297.496C302.554 297.184 302.818 296.944 303.166 296.776C303.514 296.608 303.952 296.524 304.48 296.524H305.884V297.802H303.598V309.43ZM300.574 301.6V300.34H305.722V301.6H300.574ZM308.593 309.43H307.117V300.34H308.593V301.942C308.809 301.426 309.109 301.03 309.493 300.754C309.889 300.478 310.381 300.34 310.969 300.34H311.779V301.6H310.771C310.063 301.6 309.523 301.804 309.151 302.212C308.779 302.62 308.593 303.232 308.593 304.048V309.43ZM321.12 309.43H320.148C319.704 309.43 319.362 309.28 319.122 308.98C318.882 308.68 318.756 308.188 318.744 307.504L318.942 307.558C318.714 308.182 318.336 308.68 317.808 309.052C317.292 309.424 316.596 309.61 315.72 309.61C315.048 309.61 314.472 309.508 313.992 309.304C313.524 309.1 313.164 308.794 312.912 308.386C312.672 307.978 312.552 307.462 312.552 306.838C312.552 306.346 312.642 305.932 312.822 305.596C313.002 305.248 313.248 304.972 313.56 304.768C313.884 304.552 314.256 304.396 314.676 304.3C315.096 304.192 315.54 304.138 316.008 304.138H318.762V303.274C318.762 302.638 318.588 302.164 318.24 301.852C317.904 301.54 317.352 301.384 316.584 301.384C315.9 301.384 315.384 301.51 315.036 301.762C314.688 302.014 314.478 302.386 314.406 302.878H312.912C312.972 302.29 313.158 301.798 313.47 301.402C313.782 300.994 314.208 300.682 314.748 300.466C315.288 300.25 315.918 300.142 316.638 300.142C317.106 300.142 317.556 300.196 317.988 300.304C318.42 300.412 318.804 300.592 319.14 300.844C319.476 301.096 319.74 301.432 319.932 301.852C320.136 302.272 320.238 302.794 320.238 303.418V308.152H321.12V309.43ZM314.01 306.838C314.01 307.354 314.166 307.738 314.478 307.99C314.79 308.242 315.264 308.368 315.9 308.368C316.788 308.368 317.484 308.158 317.988 307.738C318.504 307.318 318.762 306.76 318.762 306.064V305.29H316.026C315.378 305.29 314.88 305.422 314.532 305.686C314.196 305.95 314.022 306.334 314.01 306.838ZM322.955 300.34H324.413V301.69C324.713 301.186 325.085 300.808 325.529 300.556C325.973 300.292 326.495 300.16 327.095 300.16C327.767 300.16 328.331 300.31 328.787 300.61C329.243 300.898 329.561 301.354 329.741 301.978H329.831C330.143 301.354 330.527 300.898 330.983 300.61C331.451 300.31 332.021 300.16 332.693 300.16C333.137 300.16 333.545 300.226 333.917 300.358C334.289 300.49 334.607 300.7 334.871 300.988C335.135 301.264 335.339 301.636 335.483 302.104C335.639 302.56 335.717 303.112 335.717 303.76V309.43H334.223L334.241 303.814C334.241 302.926 334.073 302.308 333.737 301.96C333.413 301.612 332.909 301.438 332.225 301.438C331.553 301.438 331.025 301.648 330.641 302.068C330.257 302.476 330.065 303.148 330.065 304.084V309.43H328.589L328.607 303.814C328.607 303.214 328.529 302.74 328.373 302.392C328.229 302.044 328.013 301.798 327.725 301.654C327.437 301.51 327.071 301.438 326.627 301.438C325.931 301.438 325.385 301.642 324.989 302.05C324.605 302.458 324.413 303.13 324.413 304.066L324.431 309.43H322.955V300.34ZM338.603 304.228H344.723C344.711 303.292 344.489 302.584 344.057 302.104C343.637 301.624 342.995 301.384 342.131 301.384C341.171 301.384 340.469 301.678 340.025 302.266C339.581 302.842 339.359 303.7 339.359 304.84C339.359 306.004 339.575 306.886 340.007 307.486C340.451 308.074 341.201 308.368 342.257 308.368C342.965 308.368 343.481 308.254 343.805 308.026C344.129 307.798 344.351 307.492 344.471 307.108H346.037C345.917 307.588 345.701 308.02 345.389 308.404C345.077 308.776 344.663 309.07 344.147 309.286C343.643 309.502 343.013 309.61 342.257 309.61C340.817 309.61 339.725 309.196 338.981 308.368C338.249 307.54 337.883 306.376 337.883 304.876C337.883 303.352 338.249 302.182 338.981 301.366C339.725 300.55 340.775 300.142 342.131 300.142C342.875 300.142 343.553 300.298 344.165 300.61C344.777 300.922 345.269 301.42 345.641 302.104C346.013 302.788 346.199 303.706 346.199 304.858V305.362H338.585L338.603 304.228ZM346.978 300.34H348.472L350.722 307.882H350.776L352.828 300.34H354.556L356.608 307.846H356.68L358.93 300.34H360.406L357.472 309.43H355.798L353.728 301.87H353.62L351.532 309.43H349.876L346.978 300.34ZM365.528 309.61C364.16 309.61 363.104 309.202 362.36 308.386C361.616 307.57 361.244 306.406 361.244 304.894C361.244 303.37 361.616 302.2 362.36 301.384C363.104 300.556 364.16 300.142 365.528 300.142C366.44 300.142 367.214 300.328 367.85 300.7C368.486 301.06 368.972 301.594 369.308 302.302C369.656 302.998 369.83 303.856 369.83 304.876C369.83 306.412 369.452 307.588 368.696 308.404C367.952 309.208 366.896 309.61 365.528 309.61ZM365.528 308.332C366.488 308.332 367.196 308.038 367.652 307.45C368.12 306.85 368.354 305.998 368.354 304.894C368.354 303.79 368.12 302.938 367.652 302.338C367.196 301.726 366.488 301.42 365.528 301.42C364.58 301.42 363.872 301.726 363.404 302.338C362.948 302.938 362.72 303.79 362.72 304.894C362.72 305.998 362.948 306.85 363.404 307.45C363.872 308.038 364.58 308.332 365.528 308.332ZM373.544 309.43H372.068V300.34H373.544V301.942C373.76 301.426 374.06 301.03 374.444 300.754C374.84 300.478 375.332 300.34 375.92 300.34H376.73V301.6H375.722C375.014 301.6 374.474 301.804 374.102 302.212C373.73 302.62 373.544 303.232 373.544 304.048V309.43ZM381.498 303.526L386.232 309.43H384.396L380.454 304.426L381.498 303.526ZM379.644 309.43H378.168V296.524H379.644V309.43ZM379.158 304.732L383.694 300.34H385.566L379.158 306.424V304.732Z" fill="#A1A1A1"/>
<path d="M42.0199 141.224H43.7639V143H42.0199V141.224ZM49.8531 143.16C48.9038 143.16 48.1251 142.941 47.5171 142.504C46.9198 142.067 46.4824 141.416 46.2051 140.552C45.9384 139.688 45.8051 138.616 45.8051 137.336C45.8051 136.045 45.9438 134.973 46.2211 134.12C46.5091 133.267 46.9518 132.621 47.5491 132.184C48.1464 131.747 48.9144 131.528 49.8531 131.528C50.8131 131.528 51.5918 131.747 52.1891 132.184C52.7864 132.621 53.2238 133.267 53.5011 134.12C53.7891 134.973 53.9331 136.045 53.9331 137.336C53.9331 138.616 53.7891 139.688 53.5011 140.552C53.2238 141.416 52.7864 142.067 52.1891 142.504C51.5918 142.941 50.8131 143.16 49.8531 143.16ZM49.8531 141.976C50.8344 141.976 51.5331 141.608 51.9491 140.872C52.3651 140.125 52.5731 138.947 52.5731 137.336C52.5731 135.725 52.3651 134.552 51.9491 133.816C51.5331 133.069 50.8344 132.696 49.8531 132.696C48.9038 132.696 48.2211 133.069 47.8051 133.816C47.3891 134.552 47.1811 135.725 47.1811 137.336C47.1811 138.947 47.3838 140.125 47.7891 140.872C48.2051 141.608 48.8931 141.976 49.8531 141.976ZM63.2694 135.272C63.2694 135.645 63.2107 136.024 63.0934 136.408C62.976 136.792 62.7947 137.208 62.5494 137.656C62.3147 138.104 62 138.637 61.6054 139.256L59.1734 143H57.6374L61.2534 137.608L61.3494 138.184C61.1787 138.291 60.992 138.392 60.7894 138.488C60.5974 138.584 60.384 138.664 60.1494 138.728C59.9254 138.781 59.6694 138.808 59.3814 138.808C58.6347 138.808 57.984 138.659 57.4294 138.36C56.8854 138.061 56.464 137.645 56.1654 137.112C55.8667 136.568 55.7174 135.928 55.7174 135.192C55.7174 134.445 55.8667 133.8 56.1654 133.256C56.464 132.712 56.896 132.291 57.4614 131.992C58.0267 131.683 58.7094 131.528 59.5094 131.528C60.736 131.528 61.6694 131.869 62.3094 132.552C62.96 133.235 63.28 134.141 63.2694 135.272ZM61.9414 135.176C61.9414 134.408 61.7494 133.805 61.3654 133.368C60.9814 132.931 60.3627 132.712 59.5094 132.712C58.6667 132.712 58.0534 132.931 57.6694 133.368C57.2854 133.805 57.0934 134.408 57.0934 135.176C57.0934 135.944 57.2854 136.547 57.6694 136.984C58.0534 137.411 58.6667 137.624 59.5094 137.624C60.2774 137.624 60.8747 137.411 61.3014 136.984C61.728 136.547 61.9414 135.944 61.9414 135.176Z" fill="#C300FF"/>
</svg>
