<svg width="189" height="39" viewBox="0 0 189 39" fill="none" xmlns="http://www.w3.org/2000/svg">
<g clip-path="url(#clip0_1_2374)">
<path d="M25.337 15.8432C25.337 15.7705 25.4084 15.7705 25.4084 15.6979C25.4084 15.7705 25.337 15.8432 25.337 15.8432ZM49.3313 7.63091H29.336C28.4077 7.55823 27.6222 7.99428 27.3365 8.93907L25.337 15.8432L26.7652 7.92161C27.0509 6.90415 27.8364 6.54078 28.7647 6.54078H30.7642L31.6926 2.25294C32.0497 0.944779 31.6926 0 30.2644 0H20.3382C20.9809 0 21.1237 0.799428 20.9095 1.52618L18.6957 11.4101H15.4108L17.4103 2.25294C17.7674 0.944779 17.4103 0 15.9822 0H5.98452C6.62722 0 6.77004 0.799428 6.55581 1.52618L0.128783 30.4509C-0.228274 31.7591 0.128783 32.7039 1.55701 32.7039H11.626C10.9833 32.7039 10.8405 31.9045 11.0548 31.1777L13.7684 18.8955H17.0533L14.4825 30.4509C14.1254 31.7591 14.4825 32.7039 15.9107 32.7039H25.9797C25.337 32.7039 25.1942 31.9045 25.4084 31.1777L28.979 15.1165H32.1925L27.5508 36.1923C27.1937 37.5004 27.5508 38.4452 28.979 38.4452H39.048C38.4053 38.4452 38.2624 37.6458 38.4767 36.9191L43.3327 15.1165H47.0461C47.9744 15.1891 48.7599 14.7531 49.0456 13.8083L50.9737 6.97683C50.7594 7.48556 49.6169 7.63091 49.3313 7.63091Z" fill="#A1A1A1"/>
<path d="M62.8975 20.0581C62.0405 20.6395 61.7549 21.4389 61.5407 22.311L59.3269 32.1949C59.1127 33.0669 59.1127 33.8664 59.6839 34.4478H54.3282C55.185 33.8664 55.4707 33.0669 55.6135 32.1949L56.6133 27.7617H52.8999L51.9002 32.1949C51.6859 33.0669 51.6145 33.8664 52.2571 34.4478H46.9014C47.7582 33.8664 48.0439 33.0669 48.1867 32.1949L50.4005 22.311C50.6147 21.4389 50.6147 20.6395 50.0434 20.0581H55.3993C54.5424 20.6395 54.2567 21.4389 54.1139 22.311L53.3284 25.7268H57.0417L57.8273 22.311C58.0415 21.4389 58.0415 20.6395 57.4702 20.0581H62.8975Z" fill="#A1A1A1"/>
<path d="M69.3991 32.6315C70.8274 32.6315 73.0412 31.614 73.8266 27.9076C74.4693 24.9279 73.9694 21.8755 71.47 21.8755C69.6848 21.8755 67.5424 23.1837 66.7569 26.8175C65.9 30.8873 67.5424 32.6315 69.3991 32.6315ZM72.1842 19.6953C76.7545 19.6953 78.8968 22.893 77.9685 27.1809C77.0402 31.396 73.3982 34.8844 68.6136 34.8844C63.472 34.8844 62.0437 31.0326 62.8293 27.3989C63.6149 23.4744 67.114 19.6953 72.1842 19.6953Z" fill="#A1A1A1"/>
<path d="M86.9646 20.0596C89.464 20.0596 90.7493 21.7311 90.2495 23.984C89.5354 27.1817 86.3932 28.6353 83.5368 28.2719C85.0365 27.6178 85.8934 26.5276 86.2504 24.9288C86.6789 22.8939 85.8219 22.1671 84.8936 22.1671H84.6794L82.4656 32.1236C82.2514 32.9957 82.2514 33.7952 82.8227 34.3766H77.4668C78.3238 33.7952 78.6094 32.9957 78.8236 32.1236L81.0374 22.2398C81.2516 21.3677 81.323 20.5683 80.7518 19.9868H86.9646V20.0596Z" fill="#A1A1A1"/>
<path d="M102.245 23.0388C101.459 22.3847 100.46 21.8759 99.2454 21.8759C95.4612 21.8759 94.5328 26.0185 94.3897 26.6726C93.2472 31.9051 95.9607 32.5593 97.6031 32.5593C98.8176 32.5593 100.817 31.9051 102.317 31.1784L100.745 34.0855C99.746 34.4488 98.3888 34.8122 96.3177 34.8122C91.2476 34.8122 89.4623 31.2511 90.3907 27.1813C91.3904 22.8207 95.1042 19.623 99.4598 19.623C100.674 19.623 101.816 19.7684 102.744 20.0591L102.245 23.0388Z" fill="#A1A1A1"/>
<path d="M110.665 20.0581C109.807 20.6395 109.522 21.4389 109.308 22.311L107.736 29.4332L114.378 20.1308H118.449C117.591 20.7122 117.306 21.5116 117.163 22.3837L114.949 32.2675C114.735 33.1397 114.735 33.939 115.307 34.5204H109.95C110.807 33.939 111.093 33.1397 111.236 32.2675L112.807 25.218L106.166 34.5204H102.167C103.024 33.939 103.309 33.1397 103.452 32.2675L105.666 22.3837C105.809 21.5116 105.879 20.7122 105.309 20.1308H110.665V20.0581Z" fill="#A1A1A1"/>
<path d="M135.097 23.2558C134.954 22.4563 134.169 22.4563 133.597 22.4563H132.312L130.169 32.2675C129.955 33.1397 129.955 33.939 130.526 34.5204H125.17C126.028 33.939 126.313 33.1397 126.456 32.2675L128.599 22.4563H127.313C126.385 22.4563 125.527 22.8197 124.813 23.4011L126.313 20.0581C126.456 20.1308 126.599 20.1308 126.813 20.1308H136.026C136.239 20.1308 136.383 20.1308 136.525 20.0581L135.097 23.2558Z" fill="#A1A1A1"/>
<path d="M144.307 20.0596C146.806 20.0596 148.091 21.7311 147.591 23.984C146.877 27.1817 143.735 28.6353 140.808 28.2719C142.306 27.6178 143.164 26.5276 143.521 24.9288C143.95 22.8939 143.092 22.1671 142.093 22.1671H141.879L139.665 32.1236C139.45 32.9957 139.379 33.7952 140.022 34.3766H134.666C135.523 33.7952 135.809 32.9957 135.951 32.1236L138.165 22.2398C138.379 21.3677 138.45 20.5683 137.808 19.9868H144.307V20.0596Z" fill="#A1A1A1"/>
<path d="M153.592 28.0523L153.163 23.6919L150.735 28.0523H153.592ZM156.592 20.0581L158.02 31.9041C158.234 33.6484 158.805 34.2298 159.091 34.4478H152.878C153.52 34.1571 153.949 33.5756 154.092 32.9943C154.164 32.7763 154.164 32.2675 154.092 32.1222L153.877 30.0873H149.807L148.664 32.1222C148.522 32.4129 148.307 32.7763 148.236 33.1397C148.165 33.4303 148.093 33.9391 148.593 34.4478H144.451C145.38 33.6484 145.879 33.0669 146.451 31.9041L151.735 22.311C151.95 22.0204 152.092 21.6569 152.163 21.2209C152.235 20.8575 152.163 20.4942 151.664 20.0581H156.592Z" fill="#A1A1A1"/>
<path d="M175.801 20.0581C174.944 20.6395 174.658 21.4389 174.515 22.311L172.302 32.1949C172.087 33.0669 172.016 33.8664 172.659 34.4478H167.303C168.159 33.8664 168.446 33.0669 168.588 32.1949L169.588 27.7617H165.875L164.875 32.1949C164.66 33.0669 164.66 33.8664 165.232 34.4478H159.876C160.734 33.8664 161.019 33.0669 161.161 32.1949L163.375 22.311C163.589 21.4389 163.661 20.6395 163.018 20.0581H168.374C167.589 20.6395 167.231 21.4389 167.088 22.311L166.303 25.7268H170.016L170.802 22.311C171.016 21.4389 171.088 20.6395 170.445 20.0581H175.801Z" fill="#A1A1A1"/>
<path d="M187.581 23.0388C186.796 22.3847 185.724 21.8759 184.582 21.8759C180.797 21.8759 179.869 26.0185 179.726 26.6726C178.583 31.9051 181.297 32.5593 182.94 32.5593C184.154 32.5593 186.153 31.9051 187.653 31.1784L186.082 34.0855C185.082 34.4488 183.725 34.8122 181.654 34.8122C176.584 34.8122 174.798 31.2511 175.727 27.1813C176.727 22.8207 180.44 19.623 184.797 19.623C186.01 19.623 187.081 19.7684 188.081 20.0591L187.581 23.0388Z" fill="#A1A1A1"/>
<path d="M124.389 26.3094H119.962C119.39 26.3094 119.176 26.4547 119.033 26.8181L118.462 28.9257C118.462 28.9257 118.605 28.7804 119.247 28.7804H123.675C124.246 28.7804 124.46 28.635 124.603 28.2716L125.174 26.1641C125.174 26.2367 125.031 26.3094 124.389 26.3094Z" fill="#A1A1A1"/>
</g>
<defs>
<clipPath id="clip0_1_2374">
<rect width="188.883" height="38.4452" fill="white"/>
</clipPath>
</defs>
</svg>
