<svg width="36" height="113" viewBox="0 0 36 113" fill="none" xmlns="http://www.w3.org/2000/svg">
<rect x="0.5" y="112.5" width="112" height="35" rx="7.5" transform="rotate(-90 0.5 112.5)" fill="#0A0A0A" stroke="#1F1F1F"/>
<path d="M23.1177 10.606H13.2173V20.5064H23.1177V23.7232H10.0005V7.38922H23.1177V10.606ZM26.3354 23.7232H23.1187V10.608H26.3354V23.7232ZM19.7603 17.2632H16.4868V13.9898H19.7603V17.2632ZM27.9995 8.99762H24.7261V5.72418H27.9995V8.99762Z" fill="#A1A1A1"/>
<path d="M20.2866 39.8959L24.2867 34.3406L20.2866 39.8959Z" fill="#A1A1A1"/>
<path d="M20.2866 39.8959L24.2867 34.3406" stroke="#00B6CC" stroke-width="0.844246" stroke-linejoin="round"/>
<path d="M21.9985 42.9822L27.9987 44.2168L21.9985 42.9822Z" fill="#A1A1A1"/>
<path d="M21.9985 42.9822L27.9987 44.2168" stroke="#FF00E6" stroke-width="0.844246" stroke-linejoin="round"/>
<path d="M21.4287 41.1304L28.0003 38.6614L21.4287 41.1304Z" fill="#00FF66"/>
<path d="M21.4287 41.1304L28.0003 38.6614" stroke="#00FF66" stroke-width="0.844246" stroke-linejoin="round"/>
<path fill-rule="evenodd" clip-rule="evenodd" d="M17.0233 35.6568L17.9997 33.7232L18.9761 35.6568L23.9219 45.4511L24.857 47.3029H22.9042H13.0952H11.1424L12.0775 45.4511L13.7918 42.0562H9.99951V40.2044H14.7269L17.0233 35.6568ZM14.0302 45.4511L17.9997 37.5903L21.9691 45.4511H14.0302Z" fill="#A1A1A1"/>
<path d="M15.0776 68.425C16.8868 68.425 18.3538 69.8922 18.354 71.7014C18.3539 73.2114 17.3317 74.4813 15.9419 74.8605L18.5239 78.2072H15.9058L13.5728 74.9777H12.2183V78.0676H10.0005V73.3176H12.0942V73.3029L14.3823 73.2482C15.2086 73.2284 15.8677 72.5523 15.8677 71.7258C15.8673 70.8854 15.1866 70.2035 14.3462 70.2033H12.2183V72.2892H10.0005V68.425H15.0776ZM21.5044 74.0773C21.5044 75.1803 22.3986 76.0752 23.5015 76.0754H23.7271C24.8301 76.0753 25.7241 75.1804 25.7241 74.0773H25.7261V68.468H27.9536V74.1096H27.9517C27.9345 76.3757 26.0929 78.2072 23.8228 78.2072H23.3774C21.0966 78.2072 19.2476 76.3581 19.2476 74.0773H19.2485V68.468H21.5044V74.0773ZM10.8892 67.3029H10.0005V57.3029H10.8892V67.3029ZM14.0737 64.2736H15.5415V65.1623H14.0737V67.3029H13.1841V63.3986H11.6382V62.509H13.1841V59.3058H11.6382V58.4172H13.1841V57.3029H14.0737V64.2736ZM17.1479 67.3029H16.2593V57.3029H17.1479V67.3029ZM19.4429 59.9035H20.561V60.7922H19.4429V67.3029H18.5542V57.3029H19.4429V59.9035ZM22.2944 67.3029H21.4058V65.1711H20.4419V64.2814H21.4058V57.3029H22.2944V67.3029ZM25.146 58.6271H26.2671V59.5168H25.146V62.9123H26.2671V63.801H25.146V67.3029H24.2573V61.9201H23.2563V61.0314H24.2573V57.3029H25.146V58.6271ZM27.9995 67.3029H27.1108V57.3029H27.9995V67.3029ZM16.2583 61.2375H14.6958V60.3478H16.2583V61.2375Z" fill="#A1A1A1"/>
<path d="M28.001 103.797L15.0859 103.802L16.6074 101.094C16.9041 100.566 17.4621 100.239 18.0674 100.237L25.9365 100.221L28.001 103.797ZM18.0361 95.2814C18.345 95.8021 18.3494 96.4488 18.0479 96.9738L14.1279 103.797H9.99902L16.4521 92.6105L18.0361 95.2814ZM25.4785 99.38L22.3721 99.42C21.7667 99.4279 21.204 99.1093 20.8994 98.5861L16.9414 91.7853L19.001 88.2072L25.4785 99.38Z" fill="#A1A1A1"/>
</svg>
