<svg width="135" height="23" viewBox="0 0 135 23" fill="none" xmlns="http://www.w3.org/2000/svg">
<path fill-rule="evenodd" clip-rule="evenodd" d="M91.7406 8.27148H86.223L86.1941 20.8861H91.7117C92.9604 20.9112 94.1976 20.6418 95.3224 20.0999C96.3317 19.6128 97.1768 18.8433 97.756 17.8843C98.3457 16.8842 98.6467 15.7402 98.6231 14.5795C98.655 13.4211 98.3655 12.2772 97.7848 11.2748C97.2057 10.3158 96.3598 9.54634 95.3513 9.05999C94.2265 8.51732 92.9892 8.24865 91.7406 8.27377V8.27225V8.27148ZM94.0806 18.3676C93.3183 18.7344 92.4793 18.9179 91.6327 18.9019L88.6063 18.9453V10.2854H91.6691C92.5165 10.2656 93.3556 10.449 94.1171 10.8197C94.7935 11.1508 95.3566 11.6759 95.7344 12.3282C96.1258 13.0238 96.3226 13.8108 96.3044 14.6085C96.3226 15.4061 96.1258 16.1939 95.7344 16.8887C95.343 17.5357 94.7661 18.0502 94.0798 18.3683L94.0806 18.3676ZM102.279 17.9642H108.562L109.854 20.8868H112.302L106.604 8.27225H104.3L98.6163 20.8868H101.036L102.278 17.9642H102.279ZM105.464 10.6538L107.84 16.1672H103.073L105.463 10.6538H105.464ZM115.367 10.2565H111.184V8.27148H121.894V10.2565H117.712V20.8861H115.365V10.2565H115.366H115.367ZM124.344 17.9642H130.656L131.919 20.8868H134.367L128.669 8.27225H126.365L120.689 20.8868H123.101L124.343 17.9642H124.344ZM127.412 10.6538L129.795 16.1672H125.014L127.412 10.6538Z" fill="#A1A1A1"/>
<path d="M28.1678 17.9634H21.8553L20.6134 20.8861H18.1943L23.8784 8.27148H26.1819L31.8804 20.8861H29.4324L28.1686 17.9634H28.1678ZM27.3949 16.1665L25.0115 10.653L22.6502 16.1665H27.3949Z" fill="#A1A1A1"/>
<path d="M41.4325 20.8877L38.8546 17.1933C38.6934 17.2024 38.5323 17.2024 38.3712 17.1933H35.5258V20.874H33.179V8.27387H38.372C39.3623 8.24799 40.3473 8.43294 41.2615 8.81502C42.0162 9.14914 42.6539 9.69942 43.0954 10.3958C43.5415 11.1143 43.768 11.947 43.746 12.7918C43.7612 13.6618 43.5089 14.515 43.0232 15.238C42.5345 15.9451 41.8375 16.4817 41.0297 16.7754L43.9192 20.9182L41.4347 20.8892H41.4341L41.4325 20.8877ZM40.5882 10.9073C39.9103 10.4308 39.0894 10.201 38.2625 10.2573H35.5258V15.3096H38.2625C39.0909 15.3697 39.9133 15.1368 40.5882 14.6527C40.8542 14.4244 41.0639 14.1367 41.2022 13.814C41.3397 13.4913 41.4013 13.1412 41.3831 12.791C41.4081 12.4371 41.3496 12.0809 41.2113 11.7544C41.073 11.4271 40.8603 11.1372 40.5889 10.9081L40.5882 10.9073Z" fill="#A1A1A1"/>
<path d="M55.6307 18.9232V20.8861H46.1626V8.27148H55.4141V10.2344H48.5095V13.5178H54.5978V15.4449H48.5095V18.9232H55.6307Z" fill="#A1A1A1"/>
<path d="M69.2644 8.27148V20.8861H67.3363L60.3815 12.3419V20.8861H58.0559V8.27148H59.984L66.9388 16.8157V8.27148H69.2644Z" fill="#A1A1A1"/>
<path d="M80.8968 17.9634H74.585L73.3431 20.8861H70.9309L76.564 8.27148H78.8752L84.566 20.8861H82.1181L80.8975 17.9634H80.8968ZM80.1018 16.1665L77.7185 10.653L75.3571 16.1665H80.1018Z" fill="#A1A1A1"/>
<path d="M20.0282 2.99344C20.8946 3.34203 22.0286 3.92732 22.5469 4.74094H24.5814C24.0585 3.38617 22.61 2.1326 20.6834 1.37226C18.4391 0.487854 15.4561 0 12.2854 0C9.11465 0 6.08456 0.487093 3.88816 1.37226C1.30796 2.41193 0 3.76367 0 5.39015V17.1759C0 18.8572 1.30796 20.2371 3.88816 21.2768C6.08456 22.1619 9.06677 22.649 12.2854 22.649C12.6167 22.649 12.9564 22.6437 13.2962 22.6323L14.101 20.8353C13.4877 20.8795 12.8774 20.9015 12.2854 20.9015C9.57749 20.9015 6.8286 20.4593 4.5448 19.6571C3.1236 19.1578 1.67048 18.4896 1.67048 17.3289V16.2337L1.79132 16.3212C2.42896 16.7817 3.22011 17.214 3.96263 17.5078C6.15067 18.3739 9.10629 18.8503 12.2854 18.8503C13.2194 18.8503 14.1481 18.8085 15.0449 18.7255L15.8862 16.8464C14.7006 17.0168 13.49 17.1021 12.2854 17.1021C9.57749 17.1021 6.8286 16.6599 4.5448 15.8577C3.1236 15.3584 1.67048 14.6901 1.67048 13.5294V12.4342L1.79132 12.5217C2.42896 12.9822 3.22011 13.4145 3.96263 13.7083C6.15067 14.5744 9.10629 15.0509 12.2854 15.0509C13.8776 15.0509 15.4128 14.9322 16.8476 14.6993L17.7391 12.7074C16.0025 13.0971 14.12 13.3034 12.2854 13.3034C9.57749 13.3034 6.8286 12.8612 4.5448 12.0582C3.1236 11.5589 1.67048 10.8907 1.67048 9.72999V8.63476L1.79132 8.72229C2.42896 9.18276 3.22011 9.61507 3.96263 9.90885C6.15067 10.775 9.10629 11.2514 12.2854 11.2514C14.6064 11.2514 16.8309 10.9957 18.7226 10.5124L19.6695 8.39653C17.7125 9.11197 15.1004 9.5047 12.2861 9.5047C9.28565 9.5047 6.53599 9.0625 4.54252 8.25953C3.49828 7.83864 1.74724 6.93749 1.74724 5.62763C1.74724 4.31776 3.49904 3.41736 4.54252 2.99571C4.63904 2.95689 4.74011 2.91731 4.84575 2.8785L4.91492 2.85263L4.94228 2.92187C4.99928 3.06495 6.34371 6.43137 6.45847 6.74038C6.58311 7.07679 6.76475 7.11177 7.03607 7.0585C7.28307 7.00978 9.53189 6.58206 12.2854 6.58206C12.5179 6.58206 12.7596 6.58584 13.0066 6.59269L13.0758 6.59421C14.8929 6.64673 16.6128 6.87738 17.5347 7.05928C17.8052 7.11256 17.9869 7.07753 18.1123 6.74112C18.1982 6.50898 19.5707 3.06954 19.6285 2.92265L19.6558 2.85337L19.7258 2.87927C19.8314 2.91885 19.9332 2.95764 20.029 2.99645V2.99493L20.0282 2.99344ZM11.4098 4.84597L11.3361 4.84824C10.0479 4.89238 8.82129 5.02785 7.78845 5.2402L7.72613 5.25317L6.58387 2.35639L6.66975 2.33658C8.05521 2.01463 9.66793 1.81598 11.3316 1.7627L11.4098 1.76043V4.84597ZM17.9489 2.4477L16.8423 5.25317L16.78 5.2402C15.7472 5.02709 14.5205 4.89238 13.2331 4.84824L13.1594 4.84597V1.76043L13.2376 1.7627C14.9028 1.81598 16.514 2.01387 17.8995 2.33658L17.9983 2.35944L17.9489 2.4477Z" fill="#A1A1A1"/>
</svg>
