<svg width="130" height="19" viewBox="0 0 130 19" fill="none" xmlns="http://www.w3.org/2000/svg">
<path d="M8.44338 0.353516V2.7739H2.54562V18.002H0V0.353516H8.44338Z" fill="#A1A1A1"/>
<path d="M19.4809 16.7663C18.5231 17.8084 17.2041 18.3294 15.5238 18.3294C13.8435 18.3294 12.5245 17.8084 11.5668 16.7663C10.609 15.7074 10.1301 14.2535 10.1301 12.4046V5.95026C10.1301 4.10136 10.609 2.65585 11.5668 1.61376C12.5245 0.554845 13.8435 0.0253906 15.5238 0.0253906C17.2041 0.0253906 18.5231 0.554845 19.4809 1.61376C20.4386 2.65585 20.9175 4.10136 20.9175 5.95026V12.4046C20.9175 14.2535 20.4386 15.7074 19.4809 16.7663ZM15.5238 15.8334C16.4312 15.8334 17.1201 15.5393 17.5906 14.951C18.061 14.3627 18.2963 13.5139 18.2963 12.4046V5.95026C18.2963 4.84092 18.061 3.99212 17.5906 3.40383C17.1201 2.81554 16.4312 2.5214 15.5238 2.5214C13.6755 2.5214 12.7514 3.66436 12.7514 5.95026V12.4046C12.7514 14.6905 13.6755 15.8334 15.5238 15.8334Z" fill="#A1A1A1"/>
<path d="M28.5854 0.353516C30.316 0.353516 31.6519 0.857759 32.5929 1.86625C33.5338 2.85793 34.0043 4.253 34.0043 6.05146C34.0043 7.90037 33.5338 9.32065 32.5929 10.3123C31.6519 11.304 30.316 11.7998 28.5854 11.7998H26.4681V18.002H23.9226V0.353516H28.5854ZM28.5601 9.37947C30.4589 9.37947 31.4081 8.27015 31.4081 6.05146C31.4081 3.86642 30.4589 2.7739 28.5601 2.7739H26.4681V9.37949L28.5601 9.37947Z" fill="#A1A1A1"/>
<path d="M36.1787 18.002V0.353522H38.6739V8.06844C38.6739 9.8501 38.5815 11.5477 38.3966 13.1613L38.4722 13.2117C39.0604 11.6654 39.4803 10.6233 39.7325 10.0854L44.0172 0.353516H46.6132V18.002H44.1178V10.3123C44.1178 8.61471 44.1936 6.89188 44.3448 5.14383L44.2692 5.09339C43.765 6.48848 43.3451 7.5726 43.0089 8.34578L38.7494 18.002H36.1787Z" fill="#A1A1A1"/>
<path d="M56.8406 8.84948C58.8737 9.42095 59.8903 10.8412 59.8903 13.1103C59.8903 14.7071 59.3779 15.9761 58.3529 16.9174C57.3446 17.8586 56.0424 18.3293 54.4463 18.3293C52.8163 18.3293 51.5057 17.825 50.5144 16.8165C49.5397 15.7912 49.0105 14.5054 48.9265 12.9591H51.4973C51.5478 13.7995 51.825 14.497 52.329 15.0517C52.8331 15.6063 53.5303 15.8837 54.421 15.8837C55.278 15.8837 55.9752 15.6315 56.5128 15.1273C57.0507 14.6063 57.3195 13.8919 57.3195 12.9843C57.3195 12.043 57.0339 11.3203 56.4625 10.816C55.8912 10.3118 55.1266 10.0597 54.169 10.0597H52.8331V7.79055H53.9421C55.8912 7.79055 56.8659 6.86612 56.8659 5.01722C56.8659 4.21042 56.6474 3.58011 56.2106 3.12629C55.7904 2.67248 55.194 2.44557 54.421 2.44557C52.7576 2.44557 51.8669 3.43726 51.7494 5.42062H49.229C49.313 3.7566 49.8003 2.43717 50.6908 1.4623C51.5815 0.487434 52.8247 0 54.421 0C55.9502 0 57.1684 0.453818 58.0757 1.36146C58.983 2.25228 59.4366 3.47928 59.4366 5.04244C59.4366 6.94176 58.5712 8.21077 56.8406 8.84948Z" fill="#A1A1A1"/>
<path d="M71.2681 16.7663C70.3102 17.8084 68.9914 18.3294 67.3111 18.3294C65.6308 18.3294 64.3118 17.8084 63.354 16.7663C62.3962 15.7074 61.9172 14.2535 61.9172 12.4046V5.95026C61.9172 4.10136 62.3962 2.65585 63.354 1.61376C64.3118 0.554845 65.6308 0.0253906 67.3111 0.0253906C68.9914 0.0253906 70.3102 0.554845 71.2681 1.61376C72.2259 2.65585 72.7048 4.10136 72.7048 5.95026V12.4046C72.7048 14.2535 72.2259 15.7074 71.2681 16.7663ZM67.3111 15.8334C68.2184 15.8334 68.9072 15.5393 69.3777 14.951C69.8482 14.3627 70.0835 13.5139 70.0835 12.4046V5.95026C70.0835 4.84092 69.8482 3.99212 69.3777 3.40383C68.9072 2.81554 68.2184 2.5214 67.3111 2.5214C65.4626 2.5214 64.5385 3.66436 64.5385 5.95026V12.4046C64.5385 14.6905 65.4626 15.8334 67.3111 15.8334Z" fill="#A1A1A1"/>
<path d="M83.2457 0.353516H85.7914V18.002H83.2457V10.2619H78.2554V18.002H75.7097V0.353516H78.2554V7.86675H83.2457V0.353516Z" fill="#A1A1A1"/>
<path d="M97.8901 0.353516V2.7739H94.2104V18.002H91.6144V2.7739H87.9597V0.353516H97.8901Z" fill="#A1A1A1"/>
<path d="M97.9927 12.6057V10.4375H104.168V12.6057H97.9927Z" fill="#A1A1A1"/>
<path d="M114.559 8.92565C115.316 9.24502 115.912 9.75765 116.349 10.4636C116.786 11.1695 117.004 12.0015 117.004 12.9596C117.004 14.5228 116.542 15.7582 115.618 16.6658C114.694 17.5566 113.459 18.002 111.913 18.002H106.872V0.353516H111.661C113.089 0.353516 114.223 0.790527 115.063 1.66455C115.92 2.52177 116.349 3.68151 116.349 5.14383C116.349 6.90868 115.752 8.16927 114.559 8.92565ZM111.358 2.74868H109.418V7.81633H111.434C112.98 7.81633 113.753 6.9507 113.753 5.21947C113.753 3.57227 112.955 2.74868 111.358 2.74868ZM111.585 15.6069C113.467 15.6069 114.408 14.7244 114.408 12.9596C114.408 12.0688 114.148 11.388 113.627 10.9174C113.106 10.4468 112.392 10.2115 111.485 10.2115H109.418V15.6069H111.585Z" fill="#A1A1A1"/>
<path d="M124.232 18.3042C122.653 18.3042 121.401 17.8252 120.477 16.8671C119.569 15.9091 119.116 14.556 119.116 12.808V5.54686C119.116 3.78199 119.569 2.42054 120.477 1.46248C121.384 0.504419 122.627 0.0253906 124.207 0.0253906C125.82 0.0253906 127.08 0.496018 127.988 1.43727C128.895 2.36173 129.382 3.69796 129.449 5.44601H126.929C126.778 3.44585 125.862 2.44576 124.182 2.44576C123.409 2.44576 122.804 2.70629 122.367 3.22734C121.93 3.7484 121.712 4.52155 121.712 5.54686V12.808C121.712 13.8332 121.93 14.6064 122.367 15.1275C122.821 15.6317 123.442 15.8839 124.232 15.8839C125.929 15.8839 126.862 14.8922 127.03 12.9088H129.55C129.466 14.64 128.962 15.9763 128.038 16.9175C127.131 17.842 125.862 18.3042 124.232 18.3042Z" fill="#A1A1A1"/>
</svg>
