<svg width="138" height="28" viewBox="0 0 138 28" fill="none" xmlns="http://www.w3.org/2000/svg">
<g clip-path="url(#clip0_701_436)">
<path d="M18.4227 11.5197C18.4227 11.4669 18.4746 11.4669 18.4746 11.414C18.4746 11.4669 18.4227 11.5197 18.4227 11.5197ZM35.8691 5.54849H21.3304C20.6555 5.49564 20.0843 5.8127 19.8765 6.49966L18.4227 11.5197L19.4612 5.75986C19.6689 5.02006 20.24 4.75584 20.915 4.75584H22.3689L23.0439 1.63813C23.3035 0.686955 23.0439 0 22.0054 0H14.788C15.2554 0 15.3592 0.58127 15.2034 1.1097L13.5938 8.29634H11.2053L12.6592 1.63813C12.9188 0.686955 12.6592 0 11.6207 0H4.35138C4.8187 0 4.92254 0.58127 4.76678 1.1097L0.0936392 22.1411C-0.165979 23.0923 0.0936392 23.7792 1.13211 23.7792H8.45337C7.98601 23.7792 7.88218 23.1979 8.03799 22.6696L10.0111 13.7391H12.3996L10.5303 22.1411C10.2707 23.0923 10.5303 23.7792 11.5688 23.7792H18.89C18.4227 23.7792 18.3189 23.1979 18.4746 22.6696L21.0708 10.9913H23.4074L20.0324 26.3157C19.7727 27.2668 20.0324 27.9538 21.0708 27.9538H28.3921C27.9248 27.9538 27.8209 27.3725 27.9767 26.8441L31.5075 10.9913H34.2075C34.8825 11.0441 35.4537 10.7271 35.6614 10.0401L37.0633 5.0729C36.9075 5.4428 36.0768 5.54849 35.8691 5.54849Z" fill="#A1A1A1"/>
<path d="M45.733 14.584C45.1098 15.0067 44.9022 15.5879 44.7464 16.2221L43.1368 23.4087C42.981 24.0428 42.981 24.6241 43.3963 25.0468H39.5021C40.1252 24.6241 40.3329 24.0428 40.4367 23.4087L41.1636 20.1853H38.4636L37.7367 23.4087C37.5809 24.0428 37.529 24.6241 37.9963 25.0468H34.1021C34.7251 24.6241 34.9328 24.0428 35.0366 23.4087L36.6463 16.2221C36.8021 15.5879 36.8021 15.0067 36.3867 14.584H40.281C39.6579 15.0067 39.4501 15.5879 39.3463 16.2221L38.7752 18.7057H41.4752L42.0464 16.2221C42.2021 15.5879 42.2021 15.0067 41.7867 14.584H45.733Z" fill="#A1A1A1"/>
<path d="M50.4615 23.7263C51.4999 23.7263 53.1096 22.9865 53.6807 20.2915C54.148 18.125 53.7846 15.9056 51.9672 15.9056C50.6692 15.9056 49.1114 16.8568 48.5403 19.4989C47.9172 22.4581 49.1114 23.7263 50.4615 23.7263ZM52.4865 14.3203C55.8096 14.3203 57.3673 16.6454 56.6923 19.7631C56.0173 22.828 53.3692 25.3644 49.8903 25.3644C46.1518 25.3644 45.1133 22.5637 45.6845 19.9216C46.2557 17.0681 48.7999 14.3203 52.4865 14.3203Z" fill="#A1A1A1"/>
<path d="M63.2323 14.5842C65.0497 14.5842 65.9842 15.7995 65.6208 17.4376C65.1016 19.7627 62.8169 20.8196 60.74 20.5554C61.8304 20.0798 62.4534 19.2871 62.7131 18.1246C63.0246 16.645 62.4015 16.1166 61.7265 16.1166H61.5707L59.9611 23.356C59.8053 23.9901 59.8053 24.5714 60.2207 24.9941H56.3264C56.9495 24.5714 57.1572 23.9901 57.313 23.356L58.9227 16.1694C59.0784 15.5353 59.1303 14.9541 58.7149 14.5312H63.2323V14.5842Z" fill="#A1A1A1"/>
<path d="M74.3456 16.7512C73.7743 16.2756 73.0478 15.9057 72.1647 15.9057C69.4131 15.9057 68.7381 18.9178 68.6341 19.3933C67.8033 23.198 69.7764 23.6736 70.9705 23.6736C71.8536 23.6736 73.3073 23.198 74.3978 22.6696L73.2552 24.7833C72.5286 25.0475 71.5419 25.3117 70.0359 25.3117C66.3494 25.3117 65.0513 22.7224 65.7263 19.7632C66.4533 16.5926 69.1536 14.2676 72.3206 14.2676C73.2037 14.2676 74.0339 14.3732 74.7089 14.5846L74.3456 16.7512Z" fill="#A1A1A1"/>
<path d="M80.4679 14.584C79.8444 15.0067 79.637 15.5879 79.4811 16.2221L78.3385 21.4007L83.168 14.6368H86.1276C85.5041 15.0595 85.2967 15.6408 85.193 16.2749L83.5827 23.4616C83.4275 24.0957 83.4275 24.6769 83.843 25.0996H79.9481C80.5716 24.6769 80.779 24.0957 80.8834 23.4616L82.0253 18.3358L77.1965 25.0996H74.2891C74.9119 24.6769 75.1193 24.0957 75.2236 23.4616L76.8332 16.2749C76.9369 15.6408 76.9884 15.0595 76.5737 14.6368H80.4679V14.584Z" fill="#A1A1A1"/>
<path d="M98.231 16.909C98.1267 16.3277 97.556 16.3277 97.1406 16.3277H96.206L94.6479 23.4616C94.492 24.0957 94.492 24.6769 94.9075 25.0996H91.0132C91.6367 24.6769 91.8441 24.0957 91.9478 23.4616L93.5059 16.3277H92.5713C91.8963 16.3277 91.2728 16.592 90.7537 17.0147L91.8441 14.584C91.9478 14.6368 92.0522 14.6368 92.2074 14.6368H98.9061C99.0612 14.6368 99.1656 14.6368 99.2693 14.584L98.231 16.909Z" fill="#A1A1A1"/>
<path d="M104.927 14.5842C106.744 14.5842 107.678 15.7995 107.315 17.4376C106.796 19.7627 104.511 20.8196 102.383 20.5554C103.472 20.0798 104.096 19.2871 104.355 18.1246C104.667 16.645 104.044 16.1166 103.317 16.1166H103.161L101.552 23.356C101.396 23.9901 101.344 24.5714 101.811 24.9941H97.917C98.5398 24.5714 98.7479 23.9901 98.8516 23.356L100.461 16.1694C100.617 15.5353 100.669 14.9541 100.202 14.5312H104.927V14.5842Z" fill="#A1A1A1"/>
<path d="M111.68 20.3966L111.368 17.2261L109.602 20.3966H111.68ZM113.861 14.584L114.899 23.1973C115.055 24.4656 115.47 24.8883 115.678 25.0468H111.161C111.628 24.8355 111.939 24.4127 112.043 23.9899C112.095 23.8314 112.095 23.4616 112.043 23.3559L111.887 21.8763H108.927L108.097 23.3559C107.993 23.5672 107.837 23.8315 107.785 24.0957C107.733 24.307 107.681 24.6769 108.045 25.0468H105.033C105.708 24.4656 106.071 24.0428 106.487 23.1973L110.33 16.2221C110.486 16.0107 110.589 15.7465 110.641 15.4294C110.693 15.1652 110.641 14.9011 110.277 14.584H113.861Z" fill="#A1A1A1"/>
<path d="M127.826 14.584C127.203 15.0067 126.995 15.5879 126.891 16.2221L125.282 23.4087C125.126 24.0428 125.074 24.6241 125.541 25.0468H121.647C122.27 24.6241 122.478 24.0428 122.582 23.4087L123.309 20.1853H120.609L119.881 23.4087C119.726 24.0428 119.726 24.6241 120.141 25.0468H116.247C116.87 24.6241 117.078 24.0428 117.181 23.4087L118.791 16.2221C118.947 15.5879 118.999 15.0067 118.531 14.584H122.426C121.855 15.0067 121.595 15.5879 121.491 16.2221L120.92 18.7057H123.62L124.191 16.2221C124.347 15.5879 124.399 15.0067 123.932 14.584H127.826Z" fill="#A1A1A1"/>
<path d="M136.393 16.7512C135.822 16.2756 135.043 15.9057 134.212 15.9057C131.46 15.9057 130.785 18.9178 130.681 19.3933C129.85 23.198 131.823 23.6736 133.018 23.6736C133.901 23.6736 135.354 23.198 136.445 22.6696L135.303 24.7833C134.576 25.0475 133.589 25.3117 132.083 25.3117C128.397 25.3117 127.098 22.7224 127.773 19.7632C128.5 16.5926 131.2 14.2676 134.368 14.2676C135.251 14.2676 136.029 14.3732 136.756 14.5846L136.393 16.7512Z" fill="#A1A1A1"/>
<path d="M90.4435 19.1291H87.2243C86.8088 19.1291 86.6529 19.2348 86.5492 19.499L86.1338 21.0314C86.1338 21.0314 86.2375 20.9258 86.7044 20.9258H89.9243C90.3391 20.9258 90.495 20.8201 90.5993 20.5559L91.0141 19.0234C91.0141 19.0763 90.9104 19.1291 90.4435 19.1291Z" fill="#A1A1A1"/>
</g>
<defs>
<clipPath id="clip0_701_436">
<rect width="137.338" height="27.9538" fill="white"/>
</clipPath>
</defs>
</svg>
