<svg width="74" height="50" viewBox="0 0 74 50" fill="none" xmlns="http://www.w3.org/2000/svg">
<g clip-path="url(#clip0_701_631)">
<mask id="mask0_701_631" style="mask-type:luminance" maskUnits="userSpaceOnUse" x="0" y="0" width="74" height="50">
<path d="M73.4375 0H0V50H73.4375V0Z" fill="white"/>
</mask>
<g mask="url(#mask0_701_631)">
<path d="M14.1302 5.00082L9.87591 0.421875H4.55802L1.62052 3.63241L0.303711 4.94819V12.5797L4.50737 17.4745H9.92655L14.0795 12.6851V5.00082H14.1302ZM3.4438 14.3166V3.52714H11.0914V14.3166H3.4438Z" fill="#A1A1A1"/>
<path d="M29.6786 5.10609L25.7788 0.421875H20.7649L18.0299 3.68503L16.9158 5.00082V17.3692H19.9038V12.4219H26.6399V17.3692H29.628V14.1061L27.3489 11.7903L29.6786 9.68503V5.10609ZM19.9038 3.79029H26.6399V9.63241H19.9038V3.79029Z" fill="#A1A1A1"/>
<path d="M68.879 0.474609H63.156V3.63251H60.1172V17.4219H63.156V3.63251H70.1959V17.4219H73.2346V5.21146L68.879 0.474609Z" fill="#A1A1A1"/>
<path d="M57.7368 4.94809L53.4825 0.369141H48.2153L45.2778 3.57966L43.9609 4.89545V12.527L48.1647 17.4217H53.5839L57.7368 12.6322V4.94809ZM47.0504 14.3165V3.52704H54.698V14.3165H47.0504Z" fill="#A1A1A1"/>
<path d="M39.403 14.2114V3.63251L36.4148 0.474609H33.4773V3.52724H36.4148V14.2114H33.4773V17.3693H42.3405V14.2114H39.403Z" fill="#A1A1A1"/>
<path d="M0.405029 47.2109V49.5793H73.2854V47.2109H0.405029Z" fill="#A1A1A1"/>
<path d="M38.2382 26.7373L33.9332 22.2109H28.6659L25.7285 25.4214L24.4116 26.7373V34.3688L28.6154 39.2636H34.0345L38.1875 34.4741V26.7373H38.2382ZM27.5011 36.1057V25.3162H35.1487V36.1057H27.5011Z" fill="#A1A1A1"/>
<path d="M53.3308 22.1582V25.3161H57.6864V39.1582H60.7759V27.8951L58.598 25.3687H65.0808V22.1582H53.3308Z" fill="#A1A1A1"/>
<path d="M50.3931 25.2108V22.1582H44.67L40.8716 26.5792V39.1056H43.8091V31.7372H50.3931V28.632H43.8091V25.2108H50.3931Z" fill="#A1A1A1"/>
<path d="M17.6251 29.0003H11.5475V25.2635H20.8664V22.1582H12.763L8.55933 26.0003V28.2635L11.4968 30.9477L12.6617 32.1056H18.8406V36.053H9.52162V39.1582H17.6251L21.7781 35.2635V33.0003" fill="#A1A1A1"/>
<path d="M53.3308 22.2109V25.3688H57.6864V39.2109H60.7759V27.9478L58.598 25.4214H65.0808V22.2109H53.3308Z" fill="#A1A1A1"/>
</g>
</g>
<defs>
<clipPath id="clip0_701_631">
<rect width="73.4375" height="50" fill="white"/>
</clipPath>
</defs>
</svg>
